%TF.GenerationSoftware,KiCad,Pcbnew,5.1.9*%
%TF.CreationDate,2020-12-27T17:49:40+01:00*%
%TF.ProjectId,CPU_65816_DIP40_V1.0,4350555f-3635-4383-9136-5f4449503430,1.0*%
%TF.SameCoordinates,Original*%
%TF.FileFunction,Soldermask,Top*%
%TF.FilePolarity,Negative*%
%FSLAX46Y46*%
G04 Gerber Fmt 4.6, Leading zero omitted, Abs format (unit mm)*
G04 Created by KiCad (PCBNEW 5.1.9) date 2020-12-27 17:49:40*
%MOMM*%
%LPD*%
G01*
G04 APERTURE LIST*
%ADD10O,1.600000X2.400000*%
%ADD11R,1.600000X2.400000*%
%ADD12C,2.800000*%
%ADD13O,1.600000X1.600000*%
%ADD14R,1.600000X1.600000*%
%ADD15C,1.600000*%
%ADD16C,1.800000*%
%ADD17R,1.800000X1.800000*%
%ADD18O,1.700000X1.700000*%
%ADD19R,1.700000X1.700000*%
G04 APERTURE END LIST*
D10*
%TO.C,U3*%
X147320000Y-79375000D03*
X170180000Y-86995000D03*
X149860000Y-79375000D03*
X167640000Y-86995000D03*
X152400000Y-79375000D03*
X165100000Y-86995000D03*
X154940000Y-79375000D03*
X162560000Y-86995000D03*
X157480000Y-79375000D03*
X160020000Y-86995000D03*
X160020000Y-79375000D03*
X157480000Y-86995000D03*
X162560000Y-79375000D03*
X154940000Y-86995000D03*
X165100000Y-79375000D03*
X152400000Y-86995000D03*
X167640000Y-79375000D03*
X149860000Y-86995000D03*
X170180000Y-79375000D03*
D11*
X147320000Y-86995000D03*
%TD*%
D10*
%TO.C,U2*%
X147320000Y-92075000D03*
X170180000Y-99695000D03*
X149860000Y-92075000D03*
X167640000Y-99695000D03*
X152400000Y-92075000D03*
X165100000Y-99695000D03*
X154940000Y-92075000D03*
X162560000Y-99695000D03*
X157480000Y-92075000D03*
X160020000Y-99695000D03*
X160020000Y-92075000D03*
X157480000Y-99695000D03*
X162560000Y-92075000D03*
X154940000Y-99695000D03*
X165100000Y-92075000D03*
X152400000Y-99695000D03*
X167640000Y-92075000D03*
X149860000Y-99695000D03*
X170180000Y-92075000D03*
D11*
X147320000Y-99695000D03*
%TD*%
D12*
%TO.C,TP1*%
X83312000Y-108839000D03*
%TD*%
D10*
%TO.C,U1*%
X88900000Y-79375000D03*
X137160000Y-94615000D03*
X91440000Y-79375000D03*
X134620000Y-94615000D03*
X93980000Y-79375000D03*
X132080000Y-94615000D03*
X96520000Y-79375000D03*
X129540000Y-94615000D03*
X99060000Y-79375000D03*
X127000000Y-94615000D03*
X101600000Y-79375000D03*
X124460000Y-94615000D03*
X104140000Y-79375000D03*
X121920000Y-94615000D03*
X106680000Y-79375000D03*
X119380000Y-94615000D03*
X109220000Y-79375000D03*
X116840000Y-94615000D03*
X111760000Y-79375000D03*
X114300000Y-94615000D03*
X114300000Y-79375000D03*
X111760000Y-94615000D03*
X116840000Y-79375000D03*
X109220000Y-94615000D03*
X119380000Y-79375000D03*
X106680000Y-94615000D03*
X121920000Y-79375000D03*
X104140000Y-94615000D03*
X124460000Y-79375000D03*
X101600000Y-94615000D03*
X127000000Y-79375000D03*
X99060000Y-94615000D03*
X129540000Y-79375000D03*
X96520000Y-94615000D03*
X132080000Y-79375000D03*
X93980000Y-94615000D03*
X134620000Y-79375000D03*
X91440000Y-94615000D03*
X137160000Y-79375000D03*
D11*
X88900000Y-94615000D03*
%TD*%
D13*
%TO.C,RN1*%
X101600000Y-99695000D03*
X99060000Y-99695000D03*
X96520000Y-99695000D03*
X93980000Y-99695000D03*
X91440000Y-99695000D03*
D14*
X88900000Y-99695000D03*
%TD*%
D13*
%TO.C,R3*%
X109220000Y-70485000D03*
D15*
X116840000Y-70485000D03*
%TD*%
D13*
%TO.C,R2*%
X109220000Y-66675000D03*
D15*
X116840000Y-66675000D03*
%TD*%
D16*
%TO.C,D3*%
X93980000Y-66675000D03*
D17*
X96520000Y-66675000D03*
%TD*%
D16*
%TO.C,D2*%
X101600000Y-66675000D03*
D17*
X104140000Y-66675000D03*
%TD*%
D15*
%TO.C,C3*%
X143510000Y-74375000D03*
X143510000Y-79375000D03*
%TD*%
%TO.C,C2*%
X143510000Y-87075000D03*
X143510000Y-92075000D03*
%TD*%
%TO.C,C1*%
X106680000Y-103425000D03*
X106680000Y-98425000D03*
%TD*%
D13*
%TO.C,R1*%
X165100000Y-71755000D03*
D15*
X172720000Y-71755000D03*
%TD*%
D18*
%TO.C,J1*%
X109220000Y-109855000D03*
X109220000Y-107315000D03*
X111760000Y-109855000D03*
X111760000Y-107315000D03*
X114300000Y-109855000D03*
X114300000Y-107315000D03*
X116840000Y-109855000D03*
X116840000Y-107315000D03*
X119380000Y-109855000D03*
X119380000Y-107315000D03*
X121920000Y-109855000D03*
X121920000Y-107315000D03*
X124460000Y-109855000D03*
X124460000Y-107315000D03*
X127000000Y-109855000D03*
X127000000Y-107315000D03*
X129540000Y-109855000D03*
X129540000Y-107315000D03*
X132080000Y-109855000D03*
X132080000Y-107315000D03*
X134620000Y-109855000D03*
X134620000Y-107315000D03*
X137160000Y-109855000D03*
X137160000Y-107315000D03*
X139700000Y-109855000D03*
X139700000Y-107315000D03*
X142240000Y-109855000D03*
X142240000Y-107315000D03*
X144780000Y-109855000D03*
X144780000Y-107315000D03*
X147320000Y-109855000D03*
X147320000Y-107315000D03*
X149860000Y-109855000D03*
X149860000Y-107315000D03*
X152400000Y-109855000D03*
X152400000Y-107315000D03*
X154940000Y-109855000D03*
X154940000Y-107315000D03*
X157480000Y-109855000D03*
X157480000Y-107315000D03*
X160020000Y-109855000D03*
X160020000Y-107315000D03*
X162560000Y-109855000D03*
X162560000Y-107315000D03*
X165100000Y-109855000D03*
X165100000Y-107315000D03*
X167640000Y-109855000D03*
X167640000Y-107315000D03*
X170180000Y-109855000D03*
D19*
X170180000Y-107315000D03*
%TD*%
D16*
%TO.C,D1*%
X162560000Y-66675000D03*
D17*
X165100000Y-66675000D03*
%TD*%
M02*
