M48
; DRILL file {KiCad 5.1.9} date Sun Dec 27 17:49:39 2020
; FORMAT={-:-/ absolute / inch / decimal}
; #@! TF.CreationDate,2020-12-27T17:49:39+01:00
; #@! TF.GenerationSoftware,Kicad,Pcbnew,5.1.9
; #@! TF.FileFunction,Plated,1,2,PTH
FMAT,2
INCH
T1C0.0315
T2C0.0354
T3C0.0394
T4C0.0551
%
G90
G05
T1
X3.5Y-3.125
X3.5Y-3.725
X3.5Y-3.925
X3.6Y-3.125
X3.6Y-3.725
X3.6Y-3.925
X3.7Y-3.125
X3.7Y-3.725
X3.7Y-3.925
X3.8Y-3.125
X3.8Y-3.725
X3.8Y-3.925
X3.9Y-3.125
X3.9Y-3.725
X3.9Y-3.925
X4.0Y-3.125
X4.0Y-3.725
X4.0Y-3.925
X4.1Y-3.125
X4.1Y-3.725
X4.2Y-3.125
X4.2Y-3.725
X4.2Y-3.875
X4.2Y-4.0719
X4.3Y-2.625
X4.3Y-2.775
X4.3Y-3.125
X4.3Y-3.725
X4.4Y-3.125
X4.4Y-3.725
X4.5Y-3.125
X4.5Y-3.725
X4.6Y-2.625
X4.6Y-2.775
X4.6Y-3.125
X4.6Y-3.725
X4.7Y-3.125
X4.7Y-3.725
X4.8Y-3.125
X4.8Y-3.725
X4.9Y-3.125
X4.9Y-3.725
X5.0Y-3.125
X5.0Y-3.725
X5.1Y-3.125
X5.1Y-3.725
X5.2Y-3.125
X5.2Y-3.725
X5.3Y-3.125
X5.3Y-3.725
X5.4Y-3.125
X5.4Y-3.725
X5.65Y-2.9281
X5.65Y-3.125
X5.65Y-3.4281
X5.65Y-3.625
X5.8Y-3.125
X5.8Y-3.425
X5.8Y-3.625
X5.8Y-3.925
X5.9Y-3.125
X5.9Y-3.425
X5.9Y-3.625
X5.9Y-3.925
X6.0Y-3.125
X6.0Y-3.425
X6.0Y-3.625
X6.0Y-3.925
X6.1Y-3.125
X6.1Y-3.425
X6.1Y-3.625
X6.1Y-3.925
X6.2Y-3.125
X6.2Y-3.425
X6.2Y-3.625
X6.2Y-3.925
X6.3Y-3.125
X6.3Y-3.425
X6.3Y-3.625
X6.3Y-3.925
X6.4Y-3.125
X6.4Y-3.425
X6.4Y-3.625
X6.4Y-3.925
X6.5Y-2.825
X6.5Y-3.125
X6.5Y-3.425
X6.5Y-3.625
X6.5Y-3.925
X6.6Y-3.125
X6.6Y-3.425
X6.6Y-3.625
X6.6Y-3.925
X6.7Y-3.125
X6.7Y-3.425
X6.7Y-3.625
X6.7Y-3.925
X6.8Y-2.825
T2
X3.7Y-2.625
X3.8Y-2.625
X4.0Y-2.625
X4.1Y-2.625
X6.4Y-2.625
X6.5Y-2.625
T3
X4.3Y-4.225
X4.3Y-4.325
X4.4Y-4.225
X4.4Y-4.325
X4.5Y-4.225
X4.5Y-4.325
X4.6Y-4.225
X4.6Y-4.325
X4.7Y-4.225
X4.7Y-4.325
X4.8Y-4.225
X4.8Y-4.325
X4.9Y-4.225
X4.9Y-4.325
X5.0Y-4.225
X5.0Y-4.325
X5.1Y-4.225
X5.1Y-4.325
X5.2Y-4.225
X5.2Y-4.325
X5.3Y-4.225
X5.3Y-4.325
X5.4Y-4.225
X5.4Y-4.325
X5.5Y-4.225
X5.5Y-4.325
X5.6Y-4.225
X5.6Y-4.325
X5.7Y-4.225
X5.7Y-4.325
X5.8Y-4.225
X5.8Y-4.325
X5.9Y-4.225
X5.9Y-4.325
X6.0Y-4.225
X6.0Y-4.325
X6.1Y-4.225
X6.1Y-4.325
X6.2Y-4.225
X6.2Y-4.325
X6.3Y-4.225
X6.3Y-4.325
X6.4Y-4.225
X6.4Y-4.325
X6.5Y-4.225
X6.5Y-4.325
X6.6Y-4.225
X6.6Y-4.325
X6.7Y-4.225
X6.7Y-4.325
T4
X3.28Y-4.285
T0
M30
