%TF.GenerationSoftware,KiCad,Pcbnew,5.1.9*%
%TF.CreationDate,2020-12-27T17:49:40+01:00*%
%TF.ProjectId,CPU_65816_DIP40_V1.0,4350555f-3635-4383-9136-5f4449503430,1.0*%
%TF.SameCoordinates,Original*%
%TF.FileFunction,Legend,Bot*%
%TF.FilePolarity,Positive*%
%FSLAX46Y46*%
G04 Gerber Fmt 4.6, Leading zero omitted, Abs format (unit mm)*
G04 Created by KiCad (PCBNEW 5.1.9) date 2020-12-27 17:49:40*
%MOMM*%
%LPD*%
G01*
G04 APERTURE LIST*
%ADD10C,0.100000*%
%ADD11C,0.200000*%
G04 APERTURE END LIST*
D10*
G36*
X148590000Y-72390000D02*
G01*
X134620000Y-72390000D01*
X134620000Y-69215000D01*
X148590000Y-69215000D01*
X148590000Y-72390000D01*
G37*
X148590000Y-72390000D02*
X134620000Y-72390000D01*
X134620000Y-69215000D01*
X148590000Y-69215000D01*
X148590000Y-72390000D01*
G36*
X148590000Y-67310000D02*
G01*
X134620000Y-67310000D01*
X134620000Y-64135000D01*
X148590000Y-64135000D01*
X148590000Y-67310000D01*
G37*
X148590000Y-67310000D02*
X134620000Y-67310000D01*
X134620000Y-64135000D01*
X148590000Y-64135000D01*
X148590000Y-67310000D01*
D11*
X153418571Y-66173571D02*
X153918571Y-65459285D01*
X154275714Y-66173571D02*
X154275714Y-64673571D01*
X153704285Y-64673571D01*
X153561428Y-64745000D01*
X153490000Y-64816428D01*
X153418571Y-64959285D01*
X153418571Y-65173571D01*
X153490000Y-65316428D01*
X153561428Y-65387857D01*
X153704285Y-65459285D01*
X154275714Y-65459285D01*
X152204285Y-66102142D02*
X152347142Y-66173571D01*
X152632857Y-66173571D01*
X152775714Y-66102142D01*
X152847142Y-65959285D01*
X152847142Y-65387857D01*
X152775714Y-65245000D01*
X152632857Y-65173571D01*
X152347142Y-65173571D01*
X152204285Y-65245000D01*
X152132857Y-65387857D01*
X152132857Y-65530714D01*
X152847142Y-65673571D01*
X151632857Y-65173571D02*
X151275714Y-66173571D01*
X150918571Y-65173571D01*
X150347142Y-66030714D02*
X150275714Y-66102142D01*
X150347142Y-66173571D01*
X150418571Y-66102142D01*
X150347142Y-66030714D01*
X150347142Y-66173571D01*
X150347142Y-65245000D02*
X150275714Y-65316428D01*
X150347142Y-65387857D01*
X150418571Y-65316428D01*
X150347142Y-65245000D01*
X150347142Y-65387857D01*
X156918571Y-71002142D02*
X156704285Y-71073571D01*
X156347142Y-71073571D01*
X156204285Y-71002142D01*
X156132857Y-70930714D01*
X156061428Y-70787857D01*
X156061428Y-70645000D01*
X156132857Y-70502142D01*
X156204285Y-70430714D01*
X156347142Y-70359285D01*
X156632857Y-70287857D01*
X156775714Y-70216428D01*
X156847142Y-70145000D01*
X156918571Y-70002142D01*
X156918571Y-69859285D01*
X156847142Y-69716428D01*
X156775714Y-69645000D01*
X156632857Y-69573571D01*
X156275714Y-69573571D01*
X156061428Y-69645000D01*
X154847142Y-71002142D02*
X154990000Y-71073571D01*
X155275714Y-71073571D01*
X155418571Y-71002142D01*
X155490000Y-70859285D01*
X155490000Y-70287857D01*
X155418571Y-70145000D01*
X155275714Y-70073571D01*
X154990000Y-70073571D01*
X154847142Y-70145000D01*
X154775714Y-70287857D01*
X154775714Y-70430714D01*
X155490000Y-70573571D01*
X154132857Y-71073571D02*
X154132857Y-70073571D01*
X154132857Y-70359285D02*
X154061428Y-70216428D01*
X153990000Y-70145000D01*
X153847142Y-70073571D01*
X153704285Y-70073571D01*
X153204285Y-71073571D02*
X153204285Y-70073571D01*
X153204285Y-69573571D02*
X153275714Y-69645000D01*
X153204285Y-69716428D01*
X153132857Y-69645000D01*
X153204285Y-69573571D01*
X153204285Y-69716428D01*
X151847142Y-71073571D02*
X151847142Y-70287857D01*
X151918571Y-70145000D01*
X152061428Y-70073571D01*
X152347142Y-70073571D01*
X152490000Y-70145000D01*
X151847142Y-71002142D02*
X151990000Y-71073571D01*
X152347142Y-71073571D01*
X152490000Y-71002142D01*
X152561428Y-70859285D01*
X152561428Y-70716428D01*
X152490000Y-70573571D01*
X152347142Y-70502142D01*
X151990000Y-70502142D01*
X151847142Y-70430714D01*
X150918571Y-71073571D02*
X151061428Y-71002142D01*
X151132857Y-70859285D01*
X151132857Y-69573571D01*
X150347142Y-70930714D02*
X150275714Y-71002142D01*
X150347142Y-71073571D01*
X150418571Y-71002142D01*
X150347142Y-70930714D01*
X150347142Y-71073571D01*
X150347142Y-70145000D02*
X150275714Y-70216428D01*
X150347142Y-70287857D01*
X150418571Y-70216428D01*
X150347142Y-70145000D01*
X150347142Y-70287857D01*
M02*
