%TF.GenerationSoftware,KiCad,Pcbnew,5.1.9*%
%TF.CreationDate,2021-02-01T10:02:44+01:00*%
%TF.ProjectId,MMU_2x22v10_v1.0,4d4d555f-3278-4323-9276-31305f76312e,1.1*%
%TF.SameCoordinates,Original*%
%TF.FileFunction,Copper,L2,Bot*%
%TF.FilePolarity,Positive*%
%FSLAX46Y46*%
G04 Gerber Fmt 4.6, Leading zero omitted, Abs format (unit mm)*
G04 Created by KiCad (PCBNEW 5.1.9) date 2021-02-01 10:02:44*
%MOMM*%
%LPD*%
G01*
G04 APERTURE LIST*
%TA.AperFunction,ComponentPad*%
%ADD10O,1.600000X2.400000*%
%TD*%
%TA.AperFunction,ComponentPad*%
%ADD11R,1.600000X2.400000*%
%TD*%
%TA.AperFunction,ComponentPad*%
%ADD12O,1.700000X1.700000*%
%TD*%
%TA.AperFunction,ComponentPad*%
%ADD13R,1.700000X1.700000*%
%TD*%
%TA.AperFunction,ComponentPad*%
%ADD14C,1.600000*%
%TD*%
%TA.AperFunction,ComponentPad*%
%ADD15C,2.800000*%
%TD*%
%TA.AperFunction,ComponentPad*%
%ADD16O,1.600000X1.600000*%
%TD*%
%TA.AperFunction,ComponentPad*%
%ADD17C,1.800000*%
%TD*%
%TA.AperFunction,ComponentPad*%
%ADD18R,1.800000X1.800000*%
%TD*%
%TA.AperFunction,Conductor*%
%ADD19C,0.228600*%
%TD*%
%TA.AperFunction,Conductor*%
%ADD20C,0.254000*%
%TD*%
%TA.AperFunction,Conductor*%
%ADD21C,0.100000*%
%TD*%
%TA.AperFunction,Conductor*%
%ADD22C,0.025400*%
%TD*%
G04 APERTURE END LIST*
D10*
%TO.P,U2,24*%
%TO.N,+5V*%
X149860000Y-81280000D03*
%TO.P,U2,12*%
%TO.N,GND*%
X177800000Y-88900000D03*
%TO.P,U2,23*%
%TO.N,/~BANK00*%
X152400000Y-81280000D03*
%TO.P,U2,11*%
%TO.N,/VPA*%
X175260000Y-88900000D03*
%TO.P,U2,22*%
%TO.N,/~WE*%
X154940000Y-81280000D03*
%TO.P,U2,10*%
%TO.N,/A23*%
X172720000Y-88900000D03*
%TO.P,U2,21*%
%TO.N,/~OE*%
X157480000Y-81280000D03*
%TO.P,U2,9*%
%TO.N,/A22*%
X170180000Y-88900000D03*
%TO.P,U2,20*%
%TO.N,/~ROM_HIGH*%
X160020000Y-81280000D03*
%TO.P,U2,8*%
%TO.N,/A21*%
X167640000Y-88900000D03*
%TO.P,U2,19*%
%TO.N,N/C*%
X162560000Y-81280000D03*
%TO.P,U2,7*%
%TO.N,/A20*%
X165100000Y-88900000D03*
%TO.P,U2,18*%
%TO.N,N/C*%
X165100000Y-81280000D03*
%TO.P,U2,6*%
%TO.N,/A19*%
X162560000Y-88900000D03*
%TO.P,U2,17*%
%TO.N,N/C*%
X167640000Y-81280000D03*
%TO.P,U2,5*%
%TO.N,/A18*%
X160020000Y-88900000D03*
%TO.P,U2,16*%
%TO.N,N/C*%
X170180000Y-81280000D03*
%TO.P,U2,4*%
%TO.N,/A17*%
X157480000Y-88900000D03*
%TO.P,U2,15*%
%TO.N,N/C*%
X172720000Y-81280000D03*
%TO.P,U2,3*%
%TO.N,/A16*%
X154940000Y-88900000D03*
%TO.P,U2,14*%
%TO.N,/~AVALID*%
X175260000Y-81280000D03*
%TO.P,U2,2*%
%TO.N,/R~W*%
X152400000Y-88900000D03*
%TO.P,U2,13*%
%TO.N,/VDA*%
X177800000Y-81280000D03*
D11*
%TO.P,U2,1*%
%TO.N,/PHI2*%
X149860000Y-88900000D03*
%TD*%
D10*
%TO.P,U1,24*%
%TO.N,+5V*%
X104140000Y-81280000D03*
%TO.P,U1,12*%
%TO.N,GND*%
X132080000Y-88900000D03*
%TO.P,U1,23*%
%TO.N,N/C*%
X106680000Y-81280000D03*
%TO.P,U1,11*%
%TO.N,/A12*%
X129540000Y-88900000D03*
%TO.P,U1,22*%
%TO.N,/~ROM_HIGH*%
X109220000Y-81280000D03*
%TO.P,U1,10*%
%TO.N,/A11*%
X127000000Y-88900000D03*
%TO.P,U1,21*%
%TO.N,/~RAMSEL*%
X111760000Y-81280000D03*
%TO.P,U1,9*%
%TO.N,/A10*%
X124460000Y-88900000D03*
%TO.P,U1,20*%
%TO.N,/~ROMSEL*%
X114300000Y-81280000D03*
%TO.P,U1,8*%
%TO.N,/A9*%
X121920000Y-88900000D03*
%TO.P,U1,19*%
%TO.N,/~IOSEL0*%
X116840000Y-81280000D03*
%TO.P,U1,7*%
%TO.N,/A8*%
X119380000Y-88900000D03*
%TO.P,U1,18*%
%TO.N,/~IOSEL1*%
X119380000Y-81280000D03*
%TO.P,U1,6*%
%TO.N,/A7*%
X116840000Y-88900000D03*
%TO.P,U1,17*%
%TO.N,/~IOSEL2*%
X121920000Y-81280000D03*
%TO.P,U1,5*%
%TO.N,/A6*%
X114300000Y-88900000D03*
%TO.P,U1,16*%
%TO.N,/~IOSEL3*%
X124460000Y-81280000D03*
%TO.P,U1,4*%
%TO.N,/A5*%
X111760000Y-88900000D03*
%TO.P,U1,15*%
%TO.N,/A13*%
X127000000Y-81280000D03*
%TO.P,U1,3*%
%TO.N,/A4*%
X109220000Y-88900000D03*
%TO.P,U1,14*%
%TO.N,/A14*%
X129540000Y-81280000D03*
%TO.P,U1,2*%
%TO.N,/~BANK00*%
X106680000Y-88900000D03*
%TO.P,U1,13*%
%TO.N,/A15*%
X132080000Y-81280000D03*
D11*
%TO.P,U1,1*%
%TO.N,/~AVALID*%
X104140000Y-88900000D03*
%TD*%
D12*
%TO.P,J2,10*%
%TO.N,N/C*%
X96520000Y-109220000D03*
%TO.P,J2,9*%
X96520000Y-106680000D03*
%TO.P,J2,8*%
%TO.N,/~IOSEL0*%
X99060000Y-109220000D03*
%TO.P,J2,7*%
%TO.N,/~RAMSEL*%
X99060000Y-106680000D03*
%TO.P,J2,6*%
%TO.N,/~IOSEL1*%
X101600000Y-109220000D03*
%TO.P,J2,5*%
%TO.N,/~ROMSEL*%
X101600000Y-106680000D03*
%TO.P,J2,4*%
%TO.N,/~IOSEL2*%
X104140000Y-109220000D03*
%TO.P,J2,3*%
%TO.N,/~WE*%
X104140000Y-106680000D03*
%TO.P,J2,2*%
%TO.N,/~IOSEL3*%
X106680000Y-109220000D03*
D13*
%TO.P,J2,1*%
%TO.N,/~OE*%
X106680000Y-106680000D03*
%TD*%
D14*
%TO.P,C2,2*%
%TO.N,GND*%
X154860000Y-76200000D03*
%TO.P,C2,1*%
%TO.N,+5V*%
X149860000Y-76200000D03*
%TD*%
%TO.P,C1,2*%
%TO.N,GND*%
X109140000Y-76200000D03*
%TO.P,C1,1*%
%TO.N,+5V*%
X104140000Y-76200000D03*
%TD*%
D15*
%TO.P,TP1,1*%
%TO.N,GND*%
X182880000Y-66040000D03*
%TD*%
D16*
%TO.P,R1,2*%
%TO.N,Net-(D1-Pad1)*%
X177800000Y-71120000D03*
D14*
%TO.P,R1,1*%
%TO.N,GND*%
X185420000Y-71120000D03*
%TD*%
D12*
%TO.P,J1,50*%
%TO.N,GND*%
X121920000Y-109220000D03*
%TO.P,J1,49*%
%TO.N,N/C*%
X121920000Y-106680000D03*
%TO.P,J1,48*%
X124460000Y-109220000D03*
%TO.P,J1,47*%
X124460000Y-106680000D03*
%TO.P,J1,46*%
X127000000Y-109220000D03*
%TO.P,J1,45*%
X127000000Y-106680000D03*
%TO.P,J1,44*%
X129540000Y-109220000D03*
%TO.P,J1,43*%
X129540000Y-106680000D03*
%TO.P,J1,42*%
X132080000Y-109220000D03*
%TO.P,J1,41*%
X132080000Y-106680000D03*
%TO.P,J1,40*%
%TO.N,/A4*%
X134620000Y-109220000D03*
%TO.P,J1,39*%
%TO.N,N/C*%
X134620000Y-106680000D03*
%TO.P,J1,38*%
%TO.N,/A5*%
X137160000Y-109220000D03*
%TO.P,J1,37*%
%TO.N,/VDA*%
X137160000Y-106680000D03*
%TO.P,J1,36*%
%TO.N,/A6*%
X139700000Y-109220000D03*
%TO.P,J1,35*%
%TO.N,/VPA*%
X139700000Y-106680000D03*
%TO.P,J1,34*%
%TO.N,/A7*%
X142240000Y-109220000D03*
%TO.P,J1,33*%
%TO.N,/R~W*%
X142240000Y-106680000D03*
%TO.P,J1,32*%
%TO.N,/A8*%
X144780000Y-109220000D03*
%TO.P,J1,31*%
%TO.N,/PHI2*%
X144780000Y-106680000D03*
%TO.P,J1,30*%
%TO.N,/A9*%
X147320000Y-109220000D03*
%TO.P,J1,29*%
%TO.N,N/C*%
X147320000Y-106680000D03*
%TO.P,J1,28*%
%TO.N,/A10*%
X149860000Y-109220000D03*
%TO.P,J1,27*%
%TO.N,N/C*%
X149860000Y-106680000D03*
%TO.P,J1,26*%
%TO.N,/A11*%
X152400000Y-109220000D03*
%TO.P,J1,25*%
%TO.N,N/C*%
X152400000Y-106680000D03*
%TO.P,J1,24*%
%TO.N,/A12*%
X154940000Y-109220000D03*
%TO.P,J1,23*%
%TO.N,N/C*%
X154940000Y-106680000D03*
%TO.P,J1,22*%
%TO.N,/A13*%
X157480000Y-109220000D03*
%TO.P,J1,21*%
%TO.N,N/C*%
X157480000Y-106680000D03*
%TO.P,J1,20*%
%TO.N,/A14*%
X160020000Y-109220000D03*
%TO.P,J1,19*%
%TO.N,N/C*%
X160020000Y-106680000D03*
%TO.P,J1,18*%
%TO.N,/A15*%
X162560000Y-109220000D03*
%TO.P,J1,17*%
%TO.N,N/C*%
X162560000Y-106680000D03*
%TO.P,J1,16*%
%TO.N,/A16*%
X165100000Y-109220000D03*
%TO.P,J1,15*%
%TO.N,N/C*%
X165100000Y-106680000D03*
%TO.P,J1,14*%
%TO.N,/A17*%
X167640000Y-109220000D03*
%TO.P,J1,13*%
%TO.N,N/C*%
X167640000Y-106680000D03*
%TO.P,J1,12*%
%TO.N,/A18*%
X170180000Y-109220000D03*
%TO.P,J1,11*%
%TO.N,N/C*%
X170180000Y-106680000D03*
%TO.P,J1,10*%
%TO.N,/A19*%
X172720000Y-109220000D03*
%TO.P,J1,9*%
%TO.N,N/C*%
X172720000Y-106680000D03*
%TO.P,J1,8*%
%TO.N,/A20*%
X175260000Y-109220000D03*
%TO.P,J1,7*%
%TO.N,N/C*%
X175260000Y-106680000D03*
%TO.P,J1,6*%
%TO.N,/A21*%
X177800000Y-109220000D03*
%TO.P,J1,5*%
%TO.N,N/C*%
X177800000Y-106680000D03*
%TO.P,J1,4*%
%TO.N,/A22*%
X180340000Y-109220000D03*
%TO.P,J1,3*%
%TO.N,N/C*%
X180340000Y-106680000D03*
%TO.P,J1,2*%
%TO.N,/A23*%
X182880000Y-109220000D03*
D13*
%TO.P,J1,1*%
%TO.N,+5V*%
X182880000Y-106680000D03*
%TD*%
D17*
%TO.P,D1,2*%
%TO.N,+5V*%
X175260000Y-66040000D03*
D18*
%TO.P,D1,1*%
%TO.N,Net-(D1-Pad1)*%
X177800000Y-66040000D03*
%TD*%
D19*
%TO.N,/VDA*%
X177800000Y-85725000D02*
X177800000Y-81280000D01*
X177165000Y-86360000D02*
X177800000Y-85725000D01*
X137160000Y-96520000D02*
X138430000Y-95250000D01*
X138430000Y-95250000D02*
X138430000Y-86995000D01*
X137160000Y-106680000D02*
X137160000Y-96520000D01*
X138430000Y-86995000D02*
X139065000Y-86360000D01*
X139065000Y-86360000D02*
X177165000Y-86360000D01*
%TO.N,/VPA*%
X175260000Y-87630000D02*
X175260000Y-88900000D01*
X174625000Y-86995000D02*
X175260000Y-87630000D01*
X139700000Y-106680000D02*
X139700000Y-87630000D01*
X139700000Y-87630000D02*
X140335000Y-86995000D01*
X140335000Y-86995000D02*
X174625000Y-86995000D01*
%TO.N,/R~W*%
X152400000Y-88265000D02*
X151765000Y-87630000D01*
X152400000Y-88900000D02*
X152400000Y-88265000D01*
X142240000Y-106680000D02*
X142240000Y-92075000D01*
X142240000Y-88265000D02*
X142875000Y-87630000D01*
X142240000Y-92075000D02*
X142240000Y-88265000D01*
X151765000Y-87630000D02*
X142875000Y-87630000D01*
%TO.N,/PHI2*%
X149860000Y-90805000D02*
X149860000Y-88900000D01*
X145415000Y-91440000D02*
X149225000Y-91440000D01*
X144780000Y-92075000D02*
X145415000Y-91440000D01*
X149225000Y-91440000D02*
X149860000Y-90805000D01*
X144780000Y-106680000D02*
X144780000Y-92075000D01*
%TO.N,/~ROMSEL*%
X114300000Y-81280000D02*
X114300000Y-83185000D01*
X114300000Y-83185000D02*
X113665000Y-83820000D01*
X113665000Y-83820000D02*
X102235000Y-83820000D01*
X101600000Y-84455000D02*
X101600000Y-106680000D01*
X102235000Y-83820000D02*
X101600000Y-84455000D01*
%TO.N,/~RAMSEL*%
X99060000Y-106680000D02*
X99060000Y-83820000D01*
X99060000Y-83820000D02*
X99695000Y-83185000D01*
X99695000Y-83185000D02*
X111125000Y-83185000D01*
X111760000Y-82550000D02*
X111760000Y-81280000D01*
X111125000Y-83185000D02*
X111760000Y-82550000D01*
%TO.N,/~OE*%
X107315000Y-95885000D02*
X106680000Y-96520000D01*
X137160000Y-95250000D02*
X136525000Y-95885000D01*
X106680000Y-96520000D02*
X106680000Y-106680000D01*
X137795000Y-85090000D02*
X137160000Y-85725000D01*
X156845000Y-85090000D02*
X137795000Y-85090000D01*
X136525000Y-95885000D02*
X107315000Y-95885000D01*
X157480000Y-84455000D02*
X156845000Y-85090000D01*
X137160000Y-85725000D02*
X137160000Y-95250000D01*
X157480000Y-81280000D02*
X157480000Y-84455000D01*
%TO.N,/~WE*%
X137160000Y-84455000D02*
X154305000Y-84455000D01*
X136525000Y-85090000D02*
X137160000Y-84455000D01*
X135890000Y-95250000D02*
X136525000Y-94615000D01*
X104775000Y-95250000D02*
X135890000Y-95250000D01*
X154940000Y-83820000D02*
X154940000Y-81280000D01*
X104140000Y-95885000D02*
X104775000Y-95250000D01*
X154305000Y-84455000D02*
X154940000Y-83820000D01*
X136525000Y-94615000D02*
X136525000Y-85090000D01*
X104140000Y-106680000D02*
X104140000Y-95885000D01*
%TO.N,/~BANK00*%
X106045000Y-90805000D02*
X106680000Y-90170000D01*
X102235000Y-90170000D02*
X102870000Y-90805000D01*
X152400000Y-81280000D02*
X152400000Y-82550000D01*
X102870000Y-90805000D02*
X106045000Y-90805000D01*
X152400000Y-82550000D02*
X151765000Y-83185000D01*
X118110000Y-85090000D02*
X117475000Y-84455000D01*
X106680000Y-90170000D02*
X106680000Y-88900000D01*
X135890000Y-83185000D02*
X135255000Y-83820000D01*
X135255000Y-93345000D02*
X134620000Y-93980000D01*
X117475000Y-84455000D02*
X102870000Y-84455000D01*
X151765000Y-83185000D02*
X135890000Y-83185000D01*
X102870000Y-84455000D02*
X102235000Y-85090000D01*
X134620000Y-93980000D02*
X118745000Y-93980000D01*
X118745000Y-93980000D02*
X118110000Y-93345000D01*
X135255000Y-83820000D02*
X135255000Y-93345000D01*
X118110000Y-93345000D02*
X118110000Y-85090000D01*
X102235000Y-85090000D02*
X102235000Y-90170000D01*
%TO.N,/~AVALID*%
X104775000Y-85090000D02*
X104140000Y-85725000D01*
X175260000Y-80010000D02*
X174625000Y-79375000D01*
X114935000Y-85090000D02*
X104775000Y-85090000D01*
X154305000Y-79375000D02*
X153670000Y-80010000D01*
X175260000Y-81280000D02*
X175260000Y-80010000D01*
X135890000Y-84455000D02*
X135890000Y-93980000D01*
X116205000Y-94615000D02*
X115570000Y-93980000D01*
X104140000Y-85725000D02*
X104140000Y-88900000D01*
X115570000Y-93980000D02*
X115570000Y-85725000D01*
X153035000Y-83820000D02*
X136525000Y-83820000D01*
X153670000Y-80010000D02*
X153670000Y-83185000D01*
X115570000Y-85725000D02*
X114935000Y-85090000D01*
X135890000Y-93980000D02*
X135255000Y-94615000D01*
X135255000Y-94615000D02*
X116205000Y-94615000D01*
X174625000Y-79375000D02*
X154305000Y-79375000D01*
X153670000Y-83185000D02*
X153035000Y-83820000D01*
X136525000Y-83820000D02*
X135890000Y-84455000D01*
%TD*%
D20*
%TO.N,GND*%
X184993893Y-62527670D02*
X185430498Y-62659489D01*
X185833185Y-62873600D01*
X186186612Y-63161848D01*
X186477327Y-63513261D01*
X186694242Y-63914439D01*
X186829106Y-64350113D01*
X186880000Y-64834344D01*
X186880001Y-108787711D01*
X186832330Y-109273894D01*
X186700512Y-109710497D01*
X186486399Y-110113186D01*
X186198150Y-110466613D01*
X185846739Y-110757327D01*
X185445564Y-110974240D01*
X185009886Y-111109106D01*
X184525664Y-111160000D01*
X95572279Y-111160000D01*
X95086106Y-111112330D01*
X94649503Y-110980512D01*
X94246814Y-110766399D01*
X93893387Y-110478150D01*
X93602673Y-110126739D01*
X93385760Y-109725564D01*
X93250894Y-109289886D01*
X93200000Y-108805664D01*
X93200000Y-106533740D01*
X95035000Y-106533740D01*
X95035000Y-106826260D01*
X95092068Y-107113158D01*
X95204010Y-107383411D01*
X95366525Y-107626632D01*
X95573368Y-107833475D01*
X95747760Y-107950000D01*
X95573368Y-108066525D01*
X95366525Y-108273368D01*
X95204010Y-108516589D01*
X95092068Y-108786842D01*
X95035000Y-109073740D01*
X95035000Y-109366260D01*
X95092068Y-109653158D01*
X95204010Y-109923411D01*
X95366525Y-110166632D01*
X95573368Y-110373475D01*
X95816589Y-110535990D01*
X96086842Y-110647932D01*
X96373740Y-110705000D01*
X96666260Y-110705000D01*
X96953158Y-110647932D01*
X97223411Y-110535990D01*
X97466632Y-110373475D01*
X97673475Y-110166632D01*
X97790000Y-109992240D01*
X97906525Y-110166632D01*
X98113368Y-110373475D01*
X98356589Y-110535990D01*
X98626842Y-110647932D01*
X98913740Y-110705000D01*
X99206260Y-110705000D01*
X99493158Y-110647932D01*
X99763411Y-110535990D01*
X100006632Y-110373475D01*
X100213475Y-110166632D01*
X100330000Y-109992240D01*
X100446525Y-110166632D01*
X100653368Y-110373475D01*
X100896589Y-110535990D01*
X101166842Y-110647932D01*
X101453740Y-110705000D01*
X101746260Y-110705000D01*
X102033158Y-110647932D01*
X102303411Y-110535990D01*
X102546632Y-110373475D01*
X102753475Y-110166632D01*
X102870000Y-109992240D01*
X102986525Y-110166632D01*
X103193368Y-110373475D01*
X103436589Y-110535990D01*
X103706842Y-110647932D01*
X103993740Y-110705000D01*
X104286260Y-110705000D01*
X104573158Y-110647932D01*
X104843411Y-110535990D01*
X105086632Y-110373475D01*
X105293475Y-110166632D01*
X105410000Y-109992240D01*
X105526525Y-110166632D01*
X105733368Y-110373475D01*
X105976589Y-110535990D01*
X106246842Y-110647932D01*
X106533740Y-110705000D01*
X106826260Y-110705000D01*
X107113158Y-110647932D01*
X107383411Y-110535990D01*
X107626632Y-110373475D01*
X107833475Y-110166632D01*
X107995990Y-109923411D01*
X108107932Y-109653158D01*
X108123102Y-109576891D01*
X120478519Y-109576891D01*
X120575843Y-109851252D01*
X120724822Y-110101355D01*
X120919731Y-110317588D01*
X121153080Y-110491641D01*
X121415901Y-110616825D01*
X121563110Y-110661476D01*
X121793000Y-110540155D01*
X121793000Y-109347000D01*
X120599186Y-109347000D01*
X120478519Y-109576891D01*
X108123102Y-109576891D01*
X108165000Y-109366260D01*
X108165000Y-109073740D01*
X108107932Y-108786842D01*
X107995990Y-108516589D01*
X107833475Y-108273368D01*
X107701620Y-108141513D01*
X107774180Y-108119502D01*
X107884494Y-108060537D01*
X107981185Y-107981185D01*
X108060537Y-107884494D01*
X108119502Y-107774180D01*
X108155812Y-107654482D01*
X108168072Y-107530000D01*
X108168072Y-105830000D01*
X108155812Y-105705518D01*
X108119502Y-105585820D01*
X108060537Y-105475506D01*
X107981185Y-105378815D01*
X107884494Y-105299463D01*
X107774180Y-105240498D01*
X107654482Y-105204188D01*
X107530000Y-105191928D01*
X107465634Y-105191928D01*
X107456999Y-105160183D01*
X107442172Y-105081071D01*
X107432904Y-104995735D01*
X107429300Y-104892771D01*
X107429300Y-96830370D01*
X107625370Y-96634300D01*
X136410701Y-96634300D01*
X136410700Y-104892766D01*
X136407096Y-104995735D01*
X136397828Y-105081071D01*
X136383001Y-105160183D01*
X136362939Y-105233941D01*
X136337736Y-105303368D01*
X136307212Y-105369550D01*
X136270916Y-105433501D01*
X136228169Y-105496091D01*
X136178150Y-105557935D01*
X136110884Y-105629009D01*
X136006525Y-105733368D01*
X135890000Y-105907760D01*
X135773475Y-105733368D01*
X135566632Y-105526525D01*
X135323411Y-105364010D01*
X135053158Y-105252068D01*
X134766260Y-105195000D01*
X134473740Y-105195000D01*
X134186842Y-105252068D01*
X133916589Y-105364010D01*
X133673368Y-105526525D01*
X133466525Y-105733368D01*
X133350000Y-105907760D01*
X133233475Y-105733368D01*
X133026632Y-105526525D01*
X132783411Y-105364010D01*
X132513158Y-105252068D01*
X132226260Y-105195000D01*
X131933740Y-105195000D01*
X131646842Y-105252068D01*
X131376589Y-105364010D01*
X131133368Y-105526525D01*
X130926525Y-105733368D01*
X130810000Y-105907760D01*
X130693475Y-105733368D01*
X130486632Y-105526525D01*
X130243411Y-105364010D01*
X129973158Y-105252068D01*
X129686260Y-105195000D01*
X129393740Y-105195000D01*
X129106842Y-105252068D01*
X128836589Y-105364010D01*
X128593368Y-105526525D01*
X128386525Y-105733368D01*
X128270000Y-105907760D01*
X128153475Y-105733368D01*
X127946632Y-105526525D01*
X127703411Y-105364010D01*
X127433158Y-105252068D01*
X127146260Y-105195000D01*
X126853740Y-105195000D01*
X126566842Y-105252068D01*
X126296589Y-105364010D01*
X126053368Y-105526525D01*
X125846525Y-105733368D01*
X125730000Y-105907760D01*
X125613475Y-105733368D01*
X125406632Y-105526525D01*
X125163411Y-105364010D01*
X124893158Y-105252068D01*
X124606260Y-105195000D01*
X124313740Y-105195000D01*
X124026842Y-105252068D01*
X123756589Y-105364010D01*
X123513368Y-105526525D01*
X123306525Y-105733368D01*
X123190000Y-105907760D01*
X123073475Y-105733368D01*
X122866632Y-105526525D01*
X122623411Y-105364010D01*
X122353158Y-105252068D01*
X122066260Y-105195000D01*
X121773740Y-105195000D01*
X121486842Y-105252068D01*
X121216589Y-105364010D01*
X120973368Y-105526525D01*
X120766525Y-105733368D01*
X120604010Y-105976589D01*
X120492068Y-106246842D01*
X120435000Y-106533740D01*
X120435000Y-106826260D01*
X120492068Y-107113158D01*
X120604010Y-107383411D01*
X120766525Y-107626632D01*
X120973368Y-107833475D01*
X121149406Y-107951100D01*
X120919731Y-108122412D01*
X120724822Y-108338645D01*
X120575843Y-108588748D01*
X120478519Y-108863109D01*
X120599186Y-109093000D01*
X121793000Y-109093000D01*
X121793000Y-109073000D01*
X122047000Y-109073000D01*
X122047000Y-109093000D01*
X122067000Y-109093000D01*
X122067000Y-109347000D01*
X122047000Y-109347000D01*
X122047000Y-110540155D01*
X122276890Y-110661476D01*
X122424099Y-110616825D01*
X122686920Y-110491641D01*
X122920269Y-110317588D01*
X123115178Y-110101355D01*
X123184805Y-109984466D01*
X123306525Y-110166632D01*
X123513368Y-110373475D01*
X123756589Y-110535990D01*
X124026842Y-110647932D01*
X124313740Y-110705000D01*
X124606260Y-110705000D01*
X124893158Y-110647932D01*
X125163411Y-110535990D01*
X125406632Y-110373475D01*
X125613475Y-110166632D01*
X125730000Y-109992240D01*
X125846525Y-110166632D01*
X126053368Y-110373475D01*
X126296589Y-110535990D01*
X126566842Y-110647932D01*
X126853740Y-110705000D01*
X127146260Y-110705000D01*
X127433158Y-110647932D01*
X127703411Y-110535990D01*
X127946632Y-110373475D01*
X128153475Y-110166632D01*
X128270000Y-109992240D01*
X128386525Y-110166632D01*
X128593368Y-110373475D01*
X128836589Y-110535990D01*
X129106842Y-110647932D01*
X129393740Y-110705000D01*
X129686260Y-110705000D01*
X129973158Y-110647932D01*
X130243411Y-110535990D01*
X130486632Y-110373475D01*
X130693475Y-110166632D01*
X130810000Y-109992240D01*
X130926525Y-110166632D01*
X131133368Y-110373475D01*
X131376589Y-110535990D01*
X131646842Y-110647932D01*
X131933740Y-110705000D01*
X132226260Y-110705000D01*
X132513158Y-110647932D01*
X132783411Y-110535990D01*
X133026632Y-110373475D01*
X133233475Y-110166632D01*
X133350000Y-109992240D01*
X133466525Y-110166632D01*
X133673368Y-110373475D01*
X133916589Y-110535990D01*
X134186842Y-110647932D01*
X134473740Y-110705000D01*
X134766260Y-110705000D01*
X135053158Y-110647932D01*
X135323411Y-110535990D01*
X135566632Y-110373475D01*
X135773475Y-110166632D01*
X135890000Y-109992240D01*
X136006525Y-110166632D01*
X136213368Y-110373475D01*
X136456589Y-110535990D01*
X136726842Y-110647932D01*
X137013740Y-110705000D01*
X137306260Y-110705000D01*
X137593158Y-110647932D01*
X137863411Y-110535990D01*
X138106632Y-110373475D01*
X138313475Y-110166632D01*
X138430000Y-109992240D01*
X138546525Y-110166632D01*
X138753368Y-110373475D01*
X138996589Y-110535990D01*
X139266842Y-110647932D01*
X139553740Y-110705000D01*
X139846260Y-110705000D01*
X140133158Y-110647932D01*
X140403411Y-110535990D01*
X140646632Y-110373475D01*
X140853475Y-110166632D01*
X140970000Y-109992240D01*
X141086525Y-110166632D01*
X141293368Y-110373475D01*
X141536589Y-110535990D01*
X141806842Y-110647932D01*
X142093740Y-110705000D01*
X142386260Y-110705000D01*
X142673158Y-110647932D01*
X142943411Y-110535990D01*
X143186632Y-110373475D01*
X143393475Y-110166632D01*
X143510000Y-109992240D01*
X143626525Y-110166632D01*
X143833368Y-110373475D01*
X144076589Y-110535990D01*
X144346842Y-110647932D01*
X144633740Y-110705000D01*
X144926260Y-110705000D01*
X145213158Y-110647932D01*
X145483411Y-110535990D01*
X145726632Y-110373475D01*
X145933475Y-110166632D01*
X146050000Y-109992240D01*
X146166525Y-110166632D01*
X146373368Y-110373475D01*
X146616589Y-110535990D01*
X146886842Y-110647932D01*
X147173740Y-110705000D01*
X147466260Y-110705000D01*
X147753158Y-110647932D01*
X148023411Y-110535990D01*
X148266632Y-110373475D01*
X148473475Y-110166632D01*
X148590000Y-109992240D01*
X148706525Y-110166632D01*
X148913368Y-110373475D01*
X149156589Y-110535990D01*
X149426842Y-110647932D01*
X149713740Y-110705000D01*
X150006260Y-110705000D01*
X150293158Y-110647932D01*
X150563411Y-110535990D01*
X150806632Y-110373475D01*
X151013475Y-110166632D01*
X151130000Y-109992240D01*
X151246525Y-110166632D01*
X151453368Y-110373475D01*
X151696589Y-110535990D01*
X151966842Y-110647932D01*
X152253740Y-110705000D01*
X152546260Y-110705000D01*
X152833158Y-110647932D01*
X153103411Y-110535990D01*
X153346632Y-110373475D01*
X153553475Y-110166632D01*
X153670000Y-109992240D01*
X153786525Y-110166632D01*
X153993368Y-110373475D01*
X154236589Y-110535990D01*
X154506842Y-110647932D01*
X154793740Y-110705000D01*
X155086260Y-110705000D01*
X155373158Y-110647932D01*
X155643411Y-110535990D01*
X155886632Y-110373475D01*
X156093475Y-110166632D01*
X156210000Y-109992240D01*
X156326525Y-110166632D01*
X156533368Y-110373475D01*
X156776589Y-110535990D01*
X157046842Y-110647932D01*
X157333740Y-110705000D01*
X157626260Y-110705000D01*
X157913158Y-110647932D01*
X158183411Y-110535990D01*
X158426632Y-110373475D01*
X158633475Y-110166632D01*
X158750000Y-109992240D01*
X158866525Y-110166632D01*
X159073368Y-110373475D01*
X159316589Y-110535990D01*
X159586842Y-110647932D01*
X159873740Y-110705000D01*
X160166260Y-110705000D01*
X160453158Y-110647932D01*
X160723411Y-110535990D01*
X160966632Y-110373475D01*
X161173475Y-110166632D01*
X161290000Y-109992240D01*
X161406525Y-110166632D01*
X161613368Y-110373475D01*
X161856589Y-110535990D01*
X162126842Y-110647932D01*
X162413740Y-110705000D01*
X162706260Y-110705000D01*
X162993158Y-110647932D01*
X163263411Y-110535990D01*
X163506632Y-110373475D01*
X163713475Y-110166632D01*
X163830000Y-109992240D01*
X163946525Y-110166632D01*
X164153368Y-110373475D01*
X164396589Y-110535990D01*
X164666842Y-110647932D01*
X164953740Y-110705000D01*
X165246260Y-110705000D01*
X165533158Y-110647932D01*
X165803411Y-110535990D01*
X166046632Y-110373475D01*
X166253475Y-110166632D01*
X166370000Y-109992240D01*
X166486525Y-110166632D01*
X166693368Y-110373475D01*
X166936589Y-110535990D01*
X167206842Y-110647932D01*
X167493740Y-110705000D01*
X167786260Y-110705000D01*
X168073158Y-110647932D01*
X168343411Y-110535990D01*
X168586632Y-110373475D01*
X168793475Y-110166632D01*
X168910000Y-109992240D01*
X169026525Y-110166632D01*
X169233368Y-110373475D01*
X169476589Y-110535990D01*
X169746842Y-110647932D01*
X170033740Y-110705000D01*
X170326260Y-110705000D01*
X170613158Y-110647932D01*
X170883411Y-110535990D01*
X171126632Y-110373475D01*
X171333475Y-110166632D01*
X171450000Y-109992240D01*
X171566525Y-110166632D01*
X171773368Y-110373475D01*
X172016589Y-110535990D01*
X172286842Y-110647932D01*
X172573740Y-110705000D01*
X172866260Y-110705000D01*
X173153158Y-110647932D01*
X173423411Y-110535990D01*
X173666632Y-110373475D01*
X173873475Y-110166632D01*
X173990000Y-109992240D01*
X174106525Y-110166632D01*
X174313368Y-110373475D01*
X174556589Y-110535990D01*
X174826842Y-110647932D01*
X175113740Y-110705000D01*
X175406260Y-110705000D01*
X175693158Y-110647932D01*
X175963411Y-110535990D01*
X176206632Y-110373475D01*
X176413475Y-110166632D01*
X176530000Y-109992240D01*
X176646525Y-110166632D01*
X176853368Y-110373475D01*
X177096589Y-110535990D01*
X177366842Y-110647932D01*
X177653740Y-110705000D01*
X177946260Y-110705000D01*
X178233158Y-110647932D01*
X178503411Y-110535990D01*
X178746632Y-110373475D01*
X178953475Y-110166632D01*
X179070000Y-109992240D01*
X179186525Y-110166632D01*
X179393368Y-110373475D01*
X179636589Y-110535990D01*
X179906842Y-110647932D01*
X180193740Y-110705000D01*
X180486260Y-110705000D01*
X180773158Y-110647932D01*
X181043411Y-110535990D01*
X181286632Y-110373475D01*
X181493475Y-110166632D01*
X181610000Y-109992240D01*
X181726525Y-110166632D01*
X181933368Y-110373475D01*
X182176589Y-110535990D01*
X182446842Y-110647932D01*
X182733740Y-110705000D01*
X183026260Y-110705000D01*
X183313158Y-110647932D01*
X183583411Y-110535990D01*
X183826632Y-110373475D01*
X184033475Y-110166632D01*
X184195990Y-109923411D01*
X184307932Y-109653158D01*
X184365000Y-109366260D01*
X184365000Y-109073740D01*
X184307932Y-108786842D01*
X184195990Y-108516589D01*
X184033475Y-108273368D01*
X183901620Y-108141513D01*
X183974180Y-108119502D01*
X184084494Y-108060537D01*
X184181185Y-107981185D01*
X184260537Y-107884494D01*
X184319502Y-107774180D01*
X184355812Y-107654482D01*
X184368072Y-107530000D01*
X184368072Y-105830000D01*
X184355812Y-105705518D01*
X184319502Y-105585820D01*
X184260537Y-105475506D01*
X184181185Y-105378815D01*
X184084494Y-105299463D01*
X183974180Y-105240498D01*
X183854482Y-105204188D01*
X183730000Y-105191928D01*
X182030000Y-105191928D01*
X181905518Y-105204188D01*
X181785820Y-105240498D01*
X181675506Y-105299463D01*
X181578815Y-105378815D01*
X181499463Y-105475506D01*
X181440498Y-105585820D01*
X181418487Y-105658380D01*
X181286632Y-105526525D01*
X181043411Y-105364010D01*
X180773158Y-105252068D01*
X180486260Y-105195000D01*
X180193740Y-105195000D01*
X179906842Y-105252068D01*
X179636589Y-105364010D01*
X179393368Y-105526525D01*
X179186525Y-105733368D01*
X179070000Y-105907760D01*
X178953475Y-105733368D01*
X178746632Y-105526525D01*
X178503411Y-105364010D01*
X178233158Y-105252068D01*
X177946260Y-105195000D01*
X177653740Y-105195000D01*
X177366842Y-105252068D01*
X177096589Y-105364010D01*
X176853368Y-105526525D01*
X176646525Y-105733368D01*
X176530000Y-105907760D01*
X176413475Y-105733368D01*
X176206632Y-105526525D01*
X175963411Y-105364010D01*
X175693158Y-105252068D01*
X175406260Y-105195000D01*
X175113740Y-105195000D01*
X174826842Y-105252068D01*
X174556589Y-105364010D01*
X174313368Y-105526525D01*
X174106525Y-105733368D01*
X173990000Y-105907760D01*
X173873475Y-105733368D01*
X173666632Y-105526525D01*
X173423411Y-105364010D01*
X173153158Y-105252068D01*
X172866260Y-105195000D01*
X172573740Y-105195000D01*
X172286842Y-105252068D01*
X172016589Y-105364010D01*
X171773368Y-105526525D01*
X171566525Y-105733368D01*
X171450000Y-105907760D01*
X171333475Y-105733368D01*
X171126632Y-105526525D01*
X170883411Y-105364010D01*
X170613158Y-105252068D01*
X170326260Y-105195000D01*
X170033740Y-105195000D01*
X169746842Y-105252068D01*
X169476589Y-105364010D01*
X169233368Y-105526525D01*
X169026525Y-105733368D01*
X168910000Y-105907760D01*
X168793475Y-105733368D01*
X168586632Y-105526525D01*
X168343411Y-105364010D01*
X168073158Y-105252068D01*
X167786260Y-105195000D01*
X167493740Y-105195000D01*
X167206842Y-105252068D01*
X166936589Y-105364010D01*
X166693368Y-105526525D01*
X166486525Y-105733368D01*
X166370000Y-105907760D01*
X166253475Y-105733368D01*
X166046632Y-105526525D01*
X165803411Y-105364010D01*
X165533158Y-105252068D01*
X165246260Y-105195000D01*
X164953740Y-105195000D01*
X164666842Y-105252068D01*
X164396589Y-105364010D01*
X164153368Y-105526525D01*
X163946525Y-105733368D01*
X163830000Y-105907760D01*
X163713475Y-105733368D01*
X163506632Y-105526525D01*
X163263411Y-105364010D01*
X162993158Y-105252068D01*
X162706260Y-105195000D01*
X162413740Y-105195000D01*
X162126842Y-105252068D01*
X161856589Y-105364010D01*
X161613368Y-105526525D01*
X161406525Y-105733368D01*
X161290000Y-105907760D01*
X161173475Y-105733368D01*
X160966632Y-105526525D01*
X160723411Y-105364010D01*
X160453158Y-105252068D01*
X160166260Y-105195000D01*
X159873740Y-105195000D01*
X159586842Y-105252068D01*
X159316589Y-105364010D01*
X159073368Y-105526525D01*
X158866525Y-105733368D01*
X158750000Y-105907760D01*
X158633475Y-105733368D01*
X158426632Y-105526525D01*
X158183411Y-105364010D01*
X157913158Y-105252068D01*
X157626260Y-105195000D01*
X157333740Y-105195000D01*
X157046842Y-105252068D01*
X156776589Y-105364010D01*
X156533368Y-105526525D01*
X156326525Y-105733368D01*
X156210000Y-105907760D01*
X156093475Y-105733368D01*
X155886632Y-105526525D01*
X155643411Y-105364010D01*
X155373158Y-105252068D01*
X155086260Y-105195000D01*
X154793740Y-105195000D01*
X154506842Y-105252068D01*
X154236589Y-105364010D01*
X153993368Y-105526525D01*
X153786525Y-105733368D01*
X153670000Y-105907760D01*
X153553475Y-105733368D01*
X153346632Y-105526525D01*
X153103411Y-105364010D01*
X152833158Y-105252068D01*
X152546260Y-105195000D01*
X152253740Y-105195000D01*
X151966842Y-105252068D01*
X151696589Y-105364010D01*
X151453368Y-105526525D01*
X151246525Y-105733368D01*
X151130000Y-105907760D01*
X151013475Y-105733368D01*
X150806632Y-105526525D01*
X150563411Y-105364010D01*
X150293158Y-105252068D01*
X150006260Y-105195000D01*
X149713740Y-105195000D01*
X149426842Y-105252068D01*
X149156589Y-105364010D01*
X148913368Y-105526525D01*
X148706525Y-105733368D01*
X148590000Y-105907760D01*
X148473475Y-105733368D01*
X148266632Y-105526525D01*
X148023411Y-105364010D01*
X147753158Y-105252068D01*
X147466260Y-105195000D01*
X147173740Y-105195000D01*
X146886842Y-105252068D01*
X146616589Y-105364010D01*
X146373368Y-105526525D01*
X146166525Y-105733368D01*
X146050000Y-105907760D01*
X145933475Y-105733368D01*
X145829116Y-105629009D01*
X145761850Y-105557935D01*
X145711831Y-105496091D01*
X145669084Y-105433501D01*
X145632788Y-105369550D01*
X145602264Y-105303368D01*
X145577061Y-105233941D01*
X145556999Y-105160183D01*
X145542172Y-105081071D01*
X145532904Y-104995735D01*
X145529300Y-104892771D01*
X145529300Y-92385370D01*
X145725370Y-92189300D01*
X149188205Y-92189300D01*
X149225000Y-92192924D01*
X149261795Y-92189300D01*
X149261806Y-92189300D01*
X149371888Y-92178458D01*
X149513132Y-92135612D01*
X149643303Y-92066034D01*
X149757398Y-91972398D01*
X149780862Y-91943807D01*
X150363817Y-91360853D01*
X150392398Y-91337398D01*
X150415854Y-91308817D01*
X150415861Y-91308810D01*
X150486034Y-91223303D01*
X150555612Y-91093132D01*
X150598458Y-90951888D01*
X150600963Y-90926451D01*
X150609300Y-90841806D01*
X150609300Y-90841798D01*
X150612924Y-90805000D01*
X150609300Y-90768202D01*
X150609300Y-90738072D01*
X150660000Y-90738072D01*
X150784482Y-90725812D01*
X150904180Y-90689502D01*
X151014494Y-90630537D01*
X151111185Y-90551185D01*
X151190537Y-90454494D01*
X151249502Y-90344180D01*
X151285812Y-90224482D01*
X151287581Y-90206517D01*
X151380393Y-90319608D01*
X151598900Y-90498932D01*
X151848193Y-90632182D01*
X152118692Y-90714236D01*
X152400000Y-90741943D01*
X152681309Y-90714236D01*
X152951808Y-90632182D01*
X153201101Y-90498932D01*
X153419608Y-90319608D01*
X153598932Y-90101101D01*
X153670000Y-89968142D01*
X153741068Y-90101101D01*
X153920393Y-90319608D01*
X154138900Y-90498932D01*
X154388193Y-90632182D01*
X154658692Y-90714236D01*
X154940000Y-90741943D01*
X155221309Y-90714236D01*
X155491808Y-90632182D01*
X155741101Y-90498932D01*
X155959608Y-90319608D01*
X156138932Y-90101101D01*
X156210000Y-89968142D01*
X156281068Y-90101101D01*
X156460393Y-90319608D01*
X156678900Y-90498932D01*
X156928193Y-90632182D01*
X157198692Y-90714236D01*
X157480000Y-90741943D01*
X157761309Y-90714236D01*
X158031808Y-90632182D01*
X158281101Y-90498932D01*
X158499608Y-90319608D01*
X158678932Y-90101101D01*
X158750000Y-89968142D01*
X158821068Y-90101101D01*
X159000393Y-90319608D01*
X159218900Y-90498932D01*
X159468193Y-90632182D01*
X159738692Y-90714236D01*
X160020000Y-90741943D01*
X160301309Y-90714236D01*
X160571808Y-90632182D01*
X160821101Y-90498932D01*
X161039608Y-90319608D01*
X161218932Y-90101101D01*
X161290000Y-89968142D01*
X161361068Y-90101101D01*
X161540393Y-90319608D01*
X161758900Y-90498932D01*
X162008193Y-90632182D01*
X162278692Y-90714236D01*
X162560000Y-90741943D01*
X162841309Y-90714236D01*
X163111808Y-90632182D01*
X163361101Y-90498932D01*
X163579608Y-90319608D01*
X163758932Y-90101101D01*
X163830000Y-89968142D01*
X163901068Y-90101101D01*
X164080393Y-90319608D01*
X164298900Y-90498932D01*
X164548193Y-90632182D01*
X164818692Y-90714236D01*
X165100000Y-90741943D01*
X165381309Y-90714236D01*
X165651808Y-90632182D01*
X165901101Y-90498932D01*
X166119608Y-90319608D01*
X166298932Y-90101101D01*
X166370000Y-89968142D01*
X166441068Y-90101101D01*
X166620393Y-90319608D01*
X166838900Y-90498932D01*
X167088193Y-90632182D01*
X167358692Y-90714236D01*
X167640000Y-90741943D01*
X167921309Y-90714236D01*
X168191808Y-90632182D01*
X168441101Y-90498932D01*
X168659608Y-90319608D01*
X168838932Y-90101101D01*
X168910000Y-89968142D01*
X168981068Y-90101101D01*
X169160393Y-90319608D01*
X169378900Y-90498932D01*
X169628193Y-90632182D01*
X169898692Y-90714236D01*
X170180000Y-90741943D01*
X170461309Y-90714236D01*
X170731808Y-90632182D01*
X170981101Y-90498932D01*
X171199608Y-90319608D01*
X171378932Y-90101101D01*
X171450000Y-89968142D01*
X171521068Y-90101101D01*
X171700393Y-90319608D01*
X171918900Y-90498932D01*
X172168193Y-90632182D01*
X172438692Y-90714236D01*
X172720000Y-90741943D01*
X173001309Y-90714236D01*
X173271808Y-90632182D01*
X173521101Y-90498932D01*
X173739608Y-90319608D01*
X173918932Y-90101101D01*
X173990000Y-89968142D01*
X174061068Y-90101101D01*
X174240393Y-90319608D01*
X174458900Y-90498932D01*
X174708193Y-90632182D01*
X174978692Y-90714236D01*
X175260000Y-90741943D01*
X175541309Y-90714236D01*
X175811808Y-90632182D01*
X176061101Y-90498932D01*
X176279608Y-90319608D01*
X176458932Y-90101101D01*
X176527265Y-89973259D01*
X176677399Y-90202839D01*
X176875105Y-90404500D01*
X177108354Y-90563715D01*
X177368182Y-90674367D01*
X177450961Y-90691904D01*
X177673000Y-90569915D01*
X177673000Y-89027000D01*
X177927000Y-89027000D01*
X177927000Y-90569915D01*
X178149039Y-90691904D01*
X178231818Y-90674367D01*
X178491646Y-90563715D01*
X178724895Y-90404500D01*
X178922601Y-90202839D01*
X179077166Y-89966483D01*
X179182650Y-89704514D01*
X179235000Y-89427000D01*
X179235000Y-89027000D01*
X177927000Y-89027000D01*
X177673000Y-89027000D01*
X177653000Y-89027000D01*
X177653000Y-88773000D01*
X177673000Y-88773000D01*
X177673000Y-87230085D01*
X177927000Y-87230085D01*
X177927000Y-88773000D01*
X179235000Y-88773000D01*
X179235000Y-88373000D01*
X179182650Y-88095486D01*
X179077166Y-87833517D01*
X178922601Y-87597161D01*
X178724895Y-87395500D01*
X178491646Y-87236285D01*
X178231818Y-87125633D01*
X178149039Y-87108096D01*
X177927000Y-87230085D01*
X177673000Y-87230085D01*
X177450961Y-87108096D01*
X177368182Y-87125633D01*
X177108354Y-87236285D01*
X176875105Y-87395500D01*
X176677399Y-87597161D01*
X176527265Y-87826741D01*
X176458932Y-87698899D01*
X176279607Y-87480392D01*
X176061100Y-87301068D01*
X175879888Y-87204208D01*
X175860831Y-87180987D01*
X175815861Y-87126190D01*
X175815854Y-87126183D01*
X175801998Y-87109300D01*
X177128205Y-87109300D01*
X177165000Y-87112924D01*
X177201795Y-87109300D01*
X177201806Y-87109300D01*
X177311888Y-87098458D01*
X177453132Y-87055612D01*
X177583303Y-86986034D01*
X177697398Y-86892398D01*
X177720862Y-86863807D01*
X178303817Y-86280853D01*
X178332398Y-86257398D01*
X178355854Y-86228817D01*
X178355861Y-86228810D01*
X178426034Y-86143303D01*
X178495612Y-86013132D01*
X178538458Y-85871888D01*
X178540004Y-85856191D01*
X178549300Y-85761806D01*
X178549300Y-85761798D01*
X178552924Y-85725000D01*
X178549300Y-85688202D01*
X178549300Y-82946533D01*
X178550723Y-82905860D01*
X178601101Y-82878932D01*
X178819608Y-82699608D01*
X178998932Y-82481101D01*
X179132182Y-82231808D01*
X179214236Y-81961309D01*
X179235000Y-81750491D01*
X179235000Y-80809508D01*
X179214236Y-80598691D01*
X179132182Y-80328192D01*
X178998932Y-80078899D01*
X178819607Y-79860392D01*
X178601100Y-79681068D01*
X178351807Y-79547818D01*
X178081308Y-79465764D01*
X177800000Y-79438057D01*
X177518691Y-79465764D01*
X177248192Y-79547818D01*
X176998899Y-79681068D01*
X176780392Y-79860393D01*
X176601068Y-80078900D01*
X176530000Y-80211858D01*
X176458932Y-80078899D01*
X176279607Y-79860392D01*
X176061100Y-79681068D01*
X175879888Y-79584208D01*
X175860831Y-79560987D01*
X175815861Y-79506190D01*
X175815854Y-79506183D01*
X175792398Y-79477602D01*
X175763816Y-79454145D01*
X175180862Y-78871193D01*
X175157398Y-78842602D01*
X175043303Y-78748966D01*
X174913132Y-78679388D01*
X174771888Y-78636542D01*
X174661806Y-78625700D01*
X174661795Y-78625700D01*
X174625000Y-78622076D01*
X174588205Y-78625700D01*
X154341798Y-78625700D01*
X154305000Y-78622076D01*
X154268202Y-78625700D01*
X154268194Y-78625700D01*
X154158112Y-78636542D01*
X154016868Y-78679388D01*
X153886697Y-78748966D01*
X153801190Y-78819139D01*
X153801183Y-78819146D01*
X153772602Y-78842602D01*
X153749145Y-78871184D01*
X153166193Y-79454138D01*
X153137602Y-79477602D01*
X153098174Y-79525645D01*
X153043966Y-79591697D01*
X153041729Y-79595882D01*
X152951807Y-79547818D01*
X152681308Y-79465764D01*
X152400000Y-79438057D01*
X152118691Y-79465764D01*
X151848192Y-79547818D01*
X151598899Y-79681068D01*
X151380392Y-79860393D01*
X151201068Y-80078900D01*
X151130000Y-80211858D01*
X151058932Y-80078899D01*
X150879607Y-79860392D01*
X150661100Y-79681068D01*
X150411807Y-79547818D01*
X150141308Y-79465764D01*
X149860000Y-79438057D01*
X149578691Y-79465764D01*
X149308192Y-79547818D01*
X149058899Y-79681068D01*
X148840392Y-79860393D01*
X148661068Y-80078900D01*
X148527818Y-80328193D01*
X148445764Y-80598692D01*
X148425000Y-80809509D01*
X148425000Y-81750492D01*
X148445764Y-81961309D01*
X148527818Y-82231808D01*
X148636801Y-82435700D01*
X135926798Y-82435700D01*
X135890000Y-82432076D01*
X135853202Y-82435700D01*
X135853194Y-82435700D01*
X135743112Y-82446542D01*
X135601868Y-82489388D01*
X135471697Y-82558966D01*
X135386190Y-82629139D01*
X135386183Y-82629146D01*
X135357602Y-82652602D01*
X135334145Y-82681184D01*
X134751193Y-83264138D01*
X134722602Y-83287602D01*
X134678412Y-83341447D01*
X134628966Y-83401697D01*
X134589564Y-83475413D01*
X134559388Y-83531869D01*
X134516542Y-83673113D01*
X134505700Y-83783195D01*
X134505700Y-83783205D01*
X134502076Y-83820000D01*
X134505700Y-83856795D01*
X134505701Y-93034629D01*
X134309630Y-93230700D01*
X119055370Y-93230700D01*
X118859300Y-93034630D01*
X118859300Y-90641618D01*
X119098692Y-90714236D01*
X119380000Y-90741943D01*
X119661309Y-90714236D01*
X119931808Y-90632182D01*
X120181101Y-90498932D01*
X120399608Y-90319608D01*
X120578932Y-90101101D01*
X120650000Y-89968142D01*
X120721068Y-90101101D01*
X120900393Y-90319608D01*
X121118900Y-90498932D01*
X121368193Y-90632182D01*
X121638692Y-90714236D01*
X121920000Y-90741943D01*
X122201309Y-90714236D01*
X122471808Y-90632182D01*
X122721101Y-90498932D01*
X122939608Y-90319608D01*
X123118932Y-90101101D01*
X123190000Y-89968142D01*
X123261068Y-90101101D01*
X123440393Y-90319608D01*
X123658900Y-90498932D01*
X123908193Y-90632182D01*
X124178692Y-90714236D01*
X124460000Y-90741943D01*
X124741309Y-90714236D01*
X125011808Y-90632182D01*
X125261101Y-90498932D01*
X125479608Y-90319608D01*
X125658932Y-90101101D01*
X125730000Y-89968142D01*
X125801068Y-90101101D01*
X125980393Y-90319608D01*
X126198900Y-90498932D01*
X126448193Y-90632182D01*
X126718692Y-90714236D01*
X127000000Y-90741943D01*
X127281309Y-90714236D01*
X127551808Y-90632182D01*
X127801101Y-90498932D01*
X128019608Y-90319608D01*
X128198932Y-90101101D01*
X128270000Y-89968142D01*
X128341068Y-90101101D01*
X128520393Y-90319608D01*
X128738900Y-90498932D01*
X128988193Y-90632182D01*
X129258692Y-90714236D01*
X129540000Y-90741943D01*
X129821309Y-90714236D01*
X130091808Y-90632182D01*
X130341101Y-90498932D01*
X130559608Y-90319608D01*
X130738932Y-90101101D01*
X130807265Y-89973259D01*
X130957399Y-90202839D01*
X131155105Y-90404500D01*
X131388354Y-90563715D01*
X131648182Y-90674367D01*
X131730961Y-90691904D01*
X131953000Y-90569915D01*
X131953000Y-89027000D01*
X132207000Y-89027000D01*
X132207000Y-90569915D01*
X132429039Y-90691904D01*
X132511818Y-90674367D01*
X132771646Y-90563715D01*
X133004895Y-90404500D01*
X133202601Y-90202839D01*
X133357166Y-89966483D01*
X133462650Y-89704514D01*
X133515000Y-89427000D01*
X133515000Y-89027000D01*
X132207000Y-89027000D01*
X131953000Y-89027000D01*
X131933000Y-89027000D01*
X131933000Y-88773000D01*
X131953000Y-88773000D01*
X131953000Y-87230085D01*
X132207000Y-87230085D01*
X132207000Y-88773000D01*
X133515000Y-88773000D01*
X133515000Y-88373000D01*
X133462650Y-88095486D01*
X133357166Y-87833517D01*
X133202601Y-87597161D01*
X133004895Y-87395500D01*
X132771646Y-87236285D01*
X132511818Y-87125633D01*
X132429039Y-87108096D01*
X132207000Y-87230085D01*
X131953000Y-87230085D01*
X131730961Y-87108096D01*
X131648182Y-87125633D01*
X131388354Y-87236285D01*
X131155105Y-87395500D01*
X130957399Y-87597161D01*
X130807265Y-87826741D01*
X130738932Y-87698899D01*
X130559607Y-87480392D01*
X130341100Y-87301068D01*
X130091807Y-87167818D01*
X129821308Y-87085764D01*
X129540000Y-87058057D01*
X129258691Y-87085764D01*
X128988192Y-87167818D01*
X128738899Y-87301068D01*
X128520392Y-87480393D01*
X128341068Y-87698900D01*
X128270000Y-87831858D01*
X128198932Y-87698899D01*
X128019607Y-87480392D01*
X127801100Y-87301068D01*
X127551807Y-87167818D01*
X127281308Y-87085764D01*
X127000000Y-87058057D01*
X126718691Y-87085764D01*
X126448192Y-87167818D01*
X126198899Y-87301068D01*
X125980392Y-87480393D01*
X125801068Y-87698900D01*
X125730000Y-87831858D01*
X125658932Y-87698899D01*
X125479607Y-87480392D01*
X125261100Y-87301068D01*
X125011807Y-87167818D01*
X124741308Y-87085764D01*
X124460000Y-87058057D01*
X124178691Y-87085764D01*
X123908192Y-87167818D01*
X123658899Y-87301068D01*
X123440392Y-87480393D01*
X123261068Y-87698900D01*
X123190000Y-87831858D01*
X123118932Y-87698899D01*
X122939607Y-87480392D01*
X122721100Y-87301068D01*
X122471807Y-87167818D01*
X122201308Y-87085764D01*
X121920000Y-87058057D01*
X121638691Y-87085764D01*
X121368192Y-87167818D01*
X121118899Y-87301068D01*
X120900392Y-87480393D01*
X120721068Y-87698900D01*
X120650000Y-87831858D01*
X120578932Y-87698899D01*
X120399607Y-87480392D01*
X120181100Y-87301068D01*
X119931807Y-87167818D01*
X119661308Y-87085764D01*
X119380000Y-87058057D01*
X119098691Y-87085764D01*
X118859300Y-87158382D01*
X118859300Y-85126798D01*
X118862924Y-85090000D01*
X118859300Y-85053202D01*
X118859300Y-85053194D01*
X118848458Y-84943112D01*
X118805612Y-84801868D01*
X118736034Y-84671697D01*
X118665861Y-84586190D01*
X118665854Y-84586183D01*
X118642398Y-84557602D01*
X118613816Y-84534145D01*
X118030862Y-83951193D01*
X118007398Y-83922602D01*
X117893303Y-83828966D01*
X117763132Y-83759388D01*
X117621888Y-83716542D01*
X117511806Y-83705700D01*
X117511795Y-83705700D01*
X117475000Y-83702076D01*
X117438205Y-83705700D01*
X114841998Y-83705700D01*
X114855854Y-83688817D01*
X114855861Y-83688810D01*
X114926034Y-83603303D01*
X114995612Y-83473132D01*
X115038458Y-83331888D01*
X115040963Y-83306451D01*
X115049300Y-83221806D01*
X115049300Y-83221798D01*
X115052924Y-83185000D01*
X115049300Y-83148202D01*
X115049300Y-82946533D01*
X115050723Y-82905860D01*
X115101101Y-82878932D01*
X115319608Y-82699608D01*
X115498932Y-82481101D01*
X115570000Y-82348142D01*
X115641068Y-82481101D01*
X115820393Y-82699608D01*
X116038900Y-82878932D01*
X116288193Y-83012182D01*
X116558692Y-83094236D01*
X116840000Y-83121943D01*
X117121309Y-83094236D01*
X117391808Y-83012182D01*
X117641101Y-82878932D01*
X117859608Y-82699608D01*
X118038932Y-82481101D01*
X118110000Y-82348142D01*
X118181068Y-82481101D01*
X118360393Y-82699608D01*
X118578900Y-82878932D01*
X118828193Y-83012182D01*
X119098692Y-83094236D01*
X119380000Y-83121943D01*
X119661309Y-83094236D01*
X119931808Y-83012182D01*
X120181101Y-82878932D01*
X120399608Y-82699608D01*
X120578932Y-82481101D01*
X120650000Y-82348142D01*
X120721068Y-82481101D01*
X120900393Y-82699608D01*
X121118900Y-82878932D01*
X121368193Y-83012182D01*
X121638692Y-83094236D01*
X121920000Y-83121943D01*
X122201309Y-83094236D01*
X122471808Y-83012182D01*
X122721101Y-82878932D01*
X122939608Y-82699608D01*
X123118932Y-82481101D01*
X123190000Y-82348142D01*
X123261068Y-82481101D01*
X123440393Y-82699608D01*
X123658900Y-82878932D01*
X123908193Y-83012182D01*
X124178692Y-83094236D01*
X124460000Y-83121943D01*
X124741309Y-83094236D01*
X125011808Y-83012182D01*
X125261101Y-82878932D01*
X125479608Y-82699608D01*
X125658932Y-82481101D01*
X125730000Y-82348142D01*
X125801068Y-82481101D01*
X125980393Y-82699608D01*
X126198900Y-82878932D01*
X126448193Y-83012182D01*
X126718692Y-83094236D01*
X127000000Y-83121943D01*
X127281309Y-83094236D01*
X127551808Y-83012182D01*
X127801101Y-82878932D01*
X128019608Y-82699608D01*
X128198932Y-82481101D01*
X128270000Y-82348142D01*
X128341068Y-82481101D01*
X128520393Y-82699608D01*
X128738900Y-82878932D01*
X128988193Y-83012182D01*
X129258692Y-83094236D01*
X129540000Y-83121943D01*
X129821309Y-83094236D01*
X130091808Y-83012182D01*
X130341101Y-82878932D01*
X130559608Y-82699608D01*
X130738932Y-82481101D01*
X130810000Y-82348142D01*
X130881068Y-82481101D01*
X131060393Y-82699608D01*
X131278900Y-82878932D01*
X131528193Y-83012182D01*
X131798692Y-83094236D01*
X132080000Y-83121943D01*
X132361309Y-83094236D01*
X132631808Y-83012182D01*
X132881101Y-82878932D01*
X133099608Y-82699608D01*
X133278932Y-82481101D01*
X133412182Y-82231808D01*
X133494236Y-81961309D01*
X133515000Y-81750491D01*
X133515000Y-80809508D01*
X133494236Y-80598691D01*
X133412182Y-80328192D01*
X133278932Y-80078899D01*
X133099607Y-79860392D01*
X132881100Y-79681068D01*
X132631807Y-79547818D01*
X132361308Y-79465764D01*
X132080000Y-79438057D01*
X131798691Y-79465764D01*
X131528192Y-79547818D01*
X131278899Y-79681068D01*
X131060392Y-79860393D01*
X130881068Y-80078900D01*
X130810000Y-80211858D01*
X130738932Y-80078899D01*
X130559607Y-79860392D01*
X130341100Y-79681068D01*
X130091807Y-79547818D01*
X129821308Y-79465764D01*
X129540000Y-79438057D01*
X129258691Y-79465764D01*
X128988192Y-79547818D01*
X128738899Y-79681068D01*
X128520392Y-79860393D01*
X128341068Y-80078900D01*
X128270000Y-80211858D01*
X128198932Y-80078899D01*
X128019607Y-79860392D01*
X127801100Y-79681068D01*
X127551807Y-79547818D01*
X127281308Y-79465764D01*
X127000000Y-79438057D01*
X126718691Y-79465764D01*
X126448192Y-79547818D01*
X126198899Y-79681068D01*
X125980392Y-79860393D01*
X125801068Y-80078900D01*
X125730000Y-80211858D01*
X125658932Y-80078899D01*
X125479607Y-79860392D01*
X125261100Y-79681068D01*
X125011807Y-79547818D01*
X124741308Y-79465764D01*
X124460000Y-79438057D01*
X124178691Y-79465764D01*
X123908192Y-79547818D01*
X123658899Y-79681068D01*
X123440392Y-79860393D01*
X123261068Y-80078900D01*
X123190000Y-80211858D01*
X123118932Y-80078899D01*
X122939607Y-79860392D01*
X122721100Y-79681068D01*
X122471807Y-79547818D01*
X122201308Y-79465764D01*
X121920000Y-79438057D01*
X121638691Y-79465764D01*
X121368192Y-79547818D01*
X121118899Y-79681068D01*
X120900392Y-79860393D01*
X120721068Y-80078900D01*
X120650000Y-80211858D01*
X120578932Y-80078899D01*
X120399607Y-79860392D01*
X120181100Y-79681068D01*
X119931807Y-79547818D01*
X119661308Y-79465764D01*
X119380000Y-79438057D01*
X119098691Y-79465764D01*
X118828192Y-79547818D01*
X118578899Y-79681068D01*
X118360392Y-79860393D01*
X118181068Y-80078900D01*
X118110000Y-80211858D01*
X118038932Y-80078899D01*
X117859607Y-79860392D01*
X117641100Y-79681068D01*
X117391807Y-79547818D01*
X117121308Y-79465764D01*
X116840000Y-79438057D01*
X116558691Y-79465764D01*
X116288192Y-79547818D01*
X116038899Y-79681068D01*
X115820392Y-79860393D01*
X115641068Y-80078900D01*
X115570000Y-80211858D01*
X115498932Y-80078899D01*
X115319607Y-79860392D01*
X115101100Y-79681068D01*
X114851807Y-79547818D01*
X114581308Y-79465764D01*
X114300000Y-79438057D01*
X114018691Y-79465764D01*
X113748192Y-79547818D01*
X113498899Y-79681068D01*
X113280392Y-79860393D01*
X113101068Y-80078900D01*
X113030000Y-80211858D01*
X112958932Y-80078899D01*
X112779607Y-79860392D01*
X112561100Y-79681068D01*
X112311807Y-79547818D01*
X112041308Y-79465764D01*
X111760000Y-79438057D01*
X111478691Y-79465764D01*
X111208192Y-79547818D01*
X110958899Y-79681068D01*
X110740392Y-79860393D01*
X110561068Y-80078900D01*
X110490000Y-80211858D01*
X110418932Y-80078899D01*
X110239607Y-79860392D01*
X110021100Y-79681068D01*
X109771807Y-79547818D01*
X109501308Y-79465764D01*
X109220000Y-79438057D01*
X108938691Y-79465764D01*
X108668192Y-79547818D01*
X108418899Y-79681068D01*
X108200392Y-79860393D01*
X108021068Y-80078900D01*
X107950000Y-80211858D01*
X107878932Y-80078899D01*
X107699607Y-79860392D01*
X107481100Y-79681068D01*
X107231807Y-79547818D01*
X106961308Y-79465764D01*
X106680000Y-79438057D01*
X106398691Y-79465764D01*
X106128192Y-79547818D01*
X105878899Y-79681068D01*
X105660392Y-79860393D01*
X105481068Y-80078900D01*
X105410000Y-80211858D01*
X105338932Y-80078899D01*
X105159607Y-79860392D01*
X104941100Y-79681068D01*
X104691807Y-79547818D01*
X104421308Y-79465764D01*
X104140000Y-79438057D01*
X103858691Y-79465764D01*
X103588192Y-79547818D01*
X103338899Y-79681068D01*
X103120392Y-79860393D01*
X102941068Y-80078900D01*
X102807818Y-80328193D01*
X102725764Y-80598692D01*
X102705000Y-80809509D01*
X102705000Y-81750492D01*
X102725764Y-81961309D01*
X102807818Y-82231808D01*
X102916801Y-82435700D01*
X99731798Y-82435700D01*
X99695000Y-82432076D01*
X99658202Y-82435700D01*
X99658194Y-82435700D01*
X99548112Y-82446542D01*
X99406868Y-82489388D01*
X99276697Y-82558966D01*
X99191190Y-82629139D01*
X99191183Y-82629146D01*
X99162602Y-82652602D01*
X99139145Y-82681184D01*
X98556189Y-83264142D01*
X98527603Y-83287602D01*
X98504143Y-83316188D01*
X98504140Y-83316191D01*
X98433966Y-83401697D01*
X98364388Y-83531869D01*
X98342719Y-83603303D01*
X98321543Y-83673112D01*
X98313046Y-83759388D01*
X98307076Y-83820000D01*
X98310701Y-83856805D01*
X98310700Y-104892769D01*
X98307096Y-104995735D01*
X98297828Y-105081071D01*
X98283001Y-105160183D01*
X98262939Y-105233941D01*
X98237736Y-105303368D01*
X98207212Y-105369550D01*
X98170916Y-105433501D01*
X98128169Y-105496091D01*
X98078150Y-105557935D01*
X98010884Y-105629009D01*
X97906525Y-105733368D01*
X97790000Y-105907760D01*
X97673475Y-105733368D01*
X97466632Y-105526525D01*
X97223411Y-105364010D01*
X96953158Y-105252068D01*
X96666260Y-105195000D01*
X96373740Y-105195000D01*
X96086842Y-105252068D01*
X95816589Y-105364010D01*
X95573368Y-105526525D01*
X95366525Y-105733368D01*
X95204010Y-105976589D01*
X95092068Y-106246842D01*
X95035000Y-106533740D01*
X93200000Y-106533740D01*
X93200000Y-76058665D01*
X102705000Y-76058665D01*
X102705000Y-76341335D01*
X102760147Y-76618574D01*
X102868320Y-76879727D01*
X103025363Y-77114759D01*
X103225241Y-77314637D01*
X103460273Y-77471680D01*
X103721426Y-77579853D01*
X103998665Y-77635000D01*
X104281335Y-77635000D01*
X104558574Y-77579853D01*
X104819727Y-77471680D01*
X105054759Y-77314637D01*
X105176694Y-77192702D01*
X108326903Y-77192702D01*
X108398486Y-77436671D01*
X108653996Y-77557571D01*
X108928184Y-77626300D01*
X109210512Y-77640217D01*
X109490130Y-77598787D01*
X109756292Y-77503603D01*
X109881514Y-77436671D01*
X109953097Y-77192702D01*
X109140000Y-76379605D01*
X108326903Y-77192702D01*
X105176694Y-77192702D01*
X105254637Y-77114759D01*
X105411680Y-76879727D01*
X105519853Y-76618574D01*
X105575000Y-76341335D01*
X105575000Y-76270512D01*
X107699783Y-76270512D01*
X107741213Y-76550130D01*
X107836397Y-76816292D01*
X107903329Y-76941514D01*
X108147298Y-77013097D01*
X108960395Y-76200000D01*
X109319605Y-76200000D01*
X110132702Y-77013097D01*
X110376671Y-76941514D01*
X110497571Y-76686004D01*
X110566300Y-76411816D01*
X110580217Y-76129488D01*
X110569724Y-76058665D01*
X148425000Y-76058665D01*
X148425000Y-76341335D01*
X148480147Y-76618574D01*
X148588320Y-76879727D01*
X148745363Y-77114759D01*
X148945241Y-77314637D01*
X149180273Y-77471680D01*
X149441426Y-77579853D01*
X149718665Y-77635000D01*
X150001335Y-77635000D01*
X150278574Y-77579853D01*
X150539727Y-77471680D01*
X150774759Y-77314637D01*
X150896694Y-77192702D01*
X154046903Y-77192702D01*
X154118486Y-77436671D01*
X154373996Y-77557571D01*
X154648184Y-77626300D01*
X154930512Y-77640217D01*
X155210130Y-77598787D01*
X155476292Y-77503603D01*
X155601514Y-77436671D01*
X155673097Y-77192702D01*
X154860000Y-76379605D01*
X154046903Y-77192702D01*
X150896694Y-77192702D01*
X150974637Y-77114759D01*
X151131680Y-76879727D01*
X151239853Y-76618574D01*
X151295000Y-76341335D01*
X151295000Y-76270512D01*
X153419783Y-76270512D01*
X153461213Y-76550130D01*
X153556397Y-76816292D01*
X153623329Y-76941514D01*
X153867298Y-77013097D01*
X154680395Y-76200000D01*
X155039605Y-76200000D01*
X155852702Y-77013097D01*
X156096671Y-76941514D01*
X156217571Y-76686004D01*
X156286300Y-76411816D01*
X156300217Y-76129488D01*
X156258787Y-75849870D01*
X156163603Y-75583708D01*
X156096671Y-75458486D01*
X155852702Y-75386903D01*
X155039605Y-76200000D01*
X154680395Y-76200000D01*
X153867298Y-75386903D01*
X153623329Y-75458486D01*
X153502429Y-75713996D01*
X153433700Y-75988184D01*
X153419783Y-76270512D01*
X151295000Y-76270512D01*
X151295000Y-76058665D01*
X151239853Y-75781426D01*
X151131680Y-75520273D01*
X150974637Y-75285241D01*
X150896694Y-75207298D01*
X154046903Y-75207298D01*
X154860000Y-76020395D01*
X155673097Y-75207298D01*
X155601514Y-74963329D01*
X155346004Y-74842429D01*
X155071816Y-74773700D01*
X154789488Y-74759783D01*
X154509870Y-74801213D01*
X154243708Y-74896397D01*
X154118486Y-74963329D01*
X154046903Y-75207298D01*
X150896694Y-75207298D01*
X150774759Y-75085363D01*
X150539727Y-74928320D01*
X150278574Y-74820147D01*
X150001335Y-74765000D01*
X149718665Y-74765000D01*
X149441426Y-74820147D01*
X149180273Y-74928320D01*
X148945241Y-75085363D01*
X148745363Y-75285241D01*
X148588320Y-75520273D01*
X148480147Y-75781426D01*
X148425000Y-76058665D01*
X110569724Y-76058665D01*
X110538787Y-75849870D01*
X110443603Y-75583708D01*
X110376671Y-75458486D01*
X110132702Y-75386903D01*
X109319605Y-76200000D01*
X108960395Y-76200000D01*
X108147298Y-75386903D01*
X107903329Y-75458486D01*
X107782429Y-75713996D01*
X107713700Y-75988184D01*
X107699783Y-76270512D01*
X105575000Y-76270512D01*
X105575000Y-76058665D01*
X105519853Y-75781426D01*
X105411680Y-75520273D01*
X105254637Y-75285241D01*
X105176694Y-75207298D01*
X108326903Y-75207298D01*
X109140000Y-76020395D01*
X109953097Y-75207298D01*
X109881514Y-74963329D01*
X109626004Y-74842429D01*
X109351816Y-74773700D01*
X109069488Y-74759783D01*
X108789870Y-74801213D01*
X108523708Y-74896397D01*
X108398486Y-74963329D01*
X108326903Y-75207298D01*
X105176694Y-75207298D01*
X105054759Y-75085363D01*
X104819727Y-74928320D01*
X104558574Y-74820147D01*
X104281335Y-74765000D01*
X103998665Y-74765000D01*
X103721426Y-74820147D01*
X103460273Y-74928320D01*
X103225241Y-75085363D01*
X103025363Y-75285241D01*
X102868320Y-75520273D01*
X102760147Y-75781426D01*
X102705000Y-76058665D01*
X93200000Y-76058665D01*
X93200000Y-70978665D01*
X176365000Y-70978665D01*
X176365000Y-71261335D01*
X176420147Y-71538574D01*
X176528320Y-71799727D01*
X176685363Y-72034759D01*
X176885241Y-72234637D01*
X177120273Y-72391680D01*
X177381426Y-72499853D01*
X177658665Y-72555000D01*
X177941335Y-72555000D01*
X178218574Y-72499853D01*
X178479727Y-72391680D01*
X178714759Y-72234637D01*
X178836694Y-72112702D01*
X184606903Y-72112702D01*
X184678486Y-72356671D01*
X184933996Y-72477571D01*
X185208184Y-72546300D01*
X185490512Y-72560217D01*
X185770130Y-72518787D01*
X186036292Y-72423603D01*
X186161514Y-72356671D01*
X186233097Y-72112702D01*
X185420000Y-71299605D01*
X184606903Y-72112702D01*
X178836694Y-72112702D01*
X178914637Y-72034759D01*
X179071680Y-71799727D01*
X179179853Y-71538574D01*
X179235000Y-71261335D01*
X179235000Y-71190512D01*
X183979783Y-71190512D01*
X184021213Y-71470130D01*
X184116397Y-71736292D01*
X184183329Y-71861514D01*
X184427298Y-71933097D01*
X185240395Y-71120000D01*
X185599605Y-71120000D01*
X186412702Y-71933097D01*
X186656671Y-71861514D01*
X186777571Y-71606004D01*
X186846300Y-71331816D01*
X186860217Y-71049488D01*
X186818787Y-70769870D01*
X186723603Y-70503708D01*
X186656671Y-70378486D01*
X186412702Y-70306903D01*
X185599605Y-71120000D01*
X185240395Y-71120000D01*
X184427298Y-70306903D01*
X184183329Y-70378486D01*
X184062429Y-70633996D01*
X183993700Y-70908184D01*
X183979783Y-71190512D01*
X179235000Y-71190512D01*
X179235000Y-70978665D01*
X179179853Y-70701426D01*
X179071680Y-70440273D01*
X178914637Y-70205241D01*
X178836694Y-70127298D01*
X184606903Y-70127298D01*
X185420000Y-70940395D01*
X186233097Y-70127298D01*
X186161514Y-69883329D01*
X185906004Y-69762429D01*
X185631816Y-69693700D01*
X185349488Y-69679783D01*
X185069870Y-69721213D01*
X184803708Y-69816397D01*
X184678486Y-69883329D01*
X184606903Y-70127298D01*
X178836694Y-70127298D01*
X178714759Y-70005363D01*
X178479727Y-69848320D01*
X178218574Y-69740147D01*
X177941335Y-69685000D01*
X177658665Y-69685000D01*
X177381426Y-69740147D01*
X177120273Y-69848320D01*
X176885241Y-70005363D01*
X176685363Y-70205241D01*
X176528320Y-70440273D01*
X176420147Y-70701426D01*
X176365000Y-70978665D01*
X93200000Y-70978665D01*
X93200000Y-65888816D01*
X173725000Y-65888816D01*
X173725000Y-66191184D01*
X173783989Y-66487743D01*
X173899701Y-66767095D01*
X174067688Y-67018505D01*
X174281495Y-67232312D01*
X174532905Y-67400299D01*
X174812257Y-67516011D01*
X175108816Y-67575000D01*
X175411184Y-67575000D01*
X175707743Y-67516011D01*
X175987095Y-67400299D01*
X176238505Y-67232312D01*
X176304944Y-67165873D01*
X176310498Y-67184180D01*
X176369463Y-67294494D01*
X176448815Y-67391185D01*
X176545506Y-67470537D01*
X176655820Y-67529502D01*
X176775518Y-67565812D01*
X176900000Y-67578072D01*
X178700000Y-67578072D01*
X178824482Y-67565812D01*
X178944180Y-67529502D01*
X179054494Y-67470537D01*
X179066788Y-67460447D01*
X181639158Y-67460447D01*
X181783135Y-67765770D01*
X182140892Y-67946597D01*
X182527053Y-68054155D01*
X182926777Y-68084310D01*
X183324704Y-68035904D01*
X183705540Y-67910795D01*
X183976865Y-67765770D01*
X184120842Y-67460447D01*
X182880000Y-66219605D01*
X181639158Y-67460447D01*
X179066788Y-67460447D01*
X179151185Y-67391185D01*
X179230537Y-67294494D01*
X179289502Y-67184180D01*
X179325812Y-67064482D01*
X179338072Y-66940000D01*
X179338072Y-66086777D01*
X180835690Y-66086777D01*
X180884096Y-66484704D01*
X181009205Y-66865540D01*
X181154230Y-67136865D01*
X181459553Y-67280842D01*
X182700395Y-66040000D01*
X183059605Y-66040000D01*
X184300447Y-67280842D01*
X184605770Y-67136865D01*
X184786597Y-66779108D01*
X184894155Y-66392947D01*
X184924310Y-65993223D01*
X184875904Y-65595296D01*
X184750795Y-65214460D01*
X184605770Y-64943135D01*
X184300447Y-64799158D01*
X183059605Y-66040000D01*
X182700395Y-66040000D01*
X181459553Y-64799158D01*
X181154230Y-64943135D01*
X180973403Y-65300892D01*
X180865845Y-65687053D01*
X180835690Y-66086777D01*
X179338072Y-66086777D01*
X179338072Y-65140000D01*
X179325812Y-65015518D01*
X179289502Y-64895820D01*
X179230537Y-64785506D01*
X179151185Y-64688815D01*
X179066789Y-64619553D01*
X181639158Y-64619553D01*
X182880000Y-65860395D01*
X184120842Y-64619553D01*
X183976865Y-64314230D01*
X183619108Y-64133403D01*
X183232947Y-64025845D01*
X182833223Y-63995690D01*
X182435296Y-64044096D01*
X182054460Y-64169205D01*
X181783135Y-64314230D01*
X181639158Y-64619553D01*
X179066789Y-64619553D01*
X179054494Y-64609463D01*
X178944180Y-64550498D01*
X178824482Y-64514188D01*
X178700000Y-64501928D01*
X176900000Y-64501928D01*
X176775518Y-64514188D01*
X176655820Y-64550498D01*
X176545506Y-64609463D01*
X176448815Y-64688815D01*
X176369463Y-64785506D01*
X176310498Y-64895820D01*
X176304944Y-64914127D01*
X176238505Y-64847688D01*
X175987095Y-64679701D01*
X175707743Y-64563989D01*
X175411184Y-64505000D01*
X175108816Y-64505000D01*
X174812257Y-64563989D01*
X174532905Y-64679701D01*
X174281495Y-64847688D01*
X174067688Y-65061495D01*
X173899701Y-65312905D01*
X173783989Y-65592257D01*
X173725000Y-65888816D01*
X93200000Y-65888816D01*
X93200000Y-64852279D01*
X93247670Y-64366107D01*
X93379489Y-63929502D01*
X93593600Y-63526815D01*
X93881848Y-63173388D01*
X94233261Y-62882673D01*
X94634439Y-62665758D01*
X95070113Y-62530894D01*
X95554344Y-62480000D01*
X184507721Y-62480000D01*
X184993893Y-62527670D01*
%TA.AperFunction,Conductor*%
D21*
G36*
X184993893Y-62527670D02*
G01*
X185430498Y-62659489D01*
X185833185Y-62873600D01*
X186186612Y-63161848D01*
X186477327Y-63513261D01*
X186694242Y-63914439D01*
X186829106Y-64350113D01*
X186880000Y-64834344D01*
X186880001Y-108787711D01*
X186832330Y-109273894D01*
X186700512Y-109710497D01*
X186486399Y-110113186D01*
X186198150Y-110466613D01*
X185846739Y-110757327D01*
X185445564Y-110974240D01*
X185009886Y-111109106D01*
X184525664Y-111160000D01*
X95572279Y-111160000D01*
X95086106Y-111112330D01*
X94649503Y-110980512D01*
X94246814Y-110766399D01*
X93893387Y-110478150D01*
X93602673Y-110126739D01*
X93385760Y-109725564D01*
X93250894Y-109289886D01*
X93200000Y-108805664D01*
X93200000Y-106533740D01*
X95035000Y-106533740D01*
X95035000Y-106826260D01*
X95092068Y-107113158D01*
X95204010Y-107383411D01*
X95366525Y-107626632D01*
X95573368Y-107833475D01*
X95747760Y-107950000D01*
X95573368Y-108066525D01*
X95366525Y-108273368D01*
X95204010Y-108516589D01*
X95092068Y-108786842D01*
X95035000Y-109073740D01*
X95035000Y-109366260D01*
X95092068Y-109653158D01*
X95204010Y-109923411D01*
X95366525Y-110166632D01*
X95573368Y-110373475D01*
X95816589Y-110535990D01*
X96086842Y-110647932D01*
X96373740Y-110705000D01*
X96666260Y-110705000D01*
X96953158Y-110647932D01*
X97223411Y-110535990D01*
X97466632Y-110373475D01*
X97673475Y-110166632D01*
X97790000Y-109992240D01*
X97906525Y-110166632D01*
X98113368Y-110373475D01*
X98356589Y-110535990D01*
X98626842Y-110647932D01*
X98913740Y-110705000D01*
X99206260Y-110705000D01*
X99493158Y-110647932D01*
X99763411Y-110535990D01*
X100006632Y-110373475D01*
X100213475Y-110166632D01*
X100330000Y-109992240D01*
X100446525Y-110166632D01*
X100653368Y-110373475D01*
X100896589Y-110535990D01*
X101166842Y-110647932D01*
X101453740Y-110705000D01*
X101746260Y-110705000D01*
X102033158Y-110647932D01*
X102303411Y-110535990D01*
X102546632Y-110373475D01*
X102753475Y-110166632D01*
X102870000Y-109992240D01*
X102986525Y-110166632D01*
X103193368Y-110373475D01*
X103436589Y-110535990D01*
X103706842Y-110647932D01*
X103993740Y-110705000D01*
X104286260Y-110705000D01*
X104573158Y-110647932D01*
X104843411Y-110535990D01*
X105086632Y-110373475D01*
X105293475Y-110166632D01*
X105410000Y-109992240D01*
X105526525Y-110166632D01*
X105733368Y-110373475D01*
X105976589Y-110535990D01*
X106246842Y-110647932D01*
X106533740Y-110705000D01*
X106826260Y-110705000D01*
X107113158Y-110647932D01*
X107383411Y-110535990D01*
X107626632Y-110373475D01*
X107833475Y-110166632D01*
X107995990Y-109923411D01*
X108107932Y-109653158D01*
X108123102Y-109576891D01*
X120478519Y-109576891D01*
X120575843Y-109851252D01*
X120724822Y-110101355D01*
X120919731Y-110317588D01*
X121153080Y-110491641D01*
X121415901Y-110616825D01*
X121563110Y-110661476D01*
X121793000Y-110540155D01*
X121793000Y-109347000D01*
X120599186Y-109347000D01*
X120478519Y-109576891D01*
X108123102Y-109576891D01*
X108165000Y-109366260D01*
X108165000Y-109073740D01*
X108107932Y-108786842D01*
X107995990Y-108516589D01*
X107833475Y-108273368D01*
X107701620Y-108141513D01*
X107774180Y-108119502D01*
X107884494Y-108060537D01*
X107981185Y-107981185D01*
X108060537Y-107884494D01*
X108119502Y-107774180D01*
X108155812Y-107654482D01*
X108168072Y-107530000D01*
X108168072Y-105830000D01*
X108155812Y-105705518D01*
X108119502Y-105585820D01*
X108060537Y-105475506D01*
X107981185Y-105378815D01*
X107884494Y-105299463D01*
X107774180Y-105240498D01*
X107654482Y-105204188D01*
X107530000Y-105191928D01*
X107465634Y-105191928D01*
X107456999Y-105160183D01*
X107442172Y-105081071D01*
X107432904Y-104995735D01*
X107429300Y-104892771D01*
X107429300Y-96830370D01*
X107625370Y-96634300D01*
X136410701Y-96634300D01*
X136410700Y-104892766D01*
X136407096Y-104995735D01*
X136397828Y-105081071D01*
X136383001Y-105160183D01*
X136362939Y-105233941D01*
X136337736Y-105303368D01*
X136307212Y-105369550D01*
X136270916Y-105433501D01*
X136228169Y-105496091D01*
X136178150Y-105557935D01*
X136110884Y-105629009D01*
X136006525Y-105733368D01*
X135890000Y-105907760D01*
X135773475Y-105733368D01*
X135566632Y-105526525D01*
X135323411Y-105364010D01*
X135053158Y-105252068D01*
X134766260Y-105195000D01*
X134473740Y-105195000D01*
X134186842Y-105252068D01*
X133916589Y-105364010D01*
X133673368Y-105526525D01*
X133466525Y-105733368D01*
X133350000Y-105907760D01*
X133233475Y-105733368D01*
X133026632Y-105526525D01*
X132783411Y-105364010D01*
X132513158Y-105252068D01*
X132226260Y-105195000D01*
X131933740Y-105195000D01*
X131646842Y-105252068D01*
X131376589Y-105364010D01*
X131133368Y-105526525D01*
X130926525Y-105733368D01*
X130810000Y-105907760D01*
X130693475Y-105733368D01*
X130486632Y-105526525D01*
X130243411Y-105364010D01*
X129973158Y-105252068D01*
X129686260Y-105195000D01*
X129393740Y-105195000D01*
X129106842Y-105252068D01*
X128836589Y-105364010D01*
X128593368Y-105526525D01*
X128386525Y-105733368D01*
X128270000Y-105907760D01*
X128153475Y-105733368D01*
X127946632Y-105526525D01*
X127703411Y-105364010D01*
X127433158Y-105252068D01*
X127146260Y-105195000D01*
X126853740Y-105195000D01*
X126566842Y-105252068D01*
X126296589Y-105364010D01*
X126053368Y-105526525D01*
X125846525Y-105733368D01*
X125730000Y-105907760D01*
X125613475Y-105733368D01*
X125406632Y-105526525D01*
X125163411Y-105364010D01*
X124893158Y-105252068D01*
X124606260Y-105195000D01*
X124313740Y-105195000D01*
X124026842Y-105252068D01*
X123756589Y-105364010D01*
X123513368Y-105526525D01*
X123306525Y-105733368D01*
X123190000Y-105907760D01*
X123073475Y-105733368D01*
X122866632Y-105526525D01*
X122623411Y-105364010D01*
X122353158Y-105252068D01*
X122066260Y-105195000D01*
X121773740Y-105195000D01*
X121486842Y-105252068D01*
X121216589Y-105364010D01*
X120973368Y-105526525D01*
X120766525Y-105733368D01*
X120604010Y-105976589D01*
X120492068Y-106246842D01*
X120435000Y-106533740D01*
X120435000Y-106826260D01*
X120492068Y-107113158D01*
X120604010Y-107383411D01*
X120766525Y-107626632D01*
X120973368Y-107833475D01*
X121149406Y-107951100D01*
X120919731Y-108122412D01*
X120724822Y-108338645D01*
X120575843Y-108588748D01*
X120478519Y-108863109D01*
X120599186Y-109093000D01*
X121793000Y-109093000D01*
X121793000Y-109073000D01*
X122047000Y-109073000D01*
X122047000Y-109093000D01*
X122067000Y-109093000D01*
X122067000Y-109347000D01*
X122047000Y-109347000D01*
X122047000Y-110540155D01*
X122276890Y-110661476D01*
X122424099Y-110616825D01*
X122686920Y-110491641D01*
X122920269Y-110317588D01*
X123115178Y-110101355D01*
X123184805Y-109984466D01*
X123306525Y-110166632D01*
X123513368Y-110373475D01*
X123756589Y-110535990D01*
X124026842Y-110647932D01*
X124313740Y-110705000D01*
X124606260Y-110705000D01*
X124893158Y-110647932D01*
X125163411Y-110535990D01*
X125406632Y-110373475D01*
X125613475Y-110166632D01*
X125730000Y-109992240D01*
X125846525Y-110166632D01*
X126053368Y-110373475D01*
X126296589Y-110535990D01*
X126566842Y-110647932D01*
X126853740Y-110705000D01*
X127146260Y-110705000D01*
X127433158Y-110647932D01*
X127703411Y-110535990D01*
X127946632Y-110373475D01*
X128153475Y-110166632D01*
X128270000Y-109992240D01*
X128386525Y-110166632D01*
X128593368Y-110373475D01*
X128836589Y-110535990D01*
X129106842Y-110647932D01*
X129393740Y-110705000D01*
X129686260Y-110705000D01*
X129973158Y-110647932D01*
X130243411Y-110535990D01*
X130486632Y-110373475D01*
X130693475Y-110166632D01*
X130810000Y-109992240D01*
X130926525Y-110166632D01*
X131133368Y-110373475D01*
X131376589Y-110535990D01*
X131646842Y-110647932D01*
X131933740Y-110705000D01*
X132226260Y-110705000D01*
X132513158Y-110647932D01*
X132783411Y-110535990D01*
X133026632Y-110373475D01*
X133233475Y-110166632D01*
X133350000Y-109992240D01*
X133466525Y-110166632D01*
X133673368Y-110373475D01*
X133916589Y-110535990D01*
X134186842Y-110647932D01*
X134473740Y-110705000D01*
X134766260Y-110705000D01*
X135053158Y-110647932D01*
X135323411Y-110535990D01*
X135566632Y-110373475D01*
X135773475Y-110166632D01*
X135890000Y-109992240D01*
X136006525Y-110166632D01*
X136213368Y-110373475D01*
X136456589Y-110535990D01*
X136726842Y-110647932D01*
X137013740Y-110705000D01*
X137306260Y-110705000D01*
X137593158Y-110647932D01*
X137863411Y-110535990D01*
X138106632Y-110373475D01*
X138313475Y-110166632D01*
X138430000Y-109992240D01*
X138546525Y-110166632D01*
X138753368Y-110373475D01*
X138996589Y-110535990D01*
X139266842Y-110647932D01*
X139553740Y-110705000D01*
X139846260Y-110705000D01*
X140133158Y-110647932D01*
X140403411Y-110535990D01*
X140646632Y-110373475D01*
X140853475Y-110166632D01*
X140970000Y-109992240D01*
X141086525Y-110166632D01*
X141293368Y-110373475D01*
X141536589Y-110535990D01*
X141806842Y-110647932D01*
X142093740Y-110705000D01*
X142386260Y-110705000D01*
X142673158Y-110647932D01*
X142943411Y-110535990D01*
X143186632Y-110373475D01*
X143393475Y-110166632D01*
X143510000Y-109992240D01*
X143626525Y-110166632D01*
X143833368Y-110373475D01*
X144076589Y-110535990D01*
X144346842Y-110647932D01*
X144633740Y-110705000D01*
X144926260Y-110705000D01*
X145213158Y-110647932D01*
X145483411Y-110535990D01*
X145726632Y-110373475D01*
X145933475Y-110166632D01*
X146050000Y-109992240D01*
X146166525Y-110166632D01*
X146373368Y-110373475D01*
X146616589Y-110535990D01*
X146886842Y-110647932D01*
X147173740Y-110705000D01*
X147466260Y-110705000D01*
X147753158Y-110647932D01*
X148023411Y-110535990D01*
X148266632Y-110373475D01*
X148473475Y-110166632D01*
X148590000Y-109992240D01*
X148706525Y-110166632D01*
X148913368Y-110373475D01*
X149156589Y-110535990D01*
X149426842Y-110647932D01*
X149713740Y-110705000D01*
X150006260Y-110705000D01*
X150293158Y-110647932D01*
X150563411Y-110535990D01*
X150806632Y-110373475D01*
X151013475Y-110166632D01*
X151130000Y-109992240D01*
X151246525Y-110166632D01*
X151453368Y-110373475D01*
X151696589Y-110535990D01*
X151966842Y-110647932D01*
X152253740Y-110705000D01*
X152546260Y-110705000D01*
X152833158Y-110647932D01*
X153103411Y-110535990D01*
X153346632Y-110373475D01*
X153553475Y-110166632D01*
X153670000Y-109992240D01*
X153786525Y-110166632D01*
X153993368Y-110373475D01*
X154236589Y-110535990D01*
X154506842Y-110647932D01*
X154793740Y-110705000D01*
X155086260Y-110705000D01*
X155373158Y-110647932D01*
X155643411Y-110535990D01*
X155886632Y-110373475D01*
X156093475Y-110166632D01*
X156210000Y-109992240D01*
X156326525Y-110166632D01*
X156533368Y-110373475D01*
X156776589Y-110535990D01*
X157046842Y-110647932D01*
X157333740Y-110705000D01*
X157626260Y-110705000D01*
X157913158Y-110647932D01*
X158183411Y-110535990D01*
X158426632Y-110373475D01*
X158633475Y-110166632D01*
X158750000Y-109992240D01*
X158866525Y-110166632D01*
X159073368Y-110373475D01*
X159316589Y-110535990D01*
X159586842Y-110647932D01*
X159873740Y-110705000D01*
X160166260Y-110705000D01*
X160453158Y-110647932D01*
X160723411Y-110535990D01*
X160966632Y-110373475D01*
X161173475Y-110166632D01*
X161290000Y-109992240D01*
X161406525Y-110166632D01*
X161613368Y-110373475D01*
X161856589Y-110535990D01*
X162126842Y-110647932D01*
X162413740Y-110705000D01*
X162706260Y-110705000D01*
X162993158Y-110647932D01*
X163263411Y-110535990D01*
X163506632Y-110373475D01*
X163713475Y-110166632D01*
X163830000Y-109992240D01*
X163946525Y-110166632D01*
X164153368Y-110373475D01*
X164396589Y-110535990D01*
X164666842Y-110647932D01*
X164953740Y-110705000D01*
X165246260Y-110705000D01*
X165533158Y-110647932D01*
X165803411Y-110535990D01*
X166046632Y-110373475D01*
X166253475Y-110166632D01*
X166370000Y-109992240D01*
X166486525Y-110166632D01*
X166693368Y-110373475D01*
X166936589Y-110535990D01*
X167206842Y-110647932D01*
X167493740Y-110705000D01*
X167786260Y-110705000D01*
X168073158Y-110647932D01*
X168343411Y-110535990D01*
X168586632Y-110373475D01*
X168793475Y-110166632D01*
X168910000Y-109992240D01*
X169026525Y-110166632D01*
X169233368Y-110373475D01*
X169476589Y-110535990D01*
X169746842Y-110647932D01*
X170033740Y-110705000D01*
X170326260Y-110705000D01*
X170613158Y-110647932D01*
X170883411Y-110535990D01*
X171126632Y-110373475D01*
X171333475Y-110166632D01*
X171450000Y-109992240D01*
X171566525Y-110166632D01*
X171773368Y-110373475D01*
X172016589Y-110535990D01*
X172286842Y-110647932D01*
X172573740Y-110705000D01*
X172866260Y-110705000D01*
X173153158Y-110647932D01*
X173423411Y-110535990D01*
X173666632Y-110373475D01*
X173873475Y-110166632D01*
X173990000Y-109992240D01*
X174106525Y-110166632D01*
X174313368Y-110373475D01*
X174556589Y-110535990D01*
X174826842Y-110647932D01*
X175113740Y-110705000D01*
X175406260Y-110705000D01*
X175693158Y-110647932D01*
X175963411Y-110535990D01*
X176206632Y-110373475D01*
X176413475Y-110166632D01*
X176530000Y-109992240D01*
X176646525Y-110166632D01*
X176853368Y-110373475D01*
X177096589Y-110535990D01*
X177366842Y-110647932D01*
X177653740Y-110705000D01*
X177946260Y-110705000D01*
X178233158Y-110647932D01*
X178503411Y-110535990D01*
X178746632Y-110373475D01*
X178953475Y-110166632D01*
X179070000Y-109992240D01*
X179186525Y-110166632D01*
X179393368Y-110373475D01*
X179636589Y-110535990D01*
X179906842Y-110647932D01*
X180193740Y-110705000D01*
X180486260Y-110705000D01*
X180773158Y-110647932D01*
X181043411Y-110535990D01*
X181286632Y-110373475D01*
X181493475Y-110166632D01*
X181610000Y-109992240D01*
X181726525Y-110166632D01*
X181933368Y-110373475D01*
X182176589Y-110535990D01*
X182446842Y-110647932D01*
X182733740Y-110705000D01*
X183026260Y-110705000D01*
X183313158Y-110647932D01*
X183583411Y-110535990D01*
X183826632Y-110373475D01*
X184033475Y-110166632D01*
X184195990Y-109923411D01*
X184307932Y-109653158D01*
X184365000Y-109366260D01*
X184365000Y-109073740D01*
X184307932Y-108786842D01*
X184195990Y-108516589D01*
X184033475Y-108273368D01*
X183901620Y-108141513D01*
X183974180Y-108119502D01*
X184084494Y-108060537D01*
X184181185Y-107981185D01*
X184260537Y-107884494D01*
X184319502Y-107774180D01*
X184355812Y-107654482D01*
X184368072Y-107530000D01*
X184368072Y-105830000D01*
X184355812Y-105705518D01*
X184319502Y-105585820D01*
X184260537Y-105475506D01*
X184181185Y-105378815D01*
X184084494Y-105299463D01*
X183974180Y-105240498D01*
X183854482Y-105204188D01*
X183730000Y-105191928D01*
X182030000Y-105191928D01*
X181905518Y-105204188D01*
X181785820Y-105240498D01*
X181675506Y-105299463D01*
X181578815Y-105378815D01*
X181499463Y-105475506D01*
X181440498Y-105585820D01*
X181418487Y-105658380D01*
X181286632Y-105526525D01*
X181043411Y-105364010D01*
X180773158Y-105252068D01*
X180486260Y-105195000D01*
X180193740Y-105195000D01*
X179906842Y-105252068D01*
X179636589Y-105364010D01*
X179393368Y-105526525D01*
X179186525Y-105733368D01*
X179070000Y-105907760D01*
X178953475Y-105733368D01*
X178746632Y-105526525D01*
X178503411Y-105364010D01*
X178233158Y-105252068D01*
X177946260Y-105195000D01*
X177653740Y-105195000D01*
X177366842Y-105252068D01*
X177096589Y-105364010D01*
X176853368Y-105526525D01*
X176646525Y-105733368D01*
X176530000Y-105907760D01*
X176413475Y-105733368D01*
X176206632Y-105526525D01*
X175963411Y-105364010D01*
X175693158Y-105252068D01*
X175406260Y-105195000D01*
X175113740Y-105195000D01*
X174826842Y-105252068D01*
X174556589Y-105364010D01*
X174313368Y-105526525D01*
X174106525Y-105733368D01*
X173990000Y-105907760D01*
X173873475Y-105733368D01*
X173666632Y-105526525D01*
X173423411Y-105364010D01*
X173153158Y-105252068D01*
X172866260Y-105195000D01*
X172573740Y-105195000D01*
X172286842Y-105252068D01*
X172016589Y-105364010D01*
X171773368Y-105526525D01*
X171566525Y-105733368D01*
X171450000Y-105907760D01*
X171333475Y-105733368D01*
X171126632Y-105526525D01*
X170883411Y-105364010D01*
X170613158Y-105252068D01*
X170326260Y-105195000D01*
X170033740Y-105195000D01*
X169746842Y-105252068D01*
X169476589Y-105364010D01*
X169233368Y-105526525D01*
X169026525Y-105733368D01*
X168910000Y-105907760D01*
X168793475Y-105733368D01*
X168586632Y-105526525D01*
X168343411Y-105364010D01*
X168073158Y-105252068D01*
X167786260Y-105195000D01*
X167493740Y-105195000D01*
X167206842Y-105252068D01*
X166936589Y-105364010D01*
X166693368Y-105526525D01*
X166486525Y-105733368D01*
X166370000Y-105907760D01*
X166253475Y-105733368D01*
X166046632Y-105526525D01*
X165803411Y-105364010D01*
X165533158Y-105252068D01*
X165246260Y-105195000D01*
X164953740Y-105195000D01*
X164666842Y-105252068D01*
X164396589Y-105364010D01*
X164153368Y-105526525D01*
X163946525Y-105733368D01*
X163830000Y-105907760D01*
X163713475Y-105733368D01*
X163506632Y-105526525D01*
X163263411Y-105364010D01*
X162993158Y-105252068D01*
X162706260Y-105195000D01*
X162413740Y-105195000D01*
X162126842Y-105252068D01*
X161856589Y-105364010D01*
X161613368Y-105526525D01*
X161406525Y-105733368D01*
X161290000Y-105907760D01*
X161173475Y-105733368D01*
X160966632Y-105526525D01*
X160723411Y-105364010D01*
X160453158Y-105252068D01*
X160166260Y-105195000D01*
X159873740Y-105195000D01*
X159586842Y-105252068D01*
X159316589Y-105364010D01*
X159073368Y-105526525D01*
X158866525Y-105733368D01*
X158750000Y-105907760D01*
X158633475Y-105733368D01*
X158426632Y-105526525D01*
X158183411Y-105364010D01*
X157913158Y-105252068D01*
X157626260Y-105195000D01*
X157333740Y-105195000D01*
X157046842Y-105252068D01*
X156776589Y-105364010D01*
X156533368Y-105526525D01*
X156326525Y-105733368D01*
X156210000Y-105907760D01*
X156093475Y-105733368D01*
X155886632Y-105526525D01*
X155643411Y-105364010D01*
X155373158Y-105252068D01*
X155086260Y-105195000D01*
X154793740Y-105195000D01*
X154506842Y-105252068D01*
X154236589Y-105364010D01*
X153993368Y-105526525D01*
X153786525Y-105733368D01*
X153670000Y-105907760D01*
X153553475Y-105733368D01*
X153346632Y-105526525D01*
X153103411Y-105364010D01*
X152833158Y-105252068D01*
X152546260Y-105195000D01*
X152253740Y-105195000D01*
X151966842Y-105252068D01*
X151696589Y-105364010D01*
X151453368Y-105526525D01*
X151246525Y-105733368D01*
X151130000Y-105907760D01*
X151013475Y-105733368D01*
X150806632Y-105526525D01*
X150563411Y-105364010D01*
X150293158Y-105252068D01*
X150006260Y-105195000D01*
X149713740Y-105195000D01*
X149426842Y-105252068D01*
X149156589Y-105364010D01*
X148913368Y-105526525D01*
X148706525Y-105733368D01*
X148590000Y-105907760D01*
X148473475Y-105733368D01*
X148266632Y-105526525D01*
X148023411Y-105364010D01*
X147753158Y-105252068D01*
X147466260Y-105195000D01*
X147173740Y-105195000D01*
X146886842Y-105252068D01*
X146616589Y-105364010D01*
X146373368Y-105526525D01*
X146166525Y-105733368D01*
X146050000Y-105907760D01*
X145933475Y-105733368D01*
X145829116Y-105629009D01*
X145761850Y-105557935D01*
X145711831Y-105496091D01*
X145669084Y-105433501D01*
X145632788Y-105369550D01*
X145602264Y-105303368D01*
X145577061Y-105233941D01*
X145556999Y-105160183D01*
X145542172Y-105081071D01*
X145532904Y-104995735D01*
X145529300Y-104892771D01*
X145529300Y-92385370D01*
X145725370Y-92189300D01*
X149188205Y-92189300D01*
X149225000Y-92192924D01*
X149261795Y-92189300D01*
X149261806Y-92189300D01*
X149371888Y-92178458D01*
X149513132Y-92135612D01*
X149643303Y-92066034D01*
X149757398Y-91972398D01*
X149780862Y-91943807D01*
X150363817Y-91360853D01*
X150392398Y-91337398D01*
X150415854Y-91308817D01*
X150415861Y-91308810D01*
X150486034Y-91223303D01*
X150555612Y-91093132D01*
X150598458Y-90951888D01*
X150600963Y-90926451D01*
X150609300Y-90841806D01*
X150609300Y-90841798D01*
X150612924Y-90805000D01*
X150609300Y-90768202D01*
X150609300Y-90738072D01*
X150660000Y-90738072D01*
X150784482Y-90725812D01*
X150904180Y-90689502D01*
X151014494Y-90630537D01*
X151111185Y-90551185D01*
X151190537Y-90454494D01*
X151249502Y-90344180D01*
X151285812Y-90224482D01*
X151287581Y-90206517D01*
X151380393Y-90319608D01*
X151598900Y-90498932D01*
X151848193Y-90632182D01*
X152118692Y-90714236D01*
X152400000Y-90741943D01*
X152681309Y-90714236D01*
X152951808Y-90632182D01*
X153201101Y-90498932D01*
X153419608Y-90319608D01*
X153598932Y-90101101D01*
X153670000Y-89968142D01*
X153741068Y-90101101D01*
X153920393Y-90319608D01*
X154138900Y-90498932D01*
X154388193Y-90632182D01*
X154658692Y-90714236D01*
X154940000Y-90741943D01*
X155221309Y-90714236D01*
X155491808Y-90632182D01*
X155741101Y-90498932D01*
X155959608Y-90319608D01*
X156138932Y-90101101D01*
X156210000Y-89968142D01*
X156281068Y-90101101D01*
X156460393Y-90319608D01*
X156678900Y-90498932D01*
X156928193Y-90632182D01*
X157198692Y-90714236D01*
X157480000Y-90741943D01*
X157761309Y-90714236D01*
X158031808Y-90632182D01*
X158281101Y-90498932D01*
X158499608Y-90319608D01*
X158678932Y-90101101D01*
X158750000Y-89968142D01*
X158821068Y-90101101D01*
X159000393Y-90319608D01*
X159218900Y-90498932D01*
X159468193Y-90632182D01*
X159738692Y-90714236D01*
X160020000Y-90741943D01*
X160301309Y-90714236D01*
X160571808Y-90632182D01*
X160821101Y-90498932D01*
X161039608Y-90319608D01*
X161218932Y-90101101D01*
X161290000Y-89968142D01*
X161361068Y-90101101D01*
X161540393Y-90319608D01*
X161758900Y-90498932D01*
X162008193Y-90632182D01*
X162278692Y-90714236D01*
X162560000Y-90741943D01*
X162841309Y-90714236D01*
X163111808Y-90632182D01*
X163361101Y-90498932D01*
X163579608Y-90319608D01*
X163758932Y-90101101D01*
X163830000Y-89968142D01*
X163901068Y-90101101D01*
X164080393Y-90319608D01*
X164298900Y-90498932D01*
X164548193Y-90632182D01*
X164818692Y-90714236D01*
X165100000Y-90741943D01*
X165381309Y-90714236D01*
X165651808Y-90632182D01*
X165901101Y-90498932D01*
X166119608Y-90319608D01*
X166298932Y-90101101D01*
X166370000Y-89968142D01*
X166441068Y-90101101D01*
X166620393Y-90319608D01*
X166838900Y-90498932D01*
X167088193Y-90632182D01*
X167358692Y-90714236D01*
X167640000Y-90741943D01*
X167921309Y-90714236D01*
X168191808Y-90632182D01*
X168441101Y-90498932D01*
X168659608Y-90319608D01*
X168838932Y-90101101D01*
X168910000Y-89968142D01*
X168981068Y-90101101D01*
X169160393Y-90319608D01*
X169378900Y-90498932D01*
X169628193Y-90632182D01*
X169898692Y-90714236D01*
X170180000Y-90741943D01*
X170461309Y-90714236D01*
X170731808Y-90632182D01*
X170981101Y-90498932D01*
X171199608Y-90319608D01*
X171378932Y-90101101D01*
X171450000Y-89968142D01*
X171521068Y-90101101D01*
X171700393Y-90319608D01*
X171918900Y-90498932D01*
X172168193Y-90632182D01*
X172438692Y-90714236D01*
X172720000Y-90741943D01*
X173001309Y-90714236D01*
X173271808Y-90632182D01*
X173521101Y-90498932D01*
X173739608Y-90319608D01*
X173918932Y-90101101D01*
X173990000Y-89968142D01*
X174061068Y-90101101D01*
X174240393Y-90319608D01*
X174458900Y-90498932D01*
X174708193Y-90632182D01*
X174978692Y-90714236D01*
X175260000Y-90741943D01*
X175541309Y-90714236D01*
X175811808Y-90632182D01*
X176061101Y-90498932D01*
X176279608Y-90319608D01*
X176458932Y-90101101D01*
X176527265Y-89973259D01*
X176677399Y-90202839D01*
X176875105Y-90404500D01*
X177108354Y-90563715D01*
X177368182Y-90674367D01*
X177450961Y-90691904D01*
X177673000Y-90569915D01*
X177673000Y-89027000D01*
X177927000Y-89027000D01*
X177927000Y-90569915D01*
X178149039Y-90691904D01*
X178231818Y-90674367D01*
X178491646Y-90563715D01*
X178724895Y-90404500D01*
X178922601Y-90202839D01*
X179077166Y-89966483D01*
X179182650Y-89704514D01*
X179235000Y-89427000D01*
X179235000Y-89027000D01*
X177927000Y-89027000D01*
X177673000Y-89027000D01*
X177653000Y-89027000D01*
X177653000Y-88773000D01*
X177673000Y-88773000D01*
X177673000Y-87230085D01*
X177927000Y-87230085D01*
X177927000Y-88773000D01*
X179235000Y-88773000D01*
X179235000Y-88373000D01*
X179182650Y-88095486D01*
X179077166Y-87833517D01*
X178922601Y-87597161D01*
X178724895Y-87395500D01*
X178491646Y-87236285D01*
X178231818Y-87125633D01*
X178149039Y-87108096D01*
X177927000Y-87230085D01*
X177673000Y-87230085D01*
X177450961Y-87108096D01*
X177368182Y-87125633D01*
X177108354Y-87236285D01*
X176875105Y-87395500D01*
X176677399Y-87597161D01*
X176527265Y-87826741D01*
X176458932Y-87698899D01*
X176279607Y-87480392D01*
X176061100Y-87301068D01*
X175879888Y-87204208D01*
X175860831Y-87180987D01*
X175815861Y-87126190D01*
X175815854Y-87126183D01*
X175801998Y-87109300D01*
X177128205Y-87109300D01*
X177165000Y-87112924D01*
X177201795Y-87109300D01*
X177201806Y-87109300D01*
X177311888Y-87098458D01*
X177453132Y-87055612D01*
X177583303Y-86986034D01*
X177697398Y-86892398D01*
X177720862Y-86863807D01*
X178303817Y-86280853D01*
X178332398Y-86257398D01*
X178355854Y-86228817D01*
X178355861Y-86228810D01*
X178426034Y-86143303D01*
X178495612Y-86013132D01*
X178538458Y-85871888D01*
X178540004Y-85856191D01*
X178549300Y-85761806D01*
X178549300Y-85761798D01*
X178552924Y-85725000D01*
X178549300Y-85688202D01*
X178549300Y-82946533D01*
X178550723Y-82905860D01*
X178601101Y-82878932D01*
X178819608Y-82699608D01*
X178998932Y-82481101D01*
X179132182Y-82231808D01*
X179214236Y-81961309D01*
X179235000Y-81750491D01*
X179235000Y-80809508D01*
X179214236Y-80598691D01*
X179132182Y-80328192D01*
X178998932Y-80078899D01*
X178819607Y-79860392D01*
X178601100Y-79681068D01*
X178351807Y-79547818D01*
X178081308Y-79465764D01*
X177800000Y-79438057D01*
X177518691Y-79465764D01*
X177248192Y-79547818D01*
X176998899Y-79681068D01*
X176780392Y-79860393D01*
X176601068Y-80078900D01*
X176530000Y-80211858D01*
X176458932Y-80078899D01*
X176279607Y-79860392D01*
X176061100Y-79681068D01*
X175879888Y-79584208D01*
X175860831Y-79560987D01*
X175815861Y-79506190D01*
X175815854Y-79506183D01*
X175792398Y-79477602D01*
X175763816Y-79454145D01*
X175180862Y-78871193D01*
X175157398Y-78842602D01*
X175043303Y-78748966D01*
X174913132Y-78679388D01*
X174771888Y-78636542D01*
X174661806Y-78625700D01*
X174661795Y-78625700D01*
X174625000Y-78622076D01*
X174588205Y-78625700D01*
X154341798Y-78625700D01*
X154305000Y-78622076D01*
X154268202Y-78625700D01*
X154268194Y-78625700D01*
X154158112Y-78636542D01*
X154016868Y-78679388D01*
X153886697Y-78748966D01*
X153801190Y-78819139D01*
X153801183Y-78819146D01*
X153772602Y-78842602D01*
X153749145Y-78871184D01*
X153166193Y-79454138D01*
X153137602Y-79477602D01*
X153098174Y-79525645D01*
X153043966Y-79591697D01*
X153041729Y-79595882D01*
X152951807Y-79547818D01*
X152681308Y-79465764D01*
X152400000Y-79438057D01*
X152118691Y-79465764D01*
X151848192Y-79547818D01*
X151598899Y-79681068D01*
X151380392Y-79860393D01*
X151201068Y-80078900D01*
X151130000Y-80211858D01*
X151058932Y-80078899D01*
X150879607Y-79860392D01*
X150661100Y-79681068D01*
X150411807Y-79547818D01*
X150141308Y-79465764D01*
X149860000Y-79438057D01*
X149578691Y-79465764D01*
X149308192Y-79547818D01*
X149058899Y-79681068D01*
X148840392Y-79860393D01*
X148661068Y-80078900D01*
X148527818Y-80328193D01*
X148445764Y-80598692D01*
X148425000Y-80809509D01*
X148425000Y-81750492D01*
X148445764Y-81961309D01*
X148527818Y-82231808D01*
X148636801Y-82435700D01*
X135926798Y-82435700D01*
X135890000Y-82432076D01*
X135853202Y-82435700D01*
X135853194Y-82435700D01*
X135743112Y-82446542D01*
X135601868Y-82489388D01*
X135471697Y-82558966D01*
X135386190Y-82629139D01*
X135386183Y-82629146D01*
X135357602Y-82652602D01*
X135334145Y-82681184D01*
X134751193Y-83264138D01*
X134722602Y-83287602D01*
X134678412Y-83341447D01*
X134628966Y-83401697D01*
X134589564Y-83475413D01*
X134559388Y-83531869D01*
X134516542Y-83673113D01*
X134505700Y-83783195D01*
X134505700Y-83783205D01*
X134502076Y-83820000D01*
X134505700Y-83856795D01*
X134505701Y-93034629D01*
X134309630Y-93230700D01*
X119055370Y-93230700D01*
X118859300Y-93034630D01*
X118859300Y-90641618D01*
X119098692Y-90714236D01*
X119380000Y-90741943D01*
X119661309Y-90714236D01*
X119931808Y-90632182D01*
X120181101Y-90498932D01*
X120399608Y-90319608D01*
X120578932Y-90101101D01*
X120650000Y-89968142D01*
X120721068Y-90101101D01*
X120900393Y-90319608D01*
X121118900Y-90498932D01*
X121368193Y-90632182D01*
X121638692Y-90714236D01*
X121920000Y-90741943D01*
X122201309Y-90714236D01*
X122471808Y-90632182D01*
X122721101Y-90498932D01*
X122939608Y-90319608D01*
X123118932Y-90101101D01*
X123190000Y-89968142D01*
X123261068Y-90101101D01*
X123440393Y-90319608D01*
X123658900Y-90498932D01*
X123908193Y-90632182D01*
X124178692Y-90714236D01*
X124460000Y-90741943D01*
X124741309Y-90714236D01*
X125011808Y-90632182D01*
X125261101Y-90498932D01*
X125479608Y-90319608D01*
X125658932Y-90101101D01*
X125730000Y-89968142D01*
X125801068Y-90101101D01*
X125980393Y-90319608D01*
X126198900Y-90498932D01*
X126448193Y-90632182D01*
X126718692Y-90714236D01*
X127000000Y-90741943D01*
X127281309Y-90714236D01*
X127551808Y-90632182D01*
X127801101Y-90498932D01*
X128019608Y-90319608D01*
X128198932Y-90101101D01*
X128270000Y-89968142D01*
X128341068Y-90101101D01*
X128520393Y-90319608D01*
X128738900Y-90498932D01*
X128988193Y-90632182D01*
X129258692Y-90714236D01*
X129540000Y-90741943D01*
X129821309Y-90714236D01*
X130091808Y-90632182D01*
X130341101Y-90498932D01*
X130559608Y-90319608D01*
X130738932Y-90101101D01*
X130807265Y-89973259D01*
X130957399Y-90202839D01*
X131155105Y-90404500D01*
X131388354Y-90563715D01*
X131648182Y-90674367D01*
X131730961Y-90691904D01*
X131953000Y-90569915D01*
X131953000Y-89027000D01*
X132207000Y-89027000D01*
X132207000Y-90569915D01*
X132429039Y-90691904D01*
X132511818Y-90674367D01*
X132771646Y-90563715D01*
X133004895Y-90404500D01*
X133202601Y-90202839D01*
X133357166Y-89966483D01*
X133462650Y-89704514D01*
X133515000Y-89427000D01*
X133515000Y-89027000D01*
X132207000Y-89027000D01*
X131953000Y-89027000D01*
X131933000Y-89027000D01*
X131933000Y-88773000D01*
X131953000Y-88773000D01*
X131953000Y-87230085D01*
X132207000Y-87230085D01*
X132207000Y-88773000D01*
X133515000Y-88773000D01*
X133515000Y-88373000D01*
X133462650Y-88095486D01*
X133357166Y-87833517D01*
X133202601Y-87597161D01*
X133004895Y-87395500D01*
X132771646Y-87236285D01*
X132511818Y-87125633D01*
X132429039Y-87108096D01*
X132207000Y-87230085D01*
X131953000Y-87230085D01*
X131730961Y-87108096D01*
X131648182Y-87125633D01*
X131388354Y-87236285D01*
X131155105Y-87395500D01*
X130957399Y-87597161D01*
X130807265Y-87826741D01*
X130738932Y-87698899D01*
X130559607Y-87480392D01*
X130341100Y-87301068D01*
X130091807Y-87167818D01*
X129821308Y-87085764D01*
X129540000Y-87058057D01*
X129258691Y-87085764D01*
X128988192Y-87167818D01*
X128738899Y-87301068D01*
X128520392Y-87480393D01*
X128341068Y-87698900D01*
X128270000Y-87831858D01*
X128198932Y-87698899D01*
X128019607Y-87480392D01*
X127801100Y-87301068D01*
X127551807Y-87167818D01*
X127281308Y-87085764D01*
X127000000Y-87058057D01*
X126718691Y-87085764D01*
X126448192Y-87167818D01*
X126198899Y-87301068D01*
X125980392Y-87480393D01*
X125801068Y-87698900D01*
X125730000Y-87831858D01*
X125658932Y-87698899D01*
X125479607Y-87480392D01*
X125261100Y-87301068D01*
X125011807Y-87167818D01*
X124741308Y-87085764D01*
X124460000Y-87058057D01*
X124178691Y-87085764D01*
X123908192Y-87167818D01*
X123658899Y-87301068D01*
X123440392Y-87480393D01*
X123261068Y-87698900D01*
X123190000Y-87831858D01*
X123118932Y-87698899D01*
X122939607Y-87480392D01*
X122721100Y-87301068D01*
X122471807Y-87167818D01*
X122201308Y-87085764D01*
X121920000Y-87058057D01*
X121638691Y-87085764D01*
X121368192Y-87167818D01*
X121118899Y-87301068D01*
X120900392Y-87480393D01*
X120721068Y-87698900D01*
X120650000Y-87831858D01*
X120578932Y-87698899D01*
X120399607Y-87480392D01*
X120181100Y-87301068D01*
X119931807Y-87167818D01*
X119661308Y-87085764D01*
X119380000Y-87058057D01*
X119098691Y-87085764D01*
X118859300Y-87158382D01*
X118859300Y-85126798D01*
X118862924Y-85090000D01*
X118859300Y-85053202D01*
X118859300Y-85053194D01*
X118848458Y-84943112D01*
X118805612Y-84801868D01*
X118736034Y-84671697D01*
X118665861Y-84586190D01*
X118665854Y-84586183D01*
X118642398Y-84557602D01*
X118613816Y-84534145D01*
X118030862Y-83951193D01*
X118007398Y-83922602D01*
X117893303Y-83828966D01*
X117763132Y-83759388D01*
X117621888Y-83716542D01*
X117511806Y-83705700D01*
X117511795Y-83705700D01*
X117475000Y-83702076D01*
X117438205Y-83705700D01*
X114841998Y-83705700D01*
X114855854Y-83688817D01*
X114855861Y-83688810D01*
X114926034Y-83603303D01*
X114995612Y-83473132D01*
X115038458Y-83331888D01*
X115040963Y-83306451D01*
X115049300Y-83221806D01*
X115049300Y-83221798D01*
X115052924Y-83185000D01*
X115049300Y-83148202D01*
X115049300Y-82946533D01*
X115050723Y-82905860D01*
X115101101Y-82878932D01*
X115319608Y-82699608D01*
X115498932Y-82481101D01*
X115570000Y-82348142D01*
X115641068Y-82481101D01*
X115820393Y-82699608D01*
X116038900Y-82878932D01*
X116288193Y-83012182D01*
X116558692Y-83094236D01*
X116840000Y-83121943D01*
X117121309Y-83094236D01*
X117391808Y-83012182D01*
X117641101Y-82878932D01*
X117859608Y-82699608D01*
X118038932Y-82481101D01*
X118110000Y-82348142D01*
X118181068Y-82481101D01*
X118360393Y-82699608D01*
X118578900Y-82878932D01*
X118828193Y-83012182D01*
X119098692Y-83094236D01*
X119380000Y-83121943D01*
X119661309Y-83094236D01*
X119931808Y-83012182D01*
X120181101Y-82878932D01*
X120399608Y-82699608D01*
X120578932Y-82481101D01*
X120650000Y-82348142D01*
X120721068Y-82481101D01*
X120900393Y-82699608D01*
X121118900Y-82878932D01*
X121368193Y-83012182D01*
X121638692Y-83094236D01*
X121920000Y-83121943D01*
X122201309Y-83094236D01*
X122471808Y-83012182D01*
X122721101Y-82878932D01*
X122939608Y-82699608D01*
X123118932Y-82481101D01*
X123190000Y-82348142D01*
X123261068Y-82481101D01*
X123440393Y-82699608D01*
X123658900Y-82878932D01*
X123908193Y-83012182D01*
X124178692Y-83094236D01*
X124460000Y-83121943D01*
X124741309Y-83094236D01*
X125011808Y-83012182D01*
X125261101Y-82878932D01*
X125479608Y-82699608D01*
X125658932Y-82481101D01*
X125730000Y-82348142D01*
X125801068Y-82481101D01*
X125980393Y-82699608D01*
X126198900Y-82878932D01*
X126448193Y-83012182D01*
X126718692Y-83094236D01*
X127000000Y-83121943D01*
X127281309Y-83094236D01*
X127551808Y-83012182D01*
X127801101Y-82878932D01*
X128019608Y-82699608D01*
X128198932Y-82481101D01*
X128270000Y-82348142D01*
X128341068Y-82481101D01*
X128520393Y-82699608D01*
X128738900Y-82878932D01*
X128988193Y-83012182D01*
X129258692Y-83094236D01*
X129540000Y-83121943D01*
X129821309Y-83094236D01*
X130091808Y-83012182D01*
X130341101Y-82878932D01*
X130559608Y-82699608D01*
X130738932Y-82481101D01*
X130810000Y-82348142D01*
X130881068Y-82481101D01*
X131060393Y-82699608D01*
X131278900Y-82878932D01*
X131528193Y-83012182D01*
X131798692Y-83094236D01*
X132080000Y-83121943D01*
X132361309Y-83094236D01*
X132631808Y-83012182D01*
X132881101Y-82878932D01*
X133099608Y-82699608D01*
X133278932Y-82481101D01*
X133412182Y-82231808D01*
X133494236Y-81961309D01*
X133515000Y-81750491D01*
X133515000Y-80809508D01*
X133494236Y-80598691D01*
X133412182Y-80328192D01*
X133278932Y-80078899D01*
X133099607Y-79860392D01*
X132881100Y-79681068D01*
X132631807Y-79547818D01*
X132361308Y-79465764D01*
X132080000Y-79438057D01*
X131798691Y-79465764D01*
X131528192Y-79547818D01*
X131278899Y-79681068D01*
X131060392Y-79860393D01*
X130881068Y-80078900D01*
X130810000Y-80211858D01*
X130738932Y-80078899D01*
X130559607Y-79860392D01*
X130341100Y-79681068D01*
X130091807Y-79547818D01*
X129821308Y-79465764D01*
X129540000Y-79438057D01*
X129258691Y-79465764D01*
X128988192Y-79547818D01*
X128738899Y-79681068D01*
X128520392Y-79860393D01*
X128341068Y-80078900D01*
X128270000Y-80211858D01*
X128198932Y-80078899D01*
X128019607Y-79860392D01*
X127801100Y-79681068D01*
X127551807Y-79547818D01*
X127281308Y-79465764D01*
X127000000Y-79438057D01*
X126718691Y-79465764D01*
X126448192Y-79547818D01*
X126198899Y-79681068D01*
X125980392Y-79860393D01*
X125801068Y-80078900D01*
X125730000Y-80211858D01*
X125658932Y-80078899D01*
X125479607Y-79860392D01*
X125261100Y-79681068D01*
X125011807Y-79547818D01*
X124741308Y-79465764D01*
X124460000Y-79438057D01*
X124178691Y-79465764D01*
X123908192Y-79547818D01*
X123658899Y-79681068D01*
X123440392Y-79860393D01*
X123261068Y-80078900D01*
X123190000Y-80211858D01*
X123118932Y-80078899D01*
X122939607Y-79860392D01*
X122721100Y-79681068D01*
X122471807Y-79547818D01*
X122201308Y-79465764D01*
X121920000Y-79438057D01*
X121638691Y-79465764D01*
X121368192Y-79547818D01*
X121118899Y-79681068D01*
X120900392Y-79860393D01*
X120721068Y-80078900D01*
X120650000Y-80211858D01*
X120578932Y-80078899D01*
X120399607Y-79860392D01*
X120181100Y-79681068D01*
X119931807Y-79547818D01*
X119661308Y-79465764D01*
X119380000Y-79438057D01*
X119098691Y-79465764D01*
X118828192Y-79547818D01*
X118578899Y-79681068D01*
X118360392Y-79860393D01*
X118181068Y-80078900D01*
X118110000Y-80211858D01*
X118038932Y-80078899D01*
X117859607Y-79860392D01*
X117641100Y-79681068D01*
X117391807Y-79547818D01*
X117121308Y-79465764D01*
X116840000Y-79438057D01*
X116558691Y-79465764D01*
X116288192Y-79547818D01*
X116038899Y-79681068D01*
X115820392Y-79860393D01*
X115641068Y-80078900D01*
X115570000Y-80211858D01*
X115498932Y-80078899D01*
X115319607Y-79860392D01*
X115101100Y-79681068D01*
X114851807Y-79547818D01*
X114581308Y-79465764D01*
X114300000Y-79438057D01*
X114018691Y-79465764D01*
X113748192Y-79547818D01*
X113498899Y-79681068D01*
X113280392Y-79860393D01*
X113101068Y-80078900D01*
X113030000Y-80211858D01*
X112958932Y-80078899D01*
X112779607Y-79860392D01*
X112561100Y-79681068D01*
X112311807Y-79547818D01*
X112041308Y-79465764D01*
X111760000Y-79438057D01*
X111478691Y-79465764D01*
X111208192Y-79547818D01*
X110958899Y-79681068D01*
X110740392Y-79860393D01*
X110561068Y-80078900D01*
X110490000Y-80211858D01*
X110418932Y-80078899D01*
X110239607Y-79860392D01*
X110021100Y-79681068D01*
X109771807Y-79547818D01*
X109501308Y-79465764D01*
X109220000Y-79438057D01*
X108938691Y-79465764D01*
X108668192Y-79547818D01*
X108418899Y-79681068D01*
X108200392Y-79860393D01*
X108021068Y-80078900D01*
X107950000Y-80211858D01*
X107878932Y-80078899D01*
X107699607Y-79860392D01*
X107481100Y-79681068D01*
X107231807Y-79547818D01*
X106961308Y-79465764D01*
X106680000Y-79438057D01*
X106398691Y-79465764D01*
X106128192Y-79547818D01*
X105878899Y-79681068D01*
X105660392Y-79860393D01*
X105481068Y-80078900D01*
X105410000Y-80211858D01*
X105338932Y-80078899D01*
X105159607Y-79860392D01*
X104941100Y-79681068D01*
X104691807Y-79547818D01*
X104421308Y-79465764D01*
X104140000Y-79438057D01*
X103858691Y-79465764D01*
X103588192Y-79547818D01*
X103338899Y-79681068D01*
X103120392Y-79860393D01*
X102941068Y-80078900D01*
X102807818Y-80328193D01*
X102725764Y-80598692D01*
X102705000Y-80809509D01*
X102705000Y-81750492D01*
X102725764Y-81961309D01*
X102807818Y-82231808D01*
X102916801Y-82435700D01*
X99731798Y-82435700D01*
X99695000Y-82432076D01*
X99658202Y-82435700D01*
X99658194Y-82435700D01*
X99548112Y-82446542D01*
X99406868Y-82489388D01*
X99276697Y-82558966D01*
X99191190Y-82629139D01*
X99191183Y-82629146D01*
X99162602Y-82652602D01*
X99139145Y-82681184D01*
X98556189Y-83264142D01*
X98527603Y-83287602D01*
X98504143Y-83316188D01*
X98504140Y-83316191D01*
X98433966Y-83401697D01*
X98364388Y-83531869D01*
X98342719Y-83603303D01*
X98321543Y-83673112D01*
X98313046Y-83759388D01*
X98307076Y-83820000D01*
X98310701Y-83856805D01*
X98310700Y-104892769D01*
X98307096Y-104995735D01*
X98297828Y-105081071D01*
X98283001Y-105160183D01*
X98262939Y-105233941D01*
X98237736Y-105303368D01*
X98207212Y-105369550D01*
X98170916Y-105433501D01*
X98128169Y-105496091D01*
X98078150Y-105557935D01*
X98010884Y-105629009D01*
X97906525Y-105733368D01*
X97790000Y-105907760D01*
X97673475Y-105733368D01*
X97466632Y-105526525D01*
X97223411Y-105364010D01*
X96953158Y-105252068D01*
X96666260Y-105195000D01*
X96373740Y-105195000D01*
X96086842Y-105252068D01*
X95816589Y-105364010D01*
X95573368Y-105526525D01*
X95366525Y-105733368D01*
X95204010Y-105976589D01*
X95092068Y-106246842D01*
X95035000Y-106533740D01*
X93200000Y-106533740D01*
X93200000Y-76058665D01*
X102705000Y-76058665D01*
X102705000Y-76341335D01*
X102760147Y-76618574D01*
X102868320Y-76879727D01*
X103025363Y-77114759D01*
X103225241Y-77314637D01*
X103460273Y-77471680D01*
X103721426Y-77579853D01*
X103998665Y-77635000D01*
X104281335Y-77635000D01*
X104558574Y-77579853D01*
X104819727Y-77471680D01*
X105054759Y-77314637D01*
X105176694Y-77192702D01*
X108326903Y-77192702D01*
X108398486Y-77436671D01*
X108653996Y-77557571D01*
X108928184Y-77626300D01*
X109210512Y-77640217D01*
X109490130Y-77598787D01*
X109756292Y-77503603D01*
X109881514Y-77436671D01*
X109953097Y-77192702D01*
X109140000Y-76379605D01*
X108326903Y-77192702D01*
X105176694Y-77192702D01*
X105254637Y-77114759D01*
X105411680Y-76879727D01*
X105519853Y-76618574D01*
X105575000Y-76341335D01*
X105575000Y-76270512D01*
X107699783Y-76270512D01*
X107741213Y-76550130D01*
X107836397Y-76816292D01*
X107903329Y-76941514D01*
X108147298Y-77013097D01*
X108960395Y-76200000D01*
X109319605Y-76200000D01*
X110132702Y-77013097D01*
X110376671Y-76941514D01*
X110497571Y-76686004D01*
X110566300Y-76411816D01*
X110580217Y-76129488D01*
X110569724Y-76058665D01*
X148425000Y-76058665D01*
X148425000Y-76341335D01*
X148480147Y-76618574D01*
X148588320Y-76879727D01*
X148745363Y-77114759D01*
X148945241Y-77314637D01*
X149180273Y-77471680D01*
X149441426Y-77579853D01*
X149718665Y-77635000D01*
X150001335Y-77635000D01*
X150278574Y-77579853D01*
X150539727Y-77471680D01*
X150774759Y-77314637D01*
X150896694Y-77192702D01*
X154046903Y-77192702D01*
X154118486Y-77436671D01*
X154373996Y-77557571D01*
X154648184Y-77626300D01*
X154930512Y-77640217D01*
X155210130Y-77598787D01*
X155476292Y-77503603D01*
X155601514Y-77436671D01*
X155673097Y-77192702D01*
X154860000Y-76379605D01*
X154046903Y-77192702D01*
X150896694Y-77192702D01*
X150974637Y-77114759D01*
X151131680Y-76879727D01*
X151239853Y-76618574D01*
X151295000Y-76341335D01*
X151295000Y-76270512D01*
X153419783Y-76270512D01*
X153461213Y-76550130D01*
X153556397Y-76816292D01*
X153623329Y-76941514D01*
X153867298Y-77013097D01*
X154680395Y-76200000D01*
X155039605Y-76200000D01*
X155852702Y-77013097D01*
X156096671Y-76941514D01*
X156217571Y-76686004D01*
X156286300Y-76411816D01*
X156300217Y-76129488D01*
X156258787Y-75849870D01*
X156163603Y-75583708D01*
X156096671Y-75458486D01*
X155852702Y-75386903D01*
X155039605Y-76200000D01*
X154680395Y-76200000D01*
X153867298Y-75386903D01*
X153623329Y-75458486D01*
X153502429Y-75713996D01*
X153433700Y-75988184D01*
X153419783Y-76270512D01*
X151295000Y-76270512D01*
X151295000Y-76058665D01*
X151239853Y-75781426D01*
X151131680Y-75520273D01*
X150974637Y-75285241D01*
X150896694Y-75207298D01*
X154046903Y-75207298D01*
X154860000Y-76020395D01*
X155673097Y-75207298D01*
X155601514Y-74963329D01*
X155346004Y-74842429D01*
X155071816Y-74773700D01*
X154789488Y-74759783D01*
X154509870Y-74801213D01*
X154243708Y-74896397D01*
X154118486Y-74963329D01*
X154046903Y-75207298D01*
X150896694Y-75207298D01*
X150774759Y-75085363D01*
X150539727Y-74928320D01*
X150278574Y-74820147D01*
X150001335Y-74765000D01*
X149718665Y-74765000D01*
X149441426Y-74820147D01*
X149180273Y-74928320D01*
X148945241Y-75085363D01*
X148745363Y-75285241D01*
X148588320Y-75520273D01*
X148480147Y-75781426D01*
X148425000Y-76058665D01*
X110569724Y-76058665D01*
X110538787Y-75849870D01*
X110443603Y-75583708D01*
X110376671Y-75458486D01*
X110132702Y-75386903D01*
X109319605Y-76200000D01*
X108960395Y-76200000D01*
X108147298Y-75386903D01*
X107903329Y-75458486D01*
X107782429Y-75713996D01*
X107713700Y-75988184D01*
X107699783Y-76270512D01*
X105575000Y-76270512D01*
X105575000Y-76058665D01*
X105519853Y-75781426D01*
X105411680Y-75520273D01*
X105254637Y-75285241D01*
X105176694Y-75207298D01*
X108326903Y-75207298D01*
X109140000Y-76020395D01*
X109953097Y-75207298D01*
X109881514Y-74963329D01*
X109626004Y-74842429D01*
X109351816Y-74773700D01*
X109069488Y-74759783D01*
X108789870Y-74801213D01*
X108523708Y-74896397D01*
X108398486Y-74963329D01*
X108326903Y-75207298D01*
X105176694Y-75207298D01*
X105054759Y-75085363D01*
X104819727Y-74928320D01*
X104558574Y-74820147D01*
X104281335Y-74765000D01*
X103998665Y-74765000D01*
X103721426Y-74820147D01*
X103460273Y-74928320D01*
X103225241Y-75085363D01*
X103025363Y-75285241D01*
X102868320Y-75520273D01*
X102760147Y-75781426D01*
X102705000Y-76058665D01*
X93200000Y-76058665D01*
X93200000Y-70978665D01*
X176365000Y-70978665D01*
X176365000Y-71261335D01*
X176420147Y-71538574D01*
X176528320Y-71799727D01*
X176685363Y-72034759D01*
X176885241Y-72234637D01*
X177120273Y-72391680D01*
X177381426Y-72499853D01*
X177658665Y-72555000D01*
X177941335Y-72555000D01*
X178218574Y-72499853D01*
X178479727Y-72391680D01*
X178714759Y-72234637D01*
X178836694Y-72112702D01*
X184606903Y-72112702D01*
X184678486Y-72356671D01*
X184933996Y-72477571D01*
X185208184Y-72546300D01*
X185490512Y-72560217D01*
X185770130Y-72518787D01*
X186036292Y-72423603D01*
X186161514Y-72356671D01*
X186233097Y-72112702D01*
X185420000Y-71299605D01*
X184606903Y-72112702D01*
X178836694Y-72112702D01*
X178914637Y-72034759D01*
X179071680Y-71799727D01*
X179179853Y-71538574D01*
X179235000Y-71261335D01*
X179235000Y-71190512D01*
X183979783Y-71190512D01*
X184021213Y-71470130D01*
X184116397Y-71736292D01*
X184183329Y-71861514D01*
X184427298Y-71933097D01*
X185240395Y-71120000D01*
X185599605Y-71120000D01*
X186412702Y-71933097D01*
X186656671Y-71861514D01*
X186777571Y-71606004D01*
X186846300Y-71331816D01*
X186860217Y-71049488D01*
X186818787Y-70769870D01*
X186723603Y-70503708D01*
X186656671Y-70378486D01*
X186412702Y-70306903D01*
X185599605Y-71120000D01*
X185240395Y-71120000D01*
X184427298Y-70306903D01*
X184183329Y-70378486D01*
X184062429Y-70633996D01*
X183993700Y-70908184D01*
X183979783Y-71190512D01*
X179235000Y-71190512D01*
X179235000Y-70978665D01*
X179179853Y-70701426D01*
X179071680Y-70440273D01*
X178914637Y-70205241D01*
X178836694Y-70127298D01*
X184606903Y-70127298D01*
X185420000Y-70940395D01*
X186233097Y-70127298D01*
X186161514Y-69883329D01*
X185906004Y-69762429D01*
X185631816Y-69693700D01*
X185349488Y-69679783D01*
X185069870Y-69721213D01*
X184803708Y-69816397D01*
X184678486Y-69883329D01*
X184606903Y-70127298D01*
X178836694Y-70127298D01*
X178714759Y-70005363D01*
X178479727Y-69848320D01*
X178218574Y-69740147D01*
X177941335Y-69685000D01*
X177658665Y-69685000D01*
X177381426Y-69740147D01*
X177120273Y-69848320D01*
X176885241Y-70005363D01*
X176685363Y-70205241D01*
X176528320Y-70440273D01*
X176420147Y-70701426D01*
X176365000Y-70978665D01*
X93200000Y-70978665D01*
X93200000Y-65888816D01*
X173725000Y-65888816D01*
X173725000Y-66191184D01*
X173783989Y-66487743D01*
X173899701Y-66767095D01*
X174067688Y-67018505D01*
X174281495Y-67232312D01*
X174532905Y-67400299D01*
X174812257Y-67516011D01*
X175108816Y-67575000D01*
X175411184Y-67575000D01*
X175707743Y-67516011D01*
X175987095Y-67400299D01*
X176238505Y-67232312D01*
X176304944Y-67165873D01*
X176310498Y-67184180D01*
X176369463Y-67294494D01*
X176448815Y-67391185D01*
X176545506Y-67470537D01*
X176655820Y-67529502D01*
X176775518Y-67565812D01*
X176900000Y-67578072D01*
X178700000Y-67578072D01*
X178824482Y-67565812D01*
X178944180Y-67529502D01*
X179054494Y-67470537D01*
X179066788Y-67460447D01*
X181639158Y-67460447D01*
X181783135Y-67765770D01*
X182140892Y-67946597D01*
X182527053Y-68054155D01*
X182926777Y-68084310D01*
X183324704Y-68035904D01*
X183705540Y-67910795D01*
X183976865Y-67765770D01*
X184120842Y-67460447D01*
X182880000Y-66219605D01*
X181639158Y-67460447D01*
X179066788Y-67460447D01*
X179151185Y-67391185D01*
X179230537Y-67294494D01*
X179289502Y-67184180D01*
X179325812Y-67064482D01*
X179338072Y-66940000D01*
X179338072Y-66086777D01*
X180835690Y-66086777D01*
X180884096Y-66484704D01*
X181009205Y-66865540D01*
X181154230Y-67136865D01*
X181459553Y-67280842D01*
X182700395Y-66040000D01*
X183059605Y-66040000D01*
X184300447Y-67280842D01*
X184605770Y-67136865D01*
X184786597Y-66779108D01*
X184894155Y-66392947D01*
X184924310Y-65993223D01*
X184875904Y-65595296D01*
X184750795Y-65214460D01*
X184605770Y-64943135D01*
X184300447Y-64799158D01*
X183059605Y-66040000D01*
X182700395Y-66040000D01*
X181459553Y-64799158D01*
X181154230Y-64943135D01*
X180973403Y-65300892D01*
X180865845Y-65687053D01*
X180835690Y-66086777D01*
X179338072Y-66086777D01*
X179338072Y-65140000D01*
X179325812Y-65015518D01*
X179289502Y-64895820D01*
X179230537Y-64785506D01*
X179151185Y-64688815D01*
X179066789Y-64619553D01*
X181639158Y-64619553D01*
X182880000Y-65860395D01*
X184120842Y-64619553D01*
X183976865Y-64314230D01*
X183619108Y-64133403D01*
X183232947Y-64025845D01*
X182833223Y-63995690D01*
X182435296Y-64044096D01*
X182054460Y-64169205D01*
X181783135Y-64314230D01*
X181639158Y-64619553D01*
X179066789Y-64619553D01*
X179054494Y-64609463D01*
X178944180Y-64550498D01*
X178824482Y-64514188D01*
X178700000Y-64501928D01*
X176900000Y-64501928D01*
X176775518Y-64514188D01*
X176655820Y-64550498D01*
X176545506Y-64609463D01*
X176448815Y-64688815D01*
X176369463Y-64785506D01*
X176310498Y-64895820D01*
X176304944Y-64914127D01*
X176238505Y-64847688D01*
X175987095Y-64679701D01*
X175707743Y-64563989D01*
X175411184Y-64505000D01*
X175108816Y-64505000D01*
X174812257Y-64563989D01*
X174532905Y-64679701D01*
X174281495Y-64847688D01*
X174067688Y-65061495D01*
X173899701Y-65312905D01*
X173783989Y-65592257D01*
X173725000Y-65888816D01*
X93200000Y-65888816D01*
X93200000Y-64852279D01*
X93247670Y-64366107D01*
X93379489Y-63929502D01*
X93593600Y-63526815D01*
X93881848Y-63173388D01*
X94233261Y-62882673D01*
X94634439Y-62665758D01*
X95070113Y-62530894D01*
X95554344Y-62480000D01*
X184507721Y-62480000D01*
X184993893Y-62527670D01*
G37*
%TD.AperFunction*%
%TD*%
D22*
%TO.N,/VDA*%
X178344271Y-81849458D02*
X178266092Y-81932062D01*
X178265441Y-81932806D01*
X178189672Y-82026491D01*
X178189059Y-82027315D01*
X178122204Y-82125207D01*
X178121647Y-82126101D01*
X178063706Y-82228201D01*
X178063218Y-82229150D01*
X178014191Y-82335457D01*
X178013786Y-82336443D01*
X177973673Y-82446956D01*
X177973356Y-82447956D01*
X177942157Y-82562677D01*
X177941929Y-82563671D01*
X177919644Y-82682599D01*
X177919501Y-82683567D01*
X177906130Y-82806702D01*
X177906064Y-82807629D01*
X177902037Y-82922716D01*
X177697963Y-82922716D01*
X177693935Y-82807629D01*
X177693869Y-82806702D01*
X177680498Y-82683567D01*
X177680355Y-82682599D01*
X177658070Y-82563671D01*
X177657842Y-82562677D01*
X177626643Y-82447956D01*
X177626326Y-82446956D01*
X177586213Y-82336443D01*
X177585808Y-82335457D01*
X177536781Y-82229150D01*
X177536293Y-82228201D01*
X177478352Y-82126101D01*
X177477795Y-82125207D01*
X177410940Y-82027315D01*
X177410327Y-82026491D01*
X177334558Y-81932806D01*
X177333907Y-81932062D01*
X177255729Y-81849458D01*
X177800000Y-80905426D01*
X178344271Y-81849458D01*
%TA.AperFunction,Conductor*%
D21*
G36*
X178344271Y-81849458D02*
G01*
X178266092Y-81932062D01*
X178265441Y-81932806D01*
X178189672Y-82026491D01*
X178189059Y-82027315D01*
X178122204Y-82125207D01*
X178121647Y-82126101D01*
X178063706Y-82228201D01*
X178063218Y-82229150D01*
X178014191Y-82335457D01*
X178013786Y-82336443D01*
X177973673Y-82446956D01*
X177973356Y-82447956D01*
X177942157Y-82562677D01*
X177941929Y-82563671D01*
X177919644Y-82682599D01*
X177919501Y-82683567D01*
X177906130Y-82806702D01*
X177906064Y-82807629D01*
X177902037Y-82922716D01*
X177697963Y-82922716D01*
X177693935Y-82807629D01*
X177693869Y-82806702D01*
X177680498Y-82683567D01*
X177680355Y-82682599D01*
X177658070Y-82563671D01*
X177657842Y-82562677D01*
X177626643Y-82447956D01*
X177626326Y-82446956D01*
X177586213Y-82336443D01*
X177585808Y-82335457D01*
X177536781Y-82229150D01*
X177536293Y-82228201D01*
X177478352Y-82126101D01*
X177477795Y-82125207D01*
X177410940Y-82027315D01*
X177410327Y-82026491D01*
X177334558Y-81932806D01*
X177333907Y-81932062D01*
X177255729Y-81849458D01*
X177800000Y-80905426D01*
X178344271Y-81849458D01*
G37*
%TD.AperFunction*%
%TD*%
D22*
%TO.N,/VDA*%
X137266415Y-105041635D02*
X137266481Y-105042562D01*
X137280902Y-105175345D01*
X137281045Y-105176313D01*
X137305080Y-105304560D01*
X137305308Y-105305554D01*
X137338957Y-105429267D01*
X137339274Y-105430268D01*
X137382537Y-105549446D01*
X137382943Y-105550431D01*
X137435820Y-105665074D01*
X137436307Y-105666024D01*
X137498798Y-105776132D01*
X137499356Y-105777026D01*
X137571461Y-105882600D01*
X137572073Y-105883423D01*
X137653792Y-105984461D01*
X137654443Y-105985205D01*
X137739271Y-106074835D01*
X137160000Y-107079574D01*
X136580729Y-106074835D01*
X136665557Y-105985205D01*
X136666208Y-105984461D01*
X136747927Y-105883423D01*
X136748539Y-105882600D01*
X136820644Y-105777026D01*
X136821202Y-105776132D01*
X136883693Y-105666024D01*
X136884180Y-105665074D01*
X136937057Y-105550431D01*
X136937463Y-105549446D01*
X136980726Y-105430268D01*
X136981043Y-105429267D01*
X137014692Y-105305554D01*
X137014920Y-105304560D01*
X137038955Y-105176313D01*
X137039098Y-105175345D01*
X137053519Y-105042562D01*
X137053585Y-105041635D01*
X137057963Y-104916574D01*
X137262037Y-104916574D01*
X137266415Y-105041635D01*
%TA.AperFunction,Conductor*%
D21*
G36*
X137266415Y-105041635D02*
G01*
X137266481Y-105042562D01*
X137280902Y-105175345D01*
X137281045Y-105176313D01*
X137305080Y-105304560D01*
X137305308Y-105305554D01*
X137338957Y-105429267D01*
X137339274Y-105430268D01*
X137382537Y-105549446D01*
X137382943Y-105550431D01*
X137435820Y-105665074D01*
X137436307Y-105666024D01*
X137498798Y-105776132D01*
X137499356Y-105777026D01*
X137571461Y-105882600D01*
X137572073Y-105883423D01*
X137653792Y-105984461D01*
X137654443Y-105985205D01*
X137739271Y-106074835D01*
X137160000Y-107079574D01*
X136580729Y-106074835D01*
X136665557Y-105985205D01*
X136666208Y-105984461D01*
X136747927Y-105883423D01*
X136748539Y-105882600D01*
X136820644Y-105777026D01*
X136821202Y-105776132D01*
X136883693Y-105666024D01*
X136884180Y-105665074D01*
X136937057Y-105550431D01*
X136937463Y-105549446D01*
X136980726Y-105430268D01*
X136981043Y-105429267D01*
X137014692Y-105305554D01*
X137014920Y-105304560D01*
X137038955Y-105176313D01*
X137039098Y-105175345D01*
X137053519Y-105042562D01*
X137053585Y-105041635D01*
X137057963Y-104916574D01*
X137262037Y-104916574D01*
X137266415Y-105041635D01*
G37*
%TD.AperFunction*%
%TD*%
D22*
%TO.N,/VPA*%
X175366099Y-87685155D02*
X175366385Y-87686984D01*
X175379756Y-87744598D01*
X175380195Y-87746078D01*
X175402480Y-87807194D01*
X175402975Y-87808365D01*
X175434174Y-87872982D01*
X175434667Y-87873904D01*
X175474780Y-87942022D01*
X175475244Y-87942752D01*
X175524271Y-88014371D01*
X175524695Y-88014953D01*
X175582636Y-88090073D01*
X175583017Y-88090544D01*
X175649872Y-88169166D01*
X175650213Y-88169551D01*
X175725982Y-88251674D01*
X175726286Y-88251993D01*
X175804161Y-88330733D01*
X175260000Y-89274574D01*
X174715839Y-88330732D01*
X174793713Y-88251993D01*
X174794017Y-88251674D01*
X174869786Y-88169551D01*
X174870127Y-88169166D01*
X174936982Y-88090544D01*
X174937363Y-88090073D01*
X174995304Y-88014953D01*
X174995728Y-88014371D01*
X175044755Y-87942752D01*
X175045219Y-87942022D01*
X175085332Y-87873904D01*
X175085825Y-87872982D01*
X175117024Y-87808365D01*
X175117519Y-87807194D01*
X175139804Y-87746078D01*
X175140243Y-87744598D01*
X175153614Y-87686984D01*
X175153900Y-87685156D01*
X175157397Y-87642700D01*
X175362603Y-87642700D01*
X175366099Y-87685155D01*
%TA.AperFunction,Conductor*%
D21*
G36*
X175366099Y-87685155D02*
G01*
X175366385Y-87686984D01*
X175379756Y-87744598D01*
X175380195Y-87746078D01*
X175402480Y-87807194D01*
X175402975Y-87808365D01*
X175434174Y-87872982D01*
X175434667Y-87873904D01*
X175474780Y-87942022D01*
X175475244Y-87942752D01*
X175524271Y-88014371D01*
X175524695Y-88014953D01*
X175582636Y-88090073D01*
X175583017Y-88090544D01*
X175649872Y-88169166D01*
X175650213Y-88169551D01*
X175725982Y-88251674D01*
X175726286Y-88251993D01*
X175804161Y-88330733D01*
X175260000Y-89274574D01*
X174715839Y-88330732D01*
X174793713Y-88251993D01*
X174794017Y-88251674D01*
X174869786Y-88169551D01*
X174870127Y-88169166D01*
X174936982Y-88090544D01*
X174937363Y-88090073D01*
X174995304Y-88014953D01*
X174995728Y-88014371D01*
X175044755Y-87942752D01*
X175045219Y-87942022D01*
X175085332Y-87873904D01*
X175085825Y-87872982D01*
X175117024Y-87808365D01*
X175117519Y-87807194D01*
X175139804Y-87746078D01*
X175140243Y-87744598D01*
X175153614Y-87686984D01*
X175153900Y-87685156D01*
X175157397Y-87642700D01*
X175362603Y-87642700D01*
X175366099Y-87685155D01*
G37*
%TD.AperFunction*%
%TD*%
D22*
%TO.N,/VPA*%
X139806415Y-105041635D02*
X139806481Y-105042562D01*
X139820902Y-105175345D01*
X139821045Y-105176313D01*
X139845080Y-105304560D01*
X139845308Y-105305554D01*
X139878957Y-105429267D01*
X139879274Y-105430268D01*
X139922537Y-105549446D01*
X139922943Y-105550431D01*
X139975820Y-105665074D01*
X139976307Y-105666024D01*
X140038798Y-105776132D01*
X140039356Y-105777026D01*
X140111461Y-105882600D01*
X140112073Y-105883423D01*
X140193792Y-105984461D01*
X140194443Y-105985205D01*
X140279271Y-106074835D01*
X139700000Y-107079574D01*
X139120729Y-106074835D01*
X139205557Y-105985205D01*
X139206208Y-105984461D01*
X139287927Y-105883423D01*
X139288539Y-105882600D01*
X139360644Y-105777026D01*
X139361202Y-105776132D01*
X139423693Y-105666024D01*
X139424180Y-105665074D01*
X139477057Y-105550431D01*
X139477463Y-105549446D01*
X139520726Y-105430268D01*
X139521043Y-105429267D01*
X139554692Y-105305554D01*
X139554920Y-105304560D01*
X139578955Y-105176313D01*
X139579098Y-105175345D01*
X139593519Y-105042562D01*
X139593585Y-105041635D01*
X139597963Y-104916574D01*
X139802037Y-104916574D01*
X139806415Y-105041635D01*
%TA.AperFunction,Conductor*%
D21*
G36*
X139806415Y-105041635D02*
G01*
X139806481Y-105042562D01*
X139820902Y-105175345D01*
X139821045Y-105176313D01*
X139845080Y-105304560D01*
X139845308Y-105305554D01*
X139878957Y-105429267D01*
X139879274Y-105430268D01*
X139922537Y-105549446D01*
X139922943Y-105550431D01*
X139975820Y-105665074D01*
X139976307Y-105666024D01*
X140038798Y-105776132D01*
X140039356Y-105777026D01*
X140111461Y-105882600D01*
X140112073Y-105883423D01*
X140193792Y-105984461D01*
X140194443Y-105985205D01*
X140279271Y-106074835D01*
X139700000Y-107079574D01*
X139120729Y-106074835D01*
X139205557Y-105985205D01*
X139206208Y-105984461D01*
X139287927Y-105883423D01*
X139288539Y-105882600D01*
X139360644Y-105777026D01*
X139361202Y-105776132D01*
X139423693Y-105666024D01*
X139424180Y-105665074D01*
X139477057Y-105550431D01*
X139477463Y-105549446D01*
X139520726Y-105430268D01*
X139521043Y-105429267D01*
X139554692Y-105305554D01*
X139554920Y-105304560D01*
X139578955Y-105176313D01*
X139579098Y-105175345D01*
X139593519Y-105042562D01*
X139593585Y-105041635D01*
X139597963Y-104916574D01*
X139802037Y-104916574D01*
X139806415Y-105041635D01*
G37*
%TD.AperFunction*%
%TD*%
D22*
%TO.N,/R~W*%
X142346415Y-105041635D02*
X142346481Y-105042562D01*
X142360902Y-105175345D01*
X142361045Y-105176313D01*
X142385080Y-105304560D01*
X142385308Y-105305554D01*
X142418957Y-105429267D01*
X142419274Y-105430268D01*
X142462537Y-105549446D01*
X142462943Y-105550431D01*
X142515820Y-105665074D01*
X142516307Y-105666024D01*
X142578798Y-105776132D01*
X142579356Y-105777026D01*
X142651461Y-105882600D01*
X142652073Y-105883423D01*
X142733792Y-105984461D01*
X142734443Y-105985205D01*
X142819271Y-106074835D01*
X142240000Y-107079574D01*
X141660729Y-106074835D01*
X141745557Y-105985205D01*
X141746208Y-105984461D01*
X141827927Y-105883423D01*
X141828539Y-105882600D01*
X141900644Y-105777026D01*
X141901202Y-105776132D01*
X141963693Y-105666024D01*
X141964180Y-105665074D01*
X142017057Y-105550431D01*
X142017463Y-105549446D01*
X142060726Y-105430268D01*
X142061043Y-105429267D01*
X142094692Y-105305554D01*
X142094920Y-105304560D01*
X142118955Y-105176313D01*
X142119098Y-105175345D01*
X142133519Y-105042562D01*
X142133585Y-105041635D01*
X142137963Y-104916574D01*
X142342037Y-104916574D01*
X142346415Y-105041635D01*
%TA.AperFunction,Conductor*%
D21*
G36*
X142346415Y-105041635D02*
G01*
X142346481Y-105042562D01*
X142360902Y-105175345D01*
X142361045Y-105176313D01*
X142385080Y-105304560D01*
X142385308Y-105305554D01*
X142418957Y-105429267D01*
X142419274Y-105430268D01*
X142462537Y-105549446D01*
X142462943Y-105550431D01*
X142515820Y-105665074D01*
X142516307Y-105666024D01*
X142578798Y-105776132D01*
X142579356Y-105777026D01*
X142651461Y-105882600D01*
X142652073Y-105883423D01*
X142733792Y-105984461D01*
X142734443Y-105985205D01*
X142819271Y-106074835D01*
X142240000Y-107079574D01*
X141660729Y-106074835D01*
X141745557Y-105985205D01*
X141746208Y-105984461D01*
X141827927Y-105883423D01*
X141828539Y-105882600D01*
X141900644Y-105777026D01*
X141901202Y-105776132D01*
X141963693Y-105666024D01*
X141964180Y-105665074D01*
X142017057Y-105550431D01*
X142017463Y-105549446D01*
X142060726Y-105430268D01*
X142061043Y-105429267D01*
X142094692Y-105305554D01*
X142094920Y-105304560D01*
X142118955Y-105176313D01*
X142119098Y-105175345D01*
X142133519Y-105042562D01*
X142133585Y-105041635D01*
X142137963Y-104916574D01*
X142342037Y-104916574D01*
X142346415Y-105041635D01*
G37*
%TD.AperFunction*%
%TD*%
D22*
%TO.N,/PHI2*%
X150404271Y-89469458D02*
X150326092Y-89552062D01*
X150325441Y-89552806D01*
X150249672Y-89646491D01*
X150249059Y-89647315D01*
X150182204Y-89745207D01*
X150181647Y-89746101D01*
X150123706Y-89848201D01*
X150123218Y-89849150D01*
X150074191Y-89955457D01*
X150073786Y-89956443D01*
X150033673Y-90066956D01*
X150033356Y-90067956D01*
X150002157Y-90182677D01*
X150001929Y-90183671D01*
X149979644Y-90302599D01*
X149979501Y-90303567D01*
X149966130Y-90426702D01*
X149966064Y-90427629D01*
X149962037Y-90542716D01*
X149757963Y-90542716D01*
X149753935Y-90427629D01*
X149753869Y-90426702D01*
X149740498Y-90303567D01*
X149740355Y-90302599D01*
X149718070Y-90183671D01*
X149717842Y-90182677D01*
X149686643Y-90067956D01*
X149686326Y-90066956D01*
X149646213Y-89956443D01*
X149645808Y-89955457D01*
X149596781Y-89849150D01*
X149596293Y-89848201D01*
X149538352Y-89746101D01*
X149537795Y-89745207D01*
X149470940Y-89647315D01*
X149470327Y-89646491D01*
X149394558Y-89552806D01*
X149393907Y-89552062D01*
X149315729Y-89469458D01*
X149860000Y-88525426D01*
X150404271Y-89469458D01*
%TA.AperFunction,Conductor*%
D21*
G36*
X150404271Y-89469458D02*
G01*
X150326092Y-89552062D01*
X150325441Y-89552806D01*
X150249672Y-89646491D01*
X150249059Y-89647315D01*
X150182204Y-89745207D01*
X150181647Y-89746101D01*
X150123706Y-89848201D01*
X150123218Y-89849150D01*
X150074191Y-89955457D01*
X150073786Y-89956443D01*
X150033673Y-90066956D01*
X150033356Y-90067956D01*
X150002157Y-90182677D01*
X150001929Y-90183671D01*
X149979644Y-90302599D01*
X149979501Y-90303567D01*
X149966130Y-90426702D01*
X149966064Y-90427629D01*
X149962037Y-90542716D01*
X149757963Y-90542716D01*
X149753935Y-90427629D01*
X149753869Y-90426702D01*
X149740498Y-90303567D01*
X149740355Y-90302599D01*
X149718070Y-90183671D01*
X149717842Y-90182677D01*
X149686643Y-90067956D01*
X149686326Y-90066956D01*
X149646213Y-89956443D01*
X149645808Y-89955457D01*
X149596781Y-89849150D01*
X149596293Y-89848201D01*
X149538352Y-89746101D01*
X149537795Y-89745207D01*
X149470940Y-89647315D01*
X149470327Y-89646491D01*
X149394558Y-89552806D01*
X149393907Y-89552062D01*
X149315729Y-89469458D01*
X149860000Y-88525426D01*
X150404271Y-89469458D01*
G37*
%TD.AperFunction*%
%TD*%
D22*
%TO.N,/PHI2*%
X144886415Y-105041635D02*
X144886481Y-105042562D01*
X144900902Y-105175345D01*
X144901045Y-105176313D01*
X144925080Y-105304560D01*
X144925308Y-105305554D01*
X144958957Y-105429267D01*
X144959274Y-105430268D01*
X145002537Y-105549446D01*
X145002943Y-105550431D01*
X145055820Y-105665074D01*
X145056307Y-105666024D01*
X145118798Y-105776132D01*
X145119356Y-105777026D01*
X145191461Y-105882600D01*
X145192073Y-105883423D01*
X145273792Y-105984461D01*
X145274443Y-105985205D01*
X145359271Y-106074835D01*
X144780000Y-107079574D01*
X144200729Y-106074835D01*
X144285557Y-105985205D01*
X144286208Y-105984461D01*
X144367927Y-105883423D01*
X144368539Y-105882600D01*
X144440644Y-105777026D01*
X144441202Y-105776132D01*
X144503693Y-105666024D01*
X144504180Y-105665074D01*
X144557057Y-105550431D01*
X144557463Y-105549446D01*
X144600726Y-105430268D01*
X144601043Y-105429267D01*
X144634692Y-105305554D01*
X144634920Y-105304560D01*
X144658955Y-105176313D01*
X144659098Y-105175345D01*
X144673519Y-105042562D01*
X144673585Y-105041635D01*
X144677963Y-104916574D01*
X144882037Y-104916574D01*
X144886415Y-105041635D01*
%TA.AperFunction,Conductor*%
D21*
G36*
X144886415Y-105041635D02*
G01*
X144886481Y-105042562D01*
X144900902Y-105175345D01*
X144901045Y-105176313D01*
X144925080Y-105304560D01*
X144925308Y-105305554D01*
X144958957Y-105429267D01*
X144959274Y-105430268D01*
X145002537Y-105549446D01*
X145002943Y-105550431D01*
X145055820Y-105665074D01*
X145056307Y-105666024D01*
X145118798Y-105776132D01*
X145119356Y-105777026D01*
X145191461Y-105882600D01*
X145192073Y-105883423D01*
X145273792Y-105984461D01*
X145274443Y-105985205D01*
X145359271Y-106074835D01*
X144780000Y-107079574D01*
X144200729Y-106074835D01*
X144285557Y-105985205D01*
X144286208Y-105984461D01*
X144367927Y-105883423D01*
X144368539Y-105882600D01*
X144440644Y-105777026D01*
X144441202Y-105776132D01*
X144503693Y-105666024D01*
X144504180Y-105665074D01*
X144557057Y-105550431D01*
X144557463Y-105549446D01*
X144600726Y-105430268D01*
X144601043Y-105429267D01*
X144634692Y-105305554D01*
X144634920Y-105304560D01*
X144658955Y-105176313D01*
X144659098Y-105175345D01*
X144673519Y-105042562D01*
X144673585Y-105041635D01*
X144677963Y-104916574D01*
X144882037Y-104916574D01*
X144886415Y-105041635D01*
G37*
%TD.AperFunction*%
%TD*%
D22*
%TO.N,/~ROMSEL*%
X114844271Y-81849458D02*
X114766092Y-81932062D01*
X114765441Y-81932806D01*
X114689672Y-82026491D01*
X114689059Y-82027315D01*
X114622204Y-82125207D01*
X114621647Y-82126101D01*
X114563706Y-82228201D01*
X114563218Y-82229150D01*
X114514191Y-82335457D01*
X114513786Y-82336443D01*
X114473673Y-82446956D01*
X114473356Y-82447956D01*
X114442157Y-82562677D01*
X114441929Y-82563671D01*
X114419644Y-82682599D01*
X114419501Y-82683567D01*
X114406130Y-82806702D01*
X114406064Y-82807629D01*
X114402037Y-82922716D01*
X114197963Y-82922716D01*
X114193935Y-82807629D01*
X114193869Y-82806702D01*
X114180498Y-82683567D01*
X114180355Y-82682599D01*
X114158070Y-82563671D01*
X114157842Y-82562677D01*
X114126643Y-82447956D01*
X114126326Y-82446956D01*
X114086213Y-82336443D01*
X114085808Y-82335457D01*
X114036781Y-82229150D01*
X114036293Y-82228201D01*
X113978352Y-82126101D01*
X113977795Y-82125207D01*
X113910940Y-82027315D01*
X113910327Y-82026491D01*
X113834558Y-81932806D01*
X113833907Y-81932062D01*
X113755729Y-81849458D01*
X114300000Y-80905426D01*
X114844271Y-81849458D01*
%TA.AperFunction,Conductor*%
D21*
G36*
X114844271Y-81849458D02*
G01*
X114766092Y-81932062D01*
X114765441Y-81932806D01*
X114689672Y-82026491D01*
X114689059Y-82027315D01*
X114622204Y-82125207D01*
X114621647Y-82126101D01*
X114563706Y-82228201D01*
X114563218Y-82229150D01*
X114514191Y-82335457D01*
X114513786Y-82336443D01*
X114473673Y-82446956D01*
X114473356Y-82447956D01*
X114442157Y-82562677D01*
X114441929Y-82563671D01*
X114419644Y-82682599D01*
X114419501Y-82683567D01*
X114406130Y-82806702D01*
X114406064Y-82807629D01*
X114402037Y-82922716D01*
X114197963Y-82922716D01*
X114193935Y-82807629D01*
X114193869Y-82806702D01*
X114180498Y-82683567D01*
X114180355Y-82682599D01*
X114158070Y-82563671D01*
X114157842Y-82562677D01*
X114126643Y-82447956D01*
X114126326Y-82446956D01*
X114086213Y-82336443D01*
X114085808Y-82335457D01*
X114036781Y-82229150D01*
X114036293Y-82228201D01*
X113978352Y-82126101D01*
X113977795Y-82125207D01*
X113910940Y-82027315D01*
X113910327Y-82026491D01*
X113834558Y-81932806D01*
X113833907Y-81932062D01*
X113755729Y-81849458D01*
X114300000Y-80905426D01*
X114844271Y-81849458D01*
G37*
%TD.AperFunction*%
%TD*%
D22*
%TO.N,/~ROMSEL*%
X101706415Y-105041635D02*
X101706481Y-105042562D01*
X101720902Y-105175345D01*
X101721045Y-105176313D01*
X101745080Y-105304560D01*
X101745308Y-105305554D01*
X101778957Y-105429267D01*
X101779274Y-105430268D01*
X101822537Y-105549446D01*
X101822943Y-105550431D01*
X101875820Y-105665074D01*
X101876307Y-105666024D01*
X101938798Y-105776132D01*
X101939356Y-105777026D01*
X102011461Y-105882600D01*
X102012073Y-105883423D01*
X102093792Y-105984461D01*
X102094443Y-105985205D01*
X102179271Y-106074835D01*
X101600000Y-107079574D01*
X101020729Y-106074835D01*
X101105557Y-105985205D01*
X101106208Y-105984461D01*
X101187927Y-105883423D01*
X101188539Y-105882600D01*
X101260644Y-105777026D01*
X101261202Y-105776132D01*
X101323693Y-105666024D01*
X101324180Y-105665074D01*
X101377057Y-105550431D01*
X101377463Y-105549446D01*
X101420726Y-105430268D01*
X101421043Y-105429267D01*
X101454692Y-105305554D01*
X101454920Y-105304560D01*
X101478955Y-105176313D01*
X101479098Y-105175345D01*
X101493519Y-105042562D01*
X101493585Y-105041635D01*
X101497963Y-104916574D01*
X101702037Y-104916574D01*
X101706415Y-105041635D01*
%TA.AperFunction,Conductor*%
D21*
G36*
X101706415Y-105041635D02*
G01*
X101706481Y-105042562D01*
X101720902Y-105175345D01*
X101721045Y-105176313D01*
X101745080Y-105304560D01*
X101745308Y-105305554D01*
X101778957Y-105429267D01*
X101779274Y-105430268D01*
X101822537Y-105549446D01*
X101822943Y-105550431D01*
X101875820Y-105665074D01*
X101876307Y-105666024D01*
X101938798Y-105776132D01*
X101939356Y-105777026D01*
X102011461Y-105882600D01*
X102012073Y-105883423D01*
X102093792Y-105984461D01*
X102094443Y-105985205D01*
X102179271Y-106074835D01*
X101600000Y-107079574D01*
X101020729Y-106074835D01*
X101105557Y-105985205D01*
X101106208Y-105984461D01*
X101187927Y-105883423D01*
X101188539Y-105882600D01*
X101260644Y-105777026D01*
X101261202Y-105776132D01*
X101323693Y-105666024D01*
X101324180Y-105665074D01*
X101377057Y-105550431D01*
X101377463Y-105549446D01*
X101420726Y-105430268D01*
X101421043Y-105429267D01*
X101454692Y-105305554D01*
X101454920Y-105304560D01*
X101478955Y-105176313D01*
X101479098Y-105175345D01*
X101493519Y-105042562D01*
X101493585Y-105041635D01*
X101497963Y-104916574D01*
X101702037Y-104916574D01*
X101706415Y-105041635D01*
G37*
%TD.AperFunction*%
%TD*%
D22*
%TO.N,/~RAMSEL*%
X99166415Y-105041635D02*
X99166481Y-105042562D01*
X99180902Y-105175345D01*
X99181045Y-105176313D01*
X99205080Y-105304560D01*
X99205308Y-105305554D01*
X99238957Y-105429267D01*
X99239274Y-105430268D01*
X99282537Y-105549446D01*
X99282943Y-105550431D01*
X99335820Y-105665074D01*
X99336307Y-105666024D01*
X99398798Y-105776132D01*
X99399356Y-105777026D01*
X99471461Y-105882600D01*
X99472073Y-105883423D01*
X99553792Y-105984461D01*
X99554443Y-105985205D01*
X99639271Y-106074835D01*
X99060000Y-107079574D01*
X98480729Y-106074835D01*
X98565557Y-105985205D01*
X98566208Y-105984461D01*
X98647927Y-105883423D01*
X98648539Y-105882600D01*
X98720644Y-105777026D01*
X98721202Y-105776132D01*
X98783693Y-105666024D01*
X98784180Y-105665074D01*
X98837057Y-105550431D01*
X98837463Y-105549446D01*
X98880726Y-105430268D01*
X98881043Y-105429267D01*
X98914692Y-105305554D01*
X98914920Y-105304560D01*
X98938955Y-105176313D01*
X98939098Y-105175345D01*
X98953519Y-105042562D01*
X98953585Y-105041635D01*
X98957963Y-104916574D01*
X99162037Y-104916574D01*
X99166415Y-105041635D01*
%TA.AperFunction,Conductor*%
D21*
G36*
X99166415Y-105041635D02*
G01*
X99166481Y-105042562D01*
X99180902Y-105175345D01*
X99181045Y-105176313D01*
X99205080Y-105304560D01*
X99205308Y-105305554D01*
X99238957Y-105429267D01*
X99239274Y-105430268D01*
X99282537Y-105549446D01*
X99282943Y-105550431D01*
X99335820Y-105665074D01*
X99336307Y-105666024D01*
X99398798Y-105776132D01*
X99399356Y-105777026D01*
X99471461Y-105882600D01*
X99472073Y-105883423D01*
X99553792Y-105984461D01*
X99554443Y-105985205D01*
X99639271Y-106074835D01*
X99060000Y-107079574D01*
X98480729Y-106074835D01*
X98565557Y-105985205D01*
X98566208Y-105984461D01*
X98647927Y-105883423D01*
X98648539Y-105882600D01*
X98720644Y-105777026D01*
X98721202Y-105776132D01*
X98783693Y-105666024D01*
X98784180Y-105665074D01*
X98837057Y-105550431D01*
X98837463Y-105549446D01*
X98880726Y-105430268D01*
X98881043Y-105429267D01*
X98914692Y-105305554D01*
X98914920Y-105304560D01*
X98938955Y-105176313D01*
X98939098Y-105175345D01*
X98953519Y-105042562D01*
X98953585Y-105041635D01*
X98957963Y-104916574D01*
X99162037Y-104916574D01*
X99166415Y-105041635D01*
G37*
%TD.AperFunction*%
%TD*%
D22*
%TO.N,/~RAMSEL*%
X112304161Y-81849267D02*
X112226286Y-81928007D01*
X112225982Y-81928326D01*
X112150213Y-82010448D01*
X112149872Y-82010833D01*
X112083017Y-82089455D01*
X112082636Y-82089926D01*
X112024695Y-82165046D01*
X112024271Y-82165628D01*
X111975244Y-82237248D01*
X111974780Y-82237978D01*
X111934667Y-82306096D01*
X111934174Y-82307018D01*
X111902975Y-82371634D01*
X111902480Y-82372805D01*
X111880195Y-82433921D01*
X111879756Y-82435401D01*
X111866385Y-82493015D01*
X111866099Y-82494844D01*
X111862603Y-82537300D01*
X111657397Y-82537300D01*
X111653900Y-82494844D01*
X111653614Y-82493015D01*
X111640243Y-82435401D01*
X111639804Y-82433921D01*
X111617519Y-82372805D01*
X111617024Y-82371634D01*
X111585825Y-82307018D01*
X111585332Y-82306096D01*
X111545219Y-82237978D01*
X111544755Y-82237248D01*
X111495728Y-82165628D01*
X111495304Y-82165046D01*
X111437363Y-82089926D01*
X111436982Y-82089455D01*
X111370127Y-82010833D01*
X111369786Y-82010448D01*
X111294017Y-81928326D01*
X111293713Y-81928007D01*
X111215839Y-81849268D01*
X111760000Y-80905426D01*
X112304161Y-81849267D01*
%TA.AperFunction,Conductor*%
D21*
G36*
X112304161Y-81849267D02*
G01*
X112226286Y-81928007D01*
X112225982Y-81928326D01*
X112150213Y-82010448D01*
X112149872Y-82010833D01*
X112083017Y-82089455D01*
X112082636Y-82089926D01*
X112024695Y-82165046D01*
X112024271Y-82165628D01*
X111975244Y-82237248D01*
X111974780Y-82237978D01*
X111934667Y-82306096D01*
X111934174Y-82307018D01*
X111902975Y-82371634D01*
X111902480Y-82372805D01*
X111880195Y-82433921D01*
X111879756Y-82435401D01*
X111866385Y-82493015D01*
X111866099Y-82494844D01*
X111862603Y-82537300D01*
X111657397Y-82537300D01*
X111653900Y-82494844D01*
X111653614Y-82493015D01*
X111640243Y-82435401D01*
X111639804Y-82433921D01*
X111617519Y-82372805D01*
X111617024Y-82371634D01*
X111585825Y-82307018D01*
X111585332Y-82306096D01*
X111545219Y-82237978D01*
X111544755Y-82237248D01*
X111495728Y-82165628D01*
X111495304Y-82165046D01*
X111437363Y-82089926D01*
X111436982Y-82089455D01*
X111370127Y-82010833D01*
X111369786Y-82010448D01*
X111294017Y-81928326D01*
X111293713Y-81928007D01*
X111215839Y-81849268D01*
X111760000Y-80905426D01*
X112304161Y-81849267D01*
G37*
%TD.AperFunction*%
%TD*%
D22*
%TO.N,/~OE*%
X106786415Y-105041635D02*
X106786481Y-105042562D01*
X106800902Y-105175345D01*
X106801045Y-105176313D01*
X106825080Y-105304560D01*
X106825308Y-105305554D01*
X106858957Y-105429267D01*
X106859274Y-105430268D01*
X106902537Y-105549446D01*
X106902943Y-105550431D01*
X106955820Y-105665074D01*
X106956307Y-105666024D01*
X107018798Y-105776132D01*
X107019356Y-105777026D01*
X107091461Y-105882600D01*
X107092073Y-105883423D01*
X107173792Y-105984461D01*
X107174443Y-105985205D01*
X107259271Y-106074835D01*
X106680000Y-107079574D01*
X106100729Y-106074835D01*
X106185557Y-105985205D01*
X106186208Y-105984461D01*
X106267927Y-105883423D01*
X106268539Y-105882600D01*
X106340644Y-105777026D01*
X106341202Y-105776132D01*
X106403693Y-105666024D01*
X106404180Y-105665074D01*
X106457057Y-105550431D01*
X106457463Y-105549446D01*
X106500726Y-105430268D01*
X106501043Y-105429267D01*
X106534692Y-105305554D01*
X106534920Y-105304560D01*
X106558955Y-105176313D01*
X106559098Y-105175345D01*
X106573519Y-105042562D01*
X106573585Y-105041635D01*
X106577963Y-104916574D01*
X106782037Y-104916574D01*
X106786415Y-105041635D01*
%TA.AperFunction,Conductor*%
D21*
G36*
X106786415Y-105041635D02*
G01*
X106786481Y-105042562D01*
X106800902Y-105175345D01*
X106801045Y-105176313D01*
X106825080Y-105304560D01*
X106825308Y-105305554D01*
X106858957Y-105429267D01*
X106859274Y-105430268D01*
X106902537Y-105549446D01*
X106902943Y-105550431D01*
X106955820Y-105665074D01*
X106956307Y-105666024D01*
X107018798Y-105776132D01*
X107019356Y-105777026D01*
X107091461Y-105882600D01*
X107092073Y-105883423D01*
X107173792Y-105984461D01*
X107174443Y-105985205D01*
X107259271Y-106074835D01*
X106680000Y-107079574D01*
X106100729Y-106074835D01*
X106185557Y-105985205D01*
X106186208Y-105984461D01*
X106267927Y-105883423D01*
X106268539Y-105882600D01*
X106340644Y-105777026D01*
X106341202Y-105776132D01*
X106403693Y-105666024D01*
X106404180Y-105665074D01*
X106457057Y-105550431D01*
X106457463Y-105549446D01*
X106500726Y-105430268D01*
X106501043Y-105429267D01*
X106534692Y-105305554D01*
X106534920Y-105304560D01*
X106558955Y-105176313D01*
X106559098Y-105175345D01*
X106573519Y-105042562D01*
X106573585Y-105041635D01*
X106577963Y-104916574D01*
X106782037Y-104916574D01*
X106786415Y-105041635D01*
G37*
%TD.AperFunction*%
%TD*%
D22*
%TO.N,/~OE*%
X158024271Y-81849458D02*
X157946092Y-81932062D01*
X157945441Y-81932806D01*
X157869672Y-82026491D01*
X157869059Y-82027315D01*
X157802204Y-82125207D01*
X157801647Y-82126101D01*
X157743706Y-82228201D01*
X157743218Y-82229150D01*
X157694191Y-82335457D01*
X157693786Y-82336443D01*
X157653673Y-82446956D01*
X157653356Y-82447956D01*
X157622157Y-82562677D01*
X157621929Y-82563671D01*
X157599644Y-82682599D01*
X157599501Y-82683567D01*
X157586130Y-82806702D01*
X157586064Y-82807629D01*
X157582037Y-82922716D01*
X157377963Y-82922716D01*
X157373935Y-82807629D01*
X157373869Y-82806702D01*
X157360498Y-82683567D01*
X157360355Y-82682599D01*
X157338070Y-82563671D01*
X157337842Y-82562677D01*
X157306643Y-82447956D01*
X157306326Y-82446956D01*
X157266213Y-82336443D01*
X157265808Y-82335457D01*
X157216781Y-82229150D01*
X157216293Y-82228201D01*
X157158352Y-82126101D01*
X157157795Y-82125207D01*
X157090940Y-82027315D01*
X157090327Y-82026491D01*
X157014558Y-81932806D01*
X157013907Y-81932062D01*
X156935729Y-81849458D01*
X157480000Y-80905426D01*
X158024271Y-81849458D01*
%TA.AperFunction,Conductor*%
D21*
G36*
X158024271Y-81849458D02*
G01*
X157946092Y-81932062D01*
X157945441Y-81932806D01*
X157869672Y-82026491D01*
X157869059Y-82027315D01*
X157802204Y-82125207D01*
X157801647Y-82126101D01*
X157743706Y-82228201D01*
X157743218Y-82229150D01*
X157694191Y-82335457D01*
X157693786Y-82336443D01*
X157653673Y-82446956D01*
X157653356Y-82447956D01*
X157622157Y-82562677D01*
X157621929Y-82563671D01*
X157599644Y-82682599D01*
X157599501Y-82683567D01*
X157586130Y-82806702D01*
X157586064Y-82807629D01*
X157582037Y-82922716D01*
X157377963Y-82922716D01*
X157373935Y-82807629D01*
X157373869Y-82806702D01*
X157360498Y-82683567D01*
X157360355Y-82682599D01*
X157338070Y-82563671D01*
X157337842Y-82562677D01*
X157306643Y-82447956D01*
X157306326Y-82446956D01*
X157266213Y-82336443D01*
X157265808Y-82335457D01*
X157216781Y-82229150D01*
X157216293Y-82228201D01*
X157158352Y-82126101D01*
X157157795Y-82125207D01*
X157090940Y-82027315D01*
X157090327Y-82026491D01*
X157014558Y-81932806D01*
X157013907Y-81932062D01*
X156935729Y-81849458D01*
X157480000Y-80905426D01*
X158024271Y-81849458D01*
G37*
%TD.AperFunction*%
%TD*%
D22*
%TO.N,/~WE*%
X155484271Y-81849458D02*
X155406092Y-81932062D01*
X155405441Y-81932806D01*
X155329672Y-82026491D01*
X155329059Y-82027315D01*
X155262204Y-82125207D01*
X155261647Y-82126101D01*
X155203706Y-82228201D01*
X155203218Y-82229150D01*
X155154191Y-82335457D01*
X155153786Y-82336443D01*
X155113673Y-82446956D01*
X155113356Y-82447956D01*
X155082157Y-82562677D01*
X155081929Y-82563671D01*
X155059644Y-82682599D01*
X155059501Y-82683567D01*
X155046130Y-82806702D01*
X155046064Y-82807629D01*
X155042037Y-82922716D01*
X154837963Y-82922716D01*
X154833935Y-82807629D01*
X154833869Y-82806702D01*
X154820498Y-82683567D01*
X154820355Y-82682599D01*
X154798070Y-82563671D01*
X154797842Y-82562677D01*
X154766643Y-82447956D01*
X154766326Y-82446956D01*
X154726213Y-82336443D01*
X154725808Y-82335457D01*
X154676781Y-82229150D01*
X154676293Y-82228201D01*
X154618352Y-82126101D01*
X154617795Y-82125207D01*
X154550940Y-82027315D01*
X154550327Y-82026491D01*
X154474558Y-81932806D01*
X154473907Y-81932062D01*
X154395729Y-81849458D01*
X154940000Y-80905426D01*
X155484271Y-81849458D01*
%TA.AperFunction,Conductor*%
D21*
G36*
X155484271Y-81849458D02*
G01*
X155406092Y-81932062D01*
X155405441Y-81932806D01*
X155329672Y-82026491D01*
X155329059Y-82027315D01*
X155262204Y-82125207D01*
X155261647Y-82126101D01*
X155203706Y-82228201D01*
X155203218Y-82229150D01*
X155154191Y-82335457D01*
X155153786Y-82336443D01*
X155113673Y-82446956D01*
X155113356Y-82447956D01*
X155082157Y-82562677D01*
X155081929Y-82563671D01*
X155059644Y-82682599D01*
X155059501Y-82683567D01*
X155046130Y-82806702D01*
X155046064Y-82807629D01*
X155042037Y-82922716D01*
X154837963Y-82922716D01*
X154833935Y-82807629D01*
X154833869Y-82806702D01*
X154820498Y-82683567D01*
X154820355Y-82682599D01*
X154798070Y-82563671D01*
X154797842Y-82562677D01*
X154766643Y-82447956D01*
X154766326Y-82446956D01*
X154726213Y-82336443D01*
X154725808Y-82335457D01*
X154676781Y-82229150D01*
X154676293Y-82228201D01*
X154618352Y-82126101D01*
X154617795Y-82125207D01*
X154550940Y-82027315D01*
X154550327Y-82026491D01*
X154474558Y-81932806D01*
X154473907Y-81932062D01*
X154395729Y-81849458D01*
X154940000Y-80905426D01*
X155484271Y-81849458D01*
G37*
%TD.AperFunction*%
%TD*%
D22*
%TO.N,/~WE*%
X104246415Y-105041635D02*
X104246481Y-105042562D01*
X104260902Y-105175345D01*
X104261045Y-105176313D01*
X104285080Y-105304560D01*
X104285308Y-105305554D01*
X104318957Y-105429267D01*
X104319274Y-105430268D01*
X104362537Y-105549446D01*
X104362943Y-105550431D01*
X104415820Y-105665074D01*
X104416307Y-105666024D01*
X104478798Y-105776132D01*
X104479356Y-105777026D01*
X104551461Y-105882600D01*
X104552073Y-105883423D01*
X104633792Y-105984461D01*
X104634443Y-105985205D01*
X104719271Y-106074835D01*
X104140000Y-107079574D01*
X103560729Y-106074835D01*
X103645557Y-105985205D01*
X103646208Y-105984461D01*
X103727927Y-105883423D01*
X103728539Y-105882600D01*
X103800644Y-105777026D01*
X103801202Y-105776132D01*
X103863693Y-105666024D01*
X103864180Y-105665074D01*
X103917057Y-105550431D01*
X103917463Y-105549446D01*
X103960726Y-105430268D01*
X103961043Y-105429267D01*
X103994692Y-105305554D01*
X103994920Y-105304560D01*
X104018955Y-105176313D01*
X104019098Y-105175345D01*
X104033519Y-105042562D01*
X104033585Y-105041635D01*
X104037963Y-104916574D01*
X104242037Y-104916574D01*
X104246415Y-105041635D01*
%TA.AperFunction,Conductor*%
D21*
G36*
X104246415Y-105041635D02*
G01*
X104246481Y-105042562D01*
X104260902Y-105175345D01*
X104261045Y-105176313D01*
X104285080Y-105304560D01*
X104285308Y-105305554D01*
X104318957Y-105429267D01*
X104319274Y-105430268D01*
X104362537Y-105549446D01*
X104362943Y-105550431D01*
X104415820Y-105665074D01*
X104416307Y-105666024D01*
X104478798Y-105776132D01*
X104479356Y-105777026D01*
X104551461Y-105882600D01*
X104552073Y-105883423D01*
X104633792Y-105984461D01*
X104634443Y-105985205D01*
X104719271Y-106074835D01*
X104140000Y-107079574D01*
X103560729Y-106074835D01*
X103645557Y-105985205D01*
X103646208Y-105984461D01*
X103727927Y-105883423D01*
X103728539Y-105882600D01*
X103800644Y-105777026D01*
X103801202Y-105776132D01*
X103863693Y-105666024D01*
X103864180Y-105665074D01*
X103917057Y-105550431D01*
X103917463Y-105549446D01*
X103960726Y-105430268D01*
X103961043Y-105429267D01*
X103994692Y-105305554D01*
X103994920Y-105304560D01*
X104018955Y-105176313D01*
X104019098Y-105175345D01*
X104033519Y-105042562D01*
X104033585Y-105041635D01*
X104037963Y-104916574D01*
X104242037Y-104916574D01*
X104246415Y-105041635D01*
G37*
%TD.AperFunction*%
%TD*%
D22*
%TO.N,/~BANK00*%
X152944161Y-81849267D02*
X152866286Y-81928007D01*
X152865982Y-81928326D01*
X152790213Y-82010448D01*
X152789872Y-82010833D01*
X152723017Y-82089455D01*
X152722636Y-82089926D01*
X152664695Y-82165046D01*
X152664271Y-82165628D01*
X152615244Y-82237248D01*
X152614780Y-82237978D01*
X152574667Y-82306096D01*
X152574174Y-82307018D01*
X152542975Y-82371634D01*
X152542480Y-82372805D01*
X152520195Y-82433921D01*
X152519756Y-82435401D01*
X152506385Y-82493015D01*
X152506099Y-82494844D01*
X152502603Y-82537300D01*
X152297397Y-82537300D01*
X152293900Y-82494844D01*
X152293614Y-82493015D01*
X152280243Y-82435401D01*
X152279804Y-82433921D01*
X152257519Y-82372805D01*
X152257024Y-82371634D01*
X152225825Y-82307018D01*
X152225332Y-82306096D01*
X152185219Y-82237978D01*
X152184755Y-82237248D01*
X152135728Y-82165628D01*
X152135304Y-82165046D01*
X152077363Y-82089926D01*
X152076982Y-82089455D01*
X152010127Y-82010833D01*
X152009786Y-82010448D01*
X151934017Y-81928326D01*
X151933713Y-81928007D01*
X151855839Y-81849268D01*
X152400000Y-80905426D01*
X152944161Y-81849267D01*
%TA.AperFunction,Conductor*%
D21*
G36*
X152944161Y-81849267D02*
G01*
X152866286Y-81928007D01*
X152865982Y-81928326D01*
X152790213Y-82010448D01*
X152789872Y-82010833D01*
X152723017Y-82089455D01*
X152722636Y-82089926D01*
X152664695Y-82165046D01*
X152664271Y-82165628D01*
X152615244Y-82237248D01*
X152614780Y-82237978D01*
X152574667Y-82306096D01*
X152574174Y-82307018D01*
X152542975Y-82371634D01*
X152542480Y-82372805D01*
X152520195Y-82433921D01*
X152519756Y-82435401D01*
X152506385Y-82493015D01*
X152506099Y-82494844D01*
X152502603Y-82537300D01*
X152297397Y-82537300D01*
X152293900Y-82494844D01*
X152293614Y-82493015D01*
X152280243Y-82435401D01*
X152279804Y-82433921D01*
X152257519Y-82372805D01*
X152257024Y-82371634D01*
X152225825Y-82307018D01*
X152225332Y-82306096D01*
X152185219Y-82237978D01*
X152184755Y-82237248D01*
X152135728Y-82165628D01*
X152135304Y-82165046D01*
X152077363Y-82089926D01*
X152076982Y-82089455D01*
X152010127Y-82010833D01*
X152009786Y-82010448D01*
X151934017Y-81928326D01*
X151933713Y-81928007D01*
X151855839Y-81849268D01*
X152400000Y-80905426D01*
X152944161Y-81849267D01*
G37*
%TD.AperFunction*%
%TD*%
D22*
%TO.N,/~BANK00*%
X107224161Y-89469267D02*
X107146286Y-89548007D01*
X107145982Y-89548326D01*
X107070213Y-89630448D01*
X107069872Y-89630833D01*
X107003017Y-89709455D01*
X107002636Y-89709926D01*
X106944695Y-89785046D01*
X106944271Y-89785628D01*
X106895244Y-89857248D01*
X106894780Y-89857978D01*
X106854667Y-89926096D01*
X106854174Y-89927018D01*
X106822975Y-89991634D01*
X106822480Y-89992805D01*
X106800195Y-90053921D01*
X106799756Y-90055401D01*
X106786385Y-90113015D01*
X106786099Y-90114844D01*
X106782603Y-90157300D01*
X106577397Y-90157300D01*
X106573900Y-90114844D01*
X106573614Y-90113015D01*
X106560243Y-90055401D01*
X106559804Y-90053921D01*
X106537519Y-89992805D01*
X106537024Y-89991634D01*
X106505825Y-89927018D01*
X106505332Y-89926096D01*
X106465219Y-89857978D01*
X106464755Y-89857248D01*
X106415728Y-89785628D01*
X106415304Y-89785046D01*
X106357363Y-89709926D01*
X106356982Y-89709455D01*
X106290127Y-89630833D01*
X106289786Y-89630448D01*
X106214017Y-89548326D01*
X106213713Y-89548007D01*
X106135839Y-89469268D01*
X106680000Y-88525426D01*
X107224161Y-89469267D01*
%TA.AperFunction,Conductor*%
D21*
G36*
X107224161Y-89469267D02*
G01*
X107146286Y-89548007D01*
X107145982Y-89548326D01*
X107070213Y-89630448D01*
X107069872Y-89630833D01*
X107003017Y-89709455D01*
X107002636Y-89709926D01*
X106944695Y-89785046D01*
X106944271Y-89785628D01*
X106895244Y-89857248D01*
X106894780Y-89857978D01*
X106854667Y-89926096D01*
X106854174Y-89927018D01*
X106822975Y-89991634D01*
X106822480Y-89992805D01*
X106800195Y-90053921D01*
X106799756Y-90055401D01*
X106786385Y-90113015D01*
X106786099Y-90114844D01*
X106782603Y-90157300D01*
X106577397Y-90157300D01*
X106573900Y-90114844D01*
X106573614Y-90113015D01*
X106560243Y-90055401D01*
X106559804Y-90053921D01*
X106537519Y-89992805D01*
X106537024Y-89991634D01*
X106505825Y-89927018D01*
X106505332Y-89926096D01*
X106465219Y-89857978D01*
X106464755Y-89857248D01*
X106415728Y-89785628D01*
X106415304Y-89785046D01*
X106357363Y-89709926D01*
X106356982Y-89709455D01*
X106290127Y-89630833D01*
X106289786Y-89630448D01*
X106214017Y-89548326D01*
X106213713Y-89548007D01*
X106135839Y-89469268D01*
X106680000Y-88525426D01*
X107224161Y-89469267D01*
G37*
%TD.AperFunction*%
%TD*%
D22*
%TO.N,/~AVALID*%
X175366099Y-80065155D02*
X175366385Y-80066984D01*
X175379756Y-80124598D01*
X175380195Y-80126078D01*
X175402480Y-80187194D01*
X175402975Y-80188365D01*
X175434174Y-80252982D01*
X175434667Y-80253904D01*
X175474780Y-80322022D01*
X175475244Y-80322752D01*
X175524271Y-80394371D01*
X175524695Y-80394953D01*
X175582636Y-80470073D01*
X175583017Y-80470544D01*
X175649872Y-80549166D01*
X175650213Y-80549551D01*
X175725982Y-80631674D01*
X175726286Y-80631993D01*
X175804161Y-80710733D01*
X175260000Y-81654574D01*
X174715839Y-80710732D01*
X174793713Y-80631993D01*
X174794017Y-80631674D01*
X174869786Y-80549551D01*
X174870127Y-80549166D01*
X174936982Y-80470544D01*
X174937363Y-80470073D01*
X174995304Y-80394953D01*
X174995728Y-80394371D01*
X175044755Y-80322752D01*
X175045219Y-80322022D01*
X175085332Y-80253904D01*
X175085825Y-80252982D01*
X175117024Y-80188365D01*
X175117519Y-80187194D01*
X175139804Y-80126078D01*
X175140243Y-80124598D01*
X175153614Y-80066984D01*
X175153900Y-80065156D01*
X175157397Y-80022700D01*
X175362603Y-80022700D01*
X175366099Y-80065155D01*
%TA.AperFunction,Conductor*%
D21*
G36*
X175366099Y-80065155D02*
G01*
X175366385Y-80066984D01*
X175379756Y-80124598D01*
X175380195Y-80126078D01*
X175402480Y-80187194D01*
X175402975Y-80188365D01*
X175434174Y-80252982D01*
X175434667Y-80253904D01*
X175474780Y-80322022D01*
X175475244Y-80322752D01*
X175524271Y-80394371D01*
X175524695Y-80394953D01*
X175582636Y-80470073D01*
X175583017Y-80470544D01*
X175649872Y-80549166D01*
X175650213Y-80549551D01*
X175725982Y-80631674D01*
X175726286Y-80631993D01*
X175804161Y-80710733D01*
X175260000Y-81654574D01*
X174715839Y-80710732D01*
X174793713Y-80631993D01*
X174794017Y-80631674D01*
X174869786Y-80549551D01*
X174870127Y-80549166D01*
X174936982Y-80470544D01*
X174937363Y-80470073D01*
X174995304Y-80394953D01*
X174995728Y-80394371D01*
X175044755Y-80322752D01*
X175045219Y-80322022D01*
X175085332Y-80253904D01*
X175085825Y-80252982D01*
X175117024Y-80188365D01*
X175117519Y-80187194D01*
X175139804Y-80126078D01*
X175140243Y-80124598D01*
X175153614Y-80066984D01*
X175153900Y-80065156D01*
X175157397Y-80022700D01*
X175362603Y-80022700D01*
X175366099Y-80065155D01*
G37*
%TD.AperFunction*%
%TD*%
D22*
%TO.N,/~AVALID*%
X104246064Y-87372370D02*
X104246130Y-87373297D01*
X104259501Y-87496432D01*
X104259644Y-87497400D01*
X104281929Y-87616328D01*
X104282157Y-87617322D01*
X104313356Y-87732043D01*
X104313673Y-87733043D01*
X104353786Y-87843557D01*
X104354191Y-87844543D01*
X104403218Y-87950849D01*
X104403706Y-87951798D01*
X104461647Y-88053898D01*
X104462204Y-88054792D01*
X104529059Y-88152684D01*
X104529672Y-88153508D01*
X104605441Y-88247193D01*
X104606092Y-88247937D01*
X104684271Y-88330542D01*
X104140000Y-89274574D01*
X103595729Y-88330542D01*
X103673907Y-88247937D01*
X103674558Y-88247193D01*
X103750327Y-88153508D01*
X103750940Y-88152684D01*
X103817795Y-88054792D01*
X103818352Y-88053898D01*
X103876293Y-87951798D01*
X103876781Y-87950849D01*
X103925808Y-87844543D01*
X103926213Y-87843557D01*
X103966326Y-87733043D01*
X103966643Y-87732043D01*
X103997842Y-87617322D01*
X103998070Y-87616328D01*
X104020355Y-87497400D01*
X104020498Y-87496432D01*
X104033869Y-87373297D01*
X104033935Y-87372370D01*
X104037963Y-87257284D01*
X104242037Y-87257284D01*
X104246064Y-87372370D01*
%TA.AperFunction,Conductor*%
D21*
G36*
X104246064Y-87372370D02*
G01*
X104246130Y-87373297D01*
X104259501Y-87496432D01*
X104259644Y-87497400D01*
X104281929Y-87616328D01*
X104282157Y-87617322D01*
X104313356Y-87732043D01*
X104313673Y-87733043D01*
X104353786Y-87843557D01*
X104354191Y-87844543D01*
X104403218Y-87950849D01*
X104403706Y-87951798D01*
X104461647Y-88053898D01*
X104462204Y-88054792D01*
X104529059Y-88152684D01*
X104529672Y-88153508D01*
X104605441Y-88247193D01*
X104606092Y-88247937D01*
X104684271Y-88330542D01*
X104140000Y-89274574D01*
X103595729Y-88330542D01*
X103673907Y-88247937D01*
X103674558Y-88247193D01*
X103750327Y-88153508D01*
X103750940Y-88152684D01*
X103817795Y-88054792D01*
X103818352Y-88053898D01*
X103876293Y-87951798D01*
X103876781Y-87950849D01*
X103925808Y-87844543D01*
X103926213Y-87843557D01*
X103966326Y-87733043D01*
X103966643Y-87732043D01*
X103997842Y-87617322D01*
X103998070Y-87616328D01*
X104020355Y-87497400D01*
X104020498Y-87496432D01*
X104033869Y-87373297D01*
X104033935Y-87372370D01*
X104037963Y-87257284D01*
X104242037Y-87257284D01*
X104246064Y-87372370D01*
G37*
%TD.AperFunction*%
%TD*%
M02*
