M48
; DRILL file {KiCad 5.1.9} date Mon Feb  1 10:02:45 2021
; FORMAT={-:-/ absolute / inch / decimal}
; #@! TF.CreationDate,2021-02-01T10:02:45+01:00
; #@! TF.GenerationSoftware,Kicad,Pcbnew,5.1.9
; #@! TF.FileFunction,Plated,1,2,PTH
FMAT,2
INCH
T1C0.0315
T2C0.0354
T3C0.0394
T4C0.0551
%
G90
G05
T1
X4.1Y-3.0
X4.1Y-3.2
X4.1Y-3.5
X4.2Y-3.2
X4.2Y-3.5
X4.2969Y-3.0
X4.3Y-3.2
X4.3Y-3.5
X4.4Y-3.2
X4.4Y-3.5
X4.5Y-3.2
X4.5Y-3.5
X4.6Y-3.2
X4.6Y-3.5
X4.7Y-3.2
X4.7Y-3.5
X4.8Y-3.2
X4.8Y-3.5
X4.9Y-3.2
X4.9Y-3.5
X5.0Y-3.2
X5.0Y-3.5
X5.1Y-3.2
X5.1Y-3.5
X5.2Y-3.2
X5.2Y-3.5
X5.9Y-3.0
X5.9Y-3.2
X5.9Y-3.5
X6.0Y-3.2
X6.0Y-3.5
X6.0969Y-3.0
X6.1Y-3.2
X6.1Y-3.5
X6.2Y-3.2
X6.2Y-3.5
X6.3Y-3.2
X6.3Y-3.5
X6.4Y-3.2
X6.4Y-3.5
X6.5Y-3.2
X6.5Y-3.5
X6.6Y-3.2
X6.6Y-3.5
X6.7Y-3.2
X6.7Y-3.5
X6.8Y-3.2
X6.8Y-3.5
X6.9Y-3.2
X6.9Y-3.5
X7.0Y-2.8
X7.0Y-3.2
X7.0Y-3.5
X7.3Y-2.8
T2
X6.9Y-2.6
X7.0Y-2.6
T3
X3.8Y-4.2
X3.8Y-4.3
X3.9Y-4.2
X3.9Y-4.3
X4.0Y-4.2
X4.0Y-4.3
X4.1Y-4.2
X4.1Y-4.3
X4.2Y-4.2
X4.2Y-4.3
X4.8Y-4.2
X4.8Y-4.3
X4.9Y-4.2
X4.9Y-4.3
X5.0Y-4.2
X5.0Y-4.3
X5.1Y-4.2
X5.1Y-4.3
X5.2Y-4.2
X5.2Y-4.3
X5.3Y-4.2
X5.3Y-4.3
X5.4Y-4.2
X5.4Y-4.3
X5.5Y-4.2
X5.5Y-4.3
X5.6Y-4.2
X5.6Y-4.3
X5.7Y-4.2
X5.7Y-4.3
X5.8Y-4.2
X5.8Y-4.3
X5.9Y-4.2
X5.9Y-4.3
X6.0Y-4.2
X6.0Y-4.3
X6.1Y-4.2
X6.1Y-4.3
X6.2Y-4.2
X6.2Y-4.3
X6.3Y-4.2
X6.3Y-4.3
X6.4Y-4.2
X6.4Y-4.3
X6.5Y-4.2
X6.5Y-4.3
X6.6Y-4.2
X6.6Y-4.3
X6.7Y-4.2
X6.7Y-4.3
X6.8Y-4.2
X6.8Y-4.3
X6.9Y-4.2
X6.9Y-4.3
X7.0Y-4.2
X7.0Y-4.3
X7.1Y-4.2
X7.1Y-4.3
X7.2Y-4.2
X7.2Y-4.3
T4
X7.2Y-2.6
T0
M30
