%TF.GenerationSoftware,KiCad,Pcbnew,5.1.9*%
%TF.CreationDate,2020-12-27T17:53:17+01:00*%
%TF.ProjectId,ROM_29F040_PLCC_v1.0,524f4d5f-3239-4463-9034-305f504c4343,1.0*%
%TF.SameCoordinates,Original*%
%TF.FileFunction,Legend,Bot*%
%TF.FilePolarity,Positive*%
%FSLAX46Y46*%
G04 Gerber Fmt 4.6, Leading zero omitted, Abs format (unit mm)*
G04 Created by KiCad (PCBNEW 5.1.9) date 2020-12-27 17:53:17*
%MOMM*%
%LPD*%
G01*
G04 APERTURE LIST*
%ADD10C,0.100000*%
%ADD11C,0.300000*%
G04 APERTURE END LIST*
D10*
G36*
X138430000Y-86360000D02*
G01*
X129540000Y-86360000D01*
X129540000Y-83820000D01*
X138430000Y-83820000D01*
X138430000Y-86360000D01*
G37*
X138430000Y-86360000D02*
X129540000Y-86360000D01*
X129540000Y-83820000D01*
X138430000Y-83820000D01*
X138430000Y-86360000D01*
G36*
X138430000Y-81280000D02*
G01*
X129540000Y-81280000D01*
X129540000Y-78740000D01*
X138430000Y-78740000D01*
X138430000Y-81280000D01*
G37*
X138430000Y-81280000D02*
X129540000Y-81280000D01*
X129540000Y-78740000D01*
X138430000Y-78740000D01*
X138430000Y-81280000D01*
D11*
X143323571Y-80678571D02*
X143823571Y-79964285D01*
X144180714Y-80678571D02*
X144180714Y-79178571D01*
X143609285Y-79178571D01*
X143466428Y-79250000D01*
X143395000Y-79321428D01*
X143323571Y-79464285D01*
X143323571Y-79678571D01*
X143395000Y-79821428D01*
X143466428Y-79892857D01*
X143609285Y-79964285D01*
X144180714Y-79964285D01*
X142109285Y-80607142D02*
X142252142Y-80678571D01*
X142537857Y-80678571D01*
X142680714Y-80607142D01*
X142752142Y-80464285D01*
X142752142Y-79892857D01*
X142680714Y-79750000D01*
X142537857Y-79678571D01*
X142252142Y-79678571D01*
X142109285Y-79750000D01*
X142037857Y-79892857D01*
X142037857Y-80035714D01*
X142752142Y-80178571D01*
X141537857Y-79678571D02*
X141180714Y-80678571D01*
X140823571Y-79678571D01*
X140252142Y-80535714D02*
X140180714Y-80607142D01*
X140252142Y-80678571D01*
X140323571Y-80607142D01*
X140252142Y-80535714D01*
X140252142Y-80678571D01*
X140252142Y-79750000D02*
X140180714Y-79821428D01*
X140252142Y-79892857D01*
X140323571Y-79821428D01*
X140252142Y-79750000D01*
X140252142Y-79892857D01*
X146823571Y-85707142D02*
X146609285Y-85778571D01*
X146252142Y-85778571D01*
X146109285Y-85707142D01*
X146037857Y-85635714D01*
X145966428Y-85492857D01*
X145966428Y-85350000D01*
X146037857Y-85207142D01*
X146109285Y-85135714D01*
X146252142Y-85064285D01*
X146537857Y-84992857D01*
X146680714Y-84921428D01*
X146752142Y-84850000D01*
X146823571Y-84707142D01*
X146823571Y-84564285D01*
X146752142Y-84421428D01*
X146680714Y-84350000D01*
X146537857Y-84278571D01*
X146180714Y-84278571D01*
X145966428Y-84350000D01*
X144752142Y-85707142D02*
X144895000Y-85778571D01*
X145180714Y-85778571D01*
X145323571Y-85707142D01*
X145395000Y-85564285D01*
X145395000Y-84992857D01*
X145323571Y-84850000D01*
X145180714Y-84778571D01*
X144895000Y-84778571D01*
X144752142Y-84850000D01*
X144680714Y-84992857D01*
X144680714Y-85135714D01*
X145395000Y-85278571D01*
X144037857Y-85778571D02*
X144037857Y-84778571D01*
X144037857Y-85064285D02*
X143966428Y-84921428D01*
X143895000Y-84850000D01*
X143752142Y-84778571D01*
X143609285Y-84778571D01*
X143109285Y-85778571D02*
X143109285Y-84778571D01*
X143109285Y-84278571D02*
X143180714Y-84350000D01*
X143109285Y-84421428D01*
X143037857Y-84350000D01*
X143109285Y-84278571D01*
X143109285Y-84421428D01*
X141752142Y-85778571D02*
X141752142Y-84992857D01*
X141823571Y-84850000D01*
X141966428Y-84778571D01*
X142252142Y-84778571D01*
X142395000Y-84850000D01*
X141752142Y-85707142D02*
X141895000Y-85778571D01*
X142252142Y-85778571D01*
X142395000Y-85707142D01*
X142466428Y-85564285D01*
X142466428Y-85421428D01*
X142395000Y-85278571D01*
X142252142Y-85207142D01*
X141895000Y-85207142D01*
X141752142Y-85135714D01*
X140823571Y-85778571D02*
X140966428Y-85707142D01*
X141037857Y-85564285D01*
X141037857Y-84278571D01*
X140252142Y-85635714D02*
X140180714Y-85707142D01*
X140252142Y-85778571D01*
X140323571Y-85707142D01*
X140252142Y-85635714D01*
X140252142Y-85778571D01*
X140252142Y-84850000D02*
X140180714Y-84921428D01*
X140252142Y-84992857D01*
X140323571Y-84921428D01*
X140252142Y-84850000D01*
X140252142Y-84992857D01*
M02*
