%TF.GenerationSoftware,KiCad,Pcbnew,5.1.9*%
%TF.CreationDate,2020-12-27T17:53:17+01:00*%
%TF.ProjectId,ROM_29F040_PLCC_v1.0,524f4d5f-3239-4463-9034-305f504c4343,1.0*%
%TF.SameCoordinates,Original*%
%TF.FileFunction,Soldermask,Top*%
%TF.FilePolarity,Negative*%
%FSLAX46Y46*%
G04 Gerber Fmt 4.6, Leading zero omitted, Abs format (unit mm)*
G04 Created by KiCad (PCBNEW 5.1.9) date 2020-12-27 17:53:17*
%MOMM*%
%LPD*%
G01*
G04 APERTURE LIST*
%ADD10C,1.422400*%
%ADD11R,1.422400X1.422400*%
%ADD12O,1.600000X1.600000*%
%ADD13C,1.600000*%
%ADD14C,2.800000*%
%ADD15O,1.700000X1.700000*%
%ADD16R,1.700000X1.700000*%
%ADD17C,1.800000*%
%ADD18R,1.800000X1.800000*%
G04 APERTURE END LIST*
D10*
%TO.C,U1*%
X117475000Y-89535000D03*
X120015000Y-89535000D03*
X122555000Y-89535000D03*
X125095000Y-89535000D03*
X120015000Y-92075000D03*
X122555000Y-92075000D03*
X125095000Y-92075000D03*
X127635000Y-92075000D03*
X130175000Y-92075000D03*
X130175000Y-94615000D03*
X130175000Y-97155000D03*
X130175000Y-99695000D03*
X127635000Y-89535000D03*
X127635000Y-94615000D03*
X127635000Y-97155000D03*
X127635000Y-99695000D03*
X127635000Y-102235000D03*
X125095000Y-102235000D03*
X122555000Y-102235000D03*
X120015000Y-102235000D03*
X117475000Y-102235000D03*
X125095000Y-99695000D03*
X122555000Y-99695000D03*
X120015000Y-99695000D03*
X117475000Y-99695000D03*
X114935000Y-92075000D03*
X114935000Y-94615000D03*
X114935000Y-99695000D03*
X114935000Y-97155000D03*
X117475000Y-92075000D03*
X117475000Y-97155000D03*
D11*
X117475000Y-94615000D03*
%TD*%
D12*
%TO.C,R2*%
X117475000Y-81915000D03*
D13*
X109855000Y-81915000D03*
%TD*%
%TO.C,C1*%
X109775000Y-94615000D03*
X104775000Y-94615000D03*
%TD*%
D14*
%TO.C,TP1*%
X71755000Y-81915000D03*
%TD*%
D12*
%TO.C,R1*%
X153035000Y-86995000D03*
D13*
X160655000Y-86995000D03*
%TD*%
D15*
%TO.C,J1*%
X97155000Y-125095000D03*
X97155000Y-122555000D03*
X99695000Y-125095000D03*
X99695000Y-122555000D03*
X102235000Y-125095000D03*
X102235000Y-122555000D03*
X104775000Y-125095000D03*
X104775000Y-122555000D03*
X107315000Y-125095000D03*
X107315000Y-122555000D03*
X109855000Y-125095000D03*
X109855000Y-122555000D03*
X112395000Y-125095000D03*
X112395000Y-122555000D03*
X114935000Y-125095000D03*
X114935000Y-122555000D03*
X117475000Y-125095000D03*
X117475000Y-122555000D03*
X120015000Y-125095000D03*
X120015000Y-122555000D03*
X122555000Y-125095000D03*
X122555000Y-122555000D03*
X125095000Y-125095000D03*
X125095000Y-122555000D03*
X127635000Y-125095000D03*
X127635000Y-122555000D03*
X130175000Y-125095000D03*
X130175000Y-122555000D03*
X132715000Y-125095000D03*
X132715000Y-122555000D03*
X135255000Y-125095000D03*
X135255000Y-122555000D03*
X137795000Y-125095000D03*
X137795000Y-122555000D03*
X140335000Y-125095000D03*
X140335000Y-122555000D03*
X142875000Y-125095000D03*
X142875000Y-122555000D03*
X145415000Y-125095000D03*
X145415000Y-122555000D03*
X147955000Y-125095000D03*
X147955000Y-122555000D03*
X150495000Y-125095000D03*
X150495000Y-122555000D03*
X153035000Y-125095000D03*
X153035000Y-122555000D03*
X155575000Y-125095000D03*
X155575000Y-122555000D03*
X158115000Y-125095000D03*
D16*
X158115000Y-122555000D03*
%TD*%
D17*
%TO.C,D1*%
X150495000Y-81915000D03*
D18*
X153035000Y-81915000D03*
%TD*%
M02*
