%TF.GenerationSoftware,KiCad,Pcbnew,5.1.9*%
%TF.CreationDate,2020-12-27T17:53:17+01:00*%
%TF.ProjectId,ROM_29F040_PLCC_v1.0,524f4d5f-3239-4463-9034-305f504c4343,1.0*%
%TF.SameCoordinates,Original*%
%TF.FileFunction,Legend,Top*%
%TF.FilePolarity,Positive*%
%FSLAX46Y46*%
G04 Gerber Fmt 4.6, Leading zero omitted, Abs format (unit mm)*
G04 Created by KiCad (PCBNEW 5.1.9) date 2020-12-27 17:53:17*
%MOMM*%
%LPD*%
G01*
G04 APERTURE LIST*
%ADD10C,0.200000*%
%ADD11C,0.150000*%
%ADD12C,0.120000*%
%ADD13C,0.010000*%
G04 APERTURE END LIST*
D10*
X119795714Y-80350000D02*
X120510000Y-80350000D01*
X119652857Y-80778571D02*
X120152857Y-79278571D01*
X120652857Y-80778571D01*
X121795714Y-80778571D02*
X121795714Y-79278571D01*
X121795714Y-80707142D02*
X121652857Y-80778571D01*
X121367142Y-80778571D01*
X121224285Y-80707142D01*
X121152857Y-80635714D01*
X121081428Y-80492857D01*
X121081428Y-80064285D01*
X121152857Y-79921428D01*
X121224285Y-79850000D01*
X121367142Y-79778571D01*
X121652857Y-79778571D01*
X121795714Y-79850000D01*
X122510000Y-80778571D02*
X122510000Y-79778571D01*
X122510000Y-80064285D02*
X122581428Y-79921428D01*
X122652857Y-79850000D01*
X122795714Y-79778571D01*
X122938571Y-79778571D01*
X123438571Y-80778571D02*
X123438571Y-79778571D01*
X123438571Y-79278571D02*
X123367142Y-79350000D01*
X123438571Y-79421428D01*
X123510000Y-79350000D01*
X123438571Y-79278571D01*
X123438571Y-79421428D01*
X124795714Y-80778571D02*
X124795714Y-79992857D01*
X124724285Y-79850000D01*
X124581428Y-79778571D01*
X124295714Y-79778571D01*
X124152857Y-79850000D01*
X124795714Y-80707142D02*
X124652857Y-80778571D01*
X124295714Y-80778571D01*
X124152857Y-80707142D01*
X124081428Y-80564285D01*
X124081428Y-80421428D01*
X124152857Y-80278571D01*
X124295714Y-80207142D01*
X124652857Y-80207142D01*
X124795714Y-80135714D01*
X126581428Y-79421428D02*
X126652857Y-79350000D01*
X126795714Y-79278571D01*
X127152857Y-79278571D01*
X127295714Y-79350000D01*
X127367142Y-79421428D01*
X127438571Y-79564285D01*
X127438571Y-79707142D01*
X127367142Y-79921428D01*
X126510000Y-80778571D01*
X127438571Y-80778571D01*
X128152857Y-80778571D02*
X128438571Y-80778571D01*
X128581428Y-80707142D01*
X128652857Y-80635714D01*
X128795714Y-80421428D01*
X128867142Y-80135714D01*
X128867142Y-79564285D01*
X128795714Y-79421428D01*
X128724285Y-79350000D01*
X128581428Y-79278571D01*
X128295714Y-79278571D01*
X128152857Y-79350000D01*
X128081428Y-79421428D01*
X128010000Y-79564285D01*
X128010000Y-79921428D01*
X128081428Y-80064285D01*
X128152857Y-80135714D01*
X128295714Y-80207142D01*
X128581428Y-80207142D01*
X128724285Y-80135714D01*
X128795714Y-80064285D01*
X128867142Y-79921428D01*
X130010000Y-79992857D02*
X129510000Y-79992857D01*
X129510000Y-80778571D02*
X129510000Y-79278571D01*
X130224285Y-79278571D01*
X131081428Y-79278571D02*
X131224285Y-79278571D01*
X131367142Y-79350000D01*
X131438571Y-79421428D01*
X131510000Y-79564285D01*
X131581428Y-79850000D01*
X131581428Y-80207142D01*
X131510000Y-80492857D01*
X131438571Y-80635714D01*
X131367142Y-80707142D01*
X131224285Y-80778571D01*
X131081428Y-80778571D01*
X130938571Y-80707142D01*
X130867142Y-80635714D01*
X130795714Y-80492857D01*
X130724285Y-80207142D01*
X130724285Y-79850000D01*
X130795714Y-79564285D01*
X130867142Y-79421428D01*
X130938571Y-79350000D01*
X131081428Y-79278571D01*
X132867142Y-79778571D02*
X132867142Y-80778571D01*
X132510000Y-79207142D02*
X132152857Y-80278571D01*
X133081428Y-80278571D01*
X133938571Y-79278571D02*
X134081428Y-79278571D01*
X134224285Y-79350000D01*
X134295714Y-79421428D01*
X134367142Y-79564285D01*
X134438571Y-79850000D01*
X134438571Y-80207142D01*
X134367142Y-80492857D01*
X134295714Y-80635714D01*
X134224285Y-80707142D01*
X134081428Y-80778571D01*
X133938571Y-80778571D01*
X133795714Y-80707142D01*
X133724285Y-80635714D01*
X133652857Y-80492857D01*
X133581428Y-80207142D01*
X133581428Y-79850000D01*
X133652857Y-79564285D01*
X133724285Y-79421428D01*
X133795714Y-79350000D01*
X133938571Y-79278571D01*
X137081428Y-80778571D02*
X136581428Y-80064285D01*
X136224285Y-80778571D02*
X136224285Y-79278571D01*
X136795714Y-79278571D01*
X136938571Y-79350000D01*
X137010000Y-79421428D01*
X137081428Y-79564285D01*
X137081428Y-79778571D01*
X137010000Y-79921428D01*
X136938571Y-79992857D01*
X136795714Y-80064285D01*
X136224285Y-80064285D01*
X138010000Y-79278571D02*
X138295714Y-79278571D01*
X138438571Y-79350000D01*
X138581428Y-79492857D01*
X138652857Y-79778571D01*
X138652857Y-80278571D01*
X138581428Y-80564285D01*
X138438571Y-80707142D01*
X138295714Y-80778571D01*
X138010000Y-80778571D01*
X137867142Y-80707142D01*
X137724285Y-80564285D01*
X137652857Y-80278571D01*
X137652857Y-79778571D01*
X137724285Y-79492857D01*
X137867142Y-79350000D01*
X138010000Y-79278571D01*
X139295714Y-80778571D02*
X139295714Y-79278571D01*
X139795714Y-80350000D01*
X140295714Y-79278571D01*
X140295714Y-80778571D01*
X142152857Y-80778571D02*
X142152857Y-79278571D01*
X142152857Y-79850000D02*
X142295714Y-79778571D01*
X142581428Y-79778571D01*
X142724285Y-79850000D01*
X142795714Y-79921428D01*
X142867142Y-80064285D01*
X142867142Y-80492857D01*
X142795714Y-80635714D01*
X142724285Y-80707142D01*
X142581428Y-80778571D01*
X142295714Y-80778571D01*
X142152857Y-80707142D01*
X143724285Y-80778571D02*
X143581428Y-80707142D01*
X143510000Y-80635714D01*
X143438571Y-80492857D01*
X143438571Y-80064285D01*
X143510000Y-79921428D01*
X143581428Y-79850000D01*
X143724285Y-79778571D01*
X143938571Y-79778571D01*
X144081428Y-79850000D01*
X144152857Y-79921428D01*
X144224285Y-80064285D01*
X144224285Y-80492857D01*
X144152857Y-80635714D01*
X144081428Y-80707142D01*
X143938571Y-80778571D01*
X143724285Y-80778571D01*
X145510000Y-80778571D02*
X145510000Y-79992857D01*
X145438571Y-79850000D01*
X145295714Y-79778571D01*
X145010000Y-79778571D01*
X144867142Y-79850000D01*
X145510000Y-80707142D02*
X145367142Y-80778571D01*
X145010000Y-80778571D01*
X144867142Y-80707142D01*
X144795714Y-80564285D01*
X144795714Y-80421428D01*
X144867142Y-80278571D01*
X145010000Y-80207142D01*
X145367142Y-80207142D01*
X145510000Y-80135714D01*
X146224285Y-80778571D02*
X146224285Y-79778571D01*
X146224285Y-80064285D02*
X146295714Y-79921428D01*
X146367142Y-79850000D01*
X146510000Y-79778571D01*
X146652857Y-79778571D01*
X147795714Y-80778571D02*
X147795714Y-79278571D01*
X147795714Y-80707142D02*
X147652857Y-80778571D01*
X147367142Y-80778571D01*
X147224285Y-80707142D01*
X147152857Y-80635714D01*
X147081428Y-80492857D01*
X147081428Y-80064285D01*
X147152857Y-79921428D01*
X147224285Y-79850000D01*
X147367142Y-79778571D01*
X147652857Y-79778571D01*
X147795714Y-79850000D01*
X119652857Y-81728571D02*
X120152857Y-83228571D01*
X120652857Y-81728571D01*
X121724285Y-83157142D02*
X121581428Y-83228571D01*
X121295714Y-83228571D01*
X121152857Y-83157142D01*
X121081428Y-83014285D01*
X121081428Y-82442857D01*
X121152857Y-82300000D01*
X121295714Y-82228571D01*
X121581428Y-82228571D01*
X121724285Y-82300000D01*
X121795714Y-82442857D01*
X121795714Y-82585714D01*
X121081428Y-82728571D01*
X122438571Y-83228571D02*
X122438571Y-82228571D01*
X122438571Y-82514285D02*
X122510000Y-82371428D01*
X122581428Y-82300000D01*
X122724285Y-82228571D01*
X122867142Y-82228571D01*
X123295714Y-83157142D02*
X123438571Y-83228571D01*
X123724285Y-83228571D01*
X123867142Y-83157142D01*
X123938571Y-83014285D01*
X123938571Y-82942857D01*
X123867142Y-82800000D01*
X123724285Y-82728571D01*
X123510000Y-82728571D01*
X123367142Y-82657142D01*
X123295714Y-82514285D01*
X123295714Y-82442857D01*
X123367142Y-82300000D01*
X123510000Y-82228571D01*
X123724285Y-82228571D01*
X123867142Y-82300000D01*
X124581428Y-83228571D02*
X124581428Y-82228571D01*
X124581428Y-81728571D02*
X124510000Y-81800000D01*
X124581428Y-81871428D01*
X124652857Y-81800000D01*
X124581428Y-81728571D01*
X124581428Y-81871428D01*
X125510000Y-83228571D02*
X125367142Y-83157142D01*
X125295714Y-83085714D01*
X125224285Y-82942857D01*
X125224285Y-82514285D01*
X125295714Y-82371428D01*
X125367142Y-82300000D01*
X125510000Y-82228571D01*
X125724285Y-82228571D01*
X125867142Y-82300000D01*
X125938571Y-82371428D01*
X126010000Y-82514285D01*
X126010000Y-82942857D01*
X125938571Y-83085714D01*
X125867142Y-83157142D01*
X125724285Y-83228571D01*
X125510000Y-83228571D01*
X126652857Y-82228571D02*
X126652857Y-83228571D01*
X126652857Y-82371428D02*
X126724285Y-82300000D01*
X126867142Y-82228571D01*
X127081428Y-82228571D01*
X127224285Y-82300000D01*
X127295714Y-82442857D01*
X127295714Y-83228571D01*
X129938571Y-83228571D02*
X129081428Y-83228571D01*
X129510000Y-83228571D02*
X129510000Y-81728571D01*
X129367142Y-81942857D01*
X129224285Y-82085714D01*
X129081428Y-82157142D01*
X130581428Y-83085714D02*
X130652857Y-83157142D01*
X130581428Y-83228571D01*
X130510000Y-83157142D01*
X130581428Y-83085714D01*
X130581428Y-83228571D01*
X131581428Y-81728571D02*
X131724285Y-81728571D01*
X131867142Y-81800000D01*
X131938571Y-81871428D01*
X132010000Y-82014285D01*
X132081428Y-82300000D01*
X132081428Y-82657142D01*
X132010000Y-82942857D01*
X131938571Y-83085714D01*
X131867142Y-83157142D01*
X131724285Y-83228571D01*
X131581428Y-83228571D01*
X131438571Y-83157142D01*
X131367142Y-83085714D01*
X131295714Y-82942857D01*
X131224285Y-82657142D01*
X131224285Y-82300000D01*
X131295714Y-82014285D01*
X131367142Y-81871428D01*
X131438571Y-81800000D01*
X131581428Y-81728571D01*
X119724285Y-84178571D02*
X120724285Y-85678571D01*
X120724285Y-84178571D02*
X119724285Y-85678571D01*
X121938571Y-85678571D02*
X121938571Y-84892857D01*
X121867142Y-84750000D01*
X121724285Y-84678571D01*
X121438571Y-84678571D01*
X121295714Y-84750000D01*
X121938571Y-85607142D02*
X121795714Y-85678571D01*
X121438571Y-85678571D01*
X121295714Y-85607142D01*
X121224285Y-85464285D01*
X121224285Y-85321428D01*
X121295714Y-85178571D01*
X121438571Y-85107142D01*
X121795714Y-85107142D01*
X121938571Y-85035714D01*
X122652857Y-84678571D02*
X122652857Y-85678571D01*
X122652857Y-84821428D02*
X122724285Y-84750000D01*
X122867142Y-84678571D01*
X123081428Y-84678571D01*
X123224285Y-84750000D01*
X123295714Y-84892857D01*
X123295714Y-85678571D01*
X124652857Y-85678571D02*
X124652857Y-84178571D01*
X124652857Y-85607142D02*
X124510000Y-85678571D01*
X124224285Y-85678571D01*
X124081428Y-85607142D01*
X124010000Y-85535714D01*
X123938571Y-85392857D01*
X123938571Y-84964285D01*
X124010000Y-84821428D01*
X124081428Y-84750000D01*
X124224285Y-84678571D01*
X124510000Y-84678571D01*
X124652857Y-84750000D01*
X125938571Y-85607142D02*
X125795714Y-85678571D01*
X125510000Y-85678571D01*
X125367142Y-85607142D01*
X125295714Y-85464285D01*
X125295714Y-84892857D01*
X125367142Y-84750000D01*
X125510000Y-84678571D01*
X125795714Y-84678571D01*
X125938571Y-84750000D01*
X126010000Y-84892857D01*
X126010000Y-85035714D01*
X125295714Y-85178571D01*
X126652857Y-85678571D02*
X126652857Y-84678571D01*
X126652857Y-84964285D02*
X126724285Y-84821428D01*
X126795714Y-84750000D01*
X126938571Y-84678571D01*
X127081428Y-84678571D01*
X128724285Y-85678571D02*
X128724285Y-84178571D01*
X129224285Y-85250000D01*
X129724285Y-84178571D01*
X129724285Y-85678571D01*
X131081428Y-85678571D02*
X131081428Y-84892857D01*
X131010000Y-84750000D01*
X130867142Y-84678571D01*
X130581428Y-84678571D01*
X130438571Y-84750000D01*
X131081428Y-85607142D02*
X130938571Y-85678571D01*
X130581428Y-85678571D01*
X130438571Y-85607142D01*
X130367142Y-85464285D01*
X130367142Y-85321428D01*
X130438571Y-85178571D01*
X130581428Y-85107142D01*
X130938571Y-85107142D01*
X131081428Y-85035714D01*
X132438571Y-85678571D02*
X132438571Y-84892857D01*
X132367142Y-84750000D01*
X132224285Y-84678571D01*
X131938571Y-84678571D01*
X131795714Y-84750000D01*
X132438571Y-85607142D02*
X132295714Y-85678571D01*
X131938571Y-85678571D01*
X131795714Y-85607142D01*
X131724285Y-85464285D01*
X131724285Y-85321428D01*
X131795714Y-85178571D01*
X131938571Y-85107142D01*
X132295714Y-85107142D01*
X132438571Y-85035714D01*
X133081428Y-85607142D02*
X133224285Y-85678571D01*
X133510000Y-85678571D01*
X133652857Y-85607142D01*
X133724285Y-85464285D01*
X133724285Y-85392857D01*
X133652857Y-85250000D01*
X133510000Y-85178571D01*
X133295714Y-85178571D01*
X133152857Y-85107142D01*
X133081428Y-84964285D01*
X133081428Y-84892857D01*
X133152857Y-84750000D01*
X133295714Y-84678571D01*
X133510000Y-84678571D01*
X133652857Y-84750000D01*
X134438571Y-85607142D02*
X134438571Y-85678571D01*
X134367142Y-85821428D01*
X134295714Y-85892857D01*
X136867142Y-85678571D02*
X136867142Y-84178571D01*
X136867142Y-85607142D02*
X136724285Y-85678571D01*
X136438571Y-85678571D01*
X136295714Y-85607142D01*
X136224285Y-85535714D01*
X136152857Y-85392857D01*
X136152857Y-84964285D01*
X136224285Y-84821428D01*
X136295714Y-84750000D01*
X136438571Y-84678571D01*
X136724285Y-84678571D01*
X136867142Y-84750000D01*
X138152857Y-85607142D02*
X138010000Y-85678571D01*
X137724285Y-85678571D01*
X137581428Y-85607142D01*
X137510000Y-85464285D01*
X137510000Y-84892857D01*
X137581428Y-84750000D01*
X137724285Y-84678571D01*
X138010000Y-84678571D01*
X138152857Y-84750000D01*
X138224285Y-84892857D01*
X138224285Y-85035714D01*
X137510000Y-85178571D01*
X139510000Y-85607142D02*
X139367142Y-85678571D01*
X139081428Y-85678571D01*
X138938571Y-85607142D01*
X138867142Y-85535714D01*
X138795714Y-85392857D01*
X138795714Y-84964285D01*
X138867142Y-84821428D01*
X138938571Y-84750000D01*
X139081428Y-84678571D01*
X139367142Y-84678571D01*
X139510000Y-84750000D01*
X141224285Y-84321428D02*
X141295714Y-84250000D01*
X141438571Y-84178571D01*
X141795714Y-84178571D01*
X141938571Y-84250000D01*
X142010000Y-84321428D01*
X142081428Y-84464285D01*
X142081428Y-84607142D01*
X142010000Y-84821428D01*
X141152857Y-85678571D01*
X142081428Y-85678571D01*
X143010000Y-84178571D02*
X143152857Y-84178571D01*
X143295714Y-84250000D01*
X143367142Y-84321428D01*
X143438571Y-84464285D01*
X143510000Y-84750000D01*
X143510000Y-85107142D01*
X143438571Y-85392857D01*
X143367142Y-85535714D01*
X143295714Y-85607142D01*
X143152857Y-85678571D01*
X143010000Y-85678571D01*
X142867142Y-85607142D01*
X142795714Y-85535714D01*
X142724285Y-85392857D01*
X142652857Y-85107142D01*
X142652857Y-84750000D01*
X142724285Y-84464285D01*
X142795714Y-84321428D01*
X142867142Y-84250000D01*
X143010000Y-84178571D01*
X144081428Y-84321428D02*
X144152857Y-84250000D01*
X144295714Y-84178571D01*
X144652857Y-84178571D01*
X144795714Y-84250000D01*
X144867142Y-84321428D01*
X144938571Y-84464285D01*
X144938571Y-84607142D01*
X144867142Y-84821428D01*
X144010000Y-85678571D01*
X144938571Y-85678571D01*
X145867142Y-84178571D02*
X146010000Y-84178571D01*
X146152857Y-84250000D01*
X146224285Y-84321428D01*
X146295714Y-84464285D01*
X146367142Y-84750000D01*
X146367142Y-85107142D01*
X146295714Y-85392857D01*
X146224285Y-85535714D01*
X146152857Y-85607142D01*
X146010000Y-85678571D01*
X145867142Y-85678571D01*
X145724285Y-85607142D01*
X145652857Y-85535714D01*
X145581428Y-85392857D01*
X145510000Y-85107142D01*
X145510000Y-84750000D01*
X145581428Y-84464285D01*
X145652857Y-84321428D01*
X145724285Y-84250000D01*
X145867142Y-84178571D01*
D11*
X203497380Y-106314047D02*
X203497380Y-106790238D01*
X203973571Y-106837857D01*
X203925952Y-106790238D01*
X203878333Y-106695000D01*
X203878333Y-106456904D01*
X203925952Y-106361666D01*
X203973571Y-106314047D01*
X204068809Y-106266428D01*
X204306904Y-106266428D01*
X204402142Y-106314047D01*
X204449761Y-106361666D01*
X204497380Y-106456904D01*
X204497380Y-106695000D01*
X204449761Y-106790238D01*
X204402142Y-106837857D01*
X203497380Y-105647380D02*
X203497380Y-105552142D01*
X203545000Y-105456904D01*
X203592619Y-105409285D01*
X203687857Y-105361666D01*
X203878333Y-105314047D01*
X204116428Y-105314047D01*
X204306904Y-105361666D01*
X204402142Y-105409285D01*
X204449761Y-105456904D01*
X204497380Y-105552142D01*
X204497380Y-105647380D01*
X204449761Y-105742619D01*
X204402142Y-105790238D01*
X204306904Y-105837857D01*
X204116428Y-105885476D01*
X203878333Y-105885476D01*
X203687857Y-105837857D01*
X203592619Y-105790238D01*
X203545000Y-105742619D01*
X203497380Y-105647380D01*
X204402142Y-104885476D02*
X204449761Y-104837857D01*
X204497380Y-104885476D01*
X204449761Y-104933095D01*
X204402142Y-104885476D01*
X204497380Y-104885476D01*
X203497380Y-104218809D02*
X203497380Y-104123571D01*
X203545000Y-104028333D01*
X203592619Y-103980714D01*
X203687857Y-103933095D01*
X203878333Y-103885476D01*
X204116428Y-103885476D01*
X204306904Y-103933095D01*
X204402142Y-103980714D01*
X204449761Y-104028333D01*
X204497380Y-104123571D01*
X204497380Y-104218809D01*
X204449761Y-104314047D01*
X204402142Y-104361666D01*
X204306904Y-104409285D01*
X204116428Y-104456904D01*
X203878333Y-104456904D01*
X203687857Y-104409285D01*
X203592619Y-104361666D01*
X203545000Y-104314047D01*
X203497380Y-104218809D01*
X203497380Y-103266428D02*
X203497380Y-103171190D01*
X203545000Y-103075952D01*
X203592619Y-103028333D01*
X203687857Y-102980714D01*
X203878333Y-102933095D01*
X204116428Y-102933095D01*
X204306904Y-102980714D01*
X204402142Y-103028333D01*
X204449761Y-103075952D01*
X204497380Y-103171190D01*
X204497380Y-103266428D01*
X204449761Y-103361666D01*
X204402142Y-103409285D01*
X204306904Y-103456904D01*
X204116428Y-103504523D01*
X203878333Y-103504523D01*
X203687857Y-103456904D01*
X203592619Y-103409285D01*
X203545000Y-103361666D01*
X203497380Y-103266428D01*
X203497380Y-102314047D02*
X203497380Y-102218809D01*
X203545000Y-102123571D01*
X203592619Y-102075952D01*
X203687857Y-102028333D01*
X203878333Y-101980714D01*
X204116428Y-101980714D01*
X204306904Y-102028333D01*
X204402142Y-102075952D01*
X204449761Y-102123571D01*
X204497380Y-102218809D01*
X204497380Y-102314047D01*
X204449761Y-102409285D01*
X204402142Y-102456904D01*
X204306904Y-102504523D01*
X204116428Y-102552142D01*
X203878333Y-102552142D01*
X203687857Y-102504523D01*
X203592619Y-102456904D01*
X203545000Y-102409285D01*
X203497380Y-102314047D01*
X204497380Y-100790238D02*
X203830714Y-100790238D01*
X203925952Y-100790238D02*
X203878333Y-100742619D01*
X203830714Y-100647380D01*
X203830714Y-100504523D01*
X203878333Y-100409285D01*
X203973571Y-100361666D01*
X204497380Y-100361666D01*
X203973571Y-100361666D02*
X203878333Y-100314047D01*
X203830714Y-100218809D01*
X203830714Y-100075952D01*
X203878333Y-99980714D01*
X203973571Y-99933095D01*
X204497380Y-99933095D01*
X204497380Y-99456904D02*
X203830714Y-99456904D01*
X203925952Y-99456904D02*
X203878333Y-99409285D01*
X203830714Y-99314047D01*
X203830714Y-99171190D01*
X203878333Y-99075952D01*
X203973571Y-99028333D01*
X204497380Y-99028333D01*
X203973571Y-99028333D02*
X203878333Y-98980714D01*
X203830714Y-98885476D01*
X203830714Y-98742619D01*
X203878333Y-98647380D01*
X203973571Y-98599761D01*
X204497380Y-98599761D01*
D12*
X202775000Y-127695000D02*
X202775000Y-77695000D01*
X157775000Y-127695000D02*
X203361421Y-127695000D01*
X157775000Y-77695000D02*
X203361421Y-77695000D01*
X202775000Y-77695000D02*
X203361421Y-78821504D01*
X202775000Y-77695000D02*
X202188579Y-78821504D01*
X202775000Y-127695000D02*
X203361421Y-126568496D01*
X202775000Y-127695000D02*
X202188579Y-126568496D01*
D11*
X111227380Y-144417380D02*
X111417857Y-144417380D01*
X111513095Y-144369761D01*
X111560714Y-144322142D01*
X111655952Y-144179285D01*
X111703571Y-143988809D01*
X111703571Y-143607857D01*
X111655952Y-143512619D01*
X111608333Y-143465000D01*
X111513095Y-143417380D01*
X111322619Y-143417380D01*
X111227380Y-143465000D01*
X111179761Y-143512619D01*
X111132142Y-143607857D01*
X111132142Y-143845952D01*
X111179761Y-143941190D01*
X111227380Y-143988809D01*
X111322619Y-144036428D01*
X111513095Y-144036428D01*
X111608333Y-143988809D01*
X111655952Y-143941190D01*
X111703571Y-143845952D01*
X112608333Y-143417380D02*
X112132142Y-143417380D01*
X112084523Y-143893571D01*
X112132142Y-143845952D01*
X112227380Y-143798333D01*
X112465476Y-143798333D01*
X112560714Y-143845952D01*
X112608333Y-143893571D01*
X112655952Y-143988809D01*
X112655952Y-144226904D01*
X112608333Y-144322142D01*
X112560714Y-144369761D01*
X112465476Y-144417380D01*
X112227380Y-144417380D01*
X112132142Y-144369761D01*
X112084523Y-144322142D01*
X113084523Y-144322142D02*
X113132142Y-144369761D01*
X113084523Y-144417380D01*
X113036904Y-144369761D01*
X113084523Y-144322142D01*
X113084523Y-144417380D01*
X113751190Y-143417380D02*
X113846428Y-143417380D01*
X113941666Y-143465000D01*
X113989285Y-143512619D01*
X114036904Y-143607857D01*
X114084523Y-143798333D01*
X114084523Y-144036428D01*
X114036904Y-144226904D01*
X113989285Y-144322142D01*
X113941666Y-144369761D01*
X113846428Y-144417380D01*
X113751190Y-144417380D01*
X113655952Y-144369761D01*
X113608333Y-144322142D01*
X113560714Y-144226904D01*
X113513095Y-144036428D01*
X113513095Y-143798333D01*
X113560714Y-143607857D01*
X113608333Y-143512619D01*
X113655952Y-143465000D01*
X113751190Y-143417380D01*
X114703571Y-143417380D02*
X114798809Y-143417380D01*
X114894047Y-143465000D01*
X114941666Y-143512619D01*
X114989285Y-143607857D01*
X115036904Y-143798333D01*
X115036904Y-144036428D01*
X114989285Y-144226904D01*
X114941666Y-144322142D01*
X114894047Y-144369761D01*
X114798809Y-144417380D01*
X114703571Y-144417380D01*
X114608333Y-144369761D01*
X114560714Y-144322142D01*
X114513095Y-144226904D01*
X114465476Y-144036428D01*
X114465476Y-143798333D01*
X114513095Y-143607857D01*
X114560714Y-143512619D01*
X114608333Y-143465000D01*
X114703571Y-143417380D01*
X115655952Y-143417380D02*
X115751190Y-143417380D01*
X115846428Y-143465000D01*
X115894047Y-143512619D01*
X115941666Y-143607857D01*
X115989285Y-143798333D01*
X115989285Y-144036428D01*
X115941666Y-144226904D01*
X115894047Y-144322142D01*
X115846428Y-144369761D01*
X115751190Y-144417380D01*
X115655952Y-144417380D01*
X115560714Y-144369761D01*
X115513095Y-144322142D01*
X115465476Y-144226904D01*
X115417857Y-144036428D01*
X115417857Y-143798333D01*
X115465476Y-143607857D01*
X115513095Y-143512619D01*
X115560714Y-143465000D01*
X115655952Y-143417380D01*
X117179761Y-144417380D02*
X117179761Y-143750714D01*
X117179761Y-143845952D02*
X117227380Y-143798333D01*
X117322619Y-143750714D01*
X117465476Y-143750714D01*
X117560714Y-143798333D01*
X117608333Y-143893571D01*
X117608333Y-144417380D01*
X117608333Y-143893571D02*
X117655952Y-143798333D01*
X117751190Y-143750714D01*
X117894047Y-143750714D01*
X117989285Y-143798333D01*
X118036904Y-143893571D01*
X118036904Y-144417380D01*
X118513095Y-144417380D02*
X118513095Y-143750714D01*
X118513095Y-143845952D02*
X118560714Y-143798333D01*
X118655952Y-143750714D01*
X118798809Y-143750714D01*
X118894047Y-143798333D01*
X118941666Y-143893571D01*
X118941666Y-144417380D01*
X118941666Y-143893571D02*
X118989285Y-143798333D01*
X119084523Y-143750714D01*
X119227380Y-143750714D01*
X119322619Y-143798333D01*
X119370238Y-143893571D01*
X119370238Y-144417380D01*
D12*
X67775000Y-142695000D02*
X162775000Y-142695000D01*
X67775000Y-122695000D02*
X67775000Y-143281421D01*
X162775000Y-122695000D02*
X162775000Y-143281421D01*
X162775000Y-142695000D02*
X161648496Y-143281421D01*
X162775000Y-142695000D02*
X161648496Y-142108579D01*
X67775000Y-142695000D02*
X68901504Y-143281421D01*
X67775000Y-142695000D02*
X68901504Y-142108579D01*
D13*
%TO.C,REF\u002A\u002A*%
G36*
X92813910Y-88682348D02*
G01*
X92892454Y-88682778D01*
X92949298Y-88683942D01*
X92988105Y-88686207D01*
X93012538Y-88689940D01*
X93026262Y-88695506D01*
X93032940Y-88703273D01*
X93036236Y-88713605D01*
X93036556Y-88714943D01*
X93041562Y-88739079D01*
X93050829Y-88786701D01*
X93063392Y-88852741D01*
X93078287Y-88932128D01*
X93094551Y-89019796D01*
X93095119Y-89022875D01*
X93111410Y-89108789D01*
X93126652Y-89184696D01*
X93139861Y-89246045D01*
X93150054Y-89288282D01*
X93156248Y-89306855D01*
X93156543Y-89307184D01*
X93174788Y-89316253D01*
X93212405Y-89331367D01*
X93261271Y-89349262D01*
X93261543Y-89349358D01*
X93323093Y-89372493D01*
X93395657Y-89401965D01*
X93464057Y-89431597D01*
X93467294Y-89433062D01*
X93578702Y-89483626D01*
X93825399Y-89315160D01*
X93901077Y-89263803D01*
X93969631Y-89217889D01*
X94027088Y-89180030D01*
X94069476Y-89152837D01*
X94092825Y-89138921D01*
X94095042Y-89137889D01*
X94112010Y-89142484D01*
X94143701Y-89164655D01*
X94191352Y-89205447D01*
X94256198Y-89265905D01*
X94322397Y-89330227D01*
X94386214Y-89393612D01*
X94443329Y-89451451D01*
X94490305Y-89500175D01*
X94523703Y-89536210D01*
X94540085Y-89555984D01*
X94540694Y-89557002D01*
X94542505Y-89570572D01*
X94535683Y-89592733D01*
X94518540Y-89626478D01*
X94489393Y-89674800D01*
X94446555Y-89740692D01*
X94389448Y-89825517D01*
X94338766Y-89900177D01*
X94293461Y-89967140D01*
X94256150Y-90022516D01*
X94229452Y-90062420D01*
X94215985Y-90082962D01*
X94215137Y-90084356D01*
X94216781Y-90104038D01*
X94229245Y-90142293D01*
X94250048Y-90191889D01*
X94257462Y-90207728D01*
X94289814Y-90278290D01*
X94324328Y-90358353D01*
X94352365Y-90427629D01*
X94372568Y-90479045D01*
X94388615Y-90518119D01*
X94397888Y-90538541D01*
X94399041Y-90540114D01*
X94416096Y-90542721D01*
X94456298Y-90549863D01*
X94514302Y-90560523D01*
X94584763Y-90573685D01*
X94662335Y-90588333D01*
X94741672Y-90603449D01*
X94817431Y-90618018D01*
X94884264Y-90631022D01*
X94936828Y-90641445D01*
X94969776Y-90648270D01*
X94977857Y-90650199D01*
X94986205Y-90654962D01*
X94992506Y-90665718D01*
X94997045Y-90686098D01*
X95000104Y-90719734D01*
X95001967Y-90770255D01*
X95002918Y-90841292D01*
X95003240Y-90936476D01*
X95003257Y-90975492D01*
X95003257Y-91292799D01*
X94927057Y-91307839D01*
X94884663Y-91315995D01*
X94821400Y-91327899D01*
X94744962Y-91342116D01*
X94663043Y-91357210D01*
X94640400Y-91361355D01*
X94564806Y-91376053D01*
X94498953Y-91390505D01*
X94448366Y-91403375D01*
X94418574Y-91413322D01*
X94413612Y-91416287D01*
X94401426Y-91437283D01*
X94383953Y-91477967D01*
X94364577Y-91530322D01*
X94360734Y-91541600D01*
X94335339Y-91611523D01*
X94303817Y-91690418D01*
X94272969Y-91761266D01*
X94272817Y-91761595D01*
X94221447Y-91872733D01*
X94390399Y-92121253D01*
X94559352Y-92369772D01*
X94342429Y-92587058D01*
X94276819Y-92651726D01*
X94216979Y-92708733D01*
X94166267Y-92755033D01*
X94128046Y-92787584D01*
X94105675Y-92803343D01*
X94102466Y-92804343D01*
X94083626Y-92796469D01*
X94045180Y-92774578D01*
X93991330Y-92741267D01*
X93926276Y-92699131D01*
X93855940Y-92651943D01*
X93784555Y-92603810D01*
X93720908Y-92561928D01*
X93669041Y-92528871D01*
X93632995Y-92507218D01*
X93616867Y-92499543D01*
X93597189Y-92506037D01*
X93559875Y-92523150D01*
X93512621Y-92547326D01*
X93507612Y-92550013D01*
X93443977Y-92581927D01*
X93400341Y-92597579D01*
X93373202Y-92597745D01*
X93359057Y-92583204D01*
X93358975Y-92583000D01*
X93351905Y-92565779D01*
X93335042Y-92524899D01*
X93309695Y-92463525D01*
X93277171Y-92384819D01*
X93238778Y-92291947D01*
X93195822Y-92188072D01*
X93154222Y-92087502D01*
X93108504Y-91976516D01*
X93066526Y-91873703D01*
X93029548Y-91782215D01*
X92998827Y-91705201D01*
X92975622Y-91645815D01*
X92961190Y-91607209D01*
X92956743Y-91592800D01*
X92967896Y-91576272D01*
X92997069Y-91549930D01*
X93035971Y-91520887D01*
X93146757Y-91429039D01*
X93233351Y-91323759D01*
X93294716Y-91207266D01*
X93329815Y-91081776D01*
X93337608Y-90949507D01*
X93331943Y-90888457D01*
X93301078Y-90761795D01*
X93247920Y-90649941D01*
X93175767Y-90554001D01*
X93087917Y-90475076D01*
X92987665Y-90414270D01*
X92878310Y-90372687D01*
X92763147Y-90351428D01*
X92645475Y-90351599D01*
X92528590Y-90374301D01*
X92415789Y-90420638D01*
X92310369Y-90491713D01*
X92266368Y-90531911D01*
X92181979Y-90635129D01*
X92123222Y-90747925D01*
X92089704Y-90867010D01*
X92081035Y-90989095D01*
X92096823Y-91110893D01*
X92136678Y-91229116D01*
X92200207Y-91340475D01*
X92287021Y-91441684D01*
X92384029Y-91520887D01*
X92424437Y-91551162D01*
X92452982Y-91577219D01*
X92463257Y-91592825D01*
X92457877Y-91609843D01*
X92442575Y-91650500D01*
X92418612Y-91711642D01*
X92387244Y-91790119D01*
X92349732Y-91882780D01*
X92307333Y-91986472D01*
X92265663Y-92087526D01*
X92219690Y-92198607D01*
X92177107Y-92301541D01*
X92139221Y-92393165D01*
X92107340Y-92470316D01*
X92082771Y-92529831D01*
X92066820Y-92568544D01*
X92060910Y-92583000D01*
X92046948Y-92597685D01*
X92019940Y-92597642D01*
X91976413Y-92582099D01*
X91912890Y-92550284D01*
X91912388Y-92550013D01*
X91864560Y-92525323D01*
X91825897Y-92507338D01*
X91804095Y-92499614D01*
X91803133Y-92499543D01*
X91786721Y-92507378D01*
X91750487Y-92529165D01*
X91698474Y-92562328D01*
X91634725Y-92604291D01*
X91564060Y-92651943D01*
X91492116Y-92700191D01*
X91427274Y-92742151D01*
X91373735Y-92775227D01*
X91335697Y-92796821D01*
X91317533Y-92804343D01*
X91300808Y-92794457D01*
X91267180Y-92766826D01*
X91220010Y-92724495D01*
X91162658Y-92670505D01*
X91098484Y-92607899D01*
X91077497Y-92586983D01*
X90860499Y-92369623D01*
X91025668Y-92127220D01*
X91075864Y-92052781D01*
X91119919Y-91985972D01*
X91155362Y-91930665D01*
X91179719Y-91890729D01*
X91190522Y-91870036D01*
X91190838Y-91868563D01*
X91185143Y-91849058D01*
X91169826Y-91809822D01*
X91147537Y-91757430D01*
X91131893Y-91722355D01*
X91102641Y-91655201D01*
X91075094Y-91587358D01*
X91053737Y-91530034D01*
X91047935Y-91512572D01*
X91031452Y-91465938D01*
X91015340Y-91429905D01*
X91006490Y-91416287D01*
X90986960Y-91407952D01*
X90944334Y-91396137D01*
X90884145Y-91382181D01*
X90811922Y-91367422D01*
X90779600Y-91361355D01*
X90697522Y-91346273D01*
X90618795Y-91331669D01*
X90551109Y-91318980D01*
X90502160Y-91309642D01*
X90492943Y-91307839D01*
X90416743Y-91292799D01*
X90416743Y-90975492D01*
X90416914Y-90871154D01*
X90417616Y-90792213D01*
X90419134Y-90735038D01*
X90421749Y-90695999D01*
X90425746Y-90671465D01*
X90431409Y-90657805D01*
X90439020Y-90651389D01*
X90442143Y-90650199D01*
X90460978Y-90645980D01*
X90502588Y-90637562D01*
X90561630Y-90625961D01*
X90632757Y-90612195D01*
X90710625Y-90597280D01*
X90789887Y-90582232D01*
X90865198Y-90568069D01*
X90931213Y-90555806D01*
X90982587Y-90546461D01*
X91013975Y-90541050D01*
X91020959Y-90540114D01*
X91027285Y-90527596D01*
X91041290Y-90494246D01*
X91060355Y-90446377D01*
X91067634Y-90427629D01*
X91096996Y-90355195D01*
X91131571Y-90275170D01*
X91162537Y-90207728D01*
X91185323Y-90156159D01*
X91200482Y-90113785D01*
X91205542Y-90087834D01*
X91204736Y-90084356D01*
X91194041Y-90067936D01*
X91169620Y-90031417D01*
X91134095Y-89978687D01*
X91090087Y-89913635D01*
X91040217Y-89840151D01*
X91030356Y-89825645D01*
X90972492Y-89739704D01*
X90929956Y-89674261D01*
X90901054Y-89626304D01*
X90884090Y-89592820D01*
X90877367Y-89570795D01*
X90879190Y-89557217D01*
X90879236Y-89557131D01*
X90893586Y-89539297D01*
X90925323Y-89504817D01*
X90971010Y-89457268D01*
X91027204Y-89400222D01*
X91090468Y-89337255D01*
X91097602Y-89330227D01*
X91177330Y-89253020D01*
X91238857Y-89196330D01*
X91283421Y-89159110D01*
X91312257Y-89140315D01*
X91324958Y-89137889D01*
X91343494Y-89148471D01*
X91381961Y-89172916D01*
X91436386Y-89208612D01*
X91502798Y-89252947D01*
X91577225Y-89303311D01*
X91594601Y-89315160D01*
X91841297Y-89483626D01*
X91952706Y-89433062D01*
X92020457Y-89403595D01*
X92093183Y-89373959D01*
X92155703Y-89350330D01*
X92158457Y-89349358D01*
X92207360Y-89331457D01*
X92245057Y-89316320D01*
X92263425Y-89307210D01*
X92263456Y-89307184D01*
X92269285Y-89290717D01*
X92279192Y-89250219D01*
X92292195Y-89190242D01*
X92307309Y-89115340D01*
X92323552Y-89030064D01*
X92324881Y-89022875D01*
X92341175Y-88935014D01*
X92356133Y-88855260D01*
X92368791Y-88788681D01*
X92378186Y-88740347D01*
X92383354Y-88715325D01*
X92383444Y-88714943D01*
X92386589Y-88704299D01*
X92392704Y-88696262D01*
X92405453Y-88690467D01*
X92428500Y-88686547D01*
X92465509Y-88684135D01*
X92520144Y-88682865D01*
X92596067Y-88682371D01*
X92696944Y-88682286D01*
X92710000Y-88682286D01*
X92813910Y-88682348D01*
G37*
X92813910Y-88682348D02*
X92892454Y-88682778D01*
X92949298Y-88683942D01*
X92988105Y-88686207D01*
X93012538Y-88689940D01*
X93026262Y-88695506D01*
X93032940Y-88703273D01*
X93036236Y-88713605D01*
X93036556Y-88714943D01*
X93041562Y-88739079D01*
X93050829Y-88786701D01*
X93063392Y-88852741D01*
X93078287Y-88932128D01*
X93094551Y-89019796D01*
X93095119Y-89022875D01*
X93111410Y-89108789D01*
X93126652Y-89184696D01*
X93139861Y-89246045D01*
X93150054Y-89288282D01*
X93156248Y-89306855D01*
X93156543Y-89307184D01*
X93174788Y-89316253D01*
X93212405Y-89331367D01*
X93261271Y-89349262D01*
X93261543Y-89349358D01*
X93323093Y-89372493D01*
X93395657Y-89401965D01*
X93464057Y-89431597D01*
X93467294Y-89433062D01*
X93578702Y-89483626D01*
X93825399Y-89315160D01*
X93901077Y-89263803D01*
X93969631Y-89217889D01*
X94027088Y-89180030D01*
X94069476Y-89152837D01*
X94092825Y-89138921D01*
X94095042Y-89137889D01*
X94112010Y-89142484D01*
X94143701Y-89164655D01*
X94191352Y-89205447D01*
X94256198Y-89265905D01*
X94322397Y-89330227D01*
X94386214Y-89393612D01*
X94443329Y-89451451D01*
X94490305Y-89500175D01*
X94523703Y-89536210D01*
X94540085Y-89555984D01*
X94540694Y-89557002D01*
X94542505Y-89570572D01*
X94535683Y-89592733D01*
X94518540Y-89626478D01*
X94489393Y-89674800D01*
X94446555Y-89740692D01*
X94389448Y-89825517D01*
X94338766Y-89900177D01*
X94293461Y-89967140D01*
X94256150Y-90022516D01*
X94229452Y-90062420D01*
X94215985Y-90082962D01*
X94215137Y-90084356D01*
X94216781Y-90104038D01*
X94229245Y-90142293D01*
X94250048Y-90191889D01*
X94257462Y-90207728D01*
X94289814Y-90278290D01*
X94324328Y-90358353D01*
X94352365Y-90427629D01*
X94372568Y-90479045D01*
X94388615Y-90518119D01*
X94397888Y-90538541D01*
X94399041Y-90540114D01*
X94416096Y-90542721D01*
X94456298Y-90549863D01*
X94514302Y-90560523D01*
X94584763Y-90573685D01*
X94662335Y-90588333D01*
X94741672Y-90603449D01*
X94817431Y-90618018D01*
X94884264Y-90631022D01*
X94936828Y-90641445D01*
X94969776Y-90648270D01*
X94977857Y-90650199D01*
X94986205Y-90654962D01*
X94992506Y-90665718D01*
X94997045Y-90686098D01*
X95000104Y-90719734D01*
X95001967Y-90770255D01*
X95002918Y-90841292D01*
X95003240Y-90936476D01*
X95003257Y-90975492D01*
X95003257Y-91292799D01*
X94927057Y-91307839D01*
X94884663Y-91315995D01*
X94821400Y-91327899D01*
X94744962Y-91342116D01*
X94663043Y-91357210D01*
X94640400Y-91361355D01*
X94564806Y-91376053D01*
X94498953Y-91390505D01*
X94448366Y-91403375D01*
X94418574Y-91413322D01*
X94413612Y-91416287D01*
X94401426Y-91437283D01*
X94383953Y-91477967D01*
X94364577Y-91530322D01*
X94360734Y-91541600D01*
X94335339Y-91611523D01*
X94303817Y-91690418D01*
X94272969Y-91761266D01*
X94272817Y-91761595D01*
X94221447Y-91872733D01*
X94390399Y-92121253D01*
X94559352Y-92369772D01*
X94342429Y-92587058D01*
X94276819Y-92651726D01*
X94216979Y-92708733D01*
X94166267Y-92755033D01*
X94128046Y-92787584D01*
X94105675Y-92803343D01*
X94102466Y-92804343D01*
X94083626Y-92796469D01*
X94045180Y-92774578D01*
X93991330Y-92741267D01*
X93926276Y-92699131D01*
X93855940Y-92651943D01*
X93784555Y-92603810D01*
X93720908Y-92561928D01*
X93669041Y-92528871D01*
X93632995Y-92507218D01*
X93616867Y-92499543D01*
X93597189Y-92506037D01*
X93559875Y-92523150D01*
X93512621Y-92547326D01*
X93507612Y-92550013D01*
X93443977Y-92581927D01*
X93400341Y-92597579D01*
X93373202Y-92597745D01*
X93359057Y-92583204D01*
X93358975Y-92583000D01*
X93351905Y-92565779D01*
X93335042Y-92524899D01*
X93309695Y-92463525D01*
X93277171Y-92384819D01*
X93238778Y-92291947D01*
X93195822Y-92188072D01*
X93154222Y-92087502D01*
X93108504Y-91976516D01*
X93066526Y-91873703D01*
X93029548Y-91782215D01*
X92998827Y-91705201D01*
X92975622Y-91645815D01*
X92961190Y-91607209D01*
X92956743Y-91592800D01*
X92967896Y-91576272D01*
X92997069Y-91549930D01*
X93035971Y-91520887D01*
X93146757Y-91429039D01*
X93233351Y-91323759D01*
X93294716Y-91207266D01*
X93329815Y-91081776D01*
X93337608Y-90949507D01*
X93331943Y-90888457D01*
X93301078Y-90761795D01*
X93247920Y-90649941D01*
X93175767Y-90554001D01*
X93087917Y-90475076D01*
X92987665Y-90414270D01*
X92878310Y-90372687D01*
X92763147Y-90351428D01*
X92645475Y-90351599D01*
X92528590Y-90374301D01*
X92415789Y-90420638D01*
X92310369Y-90491713D01*
X92266368Y-90531911D01*
X92181979Y-90635129D01*
X92123222Y-90747925D01*
X92089704Y-90867010D01*
X92081035Y-90989095D01*
X92096823Y-91110893D01*
X92136678Y-91229116D01*
X92200207Y-91340475D01*
X92287021Y-91441684D01*
X92384029Y-91520887D01*
X92424437Y-91551162D01*
X92452982Y-91577219D01*
X92463257Y-91592825D01*
X92457877Y-91609843D01*
X92442575Y-91650500D01*
X92418612Y-91711642D01*
X92387244Y-91790119D01*
X92349732Y-91882780D01*
X92307333Y-91986472D01*
X92265663Y-92087526D01*
X92219690Y-92198607D01*
X92177107Y-92301541D01*
X92139221Y-92393165D01*
X92107340Y-92470316D01*
X92082771Y-92529831D01*
X92066820Y-92568544D01*
X92060910Y-92583000D01*
X92046948Y-92597685D01*
X92019940Y-92597642D01*
X91976413Y-92582099D01*
X91912890Y-92550284D01*
X91912388Y-92550013D01*
X91864560Y-92525323D01*
X91825897Y-92507338D01*
X91804095Y-92499614D01*
X91803133Y-92499543D01*
X91786721Y-92507378D01*
X91750487Y-92529165D01*
X91698474Y-92562328D01*
X91634725Y-92604291D01*
X91564060Y-92651943D01*
X91492116Y-92700191D01*
X91427274Y-92742151D01*
X91373735Y-92775227D01*
X91335697Y-92796821D01*
X91317533Y-92804343D01*
X91300808Y-92794457D01*
X91267180Y-92766826D01*
X91220010Y-92724495D01*
X91162658Y-92670505D01*
X91098484Y-92607899D01*
X91077497Y-92586983D01*
X90860499Y-92369623D01*
X91025668Y-92127220D01*
X91075864Y-92052781D01*
X91119919Y-91985972D01*
X91155362Y-91930665D01*
X91179719Y-91890729D01*
X91190522Y-91870036D01*
X91190838Y-91868563D01*
X91185143Y-91849058D01*
X91169826Y-91809822D01*
X91147537Y-91757430D01*
X91131893Y-91722355D01*
X91102641Y-91655201D01*
X91075094Y-91587358D01*
X91053737Y-91530034D01*
X91047935Y-91512572D01*
X91031452Y-91465938D01*
X91015340Y-91429905D01*
X91006490Y-91416287D01*
X90986960Y-91407952D01*
X90944334Y-91396137D01*
X90884145Y-91382181D01*
X90811922Y-91367422D01*
X90779600Y-91361355D01*
X90697522Y-91346273D01*
X90618795Y-91331669D01*
X90551109Y-91318980D01*
X90502160Y-91309642D01*
X90492943Y-91307839D01*
X90416743Y-91292799D01*
X90416743Y-90975492D01*
X90416914Y-90871154D01*
X90417616Y-90792213D01*
X90419134Y-90735038D01*
X90421749Y-90695999D01*
X90425746Y-90671465D01*
X90431409Y-90657805D01*
X90439020Y-90651389D01*
X90442143Y-90650199D01*
X90460978Y-90645980D01*
X90502588Y-90637562D01*
X90561630Y-90625961D01*
X90632757Y-90612195D01*
X90710625Y-90597280D01*
X90789887Y-90582232D01*
X90865198Y-90568069D01*
X90931213Y-90555806D01*
X90982587Y-90546461D01*
X91013975Y-90541050D01*
X91020959Y-90540114D01*
X91027285Y-90527596D01*
X91041290Y-90494246D01*
X91060355Y-90446377D01*
X91067634Y-90427629D01*
X91096996Y-90355195D01*
X91131571Y-90275170D01*
X91162537Y-90207728D01*
X91185323Y-90156159D01*
X91200482Y-90113785D01*
X91205542Y-90087834D01*
X91204736Y-90084356D01*
X91194041Y-90067936D01*
X91169620Y-90031417D01*
X91134095Y-89978687D01*
X91090087Y-89913635D01*
X91040217Y-89840151D01*
X91030356Y-89825645D01*
X90972492Y-89739704D01*
X90929956Y-89674261D01*
X90901054Y-89626304D01*
X90884090Y-89592820D01*
X90877367Y-89570795D01*
X90879190Y-89557217D01*
X90879236Y-89557131D01*
X90893586Y-89539297D01*
X90925323Y-89504817D01*
X90971010Y-89457268D01*
X91027204Y-89400222D01*
X91090468Y-89337255D01*
X91097602Y-89330227D01*
X91177330Y-89253020D01*
X91238857Y-89196330D01*
X91283421Y-89159110D01*
X91312257Y-89140315D01*
X91324958Y-89137889D01*
X91343494Y-89148471D01*
X91381961Y-89172916D01*
X91436386Y-89208612D01*
X91502798Y-89252947D01*
X91577225Y-89303311D01*
X91594601Y-89315160D01*
X91841297Y-89483626D01*
X91952706Y-89433062D01*
X92020457Y-89403595D01*
X92093183Y-89373959D01*
X92155703Y-89350330D01*
X92158457Y-89349358D01*
X92207360Y-89331457D01*
X92245057Y-89316320D01*
X92263425Y-89307210D01*
X92263456Y-89307184D01*
X92269285Y-89290717D01*
X92279192Y-89250219D01*
X92292195Y-89190242D01*
X92307309Y-89115340D01*
X92323552Y-89030064D01*
X92324881Y-89022875D01*
X92341175Y-88935014D01*
X92356133Y-88855260D01*
X92368791Y-88788681D01*
X92378186Y-88740347D01*
X92383354Y-88715325D01*
X92383444Y-88714943D01*
X92386589Y-88704299D01*
X92392704Y-88696262D01*
X92405453Y-88690467D01*
X92428500Y-88686547D01*
X92465509Y-88684135D01*
X92520144Y-88682865D01*
X92596067Y-88682371D01*
X92696944Y-88682286D01*
X92710000Y-88682286D01*
X92813910Y-88682348D01*
G36*
X95863595Y-93406966D02*
G01*
X95921021Y-93444497D01*
X95948719Y-93478096D01*
X95970662Y-93539064D01*
X95972405Y-93587308D01*
X95968457Y-93651816D01*
X95819686Y-93716934D01*
X95747349Y-93750202D01*
X95700084Y-93776964D01*
X95675507Y-93800144D01*
X95671237Y-93822667D01*
X95684889Y-93847455D01*
X95699943Y-93863886D01*
X95743746Y-93890235D01*
X95791389Y-93892081D01*
X95835145Y-93871546D01*
X95867289Y-93830752D01*
X95873038Y-93816347D01*
X95900576Y-93771356D01*
X95932258Y-93752182D01*
X95975714Y-93735779D01*
X95975714Y-93797966D01*
X95971872Y-93840283D01*
X95956823Y-93875969D01*
X95925280Y-93916943D01*
X95920592Y-93922267D01*
X95885506Y-93958720D01*
X95855347Y-93978283D01*
X95817615Y-93987283D01*
X95786335Y-93990230D01*
X95730385Y-93990965D01*
X95690555Y-93981660D01*
X95665708Y-93967846D01*
X95626656Y-93937467D01*
X95599625Y-93904613D01*
X95582517Y-93863294D01*
X95573238Y-93807521D01*
X95569693Y-93731305D01*
X95569410Y-93692622D01*
X95570372Y-93646247D01*
X95658007Y-93646247D01*
X95659023Y-93671126D01*
X95661556Y-93675200D01*
X95678274Y-93669665D01*
X95714249Y-93655017D01*
X95762331Y-93634190D01*
X95772386Y-93629714D01*
X95833152Y-93598814D01*
X95866632Y-93571657D01*
X95873990Y-93546220D01*
X95856391Y-93520481D01*
X95841856Y-93509109D01*
X95789410Y-93486364D01*
X95740322Y-93490122D01*
X95699227Y-93517884D01*
X95670758Y-93567152D01*
X95661631Y-93606257D01*
X95658007Y-93646247D01*
X95570372Y-93646247D01*
X95571285Y-93602249D01*
X95578196Y-93535384D01*
X95591884Y-93486695D01*
X95614096Y-93450849D01*
X95646574Y-93422513D01*
X95660733Y-93413355D01*
X95725053Y-93389507D01*
X95795473Y-93388006D01*
X95863595Y-93406966D01*
G37*
X95863595Y-93406966D02*
X95921021Y-93444497D01*
X95948719Y-93478096D01*
X95970662Y-93539064D01*
X95972405Y-93587308D01*
X95968457Y-93651816D01*
X95819686Y-93716934D01*
X95747349Y-93750202D01*
X95700084Y-93776964D01*
X95675507Y-93800144D01*
X95671237Y-93822667D01*
X95684889Y-93847455D01*
X95699943Y-93863886D01*
X95743746Y-93890235D01*
X95791389Y-93892081D01*
X95835145Y-93871546D01*
X95867289Y-93830752D01*
X95873038Y-93816347D01*
X95900576Y-93771356D01*
X95932258Y-93752182D01*
X95975714Y-93735779D01*
X95975714Y-93797966D01*
X95971872Y-93840283D01*
X95956823Y-93875969D01*
X95925280Y-93916943D01*
X95920592Y-93922267D01*
X95885506Y-93958720D01*
X95855347Y-93978283D01*
X95817615Y-93987283D01*
X95786335Y-93990230D01*
X95730385Y-93990965D01*
X95690555Y-93981660D01*
X95665708Y-93967846D01*
X95626656Y-93937467D01*
X95599625Y-93904613D01*
X95582517Y-93863294D01*
X95573238Y-93807521D01*
X95569693Y-93731305D01*
X95569410Y-93692622D01*
X95570372Y-93646247D01*
X95658007Y-93646247D01*
X95659023Y-93671126D01*
X95661556Y-93675200D01*
X95678274Y-93669665D01*
X95714249Y-93655017D01*
X95762331Y-93634190D01*
X95772386Y-93629714D01*
X95833152Y-93598814D01*
X95866632Y-93571657D01*
X95873990Y-93546220D01*
X95856391Y-93520481D01*
X95841856Y-93509109D01*
X95789410Y-93486364D01*
X95740322Y-93490122D01*
X95699227Y-93517884D01*
X95670758Y-93567152D01*
X95661631Y-93606257D01*
X95658007Y-93646247D01*
X95570372Y-93646247D01*
X95571285Y-93602249D01*
X95578196Y-93535384D01*
X95591884Y-93486695D01*
X95614096Y-93450849D01*
X95646574Y-93422513D01*
X95660733Y-93413355D01*
X95725053Y-93389507D01*
X95795473Y-93388006D01*
X95863595Y-93406966D01*
G36*
X95362600Y-93398752D02*
G01*
X95379948Y-93406334D01*
X95421356Y-93439128D01*
X95456765Y-93486547D01*
X95478664Y-93537151D01*
X95482229Y-93562098D01*
X95470279Y-93596927D01*
X95444067Y-93615357D01*
X95415964Y-93626516D01*
X95403095Y-93628572D01*
X95396829Y-93613649D01*
X95384456Y-93581175D01*
X95379028Y-93566502D01*
X95348590Y-93515744D01*
X95304520Y-93490427D01*
X95248010Y-93491206D01*
X95243825Y-93492203D01*
X95213655Y-93506507D01*
X95191476Y-93534393D01*
X95176327Y-93579287D01*
X95167250Y-93644615D01*
X95163286Y-93733804D01*
X95162914Y-93781261D01*
X95162730Y-93856071D01*
X95161522Y-93907069D01*
X95158309Y-93939471D01*
X95152109Y-93958495D01*
X95141940Y-93969356D01*
X95126819Y-93977272D01*
X95125946Y-93977670D01*
X95096828Y-93989981D01*
X95082403Y-93994514D01*
X95080186Y-93980809D01*
X95078289Y-93942925D01*
X95076847Y-93885715D01*
X95075998Y-93814027D01*
X95075829Y-93761565D01*
X95076692Y-93660047D01*
X95080070Y-93583032D01*
X95087142Y-93526023D01*
X95099088Y-93484526D01*
X95117090Y-93454043D01*
X95142327Y-93430080D01*
X95167247Y-93413355D01*
X95227171Y-93391097D01*
X95296911Y-93386076D01*
X95362600Y-93398752D01*
G37*
X95362600Y-93398752D02*
X95379948Y-93406334D01*
X95421356Y-93439128D01*
X95456765Y-93486547D01*
X95478664Y-93537151D01*
X95482229Y-93562098D01*
X95470279Y-93596927D01*
X95444067Y-93615357D01*
X95415964Y-93626516D01*
X95403095Y-93628572D01*
X95396829Y-93613649D01*
X95384456Y-93581175D01*
X95379028Y-93566502D01*
X95348590Y-93515744D01*
X95304520Y-93490427D01*
X95248010Y-93491206D01*
X95243825Y-93492203D01*
X95213655Y-93506507D01*
X95191476Y-93534393D01*
X95176327Y-93579287D01*
X95167250Y-93644615D01*
X95163286Y-93733804D01*
X95162914Y-93781261D01*
X95162730Y-93856071D01*
X95161522Y-93907069D01*
X95158309Y-93939471D01*
X95152109Y-93958495D01*
X95141940Y-93969356D01*
X95126819Y-93977272D01*
X95125946Y-93977670D01*
X95096828Y-93989981D01*
X95082403Y-93994514D01*
X95080186Y-93980809D01*
X95078289Y-93942925D01*
X95076847Y-93885715D01*
X95075998Y-93814027D01*
X95075829Y-93761565D01*
X95076692Y-93660047D01*
X95080070Y-93583032D01*
X95087142Y-93526023D01*
X95099088Y-93484526D01*
X95117090Y-93454043D01*
X95142327Y-93430080D01*
X95167247Y-93413355D01*
X95227171Y-93391097D01*
X95296911Y-93386076D01*
X95362600Y-93398752D01*
G36*
X94854876Y-93396335D02*
G01*
X94896667Y-93415344D01*
X94929469Y-93438378D01*
X94953503Y-93464133D01*
X94970097Y-93497358D01*
X94980577Y-93542800D01*
X94986271Y-93605207D01*
X94988507Y-93689327D01*
X94988743Y-93744721D01*
X94988743Y-93960826D01*
X94951774Y-93977670D01*
X94922656Y-93989981D01*
X94908231Y-93994514D01*
X94905472Y-93981025D01*
X94903282Y-93944653D01*
X94901942Y-93891542D01*
X94901657Y-93849372D01*
X94900434Y-93788447D01*
X94897136Y-93740115D01*
X94892321Y-93710518D01*
X94888496Y-93704229D01*
X94862783Y-93710652D01*
X94822418Y-93727125D01*
X94775679Y-93749458D01*
X94730845Y-93773457D01*
X94696193Y-93794930D01*
X94680002Y-93809685D01*
X94679938Y-93809845D01*
X94681330Y-93837152D01*
X94693818Y-93863219D01*
X94715743Y-93884392D01*
X94747743Y-93891474D01*
X94775092Y-93890649D01*
X94813826Y-93890042D01*
X94834158Y-93899116D01*
X94846369Y-93923092D01*
X94847909Y-93927613D01*
X94853203Y-93961806D01*
X94839047Y-93982568D01*
X94802148Y-93992462D01*
X94762289Y-93994292D01*
X94690562Y-93980727D01*
X94653432Y-93961355D01*
X94607576Y-93915845D01*
X94583256Y-93859983D01*
X94581073Y-93800957D01*
X94601629Y-93745953D01*
X94632549Y-93711486D01*
X94663420Y-93692189D01*
X94711942Y-93667759D01*
X94768485Y-93642985D01*
X94777910Y-93639199D01*
X94840019Y-93611791D01*
X94875822Y-93587634D01*
X94887337Y-93563619D01*
X94876580Y-93536635D01*
X94858114Y-93515543D01*
X94814469Y-93489572D01*
X94766446Y-93487624D01*
X94722406Y-93507637D01*
X94690709Y-93547551D01*
X94686549Y-93557848D01*
X94662327Y-93595724D01*
X94626965Y-93623842D01*
X94582343Y-93646917D01*
X94582343Y-93581485D01*
X94584969Y-93541506D01*
X94596230Y-93509997D01*
X94621199Y-93476378D01*
X94645169Y-93450484D01*
X94682441Y-93413817D01*
X94711401Y-93394121D01*
X94742505Y-93386220D01*
X94777713Y-93384914D01*
X94854876Y-93396335D01*
G37*
X94854876Y-93396335D02*
X94896667Y-93415344D01*
X94929469Y-93438378D01*
X94953503Y-93464133D01*
X94970097Y-93497358D01*
X94980577Y-93542800D01*
X94986271Y-93605207D01*
X94988507Y-93689327D01*
X94988743Y-93744721D01*
X94988743Y-93960826D01*
X94951774Y-93977670D01*
X94922656Y-93989981D01*
X94908231Y-93994514D01*
X94905472Y-93981025D01*
X94903282Y-93944653D01*
X94901942Y-93891542D01*
X94901657Y-93849372D01*
X94900434Y-93788447D01*
X94897136Y-93740115D01*
X94892321Y-93710518D01*
X94888496Y-93704229D01*
X94862783Y-93710652D01*
X94822418Y-93727125D01*
X94775679Y-93749458D01*
X94730845Y-93773457D01*
X94696193Y-93794930D01*
X94680002Y-93809685D01*
X94679938Y-93809845D01*
X94681330Y-93837152D01*
X94693818Y-93863219D01*
X94715743Y-93884392D01*
X94747743Y-93891474D01*
X94775092Y-93890649D01*
X94813826Y-93890042D01*
X94834158Y-93899116D01*
X94846369Y-93923092D01*
X94847909Y-93927613D01*
X94853203Y-93961806D01*
X94839047Y-93982568D01*
X94802148Y-93992462D01*
X94762289Y-93994292D01*
X94690562Y-93980727D01*
X94653432Y-93961355D01*
X94607576Y-93915845D01*
X94583256Y-93859983D01*
X94581073Y-93800957D01*
X94601629Y-93745953D01*
X94632549Y-93711486D01*
X94663420Y-93692189D01*
X94711942Y-93667759D01*
X94768485Y-93642985D01*
X94777910Y-93639199D01*
X94840019Y-93611791D01*
X94875822Y-93587634D01*
X94887337Y-93563619D01*
X94876580Y-93536635D01*
X94858114Y-93515543D01*
X94814469Y-93489572D01*
X94766446Y-93487624D01*
X94722406Y-93507637D01*
X94690709Y-93547551D01*
X94686549Y-93557848D01*
X94662327Y-93595724D01*
X94626965Y-93623842D01*
X94582343Y-93646917D01*
X94582343Y-93581485D01*
X94584969Y-93541506D01*
X94596230Y-93509997D01*
X94621199Y-93476378D01*
X94645169Y-93450484D01*
X94682441Y-93413817D01*
X94711401Y-93394121D01*
X94742505Y-93386220D01*
X94777713Y-93384914D01*
X94854876Y-93396335D01*
G36*
X94489833Y-93398663D02*
G01*
X94492048Y-93436850D01*
X94493784Y-93494886D01*
X94494899Y-93568180D01*
X94495257Y-93645055D01*
X94495257Y-93905196D01*
X94449326Y-93951127D01*
X94417675Y-93979429D01*
X94389890Y-93990893D01*
X94351915Y-93990168D01*
X94336840Y-93988321D01*
X94289726Y-93982948D01*
X94250756Y-93979869D01*
X94241257Y-93979585D01*
X94209233Y-93981445D01*
X94163432Y-93986114D01*
X94145674Y-93988321D01*
X94102057Y-93991735D01*
X94072745Y-93984320D01*
X94043680Y-93961427D01*
X94033188Y-93951127D01*
X93987257Y-93905196D01*
X93987257Y-93418602D01*
X94024226Y-93401758D01*
X94056059Y-93389282D01*
X94074683Y-93384914D01*
X94079458Y-93398718D01*
X94083921Y-93437286D01*
X94087775Y-93496356D01*
X94090722Y-93571663D01*
X94092143Y-93635286D01*
X94096114Y-93885657D01*
X94130759Y-93890556D01*
X94162268Y-93887131D01*
X94177708Y-93876041D01*
X94182023Y-93855308D01*
X94185708Y-93811145D01*
X94188469Y-93749146D01*
X94190012Y-93674909D01*
X94190235Y-93636706D01*
X94190457Y-93416783D01*
X94236166Y-93400849D01*
X94268518Y-93390015D01*
X94286115Y-93384962D01*
X94286623Y-93384914D01*
X94288388Y-93398648D01*
X94290329Y-93436730D01*
X94292282Y-93494482D01*
X94294084Y-93567227D01*
X94295343Y-93635286D01*
X94299314Y-93885657D01*
X94386400Y-93885657D01*
X94390396Y-93657240D01*
X94394392Y-93428822D01*
X94436847Y-93406868D01*
X94468192Y-93391793D01*
X94486744Y-93384951D01*
X94487279Y-93384914D01*
X94489833Y-93398663D01*
G37*
X94489833Y-93398663D02*
X94492048Y-93436850D01*
X94493784Y-93494886D01*
X94494899Y-93568180D01*
X94495257Y-93645055D01*
X94495257Y-93905196D01*
X94449326Y-93951127D01*
X94417675Y-93979429D01*
X94389890Y-93990893D01*
X94351915Y-93990168D01*
X94336840Y-93988321D01*
X94289726Y-93982948D01*
X94250756Y-93979869D01*
X94241257Y-93979585D01*
X94209233Y-93981445D01*
X94163432Y-93986114D01*
X94145674Y-93988321D01*
X94102057Y-93991735D01*
X94072745Y-93984320D01*
X94043680Y-93961427D01*
X94033188Y-93951127D01*
X93987257Y-93905196D01*
X93987257Y-93418602D01*
X94024226Y-93401758D01*
X94056059Y-93389282D01*
X94074683Y-93384914D01*
X94079458Y-93398718D01*
X94083921Y-93437286D01*
X94087775Y-93496356D01*
X94090722Y-93571663D01*
X94092143Y-93635286D01*
X94096114Y-93885657D01*
X94130759Y-93890556D01*
X94162268Y-93887131D01*
X94177708Y-93876041D01*
X94182023Y-93855308D01*
X94185708Y-93811145D01*
X94188469Y-93749146D01*
X94190012Y-93674909D01*
X94190235Y-93636706D01*
X94190457Y-93416783D01*
X94236166Y-93400849D01*
X94268518Y-93390015D01*
X94286115Y-93384962D01*
X94286623Y-93384914D01*
X94288388Y-93398648D01*
X94290329Y-93436730D01*
X94292282Y-93494482D01*
X94294084Y-93567227D01*
X94295343Y-93635286D01*
X94299314Y-93885657D01*
X94386400Y-93885657D01*
X94390396Y-93657240D01*
X94394392Y-93428822D01*
X94436847Y-93406868D01*
X94468192Y-93391793D01*
X94486744Y-93384951D01*
X94487279Y-93384914D01*
X94489833Y-93398663D01*
G36*
X93900117Y-93505358D02*
G01*
X93899933Y-93613837D01*
X93899219Y-93697287D01*
X93897675Y-93759704D01*
X93895001Y-93805085D01*
X93890894Y-93837429D01*
X93885055Y-93860733D01*
X93877182Y-93878995D01*
X93871221Y-93889418D01*
X93821855Y-93945945D01*
X93759264Y-93981377D01*
X93690013Y-93994090D01*
X93620668Y-93982463D01*
X93579375Y-93961568D01*
X93536025Y-93925422D01*
X93506481Y-93881276D01*
X93488655Y-93823462D01*
X93480463Y-93746313D01*
X93479302Y-93689714D01*
X93479458Y-93685647D01*
X93580857Y-93685647D01*
X93581476Y-93750550D01*
X93584314Y-93793514D01*
X93590840Y-93821622D01*
X93602523Y-93841953D01*
X93616483Y-93857288D01*
X93663365Y-93886890D01*
X93713701Y-93889419D01*
X93761276Y-93864705D01*
X93764979Y-93861356D01*
X93780783Y-93843935D01*
X93790693Y-93823209D01*
X93796058Y-93792362D01*
X93798228Y-93744577D01*
X93798571Y-93691748D01*
X93797827Y-93625381D01*
X93794748Y-93581106D01*
X93788061Y-93552009D01*
X93776496Y-93531173D01*
X93767013Y-93520107D01*
X93722960Y-93492198D01*
X93672224Y-93488843D01*
X93623796Y-93510159D01*
X93614450Y-93518073D01*
X93598540Y-93535647D01*
X93588610Y-93556587D01*
X93583278Y-93587782D01*
X93581163Y-93636122D01*
X93580857Y-93685647D01*
X93479458Y-93685647D01*
X93482810Y-93598568D01*
X93494726Y-93530086D01*
X93517135Y-93478600D01*
X93552124Y-93438443D01*
X93579375Y-93417861D01*
X93628907Y-93395625D01*
X93686316Y-93385304D01*
X93739682Y-93388067D01*
X93769543Y-93399212D01*
X93781261Y-93402383D01*
X93789037Y-93390557D01*
X93794465Y-93358866D01*
X93798571Y-93310593D01*
X93803067Y-93256829D01*
X93809313Y-93224482D01*
X93820676Y-93205985D01*
X93840528Y-93193770D01*
X93853000Y-93188362D01*
X93900171Y-93168601D01*
X93900117Y-93505358D01*
G37*
X93900117Y-93505358D02*
X93899933Y-93613837D01*
X93899219Y-93697287D01*
X93897675Y-93759704D01*
X93895001Y-93805085D01*
X93890894Y-93837429D01*
X93885055Y-93860733D01*
X93877182Y-93878995D01*
X93871221Y-93889418D01*
X93821855Y-93945945D01*
X93759264Y-93981377D01*
X93690013Y-93994090D01*
X93620668Y-93982463D01*
X93579375Y-93961568D01*
X93536025Y-93925422D01*
X93506481Y-93881276D01*
X93488655Y-93823462D01*
X93480463Y-93746313D01*
X93479302Y-93689714D01*
X93479458Y-93685647D01*
X93580857Y-93685647D01*
X93581476Y-93750550D01*
X93584314Y-93793514D01*
X93590840Y-93821622D01*
X93602523Y-93841953D01*
X93616483Y-93857288D01*
X93663365Y-93886890D01*
X93713701Y-93889419D01*
X93761276Y-93864705D01*
X93764979Y-93861356D01*
X93780783Y-93843935D01*
X93790693Y-93823209D01*
X93796058Y-93792362D01*
X93798228Y-93744577D01*
X93798571Y-93691748D01*
X93797827Y-93625381D01*
X93794748Y-93581106D01*
X93788061Y-93552009D01*
X93776496Y-93531173D01*
X93767013Y-93520107D01*
X93722960Y-93492198D01*
X93672224Y-93488843D01*
X93623796Y-93510159D01*
X93614450Y-93518073D01*
X93598540Y-93535647D01*
X93588610Y-93556587D01*
X93583278Y-93587782D01*
X93581163Y-93636122D01*
X93580857Y-93685647D01*
X93479458Y-93685647D01*
X93482810Y-93598568D01*
X93494726Y-93530086D01*
X93517135Y-93478600D01*
X93552124Y-93438443D01*
X93579375Y-93417861D01*
X93628907Y-93395625D01*
X93686316Y-93385304D01*
X93739682Y-93388067D01*
X93769543Y-93399212D01*
X93781261Y-93402383D01*
X93789037Y-93390557D01*
X93794465Y-93358866D01*
X93798571Y-93310593D01*
X93803067Y-93256829D01*
X93809313Y-93224482D01*
X93820676Y-93205985D01*
X93840528Y-93193770D01*
X93853000Y-93188362D01*
X93900171Y-93168601D01*
X93900117Y-93505358D01*
G36*
X93239926Y-93389755D02*
G01*
X93305858Y-93414084D01*
X93359273Y-93457117D01*
X93380164Y-93487409D01*
X93402939Y-93542994D01*
X93402466Y-93583186D01*
X93378562Y-93610217D01*
X93369717Y-93614813D01*
X93331530Y-93629144D01*
X93312028Y-93625472D01*
X93305422Y-93601407D01*
X93305086Y-93588114D01*
X93292992Y-93539210D01*
X93261471Y-93504999D01*
X93217659Y-93488476D01*
X93168695Y-93492634D01*
X93128894Y-93514227D01*
X93115450Y-93526544D01*
X93105921Y-93541487D01*
X93099485Y-93564075D01*
X93095317Y-93599328D01*
X93092597Y-93652266D01*
X93090502Y-93727907D01*
X93089960Y-93751857D01*
X93087981Y-93833790D01*
X93085731Y-93891455D01*
X93082357Y-93929608D01*
X93077006Y-93953004D01*
X93068824Y-93966398D01*
X93056959Y-93974545D01*
X93049362Y-93978144D01*
X93017102Y-93990452D01*
X92998111Y-93994514D01*
X92991836Y-93980948D01*
X92988006Y-93939934D01*
X92986600Y-93870999D01*
X92987598Y-93773669D01*
X92987908Y-93758657D01*
X92990101Y-93669859D01*
X92992693Y-93605019D01*
X92996382Y-93559067D01*
X93001864Y-93526935D01*
X93009835Y-93503553D01*
X93020993Y-93483852D01*
X93026830Y-93475410D01*
X93060296Y-93438057D01*
X93097727Y-93409003D01*
X93102309Y-93406467D01*
X93169426Y-93386443D01*
X93239926Y-93389755D01*
G37*
X93239926Y-93389755D02*
X93305858Y-93414084D01*
X93359273Y-93457117D01*
X93380164Y-93487409D01*
X93402939Y-93542994D01*
X93402466Y-93583186D01*
X93378562Y-93610217D01*
X93369717Y-93614813D01*
X93331530Y-93629144D01*
X93312028Y-93625472D01*
X93305422Y-93601407D01*
X93305086Y-93588114D01*
X93292992Y-93539210D01*
X93261471Y-93504999D01*
X93217659Y-93488476D01*
X93168695Y-93492634D01*
X93128894Y-93514227D01*
X93115450Y-93526544D01*
X93105921Y-93541487D01*
X93099485Y-93564075D01*
X93095317Y-93599328D01*
X93092597Y-93652266D01*
X93090502Y-93727907D01*
X93089960Y-93751857D01*
X93087981Y-93833790D01*
X93085731Y-93891455D01*
X93082357Y-93929608D01*
X93077006Y-93953004D01*
X93068824Y-93966398D01*
X93056959Y-93974545D01*
X93049362Y-93978144D01*
X93017102Y-93990452D01*
X92998111Y-93994514D01*
X92991836Y-93980948D01*
X92988006Y-93939934D01*
X92986600Y-93870999D01*
X92987598Y-93773669D01*
X92987908Y-93758657D01*
X92990101Y-93669859D01*
X92992693Y-93605019D01*
X92996382Y-93559067D01*
X93001864Y-93526935D01*
X93009835Y-93503553D01*
X93020993Y-93483852D01*
X93026830Y-93475410D01*
X93060296Y-93438057D01*
X93097727Y-93409003D01*
X93102309Y-93406467D01*
X93169426Y-93386443D01*
X93239926Y-93389755D01*
G36*
X92749744Y-93390968D02*
G01*
X92806616Y-93412087D01*
X92807267Y-93412493D01*
X92842440Y-93438380D01*
X92868407Y-93468633D01*
X92886670Y-93508058D01*
X92898732Y-93561462D01*
X92906096Y-93633651D01*
X92910264Y-93729432D01*
X92910629Y-93743078D01*
X92915876Y-93948842D01*
X92871716Y-93971678D01*
X92839763Y-93987110D01*
X92820470Y-93994423D01*
X92819578Y-93994514D01*
X92816239Y-93981022D01*
X92813587Y-93944626D01*
X92811956Y-93891452D01*
X92811600Y-93848393D01*
X92811592Y-93778641D01*
X92808403Y-93734837D01*
X92797288Y-93713944D01*
X92773501Y-93712925D01*
X92732296Y-93728741D01*
X92670086Y-93757815D01*
X92624341Y-93781963D01*
X92600813Y-93802913D01*
X92593896Y-93825747D01*
X92593886Y-93826877D01*
X92605299Y-93866212D01*
X92639092Y-93887462D01*
X92690809Y-93890539D01*
X92728061Y-93890006D01*
X92747703Y-93900735D01*
X92759952Y-93926505D01*
X92767002Y-93959337D01*
X92756842Y-93977966D01*
X92753017Y-93980632D01*
X92717001Y-93991340D01*
X92666566Y-93992856D01*
X92614626Y-93985759D01*
X92577822Y-93972788D01*
X92526938Y-93929585D01*
X92498014Y-93869446D01*
X92492286Y-93822462D01*
X92496657Y-93780082D01*
X92512475Y-93745488D01*
X92543797Y-93714763D01*
X92594678Y-93683990D01*
X92669176Y-93649252D01*
X92673714Y-93647288D01*
X92740821Y-93616287D01*
X92782232Y-93590862D01*
X92799981Y-93568014D01*
X92796107Y-93544745D01*
X92772643Y-93518056D01*
X92765627Y-93511914D01*
X92718630Y-93488100D01*
X92669933Y-93489103D01*
X92627522Y-93512451D01*
X92599384Y-93555675D01*
X92596769Y-93564160D01*
X92571308Y-93605308D01*
X92539001Y-93625128D01*
X92492286Y-93644770D01*
X92492286Y-93593950D01*
X92506496Y-93520082D01*
X92548675Y-93452327D01*
X92570624Y-93429661D01*
X92620517Y-93400569D01*
X92683967Y-93387400D01*
X92749744Y-93390968D01*
G37*
X92749744Y-93390968D02*
X92806616Y-93412087D01*
X92807267Y-93412493D01*
X92842440Y-93438380D01*
X92868407Y-93468633D01*
X92886670Y-93508058D01*
X92898732Y-93561462D01*
X92906096Y-93633651D01*
X92910264Y-93729432D01*
X92910629Y-93743078D01*
X92915876Y-93948842D01*
X92871716Y-93971678D01*
X92839763Y-93987110D01*
X92820470Y-93994423D01*
X92819578Y-93994514D01*
X92816239Y-93981022D01*
X92813587Y-93944626D01*
X92811956Y-93891452D01*
X92811600Y-93848393D01*
X92811592Y-93778641D01*
X92808403Y-93734837D01*
X92797288Y-93713944D01*
X92773501Y-93712925D01*
X92732296Y-93728741D01*
X92670086Y-93757815D01*
X92624341Y-93781963D01*
X92600813Y-93802913D01*
X92593896Y-93825747D01*
X92593886Y-93826877D01*
X92605299Y-93866212D01*
X92639092Y-93887462D01*
X92690809Y-93890539D01*
X92728061Y-93890006D01*
X92747703Y-93900735D01*
X92759952Y-93926505D01*
X92767002Y-93959337D01*
X92756842Y-93977966D01*
X92753017Y-93980632D01*
X92717001Y-93991340D01*
X92666566Y-93992856D01*
X92614626Y-93985759D01*
X92577822Y-93972788D01*
X92526938Y-93929585D01*
X92498014Y-93869446D01*
X92492286Y-93822462D01*
X92496657Y-93780082D01*
X92512475Y-93745488D01*
X92543797Y-93714763D01*
X92594678Y-93683990D01*
X92669176Y-93649252D01*
X92673714Y-93647288D01*
X92740821Y-93616287D01*
X92782232Y-93590862D01*
X92799981Y-93568014D01*
X92796107Y-93544745D01*
X92772643Y-93518056D01*
X92765627Y-93511914D01*
X92718630Y-93488100D01*
X92669933Y-93489103D01*
X92627522Y-93512451D01*
X92599384Y-93555675D01*
X92596769Y-93564160D01*
X92571308Y-93605308D01*
X92539001Y-93625128D01*
X92492286Y-93644770D01*
X92492286Y-93593950D01*
X92506496Y-93520082D01*
X92548675Y-93452327D01*
X92570624Y-93429661D01*
X92620517Y-93400569D01*
X92683967Y-93387400D01*
X92749744Y-93390968D01*
G36*
X92085886Y-93291289D02*
G01*
X92090139Y-93350613D01*
X92095025Y-93385572D01*
X92101795Y-93400820D01*
X92111702Y-93401015D01*
X92114914Y-93399195D01*
X92157644Y-93386015D01*
X92213227Y-93386785D01*
X92269737Y-93400333D01*
X92305082Y-93417861D01*
X92341321Y-93445861D01*
X92367813Y-93477549D01*
X92385999Y-93517813D01*
X92397322Y-93571543D01*
X92403222Y-93643626D01*
X92405143Y-93738951D01*
X92405177Y-93757237D01*
X92405200Y-93962646D01*
X92359491Y-93978580D01*
X92327027Y-93989420D01*
X92309215Y-93994468D01*
X92308691Y-93994514D01*
X92306937Y-93980828D01*
X92305444Y-93943076D01*
X92304326Y-93886224D01*
X92303697Y-93815234D01*
X92303600Y-93772073D01*
X92303398Y-93686973D01*
X92302358Y-93625981D01*
X92299831Y-93584177D01*
X92295164Y-93556642D01*
X92287707Y-93538456D01*
X92276811Y-93524698D01*
X92270007Y-93518073D01*
X92223272Y-93491375D01*
X92172272Y-93489375D01*
X92126001Y-93511955D01*
X92117444Y-93520107D01*
X92104893Y-93535436D01*
X92096188Y-93553618D01*
X92090631Y-93579909D01*
X92087526Y-93619562D01*
X92086176Y-93677832D01*
X92085886Y-93758173D01*
X92085886Y-93962646D01*
X92040177Y-93978580D01*
X92007713Y-93989420D01*
X91989901Y-93994468D01*
X91989377Y-93994514D01*
X91988037Y-93980623D01*
X91986828Y-93941439D01*
X91985801Y-93880700D01*
X91985002Y-93802141D01*
X91984481Y-93709498D01*
X91984286Y-93606509D01*
X91984286Y-93209342D01*
X92031457Y-93189444D01*
X92078629Y-93169547D01*
X92085886Y-93291289D01*
G37*
X92085886Y-93291289D02*
X92090139Y-93350613D01*
X92095025Y-93385572D01*
X92101795Y-93400820D01*
X92111702Y-93401015D01*
X92114914Y-93399195D01*
X92157644Y-93386015D01*
X92213227Y-93386785D01*
X92269737Y-93400333D01*
X92305082Y-93417861D01*
X92341321Y-93445861D01*
X92367813Y-93477549D01*
X92385999Y-93517813D01*
X92397322Y-93571543D01*
X92403222Y-93643626D01*
X92405143Y-93738951D01*
X92405177Y-93757237D01*
X92405200Y-93962646D01*
X92359491Y-93978580D01*
X92327027Y-93989420D01*
X92309215Y-93994468D01*
X92308691Y-93994514D01*
X92306937Y-93980828D01*
X92305444Y-93943076D01*
X92304326Y-93886224D01*
X92303697Y-93815234D01*
X92303600Y-93772073D01*
X92303398Y-93686973D01*
X92302358Y-93625981D01*
X92299831Y-93584177D01*
X92295164Y-93556642D01*
X92287707Y-93538456D01*
X92276811Y-93524698D01*
X92270007Y-93518073D01*
X92223272Y-93491375D01*
X92172272Y-93489375D01*
X92126001Y-93511955D01*
X92117444Y-93520107D01*
X92104893Y-93535436D01*
X92096188Y-93553618D01*
X92090631Y-93579909D01*
X92087526Y-93619562D01*
X92086176Y-93677832D01*
X92085886Y-93758173D01*
X92085886Y-93962646D01*
X92040177Y-93978580D01*
X92007713Y-93989420D01*
X91989901Y-93994468D01*
X91989377Y-93994514D01*
X91988037Y-93980623D01*
X91986828Y-93941439D01*
X91985801Y-93880700D01*
X91985002Y-93802141D01*
X91984481Y-93709498D01*
X91984286Y-93606509D01*
X91984286Y-93209342D01*
X92031457Y-93189444D01*
X92078629Y-93169547D01*
X92085886Y-93291289D01*
G36*
X90878303Y-93371239D02*
G01*
X90935527Y-93409735D01*
X90979749Y-93465335D01*
X91006167Y-93536086D01*
X91011510Y-93588162D01*
X91010903Y-93609893D01*
X91005822Y-93626531D01*
X90991855Y-93641437D01*
X90964589Y-93657973D01*
X90919612Y-93679498D01*
X90852511Y-93709374D01*
X90852171Y-93709524D01*
X90790407Y-93737813D01*
X90739759Y-93762933D01*
X90705404Y-93782179D01*
X90692518Y-93792848D01*
X90692514Y-93792934D01*
X90703872Y-93816166D01*
X90730431Y-93841774D01*
X90760923Y-93860221D01*
X90776370Y-93863886D01*
X90818515Y-93851212D01*
X90854808Y-93819471D01*
X90872517Y-93784572D01*
X90889552Y-93758845D01*
X90922922Y-93729546D01*
X90962149Y-93704235D01*
X90996756Y-93690471D01*
X91003993Y-93689714D01*
X91012139Y-93702160D01*
X91012630Y-93733972D01*
X91006643Y-93776866D01*
X90995357Y-93822558D01*
X90979950Y-93862761D01*
X90979171Y-93864322D01*
X90932804Y-93929062D01*
X90872711Y-93973097D01*
X90804465Y-93994711D01*
X90733638Y-93992185D01*
X90665804Y-93963804D01*
X90662788Y-93961808D01*
X90609427Y-93913448D01*
X90574340Y-93850352D01*
X90554922Y-93767387D01*
X90552316Y-93744078D01*
X90547701Y-93634055D01*
X90553233Y-93582748D01*
X90692514Y-93582748D01*
X90694324Y-93614753D01*
X90704222Y-93624093D01*
X90728898Y-93617105D01*
X90767795Y-93600587D01*
X90811275Y-93579881D01*
X90812356Y-93579333D01*
X90849209Y-93559949D01*
X90864000Y-93547013D01*
X90860353Y-93533451D01*
X90844995Y-93515632D01*
X90805923Y-93489845D01*
X90763846Y-93487950D01*
X90726103Y-93506717D01*
X90700034Y-93542915D01*
X90692514Y-93582748D01*
X90553233Y-93582748D01*
X90557194Y-93546027D01*
X90581550Y-93476212D01*
X90615456Y-93427302D01*
X90676653Y-93377878D01*
X90744063Y-93353359D01*
X90812880Y-93351797D01*
X90878303Y-93371239D01*
G37*
X90878303Y-93371239D02*
X90935527Y-93409735D01*
X90979749Y-93465335D01*
X91006167Y-93536086D01*
X91011510Y-93588162D01*
X91010903Y-93609893D01*
X91005822Y-93626531D01*
X90991855Y-93641437D01*
X90964589Y-93657973D01*
X90919612Y-93679498D01*
X90852511Y-93709374D01*
X90852171Y-93709524D01*
X90790407Y-93737813D01*
X90739759Y-93762933D01*
X90705404Y-93782179D01*
X90692518Y-93792848D01*
X90692514Y-93792934D01*
X90703872Y-93816166D01*
X90730431Y-93841774D01*
X90760923Y-93860221D01*
X90776370Y-93863886D01*
X90818515Y-93851212D01*
X90854808Y-93819471D01*
X90872517Y-93784572D01*
X90889552Y-93758845D01*
X90922922Y-93729546D01*
X90962149Y-93704235D01*
X90996756Y-93690471D01*
X91003993Y-93689714D01*
X91012139Y-93702160D01*
X91012630Y-93733972D01*
X91006643Y-93776866D01*
X90995357Y-93822558D01*
X90979950Y-93862761D01*
X90979171Y-93864322D01*
X90932804Y-93929062D01*
X90872711Y-93973097D01*
X90804465Y-93994711D01*
X90733638Y-93992185D01*
X90665804Y-93963804D01*
X90662788Y-93961808D01*
X90609427Y-93913448D01*
X90574340Y-93850352D01*
X90554922Y-93767387D01*
X90552316Y-93744078D01*
X90547701Y-93634055D01*
X90553233Y-93582748D01*
X90692514Y-93582748D01*
X90694324Y-93614753D01*
X90704222Y-93624093D01*
X90728898Y-93617105D01*
X90767795Y-93600587D01*
X90811275Y-93579881D01*
X90812356Y-93579333D01*
X90849209Y-93559949D01*
X90864000Y-93547013D01*
X90860353Y-93533451D01*
X90844995Y-93515632D01*
X90805923Y-93489845D01*
X90763846Y-93487950D01*
X90726103Y-93506717D01*
X90700034Y-93542915D01*
X90692514Y-93582748D01*
X90553233Y-93582748D01*
X90557194Y-93546027D01*
X90581550Y-93476212D01*
X90615456Y-93427302D01*
X90676653Y-93377878D01*
X90744063Y-93353359D01*
X90812880Y-93351797D01*
X90878303Y-93371239D01*
G36*
X89751115Y-93361962D02*
G01*
X89819145Y-93397733D01*
X89869351Y-93455301D01*
X89887185Y-93492312D01*
X89901063Y-93547882D01*
X89908167Y-93618096D01*
X89908840Y-93694727D01*
X89903427Y-93769552D01*
X89892270Y-93834342D01*
X89875714Y-93880873D01*
X89870626Y-93888887D01*
X89810355Y-93948707D01*
X89738769Y-93984535D01*
X89661092Y-93995020D01*
X89582548Y-93978810D01*
X89560689Y-93969092D01*
X89518122Y-93939143D01*
X89480763Y-93899433D01*
X89477232Y-93894397D01*
X89462881Y-93870124D01*
X89453394Y-93844178D01*
X89447790Y-93810022D01*
X89445086Y-93761119D01*
X89444299Y-93690935D01*
X89444286Y-93675200D01*
X89444322Y-93670192D01*
X89589429Y-93670192D01*
X89590273Y-93736430D01*
X89593596Y-93780386D01*
X89600583Y-93808779D01*
X89612416Y-93828325D01*
X89618457Y-93834857D01*
X89653186Y-93859680D01*
X89686903Y-93858548D01*
X89720995Y-93837016D01*
X89741329Y-93814029D01*
X89753371Y-93780478D01*
X89760134Y-93727569D01*
X89760598Y-93721399D01*
X89761752Y-93625513D01*
X89749688Y-93554299D01*
X89724570Y-93508194D01*
X89686560Y-93487635D01*
X89672992Y-93486514D01*
X89637364Y-93492152D01*
X89612994Y-93511686D01*
X89598093Y-93549042D01*
X89590875Y-93608150D01*
X89589429Y-93670192D01*
X89444322Y-93670192D01*
X89444826Y-93600413D01*
X89447096Y-93548159D01*
X89452068Y-93511949D01*
X89460713Y-93485299D01*
X89474005Y-93461722D01*
X89476943Y-93457338D01*
X89526313Y-93398249D01*
X89580109Y-93363947D01*
X89645602Y-93350331D01*
X89667842Y-93349665D01*
X89751115Y-93361962D01*
G37*
X89751115Y-93361962D02*
X89819145Y-93397733D01*
X89869351Y-93455301D01*
X89887185Y-93492312D01*
X89901063Y-93547882D01*
X89908167Y-93618096D01*
X89908840Y-93694727D01*
X89903427Y-93769552D01*
X89892270Y-93834342D01*
X89875714Y-93880873D01*
X89870626Y-93888887D01*
X89810355Y-93948707D01*
X89738769Y-93984535D01*
X89661092Y-93995020D01*
X89582548Y-93978810D01*
X89560689Y-93969092D01*
X89518122Y-93939143D01*
X89480763Y-93899433D01*
X89477232Y-93894397D01*
X89462881Y-93870124D01*
X89453394Y-93844178D01*
X89447790Y-93810022D01*
X89445086Y-93761119D01*
X89444299Y-93690935D01*
X89444286Y-93675200D01*
X89444322Y-93670192D01*
X89589429Y-93670192D01*
X89590273Y-93736430D01*
X89593596Y-93780386D01*
X89600583Y-93808779D01*
X89612416Y-93828325D01*
X89618457Y-93834857D01*
X89653186Y-93859680D01*
X89686903Y-93858548D01*
X89720995Y-93837016D01*
X89741329Y-93814029D01*
X89753371Y-93780478D01*
X89760134Y-93727569D01*
X89760598Y-93721399D01*
X89761752Y-93625513D01*
X89749688Y-93554299D01*
X89724570Y-93508194D01*
X89686560Y-93487635D01*
X89672992Y-93486514D01*
X89637364Y-93492152D01*
X89612994Y-93511686D01*
X89598093Y-93549042D01*
X89590875Y-93608150D01*
X89589429Y-93670192D01*
X89444322Y-93670192D01*
X89444826Y-93600413D01*
X89447096Y-93548159D01*
X89452068Y-93511949D01*
X89460713Y-93485299D01*
X89474005Y-93461722D01*
X89476943Y-93457338D01*
X89526313Y-93398249D01*
X89580109Y-93363947D01*
X89645602Y-93350331D01*
X89667842Y-93349665D01*
X89751115Y-93361962D01*
G36*
X91426093Y-93367780D02*
G01*
X91472672Y-93394723D01*
X91505057Y-93421466D01*
X91528742Y-93449484D01*
X91545059Y-93483748D01*
X91555339Y-93529227D01*
X91560914Y-93590892D01*
X91563116Y-93673711D01*
X91563371Y-93733246D01*
X91563371Y-93952391D01*
X91501686Y-93980044D01*
X91440000Y-94007697D01*
X91432743Y-93767670D01*
X91429744Y-93678028D01*
X91426598Y-93612962D01*
X91422701Y-93568026D01*
X91417447Y-93538770D01*
X91410231Y-93520748D01*
X91400450Y-93509511D01*
X91397312Y-93507079D01*
X91349761Y-93488083D01*
X91301697Y-93495600D01*
X91273086Y-93515543D01*
X91261447Y-93529675D01*
X91253391Y-93548220D01*
X91248271Y-93576334D01*
X91245441Y-93619173D01*
X91244256Y-93681895D01*
X91244057Y-93747261D01*
X91244018Y-93829268D01*
X91242614Y-93887316D01*
X91237914Y-93926465D01*
X91227987Y-93951780D01*
X91210903Y-93968323D01*
X91184732Y-93981156D01*
X91149775Y-93994491D01*
X91111596Y-94009007D01*
X91116141Y-93751389D01*
X91117971Y-93658519D01*
X91120112Y-93589889D01*
X91123181Y-93540711D01*
X91127794Y-93506198D01*
X91134568Y-93481562D01*
X91144119Y-93462016D01*
X91155634Y-93444770D01*
X91211190Y-93389680D01*
X91278980Y-93357822D01*
X91352713Y-93350191D01*
X91426093Y-93367780D01*
G37*
X91426093Y-93367780D02*
X91472672Y-93394723D01*
X91505057Y-93421466D01*
X91528742Y-93449484D01*
X91545059Y-93483748D01*
X91555339Y-93529227D01*
X91560914Y-93590892D01*
X91563116Y-93673711D01*
X91563371Y-93733246D01*
X91563371Y-93952391D01*
X91501686Y-93980044D01*
X91440000Y-94007697D01*
X91432743Y-93767670D01*
X91429744Y-93678028D01*
X91426598Y-93612962D01*
X91422701Y-93568026D01*
X91417447Y-93538770D01*
X91410231Y-93520748D01*
X91400450Y-93509511D01*
X91397312Y-93507079D01*
X91349761Y-93488083D01*
X91301697Y-93495600D01*
X91273086Y-93515543D01*
X91261447Y-93529675D01*
X91253391Y-93548220D01*
X91248271Y-93576334D01*
X91245441Y-93619173D01*
X91244256Y-93681895D01*
X91244057Y-93747261D01*
X91244018Y-93829268D01*
X91242614Y-93887316D01*
X91237914Y-93926465D01*
X91227987Y-93951780D01*
X91210903Y-93968323D01*
X91184732Y-93981156D01*
X91149775Y-93994491D01*
X91111596Y-94009007D01*
X91116141Y-93751389D01*
X91117971Y-93658519D01*
X91120112Y-93589889D01*
X91123181Y-93540711D01*
X91127794Y-93506198D01*
X91134568Y-93481562D01*
X91144119Y-93462016D01*
X91155634Y-93444770D01*
X91211190Y-93389680D01*
X91278980Y-93357822D01*
X91352713Y-93350191D01*
X91426093Y-93367780D01*
G36*
X90309744Y-93359918D02*
G01*
X90365201Y-93387568D01*
X90414148Y-93438480D01*
X90427629Y-93457338D01*
X90442314Y-93482015D01*
X90451842Y-93508816D01*
X90457293Y-93544587D01*
X90459747Y-93596169D01*
X90460286Y-93664267D01*
X90457852Y-93757588D01*
X90449394Y-93827657D01*
X90433174Y-93879931D01*
X90407454Y-93919869D01*
X90370497Y-93952929D01*
X90367782Y-93954886D01*
X90331360Y-93974908D01*
X90287502Y-93984815D01*
X90231724Y-93987257D01*
X90141048Y-93987257D01*
X90141010Y-94075283D01*
X90140166Y-94124308D01*
X90135024Y-94153065D01*
X90121587Y-94170311D01*
X90095858Y-94184808D01*
X90089679Y-94187769D01*
X90060764Y-94201648D01*
X90038376Y-94210414D01*
X90021729Y-94211171D01*
X90010036Y-94201023D01*
X90002510Y-94177073D01*
X89998366Y-94136426D01*
X89996815Y-94076186D01*
X89997071Y-93993455D01*
X89998349Y-93885339D01*
X89998748Y-93853000D01*
X90000185Y-93741524D01*
X90001472Y-93668603D01*
X90140971Y-93668603D01*
X90141755Y-93730499D01*
X90145240Y-93770997D01*
X90153124Y-93797708D01*
X90167105Y-93818244D01*
X90176597Y-93828260D01*
X90215404Y-93857567D01*
X90249763Y-93859952D01*
X90285216Y-93835750D01*
X90286114Y-93834857D01*
X90300539Y-93816153D01*
X90309313Y-93790732D01*
X90313739Y-93751584D01*
X90315118Y-93691697D01*
X90315143Y-93678430D01*
X90311812Y-93595901D01*
X90300969Y-93538691D01*
X90281340Y-93503766D01*
X90251650Y-93488094D01*
X90234491Y-93486514D01*
X90193766Y-93493926D01*
X90165832Y-93518330D01*
X90149017Y-93562980D01*
X90141650Y-93631130D01*
X90140971Y-93668603D01*
X90001472Y-93668603D01*
X90001708Y-93655245D01*
X90003677Y-93590333D01*
X90006450Y-93542958D01*
X90010388Y-93509290D01*
X90015849Y-93485498D01*
X90023192Y-93467753D01*
X90032777Y-93452224D01*
X90036887Y-93446381D01*
X90091405Y-93391185D01*
X90160336Y-93359890D01*
X90240072Y-93351165D01*
X90309744Y-93359918D01*
G37*
X90309744Y-93359918D02*
X90365201Y-93387568D01*
X90414148Y-93438480D01*
X90427629Y-93457338D01*
X90442314Y-93482015D01*
X90451842Y-93508816D01*
X90457293Y-93544587D01*
X90459747Y-93596169D01*
X90460286Y-93664267D01*
X90457852Y-93757588D01*
X90449394Y-93827657D01*
X90433174Y-93879931D01*
X90407454Y-93919869D01*
X90370497Y-93952929D01*
X90367782Y-93954886D01*
X90331360Y-93974908D01*
X90287502Y-93984815D01*
X90231724Y-93987257D01*
X90141048Y-93987257D01*
X90141010Y-94075283D01*
X90140166Y-94124308D01*
X90135024Y-94153065D01*
X90121587Y-94170311D01*
X90095858Y-94184808D01*
X90089679Y-94187769D01*
X90060764Y-94201648D01*
X90038376Y-94210414D01*
X90021729Y-94211171D01*
X90010036Y-94201023D01*
X90002510Y-94177073D01*
X89998366Y-94136426D01*
X89996815Y-94076186D01*
X89997071Y-93993455D01*
X89998349Y-93885339D01*
X89998748Y-93853000D01*
X90000185Y-93741524D01*
X90001472Y-93668603D01*
X90140971Y-93668603D01*
X90141755Y-93730499D01*
X90145240Y-93770997D01*
X90153124Y-93797708D01*
X90167105Y-93818244D01*
X90176597Y-93828260D01*
X90215404Y-93857567D01*
X90249763Y-93859952D01*
X90285216Y-93835750D01*
X90286114Y-93834857D01*
X90300539Y-93816153D01*
X90309313Y-93790732D01*
X90313739Y-93751584D01*
X90315118Y-93691697D01*
X90315143Y-93678430D01*
X90311812Y-93595901D01*
X90300969Y-93538691D01*
X90281340Y-93503766D01*
X90251650Y-93488094D01*
X90234491Y-93486514D01*
X90193766Y-93493926D01*
X90165832Y-93518330D01*
X90149017Y-93562980D01*
X90141650Y-93631130D01*
X90140971Y-93668603D01*
X90001472Y-93668603D01*
X90001708Y-93655245D01*
X90003677Y-93590333D01*
X90006450Y-93542958D01*
X90010388Y-93509290D01*
X90015849Y-93485498D01*
X90023192Y-93467753D01*
X90032777Y-93452224D01*
X90036887Y-93446381D01*
X90091405Y-93391185D01*
X90160336Y-93359890D01*
X90240072Y-93351165D01*
X90309744Y-93359918D01*
G36*
X73900337Y-95075258D02*
G01*
X73939819Y-95075659D01*
X74055508Y-95078451D01*
X74152397Y-95086742D01*
X74233789Y-95101424D01*
X74302985Y-95123385D01*
X74363288Y-95153514D01*
X74418000Y-95192702D01*
X74437541Y-95209724D01*
X74469958Y-95249555D01*
X74499188Y-95303605D01*
X74521717Y-95363515D01*
X74534029Y-95420931D01*
X74535308Y-95442148D01*
X74527291Y-95500961D01*
X74505809Y-95565205D01*
X74474709Y-95626013D01*
X74437842Y-95674522D01*
X74431854Y-95680374D01*
X74381129Y-95721513D01*
X74325583Y-95753627D01*
X74262012Y-95777557D01*
X74187214Y-95794145D01*
X74097986Y-95804233D01*
X73991126Y-95808661D01*
X73942180Y-95809037D01*
X73879946Y-95808737D01*
X73836180Y-95807484D01*
X73806777Y-95804746D01*
X73787629Y-95799993D01*
X73774631Y-95792693D01*
X73767663Y-95786459D01*
X73761082Y-95778886D01*
X73755920Y-95769116D01*
X73752005Y-95754532D01*
X73749165Y-95732518D01*
X73747228Y-95700456D01*
X73746024Y-95655728D01*
X73745380Y-95595718D01*
X73745125Y-95517809D01*
X73745086Y-95442148D01*
X73744838Y-95341233D01*
X73744891Y-95260619D01*
X73745851Y-95222014D01*
X73891841Y-95222014D01*
X73891841Y-95662281D01*
X73984974Y-95662196D01*
X74041015Y-95660588D01*
X74099709Y-95656448D01*
X74148680Y-95650656D01*
X74150170Y-95650418D01*
X74229316Y-95631282D01*
X74290706Y-95601479D01*
X74337403Y-95559070D01*
X74367073Y-95513153D01*
X74385355Y-95462218D01*
X74383937Y-95414392D01*
X74362720Y-95363125D01*
X74321219Y-95310091D01*
X74263710Y-95270792D01*
X74188958Y-95244523D01*
X74139000Y-95235227D01*
X74082292Y-95228699D01*
X74022189Y-95223974D01*
X73971069Y-95222009D01*
X73968041Y-95222000D01*
X73891841Y-95222014D01*
X73745851Y-95222014D01*
X73746448Y-95198043D01*
X73750710Y-95151247D01*
X73758878Y-95117970D01*
X73772152Y-95095951D01*
X73791734Y-95082931D01*
X73818825Y-95076649D01*
X73854626Y-95074845D01*
X73900337Y-95075258D01*
G37*
X73900337Y-95075258D02*
X73939819Y-95075659D01*
X74055508Y-95078451D01*
X74152397Y-95086742D01*
X74233789Y-95101424D01*
X74302985Y-95123385D01*
X74363288Y-95153514D01*
X74418000Y-95192702D01*
X74437541Y-95209724D01*
X74469958Y-95249555D01*
X74499188Y-95303605D01*
X74521717Y-95363515D01*
X74534029Y-95420931D01*
X74535308Y-95442148D01*
X74527291Y-95500961D01*
X74505809Y-95565205D01*
X74474709Y-95626013D01*
X74437842Y-95674522D01*
X74431854Y-95680374D01*
X74381129Y-95721513D01*
X74325583Y-95753627D01*
X74262012Y-95777557D01*
X74187214Y-95794145D01*
X74097986Y-95804233D01*
X73991126Y-95808661D01*
X73942180Y-95809037D01*
X73879946Y-95808737D01*
X73836180Y-95807484D01*
X73806777Y-95804746D01*
X73787629Y-95799993D01*
X73774631Y-95792693D01*
X73767663Y-95786459D01*
X73761082Y-95778886D01*
X73755920Y-95769116D01*
X73752005Y-95754532D01*
X73749165Y-95732518D01*
X73747228Y-95700456D01*
X73746024Y-95655728D01*
X73745380Y-95595718D01*
X73745125Y-95517809D01*
X73745086Y-95442148D01*
X73744838Y-95341233D01*
X73744891Y-95260619D01*
X73745851Y-95222014D01*
X73891841Y-95222014D01*
X73891841Y-95662281D01*
X73984974Y-95662196D01*
X74041015Y-95660588D01*
X74099709Y-95656448D01*
X74148680Y-95650656D01*
X74150170Y-95650418D01*
X74229316Y-95631282D01*
X74290706Y-95601479D01*
X74337403Y-95559070D01*
X74367073Y-95513153D01*
X74385355Y-95462218D01*
X74383937Y-95414392D01*
X74362720Y-95363125D01*
X74321219Y-95310091D01*
X74263710Y-95270792D01*
X74188958Y-95244523D01*
X74139000Y-95235227D01*
X74082292Y-95228699D01*
X74022189Y-95223974D01*
X73971069Y-95222009D01*
X73968041Y-95222000D01*
X73891841Y-95222014D01*
X73745851Y-95222014D01*
X73746448Y-95198043D01*
X73750710Y-95151247D01*
X73758878Y-95117970D01*
X73772152Y-95095951D01*
X73791734Y-95082931D01*
X73818825Y-95076649D01*
X73854626Y-95074845D01*
X73900337Y-95075258D01*
G36*
X75308914Y-95075338D02*
G01*
X75378322Y-95075710D01*
X75430711Y-95076577D01*
X75468861Y-95078138D01*
X75495549Y-95080595D01*
X75513555Y-95084149D01*
X75525659Y-95089002D01*
X75534639Y-95095353D01*
X75537890Y-95098276D01*
X75557665Y-95129334D01*
X75561226Y-95165020D01*
X75548217Y-95196702D01*
X75542202Y-95203105D01*
X75532473Y-95209313D01*
X75516807Y-95214102D01*
X75492300Y-95217706D01*
X75456047Y-95220356D01*
X75405143Y-95222287D01*
X75336682Y-95223731D01*
X75274091Y-95224610D01*
X75026374Y-95227659D01*
X75022989Y-95292570D01*
X75019603Y-95357481D01*
X75187750Y-95357481D01*
X75260749Y-95358111D01*
X75314191Y-95360745D01*
X75351080Y-95366501D01*
X75374420Y-95376496D01*
X75387214Y-95391848D01*
X75392466Y-95413674D01*
X75393263Y-95433930D01*
X75390785Y-95458784D01*
X75381431Y-95477098D01*
X75362325Y-95489829D01*
X75330590Y-95497933D01*
X75283349Y-95502368D01*
X75217725Y-95504091D01*
X75181907Y-95504237D01*
X75020730Y-95504237D01*
X75020730Y-95662281D01*
X75269086Y-95662281D01*
X75350495Y-95662394D01*
X75412366Y-95662904D01*
X75457740Y-95664062D01*
X75489654Y-95666122D01*
X75511149Y-95669338D01*
X75525265Y-95673964D01*
X75535040Y-95680251D01*
X75540019Y-95684859D01*
X75557098Y-95711752D01*
X75562597Y-95735659D01*
X75554745Y-95764859D01*
X75540019Y-95786459D01*
X75532162Y-95793258D01*
X75522020Y-95798538D01*
X75506864Y-95802490D01*
X75483967Y-95805305D01*
X75450599Y-95807174D01*
X75404033Y-95808290D01*
X75341541Y-95808843D01*
X75260394Y-95809025D01*
X75218286Y-95809037D01*
X75128110Y-95808957D01*
X75057784Y-95808590D01*
X75004579Y-95807744D01*
X74965768Y-95806228D01*
X74938621Y-95803851D01*
X74920410Y-95800421D01*
X74908408Y-95795746D01*
X74899886Y-95789636D01*
X74896552Y-95786459D01*
X74889953Y-95778862D01*
X74884781Y-95769062D01*
X74880862Y-95754431D01*
X74878024Y-95732344D01*
X74876093Y-95700174D01*
X74874896Y-95655295D01*
X74874260Y-95595081D01*
X74874011Y-95516905D01*
X74873974Y-95444115D01*
X74874008Y-95350899D01*
X74874243Y-95277623D01*
X74874878Y-95221650D01*
X74876114Y-95180343D01*
X74878152Y-95151064D01*
X74881191Y-95131176D01*
X74885431Y-95118042D01*
X74891073Y-95109024D01*
X74898317Y-95101485D01*
X74900102Y-95099804D01*
X74908763Y-95092364D01*
X74918826Y-95086601D01*
X74933083Y-95082304D01*
X74954325Y-95079256D01*
X74985344Y-95077243D01*
X75028931Y-95076052D01*
X75087877Y-95075467D01*
X75164974Y-95075275D01*
X75219707Y-95075259D01*
X75308914Y-95075338D01*
G37*
X75308914Y-95075338D02*
X75378322Y-95075710D01*
X75430711Y-95076577D01*
X75468861Y-95078138D01*
X75495549Y-95080595D01*
X75513555Y-95084149D01*
X75525659Y-95089002D01*
X75534639Y-95095353D01*
X75537890Y-95098276D01*
X75557665Y-95129334D01*
X75561226Y-95165020D01*
X75548217Y-95196702D01*
X75542202Y-95203105D01*
X75532473Y-95209313D01*
X75516807Y-95214102D01*
X75492300Y-95217706D01*
X75456047Y-95220356D01*
X75405143Y-95222287D01*
X75336682Y-95223731D01*
X75274091Y-95224610D01*
X75026374Y-95227659D01*
X75022989Y-95292570D01*
X75019603Y-95357481D01*
X75187750Y-95357481D01*
X75260749Y-95358111D01*
X75314191Y-95360745D01*
X75351080Y-95366501D01*
X75374420Y-95376496D01*
X75387214Y-95391848D01*
X75392466Y-95413674D01*
X75393263Y-95433930D01*
X75390785Y-95458784D01*
X75381431Y-95477098D01*
X75362325Y-95489829D01*
X75330590Y-95497933D01*
X75283349Y-95502368D01*
X75217725Y-95504091D01*
X75181907Y-95504237D01*
X75020730Y-95504237D01*
X75020730Y-95662281D01*
X75269086Y-95662281D01*
X75350495Y-95662394D01*
X75412366Y-95662904D01*
X75457740Y-95664062D01*
X75489654Y-95666122D01*
X75511149Y-95669338D01*
X75525265Y-95673964D01*
X75535040Y-95680251D01*
X75540019Y-95684859D01*
X75557098Y-95711752D01*
X75562597Y-95735659D01*
X75554745Y-95764859D01*
X75540019Y-95786459D01*
X75532162Y-95793258D01*
X75522020Y-95798538D01*
X75506864Y-95802490D01*
X75483967Y-95805305D01*
X75450599Y-95807174D01*
X75404033Y-95808290D01*
X75341541Y-95808843D01*
X75260394Y-95809025D01*
X75218286Y-95809037D01*
X75128110Y-95808957D01*
X75057784Y-95808590D01*
X75004579Y-95807744D01*
X74965768Y-95806228D01*
X74938621Y-95803851D01*
X74920410Y-95800421D01*
X74908408Y-95795746D01*
X74899886Y-95789636D01*
X74896552Y-95786459D01*
X74889953Y-95778862D01*
X74884781Y-95769062D01*
X74880862Y-95754431D01*
X74878024Y-95732344D01*
X74876093Y-95700174D01*
X74874896Y-95655295D01*
X74874260Y-95595081D01*
X74874011Y-95516905D01*
X74873974Y-95444115D01*
X74874008Y-95350899D01*
X74874243Y-95277623D01*
X74874878Y-95221650D01*
X74876114Y-95180343D01*
X74878152Y-95151064D01*
X74881191Y-95131176D01*
X74885431Y-95118042D01*
X74891073Y-95109024D01*
X74898317Y-95101485D01*
X74900102Y-95099804D01*
X74908763Y-95092364D01*
X74918826Y-95086601D01*
X74933083Y-95082304D01*
X74954325Y-95079256D01*
X74985344Y-95077243D01*
X75028931Y-95076052D01*
X75087877Y-95075467D01*
X75164974Y-95075275D01*
X75219707Y-95075259D01*
X75308914Y-95075338D01*
G36*
X76330005Y-95076543D02*
G01*
X76404820Y-95081773D01*
X76474402Y-95089942D01*
X76534706Y-95100742D01*
X76581688Y-95113865D01*
X76611302Y-95129005D01*
X76615848Y-95133461D01*
X76631654Y-95168042D01*
X76626861Y-95203543D01*
X76602344Y-95233917D01*
X76601174Y-95234788D01*
X76586754Y-95244146D01*
X76571700Y-95249068D01*
X76550703Y-95249665D01*
X76518451Y-95246053D01*
X76469635Y-95238346D01*
X76465708Y-95237697D01*
X76392969Y-95228761D01*
X76314491Y-95224353D01*
X76235781Y-95224311D01*
X76162347Y-95228471D01*
X76099697Y-95236671D01*
X76053338Y-95248749D01*
X76050292Y-95249963D01*
X76016660Y-95268807D01*
X76004844Y-95287877D01*
X76014094Y-95306631D01*
X76043661Y-95324529D01*
X76092797Y-95341029D01*
X76160751Y-95355588D01*
X76206063Y-95362598D01*
X76300252Y-95376081D01*
X76375164Y-95388406D01*
X76433991Y-95400641D01*
X76479923Y-95413853D01*
X76516153Y-95429109D01*
X76545870Y-95447477D01*
X76572266Y-95470023D01*
X76593478Y-95492163D01*
X76618643Y-95523011D01*
X76631027Y-95549537D01*
X76634900Y-95582218D01*
X76635041Y-95594187D01*
X76632132Y-95633904D01*
X76620506Y-95663451D01*
X76600385Y-95689678D01*
X76559492Y-95729768D01*
X76513891Y-95760341D01*
X76460195Y-95782395D01*
X76395016Y-95796927D01*
X76314964Y-95804933D01*
X76216651Y-95807410D01*
X76200419Y-95807369D01*
X76134859Y-95806010D01*
X76069842Y-95802922D01*
X76012456Y-95798548D01*
X75969786Y-95793332D01*
X75966336Y-95792733D01*
X75923912Y-95782683D01*
X75887928Y-95769988D01*
X75867558Y-95758382D01*
X75848601Y-95727764D01*
X75847281Y-95692110D01*
X75863623Y-95660336D01*
X75867279Y-95656743D01*
X75882393Y-95646068D01*
X75901293Y-95641468D01*
X75930546Y-95642251D01*
X75966057Y-95646319D01*
X76005738Y-95649954D01*
X76061363Y-95653020D01*
X76126302Y-95655245D01*
X76193923Y-95656356D01*
X76211708Y-95656429D01*
X76279580Y-95656156D01*
X76329254Y-95654838D01*
X76365098Y-95652019D01*
X76391484Y-95647242D01*
X76412782Y-95640049D01*
X76425582Y-95634059D01*
X76453708Y-95617425D01*
X76471640Y-95602360D01*
X76474261Y-95598089D01*
X76468732Y-95580455D01*
X76442448Y-95563384D01*
X76397230Y-95547650D01*
X76334900Y-95534030D01*
X76316537Y-95530996D01*
X76220618Y-95515930D01*
X76144067Y-95503338D01*
X76083928Y-95492303D01*
X76037248Y-95481912D01*
X76001071Y-95471248D01*
X75972443Y-95459397D01*
X75948410Y-95445443D01*
X75926016Y-95428473D01*
X75902306Y-95407570D01*
X75894328Y-95400241D01*
X75866355Y-95372891D01*
X75851548Y-95351221D01*
X75845756Y-95326424D01*
X75844819Y-95295175D01*
X75855133Y-95233897D01*
X75885956Y-95181832D01*
X75937113Y-95139150D01*
X76008425Y-95106017D01*
X76059308Y-95091156D01*
X76114608Y-95081558D01*
X76180855Y-95076128D01*
X76254002Y-95074559D01*
X76330005Y-95076543D01*
G37*
X76330005Y-95076543D02*
X76404820Y-95081773D01*
X76474402Y-95089942D01*
X76534706Y-95100742D01*
X76581688Y-95113865D01*
X76611302Y-95129005D01*
X76615848Y-95133461D01*
X76631654Y-95168042D01*
X76626861Y-95203543D01*
X76602344Y-95233917D01*
X76601174Y-95234788D01*
X76586754Y-95244146D01*
X76571700Y-95249068D01*
X76550703Y-95249665D01*
X76518451Y-95246053D01*
X76469635Y-95238346D01*
X76465708Y-95237697D01*
X76392969Y-95228761D01*
X76314491Y-95224353D01*
X76235781Y-95224311D01*
X76162347Y-95228471D01*
X76099697Y-95236671D01*
X76053338Y-95248749D01*
X76050292Y-95249963D01*
X76016660Y-95268807D01*
X76004844Y-95287877D01*
X76014094Y-95306631D01*
X76043661Y-95324529D01*
X76092797Y-95341029D01*
X76160751Y-95355588D01*
X76206063Y-95362598D01*
X76300252Y-95376081D01*
X76375164Y-95388406D01*
X76433991Y-95400641D01*
X76479923Y-95413853D01*
X76516153Y-95429109D01*
X76545870Y-95447477D01*
X76572266Y-95470023D01*
X76593478Y-95492163D01*
X76618643Y-95523011D01*
X76631027Y-95549537D01*
X76634900Y-95582218D01*
X76635041Y-95594187D01*
X76632132Y-95633904D01*
X76620506Y-95663451D01*
X76600385Y-95689678D01*
X76559492Y-95729768D01*
X76513891Y-95760341D01*
X76460195Y-95782395D01*
X76395016Y-95796927D01*
X76314964Y-95804933D01*
X76216651Y-95807410D01*
X76200419Y-95807369D01*
X76134859Y-95806010D01*
X76069842Y-95802922D01*
X76012456Y-95798548D01*
X75969786Y-95793332D01*
X75966336Y-95792733D01*
X75923912Y-95782683D01*
X75887928Y-95769988D01*
X75867558Y-95758382D01*
X75848601Y-95727764D01*
X75847281Y-95692110D01*
X75863623Y-95660336D01*
X75867279Y-95656743D01*
X75882393Y-95646068D01*
X75901293Y-95641468D01*
X75930546Y-95642251D01*
X75966057Y-95646319D01*
X76005738Y-95649954D01*
X76061363Y-95653020D01*
X76126302Y-95655245D01*
X76193923Y-95656356D01*
X76211708Y-95656429D01*
X76279580Y-95656156D01*
X76329254Y-95654838D01*
X76365098Y-95652019D01*
X76391484Y-95647242D01*
X76412782Y-95640049D01*
X76425582Y-95634059D01*
X76453708Y-95617425D01*
X76471640Y-95602360D01*
X76474261Y-95598089D01*
X76468732Y-95580455D01*
X76442448Y-95563384D01*
X76397230Y-95547650D01*
X76334900Y-95534030D01*
X76316537Y-95530996D01*
X76220618Y-95515930D01*
X76144067Y-95503338D01*
X76083928Y-95492303D01*
X76037248Y-95481912D01*
X76001071Y-95471248D01*
X75972443Y-95459397D01*
X75948410Y-95445443D01*
X75926016Y-95428473D01*
X75902306Y-95407570D01*
X75894328Y-95400241D01*
X75866355Y-95372891D01*
X75851548Y-95351221D01*
X75845756Y-95326424D01*
X75844819Y-95295175D01*
X75855133Y-95233897D01*
X75885956Y-95181832D01*
X75937113Y-95139150D01*
X76008425Y-95106017D01*
X76059308Y-95091156D01*
X76114608Y-95081558D01*
X76180855Y-95076128D01*
X76254002Y-95074559D01*
X76330005Y-95076543D01*
G36*
X77097886Y-95097837D02*
G01*
X77104466Y-95105410D01*
X77109629Y-95115179D01*
X77113544Y-95129763D01*
X77116384Y-95151777D01*
X77118321Y-95183840D01*
X77119525Y-95228567D01*
X77120169Y-95288577D01*
X77120424Y-95366486D01*
X77120463Y-95442148D01*
X77120394Y-95535994D01*
X77120070Y-95609881D01*
X77119322Y-95666424D01*
X77117976Y-95708241D01*
X77115862Y-95737949D01*
X77112808Y-95758165D01*
X77108642Y-95771506D01*
X77103192Y-95780590D01*
X77097886Y-95786459D01*
X77064882Y-95806139D01*
X77029717Y-95804373D01*
X76998253Y-95782909D01*
X76991024Y-95774529D01*
X76985374Y-95764806D01*
X76981109Y-95751053D01*
X76978035Y-95730581D01*
X76975956Y-95700704D01*
X76974678Y-95658733D01*
X76974007Y-95601981D01*
X76973749Y-95527759D01*
X76973708Y-95443729D01*
X76973708Y-95130677D01*
X77001417Y-95102968D01*
X77035571Y-95079655D01*
X77068702Y-95078815D01*
X77097886Y-95097837D01*
G37*
X77097886Y-95097837D02*
X77104466Y-95105410D01*
X77109629Y-95115179D01*
X77113544Y-95129763D01*
X77116384Y-95151777D01*
X77118321Y-95183840D01*
X77119525Y-95228567D01*
X77120169Y-95288577D01*
X77120424Y-95366486D01*
X77120463Y-95442148D01*
X77120394Y-95535994D01*
X77120070Y-95609881D01*
X77119322Y-95666424D01*
X77117976Y-95708241D01*
X77115862Y-95737949D01*
X77112808Y-95758165D01*
X77108642Y-95771506D01*
X77103192Y-95780590D01*
X77097886Y-95786459D01*
X77064882Y-95806139D01*
X77029717Y-95804373D01*
X76998253Y-95782909D01*
X76991024Y-95774529D01*
X76985374Y-95764806D01*
X76981109Y-95751053D01*
X76978035Y-95730581D01*
X76975956Y-95700704D01*
X76974678Y-95658733D01*
X76974007Y-95601981D01*
X76973749Y-95527759D01*
X76973708Y-95443729D01*
X76973708Y-95130677D01*
X77001417Y-95102968D01*
X77035571Y-95079655D01*
X77068702Y-95078815D01*
X77097886Y-95097837D01*
G36*
X78071627Y-95080791D02*
G01*
X78140143Y-95092287D01*
X78192765Y-95110159D01*
X78227000Y-95133691D01*
X78236329Y-95147116D01*
X78245815Y-95178340D01*
X78239431Y-95206587D01*
X78219278Y-95233374D01*
X78187963Y-95245905D01*
X78142525Y-95244888D01*
X78107382Y-95238098D01*
X78029289Y-95225163D01*
X77949482Y-95223934D01*
X77860153Y-95234433D01*
X77835479Y-95238882D01*
X77752417Y-95262300D01*
X77687435Y-95297137D01*
X77641247Y-95342796D01*
X77614563Y-95398686D01*
X77609045Y-95427580D01*
X77612657Y-95486204D01*
X77635979Y-95538071D01*
X77676884Y-95582170D01*
X77733249Y-95617491D01*
X77802948Y-95643021D01*
X77883856Y-95657751D01*
X77973848Y-95660670D01*
X78070798Y-95650767D01*
X78076272Y-95649833D01*
X78114833Y-95642651D01*
X78136214Y-95635713D01*
X78145481Y-95625419D01*
X78147702Y-95608168D01*
X78147752Y-95599033D01*
X78147752Y-95560681D01*
X78079277Y-95560681D01*
X78018808Y-95556539D01*
X77977543Y-95543339D01*
X77953533Y-95519922D01*
X77944831Y-95485128D01*
X77944725Y-95480586D01*
X77949816Y-95450846D01*
X77967275Y-95429611D01*
X77999769Y-95415558D01*
X78049965Y-95407365D01*
X78098585Y-95404353D01*
X78169252Y-95402625D01*
X78220510Y-95405262D01*
X78255469Y-95414992D01*
X78277238Y-95434545D01*
X78288928Y-95466648D01*
X78293648Y-95514030D01*
X78294508Y-95576263D01*
X78293099Y-95645727D01*
X78288860Y-95692978D01*
X78281772Y-95718204D01*
X78280397Y-95720180D01*
X78241480Y-95751700D01*
X78184422Y-95776662D01*
X78112839Y-95794532D01*
X78030350Y-95804778D01*
X77940569Y-95806865D01*
X77847116Y-95800260D01*
X77792152Y-95792148D01*
X77705942Y-95767746D01*
X77625816Y-95727854D01*
X77558731Y-95676079D01*
X77548535Y-95665731D01*
X77515406Y-95622227D01*
X77485514Y-95568310D01*
X77462351Y-95511784D01*
X77449410Y-95460451D01*
X77447850Y-95440736D01*
X77454490Y-95399611D01*
X77472140Y-95348444D01*
X77497411Y-95294586D01*
X77526919Y-95245387D01*
X77552989Y-95212526D01*
X77613943Y-95163644D01*
X77692739Y-95124737D01*
X77786551Y-95096686D01*
X77892558Y-95080371D01*
X77989708Y-95076384D01*
X78071627Y-95080791D01*
G37*
X78071627Y-95080791D02*
X78140143Y-95092287D01*
X78192765Y-95110159D01*
X78227000Y-95133691D01*
X78236329Y-95147116D01*
X78245815Y-95178340D01*
X78239431Y-95206587D01*
X78219278Y-95233374D01*
X78187963Y-95245905D01*
X78142525Y-95244888D01*
X78107382Y-95238098D01*
X78029289Y-95225163D01*
X77949482Y-95223934D01*
X77860153Y-95234433D01*
X77835479Y-95238882D01*
X77752417Y-95262300D01*
X77687435Y-95297137D01*
X77641247Y-95342796D01*
X77614563Y-95398686D01*
X77609045Y-95427580D01*
X77612657Y-95486204D01*
X77635979Y-95538071D01*
X77676884Y-95582170D01*
X77733249Y-95617491D01*
X77802948Y-95643021D01*
X77883856Y-95657751D01*
X77973848Y-95660670D01*
X78070798Y-95650767D01*
X78076272Y-95649833D01*
X78114833Y-95642651D01*
X78136214Y-95635713D01*
X78145481Y-95625419D01*
X78147702Y-95608168D01*
X78147752Y-95599033D01*
X78147752Y-95560681D01*
X78079277Y-95560681D01*
X78018808Y-95556539D01*
X77977543Y-95543339D01*
X77953533Y-95519922D01*
X77944831Y-95485128D01*
X77944725Y-95480586D01*
X77949816Y-95450846D01*
X77967275Y-95429611D01*
X77999769Y-95415558D01*
X78049965Y-95407365D01*
X78098585Y-95404353D01*
X78169252Y-95402625D01*
X78220510Y-95405262D01*
X78255469Y-95414992D01*
X78277238Y-95434545D01*
X78288928Y-95466648D01*
X78293648Y-95514030D01*
X78294508Y-95576263D01*
X78293099Y-95645727D01*
X78288860Y-95692978D01*
X78281772Y-95718204D01*
X78280397Y-95720180D01*
X78241480Y-95751700D01*
X78184422Y-95776662D01*
X78112839Y-95794532D01*
X78030350Y-95804778D01*
X77940569Y-95806865D01*
X77847116Y-95800260D01*
X77792152Y-95792148D01*
X77705942Y-95767746D01*
X77625816Y-95727854D01*
X77558731Y-95676079D01*
X77548535Y-95665731D01*
X77515406Y-95622227D01*
X77485514Y-95568310D01*
X77462351Y-95511784D01*
X77449410Y-95460451D01*
X77447850Y-95440736D01*
X77454490Y-95399611D01*
X77472140Y-95348444D01*
X77497411Y-95294586D01*
X77526919Y-95245387D01*
X77552989Y-95212526D01*
X77613943Y-95163644D01*
X77692739Y-95124737D01*
X77786551Y-95096686D01*
X77892558Y-95080371D01*
X77989708Y-95076384D01*
X78071627Y-95080791D01*
G36*
X78721594Y-95079640D02*
G01*
X78745160Y-95093465D01*
X78775973Y-95116073D01*
X78815630Y-95148530D01*
X78865728Y-95191900D01*
X78927865Y-95247250D01*
X79003636Y-95315643D01*
X79090374Y-95394276D01*
X79270997Y-95558070D01*
X79276641Y-95338221D01*
X79278679Y-95262543D01*
X79280645Y-95206186D01*
X79282974Y-95165898D01*
X79286102Y-95138427D01*
X79290463Y-95120521D01*
X79296492Y-95108929D01*
X79304624Y-95100400D01*
X79308936Y-95096815D01*
X79343467Y-95077862D01*
X79376325Y-95080633D01*
X79402390Y-95096825D01*
X79429041Y-95118391D01*
X79432356Y-95433343D01*
X79433273Y-95525971D01*
X79433740Y-95598736D01*
X79433595Y-95654353D01*
X79432676Y-95695534D01*
X79430821Y-95724995D01*
X79427869Y-95745447D01*
X79423658Y-95759605D01*
X79418026Y-95770183D01*
X79411781Y-95778666D01*
X79398269Y-95794399D01*
X79384825Y-95804828D01*
X79369584Y-95808831D01*
X79350682Y-95805286D01*
X79326253Y-95793071D01*
X79294435Y-95771063D01*
X79253360Y-95738141D01*
X79201166Y-95693183D01*
X79135986Y-95635067D01*
X79062152Y-95568291D01*
X78796863Y-95327650D01*
X78791219Y-95546781D01*
X78789177Y-95622320D01*
X78787206Y-95678546D01*
X78784869Y-95718716D01*
X78781727Y-95746088D01*
X78777344Y-95763920D01*
X78771284Y-95775471D01*
X78763108Y-95783999D01*
X78758924Y-95787474D01*
X78721943Y-95806564D01*
X78687000Y-95803685D01*
X78656572Y-95779292D01*
X78649611Y-95769478D01*
X78644185Y-95758018D01*
X78640105Y-95742160D01*
X78637179Y-95719155D01*
X78635216Y-95686254D01*
X78634025Y-95640708D01*
X78633416Y-95579765D01*
X78633197Y-95500678D01*
X78633174Y-95442148D01*
X78633248Y-95350599D01*
X78633595Y-95278879D01*
X78634407Y-95224237D01*
X78635875Y-95183924D01*
X78638189Y-95155190D01*
X78641541Y-95135285D01*
X78646120Y-95121460D01*
X78652119Y-95110964D01*
X78656572Y-95105003D01*
X78667858Y-95090883D01*
X78678407Y-95080221D01*
X78689815Y-95074084D01*
X78703678Y-95073535D01*
X78721594Y-95079640D01*
G37*
X78721594Y-95079640D02*
X78745160Y-95093465D01*
X78775973Y-95116073D01*
X78815630Y-95148530D01*
X78865728Y-95191900D01*
X78927865Y-95247250D01*
X79003636Y-95315643D01*
X79090374Y-95394276D01*
X79270997Y-95558070D01*
X79276641Y-95338221D01*
X79278679Y-95262543D01*
X79280645Y-95206186D01*
X79282974Y-95165898D01*
X79286102Y-95138427D01*
X79290463Y-95120521D01*
X79296492Y-95108929D01*
X79304624Y-95100400D01*
X79308936Y-95096815D01*
X79343467Y-95077862D01*
X79376325Y-95080633D01*
X79402390Y-95096825D01*
X79429041Y-95118391D01*
X79432356Y-95433343D01*
X79433273Y-95525971D01*
X79433740Y-95598736D01*
X79433595Y-95654353D01*
X79432676Y-95695534D01*
X79430821Y-95724995D01*
X79427869Y-95745447D01*
X79423658Y-95759605D01*
X79418026Y-95770183D01*
X79411781Y-95778666D01*
X79398269Y-95794399D01*
X79384825Y-95804828D01*
X79369584Y-95808831D01*
X79350682Y-95805286D01*
X79326253Y-95793071D01*
X79294435Y-95771063D01*
X79253360Y-95738141D01*
X79201166Y-95693183D01*
X79135986Y-95635067D01*
X79062152Y-95568291D01*
X78796863Y-95327650D01*
X78791219Y-95546781D01*
X78789177Y-95622320D01*
X78787206Y-95678546D01*
X78784869Y-95718716D01*
X78781727Y-95746088D01*
X78777344Y-95763920D01*
X78771284Y-95775471D01*
X78763108Y-95783999D01*
X78758924Y-95787474D01*
X78721943Y-95806564D01*
X78687000Y-95803685D01*
X78656572Y-95779292D01*
X78649611Y-95769478D01*
X78644185Y-95758018D01*
X78640105Y-95742160D01*
X78637179Y-95719155D01*
X78635216Y-95686254D01*
X78634025Y-95640708D01*
X78633416Y-95579765D01*
X78633197Y-95500678D01*
X78633174Y-95442148D01*
X78633248Y-95350599D01*
X78633595Y-95278879D01*
X78634407Y-95224237D01*
X78635875Y-95183924D01*
X78638189Y-95155190D01*
X78641541Y-95135285D01*
X78646120Y-95121460D01*
X78652119Y-95110964D01*
X78656572Y-95105003D01*
X78667858Y-95090883D01*
X78678407Y-95080221D01*
X78689815Y-95074084D01*
X78703678Y-95073535D01*
X78721594Y-95079640D01*
G36*
X80252051Y-95075452D02*
G01*
X80328409Y-95076366D01*
X80386925Y-95078503D01*
X80429963Y-95082367D01*
X80459891Y-95088459D01*
X80479076Y-95097282D01*
X80489884Y-95109338D01*
X80494681Y-95125131D01*
X80495835Y-95145162D01*
X80495841Y-95147527D01*
X80494839Y-95170184D01*
X80490104Y-95187695D01*
X80479041Y-95200766D01*
X80459056Y-95210105D01*
X80427554Y-95216419D01*
X80381940Y-95220414D01*
X80319621Y-95222798D01*
X80238001Y-95224278D01*
X80212985Y-95224606D01*
X79970908Y-95227659D01*
X79967522Y-95292570D01*
X79964137Y-95357481D01*
X80132284Y-95357481D01*
X80197974Y-95357723D01*
X80244880Y-95358748D01*
X80276791Y-95361003D01*
X80297499Y-95364934D01*
X80310792Y-95370990D01*
X80320463Y-95379616D01*
X80320525Y-95379685D01*
X80338064Y-95413304D01*
X80337430Y-95449640D01*
X80319022Y-95480615D01*
X80315379Y-95483799D01*
X80302449Y-95492004D01*
X80284732Y-95497713D01*
X80258278Y-95501354D01*
X80219140Y-95503359D01*
X80163370Y-95504156D01*
X80127702Y-95504237D01*
X79965263Y-95504237D01*
X79965263Y-95662281D01*
X80211869Y-95662281D01*
X80293288Y-95662423D01*
X80355118Y-95663006D01*
X80400345Y-95664260D01*
X80431956Y-95666419D01*
X80452939Y-95669715D01*
X80466281Y-95674381D01*
X80474969Y-95680649D01*
X80477158Y-95682925D01*
X80493322Y-95714472D01*
X80494505Y-95750360D01*
X80481244Y-95781477D01*
X80470751Y-95791463D01*
X80459837Y-95796961D01*
X80442925Y-95801214D01*
X80417341Y-95804372D01*
X80380409Y-95806584D01*
X80329454Y-95807998D01*
X80261802Y-95808764D01*
X80174777Y-95809030D01*
X80155102Y-95809037D01*
X80066619Y-95808979D01*
X79997935Y-95808659D01*
X79946272Y-95807859D01*
X79908853Y-95806359D01*
X79882898Y-95803941D01*
X79865630Y-95800386D01*
X79854270Y-95795474D01*
X79846040Y-95788987D01*
X79841525Y-95784330D01*
X79834729Y-95776081D01*
X79829420Y-95765861D01*
X79825414Y-95750992D01*
X79822529Y-95728794D01*
X79820582Y-95696585D01*
X79819389Y-95651688D01*
X79818769Y-95591420D01*
X79818537Y-95513103D01*
X79818508Y-95447186D01*
X79818579Y-95354820D01*
X79818916Y-95282309D01*
X79819706Y-95226929D01*
X79821134Y-95185957D01*
X79823387Y-95156670D01*
X79826651Y-95136345D01*
X79831112Y-95122258D01*
X79836956Y-95111687D01*
X79841905Y-95105003D01*
X79865302Y-95075259D01*
X80155482Y-95075259D01*
X80252051Y-95075452D01*
G37*
X80252051Y-95075452D02*
X80328409Y-95076366D01*
X80386925Y-95078503D01*
X80429963Y-95082367D01*
X80459891Y-95088459D01*
X80479076Y-95097282D01*
X80489884Y-95109338D01*
X80494681Y-95125131D01*
X80495835Y-95145162D01*
X80495841Y-95147527D01*
X80494839Y-95170184D01*
X80490104Y-95187695D01*
X80479041Y-95200766D01*
X80459056Y-95210105D01*
X80427554Y-95216419D01*
X80381940Y-95220414D01*
X80319621Y-95222798D01*
X80238001Y-95224278D01*
X80212985Y-95224606D01*
X79970908Y-95227659D01*
X79967522Y-95292570D01*
X79964137Y-95357481D01*
X80132284Y-95357481D01*
X80197974Y-95357723D01*
X80244880Y-95358748D01*
X80276791Y-95361003D01*
X80297499Y-95364934D01*
X80310792Y-95370990D01*
X80320463Y-95379616D01*
X80320525Y-95379685D01*
X80338064Y-95413304D01*
X80337430Y-95449640D01*
X80319022Y-95480615D01*
X80315379Y-95483799D01*
X80302449Y-95492004D01*
X80284732Y-95497713D01*
X80258278Y-95501354D01*
X80219140Y-95503359D01*
X80163370Y-95504156D01*
X80127702Y-95504237D01*
X79965263Y-95504237D01*
X79965263Y-95662281D01*
X80211869Y-95662281D01*
X80293288Y-95662423D01*
X80355118Y-95663006D01*
X80400345Y-95664260D01*
X80431956Y-95666419D01*
X80452939Y-95669715D01*
X80466281Y-95674381D01*
X80474969Y-95680649D01*
X80477158Y-95682925D01*
X80493322Y-95714472D01*
X80494505Y-95750360D01*
X80481244Y-95781477D01*
X80470751Y-95791463D01*
X80459837Y-95796961D01*
X80442925Y-95801214D01*
X80417341Y-95804372D01*
X80380409Y-95806584D01*
X80329454Y-95807998D01*
X80261802Y-95808764D01*
X80174777Y-95809030D01*
X80155102Y-95809037D01*
X80066619Y-95808979D01*
X79997935Y-95808659D01*
X79946272Y-95807859D01*
X79908853Y-95806359D01*
X79882898Y-95803941D01*
X79865630Y-95800386D01*
X79854270Y-95795474D01*
X79846040Y-95788987D01*
X79841525Y-95784330D01*
X79834729Y-95776081D01*
X79829420Y-95765861D01*
X79825414Y-95750992D01*
X79822529Y-95728794D01*
X79820582Y-95696585D01*
X79819389Y-95651688D01*
X79818769Y-95591420D01*
X79818537Y-95513103D01*
X79818508Y-95447186D01*
X79818579Y-95354820D01*
X79818916Y-95282309D01*
X79819706Y-95226929D01*
X79821134Y-95185957D01*
X79823387Y-95156670D01*
X79826651Y-95136345D01*
X79831112Y-95122258D01*
X79836956Y-95111687D01*
X79841905Y-95105003D01*
X79865302Y-95075259D01*
X80155482Y-95075259D01*
X80252051Y-95075452D01*
G36*
X81040017Y-95075467D02*
G01*
X81168996Y-95079828D01*
X81278699Y-95093053D01*
X81370934Y-95115933D01*
X81447510Y-95149262D01*
X81510235Y-95193830D01*
X81560920Y-95250428D01*
X81601371Y-95319850D01*
X81602167Y-95321543D01*
X81626309Y-95383675D01*
X81634911Y-95438701D01*
X81627939Y-95494079D01*
X81605362Y-95557265D01*
X81601080Y-95566881D01*
X81571880Y-95623158D01*
X81539064Y-95666643D01*
X81496710Y-95703609D01*
X81438898Y-95740327D01*
X81435539Y-95742244D01*
X81385212Y-95766419D01*
X81328329Y-95784474D01*
X81261235Y-95797031D01*
X81180273Y-95804714D01*
X81081790Y-95808145D01*
X81046994Y-95808443D01*
X80881302Y-95809037D01*
X80857905Y-95779292D01*
X80850965Y-95769511D01*
X80845550Y-95758089D01*
X80841473Y-95742287D01*
X80838545Y-95719367D01*
X80836575Y-95686588D01*
X80835933Y-95662281D01*
X80992552Y-95662281D01*
X81086434Y-95662281D01*
X81141372Y-95660675D01*
X81197768Y-95656447D01*
X81244053Y-95650484D01*
X81246847Y-95649982D01*
X81329056Y-95627928D01*
X81392822Y-95594792D01*
X81440160Y-95549039D01*
X81473090Y-95489131D01*
X81478816Y-95473253D01*
X81484429Y-95448525D01*
X81481999Y-95424094D01*
X81470175Y-95391592D01*
X81463048Y-95375626D01*
X81439708Y-95333198D01*
X81411588Y-95303432D01*
X81380648Y-95282703D01*
X81318674Y-95255729D01*
X81239359Y-95236190D01*
X81146961Y-95224938D01*
X81080041Y-95222462D01*
X80992552Y-95222014D01*
X80992552Y-95662281D01*
X80835933Y-95662281D01*
X80835376Y-95641213D01*
X80834758Y-95580503D01*
X80834533Y-95501718D01*
X80834508Y-95440112D01*
X80834508Y-95130677D01*
X80862217Y-95102968D01*
X80874514Y-95091736D01*
X80887811Y-95084045D01*
X80906380Y-95079232D01*
X80934494Y-95076638D01*
X80976425Y-95075602D01*
X81036445Y-95075462D01*
X81040017Y-95075467D01*
G37*
X81040017Y-95075467D02*
X81168996Y-95079828D01*
X81278699Y-95093053D01*
X81370934Y-95115933D01*
X81447510Y-95149262D01*
X81510235Y-95193830D01*
X81560920Y-95250428D01*
X81601371Y-95319850D01*
X81602167Y-95321543D01*
X81626309Y-95383675D01*
X81634911Y-95438701D01*
X81627939Y-95494079D01*
X81605362Y-95557265D01*
X81601080Y-95566881D01*
X81571880Y-95623158D01*
X81539064Y-95666643D01*
X81496710Y-95703609D01*
X81438898Y-95740327D01*
X81435539Y-95742244D01*
X81385212Y-95766419D01*
X81328329Y-95784474D01*
X81261235Y-95797031D01*
X81180273Y-95804714D01*
X81081790Y-95808145D01*
X81046994Y-95808443D01*
X80881302Y-95809037D01*
X80857905Y-95779292D01*
X80850965Y-95769511D01*
X80845550Y-95758089D01*
X80841473Y-95742287D01*
X80838545Y-95719367D01*
X80836575Y-95686588D01*
X80835933Y-95662281D01*
X80992552Y-95662281D01*
X81086434Y-95662281D01*
X81141372Y-95660675D01*
X81197768Y-95656447D01*
X81244053Y-95650484D01*
X81246847Y-95649982D01*
X81329056Y-95627928D01*
X81392822Y-95594792D01*
X81440160Y-95549039D01*
X81473090Y-95489131D01*
X81478816Y-95473253D01*
X81484429Y-95448525D01*
X81481999Y-95424094D01*
X81470175Y-95391592D01*
X81463048Y-95375626D01*
X81439708Y-95333198D01*
X81411588Y-95303432D01*
X81380648Y-95282703D01*
X81318674Y-95255729D01*
X81239359Y-95236190D01*
X81146961Y-95224938D01*
X81080041Y-95222462D01*
X80992552Y-95222014D01*
X80992552Y-95662281D01*
X80835933Y-95662281D01*
X80835376Y-95641213D01*
X80834758Y-95580503D01*
X80834533Y-95501718D01*
X80834508Y-95440112D01*
X80834508Y-95130677D01*
X80862217Y-95102968D01*
X80874514Y-95091736D01*
X80887811Y-95084045D01*
X80906380Y-95079232D01*
X80934494Y-95076638D01*
X80976425Y-95075602D01*
X81036445Y-95075462D01*
X81040017Y-95075467D01*
G36*
X83766373Y-95077226D02*
G01*
X83785963Y-95084227D01*
X83786718Y-95084569D01*
X83813321Y-95104870D01*
X83827978Y-95125753D01*
X83830846Y-95135544D01*
X83830704Y-95148553D01*
X83826669Y-95167087D01*
X83817854Y-95193449D01*
X83803377Y-95229944D01*
X83782353Y-95278879D01*
X83753896Y-95342557D01*
X83717123Y-95423285D01*
X83696883Y-95467408D01*
X83660333Y-95546177D01*
X83626023Y-95618615D01*
X83595260Y-95682072D01*
X83569356Y-95733900D01*
X83549618Y-95771451D01*
X83537358Y-95792076D01*
X83534932Y-95794925D01*
X83503891Y-95807494D01*
X83468829Y-95805811D01*
X83440708Y-95790524D01*
X83439562Y-95789281D01*
X83428376Y-95772346D01*
X83409612Y-95739362D01*
X83385583Y-95694572D01*
X83358605Y-95642224D01*
X83348909Y-95622934D01*
X83275722Y-95476342D01*
X83195948Y-95635585D01*
X83167475Y-95690607D01*
X83141058Y-95738324D01*
X83118856Y-95775085D01*
X83103027Y-95797236D01*
X83097662Y-95801933D01*
X83055965Y-95808294D01*
X83021557Y-95794925D01*
X83011436Y-95780638D01*
X82993922Y-95748884D01*
X82970443Y-95702789D01*
X82942428Y-95645477D01*
X82911307Y-95580072D01*
X82878507Y-95509699D01*
X82845458Y-95437483D01*
X82813589Y-95366547D01*
X82784327Y-95300017D01*
X82759103Y-95241018D01*
X82739344Y-95192673D01*
X82726480Y-95158107D01*
X82721939Y-95140445D01*
X82721985Y-95139805D01*
X82733034Y-95117580D01*
X82755118Y-95094945D01*
X82756418Y-95093960D01*
X82783561Y-95078617D01*
X82808666Y-95078766D01*
X82818076Y-95081658D01*
X82829542Y-95087910D01*
X82841718Y-95100206D01*
X82856065Y-95121100D01*
X82874044Y-95153141D01*
X82897115Y-95198880D01*
X82926738Y-95260869D01*
X82953453Y-95318090D01*
X82984188Y-95384418D01*
X83011729Y-95444066D01*
X83034646Y-95493917D01*
X83051506Y-95530856D01*
X83060881Y-95551765D01*
X83062248Y-95555037D01*
X83068397Y-95549689D01*
X83082530Y-95527301D01*
X83102765Y-95491138D01*
X83127223Y-95444469D01*
X83136956Y-95425214D01*
X83169925Y-95360196D01*
X83195351Y-95312846D01*
X83215320Y-95280411D01*
X83231918Y-95260138D01*
X83247232Y-95249274D01*
X83263348Y-95245067D01*
X83273851Y-95244592D01*
X83292378Y-95246234D01*
X83308612Y-95253023D01*
X83324743Y-95267758D01*
X83342959Y-95293236D01*
X83365447Y-95332253D01*
X83394397Y-95387606D01*
X83410370Y-95419095D01*
X83436278Y-95469279D01*
X83458875Y-95510896D01*
X83476166Y-95540434D01*
X83486158Y-95554381D01*
X83487517Y-95554962D01*
X83493969Y-95543985D01*
X83508416Y-95515482D01*
X83529411Y-95472436D01*
X83555505Y-95417830D01*
X83585254Y-95354646D01*
X83599888Y-95323263D01*
X83637958Y-95242270D01*
X83668613Y-95179948D01*
X83693445Y-95134263D01*
X83714045Y-95103181D01*
X83732006Y-95084670D01*
X83748918Y-95076696D01*
X83766373Y-95077226D01*
G37*
X83766373Y-95077226D02*
X83785963Y-95084227D01*
X83786718Y-95084569D01*
X83813321Y-95104870D01*
X83827978Y-95125753D01*
X83830846Y-95135544D01*
X83830704Y-95148553D01*
X83826669Y-95167087D01*
X83817854Y-95193449D01*
X83803377Y-95229944D01*
X83782353Y-95278879D01*
X83753896Y-95342557D01*
X83717123Y-95423285D01*
X83696883Y-95467408D01*
X83660333Y-95546177D01*
X83626023Y-95618615D01*
X83595260Y-95682072D01*
X83569356Y-95733900D01*
X83549618Y-95771451D01*
X83537358Y-95792076D01*
X83534932Y-95794925D01*
X83503891Y-95807494D01*
X83468829Y-95805811D01*
X83440708Y-95790524D01*
X83439562Y-95789281D01*
X83428376Y-95772346D01*
X83409612Y-95739362D01*
X83385583Y-95694572D01*
X83358605Y-95642224D01*
X83348909Y-95622934D01*
X83275722Y-95476342D01*
X83195948Y-95635585D01*
X83167475Y-95690607D01*
X83141058Y-95738324D01*
X83118856Y-95775085D01*
X83103027Y-95797236D01*
X83097662Y-95801933D01*
X83055965Y-95808294D01*
X83021557Y-95794925D01*
X83011436Y-95780638D01*
X82993922Y-95748884D01*
X82970443Y-95702789D01*
X82942428Y-95645477D01*
X82911307Y-95580072D01*
X82878507Y-95509699D01*
X82845458Y-95437483D01*
X82813589Y-95366547D01*
X82784327Y-95300017D01*
X82759103Y-95241018D01*
X82739344Y-95192673D01*
X82726480Y-95158107D01*
X82721939Y-95140445D01*
X82721985Y-95139805D01*
X82733034Y-95117580D01*
X82755118Y-95094945D01*
X82756418Y-95093960D01*
X82783561Y-95078617D01*
X82808666Y-95078766D01*
X82818076Y-95081658D01*
X82829542Y-95087910D01*
X82841718Y-95100206D01*
X82856065Y-95121100D01*
X82874044Y-95153141D01*
X82897115Y-95198880D01*
X82926738Y-95260869D01*
X82953453Y-95318090D01*
X82984188Y-95384418D01*
X83011729Y-95444066D01*
X83034646Y-95493917D01*
X83051506Y-95530856D01*
X83060881Y-95551765D01*
X83062248Y-95555037D01*
X83068397Y-95549689D01*
X83082530Y-95527301D01*
X83102765Y-95491138D01*
X83127223Y-95444469D01*
X83136956Y-95425214D01*
X83169925Y-95360196D01*
X83195351Y-95312846D01*
X83215320Y-95280411D01*
X83231918Y-95260138D01*
X83247232Y-95249274D01*
X83263348Y-95245067D01*
X83273851Y-95244592D01*
X83292378Y-95246234D01*
X83308612Y-95253023D01*
X83324743Y-95267758D01*
X83342959Y-95293236D01*
X83365447Y-95332253D01*
X83394397Y-95387606D01*
X83410370Y-95419095D01*
X83436278Y-95469279D01*
X83458875Y-95510896D01*
X83476166Y-95540434D01*
X83486158Y-95554381D01*
X83487517Y-95554962D01*
X83493969Y-95543985D01*
X83508416Y-95515482D01*
X83529411Y-95472436D01*
X83555505Y-95417830D01*
X83585254Y-95354646D01*
X83599888Y-95323263D01*
X83637958Y-95242270D01*
X83668613Y-95179948D01*
X83693445Y-95134263D01*
X83714045Y-95103181D01*
X83732006Y-95084670D01*
X83748918Y-95076696D01*
X83766373Y-95077226D01*
G36*
X84210322Y-95082069D02*
G01*
X84234035Y-95096839D01*
X84260686Y-95118419D01*
X84260686Y-95439965D01*
X84260601Y-95534022D01*
X84260237Y-95608124D01*
X84259432Y-95664896D01*
X84258021Y-95706960D01*
X84255841Y-95736940D01*
X84252729Y-95757459D01*
X84248522Y-95771141D01*
X84243056Y-95780608D01*
X84239180Y-95785274D01*
X84207742Y-95805767D01*
X84171941Y-95804931D01*
X84140581Y-95787456D01*
X84113930Y-95765876D01*
X84113930Y-95118419D01*
X84140581Y-95096839D01*
X84166302Y-95081141D01*
X84187308Y-95075259D01*
X84210322Y-95082069D01*
G37*
X84210322Y-95082069D02*
X84234035Y-95096839D01*
X84260686Y-95118419D01*
X84260686Y-95439965D01*
X84260601Y-95534022D01*
X84260237Y-95608124D01*
X84259432Y-95664896D01*
X84258021Y-95706960D01*
X84255841Y-95736940D01*
X84252729Y-95757459D01*
X84248522Y-95771141D01*
X84243056Y-95780608D01*
X84239180Y-95785274D01*
X84207742Y-95805767D01*
X84171941Y-95804931D01*
X84140581Y-95787456D01*
X84113930Y-95765876D01*
X84113930Y-95118419D01*
X84140581Y-95096839D01*
X84166302Y-95081141D01*
X84187308Y-95075259D01*
X84210322Y-95082069D01*
G36*
X84984773Y-95075355D02*
G01*
X85063480Y-95075734D01*
X85124571Y-95076525D01*
X85170525Y-95077862D01*
X85203822Y-95079875D01*
X85226944Y-95082698D01*
X85242370Y-95086461D01*
X85252579Y-95091297D01*
X85257521Y-95095014D01*
X85283165Y-95127550D01*
X85286267Y-95161330D01*
X85270419Y-95192018D01*
X85260056Y-95204281D01*
X85248904Y-95212642D01*
X85232743Y-95217849D01*
X85207350Y-95220649D01*
X85168506Y-95221788D01*
X85111988Y-95222013D01*
X85100888Y-95222014D01*
X84954952Y-95222014D01*
X84954952Y-95492948D01*
X84954856Y-95578346D01*
X84954419Y-95644056D01*
X84953420Y-95692966D01*
X84951636Y-95727965D01*
X84948845Y-95751941D01*
X84944825Y-95767785D01*
X84939353Y-95778383D01*
X84932374Y-95786459D01*
X84899442Y-95806304D01*
X84865062Y-95804740D01*
X84833884Y-95782098D01*
X84831594Y-95779292D01*
X84824137Y-95768684D01*
X84818455Y-95756273D01*
X84814309Y-95739042D01*
X84811458Y-95713976D01*
X84809662Y-95678059D01*
X84808680Y-95628275D01*
X84808272Y-95561609D01*
X84808197Y-95485781D01*
X84808197Y-95222014D01*
X84668835Y-95222014D01*
X84609030Y-95221610D01*
X84567626Y-95220032D01*
X84540456Y-95216739D01*
X84523354Y-95211184D01*
X84512151Y-95202823D01*
X84510791Y-95201370D01*
X84494433Y-95168131D01*
X84495880Y-95130554D01*
X84514686Y-95097837D01*
X84521958Y-95091490D01*
X84531335Y-95086458D01*
X84545317Y-95082588D01*
X84566404Y-95079729D01*
X84597097Y-95077727D01*
X84639897Y-95076431D01*
X84697303Y-95075690D01*
X84771818Y-95075350D01*
X84865941Y-95075260D01*
X84885968Y-95075259D01*
X84984773Y-95075355D01*
G37*
X84984773Y-95075355D02*
X85063480Y-95075734D01*
X85124571Y-95076525D01*
X85170525Y-95077862D01*
X85203822Y-95079875D01*
X85226944Y-95082698D01*
X85242370Y-95086461D01*
X85252579Y-95091297D01*
X85257521Y-95095014D01*
X85283165Y-95127550D01*
X85286267Y-95161330D01*
X85270419Y-95192018D01*
X85260056Y-95204281D01*
X85248904Y-95212642D01*
X85232743Y-95217849D01*
X85207350Y-95220649D01*
X85168506Y-95221788D01*
X85111988Y-95222013D01*
X85100888Y-95222014D01*
X84954952Y-95222014D01*
X84954952Y-95492948D01*
X84954856Y-95578346D01*
X84954419Y-95644056D01*
X84953420Y-95692966D01*
X84951636Y-95727965D01*
X84948845Y-95751941D01*
X84944825Y-95767785D01*
X84939353Y-95778383D01*
X84932374Y-95786459D01*
X84899442Y-95806304D01*
X84865062Y-95804740D01*
X84833884Y-95782098D01*
X84831594Y-95779292D01*
X84824137Y-95768684D01*
X84818455Y-95756273D01*
X84814309Y-95739042D01*
X84811458Y-95713976D01*
X84809662Y-95678059D01*
X84808680Y-95628275D01*
X84808272Y-95561609D01*
X84808197Y-95485781D01*
X84808197Y-95222014D01*
X84668835Y-95222014D01*
X84609030Y-95221610D01*
X84567626Y-95220032D01*
X84540456Y-95216739D01*
X84523354Y-95211184D01*
X84512151Y-95202823D01*
X84510791Y-95201370D01*
X84494433Y-95168131D01*
X84495880Y-95130554D01*
X84514686Y-95097837D01*
X84521958Y-95091490D01*
X84531335Y-95086458D01*
X84545317Y-95082588D01*
X84566404Y-95079729D01*
X84597097Y-95077727D01*
X84639897Y-95076431D01*
X84697303Y-95075690D01*
X84771818Y-95075350D01*
X84865941Y-95075260D01*
X84885968Y-95075259D01*
X84984773Y-95075355D01*
G36*
X86250531Y-95080725D02*
G01*
X86281910Y-95102968D01*
X86309619Y-95130677D01*
X86309619Y-95440112D01*
X86309546Y-95531991D01*
X86309203Y-95604032D01*
X86308400Y-95658972D01*
X86306949Y-95699552D01*
X86304660Y-95728509D01*
X86301344Y-95748583D01*
X86296813Y-95762513D01*
X86290877Y-95773037D01*
X86286222Y-95779292D01*
X86255491Y-95803865D01*
X86220204Y-95806533D01*
X86187953Y-95791463D01*
X86177296Y-95782566D01*
X86170172Y-95770749D01*
X86165875Y-95751718D01*
X86163699Y-95721184D01*
X86162936Y-95674854D01*
X86162863Y-95639063D01*
X86162863Y-95504237D01*
X85666152Y-95504237D01*
X85666152Y-95626892D01*
X85665639Y-95682979D01*
X85663584Y-95721525D01*
X85659216Y-95747553D01*
X85651764Y-95766089D01*
X85642755Y-95779292D01*
X85611852Y-95803796D01*
X85576904Y-95806698D01*
X85543446Y-95789281D01*
X85534312Y-95780151D01*
X85527860Y-95768047D01*
X85523605Y-95749193D01*
X85521060Y-95719812D01*
X85519737Y-95676129D01*
X85519151Y-95614367D01*
X85519083Y-95600192D01*
X85518599Y-95483823D01*
X85518349Y-95387919D01*
X85518431Y-95310369D01*
X85518939Y-95249061D01*
X85519970Y-95201882D01*
X85521621Y-95166722D01*
X85523987Y-95141468D01*
X85527165Y-95124009D01*
X85531252Y-95112233D01*
X85536342Y-95104027D01*
X85541974Y-95097837D01*
X85573836Y-95078036D01*
X85607065Y-95080725D01*
X85638443Y-95102968D01*
X85651141Y-95117318D01*
X85659234Y-95133170D01*
X85663750Y-95155746D01*
X85665714Y-95190270D01*
X85666152Y-95241968D01*
X85666152Y-95357481D01*
X86162863Y-95357481D01*
X86162863Y-95238948D01*
X86163370Y-95184340D01*
X86165406Y-95147467D01*
X86169743Y-95123499D01*
X86177155Y-95107607D01*
X86185441Y-95097837D01*
X86217302Y-95078036D01*
X86250531Y-95080725D01*
G37*
X86250531Y-95080725D02*
X86281910Y-95102968D01*
X86309619Y-95130677D01*
X86309619Y-95440112D01*
X86309546Y-95531991D01*
X86309203Y-95604032D01*
X86308400Y-95658972D01*
X86306949Y-95699552D01*
X86304660Y-95728509D01*
X86301344Y-95748583D01*
X86296813Y-95762513D01*
X86290877Y-95773037D01*
X86286222Y-95779292D01*
X86255491Y-95803865D01*
X86220204Y-95806533D01*
X86187953Y-95791463D01*
X86177296Y-95782566D01*
X86170172Y-95770749D01*
X86165875Y-95751718D01*
X86163699Y-95721184D01*
X86162936Y-95674854D01*
X86162863Y-95639063D01*
X86162863Y-95504237D01*
X85666152Y-95504237D01*
X85666152Y-95626892D01*
X85665639Y-95682979D01*
X85663584Y-95721525D01*
X85659216Y-95747553D01*
X85651764Y-95766089D01*
X85642755Y-95779292D01*
X85611852Y-95803796D01*
X85576904Y-95806698D01*
X85543446Y-95789281D01*
X85534312Y-95780151D01*
X85527860Y-95768047D01*
X85523605Y-95749193D01*
X85521060Y-95719812D01*
X85519737Y-95676129D01*
X85519151Y-95614367D01*
X85519083Y-95600192D01*
X85518599Y-95483823D01*
X85518349Y-95387919D01*
X85518431Y-95310369D01*
X85518939Y-95249061D01*
X85519970Y-95201882D01*
X85521621Y-95166722D01*
X85523987Y-95141468D01*
X85527165Y-95124009D01*
X85531252Y-95112233D01*
X85536342Y-95104027D01*
X85541974Y-95097837D01*
X85573836Y-95078036D01*
X85607065Y-95080725D01*
X85638443Y-95102968D01*
X85651141Y-95117318D01*
X85659234Y-95133170D01*
X85663750Y-95155746D01*
X85665714Y-95190270D01*
X85666152Y-95241968D01*
X85666152Y-95357481D01*
X86162863Y-95357481D01*
X86162863Y-95238948D01*
X86163370Y-95184340D01*
X86165406Y-95147467D01*
X86169743Y-95123499D01*
X86177155Y-95107607D01*
X86185441Y-95097837D01*
X86217302Y-95078036D01*
X86250531Y-95080725D01*
G36*
X77283921Y-88476490D02*
G01*
X77387027Y-88512238D01*
X77483022Y-88568507D01*
X77568753Y-88645288D01*
X77641070Y-88742573D01*
X77673555Y-88803892D01*
X77701668Y-88889660D01*
X77715295Y-88988677D01*
X77713786Y-89090471D01*
X77697031Y-89182714D01*
X77651237Y-89295432D01*
X77584832Y-89393207D01*
X77501191Y-89474115D01*
X77403688Y-89536232D01*
X77295700Y-89577634D01*
X77180601Y-89596397D01*
X77061766Y-89590598D01*
X77003189Y-89578206D01*
X76889028Y-89533797D01*
X76787635Y-89466033D01*
X76701455Y-89377001D01*
X76632934Y-89268791D01*
X76627136Y-89256973D01*
X76607096Y-89212628D01*
X76594513Y-89175280D01*
X76587681Y-89135880D01*
X76584895Y-89085381D01*
X76584432Y-89030433D01*
X76585197Y-88964415D01*
X76588648Y-88916689D01*
X76596523Y-88878103D01*
X76610557Y-88839506D01*
X76627880Y-88801426D01*
X76692495Y-88693328D01*
X76772066Y-88605803D01*
X76863440Y-88538841D01*
X76963464Y-88492436D01*
X77068988Y-88466581D01*
X77176858Y-88461268D01*
X77283921Y-88476490D01*
G37*
X77283921Y-88476490D02*
X77387027Y-88512238D01*
X77483022Y-88568507D01*
X77568753Y-88645288D01*
X77641070Y-88742573D01*
X77673555Y-88803892D01*
X77701668Y-88889660D01*
X77715295Y-88988677D01*
X77713786Y-89090471D01*
X77697031Y-89182714D01*
X77651237Y-89295432D01*
X77584832Y-89393207D01*
X77501191Y-89474115D01*
X77403688Y-89536232D01*
X77295700Y-89577634D01*
X77180601Y-89596397D01*
X77061766Y-89590598D01*
X77003189Y-89578206D01*
X76889028Y-89533797D01*
X76787635Y-89466033D01*
X76701455Y-89377001D01*
X76632934Y-89268791D01*
X76627136Y-89256973D01*
X76607096Y-89212628D01*
X76594513Y-89175280D01*
X76587681Y-89135880D01*
X76584895Y-89085381D01*
X76584432Y-89030433D01*
X76585197Y-88964415D01*
X76588648Y-88916689D01*
X76596523Y-88878103D01*
X76610557Y-88839506D01*
X76627880Y-88801426D01*
X76692495Y-88693328D01*
X76772066Y-88605803D01*
X76863440Y-88538841D01*
X76963464Y-88492436D01*
X77068988Y-88466581D01*
X77176858Y-88461268D01*
X77283921Y-88476490D01*
G36*
X86852270Y-89396825D02*
G01*
X86969041Y-89397304D01*
X87008729Y-89397545D01*
X87554486Y-89401135D01*
X87561351Y-91494919D01*
X87562258Y-91778842D01*
X87563062Y-92036640D01*
X87563815Y-92269646D01*
X87564569Y-92479194D01*
X87565375Y-92666618D01*
X87566285Y-92833250D01*
X87567351Y-92980425D01*
X87568624Y-93109477D01*
X87570156Y-93221739D01*
X87571998Y-93318544D01*
X87574203Y-93401226D01*
X87576822Y-93471119D01*
X87579906Y-93529557D01*
X87583508Y-93577872D01*
X87587678Y-93617400D01*
X87592469Y-93649473D01*
X87597931Y-93675424D01*
X87604118Y-93696589D01*
X87611080Y-93714299D01*
X87618869Y-93729889D01*
X87627537Y-93744693D01*
X87637135Y-93760044D01*
X87647715Y-93777276D01*
X87649884Y-93780946D01*
X87686268Y-93843031D01*
X87160431Y-93839434D01*
X86634594Y-93835838D01*
X86627729Y-93720331D01*
X86623992Y-93664899D01*
X86620097Y-93632851D01*
X86614811Y-93620135D01*
X86606903Y-93622696D01*
X86600270Y-93630024D01*
X86571374Y-93656714D01*
X86524279Y-93691021D01*
X86465620Y-93728846D01*
X86402031Y-93766090D01*
X86340149Y-93798653D01*
X86292634Y-93820077D01*
X86181316Y-93855283D01*
X86053596Y-93880222D01*
X85918901Y-93893941D01*
X85786663Y-93895486D01*
X85666308Y-93883906D01*
X85664326Y-93883574D01*
X85499641Y-93842250D01*
X85345479Y-93776412D01*
X85203328Y-93687474D01*
X85074675Y-93576852D01*
X84961007Y-93445961D01*
X84863810Y-93296216D01*
X84784572Y-93129033D01*
X84741430Y-93005190D01*
X84712979Y-92901581D01*
X84691880Y-92801252D01*
X84677488Y-92698109D01*
X84669158Y-92586057D01*
X84666245Y-92459001D01*
X84667535Y-92355252D01*
X85680650Y-92355252D01*
X85685444Y-92529222D01*
X85700568Y-92678895D01*
X85726485Y-92805597D01*
X85763663Y-92910658D01*
X85812565Y-92995406D01*
X85873658Y-93061169D01*
X85944177Y-93107659D01*
X85980871Y-93125014D01*
X86012696Y-93135419D01*
X86048177Y-93140179D01*
X86095841Y-93140601D01*
X86147189Y-93138748D01*
X86248169Y-93129841D01*
X86328035Y-93112398D01*
X86353135Y-93103661D01*
X86410448Y-93077857D01*
X86470897Y-93045453D01*
X86497297Y-93029233D01*
X86565946Y-92984205D01*
X86565946Y-91556982D01*
X86490432Y-91511718D01*
X86385121Y-91460572D01*
X86277525Y-91430324D01*
X86171581Y-91420795D01*
X86071224Y-91431807D01*
X85980387Y-91463181D01*
X85903007Y-91514740D01*
X85878039Y-91539488D01*
X85817856Y-91620577D01*
X85769145Y-91718734D01*
X85731499Y-91835643D01*
X85704512Y-91972985D01*
X85687775Y-92132444D01*
X85680883Y-92315700D01*
X85680650Y-92355252D01*
X84667535Y-92355252D01*
X84668073Y-92312067D01*
X84679647Y-92086053D01*
X84702920Y-91882192D01*
X84738504Y-91697513D01*
X84787013Y-91529048D01*
X84849060Y-91373826D01*
X84871201Y-91327808D01*
X84960385Y-91177739D01*
X85068159Y-91044377D01*
X85191990Y-90929877D01*
X85329342Y-90836389D01*
X85477683Y-90766068D01*
X85566604Y-90737060D01*
X85653933Y-90719840D01*
X85759011Y-90709594D01*
X85873029Y-90706318D01*
X85987177Y-90710009D01*
X86092648Y-90720660D01*
X86177334Y-90737370D01*
X86278128Y-90770140D01*
X86375822Y-90812279D01*
X86461296Y-90859519D01*
X86506789Y-90891581D01*
X86538169Y-90915422D01*
X86560142Y-90929939D01*
X86565141Y-90932000D01*
X86566690Y-90918718D01*
X86568135Y-90880663D01*
X86569443Y-90820519D01*
X86570583Y-90740973D01*
X86571521Y-90644711D01*
X86572226Y-90534419D01*
X86572667Y-90412781D01*
X86572811Y-90288885D01*
X86572730Y-90130196D01*
X86572335Y-89996408D01*
X86571395Y-89884960D01*
X86569680Y-89793295D01*
X86566957Y-89718853D01*
X86562997Y-89659075D01*
X86557569Y-89611402D01*
X86550441Y-89573274D01*
X86541384Y-89542134D01*
X86530167Y-89515421D01*
X86516558Y-89490577D01*
X86500328Y-89465043D01*
X86498240Y-89461881D01*
X86477306Y-89428810D01*
X86464667Y-89406069D01*
X86462973Y-89401272D01*
X86476216Y-89399759D01*
X86514002Y-89398528D01*
X86573416Y-89397599D01*
X86651542Y-89396992D01*
X86745465Y-89396727D01*
X86852270Y-89396825D01*
G37*
X86852270Y-89396825D02*
X86969041Y-89397304D01*
X87008729Y-89397545D01*
X87554486Y-89401135D01*
X87561351Y-91494919D01*
X87562258Y-91778842D01*
X87563062Y-92036640D01*
X87563815Y-92269646D01*
X87564569Y-92479194D01*
X87565375Y-92666618D01*
X87566285Y-92833250D01*
X87567351Y-92980425D01*
X87568624Y-93109477D01*
X87570156Y-93221739D01*
X87571998Y-93318544D01*
X87574203Y-93401226D01*
X87576822Y-93471119D01*
X87579906Y-93529557D01*
X87583508Y-93577872D01*
X87587678Y-93617400D01*
X87592469Y-93649473D01*
X87597931Y-93675424D01*
X87604118Y-93696589D01*
X87611080Y-93714299D01*
X87618869Y-93729889D01*
X87627537Y-93744693D01*
X87637135Y-93760044D01*
X87647715Y-93777276D01*
X87649884Y-93780946D01*
X87686268Y-93843031D01*
X87160431Y-93839434D01*
X86634594Y-93835838D01*
X86627729Y-93720331D01*
X86623992Y-93664899D01*
X86620097Y-93632851D01*
X86614811Y-93620135D01*
X86606903Y-93622696D01*
X86600270Y-93630024D01*
X86571374Y-93656714D01*
X86524279Y-93691021D01*
X86465620Y-93728846D01*
X86402031Y-93766090D01*
X86340149Y-93798653D01*
X86292634Y-93820077D01*
X86181316Y-93855283D01*
X86053596Y-93880222D01*
X85918901Y-93893941D01*
X85786663Y-93895486D01*
X85666308Y-93883906D01*
X85664326Y-93883574D01*
X85499641Y-93842250D01*
X85345479Y-93776412D01*
X85203328Y-93687474D01*
X85074675Y-93576852D01*
X84961007Y-93445961D01*
X84863810Y-93296216D01*
X84784572Y-93129033D01*
X84741430Y-93005190D01*
X84712979Y-92901581D01*
X84691880Y-92801252D01*
X84677488Y-92698109D01*
X84669158Y-92586057D01*
X84666245Y-92459001D01*
X84667535Y-92355252D01*
X85680650Y-92355252D01*
X85685444Y-92529222D01*
X85700568Y-92678895D01*
X85726485Y-92805597D01*
X85763663Y-92910658D01*
X85812565Y-92995406D01*
X85873658Y-93061169D01*
X85944177Y-93107659D01*
X85980871Y-93125014D01*
X86012696Y-93135419D01*
X86048177Y-93140179D01*
X86095841Y-93140601D01*
X86147189Y-93138748D01*
X86248169Y-93129841D01*
X86328035Y-93112398D01*
X86353135Y-93103661D01*
X86410448Y-93077857D01*
X86470897Y-93045453D01*
X86497297Y-93029233D01*
X86565946Y-92984205D01*
X86565946Y-91556982D01*
X86490432Y-91511718D01*
X86385121Y-91460572D01*
X86277525Y-91430324D01*
X86171581Y-91420795D01*
X86071224Y-91431807D01*
X85980387Y-91463181D01*
X85903007Y-91514740D01*
X85878039Y-91539488D01*
X85817856Y-91620577D01*
X85769145Y-91718734D01*
X85731499Y-91835643D01*
X85704512Y-91972985D01*
X85687775Y-92132444D01*
X85680883Y-92315700D01*
X85680650Y-92355252D01*
X84667535Y-92355252D01*
X84668073Y-92312067D01*
X84679647Y-92086053D01*
X84702920Y-91882192D01*
X84738504Y-91697513D01*
X84787013Y-91529048D01*
X84849060Y-91373826D01*
X84871201Y-91327808D01*
X84960385Y-91177739D01*
X85068159Y-91044377D01*
X85191990Y-90929877D01*
X85329342Y-90836389D01*
X85477683Y-90766068D01*
X85566604Y-90737060D01*
X85653933Y-90719840D01*
X85759011Y-90709594D01*
X85873029Y-90706318D01*
X85987177Y-90710009D01*
X86092648Y-90720660D01*
X86177334Y-90737370D01*
X86278128Y-90770140D01*
X86375822Y-90812279D01*
X86461296Y-90859519D01*
X86506789Y-90891581D01*
X86538169Y-90915422D01*
X86560142Y-90929939D01*
X86565141Y-90932000D01*
X86566690Y-90918718D01*
X86568135Y-90880663D01*
X86569443Y-90820519D01*
X86570583Y-90740973D01*
X86571521Y-90644711D01*
X86572226Y-90534419D01*
X86572667Y-90412781D01*
X86572811Y-90288885D01*
X86572730Y-90130196D01*
X86572335Y-89996408D01*
X86571395Y-89884960D01*
X86569680Y-89793295D01*
X86566957Y-89718853D01*
X86562997Y-89659075D01*
X86557569Y-89611402D01*
X86550441Y-89573274D01*
X86541384Y-89542134D01*
X86530167Y-89515421D01*
X86516558Y-89490577D01*
X86500328Y-89465043D01*
X86498240Y-89461881D01*
X86477306Y-89428810D01*
X86464667Y-89406069D01*
X86462973Y-89401272D01*
X86476216Y-89399759D01*
X86514002Y-89398528D01*
X86573416Y-89397599D01*
X86651542Y-89396992D01*
X86745465Y-89396727D01*
X86852270Y-89396825D01*
G36*
X83177505Y-90704229D02*
G01*
X83245531Y-90709378D01*
X83440163Y-90735273D01*
X83612529Y-90776575D01*
X83763470Y-90833853D01*
X83893825Y-90907674D01*
X84004434Y-90998608D01*
X84096135Y-91107222D01*
X84169770Y-91234085D01*
X84223539Y-91371352D01*
X84237187Y-91415137D01*
X84249073Y-91456141D01*
X84259334Y-91496569D01*
X84268113Y-91538630D01*
X84275548Y-91584531D01*
X84281780Y-91636480D01*
X84286950Y-91696685D01*
X84291196Y-91767352D01*
X84294660Y-91850689D01*
X84297481Y-91948905D01*
X84299800Y-92064205D01*
X84301757Y-92198799D01*
X84303491Y-92354893D01*
X84305143Y-92534695D01*
X84306324Y-92675676D01*
X84314270Y-93643622D01*
X84365756Y-93736770D01*
X84390137Y-93781645D01*
X84408280Y-93816501D01*
X84416935Y-93835054D01*
X84417243Y-93836311D01*
X84404014Y-93837749D01*
X84366326Y-93839074D01*
X84307183Y-93840249D01*
X84229586Y-93841237D01*
X84136536Y-93841999D01*
X84031035Y-93842500D01*
X83916084Y-93842701D01*
X83902378Y-93842703D01*
X83387513Y-93842703D01*
X83387513Y-93726000D01*
X83386635Y-93673260D01*
X83384292Y-93632926D01*
X83380921Y-93611300D01*
X83379431Y-93609298D01*
X83365804Y-93617683D01*
X83337757Y-93639692D01*
X83301303Y-93670601D01*
X83300485Y-93671316D01*
X83233962Y-93720843D01*
X83149948Y-93770575D01*
X83057937Y-93815626D01*
X82967421Y-93851110D01*
X82927567Y-93863236D01*
X82848255Y-93878637D01*
X82750935Y-93888465D01*
X82644516Y-93892580D01*
X82537907Y-93890841D01*
X82440017Y-93883108D01*
X82371513Y-93871981D01*
X82203520Y-93822648D01*
X82052281Y-93752342D01*
X81918782Y-93661933D01*
X81804006Y-93552295D01*
X81708937Y-93424299D01*
X81634560Y-93278818D01*
X81602474Y-93190541D01*
X81582365Y-93104739D01*
X81569038Y-93001736D01*
X81562872Y-92891034D01*
X81563074Y-92874925D01*
X82491648Y-92874925D01*
X82499348Y-92957184D01*
X82524989Y-93025546D01*
X82572378Y-93088970D01*
X82590579Y-93107567D01*
X82655282Y-93157846D01*
X82730066Y-93190056D01*
X82819662Y-93205648D01*
X82914012Y-93206796D01*
X83003501Y-93199216D01*
X83072018Y-93184389D01*
X83101775Y-93173253D01*
X83155408Y-93142904D01*
X83212235Y-93100221D01*
X83264082Y-93052317D01*
X83302778Y-93006301D01*
X83313054Y-92989421D01*
X83321042Y-92965782D01*
X83326721Y-92928168D01*
X83330356Y-92872985D01*
X83332211Y-92796640D01*
X83332594Y-92723981D01*
X83332335Y-92639270D01*
X83331287Y-92578018D01*
X83329045Y-92536227D01*
X83325206Y-92509899D01*
X83319365Y-92495035D01*
X83311118Y-92487639D01*
X83308567Y-92486461D01*
X83286400Y-92482833D01*
X83242680Y-92479866D01*
X83183311Y-92477827D01*
X83114196Y-92476983D01*
X83099189Y-92476982D01*
X83006805Y-92478457D01*
X82935432Y-92482842D01*
X82878719Y-92490738D01*
X82831872Y-92502270D01*
X82715669Y-92546215D01*
X82624543Y-92600243D01*
X82557705Y-92665219D01*
X82514365Y-92742005D01*
X82493734Y-92831467D01*
X82491648Y-92874925D01*
X81563074Y-92874925D01*
X81564244Y-92782133D01*
X81573532Y-92684536D01*
X81580777Y-92645105D01*
X81627039Y-92498701D01*
X81697384Y-92363995D01*
X81790484Y-92242280D01*
X81905012Y-92134847D01*
X82039640Y-92042988D01*
X82193040Y-91967996D01*
X82323459Y-91922458D01*
X82410623Y-91898533D01*
X82493996Y-91879943D01*
X82578976Y-91866084D01*
X82670965Y-91856351D01*
X82775362Y-91850141D01*
X82897568Y-91846851D01*
X83008055Y-91845924D01*
X83335677Y-91845027D01*
X83329401Y-91746547D01*
X83311579Y-91639695D01*
X83273667Y-91547852D01*
X83217280Y-91473310D01*
X83144031Y-91418364D01*
X83079535Y-91391552D01*
X82987123Y-91374654D01*
X82877111Y-91372227D01*
X82754656Y-91383378D01*
X82624914Y-91407210D01*
X82493042Y-91442830D01*
X82364198Y-91489343D01*
X82270566Y-91531883D01*
X82225517Y-91553728D01*
X82191156Y-91568984D01*
X82173681Y-91574937D01*
X82172733Y-91574746D01*
X82166703Y-91561412D01*
X82151645Y-91526068D01*
X82128977Y-91472101D01*
X82100115Y-91402896D01*
X82066477Y-91321840D01*
X82032284Y-91239118D01*
X81895586Y-90907803D01*
X81992820Y-90891833D01*
X82034964Y-90883820D01*
X82098319Y-90870361D01*
X82177457Y-90852679D01*
X82266951Y-90831996D01*
X82361373Y-90809532D01*
X82398973Y-90800403D01*
X82561637Y-90762674D01*
X82704050Y-90734388D01*
X82831527Y-90714972D01*
X82949384Y-90703854D01*
X83062938Y-90700464D01*
X83177505Y-90704229D01*
G37*
X83177505Y-90704229D02*
X83245531Y-90709378D01*
X83440163Y-90735273D01*
X83612529Y-90776575D01*
X83763470Y-90833853D01*
X83893825Y-90907674D01*
X84004434Y-90998608D01*
X84096135Y-91107222D01*
X84169770Y-91234085D01*
X84223539Y-91371352D01*
X84237187Y-91415137D01*
X84249073Y-91456141D01*
X84259334Y-91496569D01*
X84268113Y-91538630D01*
X84275548Y-91584531D01*
X84281780Y-91636480D01*
X84286950Y-91696685D01*
X84291196Y-91767352D01*
X84294660Y-91850689D01*
X84297481Y-91948905D01*
X84299800Y-92064205D01*
X84301757Y-92198799D01*
X84303491Y-92354893D01*
X84305143Y-92534695D01*
X84306324Y-92675676D01*
X84314270Y-93643622D01*
X84365756Y-93736770D01*
X84390137Y-93781645D01*
X84408280Y-93816501D01*
X84416935Y-93835054D01*
X84417243Y-93836311D01*
X84404014Y-93837749D01*
X84366326Y-93839074D01*
X84307183Y-93840249D01*
X84229586Y-93841237D01*
X84136536Y-93841999D01*
X84031035Y-93842500D01*
X83916084Y-93842701D01*
X83902378Y-93842703D01*
X83387513Y-93842703D01*
X83387513Y-93726000D01*
X83386635Y-93673260D01*
X83384292Y-93632926D01*
X83380921Y-93611300D01*
X83379431Y-93609298D01*
X83365804Y-93617683D01*
X83337757Y-93639692D01*
X83301303Y-93670601D01*
X83300485Y-93671316D01*
X83233962Y-93720843D01*
X83149948Y-93770575D01*
X83057937Y-93815626D01*
X82967421Y-93851110D01*
X82927567Y-93863236D01*
X82848255Y-93878637D01*
X82750935Y-93888465D01*
X82644516Y-93892580D01*
X82537907Y-93890841D01*
X82440017Y-93883108D01*
X82371513Y-93871981D01*
X82203520Y-93822648D01*
X82052281Y-93752342D01*
X81918782Y-93661933D01*
X81804006Y-93552295D01*
X81708937Y-93424299D01*
X81634560Y-93278818D01*
X81602474Y-93190541D01*
X81582365Y-93104739D01*
X81569038Y-93001736D01*
X81562872Y-92891034D01*
X81563074Y-92874925D01*
X82491648Y-92874925D01*
X82499348Y-92957184D01*
X82524989Y-93025546D01*
X82572378Y-93088970D01*
X82590579Y-93107567D01*
X82655282Y-93157846D01*
X82730066Y-93190056D01*
X82819662Y-93205648D01*
X82914012Y-93206796D01*
X83003501Y-93199216D01*
X83072018Y-93184389D01*
X83101775Y-93173253D01*
X83155408Y-93142904D01*
X83212235Y-93100221D01*
X83264082Y-93052317D01*
X83302778Y-93006301D01*
X83313054Y-92989421D01*
X83321042Y-92965782D01*
X83326721Y-92928168D01*
X83330356Y-92872985D01*
X83332211Y-92796640D01*
X83332594Y-92723981D01*
X83332335Y-92639270D01*
X83331287Y-92578018D01*
X83329045Y-92536227D01*
X83325206Y-92509899D01*
X83319365Y-92495035D01*
X83311118Y-92487639D01*
X83308567Y-92486461D01*
X83286400Y-92482833D01*
X83242680Y-92479866D01*
X83183311Y-92477827D01*
X83114196Y-92476983D01*
X83099189Y-92476982D01*
X83006805Y-92478457D01*
X82935432Y-92482842D01*
X82878719Y-92490738D01*
X82831872Y-92502270D01*
X82715669Y-92546215D01*
X82624543Y-92600243D01*
X82557705Y-92665219D01*
X82514365Y-92742005D01*
X82493734Y-92831467D01*
X82491648Y-92874925D01*
X81563074Y-92874925D01*
X81564244Y-92782133D01*
X81573532Y-92684536D01*
X81580777Y-92645105D01*
X81627039Y-92498701D01*
X81697384Y-92363995D01*
X81790484Y-92242280D01*
X81905012Y-92134847D01*
X82039640Y-92042988D01*
X82193040Y-91967996D01*
X82323459Y-91922458D01*
X82410623Y-91898533D01*
X82493996Y-91879943D01*
X82578976Y-91866084D01*
X82670965Y-91856351D01*
X82775362Y-91850141D01*
X82897568Y-91846851D01*
X83008055Y-91845924D01*
X83335677Y-91845027D01*
X83329401Y-91746547D01*
X83311579Y-91639695D01*
X83273667Y-91547852D01*
X83217280Y-91473310D01*
X83144031Y-91418364D01*
X83079535Y-91391552D01*
X82987123Y-91374654D01*
X82877111Y-91372227D01*
X82754656Y-91383378D01*
X82624914Y-91407210D01*
X82493042Y-91442830D01*
X82364198Y-91489343D01*
X82270566Y-91531883D01*
X82225517Y-91553728D01*
X82191156Y-91568984D01*
X82173681Y-91574937D01*
X82172733Y-91574746D01*
X82166703Y-91561412D01*
X82151645Y-91526068D01*
X82128977Y-91472101D01*
X82100115Y-91402896D01*
X82066477Y-91321840D01*
X82032284Y-91239118D01*
X81895586Y-90907803D01*
X81992820Y-90891833D01*
X82034964Y-90883820D01*
X82098319Y-90870361D01*
X82177457Y-90852679D01*
X82266951Y-90831996D01*
X82361373Y-90809532D01*
X82398973Y-90800403D01*
X82561637Y-90762674D01*
X82704050Y-90734388D01*
X82831527Y-90714972D01*
X82949384Y-90703854D01*
X83062938Y-90700464D01*
X83177505Y-90704229D01*
G36*
X80449962Y-89600499D02*
G01*
X80598014Y-89616707D01*
X80741452Y-89645718D01*
X80886110Y-89689045D01*
X81037824Y-89748201D01*
X81202428Y-89824700D01*
X81232071Y-89839517D01*
X81300098Y-89873031D01*
X81364256Y-89903208D01*
X81418215Y-89927166D01*
X81455640Y-89942024D01*
X81461389Y-89943895D01*
X81516486Y-89960402D01*
X81269851Y-90319201D01*
X81209552Y-90406893D01*
X81154422Y-90487012D01*
X81106336Y-90556836D01*
X81067168Y-90613647D01*
X81038794Y-90654723D01*
X81023087Y-90677346D01*
X81020536Y-90680928D01*
X81010171Y-90673438D01*
X80984660Y-90650918D01*
X80948563Y-90617461D01*
X80928642Y-90598550D01*
X80815773Y-90508778D01*
X80689014Y-90440561D01*
X80579783Y-90403195D01*
X80514214Y-90391460D01*
X80432116Y-90384308D01*
X80343144Y-90381874D01*
X80256956Y-90384288D01*
X80183205Y-90391683D01*
X80153776Y-90397347D01*
X80021133Y-90442982D01*
X79901606Y-90512663D01*
X79795283Y-90606260D01*
X79702253Y-90723649D01*
X79622605Y-90864700D01*
X79556426Y-91029286D01*
X79503806Y-91217280D01*
X79472533Y-91378217D01*
X79464374Y-91449263D01*
X79458815Y-91541046D01*
X79455802Y-91646968D01*
X79455281Y-91760434D01*
X79457200Y-91874849D01*
X79461503Y-91983617D01*
X79468137Y-92080143D01*
X79477049Y-92157831D01*
X79478979Y-92169817D01*
X79521499Y-92362892D01*
X79579433Y-92533773D01*
X79653133Y-92683224D01*
X79742951Y-92812011D01*
X79806707Y-92881639D01*
X79921286Y-92976173D01*
X80046942Y-93046246D01*
X80181557Y-93091477D01*
X80323011Y-93111484D01*
X80469183Y-93105885D01*
X80617955Y-93074300D01*
X80705911Y-93043394D01*
X80827629Y-92981506D01*
X80953080Y-92892729D01*
X81023353Y-92832694D01*
X81062811Y-92797947D01*
X81093812Y-92772454D01*
X81111458Y-92760170D01*
X81113648Y-92759795D01*
X81121524Y-92772347D01*
X81141932Y-92805516D01*
X81173132Y-92856458D01*
X81213386Y-92922331D01*
X81260957Y-93000289D01*
X81314104Y-93087490D01*
X81343687Y-93136067D01*
X81569648Y-93507215D01*
X81287527Y-93646639D01*
X81185522Y-93696719D01*
X81102889Y-93736210D01*
X81034578Y-93767073D01*
X80975537Y-93791268D01*
X80920714Y-93810758D01*
X80865060Y-93827503D01*
X80803523Y-93843465D01*
X80744540Y-93857482D01*
X80692115Y-93868329D01*
X80637288Y-93876526D01*
X80574572Y-93882528D01*
X80498477Y-93886790D01*
X80403516Y-93889767D01*
X80339513Y-93891052D01*
X80248192Y-93891930D01*
X80160627Y-93891487D01*
X80082612Y-93889852D01*
X80019942Y-93887149D01*
X79978413Y-93883505D01*
X79975952Y-93883142D01*
X79760303Y-93836487D01*
X79557793Y-93765729D01*
X79368495Y-93670914D01*
X79192479Y-93552089D01*
X79029816Y-93409300D01*
X78880578Y-93242594D01*
X78772496Y-93094433D01*
X78657434Y-92900502D01*
X78564423Y-92695699D01*
X78493013Y-92478383D01*
X78442756Y-92246912D01*
X78413201Y-91999643D01*
X78403889Y-91748559D01*
X78411548Y-91505670D01*
X78435613Y-91281570D01*
X78476852Y-91072477D01*
X78536027Y-90874613D01*
X78613904Y-90684196D01*
X78623203Y-90664468D01*
X78725648Y-90480059D01*
X78851472Y-90304576D01*
X78997112Y-90141650D01*
X79159001Y-89994914D01*
X79333576Y-89868001D01*
X79496244Y-89774905D01*
X79660573Y-89701991D01*
X79825251Y-89649174D01*
X79996652Y-89615015D01*
X80181153Y-89598078D01*
X80291459Y-89595580D01*
X80449962Y-89600499D01*
G37*
X80449962Y-89600499D02*
X80598014Y-89616707D01*
X80741452Y-89645718D01*
X80886110Y-89689045D01*
X81037824Y-89748201D01*
X81202428Y-89824700D01*
X81232071Y-89839517D01*
X81300098Y-89873031D01*
X81364256Y-89903208D01*
X81418215Y-89927166D01*
X81455640Y-89942024D01*
X81461389Y-89943895D01*
X81516486Y-89960402D01*
X81269851Y-90319201D01*
X81209552Y-90406893D01*
X81154422Y-90487012D01*
X81106336Y-90556836D01*
X81067168Y-90613647D01*
X81038794Y-90654723D01*
X81023087Y-90677346D01*
X81020536Y-90680928D01*
X81010171Y-90673438D01*
X80984660Y-90650918D01*
X80948563Y-90617461D01*
X80928642Y-90598550D01*
X80815773Y-90508778D01*
X80689014Y-90440561D01*
X80579783Y-90403195D01*
X80514214Y-90391460D01*
X80432116Y-90384308D01*
X80343144Y-90381874D01*
X80256956Y-90384288D01*
X80183205Y-90391683D01*
X80153776Y-90397347D01*
X80021133Y-90442982D01*
X79901606Y-90512663D01*
X79795283Y-90606260D01*
X79702253Y-90723649D01*
X79622605Y-90864700D01*
X79556426Y-91029286D01*
X79503806Y-91217280D01*
X79472533Y-91378217D01*
X79464374Y-91449263D01*
X79458815Y-91541046D01*
X79455802Y-91646968D01*
X79455281Y-91760434D01*
X79457200Y-91874849D01*
X79461503Y-91983617D01*
X79468137Y-92080143D01*
X79477049Y-92157831D01*
X79478979Y-92169817D01*
X79521499Y-92362892D01*
X79579433Y-92533773D01*
X79653133Y-92683224D01*
X79742951Y-92812011D01*
X79806707Y-92881639D01*
X79921286Y-92976173D01*
X80046942Y-93046246D01*
X80181557Y-93091477D01*
X80323011Y-93111484D01*
X80469183Y-93105885D01*
X80617955Y-93074300D01*
X80705911Y-93043394D01*
X80827629Y-92981506D01*
X80953080Y-92892729D01*
X81023353Y-92832694D01*
X81062811Y-92797947D01*
X81093812Y-92772454D01*
X81111458Y-92760170D01*
X81113648Y-92759795D01*
X81121524Y-92772347D01*
X81141932Y-92805516D01*
X81173132Y-92856458D01*
X81213386Y-92922331D01*
X81260957Y-93000289D01*
X81314104Y-93087490D01*
X81343687Y-93136067D01*
X81569648Y-93507215D01*
X81287527Y-93646639D01*
X81185522Y-93696719D01*
X81102889Y-93736210D01*
X81034578Y-93767073D01*
X80975537Y-93791268D01*
X80920714Y-93810758D01*
X80865060Y-93827503D01*
X80803523Y-93843465D01*
X80744540Y-93857482D01*
X80692115Y-93868329D01*
X80637288Y-93876526D01*
X80574572Y-93882528D01*
X80498477Y-93886790D01*
X80403516Y-93889767D01*
X80339513Y-93891052D01*
X80248192Y-93891930D01*
X80160627Y-93891487D01*
X80082612Y-93889852D01*
X80019942Y-93887149D01*
X79978413Y-93883505D01*
X79975952Y-93883142D01*
X79760303Y-93836487D01*
X79557793Y-93765729D01*
X79368495Y-93670914D01*
X79192479Y-93552089D01*
X79029816Y-93409300D01*
X78880578Y-93242594D01*
X78772496Y-93094433D01*
X78657434Y-92900502D01*
X78564423Y-92695699D01*
X78493013Y-92478383D01*
X78442756Y-92246912D01*
X78413201Y-91999643D01*
X78403889Y-91748559D01*
X78411548Y-91505670D01*
X78435613Y-91281570D01*
X78476852Y-91072477D01*
X78536027Y-90874613D01*
X78613904Y-90684196D01*
X78623203Y-90664468D01*
X78725648Y-90480059D01*
X78851472Y-90304576D01*
X78997112Y-90141650D01*
X79159001Y-89994914D01*
X79333576Y-89868001D01*
X79496244Y-89774905D01*
X79660573Y-89701991D01*
X79825251Y-89649174D01*
X79996652Y-89615015D01*
X80181153Y-89598078D01*
X80291459Y-89595580D01*
X80449962Y-89600499D01*
G36*
X74054257Y-88913689D02*
G01*
X74318780Y-88913725D01*
X74441912Y-88913730D01*
X76412811Y-88913730D01*
X76412811Y-89029910D01*
X76425211Y-89171291D01*
X76462636Y-89301684D01*
X76525423Y-89421862D01*
X76613906Y-89532602D01*
X76643843Y-89562511D01*
X76751534Y-89647348D01*
X76870275Y-89709221D01*
X76996540Y-89748159D01*
X77126803Y-89764190D01*
X77257535Y-89757342D01*
X77385212Y-89727643D01*
X77506305Y-89675120D01*
X77617288Y-89599803D01*
X77667132Y-89554363D01*
X77760017Y-89442952D01*
X77828127Y-89320435D01*
X77870871Y-89188215D01*
X77887653Y-89047692D01*
X77887876Y-89033867D01*
X77888756Y-88913734D01*
X77941557Y-88913732D01*
X77988396Y-88920089D01*
X78031183Y-88935556D01*
X78034011Y-88937154D01*
X78043675Y-88942168D01*
X78052549Y-88946073D01*
X78060665Y-88950007D01*
X78068057Y-88955106D01*
X78074755Y-88962508D01*
X78080792Y-88973351D01*
X78086199Y-88988772D01*
X78091010Y-89009909D01*
X78095255Y-89037899D01*
X78098968Y-89073879D01*
X78102179Y-89118987D01*
X78104922Y-89174360D01*
X78107228Y-89241137D01*
X78109129Y-89320453D01*
X78110658Y-89413447D01*
X78111846Y-89521257D01*
X78112726Y-89645019D01*
X78113330Y-89785871D01*
X78113689Y-89944950D01*
X78113835Y-90123395D01*
X78113802Y-90322342D01*
X78113620Y-90542929D01*
X78113323Y-90786293D01*
X78112941Y-91053572D01*
X78112508Y-91345903D01*
X78112055Y-91664424D01*
X78112002Y-91703230D01*
X78111596Y-92023782D01*
X78111251Y-92318012D01*
X78110931Y-92587056D01*
X78110600Y-92832052D01*
X78110221Y-93054137D01*
X78109757Y-93254447D01*
X78109172Y-93434119D01*
X78108430Y-93594290D01*
X78107494Y-93736098D01*
X78106327Y-93860679D01*
X78104893Y-93969170D01*
X78103156Y-94062707D01*
X78101078Y-94142429D01*
X78098624Y-94209472D01*
X78095756Y-94264973D01*
X78092439Y-94310068D01*
X78088636Y-94345895D01*
X78084310Y-94373591D01*
X78079425Y-94394293D01*
X78073945Y-94409137D01*
X78067832Y-94419260D01*
X78061050Y-94425800D01*
X78053563Y-94429893D01*
X78045334Y-94432676D01*
X78036327Y-94435287D01*
X78026505Y-94438862D01*
X78024106Y-94439950D01*
X78016565Y-94442396D01*
X78003944Y-94444642D01*
X77985141Y-94446698D01*
X77959053Y-94448572D01*
X77924578Y-94450271D01*
X77880615Y-94451803D01*
X77826061Y-94453177D01*
X77759815Y-94454400D01*
X77680774Y-94455481D01*
X77587837Y-94456427D01*
X77479901Y-94457247D01*
X77355864Y-94457947D01*
X77214624Y-94458538D01*
X77055079Y-94459025D01*
X76876128Y-94459419D01*
X76676668Y-94459725D01*
X76455596Y-94459953D01*
X76211812Y-94460110D01*
X75944213Y-94460205D01*
X75651697Y-94460245D01*
X75333161Y-94460238D01*
X75229979Y-94460228D01*
X74904377Y-94460176D01*
X74605119Y-94460091D01*
X74331091Y-94459963D01*
X74081176Y-94459785D01*
X73854260Y-94459548D01*
X73649227Y-94459242D01*
X73464962Y-94458860D01*
X73300350Y-94458392D01*
X73154275Y-94457830D01*
X73025624Y-94457165D01*
X72913279Y-94456388D01*
X72816126Y-94455491D01*
X72733050Y-94454465D01*
X72662936Y-94453301D01*
X72604668Y-94451991D01*
X72557131Y-94450525D01*
X72519210Y-94448896D01*
X72489790Y-94447093D01*
X72467755Y-94445110D01*
X72451990Y-94442936D01*
X72441380Y-94440563D01*
X72435596Y-94438391D01*
X72425316Y-94434056D01*
X72415878Y-94430859D01*
X72407245Y-94427665D01*
X72399381Y-94423338D01*
X72392252Y-94416744D01*
X72385821Y-94406747D01*
X72380053Y-94392212D01*
X72374911Y-94372003D01*
X72370360Y-94344985D01*
X72366365Y-94310023D01*
X72362889Y-94265981D01*
X72359898Y-94211724D01*
X72357354Y-94146117D01*
X72355223Y-94068024D01*
X72353468Y-93976310D01*
X72352055Y-93869840D01*
X72351685Y-93828973D01*
X72718116Y-93828973D01*
X74013266Y-93828973D01*
X73988345Y-93791217D01*
X73963553Y-93752417D01*
X73942560Y-93715469D01*
X73925065Y-93677788D01*
X73910770Y-93636788D01*
X73899377Y-93589883D01*
X73890587Y-93534487D01*
X73884102Y-93468016D01*
X73879623Y-93387883D01*
X73876850Y-93291502D01*
X73875487Y-93176289D01*
X73875233Y-93039657D01*
X73875791Y-92879020D01*
X73876107Y-92819382D01*
X73879675Y-92180041D01*
X74284702Y-92731449D01*
X74399446Y-92887876D01*
X74498857Y-93024088D01*
X74584010Y-93141890D01*
X74655978Y-93243084D01*
X74715834Y-93329477D01*
X74764652Y-93402874D01*
X74803505Y-93465077D01*
X74833466Y-93517893D01*
X74855609Y-93563125D01*
X74871007Y-93602578D01*
X74880734Y-93638058D01*
X74885863Y-93671368D01*
X74887468Y-93704313D01*
X74886621Y-93738697D01*
X74886405Y-93743019D01*
X74881946Y-93829031D01*
X76301308Y-93828973D01*
X76195735Y-93722522D01*
X76167087Y-93693406D01*
X76139910Y-93665076D01*
X76113011Y-93635968D01*
X76085197Y-93604520D01*
X76055275Y-93569169D01*
X76022054Y-93528354D01*
X75984339Y-93480511D01*
X75940940Y-93424079D01*
X75890662Y-93357494D01*
X75832312Y-93279195D01*
X75764700Y-93187619D01*
X75686631Y-93081204D01*
X75596912Y-92958387D01*
X75494352Y-92817605D01*
X75377758Y-92657297D01*
X75282191Y-92525798D01*
X75162251Y-92360596D01*
X75057620Y-92216152D01*
X74967352Y-92091094D01*
X74890497Y-91984052D01*
X74826109Y-91893654D01*
X74773239Y-91818529D01*
X74730940Y-91757304D01*
X74698264Y-91708610D01*
X74674262Y-91671074D01*
X74657987Y-91643325D01*
X74648492Y-91623992D01*
X74644827Y-91611703D01*
X74645929Y-91605242D01*
X74659276Y-91588048D01*
X74688134Y-91551655D01*
X74730760Y-91498224D01*
X74785415Y-91429919D01*
X74850356Y-91348903D01*
X74923842Y-91257340D01*
X75004132Y-91157392D01*
X75089485Y-91051224D01*
X75178160Y-90940997D01*
X75268414Y-90828876D01*
X75318056Y-90767244D01*
X76550627Y-90767244D01*
X76601854Y-90859919D01*
X76653081Y-90952595D01*
X76653081Y-93643622D01*
X76601854Y-93736298D01*
X76550627Y-93828973D01*
X77156604Y-93828973D01*
X77301266Y-93828931D01*
X77420756Y-93828741D01*
X77517358Y-93828308D01*
X77593358Y-93827536D01*
X77651043Y-93826330D01*
X77692699Y-93824594D01*
X77720611Y-93822232D01*
X77737065Y-93819150D01*
X77744348Y-93815251D01*
X77744745Y-93810440D01*
X77740542Y-93804622D01*
X77740499Y-93804574D01*
X77723187Y-93779532D01*
X77700264Y-93738815D01*
X77680019Y-93698168D01*
X77641621Y-93616162D01*
X77633789Y-90767244D01*
X76550627Y-90767244D01*
X75318056Y-90767244D01*
X75358507Y-90717024D01*
X75446698Y-90607604D01*
X75531246Y-90502778D01*
X75610408Y-90404711D01*
X75682444Y-90315566D01*
X75745613Y-90237505D01*
X75798173Y-90172692D01*
X75838383Y-90123290D01*
X75862000Y-90094487D01*
X75953710Y-89986778D01*
X76041940Y-89889580D01*
X76123597Y-89806076D01*
X76195590Y-89739448D01*
X76246681Y-89698599D01*
X76307093Y-89655135D01*
X74917702Y-89655135D01*
X74918092Y-89736666D01*
X74914209Y-89796606D01*
X74899610Y-89852177D01*
X74877012Y-89904855D01*
X74862322Y-89934615D01*
X74846528Y-89964103D01*
X74828186Y-89995276D01*
X74805855Y-90030093D01*
X74778091Y-90070510D01*
X74743451Y-90118486D01*
X74700493Y-90175978D01*
X74647773Y-90244943D01*
X74583849Y-90327339D01*
X74507279Y-90425124D01*
X74416619Y-90540255D01*
X74310426Y-90674690D01*
X74298432Y-90689859D01*
X73879675Y-91219412D01*
X73875622Y-90632922D01*
X73874805Y-90457251D01*
X73874979Y-90308532D01*
X73876151Y-90186275D01*
X73878331Y-90089989D01*
X73881526Y-90019183D01*
X73885744Y-89973369D01*
X73887162Y-89964679D01*
X73909409Y-89873135D01*
X73938557Y-89790608D01*
X73971818Y-89724253D01*
X73991800Y-89696110D01*
X74026278Y-89655135D01*
X73372086Y-89655135D01*
X73216031Y-89655269D01*
X73085533Y-89655703D01*
X72978690Y-89656489D01*
X72893602Y-89657676D01*
X72828365Y-89659317D01*
X72781079Y-89661461D01*
X72749843Y-89664159D01*
X72732754Y-89667462D01*
X72727912Y-89671421D01*
X72728247Y-89672298D01*
X72742115Y-89693231D01*
X72765268Y-89726412D01*
X72777246Y-89743193D01*
X72789631Y-89759940D01*
X72800763Y-89774915D01*
X72810712Y-89789594D01*
X72819549Y-89805449D01*
X72827343Y-89823955D01*
X72834165Y-89846585D01*
X72840084Y-89874813D01*
X72845171Y-89910113D01*
X72849496Y-89953958D01*
X72853129Y-90007822D01*
X72856140Y-90073180D01*
X72858599Y-90151504D01*
X72860577Y-90244268D01*
X72862142Y-90352947D01*
X72863366Y-90479013D01*
X72864319Y-90623942D01*
X72865070Y-90789206D01*
X72865689Y-90976279D01*
X72866248Y-91186635D01*
X72866815Y-91421748D01*
X72867345Y-91637741D01*
X72867845Y-91878535D01*
X72868105Y-92108274D01*
X72868132Y-92325493D01*
X72867933Y-92528722D01*
X72867514Y-92716496D01*
X72866882Y-92887345D01*
X72866044Y-93039803D01*
X72865008Y-93172403D01*
X72863780Y-93283676D01*
X72862367Y-93372156D01*
X72860775Y-93436375D01*
X72859013Y-93474865D01*
X72858679Y-93478933D01*
X72846534Y-93572248D01*
X72827573Y-93647190D01*
X72798698Y-93712594D01*
X72756810Y-93777293D01*
X72751571Y-93784352D01*
X72718116Y-93828973D01*
X72351685Y-93828973D01*
X72350946Y-93747479D01*
X72350107Y-93608090D01*
X72349502Y-93450539D01*
X72349095Y-93273691D01*
X72348850Y-93076410D01*
X72348733Y-92857560D01*
X72348705Y-92616007D01*
X72348733Y-92350615D01*
X72348780Y-92060249D01*
X72348810Y-91743773D01*
X72348811Y-91680946D01*
X72348828Y-91361137D01*
X72348888Y-91067661D01*
X72348998Y-90799390D01*
X72349167Y-90555198D01*
X72349403Y-90333957D01*
X72349716Y-90134540D01*
X72350115Y-89955820D01*
X72350607Y-89796671D01*
X72351203Y-89655966D01*
X72351910Y-89532576D01*
X72352737Y-89425376D01*
X72353693Y-89333238D01*
X72354787Y-89255035D01*
X72356027Y-89189641D01*
X72357422Y-89135928D01*
X72358982Y-89092769D01*
X72360714Y-89059037D01*
X72362628Y-89033605D01*
X72364732Y-89015347D01*
X72367034Y-89003134D01*
X72369545Y-88995841D01*
X72369637Y-88995659D01*
X72374808Y-88984518D01*
X72379115Y-88974431D01*
X72383879Y-88965346D01*
X72390422Y-88957212D01*
X72400065Y-88949976D01*
X72414129Y-88943586D01*
X72433937Y-88937989D01*
X72460809Y-88933133D01*
X72496067Y-88928966D01*
X72541032Y-88925436D01*
X72597026Y-88922491D01*
X72665371Y-88920077D01*
X72747386Y-88918144D01*
X72844395Y-88916638D01*
X72957718Y-88915508D01*
X73088677Y-88914702D01*
X73238593Y-88914166D01*
X73408787Y-88913849D01*
X73600582Y-88913699D01*
X73815298Y-88913663D01*
X74054257Y-88913689D01*
G37*
X74054257Y-88913689D02*
X74318780Y-88913725D01*
X74441912Y-88913730D01*
X76412811Y-88913730D01*
X76412811Y-89029910D01*
X76425211Y-89171291D01*
X76462636Y-89301684D01*
X76525423Y-89421862D01*
X76613906Y-89532602D01*
X76643843Y-89562511D01*
X76751534Y-89647348D01*
X76870275Y-89709221D01*
X76996540Y-89748159D01*
X77126803Y-89764190D01*
X77257535Y-89757342D01*
X77385212Y-89727643D01*
X77506305Y-89675120D01*
X77617288Y-89599803D01*
X77667132Y-89554363D01*
X77760017Y-89442952D01*
X77828127Y-89320435D01*
X77870871Y-89188215D01*
X77887653Y-89047692D01*
X77887876Y-89033867D01*
X77888756Y-88913734D01*
X77941557Y-88913732D01*
X77988396Y-88920089D01*
X78031183Y-88935556D01*
X78034011Y-88937154D01*
X78043675Y-88942168D01*
X78052549Y-88946073D01*
X78060665Y-88950007D01*
X78068057Y-88955106D01*
X78074755Y-88962508D01*
X78080792Y-88973351D01*
X78086199Y-88988772D01*
X78091010Y-89009909D01*
X78095255Y-89037899D01*
X78098968Y-89073879D01*
X78102179Y-89118987D01*
X78104922Y-89174360D01*
X78107228Y-89241137D01*
X78109129Y-89320453D01*
X78110658Y-89413447D01*
X78111846Y-89521257D01*
X78112726Y-89645019D01*
X78113330Y-89785871D01*
X78113689Y-89944950D01*
X78113835Y-90123395D01*
X78113802Y-90322342D01*
X78113620Y-90542929D01*
X78113323Y-90786293D01*
X78112941Y-91053572D01*
X78112508Y-91345903D01*
X78112055Y-91664424D01*
X78112002Y-91703230D01*
X78111596Y-92023782D01*
X78111251Y-92318012D01*
X78110931Y-92587056D01*
X78110600Y-92832052D01*
X78110221Y-93054137D01*
X78109757Y-93254447D01*
X78109172Y-93434119D01*
X78108430Y-93594290D01*
X78107494Y-93736098D01*
X78106327Y-93860679D01*
X78104893Y-93969170D01*
X78103156Y-94062707D01*
X78101078Y-94142429D01*
X78098624Y-94209472D01*
X78095756Y-94264973D01*
X78092439Y-94310068D01*
X78088636Y-94345895D01*
X78084310Y-94373591D01*
X78079425Y-94394293D01*
X78073945Y-94409137D01*
X78067832Y-94419260D01*
X78061050Y-94425800D01*
X78053563Y-94429893D01*
X78045334Y-94432676D01*
X78036327Y-94435287D01*
X78026505Y-94438862D01*
X78024106Y-94439950D01*
X78016565Y-94442396D01*
X78003944Y-94444642D01*
X77985141Y-94446698D01*
X77959053Y-94448572D01*
X77924578Y-94450271D01*
X77880615Y-94451803D01*
X77826061Y-94453177D01*
X77759815Y-94454400D01*
X77680774Y-94455481D01*
X77587837Y-94456427D01*
X77479901Y-94457247D01*
X77355864Y-94457947D01*
X77214624Y-94458538D01*
X77055079Y-94459025D01*
X76876128Y-94459419D01*
X76676668Y-94459725D01*
X76455596Y-94459953D01*
X76211812Y-94460110D01*
X75944213Y-94460205D01*
X75651697Y-94460245D01*
X75333161Y-94460238D01*
X75229979Y-94460228D01*
X74904377Y-94460176D01*
X74605119Y-94460091D01*
X74331091Y-94459963D01*
X74081176Y-94459785D01*
X73854260Y-94459548D01*
X73649227Y-94459242D01*
X73464962Y-94458860D01*
X73300350Y-94458392D01*
X73154275Y-94457830D01*
X73025624Y-94457165D01*
X72913279Y-94456388D01*
X72816126Y-94455491D01*
X72733050Y-94454465D01*
X72662936Y-94453301D01*
X72604668Y-94451991D01*
X72557131Y-94450525D01*
X72519210Y-94448896D01*
X72489790Y-94447093D01*
X72467755Y-94445110D01*
X72451990Y-94442936D01*
X72441380Y-94440563D01*
X72435596Y-94438391D01*
X72425316Y-94434056D01*
X72415878Y-94430859D01*
X72407245Y-94427665D01*
X72399381Y-94423338D01*
X72392252Y-94416744D01*
X72385821Y-94406747D01*
X72380053Y-94392212D01*
X72374911Y-94372003D01*
X72370360Y-94344985D01*
X72366365Y-94310023D01*
X72362889Y-94265981D01*
X72359898Y-94211724D01*
X72357354Y-94146117D01*
X72355223Y-94068024D01*
X72353468Y-93976310D01*
X72352055Y-93869840D01*
X72351685Y-93828973D01*
X72718116Y-93828973D01*
X74013266Y-93828973D01*
X73988345Y-93791217D01*
X73963553Y-93752417D01*
X73942560Y-93715469D01*
X73925065Y-93677788D01*
X73910770Y-93636788D01*
X73899377Y-93589883D01*
X73890587Y-93534487D01*
X73884102Y-93468016D01*
X73879623Y-93387883D01*
X73876850Y-93291502D01*
X73875487Y-93176289D01*
X73875233Y-93039657D01*
X73875791Y-92879020D01*
X73876107Y-92819382D01*
X73879675Y-92180041D01*
X74284702Y-92731449D01*
X74399446Y-92887876D01*
X74498857Y-93024088D01*
X74584010Y-93141890D01*
X74655978Y-93243084D01*
X74715834Y-93329477D01*
X74764652Y-93402874D01*
X74803505Y-93465077D01*
X74833466Y-93517893D01*
X74855609Y-93563125D01*
X74871007Y-93602578D01*
X74880734Y-93638058D01*
X74885863Y-93671368D01*
X74887468Y-93704313D01*
X74886621Y-93738697D01*
X74886405Y-93743019D01*
X74881946Y-93829031D01*
X76301308Y-93828973D01*
X76195735Y-93722522D01*
X76167087Y-93693406D01*
X76139910Y-93665076D01*
X76113011Y-93635968D01*
X76085197Y-93604520D01*
X76055275Y-93569169D01*
X76022054Y-93528354D01*
X75984339Y-93480511D01*
X75940940Y-93424079D01*
X75890662Y-93357494D01*
X75832312Y-93279195D01*
X75764700Y-93187619D01*
X75686631Y-93081204D01*
X75596912Y-92958387D01*
X75494352Y-92817605D01*
X75377758Y-92657297D01*
X75282191Y-92525798D01*
X75162251Y-92360596D01*
X75057620Y-92216152D01*
X74967352Y-92091094D01*
X74890497Y-91984052D01*
X74826109Y-91893654D01*
X74773239Y-91818529D01*
X74730940Y-91757304D01*
X74698264Y-91708610D01*
X74674262Y-91671074D01*
X74657987Y-91643325D01*
X74648492Y-91623992D01*
X74644827Y-91611703D01*
X74645929Y-91605242D01*
X74659276Y-91588048D01*
X74688134Y-91551655D01*
X74730760Y-91498224D01*
X74785415Y-91429919D01*
X74850356Y-91348903D01*
X74923842Y-91257340D01*
X75004132Y-91157392D01*
X75089485Y-91051224D01*
X75178160Y-90940997D01*
X75268414Y-90828876D01*
X75318056Y-90767244D01*
X76550627Y-90767244D01*
X76601854Y-90859919D01*
X76653081Y-90952595D01*
X76653081Y-93643622D01*
X76601854Y-93736298D01*
X76550627Y-93828973D01*
X77156604Y-93828973D01*
X77301266Y-93828931D01*
X77420756Y-93828741D01*
X77517358Y-93828308D01*
X77593358Y-93827536D01*
X77651043Y-93826330D01*
X77692699Y-93824594D01*
X77720611Y-93822232D01*
X77737065Y-93819150D01*
X77744348Y-93815251D01*
X77744745Y-93810440D01*
X77740542Y-93804622D01*
X77740499Y-93804574D01*
X77723187Y-93779532D01*
X77700264Y-93738815D01*
X77680019Y-93698168D01*
X77641621Y-93616162D01*
X77633789Y-90767244D01*
X76550627Y-90767244D01*
X75318056Y-90767244D01*
X75358507Y-90717024D01*
X75446698Y-90607604D01*
X75531246Y-90502778D01*
X75610408Y-90404711D01*
X75682444Y-90315566D01*
X75745613Y-90237505D01*
X75798173Y-90172692D01*
X75838383Y-90123290D01*
X75862000Y-90094487D01*
X75953710Y-89986778D01*
X76041940Y-89889580D01*
X76123597Y-89806076D01*
X76195590Y-89739448D01*
X76246681Y-89698599D01*
X76307093Y-89655135D01*
X74917702Y-89655135D01*
X74918092Y-89736666D01*
X74914209Y-89796606D01*
X74899610Y-89852177D01*
X74877012Y-89904855D01*
X74862322Y-89934615D01*
X74846528Y-89964103D01*
X74828186Y-89995276D01*
X74805855Y-90030093D01*
X74778091Y-90070510D01*
X74743451Y-90118486D01*
X74700493Y-90175978D01*
X74647773Y-90244943D01*
X74583849Y-90327339D01*
X74507279Y-90425124D01*
X74416619Y-90540255D01*
X74310426Y-90674690D01*
X74298432Y-90689859D01*
X73879675Y-91219412D01*
X73875622Y-90632922D01*
X73874805Y-90457251D01*
X73874979Y-90308532D01*
X73876151Y-90186275D01*
X73878331Y-90089989D01*
X73881526Y-90019183D01*
X73885744Y-89973369D01*
X73887162Y-89964679D01*
X73909409Y-89873135D01*
X73938557Y-89790608D01*
X73971818Y-89724253D01*
X73991800Y-89696110D01*
X74026278Y-89655135D01*
X73372086Y-89655135D01*
X73216031Y-89655269D01*
X73085533Y-89655703D01*
X72978690Y-89656489D01*
X72893602Y-89657676D01*
X72828365Y-89659317D01*
X72781079Y-89661461D01*
X72749843Y-89664159D01*
X72732754Y-89667462D01*
X72727912Y-89671421D01*
X72728247Y-89672298D01*
X72742115Y-89693231D01*
X72765268Y-89726412D01*
X72777246Y-89743193D01*
X72789631Y-89759940D01*
X72800763Y-89774915D01*
X72810712Y-89789594D01*
X72819549Y-89805449D01*
X72827343Y-89823955D01*
X72834165Y-89846585D01*
X72840084Y-89874813D01*
X72845171Y-89910113D01*
X72849496Y-89953958D01*
X72853129Y-90007822D01*
X72856140Y-90073180D01*
X72858599Y-90151504D01*
X72860577Y-90244268D01*
X72862142Y-90352947D01*
X72863366Y-90479013D01*
X72864319Y-90623942D01*
X72865070Y-90789206D01*
X72865689Y-90976279D01*
X72866248Y-91186635D01*
X72866815Y-91421748D01*
X72867345Y-91637741D01*
X72867845Y-91878535D01*
X72868105Y-92108274D01*
X72868132Y-92325493D01*
X72867933Y-92528722D01*
X72867514Y-92716496D01*
X72866882Y-92887345D01*
X72866044Y-93039803D01*
X72865008Y-93172403D01*
X72863780Y-93283676D01*
X72862367Y-93372156D01*
X72860775Y-93436375D01*
X72859013Y-93474865D01*
X72858679Y-93478933D01*
X72846534Y-93572248D01*
X72827573Y-93647190D01*
X72798698Y-93712594D01*
X72756810Y-93777293D01*
X72751571Y-93784352D01*
X72718116Y-93828973D01*
X72351685Y-93828973D01*
X72350946Y-93747479D01*
X72350107Y-93608090D01*
X72349502Y-93450539D01*
X72349095Y-93273691D01*
X72348850Y-93076410D01*
X72348733Y-92857560D01*
X72348705Y-92616007D01*
X72348733Y-92350615D01*
X72348780Y-92060249D01*
X72348810Y-91743773D01*
X72348811Y-91680946D01*
X72348828Y-91361137D01*
X72348888Y-91067661D01*
X72348998Y-90799390D01*
X72349167Y-90555198D01*
X72349403Y-90333957D01*
X72349716Y-90134540D01*
X72350115Y-89955820D01*
X72350607Y-89796671D01*
X72351203Y-89655966D01*
X72351910Y-89532576D01*
X72352737Y-89425376D01*
X72353693Y-89333238D01*
X72354787Y-89255035D01*
X72356027Y-89189641D01*
X72357422Y-89135928D01*
X72358982Y-89092769D01*
X72360714Y-89059037D01*
X72362628Y-89033605D01*
X72364732Y-89015347D01*
X72367034Y-89003134D01*
X72369545Y-88995841D01*
X72369637Y-88995659D01*
X72374808Y-88984518D01*
X72379115Y-88974431D01*
X72383879Y-88965346D01*
X72390422Y-88957212D01*
X72400065Y-88949976D01*
X72414129Y-88943586D01*
X72433937Y-88937989D01*
X72460809Y-88933133D01*
X72496067Y-88928966D01*
X72541032Y-88925436D01*
X72597026Y-88922491D01*
X72665371Y-88920077D01*
X72747386Y-88918144D01*
X72844395Y-88916638D01*
X72957718Y-88915508D01*
X73088677Y-88914702D01*
X73238593Y-88914166D01*
X73408787Y-88913849D01*
X73600582Y-88913699D01*
X73815298Y-88913663D01*
X74054257Y-88913689D01*
D12*
%TO.C,U1*%
X112155000Y-86760000D02*
X112155000Y-94885000D01*
X132955000Y-86760000D02*
X112155000Y-86760000D01*
X132955000Y-105010000D02*
X132955000Y-86760000D01*
X113155000Y-105010000D02*
X132955000Y-105010000D01*
X112155000Y-104010000D02*
X113155000Y-105010000D01*
X112155000Y-96885000D02*
X112155000Y-104010000D01*
%TO.C,R2*%
X116935000Y-83285000D02*
X116935000Y-82955000D01*
X110395000Y-83285000D02*
X116935000Y-83285000D01*
X110395000Y-82955000D02*
X110395000Y-83285000D01*
X116935000Y-80545000D02*
X116935000Y-80875000D01*
X110395000Y-80545000D02*
X116935000Y-80545000D01*
X110395000Y-80875000D02*
X110395000Y-80545000D01*
%TO.C,C1*%
X109895000Y-95670000D02*
X109895000Y-95985000D01*
X109895000Y-93245000D02*
X109895000Y-93560000D01*
X104655000Y-95670000D02*
X104655000Y-95985000D01*
X104655000Y-93245000D02*
X104655000Y-93560000D01*
X104655000Y-95985000D02*
X109895000Y-95985000D01*
X104655000Y-93245000D02*
X109895000Y-93245000D01*
%TO.C,TP1*%
X73555000Y-81915000D02*
G75*
G03*
X73555000Y-81915000I-1800000J0D01*
G01*
%TO.C,R1*%
X153575000Y-85625000D02*
X153575000Y-85955000D01*
X160115000Y-85625000D02*
X153575000Y-85625000D01*
X160115000Y-85955000D02*
X160115000Y-85625000D01*
X153575000Y-88365000D02*
X153575000Y-88035000D01*
X160115000Y-88365000D02*
X153575000Y-88365000D01*
X160115000Y-88035000D02*
X160115000Y-88365000D01*
%TO.C,J1*%
X159385000Y-121285000D02*
X159385000Y-122555000D01*
X158115000Y-121285000D02*
X159385000Y-121285000D01*
X96775000Y-123597929D02*
X96775000Y-124052071D01*
X97535000Y-123597929D02*
X97535000Y-124052071D01*
X96775000Y-126137929D02*
X96775000Y-126535000D01*
X97535000Y-126137929D02*
X97535000Y-126535000D01*
X96775000Y-135195000D02*
X96775000Y-129195000D01*
X97535000Y-135195000D02*
X96775000Y-135195000D01*
X97535000Y-129195000D02*
X97535000Y-135195000D01*
X98425000Y-126535000D02*
X98425000Y-129195000D01*
X99315000Y-123597929D02*
X99315000Y-124052071D01*
X100075000Y-123597929D02*
X100075000Y-124052071D01*
X99315000Y-126137929D02*
X99315000Y-126535000D01*
X100075000Y-126137929D02*
X100075000Y-126535000D01*
X99315000Y-135195000D02*
X99315000Y-129195000D01*
X100075000Y-135195000D02*
X99315000Y-135195000D01*
X100075000Y-129195000D02*
X100075000Y-135195000D01*
X100965000Y-126535000D02*
X100965000Y-129195000D01*
X101855000Y-123597929D02*
X101855000Y-124052071D01*
X102615000Y-123597929D02*
X102615000Y-124052071D01*
X101855000Y-126137929D02*
X101855000Y-126535000D01*
X102615000Y-126137929D02*
X102615000Y-126535000D01*
X101855000Y-135195000D02*
X101855000Y-129195000D01*
X102615000Y-135195000D02*
X101855000Y-135195000D01*
X102615000Y-129195000D02*
X102615000Y-135195000D01*
X103505000Y-126535000D02*
X103505000Y-129195000D01*
X104395000Y-123597929D02*
X104395000Y-124052071D01*
X105155000Y-123597929D02*
X105155000Y-124052071D01*
X104395000Y-126137929D02*
X104395000Y-126535000D01*
X105155000Y-126137929D02*
X105155000Y-126535000D01*
X104395000Y-135195000D02*
X104395000Y-129195000D01*
X105155000Y-135195000D02*
X104395000Y-135195000D01*
X105155000Y-129195000D02*
X105155000Y-135195000D01*
X106045000Y-126535000D02*
X106045000Y-129195000D01*
X106935000Y-123597929D02*
X106935000Y-124052071D01*
X107695000Y-123597929D02*
X107695000Y-124052071D01*
X106935000Y-126137929D02*
X106935000Y-126535000D01*
X107695000Y-126137929D02*
X107695000Y-126535000D01*
X106935000Y-135195000D02*
X106935000Y-129195000D01*
X107695000Y-135195000D02*
X106935000Y-135195000D01*
X107695000Y-129195000D02*
X107695000Y-135195000D01*
X108585000Y-126535000D02*
X108585000Y-129195000D01*
X109475000Y-123597929D02*
X109475000Y-124052071D01*
X110235000Y-123597929D02*
X110235000Y-124052071D01*
X109475000Y-126137929D02*
X109475000Y-126535000D01*
X110235000Y-126137929D02*
X110235000Y-126535000D01*
X109475000Y-135195000D02*
X109475000Y-129195000D01*
X110235000Y-135195000D02*
X109475000Y-135195000D01*
X110235000Y-129195000D02*
X110235000Y-135195000D01*
X111125000Y-126535000D02*
X111125000Y-129195000D01*
X112015000Y-123597929D02*
X112015000Y-124052071D01*
X112775000Y-123597929D02*
X112775000Y-124052071D01*
X112015000Y-126137929D02*
X112015000Y-126535000D01*
X112775000Y-126137929D02*
X112775000Y-126535000D01*
X112015000Y-135195000D02*
X112015000Y-129195000D01*
X112775000Y-135195000D02*
X112015000Y-135195000D01*
X112775000Y-129195000D02*
X112775000Y-135195000D01*
X113665000Y-126535000D02*
X113665000Y-129195000D01*
X114555000Y-123597929D02*
X114555000Y-124052071D01*
X115315000Y-123597929D02*
X115315000Y-124052071D01*
X114555000Y-126137929D02*
X114555000Y-126535000D01*
X115315000Y-126137929D02*
X115315000Y-126535000D01*
X114555000Y-135195000D02*
X114555000Y-129195000D01*
X115315000Y-135195000D02*
X114555000Y-135195000D01*
X115315000Y-129195000D02*
X115315000Y-135195000D01*
X116205000Y-126535000D02*
X116205000Y-129195000D01*
X117095000Y-123597929D02*
X117095000Y-124052071D01*
X117855000Y-123597929D02*
X117855000Y-124052071D01*
X117095000Y-126137929D02*
X117095000Y-126535000D01*
X117855000Y-126137929D02*
X117855000Y-126535000D01*
X117095000Y-135195000D02*
X117095000Y-129195000D01*
X117855000Y-135195000D02*
X117095000Y-135195000D01*
X117855000Y-129195000D02*
X117855000Y-135195000D01*
X118745000Y-126535000D02*
X118745000Y-129195000D01*
X119635000Y-123597929D02*
X119635000Y-124052071D01*
X120395000Y-123597929D02*
X120395000Y-124052071D01*
X119635000Y-126137929D02*
X119635000Y-126535000D01*
X120395000Y-126137929D02*
X120395000Y-126535000D01*
X119635000Y-135195000D02*
X119635000Y-129195000D01*
X120395000Y-135195000D02*
X119635000Y-135195000D01*
X120395000Y-129195000D02*
X120395000Y-135195000D01*
X121285000Y-126535000D02*
X121285000Y-129195000D01*
X122175000Y-123597929D02*
X122175000Y-124052071D01*
X122935000Y-123597929D02*
X122935000Y-124052071D01*
X122175000Y-126137929D02*
X122175000Y-126535000D01*
X122935000Y-126137929D02*
X122935000Y-126535000D01*
X122175000Y-135195000D02*
X122175000Y-129195000D01*
X122935000Y-135195000D02*
X122175000Y-135195000D01*
X122935000Y-129195000D02*
X122935000Y-135195000D01*
X123825000Y-126535000D02*
X123825000Y-129195000D01*
X124715000Y-123597929D02*
X124715000Y-124052071D01*
X125475000Y-123597929D02*
X125475000Y-124052071D01*
X124715000Y-126137929D02*
X124715000Y-126535000D01*
X125475000Y-126137929D02*
X125475000Y-126535000D01*
X124715000Y-135195000D02*
X124715000Y-129195000D01*
X125475000Y-135195000D02*
X124715000Y-135195000D01*
X125475000Y-129195000D02*
X125475000Y-135195000D01*
X126365000Y-126535000D02*
X126365000Y-129195000D01*
X127255000Y-123597929D02*
X127255000Y-124052071D01*
X128015000Y-123597929D02*
X128015000Y-124052071D01*
X127255000Y-126137929D02*
X127255000Y-126535000D01*
X128015000Y-126137929D02*
X128015000Y-126535000D01*
X127255000Y-135195000D02*
X127255000Y-129195000D01*
X128015000Y-135195000D02*
X127255000Y-135195000D01*
X128015000Y-129195000D02*
X128015000Y-135195000D01*
X128905000Y-126535000D02*
X128905000Y-129195000D01*
X129795000Y-123597929D02*
X129795000Y-124052071D01*
X130555000Y-123597929D02*
X130555000Y-124052071D01*
X129795000Y-126137929D02*
X129795000Y-126535000D01*
X130555000Y-126137929D02*
X130555000Y-126535000D01*
X129795000Y-135195000D02*
X129795000Y-129195000D01*
X130555000Y-135195000D02*
X129795000Y-135195000D01*
X130555000Y-129195000D02*
X130555000Y-135195000D01*
X131445000Y-126535000D02*
X131445000Y-129195000D01*
X132335000Y-123597929D02*
X132335000Y-124052071D01*
X133095000Y-123597929D02*
X133095000Y-124052071D01*
X132335000Y-126137929D02*
X132335000Y-126535000D01*
X133095000Y-126137929D02*
X133095000Y-126535000D01*
X132335000Y-135195000D02*
X132335000Y-129195000D01*
X133095000Y-135195000D02*
X132335000Y-135195000D01*
X133095000Y-129195000D02*
X133095000Y-135195000D01*
X133985000Y-126535000D02*
X133985000Y-129195000D01*
X134875000Y-123597929D02*
X134875000Y-124052071D01*
X135635000Y-123597929D02*
X135635000Y-124052071D01*
X134875000Y-126137929D02*
X134875000Y-126535000D01*
X135635000Y-126137929D02*
X135635000Y-126535000D01*
X134875000Y-135195000D02*
X134875000Y-129195000D01*
X135635000Y-135195000D02*
X134875000Y-135195000D01*
X135635000Y-129195000D02*
X135635000Y-135195000D01*
X136525000Y-126535000D02*
X136525000Y-129195000D01*
X137415000Y-123597929D02*
X137415000Y-124052071D01*
X138175000Y-123597929D02*
X138175000Y-124052071D01*
X137415000Y-126137929D02*
X137415000Y-126535000D01*
X138175000Y-126137929D02*
X138175000Y-126535000D01*
X137415000Y-135195000D02*
X137415000Y-129195000D01*
X138175000Y-135195000D02*
X137415000Y-135195000D01*
X138175000Y-129195000D02*
X138175000Y-135195000D01*
X139065000Y-126535000D02*
X139065000Y-129195000D01*
X139955000Y-123597929D02*
X139955000Y-124052071D01*
X140715000Y-123597929D02*
X140715000Y-124052071D01*
X139955000Y-126137929D02*
X139955000Y-126535000D01*
X140715000Y-126137929D02*
X140715000Y-126535000D01*
X139955000Y-135195000D02*
X139955000Y-129195000D01*
X140715000Y-135195000D02*
X139955000Y-135195000D01*
X140715000Y-129195000D02*
X140715000Y-135195000D01*
X141605000Y-126535000D02*
X141605000Y-129195000D01*
X142495000Y-123597929D02*
X142495000Y-124052071D01*
X143255000Y-123597929D02*
X143255000Y-124052071D01*
X142495000Y-126137929D02*
X142495000Y-126535000D01*
X143255000Y-126137929D02*
X143255000Y-126535000D01*
X142495000Y-135195000D02*
X142495000Y-129195000D01*
X143255000Y-135195000D02*
X142495000Y-135195000D01*
X143255000Y-129195000D02*
X143255000Y-135195000D01*
X144145000Y-126535000D02*
X144145000Y-129195000D01*
X145035000Y-123597929D02*
X145035000Y-124052071D01*
X145795000Y-123597929D02*
X145795000Y-124052071D01*
X145035000Y-126137929D02*
X145035000Y-126535000D01*
X145795000Y-126137929D02*
X145795000Y-126535000D01*
X145035000Y-135195000D02*
X145035000Y-129195000D01*
X145795000Y-135195000D02*
X145035000Y-135195000D01*
X145795000Y-129195000D02*
X145795000Y-135195000D01*
X146685000Y-126535000D02*
X146685000Y-129195000D01*
X147575000Y-123597929D02*
X147575000Y-124052071D01*
X148335000Y-123597929D02*
X148335000Y-124052071D01*
X147575000Y-126137929D02*
X147575000Y-126535000D01*
X148335000Y-126137929D02*
X148335000Y-126535000D01*
X147575000Y-135195000D02*
X147575000Y-129195000D01*
X148335000Y-135195000D02*
X147575000Y-135195000D01*
X148335000Y-129195000D02*
X148335000Y-135195000D01*
X149225000Y-126535000D02*
X149225000Y-129195000D01*
X150115000Y-123597929D02*
X150115000Y-124052071D01*
X150875000Y-123597929D02*
X150875000Y-124052071D01*
X150115000Y-126137929D02*
X150115000Y-126535000D01*
X150875000Y-126137929D02*
X150875000Y-126535000D01*
X150115000Y-135195000D02*
X150115000Y-129195000D01*
X150875000Y-135195000D02*
X150115000Y-135195000D01*
X150875000Y-129195000D02*
X150875000Y-135195000D01*
X151765000Y-126535000D02*
X151765000Y-129195000D01*
X152655000Y-123597929D02*
X152655000Y-124052071D01*
X153415000Y-123597929D02*
X153415000Y-124052071D01*
X152655000Y-126137929D02*
X152655000Y-126535000D01*
X153415000Y-126137929D02*
X153415000Y-126535000D01*
X152655000Y-135195000D02*
X152655000Y-129195000D01*
X153415000Y-135195000D02*
X152655000Y-135195000D01*
X153415000Y-129195000D02*
X153415000Y-135195000D01*
X154305000Y-126535000D02*
X154305000Y-129195000D01*
X155195000Y-123597929D02*
X155195000Y-124052071D01*
X155955000Y-123597929D02*
X155955000Y-124052071D01*
X155195000Y-126137929D02*
X155195000Y-126535000D01*
X155955000Y-126137929D02*
X155955000Y-126535000D01*
X155195000Y-135195000D02*
X155195000Y-129195000D01*
X155955000Y-135195000D02*
X155195000Y-135195000D01*
X155955000Y-129195000D02*
X155955000Y-135195000D01*
X156845000Y-126535000D02*
X156845000Y-129195000D01*
X157735000Y-123665000D02*
X157735000Y-124052071D01*
X158495000Y-123665000D02*
X158495000Y-124052071D01*
X157735000Y-126137929D02*
X157735000Y-126535000D01*
X158495000Y-126137929D02*
X158495000Y-126535000D01*
X157835000Y-129195000D02*
X157835000Y-135195000D01*
X157955000Y-129195000D02*
X157955000Y-135195000D01*
X158075000Y-129195000D02*
X158075000Y-135195000D01*
X158195000Y-129195000D02*
X158195000Y-135195000D01*
X158315000Y-129195000D02*
X158315000Y-135195000D01*
X158435000Y-129195000D02*
X158435000Y-135195000D01*
X157735000Y-135195000D02*
X157735000Y-129195000D01*
X158495000Y-135195000D02*
X157735000Y-135195000D01*
X158495000Y-129195000D02*
X158495000Y-135195000D01*
X159445000Y-129195000D02*
X159445000Y-126535000D01*
X95825000Y-129195000D02*
X159445000Y-129195000D01*
X95825000Y-126535000D02*
X95825000Y-129195000D01*
X159445000Y-126535000D02*
X95825000Y-126535000D01*
%TO.C,D1*%
X150495000Y-80835000D02*
X150495000Y-80835000D01*
X150495000Y-80705000D02*
X150495000Y-80835000D01*
X150495000Y-80705000D02*
X150495000Y-80705000D01*
X150495000Y-80835000D02*
X150495000Y-80705000D01*
X153035000Y-80835000D02*
X153035000Y-80835000D01*
X153035000Y-80705000D02*
X153035000Y-80835000D01*
X153035000Y-80705000D02*
X153035000Y-80705000D01*
X153035000Y-80835000D02*
X153035000Y-80705000D01*
X149205000Y-80705000D02*
X148805000Y-80705000D01*
X149205000Y-79585000D02*
X149205000Y-80705000D01*
X148805000Y-79585000D02*
X149205000Y-79585000D01*
X148805000Y-80705000D02*
X148805000Y-79585000D01*
X154325000Y-80705000D02*
X149205000Y-80705000D01*
X149205000Y-80705000D02*
X149205000Y-74545000D01*
X154325000Y-80705000D02*
X154325000Y-74545000D01*
X149205000Y-74545000D02*
G75*
G02*
X154325000Y-74545000I2560000J0D01*
G01*
%TO.C,U1*%
D11*
X109093095Y-87082380D02*
X109093095Y-87891904D01*
X109140714Y-87987142D01*
X109188333Y-88034761D01*
X109283571Y-88082380D01*
X109474047Y-88082380D01*
X109569285Y-88034761D01*
X109616904Y-87987142D01*
X109664523Y-87891904D01*
X109664523Y-87082380D01*
X110664523Y-88082380D02*
X110093095Y-88082380D01*
X110378809Y-88082380D02*
X110378809Y-87082380D01*
X110283571Y-87225238D01*
X110188333Y-87320476D01*
X110093095Y-87368095D01*
%TO.C,R2*%
X107148333Y-82367380D02*
X106815000Y-81891190D01*
X106576904Y-82367380D02*
X106576904Y-81367380D01*
X106957857Y-81367380D01*
X107053095Y-81415000D01*
X107100714Y-81462619D01*
X107148333Y-81557857D01*
X107148333Y-81700714D01*
X107100714Y-81795952D01*
X107053095Y-81843571D01*
X106957857Y-81891190D01*
X106576904Y-81891190D01*
X107529285Y-81462619D02*
X107576904Y-81415000D01*
X107672142Y-81367380D01*
X107910238Y-81367380D01*
X108005476Y-81415000D01*
X108053095Y-81462619D01*
X108100714Y-81557857D01*
X108100714Y-81653095D01*
X108053095Y-81795952D01*
X107481666Y-82367380D01*
X108100714Y-82367380D01*
X113545952Y-82367380D02*
X112974523Y-82367380D01*
X113260238Y-82367380D02*
X113260238Y-81367380D01*
X113165000Y-81510238D01*
X113069761Y-81605476D01*
X112974523Y-81653095D01*
X113974523Y-82367380D02*
X113974523Y-81367380D01*
X114069761Y-81986428D02*
X114355476Y-82367380D01*
X114355476Y-81700714D02*
X113974523Y-82081666D01*
%TO.C,C1*%
X102068333Y-94972142D02*
X102020714Y-95019761D01*
X101877857Y-95067380D01*
X101782619Y-95067380D01*
X101639761Y-95019761D01*
X101544523Y-94924523D01*
X101496904Y-94829285D01*
X101449285Y-94638809D01*
X101449285Y-94495952D01*
X101496904Y-94305476D01*
X101544523Y-94210238D01*
X101639761Y-94115000D01*
X101782619Y-94067380D01*
X101877857Y-94067380D01*
X102020714Y-94115000D01*
X102068333Y-94162619D01*
X103020714Y-95067380D02*
X102449285Y-95067380D01*
X102735000Y-95067380D02*
X102735000Y-94067380D01*
X102639761Y-94210238D01*
X102544523Y-94305476D01*
X102449285Y-94353095D01*
%TO.C,TP1*%
X74811095Y-82383380D02*
X75382523Y-82383380D01*
X75096809Y-83383380D02*
X75096809Y-82383380D01*
X75715857Y-83383380D02*
X75715857Y-82383380D01*
X76096809Y-82383380D01*
X76192047Y-82431000D01*
X76239666Y-82478619D01*
X76287285Y-82573857D01*
X76287285Y-82716714D01*
X76239666Y-82811952D01*
X76192047Y-82859571D01*
X76096809Y-82907190D01*
X75715857Y-82907190D01*
X77239666Y-83383380D02*
X76668238Y-83383380D01*
X76953952Y-83383380D02*
X76953952Y-82383380D01*
X76858714Y-82526238D01*
X76763476Y-82621476D01*
X76668238Y-82669095D01*
X70993095Y-85225000D02*
X70897857Y-85177380D01*
X70755000Y-85177380D01*
X70612142Y-85225000D01*
X70516904Y-85320238D01*
X70469285Y-85415476D01*
X70421666Y-85605952D01*
X70421666Y-85748809D01*
X70469285Y-85939285D01*
X70516904Y-86034523D01*
X70612142Y-86129761D01*
X70755000Y-86177380D01*
X70850238Y-86177380D01*
X70993095Y-86129761D01*
X71040714Y-86082142D01*
X71040714Y-85748809D01*
X70850238Y-85748809D01*
X71469285Y-86177380D02*
X71469285Y-85177380D01*
X72040714Y-86177380D01*
X72040714Y-85177380D01*
X72516904Y-86177380D02*
X72516904Y-85177380D01*
X72755000Y-85177380D01*
X72897857Y-85225000D01*
X72993095Y-85320238D01*
X73040714Y-85415476D01*
X73088333Y-85605952D01*
X73088333Y-85748809D01*
X73040714Y-85939285D01*
X72993095Y-86034523D01*
X72897857Y-86129761D01*
X72755000Y-86177380D01*
X72516904Y-86177380D01*
%TO.C,R1*%
X150328333Y-87447380D02*
X149995000Y-86971190D01*
X149756904Y-87447380D02*
X149756904Y-86447380D01*
X150137857Y-86447380D01*
X150233095Y-86495000D01*
X150280714Y-86542619D01*
X150328333Y-86637857D01*
X150328333Y-86780714D01*
X150280714Y-86875952D01*
X150233095Y-86923571D01*
X150137857Y-86971190D01*
X149756904Y-86971190D01*
X151280714Y-87447380D02*
X150709285Y-87447380D01*
X150995000Y-87447380D02*
X150995000Y-86447380D01*
X150899761Y-86590238D01*
X150804523Y-86685476D01*
X150709285Y-86733095D01*
X155559285Y-86447380D02*
X156178333Y-86447380D01*
X155845000Y-86828333D01*
X155987857Y-86828333D01*
X156083095Y-86875952D01*
X156130714Y-86923571D01*
X156178333Y-87018809D01*
X156178333Y-87256904D01*
X156130714Y-87352142D01*
X156083095Y-87399761D01*
X155987857Y-87447380D01*
X155702142Y-87447380D01*
X155606904Y-87399761D01*
X155559285Y-87352142D01*
X156511666Y-86447380D02*
X157130714Y-86447380D01*
X156797380Y-86828333D01*
X156940238Y-86828333D01*
X157035476Y-86875952D01*
X157083095Y-86923571D01*
X157130714Y-87018809D01*
X157130714Y-87256904D01*
X157083095Y-87352142D01*
X157035476Y-87399761D01*
X156940238Y-87447380D01*
X156654523Y-87447380D01*
X156559285Y-87399761D01*
X156511666Y-87352142D01*
X157749761Y-86447380D02*
X157845000Y-86447380D01*
X157940238Y-86495000D01*
X157987857Y-86542619D01*
X158035476Y-86637857D01*
X158083095Y-86828333D01*
X158083095Y-87066428D01*
X158035476Y-87256904D01*
X157987857Y-87352142D01*
X157940238Y-87399761D01*
X157845000Y-87447380D01*
X157749761Y-87447380D01*
X157654523Y-87399761D01*
X157606904Y-87352142D01*
X157559285Y-87256904D01*
X157511666Y-87066428D01*
X157511666Y-86828333D01*
X157559285Y-86637857D01*
X157606904Y-86542619D01*
X157654523Y-86495000D01*
X157749761Y-86447380D01*
%TO.C,J1*%
X96186666Y-119467380D02*
X96186666Y-120181666D01*
X96139047Y-120324523D01*
X96043809Y-120419761D01*
X95900952Y-120467380D01*
X95805714Y-120467380D01*
X97186666Y-120467380D02*
X96615238Y-120467380D01*
X96900952Y-120467380D02*
X96900952Y-119467380D01*
X96805714Y-119610238D01*
X96710476Y-119705476D01*
X96615238Y-119753095D01*
%TO.C,D1*%
X148683214Y-84907380D02*
X148683214Y-83907380D01*
X148921309Y-83907380D01*
X149064166Y-83955000D01*
X149159404Y-84050238D01*
X149207023Y-84145476D01*
X149254642Y-84335952D01*
X149254642Y-84478809D01*
X149207023Y-84669285D01*
X149159404Y-84764523D01*
X149064166Y-84859761D01*
X148921309Y-84907380D01*
X148683214Y-84907380D01*
X150207023Y-84907380D02*
X149635595Y-84907380D01*
X149921309Y-84907380D02*
X149921309Y-83907380D01*
X149826071Y-84050238D01*
X149730833Y-84145476D01*
X149635595Y-84193095D01*
X151701666Y-84907380D02*
X151701666Y-83907380D01*
X152082619Y-83907380D01*
X152177857Y-83955000D01*
X152225476Y-84002619D01*
X152273095Y-84097857D01*
X152273095Y-84240714D01*
X152225476Y-84335952D01*
X152177857Y-84383571D01*
X152082619Y-84431190D01*
X151701666Y-84431190D01*
X152606428Y-83907380D02*
X152844523Y-84907380D01*
X153035000Y-84193095D01*
X153225476Y-84907380D01*
X153463571Y-83907380D01*
X154415952Y-84907380D02*
X154082619Y-84431190D01*
X153844523Y-84907380D02*
X153844523Y-83907380D01*
X154225476Y-83907380D01*
X154320714Y-83955000D01*
X154368333Y-84002619D01*
X154415952Y-84097857D01*
X154415952Y-84240714D01*
X154368333Y-84335952D01*
X154320714Y-84383571D01*
X154225476Y-84431190D01*
X153844523Y-84431190D01*
%TD*%
M02*
