M48
; DRILL file {KiCad 5.1.9} date Sun Dec 27 17:53:16 2020
; FORMAT={-:-/ absolute / inch / decimal}
; #@! TF.CreationDate,2020-12-27T17:53:16+01:00
; #@! TF.GenerationSoftware,Kicad,Pcbnew,5.1.9
; #@! TF.FileFunction,Plated,1,2,PTH
FMAT,2
INCH
T1C0.0160
T2C0.0315
T3C0.0354
T4C0.0394
T5C0.0551
%
G90
G05
T1
X3.875Y-4.475
X3.975Y-4.425
X4.075Y-4.575
X4.175Y-3.625
X4.175Y-4.375
X4.175Y-4.525
X4.225Y-3.575
X4.225Y-4.325
X4.275Y-4.025
X4.275Y-4.275
X4.275Y-4.675
X4.325Y-3.875
X4.325Y-4.175
X4.375Y-4.225
X4.375Y-4.625
X4.425Y-4.125
X4.525Y-4.075
X4.675Y-4.675
X4.675Y-4.725
X4.725Y-4.625
X4.775Y-4.575
X4.775Y-4.675
X4.825Y-4.525
X4.875Y-4.475
X4.875Y-4.525
X4.925Y-4.425
X4.975Y-4.425
X4.975Y-4.475
X5.025Y-4.725
X5.075Y-4.125
X5.125Y-4.675
X5.175Y-4.425
X5.225Y-4.475
X5.275Y-4.225
X5.325Y-3.675
X5.375Y-4.175
X5.425Y-4.125
X5.475Y-4.275
X5.525Y-3.925
X5.575Y-4.325
X5.625Y-4.075
X5.675Y-4.375
X5.725Y-3.975
X5.775Y-4.525
X5.825Y-3.675
X5.925Y-3.725
X6.025Y-3.725
X6.125Y-3.725
T2
X4.125Y-3.725
X4.3219Y-3.725
X4.325Y-3.225
X4.525Y-3.625
X4.525Y-3.725
X4.525Y-3.825
X4.525Y-3.925
X4.625Y-3.225
X4.625Y-3.525
X4.625Y-3.625
X4.625Y-3.725
X4.625Y-3.825
X4.625Y-3.925
X4.625Y-4.025
X4.725Y-3.525
X4.725Y-3.625
X4.725Y-3.925
X4.725Y-4.025
X4.825Y-3.525
X4.825Y-3.625
X4.825Y-3.925
X4.825Y-4.025
X4.925Y-3.525
X4.925Y-3.625
X4.925Y-3.925
X4.925Y-4.025
X5.025Y-3.525
X5.025Y-3.625
X5.025Y-3.725
X5.025Y-3.825
X5.025Y-3.925
X5.025Y-4.025
X5.125Y-3.625
X5.125Y-3.725
X5.125Y-3.825
X5.125Y-3.925
X6.025Y-3.425
X6.325Y-3.425
T3
X5.925Y-3.225
X6.025Y-3.225
T4
X3.825Y-4.825
X3.825Y-4.925
X3.925Y-4.825
X3.925Y-4.925
X4.025Y-4.825
X4.025Y-4.925
X4.125Y-4.825
X4.125Y-4.925
X4.225Y-4.825
X4.225Y-4.925
X4.325Y-4.825
X4.325Y-4.925
X4.425Y-4.825
X4.425Y-4.925
X4.525Y-4.825
X4.525Y-4.925
X4.625Y-4.825
X4.625Y-4.925
X4.725Y-4.825
X4.725Y-4.925
X4.825Y-4.825
X4.825Y-4.925
X4.925Y-4.825
X4.925Y-4.925
X5.025Y-4.825
X5.025Y-4.925
X5.125Y-4.825
X5.125Y-4.925
X5.225Y-4.825
X5.225Y-4.925
X5.325Y-4.825
X5.325Y-4.925
X5.425Y-4.825
X5.425Y-4.925
X5.525Y-4.825
X5.525Y-4.925
X5.625Y-4.825
X5.625Y-4.925
X5.725Y-4.825
X5.725Y-4.925
X5.825Y-4.825
X5.825Y-4.925
X5.925Y-4.825
X5.925Y-4.925
X6.025Y-4.825
X6.025Y-4.925
X6.125Y-4.825
X6.125Y-4.925
X6.225Y-4.825
X6.225Y-4.925
T5
X2.825Y-3.225
T0
M30
