M48
; DRILL file {KiCad 5.1.9} date Mon Feb  1 10:15:45 2021
; FORMAT={-:-/ absolute / inch / decimal}
; #@! TF.CreationDate,2021-02-01T10:15:45+01:00
; #@! TF.GenerationSoftware,Kicad,Pcbnew,5.1.9
; #@! TF.FileFunction,Plated,1,2,PTH
FMAT,2
INCH
T1C0.0315
T2C0.0354
T3C0.0394
T4C0.0551
%
G90
G05
T1
X4.8Y-4.4
X4.8Y-4.5969
X5.0Y-4.6
X5.0Y-5.2
X5.1Y-4.6
X5.1Y-5.2
X5.2Y-4.6
X5.2Y-5.2
X5.3Y-4.6
X5.3Y-5.2
X5.4Y-4.6
X5.4Y-5.2
X5.5Y-4.6
X5.5Y-5.2
X5.6Y-4.6
X5.6Y-5.2
X5.7Y-4.6
X5.7Y-5.2
X5.8Y-4.6
X5.8Y-5.2
X5.9Y-4.6
X5.9Y-5.2
X6.0Y-4.6
X6.0Y-5.2
X6.1Y-4.6
X6.1Y-5.2
X6.2Y-4.6
X6.2Y-5.2
X6.3Y-4.6
X6.3Y-5.2
X6.9Y-4.6
X7.2Y-4.6
T2
X6.8Y-4.4
X6.9Y-4.4
T3
X4.7Y-5.9
X4.7Y-6.0
X4.8Y-5.9
X4.8Y-6.0
X4.9Y-5.9
X4.9Y-6.0
X5.0Y-5.9
X5.0Y-6.0
X5.1Y-5.9
X5.1Y-6.0
X5.2Y-5.9
X5.2Y-6.0
X5.3Y-5.9
X5.3Y-6.0
X5.4Y-5.9
X5.4Y-6.0
X5.5Y-5.9
X5.5Y-6.0
X5.6Y-5.9
X5.6Y-6.0
X5.7Y-5.9
X5.7Y-6.0
X5.8Y-5.9
X5.8Y-6.0
X5.9Y-5.9
X5.9Y-6.0
X6.0Y-5.9
X6.0Y-6.0
X6.1Y-5.9
X6.1Y-6.0
X6.2Y-5.9
X6.2Y-6.0
X6.3Y-5.9
X6.3Y-6.0
X6.4Y-5.9
X6.4Y-6.0
X6.5Y-5.9
X6.5Y-6.0
X6.6Y-5.9
X6.6Y-6.0
X6.7Y-5.9
X6.7Y-6.0
X6.8Y-5.9
X6.8Y-6.0
X6.9Y-5.9
X6.9Y-6.0
X7.0Y-5.9
X7.0Y-6.0
X7.1Y-5.9
X7.1Y-6.0
T4
X3.75Y-4.25
T0
M30
