%TF.GenerationSoftware,KiCad,Pcbnew,5.1.9*%
%TF.CreationDate,2021-02-01T10:15:42+01:00*%
%TF.ProjectId,ROM_27_28_DIP,524f4d5f-3237-45f3-9238-5f4449502e6b,1.1*%
%TF.SameCoordinates,Original*%
%TF.FileFunction,Legend,Top*%
%TF.FilePolarity,Positive*%
%FSLAX46Y46*%
G04 Gerber Fmt 4.6, Leading zero omitted, Abs format (unit mm)*
G04 Created by KiCad (PCBNEW 5.1.9) date 2021-02-01 10:15:42*
%MOMM*%
%LPD*%
G01*
G04 APERTURE LIST*
%ADD10C,0.200000*%
%ADD11C,0.120000*%
%ADD12C,0.010000*%
%ADD13C,0.150000*%
G04 APERTURE END LIST*
D10*
X131860714Y-108290000D02*
X132575000Y-108290000D01*
X131717857Y-108718571D02*
X132217857Y-107218571D01*
X132717857Y-108718571D01*
X133860714Y-108718571D02*
X133860714Y-107218571D01*
X133860714Y-108647142D02*
X133717857Y-108718571D01*
X133432142Y-108718571D01*
X133289285Y-108647142D01*
X133217857Y-108575714D01*
X133146428Y-108432857D01*
X133146428Y-108004285D01*
X133217857Y-107861428D01*
X133289285Y-107790000D01*
X133432142Y-107718571D01*
X133717857Y-107718571D01*
X133860714Y-107790000D01*
X134575000Y-108718571D02*
X134575000Y-107718571D01*
X134575000Y-108004285D02*
X134646428Y-107861428D01*
X134717857Y-107790000D01*
X134860714Y-107718571D01*
X135003571Y-107718571D01*
X135503571Y-108718571D02*
X135503571Y-107718571D01*
X135503571Y-107218571D02*
X135432142Y-107290000D01*
X135503571Y-107361428D01*
X135575000Y-107290000D01*
X135503571Y-107218571D01*
X135503571Y-107361428D01*
X136860714Y-108718571D02*
X136860714Y-107932857D01*
X136789285Y-107790000D01*
X136646428Y-107718571D01*
X136360714Y-107718571D01*
X136217857Y-107790000D01*
X136860714Y-108647142D02*
X136717857Y-108718571D01*
X136360714Y-108718571D01*
X136217857Y-108647142D01*
X136146428Y-108504285D01*
X136146428Y-108361428D01*
X136217857Y-108218571D01*
X136360714Y-108147142D01*
X136717857Y-108147142D01*
X136860714Y-108075714D01*
X138575000Y-107218571D02*
X139503571Y-107218571D01*
X139003571Y-107790000D01*
X139217857Y-107790000D01*
X139360714Y-107861428D01*
X139432142Y-107932857D01*
X139503571Y-108075714D01*
X139503571Y-108432857D01*
X139432142Y-108575714D01*
X139360714Y-108647142D01*
X139217857Y-108718571D01*
X138789285Y-108718571D01*
X138646428Y-108647142D01*
X138575000Y-108575714D01*
X140075000Y-107361428D02*
X140146428Y-107290000D01*
X140289285Y-107218571D01*
X140646428Y-107218571D01*
X140789285Y-107290000D01*
X140860714Y-107361428D01*
X140932142Y-107504285D01*
X140932142Y-107647142D01*
X140860714Y-107861428D01*
X140003571Y-108718571D01*
X140932142Y-108718571D01*
X141575000Y-108718571D02*
X141575000Y-107218571D01*
X141717857Y-108147142D02*
X142146428Y-108718571D01*
X142146428Y-107718571D02*
X141575000Y-108290000D01*
X143289285Y-107932857D02*
X143503571Y-108004285D01*
X143575000Y-108075714D01*
X143646428Y-108218571D01*
X143646428Y-108432857D01*
X143575000Y-108575714D01*
X143503571Y-108647142D01*
X143360714Y-108718571D01*
X142789285Y-108718571D01*
X142789285Y-107218571D01*
X143289285Y-107218571D01*
X143432142Y-107290000D01*
X143503571Y-107361428D01*
X143575000Y-107504285D01*
X143575000Y-107647142D01*
X143503571Y-107790000D01*
X143432142Y-107861428D01*
X143289285Y-107932857D01*
X142789285Y-107932857D01*
X144146428Y-107718571D02*
X144503571Y-108718571D01*
X144860714Y-107718571D02*
X144503571Y-108718571D01*
X144360714Y-109075714D01*
X144289285Y-109147142D01*
X144146428Y-109218571D01*
X145217857Y-107718571D02*
X145789285Y-107718571D01*
X145432142Y-107218571D02*
X145432142Y-108504285D01*
X145503571Y-108647142D01*
X145646428Y-108718571D01*
X145789285Y-108718571D01*
X146860714Y-108647142D02*
X146717857Y-108718571D01*
X146432142Y-108718571D01*
X146289285Y-108647142D01*
X146217857Y-108504285D01*
X146217857Y-107932857D01*
X146289285Y-107790000D01*
X146432142Y-107718571D01*
X146717857Y-107718571D01*
X146860714Y-107790000D01*
X146932142Y-107932857D01*
X146932142Y-108075714D01*
X146217857Y-108218571D01*
X148717857Y-107932857D02*
X149217857Y-107932857D01*
X149432142Y-108718571D02*
X148717857Y-108718571D01*
X148717857Y-107218571D01*
X149432142Y-107218571D01*
X150075000Y-108718571D02*
X150075000Y-107218571D01*
X150646428Y-107218571D01*
X150789285Y-107290000D01*
X150860714Y-107361428D01*
X150932142Y-107504285D01*
X150932142Y-107718571D01*
X150860714Y-107861428D01*
X150789285Y-107932857D01*
X150646428Y-108004285D01*
X150075000Y-108004285D01*
X152432142Y-108718571D02*
X151932142Y-108004285D01*
X151575000Y-108718571D02*
X151575000Y-107218571D01*
X152146428Y-107218571D01*
X152289285Y-107290000D01*
X152360714Y-107361428D01*
X152432142Y-107504285D01*
X152432142Y-107718571D01*
X152360714Y-107861428D01*
X152289285Y-107932857D01*
X152146428Y-108004285D01*
X151575000Y-108004285D01*
X153360714Y-107218571D02*
X153646428Y-107218571D01*
X153789285Y-107290000D01*
X153932142Y-107432857D01*
X154003571Y-107718571D01*
X154003571Y-108218571D01*
X153932142Y-108504285D01*
X153789285Y-108647142D01*
X153646428Y-108718571D01*
X153360714Y-108718571D01*
X153217857Y-108647142D01*
X153075000Y-108504285D01*
X153003571Y-108218571D01*
X153003571Y-107718571D01*
X153075000Y-107432857D01*
X153217857Y-107290000D01*
X153360714Y-107218571D01*
X154646428Y-108718571D02*
X154646428Y-107218571D01*
X155146428Y-108290000D01*
X155646428Y-107218571D01*
X155646428Y-108718571D01*
X158003571Y-107932857D02*
X158217857Y-108004285D01*
X158289285Y-108075714D01*
X158360714Y-108218571D01*
X158360714Y-108432857D01*
X158289285Y-108575714D01*
X158217857Y-108647142D01*
X158075000Y-108718571D01*
X157503571Y-108718571D01*
X157503571Y-107218571D01*
X158003571Y-107218571D01*
X158146428Y-107290000D01*
X158217857Y-107361428D01*
X158289285Y-107504285D01*
X158289285Y-107647142D01*
X158217857Y-107790000D01*
X158146428Y-107861428D01*
X158003571Y-107932857D01*
X157503571Y-107932857D01*
X159217857Y-108718571D02*
X159075000Y-108647142D01*
X159003571Y-108575714D01*
X158932142Y-108432857D01*
X158932142Y-108004285D01*
X159003571Y-107861428D01*
X159075000Y-107790000D01*
X159217857Y-107718571D01*
X159432142Y-107718571D01*
X159575000Y-107790000D01*
X159646428Y-107861428D01*
X159717857Y-108004285D01*
X159717857Y-108432857D01*
X159646428Y-108575714D01*
X159575000Y-108647142D01*
X159432142Y-108718571D01*
X159217857Y-108718571D01*
X161003571Y-108718571D02*
X161003571Y-107932857D01*
X160932142Y-107790000D01*
X160789285Y-107718571D01*
X160503571Y-107718571D01*
X160360714Y-107790000D01*
X161003571Y-108647142D02*
X160860714Y-108718571D01*
X160503571Y-108718571D01*
X160360714Y-108647142D01*
X160289285Y-108504285D01*
X160289285Y-108361428D01*
X160360714Y-108218571D01*
X160503571Y-108147142D01*
X160860714Y-108147142D01*
X161003571Y-108075714D01*
X161717857Y-108718571D02*
X161717857Y-107718571D01*
X161717857Y-108004285D02*
X161789285Y-107861428D01*
X161860714Y-107790000D01*
X162003571Y-107718571D01*
X162146428Y-107718571D01*
X163289285Y-108718571D02*
X163289285Y-107218571D01*
X163289285Y-108647142D02*
X163146428Y-108718571D01*
X162860714Y-108718571D01*
X162717857Y-108647142D01*
X162646428Y-108575714D01*
X162575000Y-108432857D01*
X162575000Y-108004285D01*
X162646428Y-107861428D01*
X162717857Y-107790000D01*
X162860714Y-107718571D01*
X163146428Y-107718571D01*
X163289285Y-107790000D01*
X131932142Y-111168571D02*
X131932142Y-109668571D01*
X132289285Y-109668571D01*
X132503571Y-109740000D01*
X132646428Y-109882857D01*
X132717857Y-110025714D01*
X132789285Y-110311428D01*
X132789285Y-110525714D01*
X132717857Y-110811428D01*
X132646428Y-110954285D01*
X132503571Y-111097142D01*
X132289285Y-111168571D01*
X131932142Y-111168571D01*
X133432142Y-111168571D02*
X133432142Y-109668571D01*
X134146428Y-111168571D02*
X134146428Y-109668571D01*
X134717857Y-109668571D01*
X134860714Y-109740000D01*
X134932142Y-109811428D01*
X135003571Y-109954285D01*
X135003571Y-110168571D01*
X134932142Y-110311428D01*
X134860714Y-110382857D01*
X134717857Y-110454285D01*
X134146428Y-110454285D01*
X135575000Y-109811428D02*
X135646428Y-109740000D01*
X135789285Y-109668571D01*
X136146428Y-109668571D01*
X136289285Y-109740000D01*
X136360714Y-109811428D01*
X136432142Y-109954285D01*
X136432142Y-110097142D01*
X136360714Y-110311428D01*
X135503571Y-111168571D01*
X136432142Y-111168571D01*
X137289285Y-110311428D02*
X137146428Y-110240000D01*
X137075000Y-110168571D01*
X137003571Y-110025714D01*
X137003571Y-109954285D01*
X137075000Y-109811428D01*
X137146428Y-109740000D01*
X137289285Y-109668571D01*
X137575000Y-109668571D01*
X137717857Y-109740000D01*
X137789285Y-109811428D01*
X137860714Y-109954285D01*
X137860714Y-110025714D01*
X137789285Y-110168571D01*
X137717857Y-110240000D01*
X137575000Y-110311428D01*
X137289285Y-110311428D01*
X137146428Y-110382857D01*
X137075000Y-110454285D01*
X137003571Y-110597142D01*
X137003571Y-110882857D01*
X137075000Y-111025714D01*
X137146428Y-111097142D01*
X137289285Y-111168571D01*
X137575000Y-111168571D01*
X137717857Y-111097142D01*
X137789285Y-111025714D01*
X137860714Y-110882857D01*
X137860714Y-110597142D01*
X137789285Y-110454285D01*
X137717857Y-110382857D01*
X137575000Y-110311428D01*
X139503571Y-110168571D02*
X139860714Y-111168571D01*
X140217857Y-110168571D01*
X141360714Y-111097142D02*
X141217857Y-111168571D01*
X140932142Y-111168571D01*
X140789285Y-111097142D01*
X140717857Y-110954285D01*
X140717857Y-110382857D01*
X140789285Y-110240000D01*
X140932142Y-110168571D01*
X141217857Y-110168571D01*
X141360714Y-110240000D01*
X141432142Y-110382857D01*
X141432142Y-110525714D01*
X140717857Y-110668571D01*
X142075000Y-111168571D02*
X142075000Y-110168571D01*
X142075000Y-110454285D02*
X142146428Y-110311428D01*
X142217857Y-110240000D01*
X142360714Y-110168571D01*
X142503571Y-110168571D01*
X142932142Y-111097142D02*
X143075000Y-111168571D01*
X143360714Y-111168571D01*
X143503571Y-111097142D01*
X143575000Y-110954285D01*
X143575000Y-110882857D01*
X143503571Y-110740000D01*
X143360714Y-110668571D01*
X143146428Y-110668571D01*
X143003571Y-110597142D01*
X142932142Y-110454285D01*
X142932142Y-110382857D01*
X143003571Y-110240000D01*
X143146428Y-110168571D01*
X143360714Y-110168571D01*
X143503571Y-110240000D01*
X144217857Y-111168571D02*
X144217857Y-110168571D01*
X144217857Y-109668571D02*
X144146428Y-109740000D01*
X144217857Y-109811428D01*
X144289285Y-109740000D01*
X144217857Y-109668571D01*
X144217857Y-109811428D01*
X145146428Y-111168571D02*
X145003571Y-111097142D01*
X144932142Y-111025714D01*
X144860714Y-110882857D01*
X144860714Y-110454285D01*
X144932142Y-110311428D01*
X145003571Y-110240000D01*
X145146428Y-110168571D01*
X145360714Y-110168571D01*
X145503571Y-110240000D01*
X145575000Y-110311428D01*
X145646428Y-110454285D01*
X145646428Y-110882857D01*
X145575000Y-111025714D01*
X145503571Y-111097142D01*
X145360714Y-111168571D01*
X145146428Y-111168571D01*
X146289285Y-110168571D02*
X146289285Y-111168571D01*
X146289285Y-110311428D02*
X146360714Y-110240000D01*
X146503571Y-110168571D01*
X146717857Y-110168571D01*
X146860714Y-110240000D01*
X146932142Y-110382857D01*
X146932142Y-111168571D01*
X149575000Y-111168571D02*
X148717857Y-111168571D01*
X149146428Y-111168571D02*
X149146428Y-109668571D01*
X149003571Y-109882857D01*
X148860714Y-110025714D01*
X148717857Y-110097142D01*
X150217857Y-111025714D02*
X150289285Y-111097142D01*
X150217857Y-111168571D01*
X150146428Y-111097142D01*
X150217857Y-111025714D01*
X150217857Y-111168571D01*
X151717857Y-111168571D02*
X150860714Y-111168571D01*
X151289285Y-111168571D02*
X151289285Y-109668571D01*
X151146428Y-109882857D01*
X151003571Y-110025714D01*
X150860714Y-110097142D01*
X131789285Y-112118571D02*
X132789285Y-113618571D01*
X132789285Y-112118571D02*
X131789285Y-113618571D01*
X134003571Y-113618571D02*
X134003571Y-112832857D01*
X133932142Y-112690000D01*
X133789285Y-112618571D01*
X133503571Y-112618571D01*
X133360714Y-112690000D01*
X134003571Y-113547142D02*
X133860714Y-113618571D01*
X133503571Y-113618571D01*
X133360714Y-113547142D01*
X133289285Y-113404285D01*
X133289285Y-113261428D01*
X133360714Y-113118571D01*
X133503571Y-113047142D01*
X133860714Y-113047142D01*
X134003571Y-112975714D01*
X134717857Y-112618571D02*
X134717857Y-113618571D01*
X134717857Y-112761428D02*
X134789285Y-112690000D01*
X134932142Y-112618571D01*
X135146428Y-112618571D01*
X135289285Y-112690000D01*
X135360714Y-112832857D01*
X135360714Y-113618571D01*
X136717857Y-113618571D02*
X136717857Y-112118571D01*
X136717857Y-113547142D02*
X136575000Y-113618571D01*
X136289285Y-113618571D01*
X136146428Y-113547142D01*
X136075000Y-113475714D01*
X136003571Y-113332857D01*
X136003571Y-112904285D01*
X136075000Y-112761428D01*
X136146428Y-112690000D01*
X136289285Y-112618571D01*
X136575000Y-112618571D01*
X136717857Y-112690000D01*
X138003571Y-113547142D02*
X137860714Y-113618571D01*
X137575000Y-113618571D01*
X137432142Y-113547142D01*
X137360714Y-113404285D01*
X137360714Y-112832857D01*
X137432142Y-112690000D01*
X137575000Y-112618571D01*
X137860714Y-112618571D01*
X138003571Y-112690000D01*
X138075000Y-112832857D01*
X138075000Y-112975714D01*
X137360714Y-113118571D01*
X138717857Y-113618571D02*
X138717857Y-112618571D01*
X138717857Y-112904285D02*
X138789285Y-112761428D01*
X138860714Y-112690000D01*
X139003571Y-112618571D01*
X139146428Y-112618571D01*
X140789285Y-113618571D02*
X140789285Y-112118571D01*
X141289285Y-113190000D01*
X141789285Y-112118571D01*
X141789285Y-113618571D01*
X143146428Y-113618571D02*
X143146428Y-112832857D01*
X143075000Y-112690000D01*
X142932142Y-112618571D01*
X142646428Y-112618571D01*
X142503571Y-112690000D01*
X143146428Y-113547142D02*
X143003571Y-113618571D01*
X142646428Y-113618571D01*
X142503571Y-113547142D01*
X142432142Y-113404285D01*
X142432142Y-113261428D01*
X142503571Y-113118571D01*
X142646428Y-113047142D01*
X143003571Y-113047142D01*
X143146428Y-112975714D01*
X144503571Y-113618571D02*
X144503571Y-112832857D01*
X144432142Y-112690000D01*
X144289285Y-112618571D01*
X144003571Y-112618571D01*
X143860714Y-112690000D01*
X144503571Y-113547142D02*
X144360714Y-113618571D01*
X144003571Y-113618571D01*
X143860714Y-113547142D01*
X143789285Y-113404285D01*
X143789285Y-113261428D01*
X143860714Y-113118571D01*
X144003571Y-113047142D01*
X144360714Y-113047142D01*
X144503571Y-112975714D01*
X145146428Y-113547142D02*
X145289285Y-113618571D01*
X145575000Y-113618571D01*
X145717857Y-113547142D01*
X145789285Y-113404285D01*
X145789285Y-113332857D01*
X145717857Y-113190000D01*
X145575000Y-113118571D01*
X145360714Y-113118571D01*
X145217857Y-113047142D01*
X145146428Y-112904285D01*
X145146428Y-112832857D01*
X145217857Y-112690000D01*
X145360714Y-112618571D01*
X145575000Y-112618571D01*
X145717857Y-112690000D01*
X146503571Y-113547142D02*
X146503571Y-113618571D01*
X146432142Y-113761428D01*
X146360714Y-113832857D01*
X148075000Y-112618571D02*
X148646428Y-112618571D01*
X148289285Y-113618571D02*
X148289285Y-112332857D01*
X148360714Y-112190000D01*
X148503571Y-112118571D01*
X148646428Y-112118571D01*
X149717857Y-113547142D02*
X149575000Y-113618571D01*
X149289285Y-113618571D01*
X149146428Y-113547142D01*
X149075000Y-113404285D01*
X149075000Y-112832857D01*
X149146428Y-112690000D01*
X149289285Y-112618571D01*
X149575000Y-112618571D01*
X149717857Y-112690000D01*
X149789285Y-112832857D01*
X149789285Y-112975714D01*
X149075000Y-113118571D01*
X150432142Y-113618571D02*
X150432142Y-112118571D01*
X150432142Y-112690000D02*
X150575000Y-112618571D01*
X150860714Y-112618571D01*
X151003571Y-112690000D01*
X151075000Y-112761428D01*
X151146428Y-112904285D01*
X151146428Y-113332857D01*
X151075000Y-113475714D01*
X151003571Y-113547142D01*
X150860714Y-113618571D01*
X150575000Y-113618571D01*
X150432142Y-113547142D01*
X152860714Y-112261428D02*
X152932142Y-112190000D01*
X153075000Y-112118571D01*
X153432142Y-112118571D01*
X153575000Y-112190000D01*
X153646428Y-112261428D01*
X153717857Y-112404285D01*
X153717857Y-112547142D01*
X153646428Y-112761428D01*
X152789285Y-113618571D01*
X153717857Y-113618571D01*
X154646428Y-112118571D02*
X154789285Y-112118571D01*
X154932142Y-112190000D01*
X155003571Y-112261428D01*
X155075000Y-112404285D01*
X155146428Y-112690000D01*
X155146428Y-113047142D01*
X155075000Y-113332857D01*
X155003571Y-113475714D01*
X154932142Y-113547142D01*
X154789285Y-113618571D01*
X154646428Y-113618571D01*
X154503571Y-113547142D01*
X154432142Y-113475714D01*
X154360714Y-113332857D01*
X154289285Y-113047142D01*
X154289285Y-112690000D01*
X154360714Y-112404285D01*
X154432142Y-112261428D01*
X154503571Y-112190000D01*
X154646428Y-112118571D01*
X155717857Y-112261428D02*
X155789285Y-112190000D01*
X155932142Y-112118571D01*
X156289285Y-112118571D01*
X156432142Y-112190000D01*
X156503571Y-112261428D01*
X156575000Y-112404285D01*
X156575000Y-112547142D01*
X156503571Y-112761428D01*
X155646428Y-113618571D01*
X156575000Y-113618571D01*
X158003571Y-113618571D02*
X157146428Y-113618571D01*
X157575000Y-113618571D02*
X157575000Y-112118571D01*
X157432142Y-112332857D01*
X157289285Y-112475714D01*
X157146428Y-112547142D01*
D11*
%TO.C,U1*%
X125670000Y-125460000D02*
X125670000Y-130520000D01*
X125670000Y-130520000D02*
X161350000Y-130520000D01*
X161350000Y-130520000D02*
X161350000Y-118400000D01*
X161350000Y-118400000D02*
X125670000Y-118400000D01*
X125670000Y-118400000D02*
X125670000Y-123460000D01*
X125670000Y-123460000D02*
G75*
G02*
X125670000Y-125460000I0J-1000000D01*
G01*
D12*
%TO.C,REF\u002A\u002A*%
G36*
X111264744Y-119394918D02*
G01*
X111320201Y-119422568D01*
X111369148Y-119473480D01*
X111382629Y-119492338D01*
X111397314Y-119517015D01*
X111406842Y-119543816D01*
X111412293Y-119579587D01*
X111414747Y-119631169D01*
X111415286Y-119699267D01*
X111412852Y-119792588D01*
X111404394Y-119862657D01*
X111388174Y-119914931D01*
X111362454Y-119954869D01*
X111325497Y-119987929D01*
X111322782Y-119989886D01*
X111286360Y-120009908D01*
X111242502Y-120019815D01*
X111186724Y-120022257D01*
X111096048Y-120022257D01*
X111096010Y-120110283D01*
X111095166Y-120159308D01*
X111090024Y-120188065D01*
X111076587Y-120205311D01*
X111050858Y-120219808D01*
X111044679Y-120222769D01*
X111015764Y-120236648D01*
X110993376Y-120245414D01*
X110976729Y-120246171D01*
X110965036Y-120236023D01*
X110957510Y-120212073D01*
X110953366Y-120171426D01*
X110951815Y-120111186D01*
X110952071Y-120028455D01*
X110953349Y-119920339D01*
X110953748Y-119888000D01*
X110955185Y-119776524D01*
X110956472Y-119703603D01*
X111095971Y-119703603D01*
X111096755Y-119765499D01*
X111100240Y-119805997D01*
X111108124Y-119832708D01*
X111122105Y-119853244D01*
X111131597Y-119863260D01*
X111170404Y-119892567D01*
X111204763Y-119894952D01*
X111240216Y-119870750D01*
X111241114Y-119869857D01*
X111255539Y-119851153D01*
X111264313Y-119825732D01*
X111268739Y-119786584D01*
X111270118Y-119726697D01*
X111270143Y-119713430D01*
X111266812Y-119630901D01*
X111255969Y-119573691D01*
X111236340Y-119538766D01*
X111206650Y-119523094D01*
X111189491Y-119521514D01*
X111148766Y-119528926D01*
X111120832Y-119553330D01*
X111104017Y-119597980D01*
X111096650Y-119666130D01*
X111095971Y-119703603D01*
X110956472Y-119703603D01*
X110956708Y-119690245D01*
X110958677Y-119625333D01*
X110961450Y-119577958D01*
X110965388Y-119544290D01*
X110970849Y-119520498D01*
X110978192Y-119502753D01*
X110987777Y-119487224D01*
X110991887Y-119481381D01*
X111046405Y-119426185D01*
X111115336Y-119394890D01*
X111195072Y-119386165D01*
X111264744Y-119394918D01*
G37*
X111264744Y-119394918D02*
X111320201Y-119422568D01*
X111369148Y-119473480D01*
X111382629Y-119492338D01*
X111397314Y-119517015D01*
X111406842Y-119543816D01*
X111412293Y-119579587D01*
X111414747Y-119631169D01*
X111415286Y-119699267D01*
X111412852Y-119792588D01*
X111404394Y-119862657D01*
X111388174Y-119914931D01*
X111362454Y-119954869D01*
X111325497Y-119987929D01*
X111322782Y-119989886D01*
X111286360Y-120009908D01*
X111242502Y-120019815D01*
X111186724Y-120022257D01*
X111096048Y-120022257D01*
X111096010Y-120110283D01*
X111095166Y-120159308D01*
X111090024Y-120188065D01*
X111076587Y-120205311D01*
X111050858Y-120219808D01*
X111044679Y-120222769D01*
X111015764Y-120236648D01*
X110993376Y-120245414D01*
X110976729Y-120246171D01*
X110965036Y-120236023D01*
X110957510Y-120212073D01*
X110953366Y-120171426D01*
X110951815Y-120111186D01*
X110952071Y-120028455D01*
X110953349Y-119920339D01*
X110953748Y-119888000D01*
X110955185Y-119776524D01*
X110956472Y-119703603D01*
X111095971Y-119703603D01*
X111096755Y-119765499D01*
X111100240Y-119805997D01*
X111108124Y-119832708D01*
X111122105Y-119853244D01*
X111131597Y-119863260D01*
X111170404Y-119892567D01*
X111204763Y-119894952D01*
X111240216Y-119870750D01*
X111241114Y-119869857D01*
X111255539Y-119851153D01*
X111264313Y-119825732D01*
X111268739Y-119786584D01*
X111270118Y-119726697D01*
X111270143Y-119713430D01*
X111266812Y-119630901D01*
X111255969Y-119573691D01*
X111236340Y-119538766D01*
X111206650Y-119523094D01*
X111189491Y-119521514D01*
X111148766Y-119528926D01*
X111120832Y-119553330D01*
X111104017Y-119597980D01*
X111096650Y-119666130D01*
X111095971Y-119703603D01*
X110956472Y-119703603D01*
X110956708Y-119690245D01*
X110958677Y-119625333D01*
X110961450Y-119577958D01*
X110965388Y-119544290D01*
X110970849Y-119520498D01*
X110978192Y-119502753D01*
X110987777Y-119487224D01*
X110991887Y-119481381D01*
X111046405Y-119426185D01*
X111115336Y-119394890D01*
X111195072Y-119386165D01*
X111264744Y-119394918D01*
G36*
X112381093Y-119402780D02*
G01*
X112427672Y-119429723D01*
X112460057Y-119456466D01*
X112483742Y-119484484D01*
X112500059Y-119518748D01*
X112510339Y-119564227D01*
X112515914Y-119625892D01*
X112518116Y-119708711D01*
X112518371Y-119768246D01*
X112518371Y-119987391D01*
X112456686Y-120015044D01*
X112395000Y-120042697D01*
X112387743Y-119802670D01*
X112384744Y-119713028D01*
X112381598Y-119647962D01*
X112377701Y-119603026D01*
X112372447Y-119573770D01*
X112365231Y-119555748D01*
X112355450Y-119544511D01*
X112352312Y-119542079D01*
X112304761Y-119523083D01*
X112256697Y-119530600D01*
X112228086Y-119550543D01*
X112216447Y-119564675D01*
X112208391Y-119583220D01*
X112203271Y-119611334D01*
X112200441Y-119654173D01*
X112199256Y-119716895D01*
X112199057Y-119782261D01*
X112199018Y-119864268D01*
X112197614Y-119922316D01*
X112192914Y-119961465D01*
X112182987Y-119986780D01*
X112165903Y-120003323D01*
X112139732Y-120016156D01*
X112104775Y-120029491D01*
X112066596Y-120044007D01*
X112071141Y-119786389D01*
X112072971Y-119693519D01*
X112075112Y-119624889D01*
X112078181Y-119575711D01*
X112082794Y-119541198D01*
X112089568Y-119516562D01*
X112099119Y-119497016D01*
X112110634Y-119479770D01*
X112166190Y-119424680D01*
X112233980Y-119392822D01*
X112307713Y-119385191D01*
X112381093Y-119402780D01*
G37*
X112381093Y-119402780D02*
X112427672Y-119429723D01*
X112460057Y-119456466D01*
X112483742Y-119484484D01*
X112500059Y-119518748D01*
X112510339Y-119564227D01*
X112515914Y-119625892D01*
X112518116Y-119708711D01*
X112518371Y-119768246D01*
X112518371Y-119987391D01*
X112456686Y-120015044D01*
X112395000Y-120042697D01*
X112387743Y-119802670D01*
X112384744Y-119713028D01*
X112381598Y-119647962D01*
X112377701Y-119603026D01*
X112372447Y-119573770D01*
X112365231Y-119555748D01*
X112355450Y-119544511D01*
X112352312Y-119542079D01*
X112304761Y-119523083D01*
X112256697Y-119530600D01*
X112228086Y-119550543D01*
X112216447Y-119564675D01*
X112208391Y-119583220D01*
X112203271Y-119611334D01*
X112200441Y-119654173D01*
X112199256Y-119716895D01*
X112199057Y-119782261D01*
X112199018Y-119864268D01*
X112197614Y-119922316D01*
X112192914Y-119961465D01*
X112182987Y-119986780D01*
X112165903Y-120003323D01*
X112139732Y-120016156D01*
X112104775Y-120029491D01*
X112066596Y-120044007D01*
X112071141Y-119786389D01*
X112072971Y-119693519D01*
X112075112Y-119624889D01*
X112078181Y-119575711D01*
X112082794Y-119541198D01*
X112089568Y-119516562D01*
X112099119Y-119497016D01*
X112110634Y-119479770D01*
X112166190Y-119424680D01*
X112233980Y-119392822D01*
X112307713Y-119385191D01*
X112381093Y-119402780D01*
G36*
X110706115Y-119396962D02*
G01*
X110774145Y-119432733D01*
X110824351Y-119490301D01*
X110842185Y-119527312D01*
X110856063Y-119582882D01*
X110863167Y-119653096D01*
X110863840Y-119729727D01*
X110858427Y-119804552D01*
X110847270Y-119869342D01*
X110830714Y-119915873D01*
X110825626Y-119923887D01*
X110765355Y-119983707D01*
X110693769Y-120019535D01*
X110616092Y-120030020D01*
X110537548Y-120013810D01*
X110515689Y-120004092D01*
X110473122Y-119974143D01*
X110435763Y-119934433D01*
X110432232Y-119929397D01*
X110417881Y-119905124D01*
X110408394Y-119879178D01*
X110402790Y-119845022D01*
X110400086Y-119796119D01*
X110399299Y-119725935D01*
X110399286Y-119710200D01*
X110399322Y-119705192D01*
X110544429Y-119705192D01*
X110545273Y-119771430D01*
X110548596Y-119815386D01*
X110555583Y-119843779D01*
X110567416Y-119863325D01*
X110573457Y-119869857D01*
X110608186Y-119894680D01*
X110641903Y-119893548D01*
X110675995Y-119872016D01*
X110696329Y-119849029D01*
X110708371Y-119815478D01*
X110715134Y-119762569D01*
X110715598Y-119756399D01*
X110716752Y-119660513D01*
X110704688Y-119589299D01*
X110679570Y-119543194D01*
X110641560Y-119522635D01*
X110627992Y-119521514D01*
X110592364Y-119527152D01*
X110567994Y-119546686D01*
X110553093Y-119584042D01*
X110545875Y-119643150D01*
X110544429Y-119705192D01*
X110399322Y-119705192D01*
X110399826Y-119635413D01*
X110402096Y-119583159D01*
X110407068Y-119546949D01*
X110415713Y-119520299D01*
X110429005Y-119496722D01*
X110431943Y-119492338D01*
X110481313Y-119433249D01*
X110535109Y-119398947D01*
X110600602Y-119385331D01*
X110622842Y-119384665D01*
X110706115Y-119396962D01*
G37*
X110706115Y-119396962D02*
X110774145Y-119432733D01*
X110824351Y-119490301D01*
X110842185Y-119527312D01*
X110856063Y-119582882D01*
X110863167Y-119653096D01*
X110863840Y-119729727D01*
X110858427Y-119804552D01*
X110847270Y-119869342D01*
X110830714Y-119915873D01*
X110825626Y-119923887D01*
X110765355Y-119983707D01*
X110693769Y-120019535D01*
X110616092Y-120030020D01*
X110537548Y-120013810D01*
X110515689Y-120004092D01*
X110473122Y-119974143D01*
X110435763Y-119934433D01*
X110432232Y-119929397D01*
X110417881Y-119905124D01*
X110408394Y-119879178D01*
X110402790Y-119845022D01*
X110400086Y-119796119D01*
X110399299Y-119725935D01*
X110399286Y-119710200D01*
X110399322Y-119705192D01*
X110544429Y-119705192D01*
X110545273Y-119771430D01*
X110548596Y-119815386D01*
X110555583Y-119843779D01*
X110567416Y-119863325D01*
X110573457Y-119869857D01*
X110608186Y-119894680D01*
X110641903Y-119893548D01*
X110675995Y-119872016D01*
X110696329Y-119849029D01*
X110708371Y-119815478D01*
X110715134Y-119762569D01*
X110715598Y-119756399D01*
X110716752Y-119660513D01*
X110704688Y-119589299D01*
X110679570Y-119543194D01*
X110641560Y-119522635D01*
X110627992Y-119521514D01*
X110592364Y-119527152D01*
X110567994Y-119546686D01*
X110553093Y-119584042D01*
X110545875Y-119643150D01*
X110544429Y-119705192D01*
X110399322Y-119705192D01*
X110399826Y-119635413D01*
X110402096Y-119583159D01*
X110407068Y-119546949D01*
X110415713Y-119520299D01*
X110429005Y-119496722D01*
X110431943Y-119492338D01*
X110481313Y-119433249D01*
X110535109Y-119398947D01*
X110600602Y-119385331D01*
X110622842Y-119384665D01*
X110706115Y-119396962D01*
G36*
X111833303Y-119406239D02*
G01*
X111890527Y-119444735D01*
X111934749Y-119500335D01*
X111961167Y-119571086D01*
X111966510Y-119623162D01*
X111965903Y-119644893D01*
X111960822Y-119661531D01*
X111946855Y-119676437D01*
X111919589Y-119692973D01*
X111874612Y-119714498D01*
X111807511Y-119744374D01*
X111807171Y-119744524D01*
X111745407Y-119772813D01*
X111694759Y-119797933D01*
X111660404Y-119817179D01*
X111647518Y-119827848D01*
X111647514Y-119827934D01*
X111658872Y-119851166D01*
X111685431Y-119876774D01*
X111715923Y-119895221D01*
X111731370Y-119898886D01*
X111773515Y-119886212D01*
X111809808Y-119854471D01*
X111827517Y-119819572D01*
X111844552Y-119793845D01*
X111877922Y-119764546D01*
X111917149Y-119739235D01*
X111951756Y-119725471D01*
X111958993Y-119724714D01*
X111967139Y-119737160D01*
X111967630Y-119768972D01*
X111961643Y-119811866D01*
X111950357Y-119857558D01*
X111934950Y-119897761D01*
X111934171Y-119899322D01*
X111887804Y-119964062D01*
X111827711Y-120008097D01*
X111759465Y-120029711D01*
X111688638Y-120027185D01*
X111620804Y-119998804D01*
X111617788Y-119996808D01*
X111564427Y-119948448D01*
X111529340Y-119885352D01*
X111509922Y-119802387D01*
X111507316Y-119779078D01*
X111502701Y-119669055D01*
X111508233Y-119617748D01*
X111647514Y-119617748D01*
X111649324Y-119649753D01*
X111659222Y-119659093D01*
X111683898Y-119652105D01*
X111722795Y-119635587D01*
X111766275Y-119614881D01*
X111767356Y-119614333D01*
X111804209Y-119594949D01*
X111819000Y-119582013D01*
X111815353Y-119568451D01*
X111799995Y-119550632D01*
X111760923Y-119524845D01*
X111718846Y-119522950D01*
X111681103Y-119541717D01*
X111655034Y-119577915D01*
X111647514Y-119617748D01*
X111508233Y-119617748D01*
X111512194Y-119581027D01*
X111536550Y-119511212D01*
X111570456Y-119462302D01*
X111631653Y-119412878D01*
X111699063Y-119388359D01*
X111767880Y-119386797D01*
X111833303Y-119406239D01*
G37*
X111833303Y-119406239D02*
X111890527Y-119444735D01*
X111934749Y-119500335D01*
X111961167Y-119571086D01*
X111966510Y-119623162D01*
X111965903Y-119644893D01*
X111960822Y-119661531D01*
X111946855Y-119676437D01*
X111919589Y-119692973D01*
X111874612Y-119714498D01*
X111807511Y-119744374D01*
X111807171Y-119744524D01*
X111745407Y-119772813D01*
X111694759Y-119797933D01*
X111660404Y-119817179D01*
X111647518Y-119827848D01*
X111647514Y-119827934D01*
X111658872Y-119851166D01*
X111685431Y-119876774D01*
X111715923Y-119895221D01*
X111731370Y-119898886D01*
X111773515Y-119886212D01*
X111809808Y-119854471D01*
X111827517Y-119819572D01*
X111844552Y-119793845D01*
X111877922Y-119764546D01*
X111917149Y-119739235D01*
X111951756Y-119725471D01*
X111958993Y-119724714D01*
X111967139Y-119737160D01*
X111967630Y-119768972D01*
X111961643Y-119811866D01*
X111950357Y-119857558D01*
X111934950Y-119897761D01*
X111934171Y-119899322D01*
X111887804Y-119964062D01*
X111827711Y-120008097D01*
X111759465Y-120029711D01*
X111688638Y-120027185D01*
X111620804Y-119998804D01*
X111617788Y-119996808D01*
X111564427Y-119948448D01*
X111529340Y-119885352D01*
X111509922Y-119802387D01*
X111507316Y-119779078D01*
X111502701Y-119669055D01*
X111508233Y-119617748D01*
X111647514Y-119617748D01*
X111649324Y-119649753D01*
X111659222Y-119659093D01*
X111683898Y-119652105D01*
X111722795Y-119635587D01*
X111766275Y-119614881D01*
X111767356Y-119614333D01*
X111804209Y-119594949D01*
X111819000Y-119582013D01*
X111815353Y-119568451D01*
X111799995Y-119550632D01*
X111760923Y-119524845D01*
X111718846Y-119522950D01*
X111681103Y-119541717D01*
X111655034Y-119577915D01*
X111647514Y-119617748D01*
X111508233Y-119617748D01*
X111512194Y-119581027D01*
X111536550Y-119511212D01*
X111570456Y-119462302D01*
X111631653Y-119412878D01*
X111699063Y-119388359D01*
X111767880Y-119386797D01*
X111833303Y-119406239D01*
G36*
X113040886Y-119326289D02*
G01*
X113045139Y-119385613D01*
X113050025Y-119420572D01*
X113056795Y-119435820D01*
X113066702Y-119436015D01*
X113069914Y-119434195D01*
X113112644Y-119421015D01*
X113168227Y-119421785D01*
X113224737Y-119435333D01*
X113260082Y-119452861D01*
X113296321Y-119480861D01*
X113322813Y-119512549D01*
X113340999Y-119552813D01*
X113352322Y-119606543D01*
X113358222Y-119678626D01*
X113360143Y-119773951D01*
X113360177Y-119792237D01*
X113360200Y-119997646D01*
X113314491Y-120013580D01*
X113282027Y-120024420D01*
X113264215Y-120029468D01*
X113263691Y-120029514D01*
X113261937Y-120015828D01*
X113260444Y-119978076D01*
X113259326Y-119921224D01*
X113258697Y-119850234D01*
X113258600Y-119807073D01*
X113258398Y-119721973D01*
X113257358Y-119660981D01*
X113254831Y-119619177D01*
X113250164Y-119591642D01*
X113242707Y-119573456D01*
X113231811Y-119559698D01*
X113225007Y-119553073D01*
X113178272Y-119526375D01*
X113127272Y-119524375D01*
X113081001Y-119546955D01*
X113072444Y-119555107D01*
X113059893Y-119570436D01*
X113051188Y-119588618D01*
X113045631Y-119614909D01*
X113042526Y-119654562D01*
X113041176Y-119712832D01*
X113040886Y-119793173D01*
X113040886Y-119997646D01*
X112995177Y-120013580D01*
X112962713Y-120024420D01*
X112944901Y-120029468D01*
X112944377Y-120029514D01*
X112943037Y-120015623D01*
X112941828Y-119976439D01*
X112940801Y-119915700D01*
X112940002Y-119837141D01*
X112939481Y-119744498D01*
X112939286Y-119641509D01*
X112939286Y-119244342D01*
X112986457Y-119224444D01*
X113033629Y-119204547D01*
X113040886Y-119326289D01*
G37*
X113040886Y-119326289D02*
X113045139Y-119385613D01*
X113050025Y-119420572D01*
X113056795Y-119435820D01*
X113066702Y-119436015D01*
X113069914Y-119434195D01*
X113112644Y-119421015D01*
X113168227Y-119421785D01*
X113224737Y-119435333D01*
X113260082Y-119452861D01*
X113296321Y-119480861D01*
X113322813Y-119512549D01*
X113340999Y-119552813D01*
X113352322Y-119606543D01*
X113358222Y-119678626D01*
X113360143Y-119773951D01*
X113360177Y-119792237D01*
X113360200Y-119997646D01*
X113314491Y-120013580D01*
X113282027Y-120024420D01*
X113264215Y-120029468D01*
X113263691Y-120029514D01*
X113261937Y-120015828D01*
X113260444Y-119978076D01*
X113259326Y-119921224D01*
X113258697Y-119850234D01*
X113258600Y-119807073D01*
X113258398Y-119721973D01*
X113257358Y-119660981D01*
X113254831Y-119619177D01*
X113250164Y-119591642D01*
X113242707Y-119573456D01*
X113231811Y-119559698D01*
X113225007Y-119553073D01*
X113178272Y-119526375D01*
X113127272Y-119524375D01*
X113081001Y-119546955D01*
X113072444Y-119555107D01*
X113059893Y-119570436D01*
X113051188Y-119588618D01*
X113045631Y-119614909D01*
X113042526Y-119654562D01*
X113041176Y-119712832D01*
X113040886Y-119793173D01*
X113040886Y-119997646D01*
X112995177Y-120013580D01*
X112962713Y-120024420D01*
X112944901Y-120029468D01*
X112944377Y-120029514D01*
X112943037Y-120015623D01*
X112941828Y-119976439D01*
X112940801Y-119915700D01*
X112940002Y-119837141D01*
X112939481Y-119744498D01*
X112939286Y-119641509D01*
X112939286Y-119244342D01*
X112986457Y-119224444D01*
X113033629Y-119204547D01*
X113040886Y-119326289D01*
G36*
X113704744Y-119425968D02*
G01*
X113761616Y-119447087D01*
X113762267Y-119447493D01*
X113797440Y-119473380D01*
X113823407Y-119503633D01*
X113841670Y-119543058D01*
X113853732Y-119596462D01*
X113861096Y-119668651D01*
X113865264Y-119764432D01*
X113865629Y-119778078D01*
X113870876Y-119983842D01*
X113826716Y-120006678D01*
X113794763Y-120022110D01*
X113775470Y-120029423D01*
X113774578Y-120029514D01*
X113771239Y-120016022D01*
X113768587Y-119979626D01*
X113766956Y-119926452D01*
X113766600Y-119883393D01*
X113766592Y-119813641D01*
X113763403Y-119769837D01*
X113752288Y-119748944D01*
X113728501Y-119747925D01*
X113687296Y-119763741D01*
X113625086Y-119792815D01*
X113579341Y-119816963D01*
X113555813Y-119837913D01*
X113548896Y-119860747D01*
X113548886Y-119861877D01*
X113560299Y-119901212D01*
X113594092Y-119922462D01*
X113645809Y-119925539D01*
X113683061Y-119925006D01*
X113702703Y-119935735D01*
X113714952Y-119961505D01*
X113722002Y-119994337D01*
X113711842Y-120012966D01*
X113708017Y-120015632D01*
X113672001Y-120026340D01*
X113621566Y-120027856D01*
X113569626Y-120020759D01*
X113532822Y-120007788D01*
X113481938Y-119964585D01*
X113453014Y-119904446D01*
X113447286Y-119857462D01*
X113451657Y-119815082D01*
X113467475Y-119780488D01*
X113498797Y-119749763D01*
X113549678Y-119718990D01*
X113624176Y-119684252D01*
X113628714Y-119682288D01*
X113695821Y-119651287D01*
X113737232Y-119625862D01*
X113754981Y-119603014D01*
X113751107Y-119579745D01*
X113727643Y-119553056D01*
X113720627Y-119546914D01*
X113673630Y-119523100D01*
X113624933Y-119524103D01*
X113582522Y-119547451D01*
X113554384Y-119590675D01*
X113551769Y-119599160D01*
X113526308Y-119640308D01*
X113494001Y-119660128D01*
X113447286Y-119679770D01*
X113447286Y-119628950D01*
X113461496Y-119555082D01*
X113503675Y-119487327D01*
X113525624Y-119464661D01*
X113575517Y-119435569D01*
X113638967Y-119422400D01*
X113704744Y-119425968D01*
G37*
X113704744Y-119425968D02*
X113761616Y-119447087D01*
X113762267Y-119447493D01*
X113797440Y-119473380D01*
X113823407Y-119503633D01*
X113841670Y-119543058D01*
X113853732Y-119596462D01*
X113861096Y-119668651D01*
X113865264Y-119764432D01*
X113865629Y-119778078D01*
X113870876Y-119983842D01*
X113826716Y-120006678D01*
X113794763Y-120022110D01*
X113775470Y-120029423D01*
X113774578Y-120029514D01*
X113771239Y-120016022D01*
X113768587Y-119979626D01*
X113766956Y-119926452D01*
X113766600Y-119883393D01*
X113766592Y-119813641D01*
X113763403Y-119769837D01*
X113752288Y-119748944D01*
X113728501Y-119747925D01*
X113687296Y-119763741D01*
X113625086Y-119792815D01*
X113579341Y-119816963D01*
X113555813Y-119837913D01*
X113548896Y-119860747D01*
X113548886Y-119861877D01*
X113560299Y-119901212D01*
X113594092Y-119922462D01*
X113645809Y-119925539D01*
X113683061Y-119925006D01*
X113702703Y-119935735D01*
X113714952Y-119961505D01*
X113722002Y-119994337D01*
X113711842Y-120012966D01*
X113708017Y-120015632D01*
X113672001Y-120026340D01*
X113621566Y-120027856D01*
X113569626Y-120020759D01*
X113532822Y-120007788D01*
X113481938Y-119964585D01*
X113453014Y-119904446D01*
X113447286Y-119857462D01*
X113451657Y-119815082D01*
X113467475Y-119780488D01*
X113498797Y-119749763D01*
X113549678Y-119718990D01*
X113624176Y-119684252D01*
X113628714Y-119682288D01*
X113695821Y-119651287D01*
X113737232Y-119625862D01*
X113754981Y-119603014D01*
X113751107Y-119579745D01*
X113727643Y-119553056D01*
X113720627Y-119546914D01*
X113673630Y-119523100D01*
X113624933Y-119524103D01*
X113582522Y-119547451D01*
X113554384Y-119590675D01*
X113551769Y-119599160D01*
X113526308Y-119640308D01*
X113494001Y-119660128D01*
X113447286Y-119679770D01*
X113447286Y-119628950D01*
X113461496Y-119555082D01*
X113503675Y-119487327D01*
X113525624Y-119464661D01*
X113575517Y-119435569D01*
X113638967Y-119422400D01*
X113704744Y-119425968D01*
G36*
X114194926Y-119424755D02*
G01*
X114260858Y-119449084D01*
X114314273Y-119492117D01*
X114335164Y-119522409D01*
X114357939Y-119577994D01*
X114357466Y-119618186D01*
X114333562Y-119645217D01*
X114324717Y-119649813D01*
X114286530Y-119664144D01*
X114267028Y-119660472D01*
X114260422Y-119636407D01*
X114260086Y-119623114D01*
X114247992Y-119574210D01*
X114216471Y-119539999D01*
X114172659Y-119523476D01*
X114123695Y-119527634D01*
X114083894Y-119549227D01*
X114070450Y-119561544D01*
X114060921Y-119576487D01*
X114054485Y-119599075D01*
X114050317Y-119634328D01*
X114047597Y-119687266D01*
X114045502Y-119762907D01*
X114044960Y-119786857D01*
X114042981Y-119868790D01*
X114040731Y-119926455D01*
X114037357Y-119964608D01*
X114032006Y-119988004D01*
X114023824Y-120001398D01*
X114011959Y-120009545D01*
X114004362Y-120013144D01*
X113972102Y-120025452D01*
X113953111Y-120029514D01*
X113946836Y-120015948D01*
X113943006Y-119974934D01*
X113941600Y-119905999D01*
X113942598Y-119808669D01*
X113942908Y-119793657D01*
X113945101Y-119704859D01*
X113947693Y-119640019D01*
X113951382Y-119594067D01*
X113956864Y-119561935D01*
X113964835Y-119538553D01*
X113975993Y-119518852D01*
X113981830Y-119510410D01*
X114015296Y-119473057D01*
X114052727Y-119444003D01*
X114057309Y-119441467D01*
X114124426Y-119421443D01*
X114194926Y-119424755D01*
G37*
X114194926Y-119424755D02*
X114260858Y-119449084D01*
X114314273Y-119492117D01*
X114335164Y-119522409D01*
X114357939Y-119577994D01*
X114357466Y-119618186D01*
X114333562Y-119645217D01*
X114324717Y-119649813D01*
X114286530Y-119664144D01*
X114267028Y-119660472D01*
X114260422Y-119636407D01*
X114260086Y-119623114D01*
X114247992Y-119574210D01*
X114216471Y-119539999D01*
X114172659Y-119523476D01*
X114123695Y-119527634D01*
X114083894Y-119549227D01*
X114070450Y-119561544D01*
X114060921Y-119576487D01*
X114054485Y-119599075D01*
X114050317Y-119634328D01*
X114047597Y-119687266D01*
X114045502Y-119762907D01*
X114044960Y-119786857D01*
X114042981Y-119868790D01*
X114040731Y-119926455D01*
X114037357Y-119964608D01*
X114032006Y-119988004D01*
X114023824Y-120001398D01*
X114011959Y-120009545D01*
X114004362Y-120013144D01*
X113972102Y-120025452D01*
X113953111Y-120029514D01*
X113946836Y-120015948D01*
X113943006Y-119974934D01*
X113941600Y-119905999D01*
X113942598Y-119808669D01*
X113942908Y-119793657D01*
X113945101Y-119704859D01*
X113947693Y-119640019D01*
X113951382Y-119594067D01*
X113956864Y-119561935D01*
X113964835Y-119538553D01*
X113975993Y-119518852D01*
X113981830Y-119510410D01*
X114015296Y-119473057D01*
X114052727Y-119444003D01*
X114057309Y-119441467D01*
X114124426Y-119421443D01*
X114194926Y-119424755D01*
G36*
X114855117Y-119540358D02*
G01*
X114854933Y-119648837D01*
X114854219Y-119732287D01*
X114852675Y-119794704D01*
X114850001Y-119840085D01*
X114845894Y-119872429D01*
X114840055Y-119895733D01*
X114832182Y-119913995D01*
X114826221Y-119924418D01*
X114776855Y-119980945D01*
X114714264Y-120016377D01*
X114645013Y-120029090D01*
X114575668Y-120017463D01*
X114534375Y-119996568D01*
X114491025Y-119960422D01*
X114461481Y-119916276D01*
X114443655Y-119858462D01*
X114435463Y-119781313D01*
X114434302Y-119724714D01*
X114434458Y-119720647D01*
X114535857Y-119720647D01*
X114536476Y-119785550D01*
X114539314Y-119828514D01*
X114545840Y-119856622D01*
X114557523Y-119876953D01*
X114571483Y-119892288D01*
X114618365Y-119921890D01*
X114668701Y-119924419D01*
X114716276Y-119899705D01*
X114719979Y-119896356D01*
X114735783Y-119878935D01*
X114745693Y-119858209D01*
X114751058Y-119827362D01*
X114753228Y-119779577D01*
X114753571Y-119726748D01*
X114752827Y-119660381D01*
X114749748Y-119616106D01*
X114743061Y-119587009D01*
X114731496Y-119566173D01*
X114722013Y-119555107D01*
X114677960Y-119527198D01*
X114627224Y-119523843D01*
X114578796Y-119545159D01*
X114569450Y-119553073D01*
X114553540Y-119570647D01*
X114543610Y-119591587D01*
X114538278Y-119622782D01*
X114536163Y-119671122D01*
X114535857Y-119720647D01*
X114434458Y-119720647D01*
X114437810Y-119633568D01*
X114449726Y-119565086D01*
X114472135Y-119513600D01*
X114507124Y-119473443D01*
X114534375Y-119452861D01*
X114583907Y-119430625D01*
X114641316Y-119420304D01*
X114694682Y-119423067D01*
X114724543Y-119434212D01*
X114736261Y-119437383D01*
X114744037Y-119425557D01*
X114749465Y-119393866D01*
X114753571Y-119345593D01*
X114758067Y-119291829D01*
X114764313Y-119259482D01*
X114775676Y-119240985D01*
X114795528Y-119228770D01*
X114808000Y-119223362D01*
X114855171Y-119203601D01*
X114855117Y-119540358D01*
G37*
X114855117Y-119540358D02*
X114854933Y-119648837D01*
X114854219Y-119732287D01*
X114852675Y-119794704D01*
X114850001Y-119840085D01*
X114845894Y-119872429D01*
X114840055Y-119895733D01*
X114832182Y-119913995D01*
X114826221Y-119924418D01*
X114776855Y-119980945D01*
X114714264Y-120016377D01*
X114645013Y-120029090D01*
X114575668Y-120017463D01*
X114534375Y-119996568D01*
X114491025Y-119960422D01*
X114461481Y-119916276D01*
X114443655Y-119858462D01*
X114435463Y-119781313D01*
X114434302Y-119724714D01*
X114434458Y-119720647D01*
X114535857Y-119720647D01*
X114536476Y-119785550D01*
X114539314Y-119828514D01*
X114545840Y-119856622D01*
X114557523Y-119876953D01*
X114571483Y-119892288D01*
X114618365Y-119921890D01*
X114668701Y-119924419D01*
X114716276Y-119899705D01*
X114719979Y-119896356D01*
X114735783Y-119878935D01*
X114745693Y-119858209D01*
X114751058Y-119827362D01*
X114753228Y-119779577D01*
X114753571Y-119726748D01*
X114752827Y-119660381D01*
X114749748Y-119616106D01*
X114743061Y-119587009D01*
X114731496Y-119566173D01*
X114722013Y-119555107D01*
X114677960Y-119527198D01*
X114627224Y-119523843D01*
X114578796Y-119545159D01*
X114569450Y-119553073D01*
X114553540Y-119570647D01*
X114543610Y-119591587D01*
X114538278Y-119622782D01*
X114536163Y-119671122D01*
X114535857Y-119720647D01*
X114434458Y-119720647D01*
X114437810Y-119633568D01*
X114449726Y-119565086D01*
X114472135Y-119513600D01*
X114507124Y-119473443D01*
X114534375Y-119452861D01*
X114583907Y-119430625D01*
X114641316Y-119420304D01*
X114694682Y-119423067D01*
X114724543Y-119434212D01*
X114736261Y-119437383D01*
X114744037Y-119425557D01*
X114749465Y-119393866D01*
X114753571Y-119345593D01*
X114758067Y-119291829D01*
X114764313Y-119259482D01*
X114775676Y-119240985D01*
X114795528Y-119228770D01*
X114808000Y-119223362D01*
X114855171Y-119203601D01*
X114855117Y-119540358D01*
G36*
X115444833Y-119433663D02*
G01*
X115447048Y-119471850D01*
X115448784Y-119529886D01*
X115449899Y-119603180D01*
X115450257Y-119680055D01*
X115450257Y-119940196D01*
X115404326Y-119986127D01*
X115372675Y-120014429D01*
X115344890Y-120025893D01*
X115306915Y-120025168D01*
X115291840Y-120023321D01*
X115244726Y-120017948D01*
X115205756Y-120014869D01*
X115196257Y-120014585D01*
X115164233Y-120016445D01*
X115118432Y-120021114D01*
X115100674Y-120023321D01*
X115057057Y-120026735D01*
X115027745Y-120019320D01*
X114998680Y-119996427D01*
X114988188Y-119986127D01*
X114942257Y-119940196D01*
X114942257Y-119453602D01*
X114979226Y-119436758D01*
X115011059Y-119424282D01*
X115029683Y-119419914D01*
X115034458Y-119433718D01*
X115038921Y-119472286D01*
X115042775Y-119531356D01*
X115045722Y-119606663D01*
X115047143Y-119670286D01*
X115051114Y-119920657D01*
X115085759Y-119925556D01*
X115117268Y-119922131D01*
X115132708Y-119911041D01*
X115137023Y-119890308D01*
X115140708Y-119846145D01*
X115143469Y-119784146D01*
X115145012Y-119709909D01*
X115145235Y-119671706D01*
X115145457Y-119451783D01*
X115191166Y-119435849D01*
X115223518Y-119425015D01*
X115241115Y-119419962D01*
X115241623Y-119419914D01*
X115243388Y-119433648D01*
X115245329Y-119471730D01*
X115247282Y-119529482D01*
X115249084Y-119602227D01*
X115250343Y-119670286D01*
X115254314Y-119920657D01*
X115341400Y-119920657D01*
X115345396Y-119692240D01*
X115349392Y-119463822D01*
X115391847Y-119441868D01*
X115423192Y-119426793D01*
X115441744Y-119419951D01*
X115442279Y-119419914D01*
X115444833Y-119433663D01*
G37*
X115444833Y-119433663D02*
X115447048Y-119471850D01*
X115448784Y-119529886D01*
X115449899Y-119603180D01*
X115450257Y-119680055D01*
X115450257Y-119940196D01*
X115404326Y-119986127D01*
X115372675Y-120014429D01*
X115344890Y-120025893D01*
X115306915Y-120025168D01*
X115291840Y-120023321D01*
X115244726Y-120017948D01*
X115205756Y-120014869D01*
X115196257Y-120014585D01*
X115164233Y-120016445D01*
X115118432Y-120021114D01*
X115100674Y-120023321D01*
X115057057Y-120026735D01*
X115027745Y-120019320D01*
X114998680Y-119996427D01*
X114988188Y-119986127D01*
X114942257Y-119940196D01*
X114942257Y-119453602D01*
X114979226Y-119436758D01*
X115011059Y-119424282D01*
X115029683Y-119419914D01*
X115034458Y-119433718D01*
X115038921Y-119472286D01*
X115042775Y-119531356D01*
X115045722Y-119606663D01*
X115047143Y-119670286D01*
X115051114Y-119920657D01*
X115085759Y-119925556D01*
X115117268Y-119922131D01*
X115132708Y-119911041D01*
X115137023Y-119890308D01*
X115140708Y-119846145D01*
X115143469Y-119784146D01*
X115145012Y-119709909D01*
X115145235Y-119671706D01*
X115145457Y-119451783D01*
X115191166Y-119435849D01*
X115223518Y-119425015D01*
X115241115Y-119419962D01*
X115241623Y-119419914D01*
X115243388Y-119433648D01*
X115245329Y-119471730D01*
X115247282Y-119529482D01*
X115249084Y-119602227D01*
X115250343Y-119670286D01*
X115254314Y-119920657D01*
X115341400Y-119920657D01*
X115345396Y-119692240D01*
X115349392Y-119463822D01*
X115391847Y-119441868D01*
X115423192Y-119426793D01*
X115441744Y-119419951D01*
X115442279Y-119419914D01*
X115444833Y-119433663D01*
G36*
X115809876Y-119431335D02*
G01*
X115851667Y-119450344D01*
X115884469Y-119473378D01*
X115908503Y-119499133D01*
X115925097Y-119532358D01*
X115935577Y-119577800D01*
X115941271Y-119640207D01*
X115943507Y-119724327D01*
X115943743Y-119779721D01*
X115943743Y-119995826D01*
X115906774Y-120012670D01*
X115877656Y-120024981D01*
X115863231Y-120029514D01*
X115860472Y-120016025D01*
X115858282Y-119979653D01*
X115856942Y-119926542D01*
X115856657Y-119884372D01*
X115855434Y-119823447D01*
X115852136Y-119775115D01*
X115847321Y-119745518D01*
X115843496Y-119739229D01*
X115817783Y-119745652D01*
X115777418Y-119762125D01*
X115730679Y-119784458D01*
X115685845Y-119808457D01*
X115651193Y-119829930D01*
X115635002Y-119844685D01*
X115634938Y-119844845D01*
X115636330Y-119872152D01*
X115648818Y-119898219D01*
X115670743Y-119919392D01*
X115702743Y-119926474D01*
X115730092Y-119925649D01*
X115768826Y-119925042D01*
X115789158Y-119934116D01*
X115801369Y-119958092D01*
X115802909Y-119962613D01*
X115808203Y-119996806D01*
X115794047Y-120017568D01*
X115757148Y-120027462D01*
X115717289Y-120029292D01*
X115645562Y-120015727D01*
X115608432Y-119996355D01*
X115562576Y-119950845D01*
X115538256Y-119894983D01*
X115536073Y-119835957D01*
X115556629Y-119780953D01*
X115587549Y-119746486D01*
X115618420Y-119727189D01*
X115666942Y-119702759D01*
X115723485Y-119677985D01*
X115732910Y-119674199D01*
X115795019Y-119646791D01*
X115830822Y-119622634D01*
X115842337Y-119598619D01*
X115831580Y-119571635D01*
X115813114Y-119550543D01*
X115769469Y-119524572D01*
X115721446Y-119522624D01*
X115677406Y-119542637D01*
X115645709Y-119582551D01*
X115641549Y-119592848D01*
X115617327Y-119630724D01*
X115581965Y-119658842D01*
X115537343Y-119681917D01*
X115537343Y-119616485D01*
X115539969Y-119576506D01*
X115551230Y-119544997D01*
X115576199Y-119511378D01*
X115600169Y-119485484D01*
X115637441Y-119448817D01*
X115666401Y-119429121D01*
X115697505Y-119421220D01*
X115732713Y-119419914D01*
X115809876Y-119431335D01*
G37*
X115809876Y-119431335D02*
X115851667Y-119450344D01*
X115884469Y-119473378D01*
X115908503Y-119499133D01*
X115925097Y-119532358D01*
X115935577Y-119577800D01*
X115941271Y-119640207D01*
X115943507Y-119724327D01*
X115943743Y-119779721D01*
X115943743Y-119995826D01*
X115906774Y-120012670D01*
X115877656Y-120024981D01*
X115863231Y-120029514D01*
X115860472Y-120016025D01*
X115858282Y-119979653D01*
X115856942Y-119926542D01*
X115856657Y-119884372D01*
X115855434Y-119823447D01*
X115852136Y-119775115D01*
X115847321Y-119745518D01*
X115843496Y-119739229D01*
X115817783Y-119745652D01*
X115777418Y-119762125D01*
X115730679Y-119784458D01*
X115685845Y-119808457D01*
X115651193Y-119829930D01*
X115635002Y-119844685D01*
X115634938Y-119844845D01*
X115636330Y-119872152D01*
X115648818Y-119898219D01*
X115670743Y-119919392D01*
X115702743Y-119926474D01*
X115730092Y-119925649D01*
X115768826Y-119925042D01*
X115789158Y-119934116D01*
X115801369Y-119958092D01*
X115802909Y-119962613D01*
X115808203Y-119996806D01*
X115794047Y-120017568D01*
X115757148Y-120027462D01*
X115717289Y-120029292D01*
X115645562Y-120015727D01*
X115608432Y-119996355D01*
X115562576Y-119950845D01*
X115538256Y-119894983D01*
X115536073Y-119835957D01*
X115556629Y-119780953D01*
X115587549Y-119746486D01*
X115618420Y-119727189D01*
X115666942Y-119702759D01*
X115723485Y-119677985D01*
X115732910Y-119674199D01*
X115795019Y-119646791D01*
X115830822Y-119622634D01*
X115842337Y-119598619D01*
X115831580Y-119571635D01*
X115813114Y-119550543D01*
X115769469Y-119524572D01*
X115721446Y-119522624D01*
X115677406Y-119542637D01*
X115645709Y-119582551D01*
X115641549Y-119592848D01*
X115617327Y-119630724D01*
X115581965Y-119658842D01*
X115537343Y-119681917D01*
X115537343Y-119616485D01*
X115539969Y-119576506D01*
X115551230Y-119544997D01*
X115576199Y-119511378D01*
X115600169Y-119485484D01*
X115637441Y-119448817D01*
X115666401Y-119429121D01*
X115697505Y-119421220D01*
X115732713Y-119419914D01*
X115809876Y-119431335D01*
G36*
X116317600Y-119433752D02*
G01*
X116334948Y-119441334D01*
X116376356Y-119474128D01*
X116411765Y-119521547D01*
X116433664Y-119572151D01*
X116437229Y-119597098D01*
X116425279Y-119631927D01*
X116399067Y-119650357D01*
X116370964Y-119661516D01*
X116358095Y-119663572D01*
X116351829Y-119648649D01*
X116339456Y-119616175D01*
X116334028Y-119601502D01*
X116303590Y-119550744D01*
X116259520Y-119525427D01*
X116203010Y-119526206D01*
X116198825Y-119527203D01*
X116168655Y-119541507D01*
X116146476Y-119569393D01*
X116131327Y-119614287D01*
X116122250Y-119679615D01*
X116118286Y-119768804D01*
X116117914Y-119816261D01*
X116117730Y-119891071D01*
X116116522Y-119942069D01*
X116113309Y-119974471D01*
X116107109Y-119993495D01*
X116096940Y-120004356D01*
X116081819Y-120012272D01*
X116080946Y-120012670D01*
X116051828Y-120024981D01*
X116037403Y-120029514D01*
X116035186Y-120015809D01*
X116033289Y-119977925D01*
X116031847Y-119920715D01*
X116030998Y-119849027D01*
X116030829Y-119796565D01*
X116031692Y-119695047D01*
X116035070Y-119618032D01*
X116042142Y-119561023D01*
X116054088Y-119519526D01*
X116072090Y-119489043D01*
X116097327Y-119465080D01*
X116122247Y-119448355D01*
X116182171Y-119426097D01*
X116251911Y-119421076D01*
X116317600Y-119433752D01*
G37*
X116317600Y-119433752D02*
X116334948Y-119441334D01*
X116376356Y-119474128D01*
X116411765Y-119521547D01*
X116433664Y-119572151D01*
X116437229Y-119597098D01*
X116425279Y-119631927D01*
X116399067Y-119650357D01*
X116370964Y-119661516D01*
X116358095Y-119663572D01*
X116351829Y-119648649D01*
X116339456Y-119616175D01*
X116334028Y-119601502D01*
X116303590Y-119550744D01*
X116259520Y-119525427D01*
X116203010Y-119526206D01*
X116198825Y-119527203D01*
X116168655Y-119541507D01*
X116146476Y-119569393D01*
X116131327Y-119614287D01*
X116122250Y-119679615D01*
X116118286Y-119768804D01*
X116117914Y-119816261D01*
X116117730Y-119891071D01*
X116116522Y-119942069D01*
X116113309Y-119974471D01*
X116107109Y-119993495D01*
X116096940Y-120004356D01*
X116081819Y-120012272D01*
X116080946Y-120012670D01*
X116051828Y-120024981D01*
X116037403Y-120029514D01*
X116035186Y-120015809D01*
X116033289Y-119977925D01*
X116031847Y-119920715D01*
X116030998Y-119849027D01*
X116030829Y-119796565D01*
X116031692Y-119695047D01*
X116035070Y-119618032D01*
X116042142Y-119561023D01*
X116054088Y-119519526D01*
X116072090Y-119489043D01*
X116097327Y-119465080D01*
X116122247Y-119448355D01*
X116182171Y-119426097D01*
X116251911Y-119421076D01*
X116317600Y-119433752D01*
G36*
X116818595Y-119441966D02*
G01*
X116876021Y-119479497D01*
X116903719Y-119513096D01*
X116925662Y-119574064D01*
X116927405Y-119622308D01*
X116923457Y-119686816D01*
X116774686Y-119751934D01*
X116702349Y-119785202D01*
X116655084Y-119811964D01*
X116630507Y-119835144D01*
X116626237Y-119857667D01*
X116639889Y-119882455D01*
X116654943Y-119898886D01*
X116698746Y-119925235D01*
X116746389Y-119927081D01*
X116790145Y-119906546D01*
X116822289Y-119865752D01*
X116828038Y-119851347D01*
X116855576Y-119806356D01*
X116887258Y-119787182D01*
X116930714Y-119770779D01*
X116930714Y-119832966D01*
X116926872Y-119875283D01*
X116911823Y-119910969D01*
X116880280Y-119951943D01*
X116875592Y-119957267D01*
X116840506Y-119993720D01*
X116810347Y-120013283D01*
X116772615Y-120022283D01*
X116741335Y-120025230D01*
X116685385Y-120025965D01*
X116645555Y-120016660D01*
X116620708Y-120002846D01*
X116581656Y-119972467D01*
X116554625Y-119939613D01*
X116537517Y-119898294D01*
X116528238Y-119842521D01*
X116524693Y-119766305D01*
X116524410Y-119727622D01*
X116525372Y-119681247D01*
X116613007Y-119681247D01*
X116614023Y-119706126D01*
X116616556Y-119710200D01*
X116633274Y-119704665D01*
X116669249Y-119690017D01*
X116717331Y-119669190D01*
X116727386Y-119664714D01*
X116788152Y-119633814D01*
X116821632Y-119606657D01*
X116828990Y-119581220D01*
X116811391Y-119555481D01*
X116796856Y-119544109D01*
X116744410Y-119521364D01*
X116695322Y-119525122D01*
X116654227Y-119552884D01*
X116625758Y-119602152D01*
X116616631Y-119641257D01*
X116613007Y-119681247D01*
X116525372Y-119681247D01*
X116526285Y-119637249D01*
X116533196Y-119570384D01*
X116546884Y-119521695D01*
X116569096Y-119485849D01*
X116601574Y-119457513D01*
X116615733Y-119448355D01*
X116680053Y-119424507D01*
X116750473Y-119423006D01*
X116818595Y-119441966D01*
G37*
X116818595Y-119441966D02*
X116876021Y-119479497D01*
X116903719Y-119513096D01*
X116925662Y-119574064D01*
X116927405Y-119622308D01*
X116923457Y-119686816D01*
X116774686Y-119751934D01*
X116702349Y-119785202D01*
X116655084Y-119811964D01*
X116630507Y-119835144D01*
X116626237Y-119857667D01*
X116639889Y-119882455D01*
X116654943Y-119898886D01*
X116698746Y-119925235D01*
X116746389Y-119927081D01*
X116790145Y-119906546D01*
X116822289Y-119865752D01*
X116828038Y-119851347D01*
X116855576Y-119806356D01*
X116887258Y-119787182D01*
X116930714Y-119770779D01*
X116930714Y-119832966D01*
X116926872Y-119875283D01*
X116911823Y-119910969D01*
X116880280Y-119951943D01*
X116875592Y-119957267D01*
X116840506Y-119993720D01*
X116810347Y-120013283D01*
X116772615Y-120022283D01*
X116741335Y-120025230D01*
X116685385Y-120025965D01*
X116645555Y-120016660D01*
X116620708Y-120002846D01*
X116581656Y-119972467D01*
X116554625Y-119939613D01*
X116537517Y-119898294D01*
X116528238Y-119842521D01*
X116524693Y-119766305D01*
X116524410Y-119727622D01*
X116525372Y-119681247D01*
X116613007Y-119681247D01*
X116614023Y-119706126D01*
X116616556Y-119710200D01*
X116633274Y-119704665D01*
X116669249Y-119690017D01*
X116717331Y-119669190D01*
X116727386Y-119664714D01*
X116788152Y-119633814D01*
X116821632Y-119606657D01*
X116828990Y-119581220D01*
X116811391Y-119555481D01*
X116796856Y-119544109D01*
X116744410Y-119521364D01*
X116695322Y-119525122D01*
X116654227Y-119552884D01*
X116625758Y-119602152D01*
X116616631Y-119641257D01*
X116613007Y-119681247D01*
X116525372Y-119681247D01*
X116526285Y-119637249D01*
X116533196Y-119570384D01*
X116546884Y-119521695D01*
X116569096Y-119485849D01*
X116601574Y-119457513D01*
X116615733Y-119448355D01*
X116680053Y-119424507D01*
X116750473Y-119423006D01*
X116818595Y-119441966D01*
G36*
X113768910Y-114717348D02*
G01*
X113847454Y-114717778D01*
X113904298Y-114718942D01*
X113943105Y-114721207D01*
X113967538Y-114724940D01*
X113981262Y-114730506D01*
X113987940Y-114738273D01*
X113991236Y-114748605D01*
X113991556Y-114749943D01*
X113996562Y-114774079D01*
X114005829Y-114821701D01*
X114018392Y-114887741D01*
X114033287Y-114967128D01*
X114049551Y-115054796D01*
X114050119Y-115057875D01*
X114066410Y-115143789D01*
X114081652Y-115219696D01*
X114094861Y-115281045D01*
X114105054Y-115323282D01*
X114111248Y-115341855D01*
X114111543Y-115342184D01*
X114129788Y-115351253D01*
X114167405Y-115366367D01*
X114216271Y-115384262D01*
X114216543Y-115384358D01*
X114278093Y-115407493D01*
X114350657Y-115436965D01*
X114419057Y-115466597D01*
X114422294Y-115468062D01*
X114533702Y-115518626D01*
X114780399Y-115350160D01*
X114856077Y-115298803D01*
X114924631Y-115252889D01*
X114982088Y-115215030D01*
X115024476Y-115187837D01*
X115047825Y-115173921D01*
X115050042Y-115172889D01*
X115067010Y-115177484D01*
X115098701Y-115199655D01*
X115146352Y-115240447D01*
X115211198Y-115300905D01*
X115277397Y-115365227D01*
X115341214Y-115428612D01*
X115398329Y-115486451D01*
X115445305Y-115535175D01*
X115478703Y-115571210D01*
X115495085Y-115590984D01*
X115495694Y-115592002D01*
X115497505Y-115605572D01*
X115490683Y-115627733D01*
X115473540Y-115661478D01*
X115444393Y-115709800D01*
X115401555Y-115775692D01*
X115344448Y-115860517D01*
X115293766Y-115935177D01*
X115248461Y-116002140D01*
X115211150Y-116057516D01*
X115184452Y-116097420D01*
X115170985Y-116117962D01*
X115170137Y-116119356D01*
X115171781Y-116139038D01*
X115184245Y-116177293D01*
X115205048Y-116226889D01*
X115212462Y-116242728D01*
X115244814Y-116313290D01*
X115279328Y-116393353D01*
X115307365Y-116462629D01*
X115327568Y-116514045D01*
X115343615Y-116553119D01*
X115352888Y-116573541D01*
X115354041Y-116575114D01*
X115371096Y-116577721D01*
X115411298Y-116584863D01*
X115469302Y-116595523D01*
X115539763Y-116608685D01*
X115617335Y-116623333D01*
X115696672Y-116638449D01*
X115772431Y-116653018D01*
X115839264Y-116666022D01*
X115891828Y-116676445D01*
X115924776Y-116683270D01*
X115932857Y-116685199D01*
X115941205Y-116689962D01*
X115947506Y-116700718D01*
X115952045Y-116721098D01*
X115955104Y-116754734D01*
X115956967Y-116805255D01*
X115957918Y-116876292D01*
X115958240Y-116971476D01*
X115958257Y-117010492D01*
X115958257Y-117327799D01*
X115882057Y-117342839D01*
X115839663Y-117350995D01*
X115776400Y-117362899D01*
X115699962Y-117377116D01*
X115618043Y-117392210D01*
X115595400Y-117396355D01*
X115519806Y-117411053D01*
X115453953Y-117425505D01*
X115403366Y-117438375D01*
X115373574Y-117448322D01*
X115368612Y-117451287D01*
X115356426Y-117472283D01*
X115338953Y-117512967D01*
X115319577Y-117565322D01*
X115315734Y-117576600D01*
X115290339Y-117646523D01*
X115258817Y-117725418D01*
X115227969Y-117796266D01*
X115227817Y-117796595D01*
X115176447Y-117907733D01*
X115345399Y-118156253D01*
X115514352Y-118404772D01*
X115297429Y-118622058D01*
X115231819Y-118686726D01*
X115171979Y-118743733D01*
X115121267Y-118790033D01*
X115083046Y-118822584D01*
X115060675Y-118838343D01*
X115057466Y-118839343D01*
X115038626Y-118831469D01*
X115000180Y-118809578D01*
X114946330Y-118776267D01*
X114881276Y-118734131D01*
X114810940Y-118686943D01*
X114739555Y-118638810D01*
X114675908Y-118596928D01*
X114624041Y-118563871D01*
X114587995Y-118542218D01*
X114571867Y-118534543D01*
X114552189Y-118541037D01*
X114514875Y-118558150D01*
X114467621Y-118582326D01*
X114462612Y-118585013D01*
X114398977Y-118616927D01*
X114355341Y-118632579D01*
X114328202Y-118632745D01*
X114314057Y-118618204D01*
X114313975Y-118618000D01*
X114306905Y-118600779D01*
X114290042Y-118559899D01*
X114264695Y-118498525D01*
X114232171Y-118419819D01*
X114193778Y-118326947D01*
X114150822Y-118223072D01*
X114109222Y-118122502D01*
X114063504Y-118011516D01*
X114021526Y-117908703D01*
X113984548Y-117817215D01*
X113953827Y-117740201D01*
X113930622Y-117680815D01*
X113916190Y-117642209D01*
X113911743Y-117627800D01*
X113922896Y-117611272D01*
X113952069Y-117584930D01*
X113990971Y-117555887D01*
X114101757Y-117464039D01*
X114188351Y-117358759D01*
X114249716Y-117242266D01*
X114284815Y-117116776D01*
X114292608Y-116984507D01*
X114286943Y-116923457D01*
X114256078Y-116796795D01*
X114202920Y-116684941D01*
X114130767Y-116589001D01*
X114042917Y-116510076D01*
X113942665Y-116449270D01*
X113833310Y-116407687D01*
X113718147Y-116386428D01*
X113600475Y-116386599D01*
X113483590Y-116409301D01*
X113370789Y-116455638D01*
X113265369Y-116526713D01*
X113221368Y-116566911D01*
X113136979Y-116670129D01*
X113078222Y-116782925D01*
X113044704Y-116902010D01*
X113036035Y-117024095D01*
X113051823Y-117145893D01*
X113091678Y-117264116D01*
X113155207Y-117375475D01*
X113242021Y-117476684D01*
X113339029Y-117555887D01*
X113379437Y-117586162D01*
X113407982Y-117612219D01*
X113418257Y-117627825D01*
X113412877Y-117644843D01*
X113397575Y-117685500D01*
X113373612Y-117746642D01*
X113342244Y-117825119D01*
X113304732Y-117917780D01*
X113262333Y-118021472D01*
X113220663Y-118122526D01*
X113174690Y-118233607D01*
X113132107Y-118336541D01*
X113094221Y-118428165D01*
X113062340Y-118505316D01*
X113037771Y-118564831D01*
X113021820Y-118603544D01*
X113015910Y-118618000D01*
X113001948Y-118632685D01*
X112974940Y-118632642D01*
X112931413Y-118617099D01*
X112867890Y-118585284D01*
X112867388Y-118585013D01*
X112819560Y-118560323D01*
X112780897Y-118542338D01*
X112759095Y-118534614D01*
X112758133Y-118534543D01*
X112741721Y-118542378D01*
X112705487Y-118564165D01*
X112653474Y-118597328D01*
X112589725Y-118639291D01*
X112519060Y-118686943D01*
X112447116Y-118735191D01*
X112382274Y-118777151D01*
X112328735Y-118810227D01*
X112290697Y-118831821D01*
X112272533Y-118839343D01*
X112255808Y-118829457D01*
X112222180Y-118801826D01*
X112175010Y-118759495D01*
X112117658Y-118705505D01*
X112053484Y-118642899D01*
X112032497Y-118621983D01*
X111815499Y-118404623D01*
X111980668Y-118162220D01*
X112030864Y-118087781D01*
X112074919Y-118020972D01*
X112110362Y-117965665D01*
X112134719Y-117925729D01*
X112145522Y-117905036D01*
X112145838Y-117903563D01*
X112140143Y-117884058D01*
X112124826Y-117844822D01*
X112102537Y-117792430D01*
X112086893Y-117757355D01*
X112057641Y-117690201D01*
X112030094Y-117622358D01*
X112008737Y-117565034D01*
X112002935Y-117547572D01*
X111986452Y-117500938D01*
X111970340Y-117464905D01*
X111961490Y-117451287D01*
X111941960Y-117442952D01*
X111899334Y-117431137D01*
X111839145Y-117417181D01*
X111766922Y-117402422D01*
X111734600Y-117396355D01*
X111652522Y-117381273D01*
X111573795Y-117366669D01*
X111506109Y-117353980D01*
X111457160Y-117344642D01*
X111447943Y-117342839D01*
X111371743Y-117327799D01*
X111371743Y-117010492D01*
X111371914Y-116906154D01*
X111372616Y-116827213D01*
X111374134Y-116770038D01*
X111376749Y-116730999D01*
X111380746Y-116706465D01*
X111386409Y-116692805D01*
X111394020Y-116686389D01*
X111397143Y-116685199D01*
X111415978Y-116680980D01*
X111457588Y-116672562D01*
X111516630Y-116660961D01*
X111587757Y-116647195D01*
X111665625Y-116632280D01*
X111744887Y-116617232D01*
X111820198Y-116603069D01*
X111886213Y-116590806D01*
X111937587Y-116581461D01*
X111968975Y-116576050D01*
X111975959Y-116575114D01*
X111982285Y-116562596D01*
X111996290Y-116529246D01*
X112015355Y-116481377D01*
X112022634Y-116462629D01*
X112051996Y-116390195D01*
X112086571Y-116310170D01*
X112117537Y-116242728D01*
X112140323Y-116191159D01*
X112155482Y-116148785D01*
X112160542Y-116122834D01*
X112159736Y-116119356D01*
X112149041Y-116102936D01*
X112124620Y-116066417D01*
X112089095Y-116013687D01*
X112045087Y-115948635D01*
X111995217Y-115875151D01*
X111985356Y-115860645D01*
X111927492Y-115774704D01*
X111884956Y-115709261D01*
X111856054Y-115661304D01*
X111839090Y-115627820D01*
X111832367Y-115605795D01*
X111834190Y-115592217D01*
X111834236Y-115592131D01*
X111848586Y-115574297D01*
X111880323Y-115539817D01*
X111926010Y-115492268D01*
X111982204Y-115435222D01*
X112045468Y-115372255D01*
X112052602Y-115365227D01*
X112132330Y-115288020D01*
X112193857Y-115231330D01*
X112238421Y-115194110D01*
X112267257Y-115175315D01*
X112279958Y-115172889D01*
X112298494Y-115183471D01*
X112336961Y-115207916D01*
X112391386Y-115243612D01*
X112457798Y-115287947D01*
X112532225Y-115338311D01*
X112549601Y-115350160D01*
X112796297Y-115518626D01*
X112907706Y-115468062D01*
X112975457Y-115438595D01*
X113048183Y-115408959D01*
X113110703Y-115385330D01*
X113113457Y-115384358D01*
X113162360Y-115366457D01*
X113200057Y-115351320D01*
X113218425Y-115342210D01*
X113218456Y-115342184D01*
X113224285Y-115325717D01*
X113234192Y-115285219D01*
X113247195Y-115225242D01*
X113262309Y-115150340D01*
X113278552Y-115065064D01*
X113279881Y-115057875D01*
X113296175Y-114970014D01*
X113311133Y-114890260D01*
X113323791Y-114823681D01*
X113333186Y-114775347D01*
X113338354Y-114750325D01*
X113338444Y-114749943D01*
X113341589Y-114739299D01*
X113347704Y-114731262D01*
X113360453Y-114725467D01*
X113383500Y-114721547D01*
X113420509Y-114719135D01*
X113475144Y-114717865D01*
X113551067Y-114717371D01*
X113651944Y-114717286D01*
X113665000Y-114717286D01*
X113768910Y-114717348D01*
G37*
X113768910Y-114717348D02*
X113847454Y-114717778D01*
X113904298Y-114718942D01*
X113943105Y-114721207D01*
X113967538Y-114724940D01*
X113981262Y-114730506D01*
X113987940Y-114738273D01*
X113991236Y-114748605D01*
X113991556Y-114749943D01*
X113996562Y-114774079D01*
X114005829Y-114821701D01*
X114018392Y-114887741D01*
X114033287Y-114967128D01*
X114049551Y-115054796D01*
X114050119Y-115057875D01*
X114066410Y-115143789D01*
X114081652Y-115219696D01*
X114094861Y-115281045D01*
X114105054Y-115323282D01*
X114111248Y-115341855D01*
X114111543Y-115342184D01*
X114129788Y-115351253D01*
X114167405Y-115366367D01*
X114216271Y-115384262D01*
X114216543Y-115384358D01*
X114278093Y-115407493D01*
X114350657Y-115436965D01*
X114419057Y-115466597D01*
X114422294Y-115468062D01*
X114533702Y-115518626D01*
X114780399Y-115350160D01*
X114856077Y-115298803D01*
X114924631Y-115252889D01*
X114982088Y-115215030D01*
X115024476Y-115187837D01*
X115047825Y-115173921D01*
X115050042Y-115172889D01*
X115067010Y-115177484D01*
X115098701Y-115199655D01*
X115146352Y-115240447D01*
X115211198Y-115300905D01*
X115277397Y-115365227D01*
X115341214Y-115428612D01*
X115398329Y-115486451D01*
X115445305Y-115535175D01*
X115478703Y-115571210D01*
X115495085Y-115590984D01*
X115495694Y-115592002D01*
X115497505Y-115605572D01*
X115490683Y-115627733D01*
X115473540Y-115661478D01*
X115444393Y-115709800D01*
X115401555Y-115775692D01*
X115344448Y-115860517D01*
X115293766Y-115935177D01*
X115248461Y-116002140D01*
X115211150Y-116057516D01*
X115184452Y-116097420D01*
X115170985Y-116117962D01*
X115170137Y-116119356D01*
X115171781Y-116139038D01*
X115184245Y-116177293D01*
X115205048Y-116226889D01*
X115212462Y-116242728D01*
X115244814Y-116313290D01*
X115279328Y-116393353D01*
X115307365Y-116462629D01*
X115327568Y-116514045D01*
X115343615Y-116553119D01*
X115352888Y-116573541D01*
X115354041Y-116575114D01*
X115371096Y-116577721D01*
X115411298Y-116584863D01*
X115469302Y-116595523D01*
X115539763Y-116608685D01*
X115617335Y-116623333D01*
X115696672Y-116638449D01*
X115772431Y-116653018D01*
X115839264Y-116666022D01*
X115891828Y-116676445D01*
X115924776Y-116683270D01*
X115932857Y-116685199D01*
X115941205Y-116689962D01*
X115947506Y-116700718D01*
X115952045Y-116721098D01*
X115955104Y-116754734D01*
X115956967Y-116805255D01*
X115957918Y-116876292D01*
X115958240Y-116971476D01*
X115958257Y-117010492D01*
X115958257Y-117327799D01*
X115882057Y-117342839D01*
X115839663Y-117350995D01*
X115776400Y-117362899D01*
X115699962Y-117377116D01*
X115618043Y-117392210D01*
X115595400Y-117396355D01*
X115519806Y-117411053D01*
X115453953Y-117425505D01*
X115403366Y-117438375D01*
X115373574Y-117448322D01*
X115368612Y-117451287D01*
X115356426Y-117472283D01*
X115338953Y-117512967D01*
X115319577Y-117565322D01*
X115315734Y-117576600D01*
X115290339Y-117646523D01*
X115258817Y-117725418D01*
X115227969Y-117796266D01*
X115227817Y-117796595D01*
X115176447Y-117907733D01*
X115345399Y-118156253D01*
X115514352Y-118404772D01*
X115297429Y-118622058D01*
X115231819Y-118686726D01*
X115171979Y-118743733D01*
X115121267Y-118790033D01*
X115083046Y-118822584D01*
X115060675Y-118838343D01*
X115057466Y-118839343D01*
X115038626Y-118831469D01*
X115000180Y-118809578D01*
X114946330Y-118776267D01*
X114881276Y-118734131D01*
X114810940Y-118686943D01*
X114739555Y-118638810D01*
X114675908Y-118596928D01*
X114624041Y-118563871D01*
X114587995Y-118542218D01*
X114571867Y-118534543D01*
X114552189Y-118541037D01*
X114514875Y-118558150D01*
X114467621Y-118582326D01*
X114462612Y-118585013D01*
X114398977Y-118616927D01*
X114355341Y-118632579D01*
X114328202Y-118632745D01*
X114314057Y-118618204D01*
X114313975Y-118618000D01*
X114306905Y-118600779D01*
X114290042Y-118559899D01*
X114264695Y-118498525D01*
X114232171Y-118419819D01*
X114193778Y-118326947D01*
X114150822Y-118223072D01*
X114109222Y-118122502D01*
X114063504Y-118011516D01*
X114021526Y-117908703D01*
X113984548Y-117817215D01*
X113953827Y-117740201D01*
X113930622Y-117680815D01*
X113916190Y-117642209D01*
X113911743Y-117627800D01*
X113922896Y-117611272D01*
X113952069Y-117584930D01*
X113990971Y-117555887D01*
X114101757Y-117464039D01*
X114188351Y-117358759D01*
X114249716Y-117242266D01*
X114284815Y-117116776D01*
X114292608Y-116984507D01*
X114286943Y-116923457D01*
X114256078Y-116796795D01*
X114202920Y-116684941D01*
X114130767Y-116589001D01*
X114042917Y-116510076D01*
X113942665Y-116449270D01*
X113833310Y-116407687D01*
X113718147Y-116386428D01*
X113600475Y-116386599D01*
X113483590Y-116409301D01*
X113370789Y-116455638D01*
X113265369Y-116526713D01*
X113221368Y-116566911D01*
X113136979Y-116670129D01*
X113078222Y-116782925D01*
X113044704Y-116902010D01*
X113036035Y-117024095D01*
X113051823Y-117145893D01*
X113091678Y-117264116D01*
X113155207Y-117375475D01*
X113242021Y-117476684D01*
X113339029Y-117555887D01*
X113379437Y-117586162D01*
X113407982Y-117612219D01*
X113418257Y-117627825D01*
X113412877Y-117644843D01*
X113397575Y-117685500D01*
X113373612Y-117746642D01*
X113342244Y-117825119D01*
X113304732Y-117917780D01*
X113262333Y-118021472D01*
X113220663Y-118122526D01*
X113174690Y-118233607D01*
X113132107Y-118336541D01*
X113094221Y-118428165D01*
X113062340Y-118505316D01*
X113037771Y-118564831D01*
X113021820Y-118603544D01*
X113015910Y-118618000D01*
X113001948Y-118632685D01*
X112974940Y-118632642D01*
X112931413Y-118617099D01*
X112867890Y-118585284D01*
X112867388Y-118585013D01*
X112819560Y-118560323D01*
X112780897Y-118542338D01*
X112759095Y-118534614D01*
X112758133Y-118534543D01*
X112741721Y-118542378D01*
X112705487Y-118564165D01*
X112653474Y-118597328D01*
X112589725Y-118639291D01*
X112519060Y-118686943D01*
X112447116Y-118735191D01*
X112382274Y-118777151D01*
X112328735Y-118810227D01*
X112290697Y-118831821D01*
X112272533Y-118839343D01*
X112255808Y-118829457D01*
X112222180Y-118801826D01*
X112175010Y-118759495D01*
X112117658Y-118705505D01*
X112053484Y-118642899D01*
X112032497Y-118621983D01*
X111815499Y-118404623D01*
X111980668Y-118162220D01*
X112030864Y-118087781D01*
X112074919Y-118020972D01*
X112110362Y-117965665D01*
X112134719Y-117925729D01*
X112145522Y-117905036D01*
X112145838Y-117903563D01*
X112140143Y-117884058D01*
X112124826Y-117844822D01*
X112102537Y-117792430D01*
X112086893Y-117757355D01*
X112057641Y-117690201D01*
X112030094Y-117622358D01*
X112008737Y-117565034D01*
X112002935Y-117547572D01*
X111986452Y-117500938D01*
X111970340Y-117464905D01*
X111961490Y-117451287D01*
X111941960Y-117442952D01*
X111899334Y-117431137D01*
X111839145Y-117417181D01*
X111766922Y-117402422D01*
X111734600Y-117396355D01*
X111652522Y-117381273D01*
X111573795Y-117366669D01*
X111506109Y-117353980D01*
X111457160Y-117344642D01*
X111447943Y-117342839D01*
X111371743Y-117327799D01*
X111371743Y-117010492D01*
X111371914Y-116906154D01*
X111372616Y-116827213D01*
X111374134Y-116770038D01*
X111376749Y-116730999D01*
X111380746Y-116706465D01*
X111386409Y-116692805D01*
X111394020Y-116686389D01*
X111397143Y-116685199D01*
X111415978Y-116680980D01*
X111457588Y-116672562D01*
X111516630Y-116660961D01*
X111587757Y-116647195D01*
X111665625Y-116632280D01*
X111744887Y-116617232D01*
X111820198Y-116603069D01*
X111886213Y-116590806D01*
X111937587Y-116581461D01*
X111968975Y-116576050D01*
X111975959Y-116575114D01*
X111982285Y-116562596D01*
X111996290Y-116529246D01*
X112015355Y-116481377D01*
X112022634Y-116462629D01*
X112051996Y-116390195D01*
X112086571Y-116310170D01*
X112117537Y-116242728D01*
X112140323Y-116191159D01*
X112155482Y-116148785D01*
X112160542Y-116122834D01*
X112159736Y-116119356D01*
X112149041Y-116102936D01*
X112124620Y-116066417D01*
X112089095Y-116013687D01*
X112045087Y-115948635D01*
X111995217Y-115875151D01*
X111985356Y-115860645D01*
X111927492Y-115774704D01*
X111884956Y-115709261D01*
X111856054Y-115661304D01*
X111839090Y-115627820D01*
X111832367Y-115605795D01*
X111834190Y-115592217D01*
X111834236Y-115592131D01*
X111848586Y-115574297D01*
X111880323Y-115539817D01*
X111926010Y-115492268D01*
X111982204Y-115435222D01*
X112045468Y-115372255D01*
X112052602Y-115365227D01*
X112132330Y-115288020D01*
X112193857Y-115231330D01*
X112238421Y-115194110D01*
X112267257Y-115175315D01*
X112279958Y-115172889D01*
X112298494Y-115183471D01*
X112336961Y-115207916D01*
X112391386Y-115243612D01*
X112457798Y-115287947D01*
X112532225Y-115338311D01*
X112549601Y-115350160D01*
X112796297Y-115518626D01*
X112907706Y-115468062D01*
X112975457Y-115438595D01*
X113048183Y-115408959D01*
X113110703Y-115385330D01*
X113113457Y-115384358D01*
X113162360Y-115366457D01*
X113200057Y-115351320D01*
X113218425Y-115342210D01*
X113218456Y-115342184D01*
X113224285Y-115325717D01*
X113234192Y-115285219D01*
X113247195Y-115225242D01*
X113262309Y-115150340D01*
X113278552Y-115065064D01*
X113279881Y-115057875D01*
X113296175Y-114970014D01*
X113311133Y-114890260D01*
X113323791Y-114823681D01*
X113333186Y-114775347D01*
X113338354Y-114750325D01*
X113338444Y-114749943D01*
X113341589Y-114739299D01*
X113347704Y-114731262D01*
X113360453Y-114725467D01*
X113383500Y-114721547D01*
X113420509Y-114719135D01*
X113475144Y-114717865D01*
X113551067Y-114717371D01*
X113651944Y-114717286D01*
X113665000Y-114717286D01*
X113768910Y-114717348D01*
G36*
X94374257Y-114948689D02*
G01*
X94638780Y-114948725D01*
X94761912Y-114948730D01*
X96732811Y-114948730D01*
X96732811Y-115064910D01*
X96745211Y-115206291D01*
X96782636Y-115336684D01*
X96845423Y-115456862D01*
X96933906Y-115567602D01*
X96963843Y-115597511D01*
X97071534Y-115682348D01*
X97190275Y-115744221D01*
X97316540Y-115783159D01*
X97446803Y-115799190D01*
X97577535Y-115792342D01*
X97705212Y-115762643D01*
X97826305Y-115710120D01*
X97937288Y-115634803D01*
X97987132Y-115589363D01*
X98080017Y-115477952D01*
X98148127Y-115355435D01*
X98190871Y-115223215D01*
X98207653Y-115082692D01*
X98207876Y-115068867D01*
X98208756Y-114948734D01*
X98261557Y-114948732D01*
X98308396Y-114955089D01*
X98351183Y-114970556D01*
X98354011Y-114972154D01*
X98363675Y-114977168D01*
X98372549Y-114981073D01*
X98380665Y-114985007D01*
X98388057Y-114990106D01*
X98394755Y-114997508D01*
X98400792Y-115008351D01*
X98406199Y-115023772D01*
X98411010Y-115044909D01*
X98415255Y-115072899D01*
X98418968Y-115108879D01*
X98422179Y-115153987D01*
X98424922Y-115209360D01*
X98427228Y-115276137D01*
X98429129Y-115355453D01*
X98430658Y-115448447D01*
X98431846Y-115556257D01*
X98432726Y-115680019D01*
X98433330Y-115820871D01*
X98433689Y-115979950D01*
X98433835Y-116158395D01*
X98433802Y-116357342D01*
X98433620Y-116577929D01*
X98433323Y-116821293D01*
X98432941Y-117088572D01*
X98432508Y-117380903D01*
X98432055Y-117699424D01*
X98432002Y-117738230D01*
X98431596Y-118058782D01*
X98431251Y-118353012D01*
X98430931Y-118622056D01*
X98430600Y-118867052D01*
X98430221Y-119089137D01*
X98429757Y-119289447D01*
X98429172Y-119469119D01*
X98428430Y-119629290D01*
X98427494Y-119771098D01*
X98426327Y-119895679D01*
X98424893Y-120004170D01*
X98423156Y-120097707D01*
X98421078Y-120177429D01*
X98418624Y-120244472D01*
X98415756Y-120299973D01*
X98412439Y-120345068D01*
X98408636Y-120380895D01*
X98404310Y-120408591D01*
X98399425Y-120429293D01*
X98393945Y-120444137D01*
X98387832Y-120454260D01*
X98381050Y-120460800D01*
X98373563Y-120464893D01*
X98365334Y-120467676D01*
X98356327Y-120470287D01*
X98346505Y-120473862D01*
X98344106Y-120474950D01*
X98336565Y-120477396D01*
X98323944Y-120479642D01*
X98305141Y-120481698D01*
X98279053Y-120483572D01*
X98244578Y-120485271D01*
X98200615Y-120486803D01*
X98146061Y-120488177D01*
X98079815Y-120489400D01*
X98000774Y-120490481D01*
X97907837Y-120491427D01*
X97799901Y-120492247D01*
X97675864Y-120492947D01*
X97534624Y-120493538D01*
X97375079Y-120494025D01*
X97196128Y-120494419D01*
X96996668Y-120494725D01*
X96775596Y-120494953D01*
X96531812Y-120495110D01*
X96264213Y-120495205D01*
X95971697Y-120495245D01*
X95653161Y-120495238D01*
X95549979Y-120495228D01*
X95224377Y-120495176D01*
X94925119Y-120495091D01*
X94651091Y-120494963D01*
X94401176Y-120494785D01*
X94174260Y-120494548D01*
X93969227Y-120494242D01*
X93784962Y-120493860D01*
X93620350Y-120493392D01*
X93474275Y-120492830D01*
X93345624Y-120492165D01*
X93233279Y-120491388D01*
X93136126Y-120490491D01*
X93053050Y-120489465D01*
X92982936Y-120488301D01*
X92924668Y-120486991D01*
X92877131Y-120485525D01*
X92839210Y-120483896D01*
X92809790Y-120482093D01*
X92787755Y-120480110D01*
X92771990Y-120477936D01*
X92761380Y-120475563D01*
X92755596Y-120473391D01*
X92745316Y-120469056D01*
X92735878Y-120465859D01*
X92727245Y-120462665D01*
X92719381Y-120458338D01*
X92712252Y-120451744D01*
X92705821Y-120441747D01*
X92700053Y-120427212D01*
X92694911Y-120407003D01*
X92690360Y-120379985D01*
X92686365Y-120345023D01*
X92682889Y-120300981D01*
X92679898Y-120246724D01*
X92677354Y-120181117D01*
X92675223Y-120103024D01*
X92673468Y-120011310D01*
X92672055Y-119904840D01*
X92671685Y-119863973D01*
X93038116Y-119863973D01*
X94333266Y-119863973D01*
X94308345Y-119826217D01*
X94283553Y-119787417D01*
X94262560Y-119750469D01*
X94245065Y-119712788D01*
X94230770Y-119671788D01*
X94219377Y-119624883D01*
X94210587Y-119569487D01*
X94204102Y-119503016D01*
X94199623Y-119422883D01*
X94196850Y-119326502D01*
X94195487Y-119211289D01*
X94195233Y-119074657D01*
X94195791Y-118914020D01*
X94196107Y-118854382D01*
X94199675Y-118215041D01*
X94604702Y-118766449D01*
X94719446Y-118922876D01*
X94818857Y-119059088D01*
X94904010Y-119176890D01*
X94975978Y-119278084D01*
X95035834Y-119364477D01*
X95084652Y-119437874D01*
X95123505Y-119500077D01*
X95153466Y-119552893D01*
X95175609Y-119598125D01*
X95191007Y-119637578D01*
X95200734Y-119673058D01*
X95205863Y-119706368D01*
X95207468Y-119739313D01*
X95206621Y-119773697D01*
X95206405Y-119778019D01*
X95201946Y-119864031D01*
X96621308Y-119863973D01*
X96515735Y-119757522D01*
X96487087Y-119728406D01*
X96459910Y-119700076D01*
X96433011Y-119670968D01*
X96405197Y-119639520D01*
X96375275Y-119604169D01*
X96342054Y-119563354D01*
X96304339Y-119515511D01*
X96260940Y-119459079D01*
X96210662Y-119392494D01*
X96152312Y-119314195D01*
X96084700Y-119222619D01*
X96006631Y-119116204D01*
X95916912Y-118993387D01*
X95814352Y-118852605D01*
X95697758Y-118692297D01*
X95602191Y-118560798D01*
X95482251Y-118395596D01*
X95377620Y-118251152D01*
X95287352Y-118126094D01*
X95210497Y-118019052D01*
X95146109Y-117928654D01*
X95093239Y-117853529D01*
X95050940Y-117792304D01*
X95018264Y-117743610D01*
X94994262Y-117706074D01*
X94977987Y-117678325D01*
X94968492Y-117658992D01*
X94964827Y-117646703D01*
X94965929Y-117640242D01*
X94979276Y-117623048D01*
X95008134Y-117586655D01*
X95050760Y-117533224D01*
X95105415Y-117464919D01*
X95170356Y-117383903D01*
X95243842Y-117292340D01*
X95324132Y-117192392D01*
X95409485Y-117086224D01*
X95498160Y-116975997D01*
X95588414Y-116863876D01*
X95638056Y-116802244D01*
X96870627Y-116802244D01*
X96921854Y-116894919D01*
X96973081Y-116987595D01*
X96973081Y-119678622D01*
X96921854Y-119771298D01*
X96870627Y-119863973D01*
X97476604Y-119863973D01*
X97621266Y-119863931D01*
X97740756Y-119863741D01*
X97837358Y-119863308D01*
X97913358Y-119862536D01*
X97971043Y-119861330D01*
X98012699Y-119859594D01*
X98040611Y-119857232D01*
X98057065Y-119854150D01*
X98064348Y-119850251D01*
X98064745Y-119845440D01*
X98060542Y-119839622D01*
X98060499Y-119839574D01*
X98043187Y-119814532D01*
X98020264Y-119773815D01*
X98000019Y-119733168D01*
X97961621Y-119651162D01*
X97953789Y-116802244D01*
X96870627Y-116802244D01*
X95638056Y-116802244D01*
X95678507Y-116752024D01*
X95766698Y-116642604D01*
X95851246Y-116537778D01*
X95930408Y-116439711D01*
X96002444Y-116350566D01*
X96065613Y-116272505D01*
X96118173Y-116207692D01*
X96158383Y-116158290D01*
X96182000Y-116129487D01*
X96273710Y-116021778D01*
X96361940Y-115924580D01*
X96443597Y-115841076D01*
X96515590Y-115774448D01*
X96566681Y-115733599D01*
X96627093Y-115690135D01*
X95237702Y-115690135D01*
X95238092Y-115771666D01*
X95234209Y-115831606D01*
X95219610Y-115887177D01*
X95197012Y-115939855D01*
X95182322Y-115969615D01*
X95166528Y-115999103D01*
X95148186Y-116030276D01*
X95125855Y-116065093D01*
X95098091Y-116105510D01*
X95063451Y-116153486D01*
X95020493Y-116210978D01*
X94967773Y-116279943D01*
X94903849Y-116362339D01*
X94827279Y-116460124D01*
X94736619Y-116575255D01*
X94630426Y-116709690D01*
X94618432Y-116724859D01*
X94199675Y-117254412D01*
X94195622Y-116667922D01*
X94194805Y-116492251D01*
X94194979Y-116343532D01*
X94196151Y-116221275D01*
X94198331Y-116124989D01*
X94201526Y-116054183D01*
X94205744Y-116008369D01*
X94207162Y-115999679D01*
X94229409Y-115908135D01*
X94258557Y-115825608D01*
X94291818Y-115759253D01*
X94311800Y-115731110D01*
X94346278Y-115690135D01*
X93692086Y-115690135D01*
X93536031Y-115690269D01*
X93405533Y-115690703D01*
X93298690Y-115691489D01*
X93213602Y-115692676D01*
X93148365Y-115694317D01*
X93101079Y-115696461D01*
X93069843Y-115699159D01*
X93052754Y-115702462D01*
X93047912Y-115706421D01*
X93048247Y-115707298D01*
X93062115Y-115728231D01*
X93085268Y-115761412D01*
X93097246Y-115778193D01*
X93109631Y-115794940D01*
X93120763Y-115809915D01*
X93130712Y-115824594D01*
X93139549Y-115840449D01*
X93147343Y-115858955D01*
X93154165Y-115881585D01*
X93160084Y-115909813D01*
X93165171Y-115945113D01*
X93169496Y-115988958D01*
X93173129Y-116042822D01*
X93176140Y-116108180D01*
X93178599Y-116186504D01*
X93180577Y-116279268D01*
X93182142Y-116387947D01*
X93183366Y-116514013D01*
X93184319Y-116658942D01*
X93185070Y-116824206D01*
X93185689Y-117011279D01*
X93186248Y-117221635D01*
X93186815Y-117456748D01*
X93187345Y-117672741D01*
X93187845Y-117913535D01*
X93188105Y-118143274D01*
X93188132Y-118360493D01*
X93187933Y-118563722D01*
X93187514Y-118751496D01*
X93186882Y-118922345D01*
X93186044Y-119074803D01*
X93185008Y-119207403D01*
X93183780Y-119318676D01*
X93182367Y-119407156D01*
X93180775Y-119471375D01*
X93179013Y-119509865D01*
X93178679Y-119513933D01*
X93166534Y-119607248D01*
X93147573Y-119682190D01*
X93118698Y-119747594D01*
X93076810Y-119812293D01*
X93071571Y-119819352D01*
X93038116Y-119863973D01*
X92671685Y-119863973D01*
X92670946Y-119782479D01*
X92670107Y-119643090D01*
X92669502Y-119485539D01*
X92669095Y-119308691D01*
X92668850Y-119111410D01*
X92668733Y-118892560D01*
X92668705Y-118651007D01*
X92668733Y-118385615D01*
X92668780Y-118095249D01*
X92668810Y-117778773D01*
X92668811Y-117715946D01*
X92668828Y-117396137D01*
X92668888Y-117102661D01*
X92668998Y-116834390D01*
X92669167Y-116590198D01*
X92669403Y-116368957D01*
X92669716Y-116169540D01*
X92670115Y-115990820D01*
X92670607Y-115831671D01*
X92671203Y-115690966D01*
X92671910Y-115567576D01*
X92672737Y-115460376D01*
X92673693Y-115368238D01*
X92674787Y-115290035D01*
X92676027Y-115224641D01*
X92677422Y-115170928D01*
X92678982Y-115127769D01*
X92680714Y-115094037D01*
X92682628Y-115068605D01*
X92684732Y-115050347D01*
X92687034Y-115038134D01*
X92689545Y-115030841D01*
X92689637Y-115030659D01*
X92694808Y-115019518D01*
X92699115Y-115009431D01*
X92703879Y-115000346D01*
X92710422Y-114992212D01*
X92720065Y-114984976D01*
X92734129Y-114978586D01*
X92753937Y-114972989D01*
X92780809Y-114968133D01*
X92816067Y-114963966D01*
X92861032Y-114960436D01*
X92917026Y-114957491D01*
X92985371Y-114955077D01*
X93067386Y-114953144D01*
X93164395Y-114951638D01*
X93277718Y-114950508D01*
X93408677Y-114949702D01*
X93558593Y-114949166D01*
X93728787Y-114948849D01*
X93920582Y-114948699D01*
X94135298Y-114948663D01*
X94374257Y-114948689D01*
G37*
X94374257Y-114948689D02*
X94638780Y-114948725D01*
X94761912Y-114948730D01*
X96732811Y-114948730D01*
X96732811Y-115064910D01*
X96745211Y-115206291D01*
X96782636Y-115336684D01*
X96845423Y-115456862D01*
X96933906Y-115567602D01*
X96963843Y-115597511D01*
X97071534Y-115682348D01*
X97190275Y-115744221D01*
X97316540Y-115783159D01*
X97446803Y-115799190D01*
X97577535Y-115792342D01*
X97705212Y-115762643D01*
X97826305Y-115710120D01*
X97937288Y-115634803D01*
X97987132Y-115589363D01*
X98080017Y-115477952D01*
X98148127Y-115355435D01*
X98190871Y-115223215D01*
X98207653Y-115082692D01*
X98207876Y-115068867D01*
X98208756Y-114948734D01*
X98261557Y-114948732D01*
X98308396Y-114955089D01*
X98351183Y-114970556D01*
X98354011Y-114972154D01*
X98363675Y-114977168D01*
X98372549Y-114981073D01*
X98380665Y-114985007D01*
X98388057Y-114990106D01*
X98394755Y-114997508D01*
X98400792Y-115008351D01*
X98406199Y-115023772D01*
X98411010Y-115044909D01*
X98415255Y-115072899D01*
X98418968Y-115108879D01*
X98422179Y-115153987D01*
X98424922Y-115209360D01*
X98427228Y-115276137D01*
X98429129Y-115355453D01*
X98430658Y-115448447D01*
X98431846Y-115556257D01*
X98432726Y-115680019D01*
X98433330Y-115820871D01*
X98433689Y-115979950D01*
X98433835Y-116158395D01*
X98433802Y-116357342D01*
X98433620Y-116577929D01*
X98433323Y-116821293D01*
X98432941Y-117088572D01*
X98432508Y-117380903D01*
X98432055Y-117699424D01*
X98432002Y-117738230D01*
X98431596Y-118058782D01*
X98431251Y-118353012D01*
X98430931Y-118622056D01*
X98430600Y-118867052D01*
X98430221Y-119089137D01*
X98429757Y-119289447D01*
X98429172Y-119469119D01*
X98428430Y-119629290D01*
X98427494Y-119771098D01*
X98426327Y-119895679D01*
X98424893Y-120004170D01*
X98423156Y-120097707D01*
X98421078Y-120177429D01*
X98418624Y-120244472D01*
X98415756Y-120299973D01*
X98412439Y-120345068D01*
X98408636Y-120380895D01*
X98404310Y-120408591D01*
X98399425Y-120429293D01*
X98393945Y-120444137D01*
X98387832Y-120454260D01*
X98381050Y-120460800D01*
X98373563Y-120464893D01*
X98365334Y-120467676D01*
X98356327Y-120470287D01*
X98346505Y-120473862D01*
X98344106Y-120474950D01*
X98336565Y-120477396D01*
X98323944Y-120479642D01*
X98305141Y-120481698D01*
X98279053Y-120483572D01*
X98244578Y-120485271D01*
X98200615Y-120486803D01*
X98146061Y-120488177D01*
X98079815Y-120489400D01*
X98000774Y-120490481D01*
X97907837Y-120491427D01*
X97799901Y-120492247D01*
X97675864Y-120492947D01*
X97534624Y-120493538D01*
X97375079Y-120494025D01*
X97196128Y-120494419D01*
X96996668Y-120494725D01*
X96775596Y-120494953D01*
X96531812Y-120495110D01*
X96264213Y-120495205D01*
X95971697Y-120495245D01*
X95653161Y-120495238D01*
X95549979Y-120495228D01*
X95224377Y-120495176D01*
X94925119Y-120495091D01*
X94651091Y-120494963D01*
X94401176Y-120494785D01*
X94174260Y-120494548D01*
X93969227Y-120494242D01*
X93784962Y-120493860D01*
X93620350Y-120493392D01*
X93474275Y-120492830D01*
X93345624Y-120492165D01*
X93233279Y-120491388D01*
X93136126Y-120490491D01*
X93053050Y-120489465D01*
X92982936Y-120488301D01*
X92924668Y-120486991D01*
X92877131Y-120485525D01*
X92839210Y-120483896D01*
X92809790Y-120482093D01*
X92787755Y-120480110D01*
X92771990Y-120477936D01*
X92761380Y-120475563D01*
X92755596Y-120473391D01*
X92745316Y-120469056D01*
X92735878Y-120465859D01*
X92727245Y-120462665D01*
X92719381Y-120458338D01*
X92712252Y-120451744D01*
X92705821Y-120441747D01*
X92700053Y-120427212D01*
X92694911Y-120407003D01*
X92690360Y-120379985D01*
X92686365Y-120345023D01*
X92682889Y-120300981D01*
X92679898Y-120246724D01*
X92677354Y-120181117D01*
X92675223Y-120103024D01*
X92673468Y-120011310D01*
X92672055Y-119904840D01*
X92671685Y-119863973D01*
X93038116Y-119863973D01*
X94333266Y-119863973D01*
X94308345Y-119826217D01*
X94283553Y-119787417D01*
X94262560Y-119750469D01*
X94245065Y-119712788D01*
X94230770Y-119671788D01*
X94219377Y-119624883D01*
X94210587Y-119569487D01*
X94204102Y-119503016D01*
X94199623Y-119422883D01*
X94196850Y-119326502D01*
X94195487Y-119211289D01*
X94195233Y-119074657D01*
X94195791Y-118914020D01*
X94196107Y-118854382D01*
X94199675Y-118215041D01*
X94604702Y-118766449D01*
X94719446Y-118922876D01*
X94818857Y-119059088D01*
X94904010Y-119176890D01*
X94975978Y-119278084D01*
X95035834Y-119364477D01*
X95084652Y-119437874D01*
X95123505Y-119500077D01*
X95153466Y-119552893D01*
X95175609Y-119598125D01*
X95191007Y-119637578D01*
X95200734Y-119673058D01*
X95205863Y-119706368D01*
X95207468Y-119739313D01*
X95206621Y-119773697D01*
X95206405Y-119778019D01*
X95201946Y-119864031D01*
X96621308Y-119863973D01*
X96515735Y-119757522D01*
X96487087Y-119728406D01*
X96459910Y-119700076D01*
X96433011Y-119670968D01*
X96405197Y-119639520D01*
X96375275Y-119604169D01*
X96342054Y-119563354D01*
X96304339Y-119515511D01*
X96260940Y-119459079D01*
X96210662Y-119392494D01*
X96152312Y-119314195D01*
X96084700Y-119222619D01*
X96006631Y-119116204D01*
X95916912Y-118993387D01*
X95814352Y-118852605D01*
X95697758Y-118692297D01*
X95602191Y-118560798D01*
X95482251Y-118395596D01*
X95377620Y-118251152D01*
X95287352Y-118126094D01*
X95210497Y-118019052D01*
X95146109Y-117928654D01*
X95093239Y-117853529D01*
X95050940Y-117792304D01*
X95018264Y-117743610D01*
X94994262Y-117706074D01*
X94977987Y-117678325D01*
X94968492Y-117658992D01*
X94964827Y-117646703D01*
X94965929Y-117640242D01*
X94979276Y-117623048D01*
X95008134Y-117586655D01*
X95050760Y-117533224D01*
X95105415Y-117464919D01*
X95170356Y-117383903D01*
X95243842Y-117292340D01*
X95324132Y-117192392D01*
X95409485Y-117086224D01*
X95498160Y-116975997D01*
X95588414Y-116863876D01*
X95638056Y-116802244D01*
X96870627Y-116802244D01*
X96921854Y-116894919D01*
X96973081Y-116987595D01*
X96973081Y-119678622D01*
X96921854Y-119771298D01*
X96870627Y-119863973D01*
X97476604Y-119863973D01*
X97621266Y-119863931D01*
X97740756Y-119863741D01*
X97837358Y-119863308D01*
X97913358Y-119862536D01*
X97971043Y-119861330D01*
X98012699Y-119859594D01*
X98040611Y-119857232D01*
X98057065Y-119854150D01*
X98064348Y-119850251D01*
X98064745Y-119845440D01*
X98060542Y-119839622D01*
X98060499Y-119839574D01*
X98043187Y-119814532D01*
X98020264Y-119773815D01*
X98000019Y-119733168D01*
X97961621Y-119651162D01*
X97953789Y-116802244D01*
X96870627Y-116802244D01*
X95638056Y-116802244D01*
X95678507Y-116752024D01*
X95766698Y-116642604D01*
X95851246Y-116537778D01*
X95930408Y-116439711D01*
X96002444Y-116350566D01*
X96065613Y-116272505D01*
X96118173Y-116207692D01*
X96158383Y-116158290D01*
X96182000Y-116129487D01*
X96273710Y-116021778D01*
X96361940Y-115924580D01*
X96443597Y-115841076D01*
X96515590Y-115774448D01*
X96566681Y-115733599D01*
X96627093Y-115690135D01*
X95237702Y-115690135D01*
X95238092Y-115771666D01*
X95234209Y-115831606D01*
X95219610Y-115887177D01*
X95197012Y-115939855D01*
X95182322Y-115969615D01*
X95166528Y-115999103D01*
X95148186Y-116030276D01*
X95125855Y-116065093D01*
X95098091Y-116105510D01*
X95063451Y-116153486D01*
X95020493Y-116210978D01*
X94967773Y-116279943D01*
X94903849Y-116362339D01*
X94827279Y-116460124D01*
X94736619Y-116575255D01*
X94630426Y-116709690D01*
X94618432Y-116724859D01*
X94199675Y-117254412D01*
X94195622Y-116667922D01*
X94194805Y-116492251D01*
X94194979Y-116343532D01*
X94196151Y-116221275D01*
X94198331Y-116124989D01*
X94201526Y-116054183D01*
X94205744Y-116008369D01*
X94207162Y-115999679D01*
X94229409Y-115908135D01*
X94258557Y-115825608D01*
X94291818Y-115759253D01*
X94311800Y-115731110D01*
X94346278Y-115690135D01*
X93692086Y-115690135D01*
X93536031Y-115690269D01*
X93405533Y-115690703D01*
X93298690Y-115691489D01*
X93213602Y-115692676D01*
X93148365Y-115694317D01*
X93101079Y-115696461D01*
X93069843Y-115699159D01*
X93052754Y-115702462D01*
X93047912Y-115706421D01*
X93048247Y-115707298D01*
X93062115Y-115728231D01*
X93085268Y-115761412D01*
X93097246Y-115778193D01*
X93109631Y-115794940D01*
X93120763Y-115809915D01*
X93130712Y-115824594D01*
X93139549Y-115840449D01*
X93147343Y-115858955D01*
X93154165Y-115881585D01*
X93160084Y-115909813D01*
X93165171Y-115945113D01*
X93169496Y-115988958D01*
X93173129Y-116042822D01*
X93176140Y-116108180D01*
X93178599Y-116186504D01*
X93180577Y-116279268D01*
X93182142Y-116387947D01*
X93183366Y-116514013D01*
X93184319Y-116658942D01*
X93185070Y-116824206D01*
X93185689Y-117011279D01*
X93186248Y-117221635D01*
X93186815Y-117456748D01*
X93187345Y-117672741D01*
X93187845Y-117913535D01*
X93188105Y-118143274D01*
X93188132Y-118360493D01*
X93187933Y-118563722D01*
X93187514Y-118751496D01*
X93186882Y-118922345D01*
X93186044Y-119074803D01*
X93185008Y-119207403D01*
X93183780Y-119318676D01*
X93182367Y-119407156D01*
X93180775Y-119471375D01*
X93179013Y-119509865D01*
X93178679Y-119513933D01*
X93166534Y-119607248D01*
X93147573Y-119682190D01*
X93118698Y-119747594D01*
X93076810Y-119812293D01*
X93071571Y-119819352D01*
X93038116Y-119863973D01*
X92671685Y-119863973D01*
X92670946Y-119782479D01*
X92670107Y-119643090D01*
X92669502Y-119485539D01*
X92669095Y-119308691D01*
X92668850Y-119111410D01*
X92668733Y-118892560D01*
X92668705Y-118651007D01*
X92668733Y-118385615D01*
X92668780Y-118095249D01*
X92668810Y-117778773D01*
X92668811Y-117715946D01*
X92668828Y-117396137D01*
X92668888Y-117102661D01*
X92668998Y-116834390D01*
X92669167Y-116590198D01*
X92669403Y-116368957D01*
X92669716Y-116169540D01*
X92670115Y-115990820D01*
X92670607Y-115831671D01*
X92671203Y-115690966D01*
X92671910Y-115567576D01*
X92672737Y-115460376D01*
X92673693Y-115368238D01*
X92674787Y-115290035D01*
X92676027Y-115224641D01*
X92677422Y-115170928D01*
X92678982Y-115127769D01*
X92680714Y-115094037D01*
X92682628Y-115068605D01*
X92684732Y-115050347D01*
X92687034Y-115038134D01*
X92689545Y-115030841D01*
X92689637Y-115030659D01*
X92694808Y-115019518D01*
X92699115Y-115009431D01*
X92703879Y-115000346D01*
X92710422Y-114992212D01*
X92720065Y-114984976D01*
X92734129Y-114978586D01*
X92753937Y-114972989D01*
X92780809Y-114968133D01*
X92816067Y-114963966D01*
X92861032Y-114960436D01*
X92917026Y-114957491D01*
X92985371Y-114955077D01*
X93067386Y-114953144D01*
X93164395Y-114951638D01*
X93277718Y-114950508D01*
X93408677Y-114949702D01*
X93558593Y-114949166D01*
X93728787Y-114948849D01*
X93920582Y-114948699D01*
X94135298Y-114948663D01*
X94374257Y-114948689D01*
G36*
X100769962Y-115635499D02*
G01*
X100918014Y-115651707D01*
X101061452Y-115680718D01*
X101206110Y-115724045D01*
X101357824Y-115783201D01*
X101522428Y-115859700D01*
X101552071Y-115874517D01*
X101620098Y-115908031D01*
X101684256Y-115938208D01*
X101738215Y-115962166D01*
X101775640Y-115977024D01*
X101781389Y-115978895D01*
X101836486Y-115995402D01*
X101589851Y-116354201D01*
X101529552Y-116441893D01*
X101474422Y-116522012D01*
X101426336Y-116591836D01*
X101387168Y-116648647D01*
X101358794Y-116689723D01*
X101343087Y-116712346D01*
X101340536Y-116715928D01*
X101330171Y-116708438D01*
X101304660Y-116685918D01*
X101268563Y-116652461D01*
X101248642Y-116633550D01*
X101135773Y-116543778D01*
X101009014Y-116475561D01*
X100899783Y-116438195D01*
X100834214Y-116426460D01*
X100752116Y-116419308D01*
X100663144Y-116416874D01*
X100576956Y-116419288D01*
X100503205Y-116426683D01*
X100473776Y-116432347D01*
X100341133Y-116477982D01*
X100221606Y-116547663D01*
X100115283Y-116641260D01*
X100022253Y-116758649D01*
X99942605Y-116899700D01*
X99876426Y-117064286D01*
X99823806Y-117252280D01*
X99792533Y-117413217D01*
X99784374Y-117484263D01*
X99778815Y-117576046D01*
X99775802Y-117681968D01*
X99775281Y-117795434D01*
X99777200Y-117909849D01*
X99781503Y-118018617D01*
X99788137Y-118115143D01*
X99797049Y-118192831D01*
X99798979Y-118204817D01*
X99841499Y-118397892D01*
X99899433Y-118568773D01*
X99973133Y-118718224D01*
X100062951Y-118847011D01*
X100126707Y-118916639D01*
X100241286Y-119011173D01*
X100366942Y-119081246D01*
X100501557Y-119126477D01*
X100643011Y-119146484D01*
X100789183Y-119140885D01*
X100937955Y-119109300D01*
X101025911Y-119078394D01*
X101147629Y-119016506D01*
X101273080Y-118927729D01*
X101343353Y-118867694D01*
X101382811Y-118832947D01*
X101413812Y-118807454D01*
X101431458Y-118795170D01*
X101433648Y-118794795D01*
X101441524Y-118807347D01*
X101461932Y-118840516D01*
X101493132Y-118891458D01*
X101533386Y-118957331D01*
X101580957Y-119035289D01*
X101634104Y-119122490D01*
X101663687Y-119171067D01*
X101889648Y-119542215D01*
X101607527Y-119681639D01*
X101505522Y-119731719D01*
X101422889Y-119771210D01*
X101354578Y-119802073D01*
X101295537Y-119826268D01*
X101240714Y-119845758D01*
X101185060Y-119862503D01*
X101123523Y-119878465D01*
X101064540Y-119892482D01*
X101012115Y-119903329D01*
X100957288Y-119911526D01*
X100894572Y-119917528D01*
X100818477Y-119921790D01*
X100723516Y-119924767D01*
X100659513Y-119926052D01*
X100568192Y-119926930D01*
X100480627Y-119926487D01*
X100402612Y-119924852D01*
X100339942Y-119922149D01*
X100298413Y-119918505D01*
X100295952Y-119918142D01*
X100080303Y-119871487D01*
X99877793Y-119800729D01*
X99688495Y-119705914D01*
X99512479Y-119587089D01*
X99349816Y-119444300D01*
X99200578Y-119277594D01*
X99092496Y-119129433D01*
X98977434Y-118935502D01*
X98884423Y-118730699D01*
X98813013Y-118513383D01*
X98762756Y-118281912D01*
X98733201Y-118034643D01*
X98723889Y-117783559D01*
X98731548Y-117540670D01*
X98755613Y-117316570D01*
X98796852Y-117107477D01*
X98856027Y-116909613D01*
X98933904Y-116719196D01*
X98943203Y-116699468D01*
X99045648Y-116515059D01*
X99171472Y-116339576D01*
X99317112Y-116176650D01*
X99479001Y-116029914D01*
X99653576Y-115903001D01*
X99816244Y-115809905D01*
X99980573Y-115736991D01*
X100145251Y-115684174D01*
X100316652Y-115650015D01*
X100501153Y-115633078D01*
X100611459Y-115630580D01*
X100769962Y-115635499D01*
G37*
X100769962Y-115635499D02*
X100918014Y-115651707D01*
X101061452Y-115680718D01*
X101206110Y-115724045D01*
X101357824Y-115783201D01*
X101522428Y-115859700D01*
X101552071Y-115874517D01*
X101620098Y-115908031D01*
X101684256Y-115938208D01*
X101738215Y-115962166D01*
X101775640Y-115977024D01*
X101781389Y-115978895D01*
X101836486Y-115995402D01*
X101589851Y-116354201D01*
X101529552Y-116441893D01*
X101474422Y-116522012D01*
X101426336Y-116591836D01*
X101387168Y-116648647D01*
X101358794Y-116689723D01*
X101343087Y-116712346D01*
X101340536Y-116715928D01*
X101330171Y-116708438D01*
X101304660Y-116685918D01*
X101268563Y-116652461D01*
X101248642Y-116633550D01*
X101135773Y-116543778D01*
X101009014Y-116475561D01*
X100899783Y-116438195D01*
X100834214Y-116426460D01*
X100752116Y-116419308D01*
X100663144Y-116416874D01*
X100576956Y-116419288D01*
X100503205Y-116426683D01*
X100473776Y-116432347D01*
X100341133Y-116477982D01*
X100221606Y-116547663D01*
X100115283Y-116641260D01*
X100022253Y-116758649D01*
X99942605Y-116899700D01*
X99876426Y-117064286D01*
X99823806Y-117252280D01*
X99792533Y-117413217D01*
X99784374Y-117484263D01*
X99778815Y-117576046D01*
X99775802Y-117681968D01*
X99775281Y-117795434D01*
X99777200Y-117909849D01*
X99781503Y-118018617D01*
X99788137Y-118115143D01*
X99797049Y-118192831D01*
X99798979Y-118204817D01*
X99841499Y-118397892D01*
X99899433Y-118568773D01*
X99973133Y-118718224D01*
X100062951Y-118847011D01*
X100126707Y-118916639D01*
X100241286Y-119011173D01*
X100366942Y-119081246D01*
X100501557Y-119126477D01*
X100643011Y-119146484D01*
X100789183Y-119140885D01*
X100937955Y-119109300D01*
X101025911Y-119078394D01*
X101147629Y-119016506D01*
X101273080Y-118927729D01*
X101343353Y-118867694D01*
X101382811Y-118832947D01*
X101413812Y-118807454D01*
X101431458Y-118795170D01*
X101433648Y-118794795D01*
X101441524Y-118807347D01*
X101461932Y-118840516D01*
X101493132Y-118891458D01*
X101533386Y-118957331D01*
X101580957Y-119035289D01*
X101634104Y-119122490D01*
X101663687Y-119171067D01*
X101889648Y-119542215D01*
X101607527Y-119681639D01*
X101505522Y-119731719D01*
X101422889Y-119771210D01*
X101354578Y-119802073D01*
X101295537Y-119826268D01*
X101240714Y-119845758D01*
X101185060Y-119862503D01*
X101123523Y-119878465D01*
X101064540Y-119892482D01*
X101012115Y-119903329D01*
X100957288Y-119911526D01*
X100894572Y-119917528D01*
X100818477Y-119921790D01*
X100723516Y-119924767D01*
X100659513Y-119926052D01*
X100568192Y-119926930D01*
X100480627Y-119926487D01*
X100402612Y-119924852D01*
X100339942Y-119922149D01*
X100298413Y-119918505D01*
X100295952Y-119918142D01*
X100080303Y-119871487D01*
X99877793Y-119800729D01*
X99688495Y-119705914D01*
X99512479Y-119587089D01*
X99349816Y-119444300D01*
X99200578Y-119277594D01*
X99092496Y-119129433D01*
X98977434Y-118935502D01*
X98884423Y-118730699D01*
X98813013Y-118513383D01*
X98762756Y-118281912D01*
X98733201Y-118034643D01*
X98723889Y-117783559D01*
X98731548Y-117540670D01*
X98755613Y-117316570D01*
X98796852Y-117107477D01*
X98856027Y-116909613D01*
X98933904Y-116719196D01*
X98943203Y-116699468D01*
X99045648Y-116515059D01*
X99171472Y-116339576D01*
X99317112Y-116176650D01*
X99479001Y-116029914D01*
X99653576Y-115903001D01*
X99816244Y-115809905D01*
X99980573Y-115736991D01*
X100145251Y-115684174D01*
X100316652Y-115650015D01*
X100501153Y-115633078D01*
X100611459Y-115630580D01*
X100769962Y-115635499D01*
G36*
X103497505Y-116739229D02*
G01*
X103565531Y-116744378D01*
X103760163Y-116770273D01*
X103932529Y-116811575D01*
X104083470Y-116868853D01*
X104213825Y-116942674D01*
X104324434Y-117033608D01*
X104416135Y-117142222D01*
X104489770Y-117269085D01*
X104543539Y-117406352D01*
X104557187Y-117450137D01*
X104569073Y-117491141D01*
X104579334Y-117531569D01*
X104588113Y-117573630D01*
X104595548Y-117619531D01*
X104601780Y-117671480D01*
X104606950Y-117731685D01*
X104611196Y-117802352D01*
X104614660Y-117885689D01*
X104617481Y-117983905D01*
X104619800Y-118099205D01*
X104621757Y-118233799D01*
X104623491Y-118389893D01*
X104625143Y-118569695D01*
X104626324Y-118710676D01*
X104634270Y-119678622D01*
X104685756Y-119771770D01*
X104710137Y-119816645D01*
X104728280Y-119851501D01*
X104736935Y-119870054D01*
X104737243Y-119871311D01*
X104724014Y-119872749D01*
X104686326Y-119874074D01*
X104627183Y-119875249D01*
X104549586Y-119876237D01*
X104456536Y-119876999D01*
X104351035Y-119877500D01*
X104236084Y-119877701D01*
X104222378Y-119877703D01*
X103707513Y-119877703D01*
X103707513Y-119761000D01*
X103706635Y-119708260D01*
X103704292Y-119667926D01*
X103700921Y-119646300D01*
X103699431Y-119644298D01*
X103685804Y-119652683D01*
X103657757Y-119674692D01*
X103621303Y-119705601D01*
X103620485Y-119706316D01*
X103553962Y-119755843D01*
X103469948Y-119805575D01*
X103377937Y-119850626D01*
X103287421Y-119886110D01*
X103247567Y-119898236D01*
X103168255Y-119913637D01*
X103070935Y-119923465D01*
X102964516Y-119927580D01*
X102857907Y-119925841D01*
X102760017Y-119918108D01*
X102691513Y-119906981D01*
X102523520Y-119857648D01*
X102372281Y-119787342D01*
X102238782Y-119696933D01*
X102124006Y-119587295D01*
X102028937Y-119459299D01*
X101954560Y-119313818D01*
X101922474Y-119225541D01*
X101902365Y-119139739D01*
X101889038Y-119036736D01*
X101882872Y-118926034D01*
X101883074Y-118909925D01*
X102811648Y-118909925D01*
X102819348Y-118992184D01*
X102844989Y-119060546D01*
X102892378Y-119123970D01*
X102910579Y-119142567D01*
X102975282Y-119192846D01*
X103050066Y-119225056D01*
X103139662Y-119240648D01*
X103234012Y-119241796D01*
X103323501Y-119234216D01*
X103392018Y-119219389D01*
X103421775Y-119208253D01*
X103475408Y-119177904D01*
X103532235Y-119135221D01*
X103584082Y-119087317D01*
X103622778Y-119041301D01*
X103633054Y-119024421D01*
X103641042Y-119000782D01*
X103646721Y-118963168D01*
X103650356Y-118907985D01*
X103652211Y-118831640D01*
X103652594Y-118758981D01*
X103652335Y-118674270D01*
X103651287Y-118613018D01*
X103649045Y-118571227D01*
X103645206Y-118544899D01*
X103639365Y-118530035D01*
X103631118Y-118522639D01*
X103628567Y-118521461D01*
X103606400Y-118517833D01*
X103562680Y-118514866D01*
X103503311Y-118512827D01*
X103434196Y-118511983D01*
X103419189Y-118511982D01*
X103326805Y-118513457D01*
X103255432Y-118517842D01*
X103198719Y-118525738D01*
X103151872Y-118537270D01*
X103035669Y-118581215D01*
X102944543Y-118635243D01*
X102877705Y-118700219D01*
X102834365Y-118777005D01*
X102813734Y-118866467D01*
X102811648Y-118909925D01*
X101883074Y-118909925D01*
X101884244Y-118817133D01*
X101893532Y-118719536D01*
X101900777Y-118680105D01*
X101947039Y-118533701D01*
X102017384Y-118398995D01*
X102110484Y-118277280D01*
X102225012Y-118169847D01*
X102359640Y-118077988D01*
X102513040Y-118002996D01*
X102643459Y-117957458D01*
X102730623Y-117933533D01*
X102813996Y-117914943D01*
X102898976Y-117901084D01*
X102990965Y-117891351D01*
X103095362Y-117885141D01*
X103217568Y-117881851D01*
X103328055Y-117880924D01*
X103655677Y-117880027D01*
X103649401Y-117781547D01*
X103631579Y-117674695D01*
X103593667Y-117582852D01*
X103537280Y-117508310D01*
X103464031Y-117453364D01*
X103399535Y-117426552D01*
X103307123Y-117409654D01*
X103197111Y-117407227D01*
X103074656Y-117418378D01*
X102944914Y-117442210D01*
X102813042Y-117477830D01*
X102684198Y-117524343D01*
X102590566Y-117566883D01*
X102545517Y-117588728D01*
X102511156Y-117603984D01*
X102493681Y-117609937D01*
X102492733Y-117609746D01*
X102486703Y-117596412D01*
X102471645Y-117561068D01*
X102448977Y-117507101D01*
X102420115Y-117437896D01*
X102386477Y-117356840D01*
X102352284Y-117274118D01*
X102215586Y-116942803D01*
X102312820Y-116926833D01*
X102354964Y-116918820D01*
X102418319Y-116905361D01*
X102497457Y-116887679D01*
X102586951Y-116866996D01*
X102681373Y-116844532D01*
X102718973Y-116835403D01*
X102881637Y-116797674D01*
X103024050Y-116769388D01*
X103151527Y-116749972D01*
X103269384Y-116738854D01*
X103382938Y-116735464D01*
X103497505Y-116739229D01*
G37*
X103497505Y-116739229D02*
X103565531Y-116744378D01*
X103760163Y-116770273D01*
X103932529Y-116811575D01*
X104083470Y-116868853D01*
X104213825Y-116942674D01*
X104324434Y-117033608D01*
X104416135Y-117142222D01*
X104489770Y-117269085D01*
X104543539Y-117406352D01*
X104557187Y-117450137D01*
X104569073Y-117491141D01*
X104579334Y-117531569D01*
X104588113Y-117573630D01*
X104595548Y-117619531D01*
X104601780Y-117671480D01*
X104606950Y-117731685D01*
X104611196Y-117802352D01*
X104614660Y-117885689D01*
X104617481Y-117983905D01*
X104619800Y-118099205D01*
X104621757Y-118233799D01*
X104623491Y-118389893D01*
X104625143Y-118569695D01*
X104626324Y-118710676D01*
X104634270Y-119678622D01*
X104685756Y-119771770D01*
X104710137Y-119816645D01*
X104728280Y-119851501D01*
X104736935Y-119870054D01*
X104737243Y-119871311D01*
X104724014Y-119872749D01*
X104686326Y-119874074D01*
X104627183Y-119875249D01*
X104549586Y-119876237D01*
X104456536Y-119876999D01*
X104351035Y-119877500D01*
X104236084Y-119877701D01*
X104222378Y-119877703D01*
X103707513Y-119877703D01*
X103707513Y-119761000D01*
X103706635Y-119708260D01*
X103704292Y-119667926D01*
X103700921Y-119646300D01*
X103699431Y-119644298D01*
X103685804Y-119652683D01*
X103657757Y-119674692D01*
X103621303Y-119705601D01*
X103620485Y-119706316D01*
X103553962Y-119755843D01*
X103469948Y-119805575D01*
X103377937Y-119850626D01*
X103287421Y-119886110D01*
X103247567Y-119898236D01*
X103168255Y-119913637D01*
X103070935Y-119923465D01*
X102964516Y-119927580D01*
X102857907Y-119925841D01*
X102760017Y-119918108D01*
X102691513Y-119906981D01*
X102523520Y-119857648D01*
X102372281Y-119787342D01*
X102238782Y-119696933D01*
X102124006Y-119587295D01*
X102028937Y-119459299D01*
X101954560Y-119313818D01*
X101922474Y-119225541D01*
X101902365Y-119139739D01*
X101889038Y-119036736D01*
X101882872Y-118926034D01*
X101883074Y-118909925D01*
X102811648Y-118909925D01*
X102819348Y-118992184D01*
X102844989Y-119060546D01*
X102892378Y-119123970D01*
X102910579Y-119142567D01*
X102975282Y-119192846D01*
X103050066Y-119225056D01*
X103139662Y-119240648D01*
X103234012Y-119241796D01*
X103323501Y-119234216D01*
X103392018Y-119219389D01*
X103421775Y-119208253D01*
X103475408Y-119177904D01*
X103532235Y-119135221D01*
X103584082Y-119087317D01*
X103622778Y-119041301D01*
X103633054Y-119024421D01*
X103641042Y-119000782D01*
X103646721Y-118963168D01*
X103650356Y-118907985D01*
X103652211Y-118831640D01*
X103652594Y-118758981D01*
X103652335Y-118674270D01*
X103651287Y-118613018D01*
X103649045Y-118571227D01*
X103645206Y-118544899D01*
X103639365Y-118530035D01*
X103631118Y-118522639D01*
X103628567Y-118521461D01*
X103606400Y-118517833D01*
X103562680Y-118514866D01*
X103503311Y-118512827D01*
X103434196Y-118511983D01*
X103419189Y-118511982D01*
X103326805Y-118513457D01*
X103255432Y-118517842D01*
X103198719Y-118525738D01*
X103151872Y-118537270D01*
X103035669Y-118581215D01*
X102944543Y-118635243D01*
X102877705Y-118700219D01*
X102834365Y-118777005D01*
X102813734Y-118866467D01*
X102811648Y-118909925D01*
X101883074Y-118909925D01*
X101884244Y-118817133D01*
X101893532Y-118719536D01*
X101900777Y-118680105D01*
X101947039Y-118533701D01*
X102017384Y-118398995D01*
X102110484Y-118277280D01*
X102225012Y-118169847D01*
X102359640Y-118077988D01*
X102513040Y-118002996D01*
X102643459Y-117957458D01*
X102730623Y-117933533D01*
X102813996Y-117914943D01*
X102898976Y-117901084D01*
X102990965Y-117891351D01*
X103095362Y-117885141D01*
X103217568Y-117881851D01*
X103328055Y-117880924D01*
X103655677Y-117880027D01*
X103649401Y-117781547D01*
X103631579Y-117674695D01*
X103593667Y-117582852D01*
X103537280Y-117508310D01*
X103464031Y-117453364D01*
X103399535Y-117426552D01*
X103307123Y-117409654D01*
X103197111Y-117407227D01*
X103074656Y-117418378D01*
X102944914Y-117442210D01*
X102813042Y-117477830D01*
X102684198Y-117524343D01*
X102590566Y-117566883D01*
X102545517Y-117588728D01*
X102511156Y-117603984D01*
X102493681Y-117609937D01*
X102492733Y-117609746D01*
X102486703Y-117596412D01*
X102471645Y-117561068D01*
X102448977Y-117507101D01*
X102420115Y-117437896D01*
X102386477Y-117356840D01*
X102352284Y-117274118D01*
X102215586Y-116942803D01*
X102312820Y-116926833D01*
X102354964Y-116918820D01*
X102418319Y-116905361D01*
X102497457Y-116887679D01*
X102586951Y-116866996D01*
X102681373Y-116844532D01*
X102718973Y-116835403D01*
X102881637Y-116797674D01*
X103024050Y-116769388D01*
X103151527Y-116749972D01*
X103269384Y-116738854D01*
X103382938Y-116735464D01*
X103497505Y-116739229D01*
G36*
X107172270Y-115431825D02*
G01*
X107289041Y-115432304D01*
X107328729Y-115432545D01*
X107874486Y-115436135D01*
X107881351Y-117529919D01*
X107882258Y-117813842D01*
X107883062Y-118071640D01*
X107883815Y-118304646D01*
X107884569Y-118514194D01*
X107885375Y-118701618D01*
X107886285Y-118868250D01*
X107887351Y-119015425D01*
X107888624Y-119144477D01*
X107890156Y-119256739D01*
X107891998Y-119353544D01*
X107894203Y-119436226D01*
X107896822Y-119506119D01*
X107899906Y-119564557D01*
X107903508Y-119612872D01*
X107907678Y-119652400D01*
X107912469Y-119684473D01*
X107917931Y-119710424D01*
X107924118Y-119731589D01*
X107931080Y-119749299D01*
X107938869Y-119764889D01*
X107947537Y-119779693D01*
X107957135Y-119795044D01*
X107967715Y-119812276D01*
X107969884Y-119815946D01*
X108006268Y-119878031D01*
X107480431Y-119874434D01*
X106954594Y-119870838D01*
X106947729Y-119755331D01*
X106943992Y-119699899D01*
X106940097Y-119667851D01*
X106934811Y-119655135D01*
X106926903Y-119657696D01*
X106920270Y-119665024D01*
X106891374Y-119691714D01*
X106844279Y-119726021D01*
X106785620Y-119763846D01*
X106722031Y-119801090D01*
X106660149Y-119833653D01*
X106612634Y-119855077D01*
X106501316Y-119890283D01*
X106373596Y-119915222D01*
X106238901Y-119928941D01*
X106106663Y-119930486D01*
X105986308Y-119918906D01*
X105984326Y-119918574D01*
X105819641Y-119877250D01*
X105665479Y-119811412D01*
X105523328Y-119722474D01*
X105394675Y-119611852D01*
X105281007Y-119480961D01*
X105183810Y-119331216D01*
X105104572Y-119164033D01*
X105061430Y-119040190D01*
X105032979Y-118936581D01*
X105011880Y-118836252D01*
X104997488Y-118733109D01*
X104989158Y-118621057D01*
X104986245Y-118494001D01*
X104987535Y-118390252D01*
X106000650Y-118390252D01*
X106005444Y-118564222D01*
X106020568Y-118713895D01*
X106046485Y-118840597D01*
X106083663Y-118945658D01*
X106132565Y-119030406D01*
X106193658Y-119096169D01*
X106264177Y-119142659D01*
X106300871Y-119160014D01*
X106332696Y-119170419D01*
X106368177Y-119175179D01*
X106415841Y-119175601D01*
X106467189Y-119173748D01*
X106568169Y-119164841D01*
X106648035Y-119147398D01*
X106673135Y-119138661D01*
X106730448Y-119112857D01*
X106790897Y-119080453D01*
X106817297Y-119064233D01*
X106885946Y-119019205D01*
X106885946Y-117591982D01*
X106810432Y-117546718D01*
X106705121Y-117495572D01*
X106597525Y-117465324D01*
X106491581Y-117455795D01*
X106391224Y-117466807D01*
X106300387Y-117498181D01*
X106223007Y-117549740D01*
X106198039Y-117574488D01*
X106137856Y-117655577D01*
X106089145Y-117753734D01*
X106051499Y-117870643D01*
X106024512Y-118007985D01*
X106007775Y-118167444D01*
X106000883Y-118350700D01*
X106000650Y-118390252D01*
X104987535Y-118390252D01*
X104988073Y-118347067D01*
X104999647Y-118121053D01*
X105022920Y-117917192D01*
X105058504Y-117732513D01*
X105107013Y-117564048D01*
X105169060Y-117408826D01*
X105191201Y-117362808D01*
X105280385Y-117212739D01*
X105388159Y-117079377D01*
X105511990Y-116964877D01*
X105649342Y-116871389D01*
X105797683Y-116801068D01*
X105886604Y-116772060D01*
X105973933Y-116754840D01*
X106079011Y-116744594D01*
X106193029Y-116741318D01*
X106307177Y-116745009D01*
X106412648Y-116755660D01*
X106497334Y-116772370D01*
X106598128Y-116805140D01*
X106695822Y-116847279D01*
X106781296Y-116894519D01*
X106826789Y-116926581D01*
X106858169Y-116950422D01*
X106880142Y-116964939D01*
X106885141Y-116967000D01*
X106886690Y-116953718D01*
X106888135Y-116915663D01*
X106889443Y-116855519D01*
X106890583Y-116775973D01*
X106891521Y-116679711D01*
X106892226Y-116569419D01*
X106892667Y-116447781D01*
X106892811Y-116323885D01*
X106892730Y-116165196D01*
X106892335Y-116031408D01*
X106891395Y-115919960D01*
X106889680Y-115828295D01*
X106886957Y-115753853D01*
X106882997Y-115694075D01*
X106877569Y-115646402D01*
X106870441Y-115608274D01*
X106861384Y-115577134D01*
X106850167Y-115550421D01*
X106836558Y-115525577D01*
X106820328Y-115500043D01*
X106818240Y-115496881D01*
X106797306Y-115463810D01*
X106784667Y-115441069D01*
X106782973Y-115436272D01*
X106796216Y-115434759D01*
X106834002Y-115433528D01*
X106893416Y-115432599D01*
X106971542Y-115431992D01*
X107065465Y-115431727D01*
X107172270Y-115431825D01*
G37*
X107172270Y-115431825D02*
X107289041Y-115432304D01*
X107328729Y-115432545D01*
X107874486Y-115436135D01*
X107881351Y-117529919D01*
X107882258Y-117813842D01*
X107883062Y-118071640D01*
X107883815Y-118304646D01*
X107884569Y-118514194D01*
X107885375Y-118701618D01*
X107886285Y-118868250D01*
X107887351Y-119015425D01*
X107888624Y-119144477D01*
X107890156Y-119256739D01*
X107891998Y-119353544D01*
X107894203Y-119436226D01*
X107896822Y-119506119D01*
X107899906Y-119564557D01*
X107903508Y-119612872D01*
X107907678Y-119652400D01*
X107912469Y-119684473D01*
X107917931Y-119710424D01*
X107924118Y-119731589D01*
X107931080Y-119749299D01*
X107938869Y-119764889D01*
X107947537Y-119779693D01*
X107957135Y-119795044D01*
X107967715Y-119812276D01*
X107969884Y-119815946D01*
X108006268Y-119878031D01*
X107480431Y-119874434D01*
X106954594Y-119870838D01*
X106947729Y-119755331D01*
X106943992Y-119699899D01*
X106940097Y-119667851D01*
X106934811Y-119655135D01*
X106926903Y-119657696D01*
X106920270Y-119665024D01*
X106891374Y-119691714D01*
X106844279Y-119726021D01*
X106785620Y-119763846D01*
X106722031Y-119801090D01*
X106660149Y-119833653D01*
X106612634Y-119855077D01*
X106501316Y-119890283D01*
X106373596Y-119915222D01*
X106238901Y-119928941D01*
X106106663Y-119930486D01*
X105986308Y-119918906D01*
X105984326Y-119918574D01*
X105819641Y-119877250D01*
X105665479Y-119811412D01*
X105523328Y-119722474D01*
X105394675Y-119611852D01*
X105281007Y-119480961D01*
X105183810Y-119331216D01*
X105104572Y-119164033D01*
X105061430Y-119040190D01*
X105032979Y-118936581D01*
X105011880Y-118836252D01*
X104997488Y-118733109D01*
X104989158Y-118621057D01*
X104986245Y-118494001D01*
X104987535Y-118390252D01*
X106000650Y-118390252D01*
X106005444Y-118564222D01*
X106020568Y-118713895D01*
X106046485Y-118840597D01*
X106083663Y-118945658D01*
X106132565Y-119030406D01*
X106193658Y-119096169D01*
X106264177Y-119142659D01*
X106300871Y-119160014D01*
X106332696Y-119170419D01*
X106368177Y-119175179D01*
X106415841Y-119175601D01*
X106467189Y-119173748D01*
X106568169Y-119164841D01*
X106648035Y-119147398D01*
X106673135Y-119138661D01*
X106730448Y-119112857D01*
X106790897Y-119080453D01*
X106817297Y-119064233D01*
X106885946Y-119019205D01*
X106885946Y-117591982D01*
X106810432Y-117546718D01*
X106705121Y-117495572D01*
X106597525Y-117465324D01*
X106491581Y-117455795D01*
X106391224Y-117466807D01*
X106300387Y-117498181D01*
X106223007Y-117549740D01*
X106198039Y-117574488D01*
X106137856Y-117655577D01*
X106089145Y-117753734D01*
X106051499Y-117870643D01*
X106024512Y-118007985D01*
X106007775Y-118167444D01*
X106000883Y-118350700D01*
X106000650Y-118390252D01*
X104987535Y-118390252D01*
X104988073Y-118347067D01*
X104999647Y-118121053D01*
X105022920Y-117917192D01*
X105058504Y-117732513D01*
X105107013Y-117564048D01*
X105169060Y-117408826D01*
X105191201Y-117362808D01*
X105280385Y-117212739D01*
X105388159Y-117079377D01*
X105511990Y-116964877D01*
X105649342Y-116871389D01*
X105797683Y-116801068D01*
X105886604Y-116772060D01*
X105973933Y-116754840D01*
X106079011Y-116744594D01*
X106193029Y-116741318D01*
X106307177Y-116745009D01*
X106412648Y-116755660D01*
X106497334Y-116772370D01*
X106598128Y-116805140D01*
X106695822Y-116847279D01*
X106781296Y-116894519D01*
X106826789Y-116926581D01*
X106858169Y-116950422D01*
X106880142Y-116964939D01*
X106885141Y-116967000D01*
X106886690Y-116953718D01*
X106888135Y-116915663D01*
X106889443Y-116855519D01*
X106890583Y-116775973D01*
X106891521Y-116679711D01*
X106892226Y-116569419D01*
X106892667Y-116447781D01*
X106892811Y-116323885D01*
X106892730Y-116165196D01*
X106892335Y-116031408D01*
X106891395Y-115919960D01*
X106889680Y-115828295D01*
X106886957Y-115753853D01*
X106882997Y-115694075D01*
X106877569Y-115646402D01*
X106870441Y-115608274D01*
X106861384Y-115577134D01*
X106850167Y-115550421D01*
X106836558Y-115525577D01*
X106820328Y-115500043D01*
X106818240Y-115496881D01*
X106797306Y-115463810D01*
X106784667Y-115441069D01*
X106782973Y-115436272D01*
X106796216Y-115434759D01*
X106834002Y-115433528D01*
X106893416Y-115432599D01*
X106971542Y-115431992D01*
X107065465Y-115431727D01*
X107172270Y-115431825D01*
G36*
X97603921Y-114511490D02*
G01*
X97707027Y-114547238D01*
X97803022Y-114603507D01*
X97888753Y-114680288D01*
X97961070Y-114777573D01*
X97993555Y-114838892D01*
X98021668Y-114924660D01*
X98035295Y-115023677D01*
X98033786Y-115125471D01*
X98017031Y-115217714D01*
X97971237Y-115330432D01*
X97904832Y-115428207D01*
X97821191Y-115509115D01*
X97723688Y-115571232D01*
X97615700Y-115612634D01*
X97500601Y-115631397D01*
X97381766Y-115625598D01*
X97323189Y-115613206D01*
X97209028Y-115568797D01*
X97107635Y-115501033D01*
X97021455Y-115412001D01*
X96952934Y-115303791D01*
X96947136Y-115291973D01*
X96927096Y-115247628D01*
X96914513Y-115210280D01*
X96907681Y-115170880D01*
X96904895Y-115120381D01*
X96904432Y-115065433D01*
X96905197Y-114999415D01*
X96908648Y-114951689D01*
X96916523Y-114913103D01*
X96930557Y-114874506D01*
X96947880Y-114836426D01*
X97012495Y-114728328D01*
X97092066Y-114640803D01*
X97183440Y-114573841D01*
X97283464Y-114527436D01*
X97388988Y-114501581D01*
X97496858Y-114496268D01*
X97603921Y-114511490D01*
G37*
X97603921Y-114511490D02*
X97707027Y-114547238D01*
X97803022Y-114603507D01*
X97888753Y-114680288D01*
X97961070Y-114777573D01*
X97993555Y-114838892D01*
X98021668Y-114924660D01*
X98035295Y-115023677D01*
X98033786Y-115125471D01*
X98017031Y-115217714D01*
X97971237Y-115330432D01*
X97904832Y-115428207D01*
X97821191Y-115509115D01*
X97723688Y-115571232D01*
X97615700Y-115612634D01*
X97500601Y-115631397D01*
X97381766Y-115625598D01*
X97323189Y-115613206D01*
X97209028Y-115568797D01*
X97107635Y-115501033D01*
X97021455Y-115412001D01*
X96952934Y-115303791D01*
X96947136Y-115291973D01*
X96927096Y-115247628D01*
X96914513Y-115210280D01*
X96907681Y-115170880D01*
X96904895Y-115120381D01*
X96904432Y-115065433D01*
X96905197Y-114999415D01*
X96908648Y-114951689D01*
X96916523Y-114913103D01*
X96930557Y-114874506D01*
X96947880Y-114836426D01*
X97012495Y-114728328D01*
X97092066Y-114640803D01*
X97183440Y-114573841D01*
X97283464Y-114527436D01*
X97388988Y-114501581D01*
X97496858Y-114496268D01*
X97603921Y-114511490D01*
G36*
X106570531Y-121115725D02*
G01*
X106601910Y-121137968D01*
X106629619Y-121165677D01*
X106629619Y-121475112D01*
X106629546Y-121566991D01*
X106629203Y-121639032D01*
X106628400Y-121693972D01*
X106626949Y-121734552D01*
X106624660Y-121763509D01*
X106621344Y-121783583D01*
X106616813Y-121797513D01*
X106610877Y-121808037D01*
X106606222Y-121814292D01*
X106575491Y-121838865D01*
X106540204Y-121841533D01*
X106507953Y-121826463D01*
X106497296Y-121817566D01*
X106490172Y-121805749D01*
X106485875Y-121786718D01*
X106483699Y-121756184D01*
X106482936Y-121709854D01*
X106482863Y-121674063D01*
X106482863Y-121539237D01*
X105986152Y-121539237D01*
X105986152Y-121661892D01*
X105985639Y-121717979D01*
X105983584Y-121756525D01*
X105979216Y-121782553D01*
X105971764Y-121801089D01*
X105962755Y-121814292D01*
X105931852Y-121838796D01*
X105896904Y-121841698D01*
X105863446Y-121824281D01*
X105854312Y-121815151D01*
X105847860Y-121803047D01*
X105843605Y-121784193D01*
X105841060Y-121754812D01*
X105839737Y-121711129D01*
X105839151Y-121649367D01*
X105839083Y-121635192D01*
X105838599Y-121518823D01*
X105838349Y-121422919D01*
X105838431Y-121345369D01*
X105838939Y-121284061D01*
X105839970Y-121236882D01*
X105841621Y-121201722D01*
X105843987Y-121176468D01*
X105847165Y-121159009D01*
X105851252Y-121147233D01*
X105856342Y-121139027D01*
X105861974Y-121132837D01*
X105893836Y-121113036D01*
X105927065Y-121115725D01*
X105958443Y-121137968D01*
X105971141Y-121152318D01*
X105979234Y-121168170D01*
X105983750Y-121190746D01*
X105985714Y-121225270D01*
X105986152Y-121276968D01*
X105986152Y-121392481D01*
X106482863Y-121392481D01*
X106482863Y-121273948D01*
X106483370Y-121219340D01*
X106485406Y-121182467D01*
X106489743Y-121158499D01*
X106497155Y-121142607D01*
X106505441Y-121132837D01*
X106537302Y-121113036D01*
X106570531Y-121115725D01*
G37*
X106570531Y-121115725D02*
X106601910Y-121137968D01*
X106629619Y-121165677D01*
X106629619Y-121475112D01*
X106629546Y-121566991D01*
X106629203Y-121639032D01*
X106628400Y-121693972D01*
X106626949Y-121734552D01*
X106624660Y-121763509D01*
X106621344Y-121783583D01*
X106616813Y-121797513D01*
X106610877Y-121808037D01*
X106606222Y-121814292D01*
X106575491Y-121838865D01*
X106540204Y-121841533D01*
X106507953Y-121826463D01*
X106497296Y-121817566D01*
X106490172Y-121805749D01*
X106485875Y-121786718D01*
X106483699Y-121756184D01*
X106482936Y-121709854D01*
X106482863Y-121674063D01*
X106482863Y-121539237D01*
X105986152Y-121539237D01*
X105986152Y-121661892D01*
X105985639Y-121717979D01*
X105983584Y-121756525D01*
X105979216Y-121782553D01*
X105971764Y-121801089D01*
X105962755Y-121814292D01*
X105931852Y-121838796D01*
X105896904Y-121841698D01*
X105863446Y-121824281D01*
X105854312Y-121815151D01*
X105847860Y-121803047D01*
X105843605Y-121784193D01*
X105841060Y-121754812D01*
X105839737Y-121711129D01*
X105839151Y-121649367D01*
X105839083Y-121635192D01*
X105838599Y-121518823D01*
X105838349Y-121422919D01*
X105838431Y-121345369D01*
X105838939Y-121284061D01*
X105839970Y-121236882D01*
X105841621Y-121201722D01*
X105843987Y-121176468D01*
X105847165Y-121159009D01*
X105851252Y-121147233D01*
X105856342Y-121139027D01*
X105861974Y-121132837D01*
X105893836Y-121113036D01*
X105927065Y-121115725D01*
X105958443Y-121137968D01*
X105971141Y-121152318D01*
X105979234Y-121168170D01*
X105983750Y-121190746D01*
X105985714Y-121225270D01*
X105986152Y-121276968D01*
X105986152Y-121392481D01*
X106482863Y-121392481D01*
X106482863Y-121273948D01*
X106483370Y-121219340D01*
X106485406Y-121182467D01*
X106489743Y-121158499D01*
X106497155Y-121142607D01*
X106505441Y-121132837D01*
X106537302Y-121113036D01*
X106570531Y-121115725D01*
G36*
X105304773Y-121110355D02*
G01*
X105383480Y-121110734D01*
X105444571Y-121111525D01*
X105490525Y-121112862D01*
X105523822Y-121114875D01*
X105546944Y-121117698D01*
X105562370Y-121121461D01*
X105572579Y-121126297D01*
X105577521Y-121130014D01*
X105603165Y-121162550D01*
X105606267Y-121196330D01*
X105590419Y-121227018D01*
X105580056Y-121239281D01*
X105568904Y-121247642D01*
X105552743Y-121252849D01*
X105527350Y-121255649D01*
X105488506Y-121256788D01*
X105431988Y-121257013D01*
X105420888Y-121257014D01*
X105274952Y-121257014D01*
X105274952Y-121527948D01*
X105274856Y-121613346D01*
X105274419Y-121679056D01*
X105273420Y-121727966D01*
X105271636Y-121762965D01*
X105268845Y-121786941D01*
X105264825Y-121802785D01*
X105259353Y-121813383D01*
X105252374Y-121821459D01*
X105219442Y-121841304D01*
X105185062Y-121839740D01*
X105153884Y-121817098D01*
X105151594Y-121814292D01*
X105144137Y-121803684D01*
X105138455Y-121791273D01*
X105134309Y-121774042D01*
X105131458Y-121748976D01*
X105129662Y-121713059D01*
X105128680Y-121663275D01*
X105128272Y-121596609D01*
X105128197Y-121520781D01*
X105128197Y-121257014D01*
X104988835Y-121257014D01*
X104929030Y-121256610D01*
X104887626Y-121255032D01*
X104860456Y-121251739D01*
X104843354Y-121246184D01*
X104832151Y-121237823D01*
X104830791Y-121236370D01*
X104814433Y-121203131D01*
X104815880Y-121165554D01*
X104834686Y-121132837D01*
X104841958Y-121126490D01*
X104851335Y-121121458D01*
X104865317Y-121117588D01*
X104886404Y-121114729D01*
X104917097Y-121112727D01*
X104959897Y-121111431D01*
X105017303Y-121110690D01*
X105091818Y-121110350D01*
X105185941Y-121110260D01*
X105205968Y-121110259D01*
X105304773Y-121110355D01*
G37*
X105304773Y-121110355D02*
X105383480Y-121110734D01*
X105444571Y-121111525D01*
X105490525Y-121112862D01*
X105523822Y-121114875D01*
X105546944Y-121117698D01*
X105562370Y-121121461D01*
X105572579Y-121126297D01*
X105577521Y-121130014D01*
X105603165Y-121162550D01*
X105606267Y-121196330D01*
X105590419Y-121227018D01*
X105580056Y-121239281D01*
X105568904Y-121247642D01*
X105552743Y-121252849D01*
X105527350Y-121255649D01*
X105488506Y-121256788D01*
X105431988Y-121257013D01*
X105420888Y-121257014D01*
X105274952Y-121257014D01*
X105274952Y-121527948D01*
X105274856Y-121613346D01*
X105274419Y-121679056D01*
X105273420Y-121727966D01*
X105271636Y-121762965D01*
X105268845Y-121786941D01*
X105264825Y-121802785D01*
X105259353Y-121813383D01*
X105252374Y-121821459D01*
X105219442Y-121841304D01*
X105185062Y-121839740D01*
X105153884Y-121817098D01*
X105151594Y-121814292D01*
X105144137Y-121803684D01*
X105138455Y-121791273D01*
X105134309Y-121774042D01*
X105131458Y-121748976D01*
X105129662Y-121713059D01*
X105128680Y-121663275D01*
X105128272Y-121596609D01*
X105128197Y-121520781D01*
X105128197Y-121257014D01*
X104988835Y-121257014D01*
X104929030Y-121256610D01*
X104887626Y-121255032D01*
X104860456Y-121251739D01*
X104843354Y-121246184D01*
X104832151Y-121237823D01*
X104830791Y-121236370D01*
X104814433Y-121203131D01*
X104815880Y-121165554D01*
X104834686Y-121132837D01*
X104841958Y-121126490D01*
X104851335Y-121121458D01*
X104865317Y-121117588D01*
X104886404Y-121114729D01*
X104917097Y-121112727D01*
X104959897Y-121111431D01*
X105017303Y-121110690D01*
X105091818Y-121110350D01*
X105185941Y-121110260D01*
X105205968Y-121110259D01*
X105304773Y-121110355D01*
G36*
X104530322Y-121117069D02*
G01*
X104554035Y-121131839D01*
X104580686Y-121153419D01*
X104580686Y-121474965D01*
X104580601Y-121569022D01*
X104580237Y-121643124D01*
X104579432Y-121699896D01*
X104578021Y-121741960D01*
X104575841Y-121771940D01*
X104572729Y-121792459D01*
X104568522Y-121806141D01*
X104563056Y-121815608D01*
X104559180Y-121820274D01*
X104527742Y-121840767D01*
X104491941Y-121839931D01*
X104460581Y-121822456D01*
X104433930Y-121800876D01*
X104433930Y-121153419D01*
X104460581Y-121131839D01*
X104486302Y-121116141D01*
X104507308Y-121110259D01*
X104530322Y-121117069D01*
G37*
X104530322Y-121117069D02*
X104554035Y-121131839D01*
X104580686Y-121153419D01*
X104580686Y-121474965D01*
X104580601Y-121569022D01*
X104580237Y-121643124D01*
X104579432Y-121699896D01*
X104578021Y-121741960D01*
X104575841Y-121771940D01*
X104572729Y-121792459D01*
X104568522Y-121806141D01*
X104563056Y-121815608D01*
X104559180Y-121820274D01*
X104527742Y-121840767D01*
X104491941Y-121839931D01*
X104460581Y-121822456D01*
X104433930Y-121800876D01*
X104433930Y-121153419D01*
X104460581Y-121131839D01*
X104486302Y-121116141D01*
X104507308Y-121110259D01*
X104530322Y-121117069D01*
G36*
X104086373Y-121112226D02*
G01*
X104105963Y-121119227D01*
X104106718Y-121119569D01*
X104133321Y-121139870D01*
X104147978Y-121160753D01*
X104150846Y-121170544D01*
X104150704Y-121183553D01*
X104146669Y-121202087D01*
X104137854Y-121228449D01*
X104123377Y-121264944D01*
X104102353Y-121313879D01*
X104073896Y-121377557D01*
X104037123Y-121458285D01*
X104016883Y-121502408D01*
X103980333Y-121581177D01*
X103946023Y-121653615D01*
X103915260Y-121717072D01*
X103889356Y-121768900D01*
X103869618Y-121806451D01*
X103857358Y-121827076D01*
X103854932Y-121829925D01*
X103823891Y-121842494D01*
X103788829Y-121840811D01*
X103760708Y-121825524D01*
X103759562Y-121824281D01*
X103748376Y-121807346D01*
X103729612Y-121774362D01*
X103705583Y-121729572D01*
X103678605Y-121677224D01*
X103668909Y-121657934D01*
X103595722Y-121511342D01*
X103515948Y-121670585D01*
X103487475Y-121725607D01*
X103461058Y-121773324D01*
X103438856Y-121810085D01*
X103423027Y-121832236D01*
X103417662Y-121836933D01*
X103375965Y-121843294D01*
X103341557Y-121829925D01*
X103331436Y-121815638D01*
X103313922Y-121783884D01*
X103290443Y-121737789D01*
X103262428Y-121680477D01*
X103231307Y-121615072D01*
X103198507Y-121544699D01*
X103165458Y-121472483D01*
X103133589Y-121401547D01*
X103104327Y-121335017D01*
X103079103Y-121276018D01*
X103059344Y-121227673D01*
X103046480Y-121193107D01*
X103041939Y-121175445D01*
X103041985Y-121174805D01*
X103053034Y-121152580D01*
X103075118Y-121129945D01*
X103076418Y-121128960D01*
X103103561Y-121113617D01*
X103128666Y-121113766D01*
X103138076Y-121116658D01*
X103149542Y-121122910D01*
X103161718Y-121135206D01*
X103176065Y-121156100D01*
X103194044Y-121188141D01*
X103217115Y-121233880D01*
X103246738Y-121295869D01*
X103273453Y-121353090D01*
X103304188Y-121419418D01*
X103331729Y-121479066D01*
X103354646Y-121528917D01*
X103371506Y-121565856D01*
X103380881Y-121586765D01*
X103382248Y-121590037D01*
X103388397Y-121584689D01*
X103402530Y-121562301D01*
X103422765Y-121526138D01*
X103447223Y-121479469D01*
X103456956Y-121460214D01*
X103489925Y-121395196D01*
X103515351Y-121347846D01*
X103535320Y-121315411D01*
X103551918Y-121295138D01*
X103567232Y-121284274D01*
X103583348Y-121280067D01*
X103593851Y-121279592D01*
X103612378Y-121281234D01*
X103628612Y-121288023D01*
X103644743Y-121302758D01*
X103662959Y-121328236D01*
X103685447Y-121367253D01*
X103714397Y-121422606D01*
X103730370Y-121454095D01*
X103756278Y-121504279D01*
X103778875Y-121545896D01*
X103796166Y-121575434D01*
X103806158Y-121589381D01*
X103807517Y-121589962D01*
X103813969Y-121578985D01*
X103828416Y-121550482D01*
X103849411Y-121507436D01*
X103875505Y-121452830D01*
X103905254Y-121389646D01*
X103919888Y-121358263D01*
X103957958Y-121277270D01*
X103988613Y-121214948D01*
X104013445Y-121169263D01*
X104034045Y-121138181D01*
X104052006Y-121119670D01*
X104068918Y-121111696D01*
X104086373Y-121112226D01*
G37*
X104086373Y-121112226D02*
X104105963Y-121119227D01*
X104106718Y-121119569D01*
X104133321Y-121139870D01*
X104147978Y-121160753D01*
X104150846Y-121170544D01*
X104150704Y-121183553D01*
X104146669Y-121202087D01*
X104137854Y-121228449D01*
X104123377Y-121264944D01*
X104102353Y-121313879D01*
X104073896Y-121377557D01*
X104037123Y-121458285D01*
X104016883Y-121502408D01*
X103980333Y-121581177D01*
X103946023Y-121653615D01*
X103915260Y-121717072D01*
X103889356Y-121768900D01*
X103869618Y-121806451D01*
X103857358Y-121827076D01*
X103854932Y-121829925D01*
X103823891Y-121842494D01*
X103788829Y-121840811D01*
X103760708Y-121825524D01*
X103759562Y-121824281D01*
X103748376Y-121807346D01*
X103729612Y-121774362D01*
X103705583Y-121729572D01*
X103678605Y-121677224D01*
X103668909Y-121657934D01*
X103595722Y-121511342D01*
X103515948Y-121670585D01*
X103487475Y-121725607D01*
X103461058Y-121773324D01*
X103438856Y-121810085D01*
X103423027Y-121832236D01*
X103417662Y-121836933D01*
X103375965Y-121843294D01*
X103341557Y-121829925D01*
X103331436Y-121815638D01*
X103313922Y-121783884D01*
X103290443Y-121737789D01*
X103262428Y-121680477D01*
X103231307Y-121615072D01*
X103198507Y-121544699D01*
X103165458Y-121472483D01*
X103133589Y-121401547D01*
X103104327Y-121335017D01*
X103079103Y-121276018D01*
X103059344Y-121227673D01*
X103046480Y-121193107D01*
X103041939Y-121175445D01*
X103041985Y-121174805D01*
X103053034Y-121152580D01*
X103075118Y-121129945D01*
X103076418Y-121128960D01*
X103103561Y-121113617D01*
X103128666Y-121113766D01*
X103138076Y-121116658D01*
X103149542Y-121122910D01*
X103161718Y-121135206D01*
X103176065Y-121156100D01*
X103194044Y-121188141D01*
X103217115Y-121233880D01*
X103246738Y-121295869D01*
X103273453Y-121353090D01*
X103304188Y-121419418D01*
X103331729Y-121479066D01*
X103354646Y-121528917D01*
X103371506Y-121565856D01*
X103380881Y-121586765D01*
X103382248Y-121590037D01*
X103388397Y-121584689D01*
X103402530Y-121562301D01*
X103422765Y-121526138D01*
X103447223Y-121479469D01*
X103456956Y-121460214D01*
X103489925Y-121395196D01*
X103515351Y-121347846D01*
X103535320Y-121315411D01*
X103551918Y-121295138D01*
X103567232Y-121284274D01*
X103583348Y-121280067D01*
X103593851Y-121279592D01*
X103612378Y-121281234D01*
X103628612Y-121288023D01*
X103644743Y-121302758D01*
X103662959Y-121328236D01*
X103685447Y-121367253D01*
X103714397Y-121422606D01*
X103730370Y-121454095D01*
X103756278Y-121504279D01*
X103778875Y-121545896D01*
X103796166Y-121575434D01*
X103806158Y-121589381D01*
X103807517Y-121589962D01*
X103813969Y-121578985D01*
X103828416Y-121550482D01*
X103849411Y-121507436D01*
X103875505Y-121452830D01*
X103905254Y-121389646D01*
X103919888Y-121358263D01*
X103957958Y-121277270D01*
X103988613Y-121214948D01*
X104013445Y-121169263D01*
X104034045Y-121138181D01*
X104052006Y-121119670D01*
X104068918Y-121111696D01*
X104086373Y-121112226D01*
G36*
X101360017Y-121110467D02*
G01*
X101488996Y-121114828D01*
X101598699Y-121128053D01*
X101690934Y-121150933D01*
X101767510Y-121184262D01*
X101830235Y-121228830D01*
X101880920Y-121285428D01*
X101921371Y-121354850D01*
X101922167Y-121356543D01*
X101946309Y-121418675D01*
X101954911Y-121473701D01*
X101947939Y-121529079D01*
X101925362Y-121592265D01*
X101921080Y-121601881D01*
X101891880Y-121658158D01*
X101859064Y-121701643D01*
X101816710Y-121738609D01*
X101758898Y-121775327D01*
X101755539Y-121777244D01*
X101705212Y-121801419D01*
X101648329Y-121819474D01*
X101581235Y-121832031D01*
X101500273Y-121839714D01*
X101401790Y-121843145D01*
X101366994Y-121843443D01*
X101201302Y-121844037D01*
X101177905Y-121814292D01*
X101170965Y-121804511D01*
X101165550Y-121793089D01*
X101161473Y-121777287D01*
X101158545Y-121754367D01*
X101156575Y-121721588D01*
X101155933Y-121697281D01*
X101312552Y-121697281D01*
X101406434Y-121697281D01*
X101461372Y-121695675D01*
X101517768Y-121691447D01*
X101564053Y-121685484D01*
X101566847Y-121684982D01*
X101649056Y-121662928D01*
X101712822Y-121629792D01*
X101760160Y-121584039D01*
X101793090Y-121524131D01*
X101798816Y-121508253D01*
X101804429Y-121483525D01*
X101801999Y-121459094D01*
X101790175Y-121426592D01*
X101783048Y-121410626D01*
X101759708Y-121368198D01*
X101731588Y-121338432D01*
X101700648Y-121317703D01*
X101638674Y-121290729D01*
X101559359Y-121271190D01*
X101466961Y-121259938D01*
X101400041Y-121257462D01*
X101312552Y-121257014D01*
X101312552Y-121697281D01*
X101155933Y-121697281D01*
X101155376Y-121676213D01*
X101154758Y-121615503D01*
X101154533Y-121536718D01*
X101154508Y-121475112D01*
X101154508Y-121165677D01*
X101182217Y-121137968D01*
X101194514Y-121126736D01*
X101207811Y-121119045D01*
X101226380Y-121114232D01*
X101254494Y-121111638D01*
X101296425Y-121110602D01*
X101356445Y-121110462D01*
X101360017Y-121110467D01*
G37*
X101360017Y-121110467D02*
X101488996Y-121114828D01*
X101598699Y-121128053D01*
X101690934Y-121150933D01*
X101767510Y-121184262D01*
X101830235Y-121228830D01*
X101880920Y-121285428D01*
X101921371Y-121354850D01*
X101922167Y-121356543D01*
X101946309Y-121418675D01*
X101954911Y-121473701D01*
X101947939Y-121529079D01*
X101925362Y-121592265D01*
X101921080Y-121601881D01*
X101891880Y-121658158D01*
X101859064Y-121701643D01*
X101816710Y-121738609D01*
X101758898Y-121775327D01*
X101755539Y-121777244D01*
X101705212Y-121801419D01*
X101648329Y-121819474D01*
X101581235Y-121832031D01*
X101500273Y-121839714D01*
X101401790Y-121843145D01*
X101366994Y-121843443D01*
X101201302Y-121844037D01*
X101177905Y-121814292D01*
X101170965Y-121804511D01*
X101165550Y-121793089D01*
X101161473Y-121777287D01*
X101158545Y-121754367D01*
X101156575Y-121721588D01*
X101155933Y-121697281D01*
X101312552Y-121697281D01*
X101406434Y-121697281D01*
X101461372Y-121695675D01*
X101517768Y-121691447D01*
X101564053Y-121685484D01*
X101566847Y-121684982D01*
X101649056Y-121662928D01*
X101712822Y-121629792D01*
X101760160Y-121584039D01*
X101793090Y-121524131D01*
X101798816Y-121508253D01*
X101804429Y-121483525D01*
X101801999Y-121459094D01*
X101790175Y-121426592D01*
X101783048Y-121410626D01*
X101759708Y-121368198D01*
X101731588Y-121338432D01*
X101700648Y-121317703D01*
X101638674Y-121290729D01*
X101559359Y-121271190D01*
X101466961Y-121259938D01*
X101400041Y-121257462D01*
X101312552Y-121257014D01*
X101312552Y-121697281D01*
X101155933Y-121697281D01*
X101155376Y-121676213D01*
X101154758Y-121615503D01*
X101154533Y-121536718D01*
X101154508Y-121475112D01*
X101154508Y-121165677D01*
X101182217Y-121137968D01*
X101194514Y-121126736D01*
X101207811Y-121119045D01*
X101226380Y-121114232D01*
X101254494Y-121111638D01*
X101296425Y-121110602D01*
X101356445Y-121110462D01*
X101360017Y-121110467D01*
G36*
X100572051Y-121110452D02*
G01*
X100648409Y-121111366D01*
X100706925Y-121113503D01*
X100749963Y-121117367D01*
X100779891Y-121123459D01*
X100799076Y-121132282D01*
X100809884Y-121144338D01*
X100814681Y-121160131D01*
X100815835Y-121180162D01*
X100815841Y-121182527D01*
X100814839Y-121205184D01*
X100810104Y-121222695D01*
X100799041Y-121235766D01*
X100779056Y-121245105D01*
X100747554Y-121251419D01*
X100701940Y-121255414D01*
X100639621Y-121257798D01*
X100558001Y-121259278D01*
X100532985Y-121259606D01*
X100290908Y-121262659D01*
X100287522Y-121327570D01*
X100284137Y-121392481D01*
X100452284Y-121392481D01*
X100517974Y-121392723D01*
X100564880Y-121393748D01*
X100596791Y-121396003D01*
X100617499Y-121399934D01*
X100630792Y-121405990D01*
X100640463Y-121414616D01*
X100640525Y-121414685D01*
X100658064Y-121448304D01*
X100657430Y-121484640D01*
X100639022Y-121515615D01*
X100635379Y-121518799D01*
X100622449Y-121527004D01*
X100604732Y-121532713D01*
X100578278Y-121536354D01*
X100539140Y-121538359D01*
X100483370Y-121539156D01*
X100447702Y-121539237D01*
X100285263Y-121539237D01*
X100285263Y-121697281D01*
X100531869Y-121697281D01*
X100613288Y-121697423D01*
X100675118Y-121698006D01*
X100720345Y-121699260D01*
X100751956Y-121701419D01*
X100772939Y-121704715D01*
X100786281Y-121709381D01*
X100794969Y-121715649D01*
X100797158Y-121717925D01*
X100813322Y-121749472D01*
X100814505Y-121785360D01*
X100801244Y-121816477D01*
X100790751Y-121826463D01*
X100779837Y-121831961D01*
X100762925Y-121836214D01*
X100737341Y-121839372D01*
X100700409Y-121841584D01*
X100649454Y-121842998D01*
X100581802Y-121843764D01*
X100494777Y-121844030D01*
X100475102Y-121844037D01*
X100386619Y-121843979D01*
X100317935Y-121843659D01*
X100266272Y-121842859D01*
X100228853Y-121841359D01*
X100202898Y-121838941D01*
X100185630Y-121835386D01*
X100174270Y-121830474D01*
X100166040Y-121823987D01*
X100161525Y-121819330D01*
X100154729Y-121811081D01*
X100149420Y-121800861D01*
X100145414Y-121785992D01*
X100142529Y-121763794D01*
X100140582Y-121731585D01*
X100139389Y-121686688D01*
X100138769Y-121626420D01*
X100138537Y-121548103D01*
X100138508Y-121482186D01*
X100138579Y-121389820D01*
X100138916Y-121317309D01*
X100139706Y-121261929D01*
X100141134Y-121220957D01*
X100143387Y-121191670D01*
X100146651Y-121171345D01*
X100151112Y-121157258D01*
X100156956Y-121146687D01*
X100161905Y-121140003D01*
X100185302Y-121110259D01*
X100475482Y-121110259D01*
X100572051Y-121110452D01*
G37*
X100572051Y-121110452D02*
X100648409Y-121111366D01*
X100706925Y-121113503D01*
X100749963Y-121117367D01*
X100779891Y-121123459D01*
X100799076Y-121132282D01*
X100809884Y-121144338D01*
X100814681Y-121160131D01*
X100815835Y-121180162D01*
X100815841Y-121182527D01*
X100814839Y-121205184D01*
X100810104Y-121222695D01*
X100799041Y-121235766D01*
X100779056Y-121245105D01*
X100747554Y-121251419D01*
X100701940Y-121255414D01*
X100639621Y-121257798D01*
X100558001Y-121259278D01*
X100532985Y-121259606D01*
X100290908Y-121262659D01*
X100287522Y-121327570D01*
X100284137Y-121392481D01*
X100452284Y-121392481D01*
X100517974Y-121392723D01*
X100564880Y-121393748D01*
X100596791Y-121396003D01*
X100617499Y-121399934D01*
X100630792Y-121405990D01*
X100640463Y-121414616D01*
X100640525Y-121414685D01*
X100658064Y-121448304D01*
X100657430Y-121484640D01*
X100639022Y-121515615D01*
X100635379Y-121518799D01*
X100622449Y-121527004D01*
X100604732Y-121532713D01*
X100578278Y-121536354D01*
X100539140Y-121538359D01*
X100483370Y-121539156D01*
X100447702Y-121539237D01*
X100285263Y-121539237D01*
X100285263Y-121697281D01*
X100531869Y-121697281D01*
X100613288Y-121697423D01*
X100675118Y-121698006D01*
X100720345Y-121699260D01*
X100751956Y-121701419D01*
X100772939Y-121704715D01*
X100786281Y-121709381D01*
X100794969Y-121715649D01*
X100797158Y-121717925D01*
X100813322Y-121749472D01*
X100814505Y-121785360D01*
X100801244Y-121816477D01*
X100790751Y-121826463D01*
X100779837Y-121831961D01*
X100762925Y-121836214D01*
X100737341Y-121839372D01*
X100700409Y-121841584D01*
X100649454Y-121842998D01*
X100581802Y-121843764D01*
X100494777Y-121844030D01*
X100475102Y-121844037D01*
X100386619Y-121843979D01*
X100317935Y-121843659D01*
X100266272Y-121842859D01*
X100228853Y-121841359D01*
X100202898Y-121838941D01*
X100185630Y-121835386D01*
X100174270Y-121830474D01*
X100166040Y-121823987D01*
X100161525Y-121819330D01*
X100154729Y-121811081D01*
X100149420Y-121800861D01*
X100145414Y-121785992D01*
X100142529Y-121763794D01*
X100140582Y-121731585D01*
X100139389Y-121686688D01*
X100138769Y-121626420D01*
X100138537Y-121548103D01*
X100138508Y-121482186D01*
X100138579Y-121389820D01*
X100138916Y-121317309D01*
X100139706Y-121261929D01*
X100141134Y-121220957D01*
X100143387Y-121191670D01*
X100146651Y-121171345D01*
X100151112Y-121157258D01*
X100156956Y-121146687D01*
X100161905Y-121140003D01*
X100185302Y-121110259D01*
X100475482Y-121110259D01*
X100572051Y-121110452D01*
G36*
X99041594Y-121114640D02*
G01*
X99065160Y-121128465D01*
X99095973Y-121151073D01*
X99135630Y-121183530D01*
X99185728Y-121226900D01*
X99247865Y-121282250D01*
X99323636Y-121350643D01*
X99410374Y-121429276D01*
X99590997Y-121593070D01*
X99596641Y-121373221D01*
X99598679Y-121297543D01*
X99600645Y-121241186D01*
X99602974Y-121200898D01*
X99606102Y-121173427D01*
X99610463Y-121155521D01*
X99616492Y-121143929D01*
X99624624Y-121135400D01*
X99628936Y-121131815D01*
X99663467Y-121112862D01*
X99696325Y-121115633D01*
X99722390Y-121131825D01*
X99749041Y-121153391D01*
X99752356Y-121468343D01*
X99753273Y-121560971D01*
X99753740Y-121633736D01*
X99753595Y-121689353D01*
X99752676Y-121730534D01*
X99750821Y-121759995D01*
X99747869Y-121780447D01*
X99743658Y-121794605D01*
X99738026Y-121805183D01*
X99731781Y-121813666D01*
X99718269Y-121829399D01*
X99704825Y-121839828D01*
X99689584Y-121843831D01*
X99670682Y-121840286D01*
X99646253Y-121828071D01*
X99614435Y-121806063D01*
X99573360Y-121773141D01*
X99521166Y-121728183D01*
X99455986Y-121670067D01*
X99382152Y-121603291D01*
X99116863Y-121362650D01*
X99111219Y-121581781D01*
X99109177Y-121657320D01*
X99107206Y-121713546D01*
X99104869Y-121753716D01*
X99101727Y-121781088D01*
X99097344Y-121798920D01*
X99091284Y-121810471D01*
X99083108Y-121818999D01*
X99078924Y-121822474D01*
X99041943Y-121841564D01*
X99007000Y-121838685D01*
X98976572Y-121814292D01*
X98969611Y-121804478D01*
X98964185Y-121793018D01*
X98960105Y-121777160D01*
X98957179Y-121754155D01*
X98955216Y-121721254D01*
X98954025Y-121675708D01*
X98953416Y-121614765D01*
X98953197Y-121535678D01*
X98953174Y-121477148D01*
X98953248Y-121385599D01*
X98953595Y-121313879D01*
X98954407Y-121259237D01*
X98955875Y-121218924D01*
X98958189Y-121190190D01*
X98961541Y-121170285D01*
X98966120Y-121156460D01*
X98972119Y-121145964D01*
X98976572Y-121140003D01*
X98987858Y-121125883D01*
X98998407Y-121115221D01*
X99009815Y-121109084D01*
X99023678Y-121108535D01*
X99041594Y-121114640D01*
G37*
X99041594Y-121114640D02*
X99065160Y-121128465D01*
X99095973Y-121151073D01*
X99135630Y-121183530D01*
X99185728Y-121226900D01*
X99247865Y-121282250D01*
X99323636Y-121350643D01*
X99410374Y-121429276D01*
X99590997Y-121593070D01*
X99596641Y-121373221D01*
X99598679Y-121297543D01*
X99600645Y-121241186D01*
X99602974Y-121200898D01*
X99606102Y-121173427D01*
X99610463Y-121155521D01*
X99616492Y-121143929D01*
X99624624Y-121135400D01*
X99628936Y-121131815D01*
X99663467Y-121112862D01*
X99696325Y-121115633D01*
X99722390Y-121131825D01*
X99749041Y-121153391D01*
X99752356Y-121468343D01*
X99753273Y-121560971D01*
X99753740Y-121633736D01*
X99753595Y-121689353D01*
X99752676Y-121730534D01*
X99750821Y-121759995D01*
X99747869Y-121780447D01*
X99743658Y-121794605D01*
X99738026Y-121805183D01*
X99731781Y-121813666D01*
X99718269Y-121829399D01*
X99704825Y-121839828D01*
X99689584Y-121843831D01*
X99670682Y-121840286D01*
X99646253Y-121828071D01*
X99614435Y-121806063D01*
X99573360Y-121773141D01*
X99521166Y-121728183D01*
X99455986Y-121670067D01*
X99382152Y-121603291D01*
X99116863Y-121362650D01*
X99111219Y-121581781D01*
X99109177Y-121657320D01*
X99107206Y-121713546D01*
X99104869Y-121753716D01*
X99101727Y-121781088D01*
X99097344Y-121798920D01*
X99091284Y-121810471D01*
X99083108Y-121818999D01*
X99078924Y-121822474D01*
X99041943Y-121841564D01*
X99007000Y-121838685D01*
X98976572Y-121814292D01*
X98969611Y-121804478D01*
X98964185Y-121793018D01*
X98960105Y-121777160D01*
X98957179Y-121754155D01*
X98955216Y-121721254D01*
X98954025Y-121675708D01*
X98953416Y-121614765D01*
X98953197Y-121535678D01*
X98953174Y-121477148D01*
X98953248Y-121385599D01*
X98953595Y-121313879D01*
X98954407Y-121259237D01*
X98955875Y-121218924D01*
X98958189Y-121190190D01*
X98961541Y-121170285D01*
X98966120Y-121156460D01*
X98972119Y-121145964D01*
X98976572Y-121140003D01*
X98987858Y-121125883D01*
X98998407Y-121115221D01*
X99009815Y-121109084D01*
X99023678Y-121108535D01*
X99041594Y-121114640D01*
G36*
X98391627Y-121115791D02*
G01*
X98460143Y-121127287D01*
X98512765Y-121145159D01*
X98547000Y-121168691D01*
X98556329Y-121182116D01*
X98565815Y-121213340D01*
X98559431Y-121241587D01*
X98539278Y-121268374D01*
X98507963Y-121280905D01*
X98462525Y-121279888D01*
X98427382Y-121273098D01*
X98349289Y-121260163D01*
X98269482Y-121258934D01*
X98180153Y-121269433D01*
X98155479Y-121273882D01*
X98072417Y-121297300D01*
X98007435Y-121332137D01*
X97961247Y-121377796D01*
X97934563Y-121433686D01*
X97929045Y-121462580D01*
X97932657Y-121521204D01*
X97955979Y-121573071D01*
X97996884Y-121617170D01*
X98053249Y-121652491D01*
X98122948Y-121678021D01*
X98203856Y-121692751D01*
X98293848Y-121695670D01*
X98390798Y-121685767D01*
X98396272Y-121684833D01*
X98434833Y-121677651D01*
X98456214Y-121670713D01*
X98465481Y-121660419D01*
X98467702Y-121643168D01*
X98467752Y-121634033D01*
X98467752Y-121595681D01*
X98399277Y-121595681D01*
X98338808Y-121591539D01*
X98297543Y-121578339D01*
X98273533Y-121554922D01*
X98264831Y-121520128D01*
X98264725Y-121515586D01*
X98269816Y-121485846D01*
X98287275Y-121464611D01*
X98319769Y-121450558D01*
X98369965Y-121442365D01*
X98418585Y-121439353D01*
X98489252Y-121437625D01*
X98540510Y-121440262D01*
X98575469Y-121449992D01*
X98597238Y-121469545D01*
X98608928Y-121501648D01*
X98613648Y-121549030D01*
X98614508Y-121611263D01*
X98613099Y-121680727D01*
X98608860Y-121727978D01*
X98601772Y-121753204D01*
X98600397Y-121755180D01*
X98561480Y-121786700D01*
X98504422Y-121811662D01*
X98432839Y-121829532D01*
X98350350Y-121839778D01*
X98260569Y-121841865D01*
X98167116Y-121835260D01*
X98112152Y-121827148D01*
X98025942Y-121802746D01*
X97945816Y-121762854D01*
X97878731Y-121711079D01*
X97868535Y-121700731D01*
X97835406Y-121657227D01*
X97805514Y-121603310D01*
X97782351Y-121546784D01*
X97769410Y-121495451D01*
X97767850Y-121475736D01*
X97774490Y-121434611D01*
X97792140Y-121383444D01*
X97817411Y-121329586D01*
X97846919Y-121280387D01*
X97872989Y-121247526D01*
X97933943Y-121198644D01*
X98012739Y-121159737D01*
X98106551Y-121131686D01*
X98212558Y-121115371D01*
X98309708Y-121111384D01*
X98391627Y-121115791D01*
G37*
X98391627Y-121115791D02*
X98460143Y-121127287D01*
X98512765Y-121145159D01*
X98547000Y-121168691D01*
X98556329Y-121182116D01*
X98565815Y-121213340D01*
X98559431Y-121241587D01*
X98539278Y-121268374D01*
X98507963Y-121280905D01*
X98462525Y-121279888D01*
X98427382Y-121273098D01*
X98349289Y-121260163D01*
X98269482Y-121258934D01*
X98180153Y-121269433D01*
X98155479Y-121273882D01*
X98072417Y-121297300D01*
X98007435Y-121332137D01*
X97961247Y-121377796D01*
X97934563Y-121433686D01*
X97929045Y-121462580D01*
X97932657Y-121521204D01*
X97955979Y-121573071D01*
X97996884Y-121617170D01*
X98053249Y-121652491D01*
X98122948Y-121678021D01*
X98203856Y-121692751D01*
X98293848Y-121695670D01*
X98390798Y-121685767D01*
X98396272Y-121684833D01*
X98434833Y-121677651D01*
X98456214Y-121670713D01*
X98465481Y-121660419D01*
X98467702Y-121643168D01*
X98467752Y-121634033D01*
X98467752Y-121595681D01*
X98399277Y-121595681D01*
X98338808Y-121591539D01*
X98297543Y-121578339D01*
X98273533Y-121554922D01*
X98264831Y-121520128D01*
X98264725Y-121515586D01*
X98269816Y-121485846D01*
X98287275Y-121464611D01*
X98319769Y-121450558D01*
X98369965Y-121442365D01*
X98418585Y-121439353D01*
X98489252Y-121437625D01*
X98540510Y-121440262D01*
X98575469Y-121449992D01*
X98597238Y-121469545D01*
X98608928Y-121501648D01*
X98613648Y-121549030D01*
X98614508Y-121611263D01*
X98613099Y-121680727D01*
X98608860Y-121727978D01*
X98601772Y-121753204D01*
X98600397Y-121755180D01*
X98561480Y-121786700D01*
X98504422Y-121811662D01*
X98432839Y-121829532D01*
X98350350Y-121839778D01*
X98260569Y-121841865D01*
X98167116Y-121835260D01*
X98112152Y-121827148D01*
X98025942Y-121802746D01*
X97945816Y-121762854D01*
X97878731Y-121711079D01*
X97868535Y-121700731D01*
X97835406Y-121657227D01*
X97805514Y-121603310D01*
X97782351Y-121546784D01*
X97769410Y-121495451D01*
X97767850Y-121475736D01*
X97774490Y-121434611D01*
X97792140Y-121383444D01*
X97817411Y-121329586D01*
X97846919Y-121280387D01*
X97872989Y-121247526D01*
X97933943Y-121198644D01*
X98012739Y-121159737D01*
X98106551Y-121131686D01*
X98212558Y-121115371D01*
X98309708Y-121111384D01*
X98391627Y-121115791D01*
G36*
X97417886Y-121132837D02*
G01*
X97424466Y-121140410D01*
X97429629Y-121150179D01*
X97433544Y-121164763D01*
X97436384Y-121186777D01*
X97438321Y-121218840D01*
X97439525Y-121263567D01*
X97440169Y-121323577D01*
X97440424Y-121401486D01*
X97440463Y-121477148D01*
X97440394Y-121570994D01*
X97440070Y-121644881D01*
X97439322Y-121701424D01*
X97437976Y-121743241D01*
X97435862Y-121772949D01*
X97432808Y-121793165D01*
X97428642Y-121806506D01*
X97423192Y-121815590D01*
X97417886Y-121821459D01*
X97384882Y-121841139D01*
X97349717Y-121839373D01*
X97318253Y-121817909D01*
X97311024Y-121809529D01*
X97305374Y-121799806D01*
X97301109Y-121786053D01*
X97298035Y-121765581D01*
X97295956Y-121735704D01*
X97294678Y-121693733D01*
X97294007Y-121636981D01*
X97293749Y-121562759D01*
X97293708Y-121478729D01*
X97293708Y-121165677D01*
X97321417Y-121137968D01*
X97355571Y-121114655D01*
X97388702Y-121113815D01*
X97417886Y-121132837D01*
G37*
X97417886Y-121132837D02*
X97424466Y-121140410D01*
X97429629Y-121150179D01*
X97433544Y-121164763D01*
X97436384Y-121186777D01*
X97438321Y-121218840D01*
X97439525Y-121263567D01*
X97440169Y-121323577D01*
X97440424Y-121401486D01*
X97440463Y-121477148D01*
X97440394Y-121570994D01*
X97440070Y-121644881D01*
X97439322Y-121701424D01*
X97437976Y-121743241D01*
X97435862Y-121772949D01*
X97432808Y-121793165D01*
X97428642Y-121806506D01*
X97423192Y-121815590D01*
X97417886Y-121821459D01*
X97384882Y-121841139D01*
X97349717Y-121839373D01*
X97318253Y-121817909D01*
X97311024Y-121809529D01*
X97305374Y-121799806D01*
X97301109Y-121786053D01*
X97298035Y-121765581D01*
X97295956Y-121735704D01*
X97294678Y-121693733D01*
X97294007Y-121636981D01*
X97293749Y-121562759D01*
X97293708Y-121478729D01*
X97293708Y-121165677D01*
X97321417Y-121137968D01*
X97355571Y-121114655D01*
X97388702Y-121113815D01*
X97417886Y-121132837D01*
G36*
X96650005Y-121111543D02*
G01*
X96724820Y-121116773D01*
X96794402Y-121124942D01*
X96854706Y-121135742D01*
X96901688Y-121148865D01*
X96931302Y-121164005D01*
X96935848Y-121168461D01*
X96951654Y-121203042D01*
X96946861Y-121238543D01*
X96922344Y-121268917D01*
X96921174Y-121269788D01*
X96906754Y-121279146D01*
X96891700Y-121284068D01*
X96870703Y-121284665D01*
X96838451Y-121281053D01*
X96789635Y-121273346D01*
X96785708Y-121272697D01*
X96712969Y-121263761D01*
X96634491Y-121259353D01*
X96555781Y-121259311D01*
X96482347Y-121263471D01*
X96419697Y-121271671D01*
X96373338Y-121283749D01*
X96370292Y-121284963D01*
X96336660Y-121303807D01*
X96324844Y-121322877D01*
X96334094Y-121341631D01*
X96363661Y-121359529D01*
X96412797Y-121376029D01*
X96480751Y-121390588D01*
X96526063Y-121397598D01*
X96620252Y-121411081D01*
X96695164Y-121423406D01*
X96753991Y-121435641D01*
X96799923Y-121448853D01*
X96836153Y-121464109D01*
X96865870Y-121482477D01*
X96892266Y-121505023D01*
X96913478Y-121527163D01*
X96938643Y-121558011D01*
X96951027Y-121584537D01*
X96954900Y-121617218D01*
X96955041Y-121629187D01*
X96952132Y-121668904D01*
X96940506Y-121698451D01*
X96920385Y-121724678D01*
X96879492Y-121764768D01*
X96833891Y-121795341D01*
X96780195Y-121817395D01*
X96715016Y-121831927D01*
X96634964Y-121839933D01*
X96536651Y-121842410D01*
X96520419Y-121842369D01*
X96454859Y-121841010D01*
X96389842Y-121837922D01*
X96332456Y-121833548D01*
X96289786Y-121828332D01*
X96286336Y-121827733D01*
X96243912Y-121817683D01*
X96207928Y-121804988D01*
X96187558Y-121793382D01*
X96168601Y-121762764D01*
X96167281Y-121727110D01*
X96183623Y-121695336D01*
X96187279Y-121691743D01*
X96202393Y-121681068D01*
X96221293Y-121676468D01*
X96250546Y-121677251D01*
X96286057Y-121681319D01*
X96325738Y-121684954D01*
X96381363Y-121688020D01*
X96446302Y-121690245D01*
X96513923Y-121691356D01*
X96531708Y-121691429D01*
X96599580Y-121691156D01*
X96649254Y-121689838D01*
X96685098Y-121687019D01*
X96711484Y-121682242D01*
X96732782Y-121675049D01*
X96745582Y-121669059D01*
X96773708Y-121652425D01*
X96791640Y-121637360D01*
X96794261Y-121633089D01*
X96788732Y-121615455D01*
X96762448Y-121598384D01*
X96717230Y-121582650D01*
X96654900Y-121569030D01*
X96636537Y-121565996D01*
X96540618Y-121550930D01*
X96464067Y-121538338D01*
X96403928Y-121527303D01*
X96357248Y-121516912D01*
X96321071Y-121506248D01*
X96292443Y-121494397D01*
X96268410Y-121480443D01*
X96246016Y-121463473D01*
X96222306Y-121442570D01*
X96214328Y-121435241D01*
X96186355Y-121407891D01*
X96171548Y-121386221D01*
X96165756Y-121361424D01*
X96164819Y-121330175D01*
X96175133Y-121268897D01*
X96205956Y-121216832D01*
X96257113Y-121174150D01*
X96328425Y-121141017D01*
X96379308Y-121126156D01*
X96434608Y-121116558D01*
X96500855Y-121111128D01*
X96574002Y-121109559D01*
X96650005Y-121111543D01*
G37*
X96650005Y-121111543D02*
X96724820Y-121116773D01*
X96794402Y-121124942D01*
X96854706Y-121135742D01*
X96901688Y-121148865D01*
X96931302Y-121164005D01*
X96935848Y-121168461D01*
X96951654Y-121203042D01*
X96946861Y-121238543D01*
X96922344Y-121268917D01*
X96921174Y-121269788D01*
X96906754Y-121279146D01*
X96891700Y-121284068D01*
X96870703Y-121284665D01*
X96838451Y-121281053D01*
X96789635Y-121273346D01*
X96785708Y-121272697D01*
X96712969Y-121263761D01*
X96634491Y-121259353D01*
X96555781Y-121259311D01*
X96482347Y-121263471D01*
X96419697Y-121271671D01*
X96373338Y-121283749D01*
X96370292Y-121284963D01*
X96336660Y-121303807D01*
X96324844Y-121322877D01*
X96334094Y-121341631D01*
X96363661Y-121359529D01*
X96412797Y-121376029D01*
X96480751Y-121390588D01*
X96526063Y-121397598D01*
X96620252Y-121411081D01*
X96695164Y-121423406D01*
X96753991Y-121435641D01*
X96799923Y-121448853D01*
X96836153Y-121464109D01*
X96865870Y-121482477D01*
X96892266Y-121505023D01*
X96913478Y-121527163D01*
X96938643Y-121558011D01*
X96951027Y-121584537D01*
X96954900Y-121617218D01*
X96955041Y-121629187D01*
X96952132Y-121668904D01*
X96940506Y-121698451D01*
X96920385Y-121724678D01*
X96879492Y-121764768D01*
X96833891Y-121795341D01*
X96780195Y-121817395D01*
X96715016Y-121831927D01*
X96634964Y-121839933D01*
X96536651Y-121842410D01*
X96520419Y-121842369D01*
X96454859Y-121841010D01*
X96389842Y-121837922D01*
X96332456Y-121833548D01*
X96289786Y-121828332D01*
X96286336Y-121827733D01*
X96243912Y-121817683D01*
X96207928Y-121804988D01*
X96187558Y-121793382D01*
X96168601Y-121762764D01*
X96167281Y-121727110D01*
X96183623Y-121695336D01*
X96187279Y-121691743D01*
X96202393Y-121681068D01*
X96221293Y-121676468D01*
X96250546Y-121677251D01*
X96286057Y-121681319D01*
X96325738Y-121684954D01*
X96381363Y-121688020D01*
X96446302Y-121690245D01*
X96513923Y-121691356D01*
X96531708Y-121691429D01*
X96599580Y-121691156D01*
X96649254Y-121689838D01*
X96685098Y-121687019D01*
X96711484Y-121682242D01*
X96732782Y-121675049D01*
X96745582Y-121669059D01*
X96773708Y-121652425D01*
X96791640Y-121637360D01*
X96794261Y-121633089D01*
X96788732Y-121615455D01*
X96762448Y-121598384D01*
X96717230Y-121582650D01*
X96654900Y-121569030D01*
X96636537Y-121565996D01*
X96540618Y-121550930D01*
X96464067Y-121538338D01*
X96403928Y-121527303D01*
X96357248Y-121516912D01*
X96321071Y-121506248D01*
X96292443Y-121494397D01*
X96268410Y-121480443D01*
X96246016Y-121463473D01*
X96222306Y-121442570D01*
X96214328Y-121435241D01*
X96186355Y-121407891D01*
X96171548Y-121386221D01*
X96165756Y-121361424D01*
X96164819Y-121330175D01*
X96175133Y-121268897D01*
X96205956Y-121216832D01*
X96257113Y-121174150D01*
X96328425Y-121141017D01*
X96379308Y-121126156D01*
X96434608Y-121116558D01*
X96500855Y-121111128D01*
X96574002Y-121109559D01*
X96650005Y-121111543D01*
G36*
X95628914Y-121110338D02*
G01*
X95698322Y-121110710D01*
X95750711Y-121111577D01*
X95788861Y-121113138D01*
X95815549Y-121115595D01*
X95833555Y-121119149D01*
X95845659Y-121124002D01*
X95854639Y-121130353D01*
X95857890Y-121133276D01*
X95877665Y-121164334D01*
X95881226Y-121200020D01*
X95868217Y-121231702D01*
X95862202Y-121238105D01*
X95852473Y-121244313D01*
X95836807Y-121249102D01*
X95812300Y-121252706D01*
X95776047Y-121255356D01*
X95725143Y-121257287D01*
X95656682Y-121258731D01*
X95594091Y-121259610D01*
X95346374Y-121262659D01*
X95342989Y-121327570D01*
X95339603Y-121392481D01*
X95507750Y-121392481D01*
X95580749Y-121393111D01*
X95634191Y-121395745D01*
X95671080Y-121401501D01*
X95694420Y-121411496D01*
X95707214Y-121426848D01*
X95712466Y-121448674D01*
X95713263Y-121468930D01*
X95710785Y-121493784D01*
X95701431Y-121512098D01*
X95682325Y-121524829D01*
X95650590Y-121532933D01*
X95603349Y-121537368D01*
X95537725Y-121539091D01*
X95501907Y-121539237D01*
X95340730Y-121539237D01*
X95340730Y-121697281D01*
X95589086Y-121697281D01*
X95670495Y-121697394D01*
X95732366Y-121697904D01*
X95777740Y-121699062D01*
X95809654Y-121701122D01*
X95831149Y-121704338D01*
X95845265Y-121708964D01*
X95855040Y-121715251D01*
X95860019Y-121719859D01*
X95877098Y-121746752D01*
X95882597Y-121770659D01*
X95874745Y-121799859D01*
X95860019Y-121821459D01*
X95852162Y-121828258D01*
X95842020Y-121833538D01*
X95826864Y-121837490D01*
X95803967Y-121840305D01*
X95770599Y-121842174D01*
X95724033Y-121843290D01*
X95661541Y-121843843D01*
X95580394Y-121844025D01*
X95538286Y-121844037D01*
X95448110Y-121843957D01*
X95377784Y-121843590D01*
X95324579Y-121842744D01*
X95285768Y-121841228D01*
X95258621Y-121838851D01*
X95240410Y-121835421D01*
X95228408Y-121830746D01*
X95219886Y-121824636D01*
X95216552Y-121821459D01*
X95209953Y-121813862D01*
X95204781Y-121804062D01*
X95200862Y-121789431D01*
X95198024Y-121767344D01*
X95196093Y-121735174D01*
X95194896Y-121690295D01*
X95194260Y-121630081D01*
X95194011Y-121551905D01*
X95193974Y-121479115D01*
X95194008Y-121385899D01*
X95194243Y-121312623D01*
X95194878Y-121256650D01*
X95196114Y-121215343D01*
X95198152Y-121186064D01*
X95201191Y-121166176D01*
X95205431Y-121153042D01*
X95211073Y-121144024D01*
X95218317Y-121136485D01*
X95220102Y-121134804D01*
X95228763Y-121127364D01*
X95238826Y-121121601D01*
X95253083Y-121117304D01*
X95274325Y-121114256D01*
X95305344Y-121112243D01*
X95348931Y-121111052D01*
X95407877Y-121110467D01*
X95484974Y-121110275D01*
X95539707Y-121110259D01*
X95628914Y-121110338D01*
G37*
X95628914Y-121110338D02*
X95698322Y-121110710D01*
X95750711Y-121111577D01*
X95788861Y-121113138D01*
X95815549Y-121115595D01*
X95833555Y-121119149D01*
X95845659Y-121124002D01*
X95854639Y-121130353D01*
X95857890Y-121133276D01*
X95877665Y-121164334D01*
X95881226Y-121200020D01*
X95868217Y-121231702D01*
X95862202Y-121238105D01*
X95852473Y-121244313D01*
X95836807Y-121249102D01*
X95812300Y-121252706D01*
X95776047Y-121255356D01*
X95725143Y-121257287D01*
X95656682Y-121258731D01*
X95594091Y-121259610D01*
X95346374Y-121262659D01*
X95342989Y-121327570D01*
X95339603Y-121392481D01*
X95507750Y-121392481D01*
X95580749Y-121393111D01*
X95634191Y-121395745D01*
X95671080Y-121401501D01*
X95694420Y-121411496D01*
X95707214Y-121426848D01*
X95712466Y-121448674D01*
X95713263Y-121468930D01*
X95710785Y-121493784D01*
X95701431Y-121512098D01*
X95682325Y-121524829D01*
X95650590Y-121532933D01*
X95603349Y-121537368D01*
X95537725Y-121539091D01*
X95501907Y-121539237D01*
X95340730Y-121539237D01*
X95340730Y-121697281D01*
X95589086Y-121697281D01*
X95670495Y-121697394D01*
X95732366Y-121697904D01*
X95777740Y-121699062D01*
X95809654Y-121701122D01*
X95831149Y-121704338D01*
X95845265Y-121708964D01*
X95855040Y-121715251D01*
X95860019Y-121719859D01*
X95877098Y-121746752D01*
X95882597Y-121770659D01*
X95874745Y-121799859D01*
X95860019Y-121821459D01*
X95852162Y-121828258D01*
X95842020Y-121833538D01*
X95826864Y-121837490D01*
X95803967Y-121840305D01*
X95770599Y-121842174D01*
X95724033Y-121843290D01*
X95661541Y-121843843D01*
X95580394Y-121844025D01*
X95538286Y-121844037D01*
X95448110Y-121843957D01*
X95377784Y-121843590D01*
X95324579Y-121842744D01*
X95285768Y-121841228D01*
X95258621Y-121838851D01*
X95240410Y-121835421D01*
X95228408Y-121830746D01*
X95219886Y-121824636D01*
X95216552Y-121821459D01*
X95209953Y-121813862D01*
X95204781Y-121804062D01*
X95200862Y-121789431D01*
X95198024Y-121767344D01*
X95196093Y-121735174D01*
X95194896Y-121690295D01*
X95194260Y-121630081D01*
X95194011Y-121551905D01*
X95193974Y-121479115D01*
X95194008Y-121385899D01*
X95194243Y-121312623D01*
X95194878Y-121256650D01*
X95196114Y-121215343D01*
X95198152Y-121186064D01*
X95201191Y-121166176D01*
X95205431Y-121153042D01*
X95211073Y-121144024D01*
X95218317Y-121136485D01*
X95220102Y-121134804D01*
X95228763Y-121127364D01*
X95238826Y-121121601D01*
X95253083Y-121117304D01*
X95274325Y-121114256D01*
X95305344Y-121112243D01*
X95348931Y-121111052D01*
X95407877Y-121110467D01*
X95484974Y-121110275D01*
X95539707Y-121110259D01*
X95628914Y-121110338D01*
G36*
X94220337Y-121110258D02*
G01*
X94259819Y-121110659D01*
X94375508Y-121113451D01*
X94472397Y-121121742D01*
X94553789Y-121136424D01*
X94622985Y-121158385D01*
X94683288Y-121188514D01*
X94738000Y-121227702D01*
X94757541Y-121244724D01*
X94789958Y-121284555D01*
X94819188Y-121338605D01*
X94841717Y-121398515D01*
X94854029Y-121455931D01*
X94855308Y-121477148D01*
X94847291Y-121535961D01*
X94825809Y-121600205D01*
X94794709Y-121661013D01*
X94757842Y-121709522D01*
X94751854Y-121715374D01*
X94701129Y-121756513D01*
X94645583Y-121788627D01*
X94582012Y-121812557D01*
X94507214Y-121829145D01*
X94417986Y-121839233D01*
X94311126Y-121843661D01*
X94262180Y-121844037D01*
X94199946Y-121843737D01*
X94156180Y-121842484D01*
X94126777Y-121839746D01*
X94107629Y-121834993D01*
X94094631Y-121827693D01*
X94087663Y-121821459D01*
X94081082Y-121813886D01*
X94075920Y-121804116D01*
X94072005Y-121789532D01*
X94069165Y-121767518D01*
X94067228Y-121735456D01*
X94066024Y-121690728D01*
X94065380Y-121630718D01*
X94065125Y-121552809D01*
X94065086Y-121477148D01*
X94064838Y-121376233D01*
X94064891Y-121295619D01*
X94065851Y-121257014D01*
X94211841Y-121257014D01*
X94211841Y-121697281D01*
X94304974Y-121697196D01*
X94361015Y-121695588D01*
X94419709Y-121691448D01*
X94468680Y-121685656D01*
X94470170Y-121685418D01*
X94549316Y-121666282D01*
X94610706Y-121636479D01*
X94657403Y-121594070D01*
X94687073Y-121548153D01*
X94705355Y-121497218D01*
X94703937Y-121449392D01*
X94682720Y-121398125D01*
X94641219Y-121345091D01*
X94583710Y-121305792D01*
X94508958Y-121279523D01*
X94459000Y-121270227D01*
X94402292Y-121263699D01*
X94342189Y-121258974D01*
X94291069Y-121257009D01*
X94288041Y-121257000D01*
X94211841Y-121257014D01*
X94065851Y-121257014D01*
X94066448Y-121233043D01*
X94070710Y-121186247D01*
X94078878Y-121152970D01*
X94092152Y-121130951D01*
X94111734Y-121117931D01*
X94138825Y-121111649D01*
X94174626Y-121109845D01*
X94220337Y-121110258D01*
G37*
X94220337Y-121110258D02*
X94259819Y-121110659D01*
X94375508Y-121113451D01*
X94472397Y-121121742D01*
X94553789Y-121136424D01*
X94622985Y-121158385D01*
X94683288Y-121188514D01*
X94738000Y-121227702D01*
X94757541Y-121244724D01*
X94789958Y-121284555D01*
X94819188Y-121338605D01*
X94841717Y-121398515D01*
X94854029Y-121455931D01*
X94855308Y-121477148D01*
X94847291Y-121535961D01*
X94825809Y-121600205D01*
X94794709Y-121661013D01*
X94757842Y-121709522D01*
X94751854Y-121715374D01*
X94701129Y-121756513D01*
X94645583Y-121788627D01*
X94582012Y-121812557D01*
X94507214Y-121829145D01*
X94417986Y-121839233D01*
X94311126Y-121843661D01*
X94262180Y-121844037D01*
X94199946Y-121843737D01*
X94156180Y-121842484D01*
X94126777Y-121839746D01*
X94107629Y-121834993D01*
X94094631Y-121827693D01*
X94087663Y-121821459D01*
X94081082Y-121813886D01*
X94075920Y-121804116D01*
X94072005Y-121789532D01*
X94069165Y-121767518D01*
X94067228Y-121735456D01*
X94066024Y-121690728D01*
X94065380Y-121630718D01*
X94065125Y-121552809D01*
X94065086Y-121477148D01*
X94064838Y-121376233D01*
X94064891Y-121295619D01*
X94065851Y-121257014D01*
X94211841Y-121257014D01*
X94211841Y-121697281D01*
X94304974Y-121697196D01*
X94361015Y-121695588D01*
X94419709Y-121691448D01*
X94468680Y-121685656D01*
X94470170Y-121685418D01*
X94549316Y-121666282D01*
X94610706Y-121636479D01*
X94657403Y-121594070D01*
X94687073Y-121548153D01*
X94705355Y-121497218D01*
X94703937Y-121449392D01*
X94682720Y-121398125D01*
X94641219Y-121345091D01*
X94583710Y-121305792D01*
X94508958Y-121279523D01*
X94459000Y-121270227D01*
X94402292Y-121263699D01*
X94342189Y-121258974D01*
X94291069Y-121257009D01*
X94288041Y-121257000D01*
X94211841Y-121257014D01*
X94065851Y-121257014D01*
X94066448Y-121233043D01*
X94070710Y-121186247D01*
X94078878Y-121152970D01*
X94092152Y-121130951D01*
X94111734Y-121117931D01*
X94138825Y-121111649D01*
X94174626Y-121109845D01*
X94220337Y-121110258D01*
D11*
%TO.C,J1*%
X181610000Y-148590000D02*
X181610000Y-149860000D01*
X180340000Y-148590000D02*
X181610000Y-148590000D01*
X119000000Y-150902929D02*
X119000000Y-151357071D01*
X119760000Y-150902929D02*
X119760000Y-151357071D01*
X119000000Y-153442929D02*
X119000000Y-153840000D01*
X119760000Y-153442929D02*
X119760000Y-153840000D01*
X119000000Y-162500000D02*
X119000000Y-156500000D01*
X119760000Y-162500000D02*
X119000000Y-162500000D01*
X119760000Y-156500000D02*
X119760000Y-162500000D01*
X120650000Y-153840000D02*
X120650000Y-156500000D01*
X121540000Y-150902929D02*
X121540000Y-151357071D01*
X122300000Y-150902929D02*
X122300000Y-151357071D01*
X121540000Y-153442929D02*
X121540000Y-153840000D01*
X122300000Y-153442929D02*
X122300000Y-153840000D01*
X121540000Y-162500000D02*
X121540000Y-156500000D01*
X122300000Y-162500000D02*
X121540000Y-162500000D01*
X122300000Y-156500000D02*
X122300000Y-162500000D01*
X123190000Y-153840000D02*
X123190000Y-156500000D01*
X124080000Y-150902929D02*
X124080000Y-151357071D01*
X124840000Y-150902929D02*
X124840000Y-151357071D01*
X124080000Y-153442929D02*
X124080000Y-153840000D01*
X124840000Y-153442929D02*
X124840000Y-153840000D01*
X124080000Y-162500000D02*
X124080000Y-156500000D01*
X124840000Y-162500000D02*
X124080000Y-162500000D01*
X124840000Y-156500000D02*
X124840000Y-162500000D01*
X125730000Y-153840000D02*
X125730000Y-156500000D01*
X126620000Y-150902929D02*
X126620000Y-151357071D01*
X127380000Y-150902929D02*
X127380000Y-151357071D01*
X126620000Y-153442929D02*
X126620000Y-153840000D01*
X127380000Y-153442929D02*
X127380000Y-153840000D01*
X126620000Y-162500000D02*
X126620000Y-156500000D01*
X127380000Y-162500000D02*
X126620000Y-162500000D01*
X127380000Y-156500000D02*
X127380000Y-162500000D01*
X128270000Y-153840000D02*
X128270000Y-156500000D01*
X129160000Y-150902929D02*
X129160000Y-151357071D01*
X129920000Y-150902929D02*
X129920000Y-151357071D01*
X129160000Y-153442929D02*
X129160000Y-153840000D01*
X129920000Y-153442929D02*
X129920000Y-153840000D01*
X129160000Y-162500000D02*
X129160000Y-156500000D01*
X129920000Y-162500000D02*
X129160000Y-162500000D01*
X129920000Y-156500000D02*
X129920000Y-162500000D01*
X130810000Y-153840000D02*
X130810000Y-156500000D01*
X131700000Y-150902929D02*
X131700000Y-151357071D01*
X132460000Y-150902929D02*
X132460000Y-151357071D01*
X131700000Y-153442929D02*
X131700000Y-153840000D01*
X132460000Y-153442929D02*
X132460000Y-153840000D01*
X131700000Y-162500000D02*
X131700000Y-156500000D01*
X132460000Y-162500000D02*
X131700000Y-162500000D01*
X132460000Y-156500000D02*
X132460000Y-162500000D01*
X133350000Y-153840000D02*
X133350000Y-156500000D01*
X134240000Y-150902929D02*
X134240000Y-151357071D01*
X135000000Y-150902929D02*
X135000000Y-151357071D01*
X134240000Y-153442929D02*
X134240000Y-153840000D01*
X135000000Y-153442929D02*
X135000000Y-153840000D01*
X134240000Y-162500000D02*
X134240000Y-156500000D01*
X135000000Y-162500000D02*
X134240000Y-162500000D01*
X135000000Y-156500000D02*
X135000000Y-162500000D01*
X135890000Y-153840000D02*
X135890000Y-156500000D01*
X136780000Y-150902929D02*
X136780000Y-151357071D01*
X137540000Y-150902929D02*
X137540000Y-151357071D01*
X136780000Y-153442929D02*
X136780000Y-153840000D01*
X137540000Y-153442929D02*
X137540000Y-153840000D01*
X136780000Y-162500000D02*
X136780000Y-156500000D01*
X137540000Y-162500000D02*
X136780000Y-162500000D01*
X137540000Y-156500000D02*
X137540000Y-162500000D01*
X138430000Y-153840000D02*
X138430000Y-156500000D01*
X139320000Y-150902929D02*
X139320000Y-151357071D01*
X140080000Y-150902929D02*
X140080000Y-151357071D01*
X139320000Y-153442929D02*
X139320000Y-153840000D01*
X140080000Y-153442929D02*
X140080000Y-153840000D01*
X139320000Y-162500000D02*
X139320000Y-156500000D01*
X140080000Y-162500000D02*
X139320000Y-162500000D01*
X140080000Y-156500000D02*
X140080000Y-162500000D01*
X140970000Y-153840000D02*
X140970000Y-156500000D01*
X141860000Y-150902929D02*
X141860000Y-151357071D01*
X142620000Y-150902929D02*
X142620000Y-151357071D01*
X141860000Y-153442929D02*
X141860000Y-153840000D01*
X142620000Y-153442929D02*
X142620000Y-153840000D01*
X141860000Y-162500000D02*
X141860000Y-156500000D01*
X142620000Y-162500000D02*
X141860000Y-162500000D01*
X142620000Y-156500000D02*
X142620000Y-162500000D01*
X143510000Y-153840000D02*
X143510000Y-156500000D01*
X144400000Y-150902929D02*
X144400000Y-151357071D01*
X145160000Y-150902929D02*
X145160000Y-151357071D01*
X144400000Y-153442929D02*
X144400000Y-153840000D01*
X145160000Y-153442929D02*
X145160000Y-153840000D01*
X144400000Y-162500000D02*
X144400000Y-156500000D01*
X145160000Y-162500000D02*
X144400000Y-162500000D01*
X145160000Y-156500000D02*
X145160000Y-162500000D01*
X146050000Y-153840000D02*
X146050000Y-156500000D01*
X146940000Y-150902929D02*
X146940000Y-151357071D01*
X147700000Y-150902929D02*
X147700000Y-151357071D01*
X146940000Y-153442929D02*
X146940000Y-153840000D01*
X147700000Y-153442929D02*
X147700000Y-153840000D01*
X146940000Y-162500000D02*
X146940000Y-156500000D01*
X147700000Y-162500000D02*
X146940000Y-162500000D01*
X147700000Y-156500000D02*
X147700000Y-162500000D01*
X148590000Y-153840000D02*
X148590000Y-156500000D01*
X149480000Y-150902929D02*
X149480000Y-151357071D01*
X150240000Y-150902929D02*
X150240000Y-151357071D01*
X149480000Y-153442929D02*
X149480000Y-153840000D01*
X150240000Y-153442929D02*
X150240000Y-153840000D01*
X149480000Y-162500000D02*
X149480000Y-156500000D01*
X150240000Y-162500000D02*
X149480000Y-162500000D01*
X150240000Y-156500000D02*
X150240000Y-162500000D01*
X151130000Y-153840000D02*
X151130000Y-156500000D01*
X152020000Y-150902929D02*
X152020000Y-151357071D01*
X152780000Y-150902929D02*
X152780000Y-151357071D01*
X152020000Y-153442929D02*
X152020000Y-153840000D01*
X152780000Y-153442929D02*
X152780000Y-153840000D01*
X152020000Y-162500000D02*
X152020000Y-156500000D01*
X152780000Y-162500000D02*
X152020000Y-162500000D01*
X152780000Y-156500000D02*
X152780000Y-162500000D01*
X153670000Y-153840000D02*
X153670000Y-156500000D01*
X154560000Y-150902929D02*
X154560000Y-151357071D01*
X155320000Y-150902929D02*
X155320000Y-151357071D01*
X154560000Y-153442929D02*
X154560000Y-153840000D01*
X155320000Y-153442929D02*
X155320000Y-153840000D01*
X154560000Y-162500000D02*
X154560000Y-156500000D01*
X155320000Y-162500000D02*
X154560000Y-162500000D01*
X155320000Y-156500000D02*
X155320000Y-162500000D01*
X156210000Y-153840000D02*
X156210000Y-156500000D01*
X157100000Y-150902929D02*
X157100000Y-151357071D01*
X157860000Y-150902929D02*
X157860000Y-151357071D01*
X157100000Y-153442929D02*
X157100000Y-153840000D01*
X157860000Y-153442929D02*
X157860000Y-153840000D01*
X157100000Y-162500000D02*
X157100000Y-156500000D01*
X157860000Y-162500000D02*
X157100000Y-162500000D01*
X157860000Y-156500000D02*
X157860000Y-162500000D01*
X158750000Y-153840000D02*
X158750000Y-156500000D01*
X159640000Y-150902929D02*
X159640000Y-151357071D01*
X160400000Y-150902929D02*
X160400000Y-151357071D01*
X159640000Y-153442929D02*
X159640000Y-153840000D01*
X160400000Y-153442929D02*
X160400000Y-153840000D01*
X159640000Y-162500000D02*
X159640000Y-156500000D01*
X160400000Y-162500000D02*
X159640000Y-162500000D01*
X160400000Y-156500000D02*
X160400000Y-162500000D01*
X161290000Y-153840000D02*
X161290000Y-156500000D01*
X162180000Y-150902929D02*
X162180000Y-151357071D01*
X162940000Y-150902929D02*
X162940000Y-151357071D01*
X162180000Y-153442929D02*
X162180000Y-153840000D01*
X162940000Y-153442929D02*
X162940000Y-153840000D01*
X162180000Y-162500000D02*
X162180000Y-156500000D01*
X162940000Y-162500000D02*
X162180000Y-162500000D01*
X162940000Y-156500000D02*
X162940000Y-162500000D01*
X163830000Y-153840000D02*
X163830000Y-156500000D01*
X164720000Y-150902929D02*
X164720000Y-151357071D01*
X165480000Y-150902929D02*
X165480000Y-151357071D01*
X164720000Y-153442929D02*
X164720000Y-153840000D01*
X165480000Y-153442929D02*
X165480000Y-153840000D01*
X164720000Y-162500000D02*
X164720000Y-156500000D01*
X165480000Y-162500000D02*
X164720000Y-162500000D01*
X165480000Y-156500000D02*
X165480000Y-162500000D01*
X166370000Y-153840000D02*
X166370000Y-156500000D01*
X167260000Y-150902929D02*
X167260000Y-151357071D01*
X168020000Y-150902929D02*
X168020000Y-151357071D01*
X167260000Y-153442929D02*
X167260000Y-153840000D01*
X168020000Y-153442929D02*
X168020000Y-153840000D01*
X167260000Y-162500000D02*
X167260000Y-156500000D01*
X168020000Y-162500000D02*
X167260000Y-162500000D01*
X168020000Y-156500000D02*
X168020000Y-162500000D01*
X168910000Y-153840000D02*
X168910000Y-156500000D01*
X169800000Y-150902929D02*
X169800000Y-151357071D01*
X170560000Y-150902929D02*
X170560000Y-151357071D01*
X169800000Y-153442929D02*
X169800000Y-153840000D01*
X170560000Y-153442929D02*
X170560000Y-153840000D01*
X169800000Y-162500000D02*
X169800000Y-156500000D01*
X170560000Y-162500000D02*
X169800000Y-162500000D01*
X170560000Y-156500000D02*
X170560000Y-162500000D01*
X171450000Y-153840000D02*
X171450000Y-156500000D01*
X172340000Y-150902929D02*
X172340000Y-151357071D01*
X173100000Y-150902929D02*
X173100000Y-151357071D01*
X172340000Y-153442929D02*
X172340000Y-153840000D01*
X173100000Y-153442929D02*
X173100000Y-153840000D01*
X172340000Y-162500000D02*
X172340000Y-156500000D01*
X173100000Y-162500000D02*
X172340000Y-162500000D01*
X173100000Y-156500000D02*
X173100000Y-162500000D01*
X173990000Y-153840000D02*
X173990000Y-156500000D01*
X174880000Y-150902929D02*
X174880000Y-151357071D01*
X175640000Y-150902929D02*
X175640000Y-151357071D01*
X174880000Y-153442929D02*
X174880000Y-153840000D01*
X175640000Y-153442929D02*
X175640000Y-153840000D01*
X174880000Y-162500000D02*
X174880000Y-156500000D01*
X175640000Y-162500000D02*
X174880000Y-162500000D01*
X175640000Y-156500000D02*
X175640000Y-162500000D01*
X176530000Y-153840000D02*
X176530000Y-156500000D01*
X177420000Y-150902929D02*
X177420000Y-151357071D01*
X178180000Y-150902929D02*
X178180000Y-151357071D01*
X177420000Y-153442929D02*
X177420000Y-153840000D01*
X178180000Y-153442929D02*
X178180000Y-153840000D01*
X177420000Y-162500000D02*
X177420000Y-156500000D01*
X178180000Y-162500000D02*
X177420000Y-162500000D01*
X178180000Y-156500000D02*
X178180000Y-162500000D01*
X179070000Y-153840000D02*
X179070000Y-156500000D01*
X179960000Y-150970000D02*
X179960000Y-151357071D01*
X180720000Y-150970000D02*
X180720000Y-151357071D01*
X179960000Y-153442929D02*
X179960000Y-153840000D01*
X180720000Y-153442929D02*
X180720000Y-153840000D01*
X180060000Y-156500000D02*
X180060000Y-162500000D01*
X180180000Y-156500000D02*
X180180000Y-162500000D01*
X180300000Y-156500000D02*
X180300000Y-162500000D01*
X180420000Y-156500000D02*
X180420000Y-162500000D01*
X180540000Y-156500000D02*
X180540000Y-162500000D01*
X180660000Y-156500000D02*
X180660000Y-162500000D01*
X179960000Y-162500000D02*
X179960000Y-156500000D01*
X180720000Y-162500000D02*
X179960000Y-162500000D01*
X180720000Y-156500000D02*
X180720000Y-162500000D01*
X181670000Y-156500000D02*
X181670000Y-153840000D01*
X118050000Y-156500000D02*
X181670000Y-156500000D01*
X118050000Y-153840000D02*
X118050000Y-156500000D01*
X181670000Y-153840000D02*
X118050000Y-153840000D01*
%TO.C,TP1*%
X97050000Y-107950000D02*
G75*
G03*
X97050000Y-107950000I-1800000J0D01*
G01*
%TO.C,C1*%
X120865000Y-116880000D02*
X120550000Y-116880000D01*
X123290000Y-116880000D02*
X122975000Y-116880000D01*
X120865000Y-111640000D02*
X120550000Y-111640000D01*
X123290000Y-111640000D02*
X122975000Y-111640000D01*
X120550000Y-111640000D02*
X120550000Y-116880000D01*
X123290000Y-111640000D02*
X123290000Y-116880000D01*
%TO.C,R1*%
X175800000Y-115470000D02*
X175800000Y-115800000D01*
X182340000Y-115470000D02*
X175800000Y-115470000D01*
X182340000Y-115800000D02*
X182340000Y-115470000D01*
X175800000Y-118210000D02*
X175800000Y-117880000D01*
X182340000Y-118210000D02*
X175800000Y-118210000D01*
X182340000Y-117880000D02*
X182340000Y-118210000D01*
%TO.C,D1*%
X172720000Y-110680000D02*
X172720000Y-110680000D01*
X172720000Y-110550000D02*
X172720000Y-110680000D01*
X172720000Y-110550000D02*
X172720000Y-110550000D01*
X172720000Y-110680000D02*
X172720000Y-110550000D01*
X175260000Y-110680000D02*
X175260000Y-110680000D01*
X175260000Y-110550000D02*
X175260000Y-110680000D01*
X175260000Y-110550000D02*
X175260000Y-110550000D01*
X175260000Y-110680000D02*
X175260000Y-110550000D01*
X171430000Y-110550000D02*
X171030000Y-110550000D01*
X171430000Y-109430000D02*
X171430000Y-110550000D01*
X171030000Y-109430000D02*
X171430000Y-109430000D01*
X171030000Y-110550000D02*
X171030000Y-109430000D01*
X176550000Y-110550000D02*
X171430000Y-110550000D01*
X171430000Y-110550000D02*
X171430000Y-104390000D01*
X176550000Y-110550000D02*
X176550000Y-104390000D01*
X171430000Y-104390000D02*
G75*
G02*
X176550000Y-104390000I2560000J0D01*
G01*
%TO.C,U1*%
D13*
X124122380Y-125221904D02*
X124931904Y-125221904D01*
X125027142Y-125174285D01*
X125074761Y-125126666D01*
X125122380Y-125031428D01*
X125122380Y-124840952D01*
X125074761Y-124745714D01*
X125027142Y-124698095D01*
X124931904Y-124650476D01*
X124122380Y-124650476D01*
X125122380Y-123650476D02*
X125122380Y-124221904D01*
X125122380Y-123936190D02*
X124122380Y-123936190D01*
X124265238Y-124031428D01*
X124360476Y-124126666D01*
X124408095Y-124221904D01*
%TO.C,J1*%
X116506666Y-149312380D02*
X116506666Y-150026666D01*
X116459047Y-150169523D01*
X116363809Y-150264761D01*
X116220952Y-150312380D01*
X116125714Y-150312380D01*
X117506666Y-150312380D02*
X116935238Y-150312380D01*
X117220952Y-150312380D02*
X117220952Y-149312380D01*
X117125714Y-149455238D01*
X117030476Y-149550476D01*
X116935238Y-149598095D01*
%TO.C,TP1*%
X93988095Y-111212380D02*
X94559523Y-111212380D01*
X94273809Y-112212380D02*
X94273809Y-111212380D01*
X94892857Y-112212380D02*
X94892857Y-111212380D01*
X95273809Y-111212380D01*
X95369047Y-111260000D01*
X95416666Y-111307619D01*
X95464285Y-111402857D01*
X95464285Y-111545714D01*
X95416666Y-111640952D01*
X95369047Y-111688571D01*
X95273809Y-111736190D01*
X94892857Y-111736190D01*
X96416666Y-112212380D02*
X95845238Y-112212380D01*
X96130952Y-112212380D02*
X96130952Y-111212380D01*
X96035714Y-111355238D01*
X95940476Y-111450476D01*
X95845238Y-111498095D01*
X98933095Y-107450000D02*
X98837857Y-107402380D01*
X98695000Y-107402380D01*
X98552142Y-107450000D01*
X98456904Y-107545238D01*
X98409285Y-107640476D01*
X98361666Y-107830952D01*
X98361666Y-107973809D01*
X98409285Y-108164285D01*
X98456904Y-108259523D01*
X98552142Y-108354761D01*
X98695000Y-108402380D01*
X98790238Y-108402380D01*
X98933095Y-108354761D01*
X98980714Y-108307142D01*
X98980714Y-107973809D01*
X98790238Y-107973809D01*
X99409285Y-108402380D02*
X99409285Y-107402380D01*
X99980714Y-108402380D01*
X99980714Y-107402380D01*
X100456904Y-108402380D02*
X100456904Y-107402380D01*
X100695000Y-107402380D01*
X100837857Y-107450000D01*
X100933095Y-107545238D01*
X100980714Y-107640476D01*
X101028333Y-107830952D01*
X101028333Y-107973809D01*
X100980714Y-108164285D01*
X100933095Y-108259523D01*
X100837857Y-108354761D01*
X100695000Y-108402380D01*
X100456904Y-108402380D01*
%TO.C,C1*%
X122277142Y-119546666D02*
X122324761Y-119594285D01*
X122372380Y-119737142D01*
X122372380Y-119832380D01*
X122324761Y-119975238D01*
X122229523Y-120070476D01*
X122134285Y-120118095D01*
X121943809Y-120165714D01*
X121800952Y-120165714D01*
X121610476Y-120118095D01*
X121515238Y-120070476D01*
X121420000Y-119975238D01*
X121372380Y-119832380D01*
X121372380Y-119737142D01*
X121420000Y-119594285D01*
X121467619Y-119546666D01*
X122372380Y-118594285D02*
X122372380Y-119165714D01*
X122372380Y-118880000D02*
X121372380Y-118880000D01*
X121515238Y-118975238D01*
X121610476Y-119070476D01*
X121658095Y-119165714D01*
%TO.C,R1*%
X175093333Y-119832380D02*
X174760000Y-119356190D01*
X174521904Y-119832380D02*
X174521904Y-118832380D01*
X174902857Y-118832380D01*
X174998095Y-118880000D01*
X175045714Y-118927619D01*
X175093333Y-119022857D01*
X175093333Y-119165714D01*
X175045714Y-119260952D01*
X174998095Y-119308571D01*
X174902857Y-119356190D01*
X174521904Y-119356190D01*
X176045714Y-119832380D02*
X175474285Y-119832380D01*
X175760000Y-119832380D02*
X175760000Y-118832380D01*
X175664761Y-118975238D01*
X175569523Y-119070476D01*
X175474285Y-119118095D01*
%TO.C,D1*%
X170908214Y-114752380D02*
X170908214Y-113752380D01*
X171146309Y-113752380D01*
X171289166Y-113800000D01*
X171384404Y-113895238D01*
X171432023Y-113990476D01*
X171479642Y-114180952D01*
X171479642Y-114323809D01*
X171432023Y-114514285D01*
X171384404Y-114609523D01*
X171289166Y-114704761D01*
X171146309Y-114752380D01*
X170908214Y-114752380D01*
X172432023Y-114752380D02*
X171860595Y-114752380D01*
X172146309Y-114752380D02*
X172146309Y-113752380D01*
X172051071Y-113895238D01*
X171955833Y-113990476D01*
X171860595Y-114038095D01*
X173926666Y-114752380D02*
X173926666Y-113752380D01*
X174307619Y-113752380D01*
X174402857Y-113800000D01*
X174450476Y-113847619D01*
X174498095Y-113942857D01*
X174498095Y-114085714D01*
X174450476Y-114180952D01*
X174402857Y-114228571D01*
X174307619Y-114276190D01*
X173926666Y-114276190D01*
X174831428Y-113752380D02*
X175069523Y-114752380D01*
X175260000Y-114038095D01*
X175450476Y-114752380D01*
X175688571Y-113752380D01*
X176640952Y-114752380D02*
X176307619Y-114276190D01*
X176069523Y-114752380D02*
X176069523Y-113752380D01*
X176450476Y-113752380D01*
X176545714Y-113800000D01*
X176593333Y-113847619D01*
X176640952Y-113942857D01*
X176640952Y-114085714D01*
X176593333Y-114180952D01*
X176545714Y-114228571D01*
X176450476Y-114276190D01*
X176069523Y-114276190D01*
%TD*%
M02*
