%TF.GenerationSoftware,KiCad,Pcbnew,5.1.9*%
%TF.CreationDate,2021-02-01T10:15:42+01:00*%
%TF.ProjectId,ROM_27_28_DIP,524f4d5f-3237-45f3-9238-5f4449502e6b,1.1*%
%TF.SameCoordinates,Original*%
%TF.FileFunction,Legend,Bot*%
%TF.FilePolarity,Positive*%
%FSLAX46Y46*%
G04 Gerber Fmt 4.6, Leading zero omitted, Abs format (unit mm)*
G04 Created by KiCad (PCBNEW 5.1.9) date 2021-02-01 10:15:42*
%MOMM*%
%LPD*%
G01*
G04 APERTURE LIST*
%ADD10C,0.100000*%
%ADD11C,0.200000*%
G04 APERTURE END LIST*
D10*
G36*
X156845000Y-114935000D02*
G01*
X144780000Y-114935000D01*
X144780000Y-111125000D01*
X156845000Y-111125000D01*
X156845000Y-114935000D01*
G37*
X156845000Y-114935000D02*
X144780000Y-114935000D01*
X144780000Y-111125000D01*
X156845000Y-111125000D01*
X156845000Y-114935000D01*
G36*
X156845000Y-110490000D02*
G01*
X144780000Y-110490000D01*
X144780000Y-106680000D01*
X156845000Y-106680000D01*
X156845000Y-110490000D01*
G37*
X156845000Y-110490000D02*
X144780000Y-110490000D01*
X144780000Y-106680000D01*
X156845000Y-106680000D01*
X156845000Y-110490000D01*
D11*
X161038571Y-108718571D02*
X161538571Y-108004285D01*
X161895714Y-108718571D02*
X161895714Y-107218571D01*
X161324285Y-107218571D01*
X161181428Y-107290000D01*
X161110000Y-107361428D01*
X161038571Y-107504285D01*
X161038571Y-107718571D01*
X161110000Y-107861428D01*
X161181428Y-107932857D01*
X161324285Y-108004285D01*
X161895714Y-108004285D01*
X159824285Y-108647142D02*
X159967142Y-108718571D01*
X160252857Y-108718571D01*
X160395714Y-108647142D01*
X160467142Y-108504285D01*
X160467142Y-107932857D01*
X160395714Y-107790000D01*
X160252857Y-107718571D01*
X159967142Y-107718571D01*
X159824285Y-107790000D01*
X159752857Y-107932857D01*
X159752857Y-108075714D01*
X160467142Y-108218571D01*
X159252857Y-107718571D02*
X158895714Y-108718571D01*
X158538571Y-107718571D01*
X157967142Y-108575714D02*
X157895714Y-108647142D01*
X157967142Y-108718571D01*
X158038571Y-108647142D01*
X157967142Y-108575714D01*
X157967142Y-108718571D01*
X157967142Y-107790000D02*
X157895714Y-107861428D01*
X157967142Y-107932857D01*
X158038571Y-107861428D01*
X157967142Y-107790000D01*
X157967142Y-107932857D01*
X164538571Y-113547142D02*
X164324285Y-113618571D01*
X163967142Y-113618571D01*
X163824285Y-113547142D01*
X163752857Y-113475714D01*
X163681428Y-113332857D01*
X163681428Y-113190000D01*
X163752857Y-113047142D01*
X163824285Y-112975714D01*
X163967142Y-112904285D01*
X164252857Y-112832857D01*
X164395714Y-112761428D01*
X164467142Y-112690000D01*
X164538571Y-112547142D01*
X164538571Y-112404285D01*
X164467142Y-112261428D01*
X164395714Y-112190000D01*
X164252857Y-112118571D01*
X163895714Y-112118571D01*
X163681428Y-112190000D01*
X162467142Y-113547142D02*
X162610000Y-113618571D01*
X162895714Y-113618571D01*
X163038571Y-113547142D01*
X163110000Y-113404285D01*
X163110000Y-112832857D01*
X163038571Y-112690000D01*
X162895714Y-112618571D01*
X162610000Y-112618571D01*
X162467142Y-112690000D01*
X162395714Y-112832857D01*
X162395714Y-112975714D01*
X163110000Y-113118571D01*
X161752857Y-113618571D02*
X161752857Y-112618571D01*
X161752857Y-112904285D02*
X161681428Y-112761428D01*
X161610000Y-112690000D01*
X161467142Y-112618571D01*
X161324285Y-112618571D01*
X160824285Y-113618571D02*
X160824285Y-112618571D01*
X160824285Y-112118571D02*
X160895714Y-112190000D01*
X160824285Y-112261428D01*
X160752857Y-112190000D01*
X160824285Y-112118571D01*
X160824285Y-112261428D01*
X159467142Y-113618571D02*
X159467142Y-112832857D01*
X159538571Y-112690000D01*
X159681428Y-112618571D01*
X159967142Y-112618571D01*
X160110000Y-112690000D01*
X159467142Y-113547142D02*
X159610000Y-113618571D01*
X159967142Y-113618571D01*
X160110000Y-113547142D01*
X160181428Y-113404285D01*
X160181428Y-113261428D01*
X160110000Y-113118571D01*
X159967142Y-113047142D01*
X159610000Y-113047142D01*
X159467142Y-112975714D01*
X158538571Y-113618571D02*
X158681428Y-113547142D01*
X158752857Y-113404285D01*
X158752857Y-112118571D01*
X157967142Y-113475714D02*
X157895714Y-113547142D01*
X157967142Y-113618571D01*
X158038571Y-113547142D01*
X157967142Y-113475714D01*
X157967142Y-113618571D01*
X157967142Y-112690000D02*
X157895714Y-112761428D01*
X157967142Y-112832857D01*
X158038571Y-112761428D01*
X157967142Y-112690000D01*
X157967142Y-112832857D01*
M02*
