M48
; DRILL file {KiCad 5.1.9} date Sun Dec 27 17:49:16 2020
; FORMAT={-:-/ absolute / inch / decimal}
; #@! TF.CreationDate,2020-12-27T17:49:16+01:00
; #@! TF.GenerationSoftware,Kicad,Pcbnew,5.1.9
; #@! TF.FileFunction,Plated,1,2,PTH
FMAT,2
INCH
T1C0.0160
T2C0.0295
T3C0.0315
T4C0.0354
T5C0.0394
T6C0.0433
T7C0.0512
T8C0.0551
%
G90
G05
T1
X-8.25Y-5.4
X-8.25Y-5.8
X-8.0Y-5.3
X-8.0Y-5.7
X-7.95Y-5.4
X-7.9Y-3.7
X-7.9Y-5.7
X-7.85Y-3.9
X-7.7Y-3.75
X-7.7Y-5.4
X-7.6Y-4.95
X-7.6Y-5.7
X-7.55Y-5.0
X-7.55Y-5.6
X-7.5Y-5.05
X-7.5Y-5.5
X-7.4Y-5.1
X-7.025Y-3.25
X-7.025Y-5.7
X-6.975Y-4.9
X-6.975Y-5.6
X-6.925Y-5.15
X-6.925Y-5.8
X-6.5Y-4.1
X-6.5Y-5.4
X-6.45Y-4.2
X-6.45Y-5.5
X-6.325Y-3.25
X-6.325Y-4.9
X-5.625Y-3.25
X-5.625Y-4.95
X-5.575Y-3.35
X-5.575Y-5.15
X-4.925Y-3.25
X-4.925Y-5.0
X-4.225Y-3.25
X-4.225Y-5.05
X-3.525Y-3.25
X-3.525Y-5.1
T2
X-8.4Y-4.5
X-8.4Y-4.55
X-8.4Y-4.6
T3
X-8.9Y-3.7
X-8.8Y-4.3
X-8.8Y-4.7
X-8.7031Y-3.7
X-8.7Y-5.5
X-8.7Y-5.6
X-8.7Y-5.7
X-8.7Y-5.8
X-8.6Y-3.7
X-8.4031Y-3.7
X-8.4Y-5.5
X-8.4Y-5.6
X-8.4Y-5.7
X-8.4Y-5.8
X-8.3Y-2.9
X-8.3Y-3.3
X-8.1Y-5.2
X-8.1Y-5.3
X-8.1Y-5.4
X-8.1Y-5.5
X-8.1Y-5.6
X-8.1Y-5.7
X-8.1Y-5.8
X-7.9969Y-5.0
X-7.8Y-5.0
X-7.8Y-5.2
X-7.8Y-5.3
X-7.8Y-5.4
X-7.8Y-5.5
X-7.8Y-5.6
X-7.8Y-5.7
X-7.8Y-5.8
X-7.15Y-2.4
X-6.9531Y-2.4
X-6.4469Y-2.4
X-6.25Y-2.4
X-5.05Y-2.4
X-4.8531Y-2.4
X-4.3469Y-2.4
X-4.15Y-2.4
T4
X-8.3Y-2.6
X-8.3Y-2.7
T5
X-8.9Y-3.1
X-8.8996Y-2.9
X-8.6Y-3.9
X-8.6Y-4.0969
X-8.1Y-2.4
X-8.1Y-2.5
X-8.1Y-2.6
X-8.1Y-2.7
X-8.1Y-2.8
X-8.1Y-2.9
X-8.1Y-3.0
X-8.1Y-3.1
X-8.1Y-3.2
X-8.1Y-3.3
X-8.1Y-3.4
X-8.1Y-3.5
X-8.1Y-3.6
X-8.1Y-3.7
X-8.1Y-3.8
X-8.1Y-3.9
X-8.1Y-4.0
X-8.1Y-4.1
X-8.1Y-4.2
X-8.1Y-4.3
X-8.1Y-4.4
X-8.1Y-4.5
X-8.1Y-4.6
X-8.1Y-4.7
X-8.1Y-4.8
X-8.0Y-2.4
X-8.0Y-2.5
X-8.0Y-2.6
X-8.0Y-2.7
X-8.0Y-2.8
X-8.0Y-2.9
X-8.0Y-3.0
X-8.0Y-3.1
X-8.0Y-3.2
X-8.0Y-3.3
X-8.0Y-3.4
X-8.0Y-3.5
X-8.0Y-3.6
X-8.0Y-3.7
X-8.0Y-3.8
X-8.0Y-3.9
X-8.0Y-4.0
X-8.0Y-4.1
X-8.0Y-4.2
X-8.0Y-4.3
X-8.0Y-4.4
X-8.0Y-4.5
X-8.0Y-4.6
X-8.0Y-4.7
X-8.0Y-4.8
X-7.4Y-2.4
X-7.4Y-2.5
X-7.4Y-2.6
X-7.4Y-2.7
X-7.4Y-2.8
X-7.4Y-2.9
X-7.4Y-3.0
X-7.4Y-3.1
X-7.4Y-3.2
X-7.4Y-3.3
X-7.4Y-3.4
X-7.4Y-3.5
X-7.4Y-3.6
X-7.4Y-3.7
X-7.4Y-3.8
X-7.4Y-3.9
X-7.4Y-4.0
X-7.4Y-4.1
X-7.4Y-4.2
X-7.4Y-4.3
X-7.4Y-4.4
X-7.4Y-4.5
X-7.4Y-4.6
X-7.4Y-4.7
X-7.4Y-4.8
X-7.4Y-5.4
X-7.4Y-5.5
X-7.4Y-5.6
X-7.4Y-5.7
X-7.4Y-5.8
X-7.3Y-2.4
X-7.3Y-2.5
X-7.3Y-2.6
X-7.3Y-2.7
X-7.3Y-2.8
X-7.3Y-2.9
X-7.3Y-3.0
X-7.3Y-3.1
X-7.3Y-3.2
X-7.3Y-3.3
X-7.3Y-3.4
X-7.3Y-3.5
X-7.3Y-3.6
X-7.3Y-3.7
X-7.3Y-3.8
X-7.3Y-3.9
X-7.3Y-4.0
X-7.3Y-4.1
X-7.3Y-4.2
X-7.3Y-4.3
X-7.3Y-4.4
X-7.3Y-4.5
X-7.3Y-4.6
X-7.3Y-4.7
X-7.3Y-4.8
X-7.3Y-5.4
X-7.3Y-5.5
X-7.3Y-5.6
X-7.3Y-5.7
X-7.3Y-5.8
X-6.7Y-2.4
X-6.7Y-2.5
X-6.7Y-2.6
X-6.7Y-2.7
X-6.7Y-2.8
X-6.7Y-2.9
X-6.7Y-3.0
X-6.7Y-3.1
X-6.7Y-3.2
X-6.7Y-3.3
X-6.7Y-3.4
X-6.7Y-3.5
X-6.7Y-3.6
X-6.7Y-3.7
X-6.7Y-3.8
X-6.7Y-3.9
X-6.7Y-4.0
X-6.7Y-4.1
X-6.7Y-4.2
X-6.7Y-4.3
X-6.7Y-4.4
X-6.7Y-4.5
X-6.7Y-4.6
X-6.7Y-4.7
X-6.7Y-4.8
X-6.6Y-2.4
X-6.6Y-2.5
X-6.6Y-2.6
X-6.6Y-2.7
X-6.6Y-2.8
X-6.6Y-2.9
X-6.6Y-3.0
X-6.6Y-3.1
X-6.6Y-3.2
X-6.6Y-3.3
X-6.6Y-3.4
X-6.6Y-3.5
X-6.6Y-3.6
X-6.6Y-3.7
X-6.6Y-3.8
X-6.6Y-3.9
X-6.6Y-4.0
X-6.6Y-4.1
X-6.6Y-4.2
X-6.6Y-4.3
X-6.6Y-4.4
X-6.6Y-4.5
X-6.6Y-4.6
X-6.6Y-4.7
X-6.6Y-4.8
X-6.0Y-2.4
X-6.0Y-2.5
X-6.0Y-2.6
X-6.0Y-2.7
X-6.0Y-2.8
X-6.0Y-2.9
X-6.0Y-3.0
X-6.0Y-3.1
X-6.0Y-3.2
X-6.0Y-3.3
X-6.0Y-3.4
X-6.0Y-3.5
X-6.0Y-3.6
X-6.0Y-3.7
X-6.0Y-3.8
X-6.0Y-3.9
X-6.0Y-4.0
X-6.0Y-4.1
X-6.0Y-4.2
X-6.0Y-4.3
X-6.0Y-4.4
X-6.0Y-4.5
X-6.0Y-4.6
X-6.0Y-4.7
X-6.0Y-4.8
X-5.9Y-2.4
X-5.9Y-2.5
X-5.9Y-2.6
X-5.9Y-2.7
X-5.9Y-2.8
X-5.9Y-2.9
X-5.9Y-3.0
X-5.9Y-3.1
X-5.9Y-3.2
X-5.9Y-3.3
X-5.9Y-3.4
X-5.9Y-3.5
X-5.9Y-3.6
X-5.9Y-3.7
X-5.9Y-3.8
X-5.9Y-3.9
X-5.9Y-4.0
X-5.9Y-4.1
X-5.9Y-4.2
X-5.9Y-4.3
X-5.9Y-4.4
X-5.9Y-4.5
X-5.9Y-4.6
X-5.9Y-4.7
X-5.9Y-4.8
X-5.3Y-2.4
X-5.3Y-2.5
X-5.3Y-2.6
X-5.3Y-2.7
X-5.3Y-2.8
X-5.3Y-2.9
X-5.3Y-3.0
X-5.3Y-3.1
X-5.3Y-3.2
X-5.3Y-3.3
X-5.3Y-3.4
X-5.3Y-3.5
X-5.3Y-3.6
X-5.3Y-3.7
X-5.3Y-3.8
X-5.3Y-3.9
X-5.3Y-4.0
X-5.3Y-4.1
X-5.3Y-4.2
X-5.3Y-4.3
X-5.3Y-4.4
X-5.3Y-4.5
X-5.3Y-4.6
X-5.3Y-4.7
X-5.3Y-4.8
X-5.2Y-2.4
X-5.2Y-2.5
X-5.2Y-2.6
X-5.2Y-2.7
X-5.2Y-2.8
X-5.2Y-2.9
X-5.2Y-3.0
X-5.2Y-3.1
X-5.2Y-3.2
X-5.2Y-3.3
X-5.2Y-3.4
X-5.2Y-3.5
X-5.2Y-3.6
X-5.2Y-3.7
X-5.2Y-3.8
X-5.2Y-3.9
X-5.2Y-4.0
X-5.2Y-4.1
X-5.2Y-4.2
X-5.2Y-4.3
X-5.2Y-4.4
X-5.2Y-4.5
X-5.2Y-4.6
X-5.2Y-4.7
X-5.2Y-4.8
X-4.6Y-2.4
X-4.6Y-2.5
X-4.6Y-2.6
X-4.6Y-2.7
X-4.6Y-2.8
X-4.6Y-2.9
X-4.6Y-3.0
X-4.6Y-3.1
X-4.6Y-3.2
X-4.6Y-3.3
X-4.6Y-3.4
X-4.6Y-3.5
X-4.6Y-3.6
X-4.6Y-3.7
X-4.6Y-3.8
X-4.6Y-3.9
X-4.6Y-4.0
X-4.6Y-4.1
X-4.6Y-4.2
X-4.6Y-4.3
X-4.6Y-4.4
X-4.6Y-4.5
X-4.6Y-4.6
X-4.6Y-4.7
X-4.6Y-4.8
X-4.5Y-2.4
X-4.5Y-2.5
X-4.5Y-2.6
X-4.5Y-2.7
X-4.5Y-2.8
X-4.5Y-2.9
X-4.5Y-3.0
X-4.5Y-3.1
X-4.5Y-3.2
X-4.5Y-3.3
X-4.5Y-3.4
X-4.5Y-3.5
X-4.5Y-3.6
X-4.5Y-3.7
X-4.5Y-3.8
X-4.5Y-3.9
X-4.5Y-4.0
X-4.5Y-4.1
X-4.5Y-4.2
X-4.5Y-4.3
X-4.5Y-4.4
X-4.5Y-4.5
X-4.5Y-4.6
X-4.5Y-4.7
X-4.5Y-4.8
X-3.9Y-2.4
X-3.9Y-2.5
X-3.9Y-2.6
X-3.9Y-2.7
X-3.9Y-2.8
X-3.9Y-2.9
X-3.9Y-3.0
X-3.9Y-3.1
X-3.9Y-3.2
X-3.9Y-3.3
X-3.9Y-3.4
X-3.9Y-3.5
X-3.9Y-3.6
X-3.9Y-3.7
X-3.9Y-3.8
X-3.9Y-3.9
X-3.9Y-4.0
X-3.9Y-4.1
X-3.9Y-4.2
X-3.9Y-4.3
X-3.9Y-4.4
X-3.9Y-4.5
X-3.9Y-4.6
X-3.9Y-4.7
X-3.9Y-4.8
X-3.8Y-2.4
X-3.8Y-2.5
X-3.8Y-2.6
X-3.8Y-2.7
X-3.8Y-2.8
X-3.8Y-2.9
X-3.8Y-3.0
X-3.8Y-3.1
X-3.8Y-3.2
X-3.8Y-3.3
X-3.8Y-3.4
X-3.8Y-3.5
X-3.8Y-3.6
X-3.8Y-3.7
X-3.8Y-3.8
X-3.8Y-3.9
X-3.8Y-4.0
X-3.8Y-4.1
X-3.8Y-4.2
X-3.8Y-4.3
X-3.8Y-4.4
X-3.8Y-4.5
X-3.8Y-4.6
X-3.8Y-4.7
X-3.8Y-4.8
X-3.2Y-2.4
X-3.2Y-2.5
X-3.2Y-2.6
X-3.2Y-2.7
X-3.2Y-2.8
X-3.2Y-2.9
X-3.2Y-3.0
X-3.2Y-3.1
X-3.2Y-3.2
X-3.2Y-3.3
X-3.2Y-3.4
X-3.2Y-3.5
X-3.2Y-3.6
X-3.2Y-3.7
X-3.2Y-3.8
X-3.2Y-3.9
X-3.2Y-4.0
X-3.2Y-4.1
X-3.2Y-4.2
X-3.2Y-4.3
X-3.2Y-4.4
X-3.2Y-4.5
X-3.2Y-4.6
X-3.2Y-4.7
X-3.2Y-4.8
X-3.1Y-2.4
X-3.1Y-2.5
X-3.1Y-2.6
X-3.1Y-2.7
X-3.1Y-2.8
X-3.1Y-2.9
X-3.1Y-3.0
X-3.1Y-3.1
X-3.1Y-3.2
X-3.1Y-3.3
X-3.1Y-3.4
X-3.1Y-3.5
X-3.1Y-3.6
X-3.1Y-3.7
X-3.1Y-3.8
X-3.1Y-3.9
X-3.1Y-4.0
X-3.1Y-4.1
X-3.1Y-4.2
X-3.1Y-4.3
X-3.1Y-4.4
X-3.1Y-4.5
X-3.1Y-4.6
X-3.1Y-4.7
X-3.1Y-4.8
T6
X-8.8Y-3.5
X-8.7Y-3.5
X-8.6Y-2.9
X-8.6Y-3.2
X-8.6Y-3.5
T7
X-8.7921Y-4.9031
X-8.7921Y-5.1
X-8.3Y-4.9031
X-8.3Y-5.1
T8
X-9.2Y-2.9
T5
G00X-8.885Y-2.5425
M15
G01X-8.885Y-2.6213
M16
G05
G00X-8.6606Y-2.4638
M15
G01X-8.7394Y-2.4638
M16
G05
G00X-8.6606Y-2.7
M15
G01X-8.7394Y-2.7
M16
G05
T0
M30
