%TF.GenerationSoftware,KiCad,Pcbnew,5.1.9*%
%TF.CreationDate,2020-12-27T17:49:18+01:00*%
%TF.ProjectId,backplane_v1.0,6261636b-706c-4616-9e65-5f76312e302e,rev?*%
%TF.SameCoordinates,Original*%
%TF.FileFunction,Soldermask,Top*%
%TF.FilePolarity,Negative*%
%FSLAX46Y46*%
G04 Gerber Fmt 4.6, Leading zero omitted, Abs format (unit mm)*
G04 Created by KiCad (PCBNEW 5.1.9) date 2020-12-27 17:49:18*
%MOMM*%
%LPD*%
G01*
G04 APERTURE LIST*
%ADD10C,3.200000*%
%ADD11C,1.600000*%
%ADD12R,1.600000X1.600000*%
%ADD13O,2.400000X1.600000*%
%ADD14R,2.400000X1.600000*%
%ADD15O,1.700000X1.700000*%
%ADD16R,1.700000X1.700000*%
%ADD17R,1.500000X1.050000*%
%ADD18O,1.500000X1.050000*%
%ADD19O,1.905000X2.000000*%
%ADD20R,1.905000X2.000000*%
%ADD21C,2.800000*%
%ADD22O,3.048000X1.850000*%
%ADD23O,1.600000X1.600000*%
%ADD24R,3.500000X3.500000*%
%ADD25C,2.000000*%
%ADD26O,2.200000X2.200000*%
%ADD27R,2.200000X2.200000*%
%ADD28C,1.800000*%
%ADD29R,1.800000X1.800000*%
%ADD30R,2.000000X2.000000*%
G04 APERTURE END LIST*
D10*
%TO.C,REF\u002A\u002A*%
X-89000000Y-62000000D03*
%TD*%
%TO.C,REF\u002A\u002A*%
X-80000000Y-146000000D03*
%TD*%
%TO.C,REF\u002A\u002A*%
X-232000000Y-146000000D03*
%TD*%
%TO.C,REF\u002A\u002A*%
X-232000000Y-61000000D03*
%TD*%
D11*
%TO.C,C7*%
X-123270000Y-60960000D03*
D12*
X-128270000Y-60960000D03*
%TD*%
D11*
%TO.C,C5*%
X-176610000Y-60960000D03*
D12*
X-181610000Y-60960000D03*
%TD*%
D13*
%TO.C,X1*%
X-213360000Y-139700000D03*
X-220980000Y-147320000D03*
X-213360000Y-142240000D03*
X-220980000Y-144780000D03*
X-213360000Y-144780000D03*
X-220980000Y-142240000D03*
X-213360000Y-147320000D03*
D14*
X-220980000Y-139700000D03*
%TD*%
D11*
%TO.C,C8*%
X-110410000Y-60960000D03*
X-105410000Y-60960000D03*
%TD*%
%TO.C,C6*%
X-163750000Y-60960000D03*
X-158750000Y-60960000D03*
%TD*%
D15*
%TO.C,J3a1*%
X-187960000Y-147320000D03*
X-185420000Y-147320000D03*
X-187960000Y-144780000D03*
X-185420000Y-144780000D03*
X-187960000Y-142240000D03*
X-185420000Y-142240000D03*
X-187960000Y-139700000D03*
X-185420000Y-139700000D03*
X-187960000Y-137160000D03*
D16*
X-185420000Y-137160000D03*
%TD*%
D15*
%TO.C,J9*%
X-81280000Y-121920000D03*
X-78740000Y-121920000D03*
X-81280000Y-119380000D03*
X-78740000Y-119380000D03*
X-81280000Y-116840000D03*
X-78740000Y-116840000D03*
X-81280000Y-114300000D03*
X-78740000Y-114300000D03*
X-81280000Y-111760000D03*
X-78740000Y-111760000D03*
X-81280000Y-109220000D03*
X-78740000Y-109220000D03*
X-81280000Y-106680000D03*
X-78740000Y-106680000D03*
X-81280000Y-104140000D03*
X-78740000Y-104140000D03*
X-81280000Y-101600000D03*
X-78740000Y-101600000D03*
X-81280000Y-99060000D03*
X-78740000Y-99060000D03*
X-81280000Y-96520000D03*
X-78740000Y-96520000D03*
X-81280000Y-93980000D03*
X-78740000Y-93980000D03*
X-81280000Y-91440000D03*
X-78740000Y-91440000D03*
X-81280000Y-88900000D03*
X-78740000Y-88900000D03*
X-81280000Y-86360000D03*
X-78740000Y-86360000D03*
X-81280000Y-83820000D03*
X-78740000Y-83820000D03*
X-81280000Y-81280000D03*
X-78740000Y-81280000D03*
X-81280000Y-78740000D03*
X-78740000Y-78740000D03*
X-81280000Y-76200000D03*
X-78740000Y-76200000D03*
X-81280000Y-73660000D03*
X-78740000Y-73660000D03*
X-81280000Y-71120000D03*
X-78740000Y-71120000D03*
X-81280000Y-68580000D03*
X-78740000Y-68580000D03*
X-81280000Y-66040000D03*
X-78740000Y-66040000D03*
X-81280000Y-63500000D03*
X-78740000Y-63500000D03*
X-81280000Y-60960000D03*
D16*
X-78740000Y-60960000D03*
%TD*%
D15*
%TO.C,J8*%
X-99060000Y-121920000D03*
X-96520000Y-121920000D03*
X-99060000Y-119380000D03*
X-96520000Y-119380000D03*
X-99060000Y-116840000D03*
X-96520000Y-116840000D03*
X-99060000Y-114300000D03*
X-96520000Y-114300000D03*
X-99060000Y-111760000D03*
X-96520000Y-111760000D03*
X-99060000Y-109220000D03*
X-96520000Y-109220000D03*
X-99060000Y-106680000D03*
X-96520000Y-106680000D03*
X-99060000Y-104140000D03*
X-96520000Y-104140000D03*
X-99060000Y-101600000D03*
X-96520000Y-101600000D03*
X-99060000Y-99060000D03*
X-96520000Y-99060000D03*
X-99060000Y-96520000D03*
X-96520000Y-96520000D03*
X-99060000Y-93980000D03*
X-96520000Y-93980000D03*
X-99060000Y-91440000D03*
X-96520000Y-91440000D03*
X-99060000Y-88900000D03*
X-96520000Y-88900000D03*
X-99060000Y-86360000D03*
X-96520000Y-86360000D03*
X-99060000Y-83820000D03*
X-96520000Y-83820000D03*
X-99060000Y-81280000D03*
X-96520000Y-81280000D03*
X-99060000Y-78740000D03*
X-96520000Y-78740000D03*
X-99060000Y-76200000D03*
X-96520000Y-76200000D03*
X-99060000Y-73660000D03*
X-96520000Y-73660000D03*
X-99060000Y-71120000D03*
X-96520000Y-71120000D03*
X-99060000Y-68580000D03*
X-96520000Y-68580000D03*
X-99060000Y-66040000D03*
X-96520000Y-66040000D03*
X-99060000Y-63500000D03*
X-96520000Y-63500000D03*
X-99060000Y-60960000D03*
D16*
X-96520000Y-60960000D03*
%TD*%
D15*
%TO.C,J5*%
X-152400000Y-121920000D03*
X-149860000Y-121920000D03*
X-152400000Y-119380000D03*
X-149860000Y-119380000D03*
X-152400000Y-116840000D03*
X-149860000Y-116840000D03*
X-152400000Y-114300000D03*
X-149860000Y-114300000D03*
X-152400000Y-111760000D03*
X-149860000Y-111760000D03*
X-152400000Y-109220000D03*
X-149860000Y-109220000D03*
X-152400000Y-106680000D03*
X-149860000Y-106680000D03*
X-152400000Y-104140000D03*
X-149860000Y-104140000D03*
X-152400000Y-101600000D03*
X-149860000Y-101600000D03*
X-152400000Y-99060000D03*
X-149860000Y-99060000D03*
X-152400000Y-96520000D03*
X-149860000Y-96520000D03*
X-152400000Y-93980000D03*
X-149860000Y-93980000D03*
X-152400000Y-91440000D03*
X-149860000Y-91440000D03*
X-152400000Y-88900000D03*
X-149860000Y-88900000D03*
X-152400000Y-86360000D03*
X-149860000Y-86360000D03*
X-152400000Y-83820000D03*
X-149860000Y-83820000D03*
X-152400000Y-81280000D03*
X-149860000Y-81280000D03*
X-152400000Y-78740000D03*
X-149860000Y-78740000D03*
X-152400000Y-76200000D03*
X-149860000Y-76200000D03*
X-152400000Y-73660000D03*
X-149860000Y-73660000D03*
X-152400000Y-71120000D03*
X-149860000Y-71120000D03*
X-152400000Y-68580000D03*
X-149860000Y-68580000D03*
X-152400000Y-66040000D03*
X-149860000Y-66040000D03*
X-152400000Y-63500000D03*
X-149860000Y-63500000D03*
X-152400000Y-60960000D03*
D16*
X-149860000Y-60960000D03*
%TD*%
D15*
%TO.C,J3*%
X-187960000Y-121920000D03*
X-185420000Y-121920000D03*
X-187960000Y-119380000D03*
X-185420000Y-119380000D03*
X-187960000Y-116840000D03*
X-185420000Y-116840000D03*
X-187960000Y-114300000D03*
X-185420000Y-114300000D03*
X-187960000Y-111760000D03*
X-185420000Y-111760000D03*
X-187960000Y-109220000D03*
X-185420000Y-109220000D03*
X-187960000Y-106680000D03*
X-185420000Y-106680000D03*
X-187960000Y-104140000D03*
X-185420000Y-104140000D03*
X-187960000Y-101600000D03*
X-185420000Y-101600000D03*
X-187960000Y-99060000D03*
X-185420000Y-99060000D03*
X-187960000Y-96520000D03*
X-185420000Y-96520000D03*
X-187960000Y-93980000D03*
X-185420000Y-93980000D03*
X-187960000Y-91440000D03*
X-185420000Y-91440000D03*
X-187960000Y-88900000D03*
X-185420000Y-88900000D03*
X-187960000Y-86360000D03*
X-185420000Y-86360000D03*
X-187960000Y-83820000D03*
X-185420000Y-83820000D03*
X-187960000Y-81280000D03*
X-185420000Y-81280000D03*
X-187960000Y-78740000D03*
X-185420000Y-78740000D03*
X-187960000Y-76200000D03*
X-185420000Y-76200000D03*
X-187960000Y-73660000D03*
X-185420000Y-73660000D03*
X-187960000Y-71120000D03*
X-185420000Y-71120000D03*
X-187960000Y-68580000D03*
X-185420000Y-68580000D03*
X-187960000Y-66040000D03*
X-185420000Y-66040000D03*
X-187960000Y-63500000D03*
X-185420000Y-63500000D03*
X-187960000Y-60960000D03*
D16*
X-185420000Y-60960000D03*
%TD*%
D15*
%TO.C,J7*%
X-116840000Y-121920000D03*
X-114300000Y-121920000D03*
X-116840000Y-119380000D03*
X-114300000Y-119380000D03*
X-116840000Y-116840000D03*
X-114300000Y-116840000D03*
X-116840000Y-114300000D03*
X-114300000Y-114300000D03*
X-116840000Y-111760000D03*
X-114300000Y-111760000D03*
X-116840000Y-109220000D03*
X-114300000Y-109220000D03*
X-116840000Y-106680000D03*
X-114300000Y-106680000D03*
X-116840000Y-104140000D03*
X-114300000Y-104140000D03*
X-116840000Y-101600000D03*
X-114300000Y-101600000D03*
X-116840000Y-99060000D03*
X-114300000Y-99060000D03*
X-116840000Y-96520000D03*
X-114300000Y-96520000D03*
X-116840000Y-93980000D03*
X-114300000Y-93980000D03*
X-116840000Y-91440000D03*
X-114300000Y-91440000D03*
X-116840000Y-88900000D03*
X-114300000Y-88900000D03*
X-116840000Y-86360000D03*
X-114300000Y-86360000D03*
X-116840000Y-83820000D03*
X-114300000Y-83820000D03*
X-116840000Y-81280000D03*
X-114300000Y-81280000D03*
X-116840000Y-78740000D03*
X-114300000Y-78740000D03*
X-116840000Y-76200000D03*
X-114300000Y-76200000D03*
X-116840000Y-73660000D03*
X-114300000Y-73660000D03*
X-116840000Y-71120000D03*
X-114300000Y-71120000D03*
X-116840000Y-68580000D03*
X-114300000Y-68580000D03*
X-116840000Y-66040000D03*
X-114300000Y-66040000D03*
X-116840000Y-63500000D03*
X-114300000Y-63500000D03*
X-116840000Y-60960000D03*
D16*
X-114300000Y-60960000D03*
%TD*%
D15*
%TO.C,J6*%
X-134620000Y-121920000D03*
X-132080000Y-121920000D03*
X-134620000Y-119380000D03*
X-132080000Y-119380000D03*
X-134620000Y-116840000D03*
X-132080000Y-116840000D03*
X-134620000Y-114300000D03*
X-132080000Y-114300000D03*
X-134620000Y-111760000D03*
X-132080000Y-111760000D03*
X-134620000Y-109220000D03*
X-132080000Y-109220000D03*
X-134620000Y-106680000D03*
X-132080000Y-106680000D03*
X-134620000Y-104140000D03*
X-132080000Y-104140000D03*
X-134620000Y-101600000D03*
X-132080000Y-101600000D03*
X-134620000Y-99060000D03*
X-132080000Y-99060000D03*
X-134620000Y-96520000D03*
X-132080000Y-96520000D03*
X-134620000Y-93980000D03*
X-132080000Y-93980000D03*
X-134620000Y-91440000D03*
X-132080000Y-91440000D03*
X-134620000Y-88900000D03*
X-132080000Y-88900000D03*
X-134620000Y-86360000D03*
X-132080000Y-86360000D03*
X-134620000Y-83820000D03*
X-132080000Y-83820000D03*
X-134620000Y-81280000D03*
X-132080000Y-81280000D03*
X-134620000Y-78740000D03*
X-132080000Y-78740000D03*
X-134620000Y-76200000D03*
X-132080000Y-76200000D03*
X-134620000Y-73660000D03*
X-132080000Y-73660000D03*
X-134620000Y-71120000D03*
X-132080000Y-71120000D03*
X-134620000Y-68580000D03*
X-132080000Y-68580000D03*
X-134620000Y-66040000D03*
X-132080000Y-66040000D03*
X-134620000Y-63500000D03*
X-132080000Y-63500000D03*
X-134620000Y-60960000D03*
D16*
X-132080000Y-60960000D03*
%TD*%
D15*
%TO.C,J4*%
X-170180000Y-121920000D03*
X-167640000Y-121920000D03*
X-170180000Y-119380000D03*
X-167640000Y-119380000D03*
X-170180000Y-116840000D03*
X-167640000Y-116840000D03*
X-170180000Y-114300000D03*
X-167640000Y-114300000D03*
X-170180000Y-111760000D03*
X-167640000Y-111760000D03*
X-170180000Y-109220000D03*
X-167640000Y-109220000D03*
X-170180000Y-106680000D03*
X-167640000Y-106680000D03*
X-170180000Y-104140000D03*
X-167640000Y-104140000D03*
X-170180000Y-101600000D03*
X-167640000Y-101600000D03*
X-170180000Y-99060000D03*
X-167640000Y-99060000D03*
X-170180000Y-96520000D03*
X-167640000Y-96520000D03*
X-170180000Y-93980000D03*
X-167640000Y-93980000D03*
X-170180000Y-91440000D03*
X-167640000Y-91440000D03*
X-170180000Y-88900000D03*
X-167640000Y-88900000D03*
X-170180000Y-86360000D03*
X-167640000Y-86360000D03*
X-170180000Y-83820000D03*
X-167640000Y-83820000D03*
X-170180000Y-81280000D03*
X-167640000Y-81280000D03*
X-170180000Y-78740000D03*
X-167640000Y-78740000D03*
X-170180000Y-76200000D03*
X-167640000Y-76200000D03*
X-170180000Y-73660000D03*
X-167640000Y-73660000D03*
X-170180000Y-71120000D03*
X-167640000Y-71120000D03*
X-170180000Y-68580000D03*
X-167640000Y-68580000D03*
X-170180000Y-66040000D03*
X-167640000Y-66040000D03*
X-170180000Y-63500000D03*
X-167640000Y-63500000D03*
X-170180000Y-60960000D03*
D16*
X-167640000Y-60960000D03*
%TD*%
D15*
%TO.C,J2*%
X-205740000Y-121920000D03*
X-203200000Y-121920000D03*
X-205740000Y-119380000D03*
X-203200000Y-119380000D03*
X-205740000Y-116840000D03*
X-203200000Y-116840000D03*
X-205740000Y-114300000D03*
X-203200000Y-114300000D03*
X-205740000Y-111760000D03*
X-203200000Y-111760000D03*
X-205740000Y-109220000D03*
X-203200000Y-109220000D03*
X-205740000Y-106680000D03*
X-203200000Y-106680000D03*
X-205740000Y-104140000D03*
X-203200000Y-104140000D03*
X-205740000Y-101600000D03*
X-203200000Y-101600000D03*
X-205740000Y-99060000D03*
X-203200000Y-99060000D03*
X-205740000Y-96520000D03*
X-203200000Y-96520000D03*
X-205740000Y-93980000D03*
X-203200000Y-93980000D03*
X-205740000Y-91440000D03*
X-203200000Y-91440000D03*
X-205740000Y-88900000D03*
X-203200000Y-88900000D03*
X-205740000Y-86360000D03*
X-203200000Y-86360000D03*
X-205740000Y-83820000D03*
X-203200000Y-83820000D03*
X-205740000Y-81280000D03*
X-203200000Y-81280000D03*
X-205740000Y-78740000D03*
X-203200000Y-78740000D03*
X-205740000Y-76200000D03*
X-203200000Y-76200000D03*
X-205740000Y-73660000D03*
X-203200000Y-73660000D03*
X-205740000Y-71120000D03*
X-203200000Y-71120000D03*
X-205740000Y-68580000D03*
X-203200000Y-68580000D03*
X-205740000Y-66040000D03*
X-203200000Y-66040000D03*
X-205740000Y-63500000D03*
X-203200000Y-63500000D03*
X-205740000Y-60960000D03*
D16*
X-203200000Y-60960000D03*
%TD*%
D13*
%TO.C,U3*%
X-198120000Y-132080000D03*
X-205740000Y-147320000D03*
X-198120000Y-134620000D03*
X-205740000Y-144780000D03*
X-198120000Y-137160000D03*
X-205740000Y-142240000D03*
X-198120000Y-139700000D03*
X-205740000Y-139700000D03*
X-198120000Y-142240000D03*
X-205740000Y-137160000D03*
X-198120000Y-144780000D03*
X-205740000Y-134620000D03*
X-198120000Y-147320000D03*
D14*
X-205740000Y-132080000D03*
%TD*%
D17*
%TO.C,U2*%
X-213360000Y-116840000D03*
D18*
X-213360000Y-114300000D03*
X-213360000Y-115570000D03*
%TD*%
D19*
%TO.C,U1*%
X-218440000Y-88900000D03*
X-220980000Y-88900000D03*
D20*
X-223520000Y-88900000D03*
%TD*%
D21*
%TO.C,TP1*%
X-233680000Y-73660000D03*
%TD*%
D22*
%TO.C,SW1*%
X-210820000Y-124540000D03*
X-210820000Y-129540000D03*
X-223320000Y-124540000D03*
X-223320000Y-129540000D03*
%TD*%
D23*
%TO.C,R2*%
X-223520000Y-109220000D03*
D11*
X-223520000Y-119380000D03*
%TD*%
D23*
%TO.C,R1*%
X-210820000Y-83820000D03*
D11*
X-210820000Y-73660000D03*
%TD*%
%TO.C,J1*%
G36*
G01*
X-226555000Y-63830000D02*
X-224805000Y-63830000D01*
G75*
G02*
X-223930000Y-64705000I0J-875000D01*
G01*
X-223930000Y-66455000D01*
G75*
G02*
X-224805000Y-67330000I-875000J0D01*
G01*
X-226555000Y-67330000D01*
G75*
G02*
X-227430000Y-66455000I0J875000D01*
G01*
X-227430000Y-64705000D01*
G75*
G02*
X-226555000Y-63830000I875000J0D01*
G01*
G37*
G36*
G01*
X-221980000Y-61080000D02*
X-219980000Y-61080000D01*
G75*
G02*
X-219230000Y-61830000I0J-750000D01*
G01*
X-219230000Y-63330000D01*
G75*
G02*
X-219980000Y-64080000I-750000J0D01*
G01*
X-221980000Y-64080000D01*
G75*
G02*
X-222730000Y-63330000I0J750000D01*
G01*
X-222730000Y-61830000D01*
G75*
G02*
X-221980000Y-61080000I750000J0D01*
G01*
G37*
D24*
X-220980000Y-68580000D03*
%TD*%
D25*
%TO.C,F1*%
X-226050000Y-73660000D03*
X-226060000Y-78740000D03*
%TD*%
D26*
%TO.C,D2*%
X-218440000Y-73660000D03*
D27*
X-218440000Y-81280000D03*
%TD*%
D28*
%TO.C,D1*%
X-210820000Y-66040000D03*
D29*
X-210820000Y-68580000D03*
%TD*%
D25*
%TO.C,C4*%
X-218440000Y-104060000D03*
D30*
X-218440000Y-99060000D03*
%TD*%
D11*
%TO.C,C3*%
X-213440000Y-93980000D03*
X-218440000Y-93980000D03*
%TD*%
%TO.C,C2*%
X-221060000Y-93980000D03*
X-226060000Y-93980000D03*
%TD*%
%TO.C,C1*%
X-203120000Y-127000000D03*
X-198120000Y-127000000D03*
%TD*%
M02*
