M48
; DRILL file {KiCad 5.1.9} date Mon Feb  1 09:54:11 2021
; FORMAT={-:-/ absolute / inch / decimal}
; #@! TF.CreationDate,2021-02-01T09:54:11+01:00
; #@! TF.GenerationSoftware,Kicad,Pcbnew,5.1.9
; #@! TF.FileFunction,Plated,1,4,PTH
FMAT,2
INCH
T1C0.0160
T2C0.0315
T3C0.0354
T4C0.0394
T5C0.0433
T6C0.0512
T7C0.0551
%
G90
G05
T1
X3.8Y-4.425
X3.8Y-4.825
X4.05Y-4.325
X4.05Y-4.725
X4.1Y-4.425
X4.15Y-2.725
X4.15Y-4.725
X4.2Y-2.925
X4.35Y-2.775
X4.35Y-4.425
X4.35Y-4.825
X4.45Y-3.975
X4.45Y-4.725
X4.5Y-4.025
X4.5Y-4.625
X4.55Y-4.075
X4.55Y-4.525
X4.65Y-4.125
X5.025Y-2.275
X5.025Y-4.725
X5.075Y-3.925
X5.075Y-4.625
X5.125Y-4.175
X5.125Y-4.825
X5.55Y-3.125
X5.55Y-4.425
X5.6Y-3.225
X5.6Y-4.525
X5.725Y-2.275
X5.725Y-3.925
X6.425Y-2.275
X6.425Y-3.975
X6.475Y-2.375
X6.475Y-4.175
X7.125Y-2.275
X7.125Y-4.025
X7.825Y-2.275
X7.825Y-4.075
X8.525Y-2.275
X8.525Y-4.125
T2
X2.85Y-3.675
X3.15Y-2.925
X3.25Y-3.3
X3.25Y-3.3984
X3.25Y-3.675
X3.3469Y-2.925
X3.35Y-4.525
X3.35Y-4.625
X3.35Y-4.725
X3.35Y-4.825
X3.45Y-2.925
X3.6469Y-2.925
X3.65Y-3.925
X3.65Y-4.025
X3.65Y-4.125
X3.65Y-4.525
X3.65Y-4.625
X3.65Y-4.725
X3.65Y-4.825
X3.75Y-1.925
X3.75Y-2.325
X3.95Y-4.225
X3.95Y-4.325
X3.95Y-4.425
X3.95Y-4.525
X3.95Y-4.625
X3.95Y-4.725
X3.95Y-4.825
X4.0531Y-4.025
X4.25Y-4.025
X4.25Y-4.225
X4.25Y-4.325
X4.25Y-4.425
X4.25Y-4.525
X4.25Y-4.625
X4.25Y-4.725
X4.25Y-4.825
X5.0Y-1.425
X5.0984Y-1.425
X5.6031Y-1.425
X5.8Y-1.425
X7.1Y-1.425
X7.1984Y-1.425
X7.7031Y-1.425
X7.9Y-1.425
T3
X3.75Y-1.625
X3.75Y-1.725
T4
X3.15Y-2.125
X3.1504Y-1.925
X3.95Y-1.425
X3.95Y-1.525
X3.95Y-1.625
X3.95Y-1.725
X3.95Y-1.825
X3.95Y-1.925
X3.95Y-2.025
X3.95Y-2.125
X3.95Y-2.225
X3.95Y-2.325
X3.95Y-2.425
X3.95Y-2.525
X3.95Y-2.625
X3.95Y-2.725
X3.95Y-2.825
X3.95Y-2.925
X3.95Y-3.025
X3.95Y-3.125
X3.95Y-3.225
X3.95Y-3.325
X3.95Y-3.425
X3.95Y-3.525
X3.95Y-3.625
X3.95Y-3.725
X3.95Y-3.825
X4.05Y-1.425
X4.05Y-1.525
X4.05Y-1.625
X4.05Y-1.725
X4.05Y-1.825
X4.05Y-1.925
X4.05Y-2.025
X4.05Y-2.125
X4.05Y-2.225
X4.05Y-2.325
X4.05Y-2.425
X4.05Y-2.525
X4.05Y-2.625
X4.05Y-2.725
X4.05Y-2.825
X4.05Y-2.925
X4.05Y-3.025
X4.05Y-3.125
X4.05Y-3.225
X4.05Y-3.325
X4.05Y-3.425
X4.05Y-3.525
X4.05Y-3.625
X4.05Y-3.725
X4.05Y-3.825
X4.65Y-1.425
X4.65Y-1.525
X4.65Y-1.625
X4.65Y-1.725
X4.65Y-1.825
X4.65Y-1.925
X4.65Y-2.025
X4.65Y-2.125
X4.65Y-2.225
X4.65Y-2.325
X4.65Y-2.425
X4.65Y-2.525
X4.65Y-2.625
X4.65Y-2.725
X4.65Y-2.825
X4.65Y-2.925
X4.65Y-3.025
X4.65Y-3.125
X4.65Y-3.225
X4.65Y-3.325
X4.65Y-3.425
X4.65Y-3.525
X4.65Y-3.625
X4.65Y-3.725
X4.65Y-3.825
X4.65Y-4.425
X4.65Y-4.525
X4.65Y-4.625
X4.65Y-4.725
X4.65Y-4.825
X4.75Y-1.425
X4.75Y-1.525
X4.75Y-1.625
X4.75Y-1.725
X4.75Y-1.825
X4.75Y-1.925
X4.75Y-2.025
X4.75Y-2.125
X4.75Y-2.225
X4.75Y-2.325
X4.75Y-2.425
X4.75Y-2.525
X4.75Y-2.625
X4.75Y-2.725
X4.75Y-2.825
X4.75Y-2.925
X4.75Y-3.025
X4.75Y-3.125
X4.75Y-3.225
X4.75Y-3.325
X4.75Y-3.425
X4.75Y-3.525
X4.75Y-3.625
X4.75Y-3.725
X4.75Y-3.825
X4.75Y-4.425
X4.75Y-4.525
X4.75Y-4.625
X4.75Y-4.725
X4.75Y-4.825
X5.35Y-1.425
X5.35Y-1.525
X5.35Y-1.625
X5.35Y-1.725
X5.35Y-1.825
X5.35Y-1.925
X5.35Y-2.025
X5.35Y-2.125
X5.35Y-2.225
X5.35Y-2.325
X5.35Y-2.425
X5.35Y-2.525
X5.35Y-2.625
X5.35Y-2.725
X5.35Y-2.825
X5.35Y-2.925
X5.35Y-3.025
X5.35Y-3.125
X5.35Y-3.225
X5.35Y-3.325
X5.35Y-3.425
X5.35Y-3.525
X5.35Y-3.625
X5.35Y-3.725
X5.35Y-3.825
X5.45Y-1.425
X5.45Y-1.525
X5.45Y-1.625
X5.45Y-1.725
X5.45Y-1.825
X5.45Y-1.925
X5.45Y-2.025
X5.45Y-2.125
X5.45Y-2.225
X5.45Y-2.325
X5.45Y-2.425
X5.45Y-2.525
X5.45Y-2.625
X5.45Y-2.725
X5.45Y-2.825
X5.45Y-2.925
X5.45Y-3.025
X5.45Y-3.125
X5.45Y-3.225
X5.45Y-3.325
X5.45Y-3.425
X5.45Y-3.525
X5.45Y-3.625
X5.45Y-3.725
X5.45Y-3.825
X6.05Y-1.425
X6.05Y-1.525
X6.05Y-1.625
X6.05Y-1.725
X6.05Y-1.825
X6.05Y-1.925
X6.05Y-2.025
X6.05Y-2.125
X6.05Y-2.225
X6.05Y-2.325
X6.05Y-2.425
X6.05Y-2.525
X6.05Y-2.625
X6.05Y-2.725
X6.05Y-2.825
X6.05Y-2.925
X6.05Y-3.025
X6.05Y-3.125
X6.05Y-3.225
X6.05Y-3.325
X6.05Y-3.425
X6.05Y-3.525
X6.05Y-3.625
X6.05Y-3.725
X6.05Y-3.825
X6.15Y-1.425
X6.15Y-1.525
X6.15Y-1.625
X6.15Y-1.725
X6.15Y-1.825
X6.15Y-1.925
X6.15Y-2.025
X6.15Y-2.125
X6.15Y-2.225
X6.15Y-2.325
X6.15Y-2.425
X6.15Y-2.525
X6.15Y-2.625
X6.15Y-2.725
X6.15Y-2.825
X6.15Y-2.925
X6.15Y-3.025
X6.15Y-3.125
X6.15Y-3.225
X6.15Y-3.325
X6.15Y-3.425
X6.15Y-3.525
X6.15Y-3.625
X6.15Y-3.725
X6.15Y-3.825
X6.75Y-1.425
X6.75Y-1.525
X6.75Y-1.625
X6.75Y-1.725
X6.75Y-1.825
X6.75Y-1.925
X6.75Y-2.025
X6.75Y-2.125
X6.75Y-2.225
X6.75Y-2.325
X6.75Y-2.425
X6.75Y-2.525
X6.75Y-2.625
X6.75Y-2.725
X6.75Y-2.825
X6.75Y-2.925
X6.75Y-3.025
X6.75Y-3.125
X6.75Y-3.225
X6.75Y-3.325
X6.75Y-3.425
X6.75Y-3.525
X6.75Y-3.625
X6.75Y-3.725
X6.75Y-3.825
X6.85Y-1.425
X6.85Y-1.525
X6.85Y-1.625
X6.85Y-1.725
X6.85Y-1.825
X6.85Y-1.925
X6.85Y-2.025
X6.85Y-2.125
X6.85Y-2.225
X6.85Y-2.325
X6.85Y-2.425
X6.85Y-2.525
X6.85Y-2.625
X6.85Y-2.725
X6.85Y-2.825
X6.85Y-2.925
X6.85Y-3.025
X6.85Y-3.125
X6.85Y-3.225
X6.85Y-3.325
X6.85Y-3.425
X6.85Y-3.525
X6.85Y-3.625
X6.85Y-3.725
X6.85Y-3.825
X7.45Y-1.425
X7.45Y-1.525
X7.45Y-1.625
X7.45Y-1.725
X7.45Y-1.825
X7.45Y-1.925
X7.45Y-2.025
X7.45Y-2.125
X7.45Y-2.225
X7.45Y-2.325
X7.45Y-2.425
X7.45Y-2.525
X7.45Y-2.625
X7.45Y-2.725
X7.45Y-2.825
X7.45Y-2.925
X7.45Y-3.025
X7.45Y-3.125
X7.45Y-3.225
X7.45Y-3.325
X7.45Y-3.425
X7.45Y-3.525
X7.45Y-3.625
X7.45Y-3.725
X7.45Y-3.825
X7.55Y-1.425
X7.55Y-1.525
X7.55Y-1.625
X7.55Y-1.725
X7.55Y-1.825
X7.55Y-1.925
X7.55Y-2.025
X7.55Y-2.125
X7.55Y-2.225
X7.55Y-2.325
X7.55Y-2.425
X7.55Y-2.525
X7.55Y-2.625
X7.55Y-2.725
X7.55Y-2.825
X7.55Y-2.925
X7.55Y-3.025
X7.55Y-3.125
X7.55Y-3.225
X7.55Y-3.325
X7.55Y-3.425
X7.55Y-3.525
X7.55Y-3.625
X7.55Y-3.725
X7.55Y-3.825
X8.15Y-1.425
X8.15Y-1.525
X8.15Y-1.625
X8.15Y-1.725
X8.15Y-1.825
X8.15Y-1.925
X8.15Y-2.025
X8.15Y-2.125
X8.15Y-2.225
X8.15Y-2.325
X8.15Y-2.425
X8.15Y-2.525
X8.15Y-2.625
X8.15Y-2.725
X8.15Y-2.825
X8.15Y-2.925
X8.15Y-3.025
X8.15Y-3.125
X8.15Y-3.225
X8.15Y-3.325
X8.15Y-3.425
X8.15Y-3.525
X8.15Y-3.625
X8.15Y-3.725
X8.15Y-3.825
X8.25Y-1.425
X8.25Y-1.525
X8.25Y-1.625
X8.25Y-1.725
X8.25Y-1.825
X8.25Y-1.925
X8.25Y-2.025
X8.25Y-2.125
X8.25Y-2.225
X8.25Y-2.325
X8.25Y-2.425
X8.25Y-2.525
X8.25Y-2.625
X8.25Y-2.725
X8.25Y-2.825
X8.25Y-2.925
X8.25Y-3.025
X8.25Y-3.125
X8.25Y-3.225
X8.25Y-3.325
X8.25Y-3.425
X8.25Y-3.525
X8.25Y-3.625
X8.25Y-3.725
X8.25Y-3.825
X8.85Y-1.425
X8.85Y-1.525
X8.85Y-1.625
X8.85Y-1.725
X8.85Y-1.825
X8.85Y-1.925
X8.85Y-2.025
X8.85Y-2.125
X8.85Y-2.225
X8.85Y-2.325
X8.85Y-2.425
X8.85Y-2.525
X8.85Y-2.625
X8.85Y-2.725
X8.85Y-2.825
X8.85Y-2.925
X8.85Y-3.025
X8.85Y-3.125
X8.85Y-3.225
X8.85Y-3.325
X8.85Y-3.425
X8.85Y-3.525
X8.85Y-3.625
X8.85Y-3.725
X8.85Y-3.825
X8.95Y-1.425
X8.95Y-1.525
X8.95Y-1.625
X8.95Y-1.725
X8.95Y-1.825
X8.95Y-1.925
X8.95Y-2.025
X8.95Y-2.125
X8.95Y-2.225
X8.95Y-2.325
X8.95Y-2.425
X8.95Y-2.525
X8.95Y-2.625
X8.95Y-2.725
X8.95Y-2.825
X8.95Y-2.925
X8.95Y-3.025
X8.95Y-3.125
X8.95Y-3.225
X8.95Y-3.325
X8.95Y-3.425
X8.95Y-3.525
X8.95Y-3.625
X8.95Y-3.725
X8.95Y-3.825
T5
X3.25Y-2.725
X3.35Y-2.725
X3.45Y-1.925
X3.45Y-2.225
X3.45Y-2.725
T6
X2.8579Y-3.9281
X2.8579Y-4.125
X3.35Y-3.9281
X3.35Y-4.125
T7
X2.85Y-1.925
T4
G00X3.165Y-1.5675
M15
G01X3.165Y-1.6463
M16
G05
G00X3.3894Y-1.4888
M15
G01X3.3106Y-1.4888
M16
G05
G00X3.3894Y-1.725
M15
G01X3.3106Y-1.725
M16
G05
T0
M30
