%TF.GenerationSoftware,KiCad,Pcbnew,5.1.9*%
%TF.CreationDate,2021-02-01T09:54:16+01:00*%
%TF.ProjectId,backplane_v2.0,6261636b-706c-4616-9e65-5f76322e302e,v2.0*%
%TF.SameCoordinates,Original*%
%TF.FileFunction,Soldermask,Bot*%
%TF.FilePolarity,Negative*%
%FSLAX46Y46*%
G04 Gerber Fmt 4.6, Leading zero omitted, Abs format (unit mm)*
G04 Created by KiCad (PCBNEW 5.1.9) date 2021-02-01 09:54:16*
%MOMM*%
%LPD*%
G01*
G04 APERTURE LIST*
%ADD10C,1.600000*%
%ADD11R,1.600000X1.600000*%
%ADD12R,1.500000X1.500000*%
%ADD13C,1.500000*%
%ADD14C,3.200000*%
%ADD15O,2.400000X1.600000*%
%ADD16R,2.400000X1.600000*%
%ADD17O,1.700000X1.700000*%
%ADD18R,1.700000X1.700000*%
%ADD19O,1.905000X2.000000*%
%ADD20R,1.905000X2.000000*%
%ADD21C,2.800000*%
%ADD22O,3.048000X1.850000*%
%ADD23O,1.600000X1.600000*%
%ADD24R,3.500000X3.500000*%
%ADD25C,2.000000*%
%ADD26O,2.200000X2.200000*%
%ADD27R,2.200000X2.200000*%
%ADD28C,1.800000*%
%ADD29R,1.800000X1.800000*%
G04 APERTURE END LIST*
D10*
%TO.C,C7*%
X182840000Y-36195000D03*
D11*
X180340000Y-36195000D03*
%TD*%
D10*
%TO.C,C5*%
X129500000Y-36195000D03*
D11*
X127000000Y-36195000D03*
%TD*%
D10*
%TO.C,C4*%
X82550000Y-86320000D03*
D11*
X82550000Y-83820000D03*
%TD*%
D12*
%TO.C,U2*%
X92710000Y-104775000D03*
D13*
X92710000Y-99695000D03*
X92710000Y-102235000D03*
%TD*%
D14*
%TO.C,REF\u002A\u002A*%
X217070000Y-37235000D03*
%TD*%
%TO.C,REF\u002A\u002A*%
X226070000Y-121235000D03*
%TD*%
%TO.C,REF\u002A\u002A*%
X74070000Y-121235000D03*
%TD*%
%TO.C,REF\u002A\u002A*%
X74070000Y-36235000D03*
%TD*%
D15*
%TO.C,X1*%
X92710000Y-114935000D03*
X85090000Y-122555000D03*
X92710000Y-117475000D03*
X85090000Y-120015000D03*
X92710000Y-120015000D03*
X85090000Y-117475000D03*
X92710000Y-122555000D03*
D16*
X85090000Y-114935000D03*
%TD*%
D10*
%TO.C,C8*%
X195660000Y-36195000D03*
X200660000Y-36195000D03*
%TD*%
%TO.C,C6*%
X142320000Y-36195000D03*
X147320000Y-36195000D03*
%TD*%
D17*
%TO.C,J3a1*%
X118110000Y-122555000D03*
X120650000Y-122555000D03*
X118110000Y-120015000D03*
X120650000Y-120015000D03*
X118110000Y-117475000D03*
X120650000Y-117475000D03*
X118110000Y-114935000D03*
X120650000Y-114935000D03*
X118110000Y-112395000D03*
D18*
X120650000Y-112395000D03*
%TD*%
D17*
%TO.C,J9*%
X224790000Y-97155000D03*
X227330000Y-97155000D03*
X224790000Y-94615000D03*
X227330000Y-94615000D03*
X224790000Y-92075000D03*
X227330000Y-92075000D03*
X224790000Y-89535000D03*
X227330000Y-89535000D03*
X224790000Y-86995000D03*
X227330000Y-86995000D03*
X224790000Y-84455000D03*
X227330000Y-84455000D03*
X224790000Y-81915000D03*
X227330000Y-81915000D03*
X224790000Y-79375000D03*
X227330000Y-79375000D03*
X224790000Y-76835000D03*
X227330000Y-76835000D03*
X224790000Y-74295000D03*
X227330000Y-74295000D03*
X224790000Y-71755000D03*
X227330000Y-71755000D03*
X224790000Y-69215000D03*
X227330000Y-69215000D03*
X224790000Y-66675000D03*
X227330000Y-66675000D03*
X224790000Y-64135000D03*
X227330000Y-64135000D03*
X224790000Y-61595000D03*
X227330000Y-61595000D03*
X224790000Y-59055000D03*
X227330000Y-59055000D03*
X224790000Y-56515000D03*
X227330000Y-56515000D03*
X224790000Y-53975000D03*
X227330000Y-53975000D03*
X224790000Y-51435000D03*
X227330000Y-51435000D03*
X224790000Y-48895000D03*
X227330000Y-48895000D03*
X224790000Y-46355000D03*
X227330000Y-46355000D03*
X224790000Y-43815000D03*
X227330000Y-43815000D03*
X224790000Y-41275000D03*
X227330000Y-41275000D03*
X224790000Y-38735000D03*
X227330000Y-38735000D03*
X224790000Y-36195000D03*
D18*
X227330000Y-36195000D03*
%TD*%
D17*
%TO.C,J8*%
X207010000Y-97155000D03*
X209550000Y-97155000D03*
X207010000Y-94615000D03*
X209550000Y-94615000D03*
X207010000Y-92075000D03*
X209550000Y-92075000D03*
X207010000Y-89535000D03*
X209550000Y-89535000D03*
X207010000Y-86995000D03*
X209550000Y-86995000D03*
X207010000Y-84455000D03*
X209550000Y-84455000D03*
X207010000Y-81915000D03*
X209550000Y-81915000D03*
X207010000Y-79375000D03*
X209550000Y-79375000D03*
X207010000Y-76835000D03*
X209550000Y-76835000D03*
X207010000Y-74295000D03*
X209550000Y-74295000D03*
X207010000Y-71755000D03*
X209550000Y-71755000D03*
X207010000Y-69215000D03*
X209550000Y-69215000D03*
X207010000Y-66675000D03*
X209550000Y-66675000D03*
X207010000Y-64135000D03*
X209550000Y-64135000D03*
X207010000Y-61595000D03*
X209550000Y-61595000D03*
X207010000Y-59055000D03*
X209550000Y-59055000D03*
X207010000Y-56515000D03*
X209550000Y-56515000D03*
X207010000Y-53975000D03*
X209550000Y-53975000D03*
X207010000Y-51435000D03*
X209550000Y-51435000D03*
X207010000Y-48895000D03*
X209550000Y-48895000D03*
X207010000Y-46355000D03*
X209550000Y-46355000D03*
X207010000Y-43815000D03*
X209550000Y-43815000D03*
X207010000Y-41275000D03*
X209550000Y-41275000D03*
X207010000Y-38735000D03*
X209550000Y-38735000D03*
X207010000Y-36195000D03*
D18*
X209550000Y-36195000D03*
%TD*%
D17*
%TO.C,J5*%
X153670000Y-97155000D03*
X156210000Y-97155000D03*
X153670000Y-94615000D03*
X156210000Y-94615000D03*
X153670000Y-92075000D03*
X156210000Y-92075000D03*
X153670000Y-89535000D03*
X156210000Y-89535000D03*
X153670000Y-86995000D03*
X156210000Y-86995000D03*
X153670000Y-84455000D03*
X156210000Y-84455000D03*
X153670000Y-81915000D03*
X156210000Y-81915000D03*
X153670000Y-79375000D03*
X156210000Y-79375000D03*
X153670000Y-76835000D03*
X156210000Y-76835000D03*
X153670000Y-74295000D03*
X156210000Y-74295000D03*
X153670000Y-71755000D03*
X156210000Y-71755000D03*
X153670000Y-69215000D03*
X156210000Y-69215000D03*
X153670000Y-66675000D03*
X156210000Y-66675000D03*
X153670000Y-64135000D03*
X156210000Y-64135000D03*
X153670000Y-61595000D03*
X156210000Y-61595000D03*
X153670000Y-59055000D03*
X156210000Y-59055000D03*
X153670000Y-56515000D03*
X156210000Y-56515000D03*
X153670000Y-53975000D03*
X156210000Y-53975000D03*
X153670000Y-51435000D03*
X156210000Y-51435000D03*
X153670000Y-48895000D03*
X156210000Y-48895000D03*
X153670000Y-46355000D03*
X156210000Y-46355000D03*
X153670000Y-43815000D03*
X156210000Y-43815000D03*
X153670000Y-41275000D03*
X156210000Y-41275000D03*
X153670000Y-38735000D03*
X156210000Y-38735000D03*
X153670000Y-36195000D03*
D18*
X156210000Y-36195000D03*
%TD*%
D17*
%TO.C,J3*%
X118110000Y-97155000D03*
X120650000Y-97155000D03*
X118110000Y-94615000D03*
X120650000Y-94615000D03*
X118110000Y-92075000D03*
X120650000Y-92075000D03*
X118110000Y-89535000D03*
X120650000Y-89535000D03*
X118110000Y-86995000D03*
X120650000Y-86995000D03*
X118110000Y-84455000D03*
X120650000Y-84455000D03*
X118110000Y-81915000D03*
X120650000Y-81915000D03*
X118110000Y-79375000D03*
X120650000Y-79375000D03*
X118110000Y-76835000D03*
X120650000Y-76835000D03*
X118110000Y-74295000D03*
X120650000Y-74295000D03*
X118110000Y-71755000D03*
X120650000Y-71755000D03*
X118110000Y-69215000D03*
X120650000Y-69215000D03*
X118110000Y-66675000D03*
X120650000Y-66675000D03*
X118110000Y-64135000D03*
X120650000Y-64135000D03*
X118110000Y-61595000D03*
X120650000Y-61595000D03*
X118110000Y-59055000D03*
X120650000Y-59055000D03*
X118110000Y-56515000D03*
X120650000Y-56515000D03*
X118110000Y-53975000D03*
X120650000Y-53975000D03*
X118110000Y-51435000D03*
X120650000Y-51435000D03*
X118110000Y-48895000D03*
X120650000Y-48895000D03*
X118110000Y-46355000D03*
X120650000Y-46355000D03*
X118110000Y-43815000D03*
X120650000Y-43815000D03*
X118110000Y-41275000D03*
X120650000Y-41275000D03*
X118110000Y-38735000D03*
X120650000Y-38735000D03*
X118110000Y-36195000D03*
D18*
X120650000Y-36195000D03*
%TD*%
D17*
%TO.C,J7*%
X189230000Y-97155000D03*
X191770000Y-97155000D03*
X189230000Y-94615000D03*
X191770000Y-94615000D03*
X189230000Y-92075000D03*
X191770000Y-92075000D03*
X189230000Y-89535000D03*
X191770000Y-89535000D03*
X189230000Y-86995000D03*
X191770000Y-86995000D03*
X189230000Y-84455000D03*
X191770000Y-84455000D03*
X189230000Y-81915000D03*
X191770000Y-81915000D03*
X189230000Y-79375000D03*
X191770000Y-79375000D03*
X189230000Y-76835000D03*
X191770000Y-76835000D03*
X189230000Y-74295000D03*
X191770000Y-74295000D03*
X189230000Y-71755000D03*
X191770000Y-71755000D03*
X189230000Y-69215000D03*
X191770000Y-69215000D03*
X189230000Y-66675000D03*
X191770000Y-66675000D03*
X189230000Y-64135000D03*
X191770000Y-64135000D03*
X189230000Y-61595000D03*
X191770000Y-61595000D03*
X189230000Y-59055000D03*
X191770000Y-59055000D03*
X189230000Y-56515000D03*
X191770000Y-56515000D03*
X189230000Y-53975000D03*
X191770000Y-53975000D03*
X189230000Y-51435000D03*
X191770000Y-51435000D03*
X189230000Y-48895000D03*
X191770000Y-48895000D03*
X189230000Y-46355000D03*
X191770000Y-46355000D03*
X189230000Y-43815000D03*
X191770000Y-43815000D03*
X189230000Y-41275000D03*
X191770000Y-41275000D03*
X189230000Y-38735000D03*
X191770000Y-38735000D03*
X189230000Y-36195000D03*
D18*
X191770000Y-36195000D03*
%TD*%
D17*
%TO.C,J6*%
X171450000Y-97155000D03*
X173990000Y-97155000D03*
X171450000Y-94615000D03*
X173990000Y-94615000D03*
X171450000Y-92075000D03*
X173990000Y-92075000D03*
X171450000Y-89535000D03*
X173990000Y-89535000D03*
X171450000Y-86995000D03*
X173990000Y-86995000D03*
X171450000Y-84455000D03*
X173990000Y-84455000D03*
X171450000Y-81915000D03*
X173990000Y-81915000D03*
X171450000Y-79375000D03*
X173990000Y-79375000D03*
X171450000Y-76835000D03*
X173990000Y-76835000D03*
X171450000Y-74295000D03*
X173990000Y-74295000D03*
X171450000Y-71755000D03*
X173990000Y-71755000D03*
X171450000Y-69215000D03*
X173990000Y-69215000D03*
X171450000Y-66675000D03*
X173990000Y-66675000D03*
X171450000Y-64135000D03*
X173990000Y-64135000D03*
X171450000Y-61595000D03*
X173990000Y-61595000D03*
X171450000Y-59055000D03*
X173990000Y-59055000D03*
X171450000Y-56515000D03*
X173990000Y-56515000D03*
X171450000Y-53975000D03*
X173990000Y-53975000D03*
X171450000Y-51435000D03*
X173990000Y-51435000D03*
X171450000Y-48895000D03*
X173990000Y-48895000D03*
X171450000Y-46355000D03*
X173990000Y-46355000D03*
X171450000Y-43815000D03*
X173990000Y-43815000D03*
X171450000Y-41275000D03*
X173990000Y-41275000D03*
X171450000Y-38735000D03*
X173990000Y-38735000D03*
X171450000Y-36195000D03*
D18*
X173990000Y-36195000D03*
%TD*%
D17*
%TO.C,J4*%
X135890000Y-97155000D03*
X138430000Y-97155000D03*
X135890000Y-94615000D03*
X138430000Y-94615000D03*
X135890000Y-92075000D03*
X138430000Y-92075000D03*
X135890000Y-89535000D03*
X138430000Y-89535000D03*
X135890000Y-86995000D03*
X138430000Y-86995000D03*
X135890000Y-84455000D03*
X138430000Y-84455000D03*
X135890000Y-81915000D03*
X138430000Y-81915000D03*
X135890000Y-79375000D03*
X138430000Y-79375000D03*
X135890000Y-76835000D03*
X138430000Y-76835000D03*
X135890000Y-74295000D03*
X138430000Y-74295000D03*
X135890000Y-71755000D03*
X138430000Y-71755000D03*
X135890000Y-69215000D03*
X138430000Y-69215000D03*
X135890000Y-66675000D03*
X138430000Y-66675000D03*
X135890000Y-64135000D03*
X138430000Y-64135000D03*
X135890000Y-61595000D03*
X138430000Y-61595000D03*
X135890000Y-59055000D03*
X138430000Y-59055000D03*
X135890000Y-56515000D03*
X138430000Y-56515000D03*
X135890000Y-53975000D03*
X138430000Y-53975000D03*
X135890000Y-51435000D03*
X138430000Y-51435000D03*
X135890000Y-48895000D03*
X138430000Y-48895000D03*
X135890000Y-46355000D03*
X138430000Y-46355000D03*
X135890000Y-43815000D03*
X138430000Y-43815000D03*
X135890000Y-41275000D03*
X138430000Y-41275000D03*
X135890000Y-38735000D03*
X138430000Y-38735000D03*
X135890000Y-36195000D03*
D18*
X138430000Y-36195000D03*
%TD*%
D17*
%TO.C,J2*%
X100330000Y-97155000D03*
X102870000Y-97155000D03*
X100330000Y-94615000D03*
X102870000Y-94615000D03*
X100330000Y-92075000D03*
X102870000Y-92075000D03*
X100330000Y-89535000D03*
X102870000Y-89535000D03*
X100330000Y-86995000D03*
X102870000Y-86995000D03*
X100330000Y-84455000D03*
X102870000Y-84455000D03*
X100330000Y-81915000D03*
X102870000Y-81915000D03*
X100330000Y-79375000D03*
X102870000Y-79375000D03*
X100330000Y-76835000D03*
X102870000Y-76835000D03*
X100330000Y-74295000D03*
X102870000Y-74295000D03*
X100330000Y-71755000D03*
X102870000Y-71755000D03*
X100330000Y-69215000D03*
X102870000Y-69215000D03*
X100330000Y-66675000D03*
X102870000Y-66675000D03*
X100330000Y-64135000D03*
X102870000Y-64135000D03*
X100330000Y-61595000D03*
X102870000Y-61595000D03*
X100330000Y-59055000D03*
X102870000Y-59055000D03*
X100330000Y-56515000D03*
X102870000Y-56515000D03*
X100330000Y-53975000D03*
X102870000Y-53975000D03*
X100330000Y-51435000D03*
X102870000Y-51435000D03*
X100330000Y-48895000D03*
X102870000Y-48895000D03*
X100330000Y-46355000D03*
X102870000Y-46355000D03*
X100330000Y-43815000D03*
X102870000Y-43815000D03*
X100330000Y-41275000D03*
X102870000Y-41275000D03*
X100330000Y-38735000D03*
X102870000Y-38735000D03*
X100330000Y-36195000D03*
D18*
X102870000Y-36195000D03*
%TD*%
D15*
%TO.C,U3*%
X107950000Y-107315000D03*
X100330000Y-122555000D03*
X107950000Y-109855000D03*
X100330000Y-120015000D03*
X107950000Y-112395000D03*
X100330000Y-117475000D03*
X107950000Y-114935000D03*
X100330000Y-114935000D03*
X107950000Y-117475000D03*
X100330000Y-112395000D03*
X107950000Y-120015000D03*
X100330000Y-109855000D03*
X107950000Y-122555000D03*
D16*
X100330000Y-107315000D03*
%TD*%
D19*
%TO.C,U1*%
X87630000Y-69215000D03*
X85090000Y-69215000D03*
D20*
X82550000Y-69215000D03*
%TD*%
D21*
%TO.C,TP1*%
X72390000Y-48895000D03*
%TD*%
D22*
%TO.C,SW1*%
X85090000Y-99775000D03*
X85090000Y-104775000D03*
X72590000Y-99775000D03*
X72590000Y-104775000D03*
%TD*%
D23*
%TO.C,R2*%
X82550000Y-93345000D03*
D10*
X72390000Y-93345000D03*
%TD*%
D23*
%TO.C,R1*%
X95250000Y-59055000D03*
D10*
X95250000Y-48895000D03*
%TD*%
%TO.C,J1*%
G36*
G01*
X79515000Y-39065000D02*
X81265000Y-39065000D01*
G75*
G02*
X82140000Y-39940000I0J-875000D01*
G01*
X82140000Y-41690000D01*
G75*
G02*
X81265000Y-42565000I-875000J0D01*
G01*
X79515000Y-42565000D01*
G75*
G02*
X78640000Y-41690000I0J875000D01*
G01*
X78640000Y-39940000D01*
G75*
G02*
X79515000Y-39065000I875000J0D01*
G01*
G37*
G36*
G01*
X84090000Y-36315000D02*
X86090000Y-36315000D01*
G75*
G02*
X86840000Y-37065000I0J-750000D01*
G01*
X86840000Y-38565000D01*
G75*
G02*
X86090000Y-39315000I-750000J0D01*
G01*
X84090000Y-39315000D01*
G75*
G02*
X83340000Y-38565000I0J750000D01*
G01*
X83340000Y-37065000D01*
G75*
G02*
X84090000Y-36315000I750000J0D01*
G01*
G37*
D24*
X85090000Y-43815000D03*
%TD*%
D25*
%TO.C,F1*%
X80020000Y-48895000D03*
X80010000Y-53975000D03*
%TD*%
D26*
%TO.C,D2*%
X87630000Y-48895000D03*
D27*
X87630000Y-56515000D03*
%TD*%
D28*
%TO.C,D1*%
X95250000Y-41275000D03*
D29*
X95250000Y-43815000D03*
%TD*%
D10*
%TO.C,C3*%
X92630000Y-74295000D03*
X87630000Y-74295000D03*
%TD*%
%TO.C,C2*%
X85010000Y-74295000D03*
X80010000Y-74295000D03*
%TD*%
%TO.C,C1*%
X102950000Y-102235000D03*
X107950000Y-102235000D03*
%TD*%
M02*
