M48
; DRILL file {KiCad 5.1.9} date Mon Feb  1 10:24:59 2021
; FORMAT={-:-/ absolute / metric / decimal}
; #@! TF.CreationDate,2021-02-01T10:24:59+01:00
; #@! TF.GenerationSoftware,Kicad,Pcbnew,5.1.9
; #@! TF.FileFunction,Plated,1,2,PTH
FMAT,2
METRIC
T1C0.406
T2C0.800
T3C0.900
T4C1.000
T5C1.400
%
G90
G05
T1
X81.915Y-120.015
X88.9Y-118.745
X95.25Y-105.41
X99.695Y-91.44
X99.695Y-101.6
X99.695Y-110.49
X102.235Y-114.935
X104.14Y-109.22
X105.41Y-83.185
X106.68Y-107.95
X107.95Y-99.06
X107.95Y-110.49
X109.22Y-114.935
X110.49Y-85.725
X110.49Y-111.76
X113.03Y-84.455
X113.03Y-110.49
X114.3Y-113.03
X116.84Y-114.3
X117.475Y-120.015
X119.38Y-115.57
X120.015Y-118.745
X122.555Y-116.84
X124.46Y-96.52
X124.46Y-105.41
X125.73Y-92.71
X125.73Y-104.14
X127.0Y-91.44
X127.0Y-101.6
X128.27Y-90.17
X128.27Y-100.33
X135.255Y-83.185
X137.795Y-100.33
X140.335Y-102.87
X142.875Y-101.6
X145.415Y-114.3
X147.955Y-104.14
X149.225Y-84.455
X149.225Y-107.95
X150.495Y-116.84
X151.13Y-105.41
X155.575Y-115.57
T2
X85.09Y-90.17
X85.09Y-92.71
X85.09Y-95.25
X85.09Y-97.79
X85.09Y-100.33
X85.09Y-102.87
X85.09Y-105.41
X87.71Y-86.36
X92.71Y-86.36
X92.71Y-90.17
X92.71Y-92.71
X92.71Y-95.25
X92.71Y-97.79
X92.71Y-100.33
X92.71Y-102.87
X92.71Y-105.41
X97.79Y-90.25
X97.79Y-95.25
X102.87Y-90.17
X102.87Y-92.71
X102.87Y-95.25
X102.87Y-97.79
X102.87Y-100.33
X102.87Y-102.87
X105.41Y-87.63
X105.41Y-90.17
X105.41Y-92.71
X105.41Y-95.25
X105.41Y-97.79
X105.41Y-100.33
X105.41Y-102.87
X105.41Y-105.41
X107.95Y-87.63
X107.95Y-90.17
X107.95Y-102.87
X107.95Y-105.41
X110.49Y-87.63
X110.49Y-90.17
X110.49Y-102.87
X110.49Y-105.41
X113.03Y-87.63
X113.03Y-90.17
X113.03Y-102.87
X113.03Y-105.41
X115.57Y-87.63
X115.57Y-90.17
X115.57Y-102.87
X115.57Y-105.41
X118.11Y-87.63
X118.11Y-90.17
X118.11Y-92.71
X118.11Y-95.25
X118.11Y-97.79
X118.11Y-100.33
X118.11Y-102.87
X118.11Y-105.41
X120.65Y-90.17
X120.65Y-92.71
X120.65Y-95.25
X120.65Y-97.79
X120.65Y-100.33
X120.65Y-102.87
X130.81Y-90.17
X130.81Y-92.71
X130.81Y-95.25
X130.81Y-97.79
X138.43Y-90.17
X138.43Y-92.71
X138.43Y-95.25
X138.43Y-97.79
X145.415Y-81.915
X145.415Y-89.535
X146.765Y-99.06
X151.765Y-99.06
T3
X150.495Y-81.915
X153.035Y-81.915
T4
X97.155Y-122.555
X97.155Y-125.095
X99.695Y-122.555
X99.695Y-125.095
X102.235Y-122.555
X102.235Y-125.095
X104.775Y-122.555
X104.775Y-125.095
X107.315Y-122.555
X107.315Y-125.095
X109.855Y-122.555
X109.855Y-125.095
X112.395Y-122.555
X112.395Y-125.095
X114.935Y-122.555
X114.935Y-125.095
X117.475Y-122.555
X117.475Y-125.095
X120.015Y-122.555
X120.015Y-125.095
X122.555Y-122.555
X122.555Y-125.095
X125.095Y-122.555
X125.095Y-125.095
X127.635Y-122.555
X127.635Y-125.095
X130.175Y-122.555
X130.175Y-125.095
X132.715Y-122.555
X132.715Y-125.095
X135.255Y-122.555
X135.255Y-125.095
X137.795Y-122.555
X137.795Y-125.095
X140.335Y-122.555
X140.335Y-125.095
X142.875Y-122.555
X142.875Y-125.095
X145.415Y-122.555
X145.415Y-125.095
X147.955Y-122.555
X147.955Y-125.095
X150.495Y-122.555
X150.495Y-125.095
X153.035Y-122.555
X153.035Y-125.095
X155.575Y-122.555
X155.575Y-125.095
X158.115Y-84.455
X158.115Y-86.995
X158.115Y-89.535
X158.115Y-92.075
X158.115Y-94.615
X158.115Y-97.155
X158.115Y-102.87
X158.115Y-105.41
X158.115Y-107.95
X158.115Y-110.49
X158.115Y-113.03
X158.115Y-115.57
X158.115Y-122.555
X158.115Y-125.095
T5
X71.755Y-81.915
T0
M30
