%TF.GenerationSoftware,KiCad,Pcbnew,5.1.9*%
%TF.CreationDate,2021-02-01T10:24:50+01:00*%
%TF.ProjectId,UART_SC28L92_PLCC,55415254-5f53-4433-9238-4c39325f504c,1.0*%
%TF.SameCoordinates,Original*%
%TF.FileFunction,Legend,Bot*%
%TF.FilePolarity,Positive*%
%FSLAX46Y46*%
G04 Gerber Fmt 4.6, Leading zero omitted, Abs format (unit mm)*
G04 Created by KiCad (PCBNEW 5.1.9) date 2021-02-01 10:24:50*
%MOMM*%
%LPD*%
G01*
G04 APERTURE LIST*
%ADD10C,0.100000*%
%ADD11C,0.300000*%
G04 APERTURE END LIST*
D10*
G36*
X132715000Y-86995000D02*
G01*
X123825000Y-86995000D01*
X123825000Y-84455000D01*
X132715000Y-84455000D01*
X132715000Y-86995000D01*
G37*
X132715000Y-86995000D02*
X123825000Y-86995000D01*
X123825000Y-84455000D01*
X132715000Y-84455000D01*
X132715000Y-86995000D01*
G36*
X132715000Y-81915000D02*
G01*
X123825000Y-81915000D01*
X123825000Y-79375000D01*
X132715000Y-79375000D01*
X132715000Y-81915000D01*
G37*
X132715000Y-81915000D02*
X123825000Y-81915000D01*
X123825000Y-79375000D01*
X132715000Y-79375000D01*
X132715000Y-81915000D01*
D11*
X137608571Y-81313571D02*
X138108571Y-80599285D01*
X138465714Y-81313571D02*
X138465714Y-79813571D01*
X137894285Y-79813571D01*
X137751428Y-79885000D01*
X137680000Y-79956428D01*
X137608571Y-80099285D01*
X137608571Y-80313571D01*
X137680000Y-80456428D01*
X137751428Y-80527857D01*
X137894285Y-80599285D01*
X138465714Y-80599285D01*
X136394285Y-81242142D02*
X136537142Y-81313571D01*
X136822857Y-81313571D01*
X136965714Y-81242142D01*
X137037142Y-81099285D01*
X137037142Y-80527857D01*
X136965714Y-80385000D01*
X136822857Y-80313571D01*
X136537142Y-80313571D01*
X136394285Y-80385000D01*
X136322857Y-80527857D01*
X136322857Y-80670714D01*
X137037142Y-80813571D01*
X135822857Y-80313571D02*
X135465714Y-81313571D01*
X135108571Y-80313571D01*
X134537142Y-81170714D02*
X134465714Y-81242142D01*
X134537142Y-81313571D01*
X134608571Y-81242142D01*
X134537142Y-81170714D01*
X134537142Y-81313571D01*
X134537142Y-80385000D02*
X134465714Y-80456428D01*
X134537142Y-80527857D01*
X134608571Y-80456428D01*
X134537142Y-80385000D01*
X134537142Y-80527857D01*
X141108571Y-86342142D02*
X140894285Y-86413571D01*
X140537142Y-86413571D01*
X140394285Y-86342142D01*
X140322857Y-86270714D01*
X140251428Y-86127857D01*
X140251428Y-85985000D01*
X140322857Y-85842142D01*
X140394285Y-85770714D01*
X140537142Y-85699285D01*
X140822857Y-85627857D01*
X140965714Y-85556428D01*
X141037142Y-85485000D01*
X141108571Y-85342142D01*
X141108571Y-85199285D01*
X141037142Y-85056428D01*
X140965714Y-84985000D01*
X140822857Y-84913571D01*
X140465714Y-84913571D01*
X140251428Y-84985000D01*
X139037142Y-86342142D02*
X139180000Y-86413571D01*
X139465714Y-86413571D01*
X139608571Y-86342142D01*
X139680000Y-86199285D01*
X139680000Y-85627857D01*
X139608571Y-85485000D01*
X139465714Y-85413571D01*
X139180000Y-85413571D01*
X139037142Y-85485000D01*
X138965714Y-85627857D01*
X138965714Y-85770714D01*
X139680000Y-85913571D01*
X138322857Y-86413571D02*
X138322857Y-85413571D01*
X138322857Y-85699285D02*
X138251428Y-85556428D01*
X138180000Y-85485000D01*
X138037142Y-85413571D01*
X137894285Y-85413571D01*
X137394285Y-86413571D02*
X137394285Y-85413571D01*
X137394285Y-84913571D02*
X137465714Y-84985000D01*
X137394285Y-85056428D01*
X137322857Y-84985000D01*
X137394285Y-84913571D01*
X137394285Y-85056428D01*
X136037142Y-86413571D02*
X136037142Y-85627857D01*
X136108571Y-85485000D01*
X136251428Y-85413571D01*
X136537142Y-85413571D01*
X136680000Y-85485000D01*
X136037142Y-86342142D02*
X136180000Y-86413571D01*
X136537142Y-86413571D01*
X136680000Y-86342142D01*
X136751428Y-86199285D01*
X136751428Y-86056428D01*
X136680000Y-85913571D01*
X136537142Y-85842142D01*
X136180000Y-85842142D01*
X136037142Y-85770714D01*
X135108571Y-86413571D02*
X135251428Y-86342142D01*
X135322857Y-86199285D01*
X135322857Y-84913571D01*
X134537142Y-86270714D02*
X134465714Y-86342142D01*
X134537142Y-86413571D01*
X134608571Y-86342142D01*
X134537142Y-86270714D01*
X134537142Y-86413571D01*
X134537142Y-85485000D02*
X134465714Y-85556428D01*
X134537142Y-85627857D01*
X134608571Y-85556428D01*
X134537142Y-85485000D01*
X134537142Y-85627857D01*
M02*
