%TF.GenerationSoftware,KiCad,Pcbnew,5.1.9*%
%TF.CreationDate,2021-02-01T10:21:22+01:00*%
%TF.ProjectId,UART_6551_DIP_v1.0,55415254-5f36-4353-9531-5f4449505f76,1.0*%
%TF.SameCoordinates,Original*%
%TF.FileFunction,Copper,L1,Top*%
%TF.FilePolarity,Positive*%
%FSLAX46Y46*%
G04 Gerber Fmt 4.6, Leading zero omitted, Abs format (unit mm)*
G04 Created by KiCad (PCBNEW 5.1.9) date 2021-02-01 10:21:22*
%MOMM*%
%LPD*%
G01*
G04 APERTURE LIST*
%TA.AperFunction,ComponentPad*%
%ADD10C,1.600000*%
%TD*%
%TA.AperFunction,ComponentPad*%
%ADD11O,1.600000X2.400000*%
%TD*%
%TA.AperFunction,ComponentPad*%
%ADD12R,1.600000X2.400000*%
%TD*%
%TA.AperFunction,ComponentPad*%
%ADD13O,2.400000X1.600000*%
%TD*%
%TA.AperFunction,ComponentPad*%
%ADD14R,2.400000X1.600000*%
%TD*%
%TA.AperFunction,ComponentPad*%
%ADD15O,1.600000X1.600000*%
%TD*%
%TA.AperFunction,ComponentPad*%
%ADD16C,1.800000*%
%TD*%
%TA.AperFunction,ComponentPad*%
%ADD17R,1.800000X1.800000*%
%TD*%
%TA.AperFunction,ComponentPad*%
%ADD18O,1.700000X1.700000*%
%TD*%
%TA.AperFunction,ComponentPad*%
%ADD19R,1.700000X1.700000*%
%TD*%
%TA.AperFunction,ComponentPad*%
%ADD20C,2.800000*%
%TD*%
%TA.AperFunction,Conductor*%
%ADD21C,0.228600*%
%TD*%
%TA.AperFunction,Conductor*%
%ADD22C,0.254000*%
%TD*%
%TA.AperFunction,Conductor*%
%ADD23C,0.100000*%
%TD*%
%TA.AperFunction,Conductor*%
%ADD24C,0.025400*%
%TD*%
G04 APERTURE END LIST*
D10*
%TO.P,C2,2*%
%TO.N,GND*%
X97790000Y-88980000D03*
%TO.P,C2,1*%
%TO.N,VCC*%
X97790000Y-93980000D03*
%TD*%
D11*
%TO.P,U1,28*%
%TO.N,/R~W*%
X101600000Y-93980000D03*
%TO.P,U1,14*%
%TO.N,/A1*%
X134620000Y-109220000D03*
%TO.P,U1,27*%
%TO.N,/PHI2*%
X104140000Y-93980000D03*
%TO.P,U1,13*%
%TO.N,/A0*%
X132080000Y-109220000D03*
%TO.P,U1,26*%
%TO.N,N/C*%
X106680000Y-93980000D03*
%TO.P,U1,12*%
%TO.N,/RxD*%
X129540000Y-109220000D03*
%TO.P,U1,25*%
%TO.N,/D7*%
X109220000Y-93980000D03*
%TO.P,U1,11*%
%TO.N,N/C*%
X127000000Y-109220000D03*
%TO.P,U1,24*%
%TO.N,/D6*%
X111760000Y-93980000D03*
%TO.P,U1,10*%
%TO.N,/TxD*%
X124460000Y-109220000D03*
%TO.P,U1,23*%
%TO.N,/D5*%
X114300000Y-93980000D03*
%TO.P,U1,9*%
%TO.N,/~CTS*%
X121920000Y-109220000D03*
%TO.P,U1,22*%
%TO.N,/D4*%
X116840000Y-93980000D03*
%TO.P,U1,8*%
%TO.N,/~RTS*%
X119380000Y-109220000D03*
%TO.P,U1,21*%
%TO.N,/D3*%
X119380000Y-93980000D03*
%TO.P,U1,7*%
%TO.N,N/C*%
X116840000Y-109220000D03*
%TO.P,U1,20*%
%TO.N,/D2*%
X121920000Y-93980000D03*
%TO.P,U1,6*%
%TO.N,/acia_clk*%
X114300000Y-109220000D03*
%TO.P,U1,19*%
%TO.N,/D1*%
X124460000Y-93980000D03*
%TO.P,U1,5*%
%TO.N,N/C*%
X111760000Y-109220000D03*
%TO.P,U1,18*%
%TO.N,/D0*%
X127000000Y-93980000D03*
%TO.P,U1,4*%
%TO.N,/~RESET*%
X109220000Y-109220000D03*
%TO.P,U1,17*%
%TO.N,GND*%
X129540000Y-93980000D03*
%TO.P,U1,3*%
%TO.N,/~IOSEL*%
X106680000Y-109220000D03*
%TO.P,U1,16*%
%TO.N,GND*%
X132080000Y-93980000D03*
%TO.P,U1,2*%
%TO.N,VCC*%
X104140000Y-109220000D03*
%TO.P,U1,15*%
X134620000Y-93980000D03*
D12*
%TO.P,U1,1*%
%TO.N,GND*%
X101600000Y-109220000D03*
%TD*%
D13*
%TO.P,X1,8*%
%TO.N,VCC*%
X93980000Y-109220000D03*
%TO.P,X1,4*%
%TO.N,GND*%
X86360000Y-116840000D03*
%TO.P,X1,7*%
%TO.N,N/C*%
X93980000Y-111760000D03*
%TO.P,X1,3*%
X86360000Y-114300000D03*
%TO.P,X1,6*%
X93980000Y-114300000D03*
%TO.P,X1,2*%
X86360000Y-111760000D03*
%TO.P,X1,5*%
%TO.N,/acia_clk*%
X93980000Y-116840000D03*
D14*
%TO.P,X1,1*%
%TO.N,N/C*%
X86360000Y-109220000D03*
%TD*%
D13*
%TO.P,U2,8*%
%TO.N,VCC*%
X93980000Y-93980000D03*
%TO.P,U2,4*%
%TO.N,GND*%
X86360000Y-101600000D03*
%TO.P,U2,7*%
%TO.N,Net-(R3-Pad2)*%
X93980000Y-96520000D03*
%TO.P,U2,3*%
%TO.N,/RxD*%
X86360000Y-99060000D03*
%TO.P,U2,6*%
%TO.N,Net-(R3-Pad2)*%
X93980000Y-99060000D03*
%TO.P,U2,2*%
%TO.N,Net-(R2-Pad2)*%
X86360000Y-96520000D03*
%TO.P,U2,5*%
%TO.N,/TxD*%
X93980000Y-101600000D03*
D14*
%TO.P,U2,1*%
%TO.N,Net-(R2-Pad2)*%
X86360000Y-93980000D03*
%TD*%
D15*
%TO.P,R3,2*%
%TO.N,Net-(R3-Pad2)*%
X93980000Y-90170000D03*
D10*
%TO.P,R3,1*%
%TO.N,Net-(D3-Pad2)*%
X86360000Y-90170000D03*
%TD*%
D15*
%TO.P,R2,2*%
%TO.N,Net-(R2-Pad2)*%
X93980000Y-86360000D03*
D10*
%TO.P,R2,1*%
%TO.N,Net-(D2-Pad2)*%
X86360000Y-86360000D03*
%TD*%
D16*
%TO.P,D3,2*%
%TO.N,Net-(D3-Pad2)*%
X91440000Y-82550000D03*
D17*
%TO.P,D3,1*%
%TO.N,GND*%
X93980000Y-82550000D03*
%TD*%
D16*
%TO.P,D2,2*%
%TO.N,Net-(D2-Pad2)*%
X83820000Y-82550000D03*
D17*
%TO.P,D2,1*%
%TO.N,GND*%
X86360000Y-82550000D03*
%TD*%
D18*
%TO.P,J2,6*%
%TO.N,GND*%
X157480000Y-104140000D03*
%TO.P,J2,5*%
%TO.N,/~RTS*%
X157480000Y-101600000D03*
%TO.P,J2,4*%
%TO.N,N/C*%
X157480000Y-99060000D03*
%TO.P,J2,3*%
%TO.N,/RxD*%
X157480000Y-96520000D03*
%TO.P,J2,2*%
%TO.N,/TxD*%
X157480000Y-93980000D03*
D19*
%TO.P,J2,1*%
%TO.N,/~CTS*%
X157480000Y-91440000D03*
%TD*%
D10*
%TO.P,C1,2*%
%TO.N,GND*%
X99140000Y-114300000D03*
%TO.P,C1,1*%
%TO.N,VCC*%
X104140000Y-114300000D03*
%TD*%
D20*
%TO.P,TP1,1*%
%TO.N,GND*%
X71755000Y-81915000D03*
%TD*%
D15*
%TO.P,R1,2*%
%TO.N,Net-(D1-Pad1)*%
X153035000Y-86995000D03*
D10*
%TO.P,R1,1*%
%TO.N,GND*%
X160655000Y-86995000D03*
%TD*%
D18*
%TO.P,J1,50*%
%TO.N,GND*%
X97155000Y-125095000D03*
%TO.P,J1,49*%
%TO.N,/~RESET*%
X97155000Y-122555000D03*
%TO.P,J1,48*%
%TO.N,/A0*%
X99695000Y-125095000D03*
%TO.P,J1,47*%
%TO.N,N/C*%
X99695000Y-122555000D03*
%TO.P,J1,46*%
%TO.N,/A1*%
X102235000Y-125095000D03*
%TO.P,J1,45*%
%TO.N,N/C*%
X102235000Y-122555000D03*
%TO.P,J1,44*%
X104775000Y-125095000D03*
%TO.P,J1,43*%
X104775000Y-122555000D03*
%TO.P,J1,42*%
X107315000Y-125095000D03*
%TO.P,J1,41*%
X107315000Y-122555000D03*
%TO.P,J1,40*%
X109855000Y-125095000D03*
%TO.P,J1,39*%
X109855000Y-122555000D03*
%TO.P,J1,38*%
X112395000Y-125095000D03*
%TO.P,J1,37*%
X112395000Y-122555000D03*
%TO.P,J1,36*%
X114935000Y-125095000D03*
%TO.P,J1,35*%
X114935000Y-122555000D03*
%TO.P,J1,34*%
X117475000Y-125095000D03*
%TO.P,J1,33*%
%TO.N,/R~W*%
X117475000Y-122555000D03*
%TO.P,J1,32*%
%TO.N,N/C*%
X120015000Y-125095000D03*
%TO.P,J1,31*%
%TO.N,/PHI2*%
X120015000Y-122555000D03*
%TO.P,J1,30*%
%TO.N,N/C*%
X122555000Y-125095000D03*
%TO.P,J1,29*%
X122555000Y-122555000D03*
%TO.P,J1,28*%
X125095000Y-125095000D03*
%TO.P,J1,27*%
X125095000Y-122555000D03*
%TO.P,J1,26*%
X127635000Y-125095000D03*
%TO.P,J1,25*%
X127635000Y-122555000D03*
%TO.P,J1,24*%
X130175000Y-125095000D03*
%TO.P,J1,23*%
X130175000Y-122555000D03*
%TO.P,J1,22*%
X132715000Y-125095000D03*
%TO.P,J1,21*%
X132715000Y-122555000D03*
%TO.P,J1,20*%
X135255000Y-125095000D03*
%TO.P,J1,19*%
%TO.N,/~IOSEL*%
X135255000Y-122555000D03*
%TO.P,J1,18*%
%TO.N,N/C*%
X137795000Y-125095000D03*
%TO.P,J1,17*%
%TO.N,/D0*%
X137795000Y-122555000D03*
%TO.P,J1,16*%
%TO.N,N/C*%
X140335000Y-125095000D03*
%TO.P,J1,15*%
%TO.N,/D1*%
X140335000Y-122555000D03*
%TO.P,J1,14*%
%TO.N,N/C*%
X142875000Y-125095000D03*
%TO.P,J1,13*%
%TO.N,/D2*%
X142875000Y-122555000D03*
%TO.P,J1,12*%
%TO.N,N/C*%
X145415000Y-125095000D03*
%TO.P,J1,11*%
%TO.N,/D3*%
X145415000Y-122555000D03*
%TO.P,J1,10*%
%TO.N,N/C*%
X147955000Y-125095000D03*
%TO.P,J1,9*%
%TO.N,/D4*%
X147955000Y-122555000D03*
%TO.P,J1,8*%
%TO.N,N/C*%
X150495000Y-125095000D03*
%TO.P,J1,7*%
%TO.N,/D5*%
X150495000Y-122555000D03*
%TO.P,J1,6*%
%TO.N,N/C*%
X153035000Y-125095000D03*
%TO.P,J1,5*%
%TO.N,/D6*%
X153035000Y-122555000D03*
%TO.P,J1,4*%
%TO.N,N/C*%
X155575000Y-125095000D03*
%TO.P,J1,3*%
%TO.N,/D7*%
X155575000Y-122555000D03*
%TO.P,J1,2*%
%TO.N,N/C*%
X158115000Y-125095000D03*
D19*
%TO.P,J1,1*%
%TO.N,VCC*%
X158115000Y-122555000D03*
%TD*%
D16*
%TO.P,D1,2*%
%TO.N,VCC*%
X150495000Y-81915000D03*
D17*
%TO.P,D1,1*%
%TO.N,Net-(D1-Pad1)*%
X153035000Y-81915000D03*
%TD*%
D21*
%TO.N,Net-(D1-Pad1)*%
X153035000Y-81915000D02*
X153035000Y-86995000D01*
%TO.N,/R~W*%
X117475000Y-122555000D02*
X117475000Y-116205000D01*
X117475000Y-116205000D02*
X116840000Y-115570000D01*
X116840000Y-115570000D02*
X116205000Y-115570000D01*
X116205000Y-115570000D02*
X115570000Y-114935000D01*
X115570000Y-114935000D02*
X115570000Y-98425000D01*
X115570000Y-98425000D02*
X114935000Y-97790000D01*
X114935000Y-97790000D02*
X102235000Y-97790000D01*
X101600000Y-97155000D02*
X101600000Y-93980000D01*
X102235000Y-97790000D02*
X101600000Y-97155000D01*
%TO.N,/PHI2*%
X119380000Y-115570000D02*
X120015000Y-116205000D01*
X118745000Y-115570000D02*
X119380000Y-115570000D01*
X120015000Y-116205000D02*
X120015000Y-122555000D01*
X118110000Y-114935000D02*
X118745000Y-115570000D01*
X117475000Y-97155000D02*
X118110000Y-97790000D01*
X104775000Y-97155000D02*
X117475000Y-97155000D01*
X104140000Y-96520000D02*
X104775000Y-97155000D01*
X118110000Y-97790000D02*
X118110000Y-114935000D01*
X104140000Y-93980000D02*
X104140000Y-96520000D01*
%TO.N,/~RTS*%
X119380000Y-109220000D02*
X119380000Y-111125000D01*
X119380000Y-111125000D02*
X120015000Y-111760000D01*
X120015000Y-111760000D02*
X151130000Y-111760000D01*
X151130000Y-111760000D02*
X152400000Y-110490000D01*
X152400000Y-110490000D02*
X152400000Y-102235000D01*
X153035000Y-101600000D02*
X157480000Y-101600000D01*
X152400000Y-102235000D02*
X153035000Y-101600000D01*
%TO.N,/RxD*%
X129540000Y-109220000D02*
X129540000Y-102870000D01*
X129540000Y-102870000D02*
X130175000Y-102235000D01*
X130175000Y-102235000D02*
X150495000Y-102235000D01*
X150495000Y-102235000D02*
X151765000Y-100965000D01*
X151765000Y-100965000D02*
X151765000Y-97155000D01*
X152400000Y-96520000D02*
X157480000Y-96520000D01*
X151765000Y-97155000D02*
X152400000Y-96520000D01*
%TO.N,/TxD*%
X124460000Y-102235000D02*
X124460000Y-109220000D01*
X125095000Y-101600000D02*
X124460000Y-102235000D01*
X149860000Y-101600000D02*
X125095000Y-101600000D01*
X151765000Y-93980000D02*
X151130000Y-94615000D01*
X151130000Y-100330000D02*
X149860000Y-101600000D01*
X151130000Y-94615000D02*
X151130000Y-100330000D01*
X157480000Y-93980000D02*
X151765000Y-93980000D01*
%TO.N,/~CTS*%
X121920000Y-109220000D02*
X121920000Y-101600000D01*
X121920000Y-101600000D02*
X122555000Y-100965000D01*
X122555000Y-100965000D02*
X149225000Y-100965000D01*
X149225000Y-100965000D02*
X150495000Y-99695000D01*
X150495000Y-99695000D02*
X150495000Y-92075000D01*
X151130000Y-91440000D02*
X157480000Y-91440000D01*
X150495000Y-92075000D02*
X151130000Y-91440000D01*
%TO.N,/acia_clk*%
X114300000Y-116205000D02*
X114300000Y-109220000D01*
X113665000Y-116840000D02*
X114300000Y-116205000D01*
X93980000Y-116840000D02*
X113665000Y-116840000D01*
%TO.N,Net-(D2-Pad2)*%
X83820000Y-82550000D02*
X83820000Y-85090000D01*
X83820000Y-85090000D02*
X85090000Y-86360000D01*
X85090000Y-86360000D02*
X86360000Y-86360000D01*
%TO.N,Net-(D3-Pad2)*%
X88900000Y-88900000D02*
X87630000Y-90170000D01*
X87630000Y-90170000D02*
X86360000Y-90170000D01*
X88900000Y-85090000D02*
X88900000Y-88900000D01*
X91440000Y-82550000D02*
X88900000Y-85090000D01*
%TO.N,Net-(R2-Pad2)*%
X86360000Y-93980000D02*
X90170000Y-93980000D01*
X90170000Y-93980000D02*
X91440000Y-92710000D01*
X91440000Y-92710000D02*
X91440000Y-87630000D01*
X91440000Y-87630000D02*
X92710000Y-86360000D01*
X92710000Y-86360000D02*
X93980000Y-86360000D01*
X86360000Y-96520000D02*
X86360000Y-93980000D01*
%TO.N,Net-(R3-Pad2)*%
X93980000Y-99060000D02*
X93980000Y-96520000D01*
%TD*%
D22*
%TO.N,VCC*%
X160228893Y-78402670D02*
X160665498Y-78534489D01*
X161068185Y-78748600D01*
X161343692Y-78973298D01*
X161490438Y-79120044D01*
X161712327Y-79388261D01*
X161798000Y-79546711D01*
X161798000Y-86122689D01*
X161769637Y-86080241D01*
X161569759Y-85880363D01*
X161334727Y-85723320D01*
X161073574Y-85615147D01*
X160796335Y-85560000D01*
X160513665Y-85560000D01*
X160236426Y-85615147D01*
X159975273Y-85723320D01*
X159740241Y-85880363D01*
X159540363Y-86080241D01*
X159383320Y-86315273D01*
X159275147Y-86576426D01*
X159220000Y-86853665D01*
X159220000Y-87136335D01*
X159275147Y-87413574D01*
X159383320Y-87674727D01*
X159540363Y-87909759D01*
X159740241Y-88109637D01*
X159975273Y-88266680D01*
X160236426Y-88374853D01*
X160513665Y-88430000D01*
X160796335Y-88430000D01*
X161073574Y-88374853D01*
X161334727Y-88266680D01*
X161569759Y-88109637D01*
X161769637Y-87909759D01*
X161798000Y-87867311D01*
X161798000Y-125577737D01*
X161727532Y-125747862D01*
X160672862Y-126802532D01*
X160502737Y-126873000D01*
X156997263Y-126873000D01*
X156827138Y-126802532D01*
X156407468Y-126382862D01*
X156388617Y-126337352D01*
X156521632Y-126248475D01*
X156728475Y-126041632D01*
X156845000Y-125867240D01*
X156961525Y-126041632D01*
X157168368Y-126248475D01*
X157411589Y-126410990D01*
X157681842Y-126522932D01*
X157968740Y-126580000D01*
X158261260Y-126580000D01*
X158548158Y-126522932D01*
X158818411Y-126410990D01*
X159061632Y-126248475D01*
X159268475Y-126041632D01*
X159430990Y-125798411D01*
X159542932Y-125528158D01*
X159600000Y-125241260D01*
X159600000Y-124948740D01*
X159542932Y-124661842D01*
X159430990Y-124391589D01*
X159268475Y-124148368D01*
X159136620Y-124016513D01*
X159209180Y-123994502D01*
X159319494Y-123935537D01*
X159416185Y-123856185D01*
X159495537Y-123759494D01*
X159554502Y-123649180D01*
X159590812Y-123529482D01*
X159603072Y-123405000D01*
X159600000Y-122840750D01*
X159441250Y-122682000D01*
X158242000Y-122682000D01*
X158242000Y-122702000D01*
X157988000Y-122702000D01*
X157988000Y-122682000D01*
X157968000Y-122682000D01*
X157968000Y-122428000D01*
X157988000Y-122428000D01*
X157988000Y-121228750D01*
X158242000Y-121228750D01*
X158242000Y-122428000D01*
X159441250Y-122428000D01*
X159600000Y-122269250D01*
X159603072Y-121705000D01*
X159590812Y-121580518D01*
X159554502Y-121460820D01*
X159495537Y-121350506D01*
X159416185Y-121253815D01*
X159319494Y-121174463D01*
X159209180Y-121115498D01*
X159089482Y-121079188D01*
X158965000Y-121066928D01*
X158400750Y-121070000D01*
X158242000Y-121228750D01*
X157988000Y-121228750D01*
X157829250Y-121070000D01*
X157265000Y-121066928D01*
X157140518Y-121079188D01*
X157020820Y-121115498D01*
X156910506Y-121174463D01*
X156813815Y-121253815D01*
X156734463Y-121350506D01*
X156675498Y-121460820D01*
X156653487Y-121533380D01*
X156521632Y-121401525D01*
X156337000Y-121278158D01*
X156337000Y-119507000D01*
X156334560Y-119482224D01*
X156327333Y-119458399D01*
X156237530Y-119241596D01*
X156225794Y-119219639D01*
X156210000Y-119200394D01*
X155754606Y-118745000D01*
X155735360Y-118729206D01*
X155713404Y-118717470D01*
X155496601Y-118627667D01*
X155472777Y-118620440D01*
X155448000Y-118618000D01*
X151282263Y-118618000D01*
X151112138Y-118547532D01*
X150692468Y-118127862D01*
X150622000Y-117957737D01*
X150622000Y-112509300D01*
X151093205Y-112509300D01*
X151130000Y-112512924D01*
X151166795Y-112509300D01*
X151166806Y-112509300D01*
X151276888Y-112498458D01*
X151418132Y-112455612D01*
X151548303Y-112386034D01*
X151662398Y-112292398D01*
X151685863Y-112263806D01*
X152903812Y-111045858D01*
X152932398Y-111022398D01*
X152984511Y-110958899D01*
X153026034Y-110908304D01*
X153095611Y-110778133D01*
X153095612Y-110778132D01*
X153138458Y-110636888D01*
X153149300Y-110526806D01*
X153149300Y-110526797D01*
X153152924Y-110490001D01*
X153149300Y-110453205D01*
X153149300Y-102545370D01*
X153345370Y-102349300D01*
X155692771Y-102349300D01*
X155795735Y-102352904D01*
X155881071Y-102362172D01*
X155960183Y-102376999D01*
X156033941Y-102397061D01*
X156103368Y-102422264D01*
X156169550Y-102452788D01*
X156233501Y-102489084D01*
X156296091Y-102531831D01*
X156357935Y-102581850D01*
X156429009Y-102649116D01*
X156533368Y-102753475D01*
X156707760Y-102870000D01*
X156533368Y-102986525D01*
X156326525Y-103193368D01*
X156164010Y-103436589D01*
X156052068Y-103706842D01*
X155995000Y-103993740D01*
X155995000Y-104286260D01*
X156052068Y-104573158D01*
X156164010Y-104843411D01*
X156326525Y-105086632D01*
X156533368Y-105293475D01*
X156776589Y-105455990D01*
X157046842Y-105567932D01*
X157333740Y-105625000D01*
X157626260Y-105625000D01*
X157913158Y-105567932D01*
X158183411Y-105455990D01*
X158426632Y-105293475D01*
X158633475Y-105086632D01*
X158795990Y-104843411D01*
X158907932Y-104573158D01*
X158965000Y-104286260D01*
X158965000Y-103993740D01*
X158907932Y-103706842D01*
X158795990Y-103436589D01*
X158633475Y-103193368D01*
X158426632Y-102986525D01*
X158252240Y-102870000D01*
X158426632Y-102753475D01*
X158633475Y-102546632D01*
X158795990Y-102303411D01*
X158907932Y-102033158D01*
X158965000Y-101746260D01*
X158965000Y-101453740D01*
X158907932Y-101166842D01*
X158795990Y-100896589D01*
X158633475Y-100653368D01*
X158426632Y-100446525D01*
X158252240Y-100330000D01*
X158426632Y-100213475D01*
X158633475Y-100006632D01*
X158795990Y-99763411D01*
X158907932Y-99493158D01*
X158965000Y-99206260D01*
X158965000Y-98913740D01*
X158907932Y-98626842D01*
X158795990Y-98356589D01*
X158633475Y-98113368D01*
X158426632Y-97906525D01*
X158252240Y-97790000D01*
X158426632Y-97673475D01*
X158633475Y-97466632D01*
X158795990Y-97223411D01*
X158907932Y-96953158D01*
X158965000Y-96666260D01*
X158965000Y-96373740D01*
X158907932Y-96086842D01*
X158795990Y-95816589D01*
X158633475Y-95573368D01*
X158426632Y-95366525D01*
X158252240Y-95250000D01*
X158426632Y-95133475D01*
X158633475Y-94926632D01*
X158795990Y-94683411D01*
X158907932Y-94413158D01*
X158965000Y-94126260D01*
X158965000Y-93833740D01*
X158907932Y-93546842D01*
X158795990Y-93276589D01*
X158633475Y-93033368D01*
X158501620Y-92901513D01*
X158574180Y-92879502D01*
X158684494Y-92820537D01*
X158781185Y-92741185D01*
X158860537Y-92644494D01*
X158919502Y-92534180D01*
X158955812Y-92414482D01*
X158968072Y-92290000D01*
X158968072Y-90590000D01*
X158955812Y-90465518D01*
X158919502Y-90345820D01*
X158860537Y-90235506D01*
X158781185Y-90138815D01*
X158684494Y-90059463D01*
X158574180Y-90000498D01*
X158454482Y-89964188D01*
X158330000Y-89951928D01*
X156630000Y-89951928D01*
X156505518Y-89964188D01*
X156385820Y-90000498D01*
X156275506Y-90059463D01*
X156178815Y-90138815D01*
X156099463Y-90235506D01*
X156040498Y-90345820D01*
X156004188Y-90465518D01*
X155991928Y-90590000D01*
X155991928Y-90654366D01*
X155960183Y-90663001D01*
X155881071Y-90677828D01*
X155795735Y-90687096D01*
X155692771Y-90690700D01*
X151166798Y-90690700D01*
X151130000Y-90687076D01*
X151093202Y-90690700D01*
X151093194Y-90690700D01*
X150983112Y-90701542D01*
X150841868Y-90744388D01*
X150711697Y-90813966D01*
X150626190Y-90884139D01*
X150626183Y-90884146D01*
X150622000Y-90887579D01*
X150622000Y-86487000D01*
X150619560Y-86462224D01*
X150612333Y-86438399D01*
X150522530Y-86221596D01*
X150510794Y-86199639D01*
X150495000Y-86180394D01*
X150039606Y-85725000D01*
X150020360Y-85709206D01*
X149998404Y-85697470D01*
X149781601Y-85607667D01*
X149757777Y-85600440D01*
X149733000Y-85598000D01*
X99822000Y-85598000D01*
X99797224Y-85600440D01*
X99773399Y-85607667D01*
X99556596Y-85697470D01*
X99534639Y-85709206D01*
X99515394Y-85725000D01*
X99060000Y-86180394D01*
X99044206Y-86199640D01*
X99032470Y-86221596D01*
X98942667Y-86438399D01*
X98935440Y-86462223D01*
X98933000Y-86487000D01*
X98933000Y-88107689D01*
X98904637Y-88065241D01*
X98704759Y-87865363D01*
X98469727Y-87708320D01*
X98208574Y-87600147D01*
X97931335Y-87545000D01*
X97648665Y-87545000D01*
X97371426Y-87600147D01*
X97110273Y-87708320D01*
X96875241Y-87865363D01*
X96675363Y-88065241D01*
X96518320Y-88300273D01*
X96410147Y-88561426D01*
X96355000Y-88838665D01*
X96355000Y-89121335D01*
X96410147Y-89398574D01*
X96518320Y-89659727D01*
X96675363Y-89894759D01*
X96875241Y-90094637D01*
X97110273Y-90251680D01*
X97371426Y-90359853D01*
X97648665Y-90415000D01*
X97931335Y-90415000D01*
X98208574Y-90359853D01*
X98469727Y-90251680D01*
X98704759Y-90094637D01*
X98904637Y-89894759D01*
X98933000Y-89852311D01*
X98933000Y-93211002D01*
X98782702Y-93166903D01*
X97969605Y-93980000D01*
X98782702Y-94793097D01*
X98933000Y-94748998D01*
X98933000Y-105918000D01*
X98935440Y-105942776D01*
X98942667Y-105966601D01*
X99032470Y-106183404D01*
X99044206Y-106205361D01*
X99060000Y-106224606D01*
X99515394Y-106680000D01*
X99534640Y-106695794D01*
X99556596Y-106707530D01*
X99773399Y-106797333D01*
X99797223Y-106804560D01*
X99822000Y-106807000D01*
X104622737Y-106807000D01*
X104792862Y-106877468D01*
X105212532Y-107297138D01*
X105283000Y-107467263D01*
X105283000Y-107948355D01*
X105262601Y-107917161D01*
X105064895Y-107715500D01*
X104831646Y-107556285D01*
X104571818Y-107445633D01*
X104489039Y-107428096D01*
X104267000Y-107550085D01*
X104267000Y-109093000D01*
X104287000Y-109093000D01*
X104287000Y-109347000D01*
X104267000Y-109347000D01*
X104267000Y-110889915D01*
X104489039Y-111011904D01*
X104571818Y-110994367D01*
X104831646Y-110883715D01*
X105064895Y-110724500D01*
X105262601Y-110522839D01*
X105283000Y-110491646D01*
X105283000Y-110972737D01*
X105212532Y-111142862D01*
X104792862Y-111562532D01*
X104622737Y-111633000D01*
X95809434Y-111633000D01*
X95794236Y-111478691D01*
X95712182Y-111208192D01*
X95578932Y-110958899D01*
X95399608Y-110740392D01*
X95181101Y-110561068D01*
X95053259Y-110492735D01*
X95282839Y-110342601D01*
X95484500Y-110144895D01*
X95643715Y-109911646D01*
X95754367Y-109651818D01*
X95771904Y-109569039D01*
X95649915Y-109347000D01*
X94107000Y-109347000D01*
X94107000Y-109367000D01*
X93853000Y-109367000D01*
X93853000Y-109347000D01*
X92310085Y-109347000D01*
X92188096Y-109569039D01*
X92205633Y-109651818D01*
X92316285Y-109911646D01*
X92475500Y-110144895D01*
X92677161Y-110342601D01*
X92906741Y-110492735D01*
X92778899Y-110561068D01*
X92560392Y-110740392D01*
X92381068Y-110958899D01*
X92247818Y-111208192D01*
X92165764Y-111478691D01*
X92150566Y-111633000D01*
X88189434Y-111633000D01*
X88174236Y-111478691D01*
X88092182Y-111208192D01*
X87958932Y-110958899D01*
X87779608Y-110740392D01*
X87666518Y-110647581D01*
X87684482Y-110645812D01*
X87804180Y-110609502D01*
X87914494Y-110550537D01*
X88011185Y-110471185D01*
X88090537Y-110374494D01*
X88149502Y-110264180D01*
X88185812Y-110144482D01*
X88198072Y-110020000D01*
X88198072Y-108870961D01*
X92188096Y-108870961D01*
X92310085Y-109093000D01*
X93853000Y-109093000D01*
X93853000Y-107785000D01*
X94107000Y-107785000D01*
X94107000Y-109093000D01*
X95649915Y-109093000D01*
X95771904Y-108870961D01*
X95754367Y-108788182D01*
X95643715Y-108528354D01*
X95484500Y-108295105D01*
X95282839Y-108097399D01*
X95164483Y-108020000D01*
X100161928Y-108020000D01*
X100161928Y-110420000D01*
X100174188Y-110544482D01*
X100210498Y-110664180D01*
X100269463Y-110774494D01*
X100348815Y-110871185D01*
X100445506Y-110950537D01*
X100555820Y-111009502D01*
X100675518Y-111045812D01*
X100800000Y-111058072D01*
X102400000Y-111058072D01*
X102524482Y-111045812D01*
X102644180Y-111009502D01*
X102754494Y-110950537D01*
X102851185Y-110871185D01*
X102930537Y-110774494D01*
X102989502Y-110664180D01*
X103025812Y-110544482D01*
X103026981Y-110532613D01*
X103215105Y-110724500D01*
X103448354Y-110883715D01*
X103708182Y-110994367D01*
X103790961Y-111011904D01*
X104013000Y-110889915D01*
X104013000Y-109347000D01*
X103993000Y-109347000D01*
X103993000Y-109093000D01*
X104013000Y-109093000D01*
X104013000Y-107550085D01*
X103790961Y-107428096D01*
X103708182Y-107445633D01*
X103448354Y-107556285D01*
X103215105Y-107715500D01*
X103026981Y-107907387D01*
X103025812Y-107895518D01*
X102989502Y-107775820D01*
X102930537Y-107665506D01*
X102851185Y-107568815D01*
X102754494Y-107489463D01*
X102644180Y-107430498D01*
X102524482Y-107394188D01*
X102400000Y-107381928D01*
X100800000Y-107381928D01*
X100675518Y-107394188D01*
X100555820Y-107430498D01*
X100445506Y-107489463D01*
X100348815Y-107568815D01*
X100269463Y-107665506D01*
X100210498Y-107775820D01*
X100174188Y-107895518D01*
X100161928Y-108020000D01*
X95164483Y-108020000D01*
X95046483Y-107942834D01*
X94784514Y-107837350D01*
X94507000Y-107785000D01*
X94107000Y-107785000D01*
X93853000Y-107785000D01*
X93453000Y-107785000D01*
X93175486Y-107837350D01*
X92913517Y-107942834D01*
X92677161Y-108097399D01*
X92475500Y-108295105D01*
X92316285Y-108528354D01*
X92205633Y-108788182D01*
X92188096Y-108870961D01*
X88198072Y-108870961D01*
X88198072Y-108420000D01*
X88185812Y-108295518D01*
X88149502Y-108175820D01*
X88090537Y-108065506D01*
X88011185Y-107968815D01*
X87914494Y-107889463D01*
X87804180Y-107830498D01*
X87684482Y-107794188D01*
X87560000Y-107781928D01*
X85160000Y-107781928D01*
X85035518Y-107794188D01*
X84915820Y-107830498D01*
X84805506Y-107889463D01*
X84708815Y-107968815D01*
X84629463Y-108065506D01*
X84570498Y-108175820D01*
X84534188Y-108295518D01*
X84521928Y-108420000D01*
X84521928Y-110020000D01*
X84534188Y-110144482D01*
X84570498Y-110264180D01*
X84629463Y-110374494D01*
X84708815Y-110471185D01*
X84805506Y-110550537D01*
X84915820Y-110609502D01*
X85035518Y-110645812D01*
X85053482Y-110647581D01*
X84940392Y-110740392D01*
X84761068Y-110958899D01*
X84627818Y-111208192D01*
X84545764Y-111478691D01*
X84533572Y-111602476D01*
X84437138Y-111562532D01*
X84017468Y-111142862D01*
X83947000Y-110972737D01*
X83947000Y-96520000D01*
X84518057Y-96520000D01*
X84545764Y-96801309D01*
X84627818Y-97071808D01*
X84761068Y-97321101D01*
X84940392Y-97539608D01*
X85158899Y-97718932D01*
X85291858Y-97790000D01*
X85158899Y-97861068D01*
X84940392Y-98040392D01*
X84761068Y-98258899D01*
X84627818Y-98508192D01*
X84545764Y-98778691D01*
X84518057Y-99060000D01*
X84545764Y-99341309D01*
X84627818Y-99611808D01*
X84761068Y-99861101D01*
X84940392Y-100079608D01*
X85158899Y-100258932D01*
X85291858Y-100330000D01*
X85158899Y-100401068D01*
X84940392Y-100580392D01*
X84761068Y-100798899D01*
X84627818Y-101048192D01*
X84545764Y-101318691D01*
X84518057Y-101600000D01*
X84545764Y-101881309D01*
X84627818Y-102151808D01*
X84761068Y-102401101D01*
X84940392Y-102619608D01*
X85158899Y-102798932D01*
X85408192Y-102932182D01*
X85678691Y-103014236D01*
X85889508Y-103035000D01*
X86830492Y-103035000D01*
X87041309Y-103014236D01*
X87311808Y-102932182D01*
X87561101Y-102798932D01*
X87779608Y-102619608D01*
X87958932Y-102401101D01*
X88092182Y-102151808D01*
X88174236Y-101881309D01*
X88201943Y-101600000D01*
X88174236Y-101318691D01*
X88092182Y-101048192D01*
X87958932Y-100798899D01*
X87779608Y-100580392D01*
X87561101Y-100401068D01*
X87428142Y-100330000D01*
X87561101Y-100258932D01*
X87779608Y-100079608D01*
X87958932Y-99861101D01*
X88092182Y-99611808D01*
X88174236Y-99341309D01*
X88201943Y-99060000D01*
X88174236Y-98778691D01*
X88092182Y-98508192D01*
X87958932Y-98258899D01*
X87779608Y-98040392D01*
X87561101Y-97861068D01*
X87428142Y-97790000D01*
X87561101Y-97718932D01*
X87779608Y-97539608D01*
X87958932Y-97321101D01*
X88092182Y-97071808D01*
X88174236Y-96801309D01*
X88201943Y-96520000D01*
X92138057Y-96520000D01*
X92165764Y-96801309D01*
X92247818Y-97071808D01*
X92381068Y-97321101D01*
X92560392Y-97539608D01*
X92778899Y-97718932D01*
X92911858Y-97790000D01*
X92778899Y-97861068D01*
X92560392Y-98040392D01*
X92381068Y-98258899D01*
X92247818Y-98508192D01*
X92165764Y-98778691D01*
X92138057Y-99060000D01*
X92165764Y-99341309D01*
X92247818Y-99611808D01*
X92381068Y-99861101D01*
X92560392Y-100079608D01*
X92778899Y-100258932D01*
X92911858Y-100330000D01*
X92778899Y-100401068D01*
X92560392Y-100580392D01*
X92381068Y-100798899D01*
X92247818Y-101048192D01*
X92165764Y-101318691D01*
X92138057Y-101600000D01*
X92165764Y-101881309D01*
X92247818Y-102151808D01*
X92381068Y-102401101D01*
X92560392Y-102619608D01*
X92778899Y-102798932D01*
X93028192Y-102932182D01*
X93298691Y-103014236D01*
X93509508Y-103035000D01*
X94450492Y-103035000D01*
X94661309Y-103014236D01*
X94931808Y-102932182D01*
X95181101Y-102798932D01*
X95399608Y-102619608D01*
X95578932Y-102401101D01*
X95712182Y-102151808D01*
X95794236Y-101881309D01*
X95821943Y-101600000D01*
X95794236Y-101318691D01*
X95712182Y-101048192D01*
X95578932Y-100798899D01*
X95399608Y-100580392D01*
X95181101Y-100401068D01*
X95048142Y-100330000D01*
X95181101Y-100258932D01*
X95399608Y-100079608D01*
X95578932Y-99861101D01*
X95712182Y-99611808D01*
X95794236Y-99341309D01*
X95821943Y-99060000D01*
X95794236Y-98778691D01*
X95712182Y-98508192D01*
X95578932Y-98258899D01*
X95399608Y-98040392D01*
X95181101Y-97861068D01*
X95048142Y-97790000D01*
X95181101Y-97718932D01*
X95399608Y-97539608D01*
X95578932Y-97321101D01*
X95712182Y-97071808D01*
X95794236Y-96801309D01*
X95821943Y-96520000D01*
X95794236Y-96238691D01*
X95712182Y-95968192D01*
X95578932Y-95718899D01*
X95399608Y-95500392D01*
X95181101Y-95321068D01*
X95053259Y-95252735D01*
X95282839Y-95102601D01*
X95415336Y-94972702D01*
X96976903Y-94972702D01*
X97048486Y-95216671D01*
X97303996Y-95337571D01*
X97578184Y-95406300D01*
X97860512Y-95420217D01*
X98140130Y-95378787D01*
X98406292Y-95283603D01*
X98531514Y-95216671D01*
X98603097Y-94972702D01*
X97790000Y-94159605D01*
X96976903Y-94972702D01*
X95415336Y-94972702D01*
X95484500Y-94904895D01*
X95643715Y-94671646D01*
X95754367Y-94411818D01*
X95771904Y-94329039D01*
X95649915Y-94107000D01*
X94107000Y-94107000D01*
X94107000Y-94127000D01*
X93853000Y-94127000D01*
X93853000Y-94107000D01*
X92310085Y-94107000D01*
X92188096Y-94329039D01*
X92205633Y-94411818D01*
X92316285Y-94671646D01*
X92475500Y-94904895D01*
X92677161Y-95102601D01*
X92906741Y-95252735D01*
X92778899Y-95321068D01*
X92560392Y-95500392D01*
X92381068Y-95718899D01*
X92247818Y-95968192D01*
X92165764Y-96238691D01*
X92138057Y-96520000D01*
X88201943Y-96520000D01*
X88174236Y-96238691D01*
X88092182Y-95968192D01*
X87958932Y-95718899D01*
X87779608Y-95500392D01*
X87666518Y-95407581D01*
X87684482Y-95405812D01*
X87804180Y-95369502D01*
X87914494Y-95310537D01*
X88011185Y-95231185D01*
X88090537Y-95134494D01*
X88149502Y-95024180D01*
X88185812Y-94904482D01*
X88198072Y-94780000D01*
X88198072Y-94729300D01*
X90133205Y-94729300D01*
X90170000Y-94732924D01*
X90206795Y-94729300D01*
X90206806Y-94729300D01*
X90316888Y-94718458D01*
X90458132Y-94675612D01*
X90588303Y-94606034D01*
X90702398Y-94512398D01*
X90725863Y-94483806D01*
X91159157Y-94050512D01*
X96349783Y-94050512D01*
X96391213Y-94330130D01*
X96486397Y-94596292D01*
X96553329Y-94721514D01*
X96797298Y-94793097D01*
X97610395Y-93980000D01*
X96797298Y-93166903D01*
X96553329Y-93238486D01*
X96432429Y-93493996D01*
X96363700Y-93768184D01*
X96349783Y-94050512D01*
X91159157Y-94050512D01*
X91578708Y-93630961D01*
X92188096Y-93630961D01*
X92310085Y-93853000D01*
X93853000Y-93853000D01*
X93853000Y-92545000D01*
X94107000Y-92545000D01*
X94107000Y-93853000D01*
X95649915Y-93853000D01*
X95771904Y-93630961D01*
X95754367Y-93548182D01*
X95643715Y-93288354D01*
X95484500Y-93055105D01*
X95415337Y-92987298D01*
X96976903Y-92987298D01*
X97790000Y-93800395D01*
X98603097Y-92987298D01*
X98531514Y-92743329D01*
X98276004Y-92622429D01*
X98001816Y-92553700D01*
X97719488Y-92539783D01*
X97439870Y-92581213D01*
X97173708Y-92676397D01*
X97048486Y-92743329D01*
X96976903Y-92987298D01*
X95415337Y-92987298D01*
X95282839Y-92857399D01*
X95046483Y-92702834D01*
X94784514Y-92597350D01*
X94507000Y-92545000D01*
X94107000Y-92545000D01*
X93853000Y-92545000D01*
X93453000Y-92545000D01*
X93175486Y-92597350D01*
X92913517Y-92702834D01*
X92677161Y-92857399D01*
X92475500Y-93055105D01*
X92316285Y-93288354D01*
X92205633Y-93548182D01*
X92188096Y-93630961D01*
X91578708Y-93630961D01*
X91943812Y-93265858D01*
X91972398Y-93242398D01*
X92004731Y-93203001D01*
X92066034Y-93128304D01*
X92119544Y-93028193D01*
X92135612Y-92998132D01*
X92178458Y-92856888D01*
X92189300Y-92746806D01*
X92189300Y-92746797D01*
X92192924Y-92710001D01*
X92189300Y-92673205D01*
X92189300Y-90028665D01*
X92545000Y-90028665D01*
X92545000Y-90311335D01*
X92600147Y-90588574D01*
X92708320Y-90849727D01*
X92865363Y-91084759D01*
X93065241Y-91284637D01*
X93300273Y-91441680D01*
X93561426Y-91549853D01*
X93838665Y-91605000D01*
X94121335Y-91605000D01*
X94398574Y-91549853D01*
X94659727Y-91441680D01*
X94894759Y-91284637D01*
X95094637Y-91084759D01*
X95251680Y-90849727D01*
X95359853Y-90588574D01*
X95415000Y-90311335D01*
X95415000Y-90028665D01*
X95359853Y-89751426D01*
X95251680Y-89490273D01*
X95094637Y-89255241D01*
X94894759Y-89055363D01*
X94659727Y-88898320D01*
X94398574Y-88790147D01*
X94121335Y-88735000D01*
X93838665Y-88735000D01*
X93561426Y-88790147D01*
X93300273Y-88898320D01*
X93065241Y-89055363D01*
X92865363Y-89255241D01*
X92708320Y-89490273D01*
X92600147Y-89751426D01*
X92545000Y-90028665D01*
X92189300Y-90028665D01*
X92189300Y-87940369D01*
X92858754Y-87270916D01*
X92884378Y-87294557D01*
X92955775Y-87365171D01*
X93065241Y-87474637D01*
X93300273Y-87631680D01*
X93561426Y-87739853D01*
X93838665Y-87795000D01*
X94121335Y-87795000D01*
X94398574Y-87739853D01*
X94659727Y-87631680D01*
X94894759Y-87474637D01*
X95094637Y-87274759D01*
X95251680Y-87039727D01*
X95359853Y-86778574D01*
X95415000Y-86501335D01*
X95415000Y-86218665D01*
X95359853Y-85941426D01*
X95251680Y-85680273D01*
X95094637Y-85445241D01*
X94894759Y-85245363D01*
X94659727Y-85088320D01*
X94398574Y-84980147D01*
X94121335Y-84925000D01*
X93838665Y-84925000D01*
X93561426Y-84980147D01*
X93300273Y-85088320D01*
X93065241Y-85245363D01*
X92955793Y-85354811D01*
X92884378Y-85425441D01*
X92819794Y-85485028D01*
X92762499Y-85533748D01*
X92713631Y-85571441D01*
X92674727Y-85598073D01*
X92649286Y-85613055D01*
X92563112Y-85621542D01*
X92421868Y-85664388D01*
X92369263Y-85692506D01*
X92291696Y-85733966D01*
X92206190Y-85804140D01*
X92177602Y-85827602D01*
X92154141Y-85856189D01*
X90936189Y-87074142D01*
X90907603Y-87097602D01*
X90884143Y-87126188D01*
X90884140Y-87126191D01*
X90813966Y-87211697D01*
X90744388Y-87341869D01*
X90735405Y-87371484D01*
X90705485Y-87470119D01*
X90701543Y-87483113D01*
X90687076Y-87630000D01*
X90690701Y-87666805D01*
X90690700Y-92399630D01*
X89859631Y-93230700D01*
X88198072Y-93230700D01*
X88198072Y-93180000D01*
X88185812Y-93055518D01*
X88149502Y-92935820D01*
X88090537Y-92825506D01*
X88011185Y-92728815D01*
X87914494Y-92649463D01*
X87804180Y-92590498D01*
X87684482Y-92554188D01*
X87560000Y-92541928D01*
X85160000Y-92541928D01*
X85035518Y-92554188D01*
X84915820Y-92590498D01*
X84805506Y-92649463D01*
X84708815Y-92728815D01*
X84629463Y-92825506D01*
X84570498Y-92935820D01*
X84534188Y-93055518D01*
X84521928Y-93180000D01*
X84521928Y-94780000D01*
X84534188Y-94904482D01*
X84570498Y-95024180D01*
X84629463Y-95134494D01*
X84708815Y-95231185D01*
X84805506Y-95310537D01*
X84915820Y-95369502D01*
X85035518Y-95405812D01*
X85053482Y-95407581D01*
X84940392Y-95500392D01*
X84761068Y-95718899D01*
X84627818Y-95968192D01*
X84545764Y-96238691D01*
X84518057Y-96520000D01*
X83947000Y-96520000D01*
X83947000Y-90028665D01*
X84925000Y-90028665D01*
X84925000Y-90311335D01*
X84980147Y-90588574D01*
X85088320Y-90849727D01*
X85245363Y-91084759D01*
X85445241Y-91284637D01*
X85680273Y-91441680D01*
X85941426Y-91549853D01*
X86218665Y-91605000D01*
X86501335Y-91605000D01*
X86778574Y-91549853D01*
X87039727Y-91441680D01*
X87274759Y-91284637D01*
X87384218Y-91175178D01*
X87455627Y-91104553D01*
X87520203Y-91044972D01*
X87577500Y-90996251D01*
X87626363Y-90958562D01*
X87665274Y-90931926D01*
X87690713Y-90916945D01*
X87776888Y-90908458D01*
X87918132Y-90865612D01*
X88048303Y-90796034D01*
X88162398Y-90702398D01*
X88185863Y-90673806D01*
X89403811Y-89455859D01*
X89432398Y-89432398D01*
X89505152Y-89343748D01*
X89526034Y-89318304D01*
X89595611Y-89188133D01*
X89595612Y-89188132D01*
X89638458Y-89046888D01*
X89649300Y-88936806D01*
X89649300Y-88936797D01*
X89652924Y-88900001D01*
X89649300Y-88863205D01*
X89649300Y-85400369D01*
X90620695Y-84428975D01*
X90703376Y-84351886D01*
X90777825Y-84292027D01*
X90852071Y-84241219D01*
X90926494Y-84198628D01*
X91001761Y-84163456D01*
X91078778Y-84135062D01*
X91158533Y-84113061D01*
X91242152Y-84097312D01*
X91330680Y-84087955D01*
X91438073Y-84085000D01*
X91591184Y-84085000D01*
X91887743Y-84026011D01*
X92167095Y-83910299D01*
X92418505Y-83742312D01*
X92484944Y-83675873D01*
X92490498Y-83694180D01*
X92549463Y-83804494D01*
X92628815Y-83901185D01*
X92725506Y-83980537D01*
X92835820Y-84039502D01*
X92955518Y-84075812D01*
X93080000Y-84088072D01*
X94880000Y-84088072D01*
X95004482Y-84075812D01*
X95124180Y-84039502D01*
X95234494Y-83980537D01*
X95331185Y-83901185D01*
X95410537Y-83804494D01*
X95469502Y-83694180D01*
X95505812Y-83574482D01*
X95518072Y-83450000D01*
X95518072Y-81981553D01*
X148954009Y-81981553D01*
X148996603Y-82280907D01*
X149096778Y-82566199D01*
X149176739Y-82715792D01*
X149430920Y-82799475D01*
X150315395Y-81915000D01*
X149430920Y-81030525D01*
X149176739Y-81114208D01*
X149045842Y-81386775D01*
X148970635Y-81679642D01*
X148954009Y-81981553D01*
X95518072Y-81981553D01*
X95518072Y-81650000D01*
X95505812Y-81525518D01*
X95469502Y-81405820D01*
X95410537Y-81295506D01*
X95331185Y-81198815D01*
X95234494Y-81119463D01*
X95124180Y-81060498D01*
X95004482Y-81024188D01*
X94880000Y-81011928D01*
X93080000Y-81011928D01*
X92955518Y-81024188D01*
X92835820Y-81060498D01*
X92725506Y-81119463D01*
X92628815Y-81198815D01*
X92549463Y-81295506D01*
X92490498Y-81405820D01*
X92484944Y-81424127D01*
X92418505Y-81357688D01*
X92167095Y-81189701D01*
X91887743Y-81073989D01*
X91591184Y-81015000D01*
X91288816Y-81015000D01*
X90992257Y-81073989D01*
X90712905Y-81189701D01*
X90461495Y-81357688D01*
X90247688Y-81571495D01*
X90079701Y-81822905D01*
X89963989Y-82102257D01*
X89905000Y-82398816D01*
X89905000Y-82551919D01*
X89902044Y-82659318D01*
X89892687Y-82747847D01*
X89876938Y-82831466D01*
X89854934Y-82911233D01*
X89826547Y-82988231D01*
X89791373Y-83063502D01*
X89748780Y-83137928D01*
X89697972Y-83212174D01*
X89638113Y-83286623D01*
X89561019Y-83369311D01*
X88396194Y-84534137D01*
X88367602Y-84557602D01*
X88333760Y-84598839D01*
X88273966Y-84671697D01*
X88249866Y-84716785D01*
X88204388Y-84801869D01*
X88161542Y-84943113D01*
X88150700Y-85053195D01*
X88150700Y-85053205D01*
X88147076Y-85090000D01*
X88150700Y-85126796D01*
X88150701Y-88589629D01*
X87481246Y-89259084D01*
X87455626Y-89235446D01*
X87384215Y-89164819D01*
X87274759Y-89055363D01*
X87039727Y-88898320D01*
X86778574Y-88790147D01*
X86501335Y-88735000D01*
X86218665Y-88735000D01*
X85941426Y-88790147D01*
X85680273Y-88898320D01*
X85445241Y-89055363D01*
X85245363Y-89255241D01*
X85088320Y-89490273D01*
X84980147Y-89751426D01*
X84925000Y-90028665D01*
X83947000Y-90028665D01*
X83947000Y-86276670D01*
X84534140Y-86863810D01*
X84557602Y-86892398D01*
X84586188Y-86915858D01*
X84586190Y-86915860D01*
X84671696Y-86986034D01*
X84705245Y-87003966D01*
X84801868Y-87055612D01*
X84943112Y-87098458D01*
X85029288Y-87106946D01*
X85054727Y-87121926D01*
X85093631Y-87148558D01*
X85142499Y-87186251D01*
X85199794Y-87234971D01*
X85264378Y-87294557D01*
X85335775Y-87365171D01*
X85445241Y-87474637D01*
X85680273Y-87631680D01*
X85941426Y-87739853D01*
X86218665Y-87795000D01*
X86501335Y-87795000D01*
X86778574Y-87739853D01*
X87039727Y-87631680D01*
X87274759Y-87474637D01*
X87474637Y-87274759D01*
X87631680Y-87039727D01*
X87739853Y-86778574D01*
X87795000Y-86501335D01*
X87795000Y-86218665D01*
X87739853Y-85941426D01*
X87631680Y-85680273D01*
X87474637Y-85445241D01*
X87274759Y-85245363D01*
X87039727Y-85088320D01*
X86778574Y-84980147D01*
X86501335Y-84925000D01*
X86218665Y-84925000D01*
X85941426Y-84980147D01*
X85680273Y-85088320D01*
X85445241Y-85245363D01*
X85335793Y-85354811D01*
X85264378Y-85425441D01*
X85238753Y-85449083D01*
X84569300Y-84779631D01*
X84569300Y-84457938D01*
X84573253Y-84345003D01*
X84583570Y-84250025D01*
X84600143Y-84161604D01*
X84622652Y-84078857D01*
X84651006Y-84000758D01*
X84685379Y-83926241D01*
X84726222Y-83854281D01*
X84774219Y-83784009D01*
X84830196Y-83714801D01*
X84865453Y-83677549D01*
X84870498Y-83694180D01*
X84929463Y-83804494D01*
X85008815Y-83901185D01*
X85105506Y-83980537D01*
X85215820Y-84039502D01*
X85335518Y-84075812D01*
X85460000Y-84088072D01*
X87260000Y-84088072D01*
X87384482Y-84075812D01*
X87504180Y-84039502D01*
X87614494Y-83980537D01*
X87711185Y-83901185D01*
X87790537Y-83804494D01*
X87849502Y-83694180D01*
X87885812Y-83574482D01*
X87898072Y-83450000D01*
X87898072Y-81650000D01*
X87885812Y-81525518D01*
X87849502Y-81405820D01*
X87790537Y-81295506D01*
X87711185Y-81198815D01*
X87614494Y-81119463D01*
X87504180Y-81060498D01*
X87384482Y-81024188D01*
X87260000Y-81011928D01*
X85460000Y-81011928D01*
X85335518Y-81024188D01*
X85215820Y-81060498D01*
X85105506Y-81119463D01*
X85008815Y-81198815D01*
X84929463Y-81295506D01*
X84870498Y-81405820D01*
X84864944Y-81424127D01*
X84798505Y-81357688D01*
X84547095Y-81189701D01*
X84267743Y-81073989D01*
X83971184Y-81015000D01*
X83947000Y-81015000D01*
X83947000Y-80850920D01*
X149610525Y-80850920D01*
X150495000Y-81735395D01*
X150509143Y-81721253D01*
X150688748Y-81900858D01*
X150674605Y-81915000D01*
X150688748Y-81929143D01*
X150509143Y-82108748D01*
X150495000Y-82094605D01*
X149610525Y-82979080D01*
X149694208Y-83233261D01*
X149966775Y-83364158D01*
X150259642Y-83439365D01*
X150561553Y-83455991D01*
X150860907Y-83413397D01*
X151146199Y-83313222D01*
X151295792Y-83233261D01*
X151379474Y-82979082D01*
X151495422Y-83095030D01*
X151542187Y-83048265D01*
X151545498Y-83059180D01*
X151604463Y-83169494D01*
X151683815Y-83266185D01*
X151780506Y-83345537D01*
X151890820Y-83404502D01*
X152010518Y-83440812D01*
X152135000Y-83453072D01*
X152234854Y-83453072D01*
X152254856Y-83526604D01*
X152271429Y-83615025D01*
X152281746Y-83710004D01*
X152285700Y-83822955D01*
X152285701Y-85328466D01*
X152282445Y-85421480D01*
X152274226Y-85497173D01*
X152261149Y-85566962D01*
X152243533Y-85631736D01*
X152221475Y-85692506D01*
X152194799Y-85750348D01*
X152163059Y-85806278D01*
X152125559Y-85861187D01*
X152081496Y-85915670D01*
X152020789Y-85979815D01*
X151920363Y-86080241D01*
X151763320Y-86315273D01*
X151655147Y-86576426D01*
X151600000Y-86853665D01*
X151600000Y-87136335D01*
X151655147Y-87413574D01*
X151763320Y-87674727D01*
X151920363Y-87909759D01*
X152120241Y-88109637D01*
X152355273Y-88266680D01*
X152616426Y-88374853D01*
X152893665Y-88430000D01*
X153176335Y-88430000D01*
X153453574Y-88374853D01*
X153714727Y-88266680D01*
X153949759Y-88109637D01*
X154149637Y-87909759D01*
X154306680Y-87674727D01*
X154414853Y-87413574D01*
X154470000Y-87136335D01*
X154470000Y-86853665D01*
X154414853Y-86576426D01*
X154306680Y-86315273D01*
X154149637Y-86080241D01*
X154049189Y-85979793D01*
X153988509Y-85915677D01*
X153944440Y-85861187D01*
X153906940Y-85806278D01*
X153875200Y-85750348D01*
X153848524Y-85692506D01*
X153826466Y-85631736D01*
X153808850Y-85566962D01*
X153795773Y-85497173D01*
X153787555Y-85421493D01*
X153784300Y-85328466D01*
X153784300Y-83822938D01*
X153788253Y-83710003D01*
X153798570Y-83615025D01*
X153815143Y-83526604D01*
X153835145Y-83453072D01*
X153935000Y-83453072D01*
X154059482Y-83440812D01*
X154179180Y-83404502D01*
X154289494Y-83345537D01*
X154386185Y-83266185D01*
X154465537Y-83169494D01*
X154524502Y-83059180D01*
X154560812Y-82939482D01*
X154573072Y-82815000D01*
X154573072Y-81015000D01*
X154560812Y-80890518D01*
X154524502Y-80770820D01*
X154465537Y-80660506D01*
X154386185Y-80563815D01*
X154289494Y-80484463D01*
X154179180Y-80425498D01*
X154059482Y-80389188D01*
X153935000Y-80376928D01*
X152135000Y-80376928D01*
X152010518Y-80389188D01*
X151890820Y-80425498D01*
X151780506Y-80484463D01*
X151683815Y-80563815D01*
X151604463Y-80660506D01*
X151545498Y-80770820D01*
X151542187Y-80781735D01*
X151495422Y-80734970D01*
X151379474Y-80850918D01*
X151295792Y-80596739D01*
X151023225Y-80465842D01*
X150730358Y-80390635D01*
X150428447Y-80374009D01*
X150129093Y-80416603D01*
X149843801Y-80516778D01*
X149694208Y-80596739D01*
X149610525Y-80850920D01*
X83947000Y-80850920D01*
X83947000Y-78892263D01*
X84017468Y-78722138D01*
X84384606Y-78355000D01*
X159742721Y-78355000D01*
X160228893Y-78402670D01*
%TA.AperFunction,Conductor*%
D23*
G36*
X160228893Y-78402670D02*
G01*
X160665498Y-78534489D01*
X161068185Y-78748600D01*
X161343692Y-78973298D01*
X161490438Y-79120044D01*
X161712327Y-79388261D01*
X161798000Y-79546711D01*
X161798000Y-86122689D01*
X161769637Y-86080241D01*
X161569759Y-85880363D01*
X161334727Y-85723320D01*
X161073574Y-85615147D01*
X160796335Y-85560000D01*
X160513665Y-85560000D01*
X160236426Y-85615147D01*
X159975273Y-85723320D01*
X159740241Y-85880363D01*
X159540363Y-86080241D01*
X159383320Y-86315273D01*
X159275147Y-86576426D01*
X159220000Y-86853665D01*
X159220000Y-87136335D01*
X159275147Y-87413574D01*
X159383320Y-87674727D01*
X159540363Y-87909759D01*
X159740241Y-88109637D01*
X159975273Y-88266680D01*
X160236426Y-88374853D01*
X160513665Y-88430000D01*
X160796335Y-88430000D01*
X161073574Y-88374853D01*
X161334727Y-88266680D01*
X161569759Y-88109637D01*
X161769637Y-87909759D01*
X161798000Y-87867311D01*
X161798000Y-125577737D01*
X161727532Y-125747862D01*
X160672862Y-126802532D01*
X160502737Y-126873000D01*
X156997263Y-126873000D01*
X156827138Y-126802532D01*
X156407468Y-126382862D01*
X156388617Y-126337352D01*
X156521632Y-126248475D01*
X156728475Y-126041632D01*
X156845000Y-125867240D01*
X156961525Y-126041632D01*
X157168368Y-126248475D01*
X157411589Y-126410990D01*
X157681842Y-126522932D01*
X157968740Y-126580000D01*
X158261260Y-126580000D01*
X158548158Y-126522932D01*
X158818411Y-126410990D01*
X159061632Y-126248475D01*
X159268475Y-126041632D01*
X159430990Y-125798411D01*
X159542932Y-125528158D01*
X159600000Y-125241260D01*
X159600000Y-124948740D01*
X159542932Y-124661842D01*
X159430990Y-124391589D01*
X159268475Y-124148368D01*
X159136620Y-124016513D01*
X159209180Y-123994502D01*
X159319494Y-123935537D01*
X159416185Y-123856185D01*
X159495537Y-123759494D01*
X159554502Y-123649180D01*
X159590812Y-123529482D01*
X159603072Y-123405000D01*
X159600000Y-122840750D01*
X159441250Y-122682000D01*
X158242000Y-122682000D01*
X158242000Y-122702000D01*
X157988000Y-122702000D01*
X157988000Y-122682000D01*
X157968000Y-122682000D01*
X157968000Y-122428000D01*
X157988000Y-122428000D01*
X157988000Y-121228750D01*
X158242000Y-121228750D01*
X158242000Y-122428000D01*
X159441250Y-122428000D01*
X159600000Y-122269250D01*
X159603072Y-121705000D01*
X159590812Y-121580518D01*
X159554502Y-121460820D01*
X159495537Y-121350506D01*
X159416185Y-121253815D01*
X159319494Y-121174463D01*
X159209180Y-121115498D01*
X159089482Y-121079188D01*
X158965000Y-121066928D01*
X158400750Y-121070000D01*
X158242000Y-121228750D01*
X157988000Y-121228750D01*
X157829250Y-121070000D01*
X157265000Y-121066928D01*
X157140518Y-121079188D01*
X157020820Y-121115498D01*
X156910506Y-121174463D01*
X156813815Y-121253815D01*
X156734463Y-121350506D01*
X156675498Y-121460820D01*
X156653487Y-121533380D01*
X156521632Y-121401525D01*
X156337000Y-121278158D01*
X156337000Y-119507000D01*
X156334560Y-119482224D01*
X156327333Y-119458399D01*
X156237530Y-119241596D01*
X156225794Y-119219639D01*
X156210000Y-119200394D01*
X155754606Y-118745000D01*
X155735360Y-118729206D01*
X155713404Y-118717470D01*
X155496601Y-118627667D01*
X155472777Y-118620440D01*
X155448000Y-118618000D01*
X151282263Y-118618000D01*
X151112138Y-118547532D01*
X150692468Y-118127862D01*
X150622000Y-117957737D01*
X150622000Y-112509300D01*
X151093205Y-112509300D01*
X151130000Y-112512924D01*
X151166795Y-112509300D01*
X151166806Y-112509300D01*
X151276888Y-112498458D01*
X151418132Y-112455612D01*
X151548303Y-112386034D01*
X151662398Y-112292398D01*
X151685863Y-112263806D01*
X152903812Y-111045858D01*
X152932398Y-111022398D01*
X152984511Y-110958899D01*
X153026034Y-110908304D01*
X153095611Y-110778133D01*
X153095612Y-110778132D01*
X153138458Y-110636888D01*
X153149300Y-110526806D01*
X153149300Y-110526797D01*
X153152924Y-110490001D01*
X153149300Y-110453205D01*
X153149300Y-102545370D01*
X153345370Y-102349300D01*
X155692771Y-102349300D01*
X155795735Y-102352904D01*
X155881071Y-102362172D01*
X155960183Y-102376999D01*
X156033941Y-102397061D01*
X156103368Y-102422264D01*
X156169550Y-102452788D01*
X156233501Y-102489084D01*
X156296091Y-102531831D01*
X156357935Y-102581850D01*
X156429009Y-102649116D01*
X156533368Y-102753475D01*
X156707760Y-102870000D01*
X156533368Y-102986525D01*
X156326525Y-103193368D01*
X156164010Y-103436589D01*
X156052068Y-103706842D01*
X155995000Y-103993740D01*
X155995000Y-104286260D01*
X156052068Y-104573158D01*
X156164010Y-104843411D01*
X156326525Y-105086632D01*
X156533368Y-105293475D01*
X156776589Y-105455990D01*
X157046842Y-105567932D01*
X157333740Y-105625000D01*
X157626260Y-105625000D01*
X157913158Y-105567932D01*
X158183411Y-105455990D01*
X158426632Y-105293475D01*
X158633475Y-105086632D01*
X158795990Y-104843411D01*
X158907932Y-104573158D01*
X158965000Y-104286260D01*
X158965000Y-103993740D01*
X158907932Y-103706842D01*
X158795990Y-103436589D01*
X158633475Y-103193368D01*
X158426632Y-102986525D01*
X158252240Y-102870000D01*
X158426632Y-102753475D01*
X158633475Y-102546632D01*
X158795990Y-102303411D01*
X158907932Y-102033158D01*
X158965000Y-101746260D01*
X158965000Y-101453740D01*
X158907932Y-101166842D01*
X158795990Y-100896589D01*
X158633475Y-100653368D01*
X158426632Y-100446525D01*
X158252240Y-100330000D01*
X158426632Y-100213475D01*
X158633475Y-100006632D01*
X158795990Y-99763411D01*
X158907932Y-99493158D01*
X158965000Y-99206260D01*
X158965000Y-98913740D01*
X158907932Y-98626842D01*
X158795990Y-98356589D01*
X158633475Y-98113368D01*
X158426632Y-97906525D01*
X158252240Y-97790000D01*
X158426632Y-97673475D01*
X158633475Y-97466632D01*
X158795990Y-97223411D01*
X158907932Y-96953158D01*
X158965000Y-96666260D01*
X158965000Y-96373740D01*
X158907932Y-96086842D01*
X158795990Y-95816589D01*
X158633475Y-95573368D01*
X158426632Y-95366525D01*
X158252240Y-95250000D01*
X158426632Y-95133475D01*
X158633475Y-94926632D01*
X158795990Y-94683411D01*
X158907932Y-94413158D01*
X158965000Y-94126260D01*
X158965000Y-93833740D01*
X158907932Y-93546842D01*
X158795990Y-93276589D01*
X158633475Y-93033368D01*
X158501620Y-92901513D01*
X158574180Y-92879502D01*
X158684494Y-92820537D01*
X158781185Y-92741185D01*
X158860537Y-92644494D01*
X158919502Y-92534180D01*
X158955812Y-92414482D01*
X158968072Y-92290000D01*
X158968072Y-90590000D01*
X158955812Y-90465518D01*
X158919502Y-90345820D01*
X158860537Y-90235506D01*
X158781185Y-90138815D01*
X158684494Y-90059463D01*
X158574180Y-90000498D01*
X158454482Y-89964188D01*
X158330000Y-89951928D01*
X156630000Y-89951928D01*
X156505518Y-89964188D01*
X156385820Y-90000498D01*
X156275506Y-90059463D01*
X156178815Y-90138815D01*
X156099463Y-90235506D01*
X156040498Y-90345820D01*
X156004188Y-90465518D01*
X155991928Y-90590000D01*
X155991928Y-90654366D01*
X155960183Y-90663001D01*
X155881071Y-90677828D01*
X155795735Y-90687096D01*
X155692771Y-90690700D01*
X151166798Y-90690700D01*
X151130000Y-90687076D01*
X151093202Y-90690700D01*
X151093194Y-90690700D01*
X150983112Y-90701542D01*
X150841868Y-90744388D01*
X150711697Y-90813966D01*
X150626190Y-90884139D01*
X150626183Y-90884146D01*
X150622000Y-90887579D01*
X150622000Y-86487000D01*
X150619560Y-86462224D01*
X150612333Y-86438399D01*
X150522530Y-86221596D01*
X150510794Y-86199639D01*
X150495000Y-86180394D01*
X150039606Y-85725000D01*
X150020360Y-85709206D01*
X149998404Y-85697470D01*
X149781601Y-85607667D01*
X149757777Y-85600440D01*
X149733000Y-85598000D01*
X99822000Y-85598000D01*
X99797224Y-85600440D01*
X99773399Y-85607667D01*
X99556596Y-85697470D01*
X99534639Y-85709206D01*
X99515394Y-85725000D01*
X99060000Y-86180394D01*
X99044206Y-86199640D01*
X99032470Y-86221596D01*
X98942667Y-86438399D01*
X98935440Y-86462223D01*
X98933000Y-86487000D01*
X98933000Y-88107689D01*
X98904637Y-88065241D01*
X98704759Y-87865363D01*
X98469727Y-87708320D01*
X98208574Y-87600147D01*
X97931335Y-87545000D01*
X97648665Y-87545000D01*
X97371426Y-87600147D01*
X97110273Y-87708320D01*
X96875241Y-87865363D01*
X96675363Y-88065241D01*
X96518320Y-88300273D01*
X96410147Y-88561426D01*
X96355000Y-88838665D01*
X96355000Y-89121335D01*
X96410147Y-89398574D01*
X96518320Y-89659727D01*
X96675363Y-89894759D01*
X96875241Y-90094637D01*
X97110273Y-90251680D01*
X97371426Y-90359853D01*
X97648665Y-90415000D01*
X97931335Y-90415000D01*
X98208574Y-90359853D01*
X98469727Y-90251680D01*
X98704759Y-90094637D01*
X98904637Y-89894759D01*
X98933000Y-89852311D01*
X98933000Y-93211002D01*
X98782702Y-93166903D01*
X97969605Y-93980000D01*
X98782702Y-94793097D01*
X98933000Y-94748998D01*
X98933000Y-105918000D01*
X98935440Y-105942776D01*
X98942667Y-105966601D01*
X99032470Y-106183404D01*
X99044206Y-106205361D01*
X99060000Y-106224606D01*
X99515394Y-106680000D01*
X99534640Y-106695794D01*
X99556596Y-106707530D01*
X99773399Y-106797333D01*
X99797223Y-106804560D01*
X99822000Y-106807000D01*
X104622737Y-106807000D01*
X104792862Y-106877468D01*
X105212532Y-107297138D01*
X105283000Y-107467263D01*
X105283000Y-107948355D01*
X105262601Y-107917161D01*
X105064895Y-107715500D01*
X104831646Y-107556285D01*
X104571818Y-107445633D01*
X104489039Y-107428096D01*
X104267000Y-107550085D01*
X104267000Y-109093000D01*
X104287000Y-109093000D01*
X104287000Y-109347000D01*
X104267000Y-109347000D01*
X104267000Y-110889915D01*
X104489039Y-111011904D01*
X104571818Y-110994367D01*
X104831646Y-110883715D01*
X105064895Y-110724500D01*
X105262601Y-110522839D01*
X105283000Y-110491646D01*
X105283000Y-110972737D01*
X105212532Y-111142862D01*
X104792862Y-111562532D01*
X104622737Y-111633000D01*
X95809434Y-111633000D01*
X95794236Y-111478691D01*
X95712182Y-111208192D01*
X95578932Y-110958899D01*
X95399608Y-110740392D01*
X95181101Y-110561068D01*
X95053259Y-110492735D01*
X95282839Y-110342601D01*
X95484500Y-110144895D01*
X95643715Y-109911646D01*
X95754367Y-109651818D01*
X95771904Y-109569039D01*
X95649915Y-109347000D01*
X94107000Y-109347000D01*
X94107000Y-109367000D01*
X93853000Y-109367000D01*
X93853000Y-109347000D01*
X92310085Y-109347000D01*
X92188096Y-109569039D01*
X92205633Y-109651818D01*
X92316285Y-109911646D01*
X92475500Y-110144895D01*
X92677161Y-110342601D01*
X92906741Y-110492735D01*
X92778899Y-110561068D01*
X92560392Y-110740392D01*
X92381068Y-110958899D01*
X92247818Y-111208192D01*
X92165764Y-111478691D01*
X92150566Y-111633000D01*
X88189434Y-111633000D01*
X88174236Y-111478691D01*
X88092182Y-111208192D01*
X87958932Y-110958899D01*
X87779608Y-110740392D01*
X87666518Y-110647581D01*
X87684482Y-110645812D01*
X87804180Y-110609502D01*
X87914494Y-110550537D01*
X88011185Y-110471185D01*
X88090537Y-110374494D01*
X88149502Y-110264180D01*
X88185812Y-110144482D01*
X88198072Y-110020000D01*
X88198072Y-108870961D01*
X92188096Y-108870961D01*
X92310085Y-109093000D01*
X93853000Y-109093000D01*
X93853000Y-107785000D01*
X94107000Y-107785000D01*
X94107000Y-109093000D01*
X95649915Y-109093000D01*
X95771904Y-108870961D01*
X95754367Y-108788182D01*
X95643715Y-108528354D01*
X95484500Y-108295105D01*
X95282839Y-108097399D01*
X95164483Y-108020000D01*
X100161928Y-108020000D01*
X100161928Y-110420000D01*
X100174188Y-110544482D01*
X100210498Y-110664180D01*
X100269463Y-110774494D01*
X100348815Y-110871185D01*
X100445506Y-110950537D01*
X100555820Y-111009502D01*
X100675518Y-111045812D01*
X100800000Y-111058072D01*
X102400000Y-111058072D01*
X102524482Y-111045812D01*
X102644180Y-111009502D01*
X102754494Y-110950537D01*
X102851185Y-110871185D01*
X102930537Y-110774494D01*
X102989502Y-110664180D01*
X103025812Y-110544482D01*
X103026981Y-110532613D01*
X103215105Y-110724500D01*
X103448354Y-110883715D01*
X103708182Y-110994367D01*
X103790961Y-111011904D01*
X104013000Y-110889915D01*
X104013000Y-109347000D01*
X103993000Y-109347000D01*
X103993000Y-109093000D01*
X104013000Y-109093000D01*
X104013000Y-107550085D01*
X103790961Y-107428096D01*
X103708182Y-107445633D01*
X103448354Y-107556285D01*
X103215105Y-107715500D01*
X103026981Y-107907387D01*
X103025812Y-107895518D01*
X102989502Y-107775820D01*
X102930537Y-107665506D01*
X102851185Y-107568815D01*
X102754494Y-107489463D01*
X102644180Y-107430498D01*
X102524482Y-107394188D01*
X102400000Y-107381928D01*
X100800000Y-107381928D01*
X100675518Y-107394188D01*
X100555820Y-107430498D01*
X100445506Y-107489463D01*
X100348815Y-107568815D01*
X100269463Y-107665506D01*
X100210498Y-107775820D01*
X100174188Y-107895518D01*
X100161928Y-108020000D01*
X95164483Y-108020000D01*
X95046483Y-107942834D01*
X94784514Y-107837350D01*
X94507000Y-107785000D01*
X94107000Y-107785000D01*
X93853000Y-107785000D01*
X93453000Y-107785000D01*
X93175486Y-107837350D01*
X92913517Y-107942834D01*
X92677161Y-108097399D01*
X92475500Y-108295105D01*
X92316285Y-108528354D01*
X92205633Y-108788182D01*
X92188096Y-108870961D01*
X88198072Y-108870961D01*
X88198072Y-108420000D01*
X88185812Y-108295518D01*
X88149502Y-108175820D01*
X88090537Y-108065506D01*
X88011185Y-107968815D01*
X87914494Y-107889463D01*
X87804180Y-107830498D01*
X87684482Y-107794188D01*
X87560000Y-107781928D01*
X85160000Y-107781928D01*
X85035518Y-107794188D01*
X84915820Y-107830498D01*
X84805506Y-107889463D01*
X84708815Y-107968815D01*
X84629463Y-108065506D01*
X84570498Y-108175820D01*
X84534188Y-108295518D01*
X84521928Y-108420000D01*
X84521928Y-110020000D01*
X84534188Y-110144482D01*
X84570498Y-110264180D01*
X84629463Y-110374494D01*
X84708815Y-110471185D01*
X84805506Y-110550537D01*
X84915820Y-110609502D01*
X85035518Y-110645812D01*
X85053482Y-110647581D01*
X84940392Y-110740392D01*
X84761068Y-110958899D01*
X84627818Y-111208192D01*
X84545764Y-111478691D01*
X84533572Y-111602476D01*
X84437138Y-111562532D01*
X84017468Y-111142862D01*
X83947000Y-110972737D01*
X83947000Y-96520000D01*
X84518057Y-96520000D01*
X84545764Y-96801309D01*
X84627818Y-97071808D01*
X84761068Y-97321101D01*
X84940392Y-97539608D01*
X85158899Y-97718932D01*
X85291858Y-97790000D01*
X85158899Y-97861068D01*
X84940392Y-98040392D01*
X84761068Y-98258899D01*
X84627818Y-98508192D01*
X84545764Y-98778691D01*
X84518057Y-99060000D01*
X84545764Y-99341309D01*
X84627818Y-99611808D01*
X84761068Y-99861101D01*
X84940392Y-100079608D01*
X85158899Y-100258932D01*
X85291858Y-100330000D01*
X85158899Y-100401068D01*
X84940392Y-100580392D01*
X84761068Y-100798899D01*
X84627818Y-101048192D01*
X84545764Y-101318691D01*
X84518057Y-101600000D01*
X84545764Y-101881309D01*
X84627818Y-102151808D01*
X84761068Y-102401101D01*
X84940392Y-102619608D01*
X85158899Y-102798932D01*
X85408192Y-102932182D01*
X85678691Y-103014236D01*
X85889508Y-103035000D01*
X86830492Y-103035000D01*
X87041309Y-103014236D01*
X87311808Y-102932182D01*
X87561101Y-102798932D01*
X87779608Y-102619608D01*
X87958932Y-102401101D01*
X88092182Y-102151808D01*
X88174236Y-101881309D01*
X88201943Y-101600000D01*
X88174236Y-101318691D01*
X88092182Y-101048192D01*
X87958932Y-100798899D01*
X87779608Y-100580392D01*
X87561101Y-100401068D01*
X87428142Y-100330000D01*
X87561101Y-100258932D01*
X87779608Y-100079608D01*
X87958932Y-99861101D01*
X88092182Y-99611808D01*
X88174236Y-99341309D01*
X88201943Y-99060000D01*
X88174236Y-98778691D01*
X88092182Y-98508192D01*
X87958932Y-98258899D01*
X87779608Y-98040392D01*
X87561101Y-97861068D01*
X87428142Y-97790000D01*
X87561101Y-97718932D01*
X87779608Y-97539608D01*
X87958932Y-97321101D01*
X88092182Y-97071808D01*
X88174236Y-96801309D01*
X88201943Y-96520000D01*
X92138057Y-96520000D01*
X92165764Y-96801309D01*
X92247818Y-97071808D01*
X92381068Y-97321101D01*
X92560392Y-97539608D01*
X92778899Y-97718932D01*
X92911858Y-97790000D01*
X92778899Y-97861068D01*
X92560392Y-98040392D01*
X92381068Y-98258899D01*
X92247818Y-98508192D01*
X92165764Y-98778691D01*
X92138057Y-99060000D01*
X92165764Y-99341309D01*
X92247818Y-99611808D01*
X92381068Y-99861101D01*
X92560392Y-100079608D01*
X92778899Y-100258932D01*
X92911858Y-100330000D01*
X92778899Y-100401068D01*
X92560392Y-100580392D01*
X92381068Y-100798899D01*
X92247818Y-101048192D01*
X92165764Y-101318691D01*
X92138057Y-101600000D01*
X92165764Y-101881309D01*
X92247818Y-102151808D01*
X92381068Y-102401101D01*
X92560392Y-102619608D01*
X92778899Y-102798932D01*
X93028192Y-102932182D01*
X93298691Y-103014236D01*
X93509508Y-103035000D01*
X94450492Y-103035000D01*
X94661309Y-103014236D01*
X94931808Y-102932182D01*
X95181101Y-102798932D01*
X95399608Y-102619608D01*
X95578932Y-102401101D01*
X95712182Y-102151808D01*
X95794236Y-101881309D01*
X95821943Y-101600000D01*
X95794236Y-101318691D01*
X95712182Y-101048192D01*
X95578932Y-100798899D01*
X95399608Y-100580392D01*
X95181101Y-100401068D01*
X95048142Y-100330000D01*
X95181101Y-100258932D01*
X95399608Y-100079608D01*
X95578932Y-99861101D01*
X95712182Y-99611808D01*
X95794236Y-99341309D01*
X95821943Y-99060000D01*
X95794236Y-98778691D01*
X95712182Y-98508192D01*
X95578932Y-98258899D01*
X95399608Y-98040392D01*
X95181101Y-97861068D01*
X95048142Y-97790000D01*
X95181101Y-97718932D01*
X95399608Y-97539608D01*
X95578932Y-97321101D01*
X95712182Y-97071808D01*
X95794236Y-96801309D01*
X95821943Y-96520000D01*
X95794236Y-96238691D01*
X95712182Y-95968192D01*
X95578932Y-95718899D01*
X95399608Y-95500392D01*
X95181101Y-95321068D01*
X95053259Y-95252735D01*
X95282839Y-95102601D01*
X95415336Y-94972702D01*
X96976903Y-94972702D01*
X97048486Y-95216671D01*
X97303996Y-95337571D01*
X97578184Y-95406300D01*
X97860512Y-95420217D01*
X98140130Y-95378787D01*
X98406292Y-95283603D01*
X98531514Y-95216671D01*
X98603097Y-94972702D01*
X97790000Y-94159605D01*
X96976903Y-94972702D01*
X95415336Y-94972702D01*
X95484500Y-94904895D01*
X95643715Y-94671646D01*
X95754367Y-94411818D01*
X95771904Y-94329039D01*
X95649915Y-94107000D01*
X94107000Y-94107000D01*
X94107000Y-94127000D01*
X93853000Y-94127000D01*
X93853000Y-94107000D01*
X92310085Y-94107000D01*
X92188096Y-94329039D01*
X92205633Y-94411818D01*
X92316285Y-94671646D01*
X92475500Y-94904895D01*
X92677161Y-95102601D01*
X92906741Y-95252735D01*
X92778899Y-95321068D01*
X92560392Y-95500392D01*
X92381068Y-95718899D01*
X92247818Y-95968192D01*
X92165764Y-96238691D01*
X92138057Y-96520000D01*
X88201943Y-96520000D01*
X88174236Y-96238691D01*
X88092182Y-95968192D01*
X87958932Y-95718899D01*
X87779608Y-95500392D01*
X87666518Y-95407581D01*
X87684482Y-95405812D01*
X87804180Y-95369502D01*
X87914494Y-95310537D01*
X88011185Y-95231185D01*
X88090537Y-95134494D01*
X88149502Y-95024180D01*
X88185812Y-94904482D01*
X88198072Y-94780000D01*
X88198072Y-94729300D01*
X90133205Y-94729300D01*
X90170000Y-94732924D01*
X90206795Y-94729300D01*
X90206806Y-94729300D01*
X90316888Y-94718458D01*
X90458132Y-94675612D01*
X90588303Y-94606034D01*
X90702398Y-94512398D01*
X90725863Y-94483806D01*
X91159157Y-94050512D01*
X96349783Y-94050512D01*
X96391213Y-94330130D01*
X96486397Y-94596292D01*
X96553329Y-94721514D01*
X96797298Y-94793097D01*
X97610395Y-93980000D01*
X96797298Y-93166903D01*
X96553329Y-93238486D01*
X96432429Y-93493996D01*
X96363700Y-93768184D01*
X96349783Y-94050512D01*
X91159157Y-94050512D01*
X91578708Y-93630961D01*
X92188096Y-93630961D01*
X92310085Y-93853000D01*
X93853000Y-93853000D01*
X93853000Y-92545000D01*
X94107000Y-92545000D01*
X94107000Y-93853000D01*
X95649915Y-93853000D01*
X95771904Y-93630961D01*
X95754367Y-93548182D01*
X95643715Y-93288354D01*
X95484500Y-93055105D01*
X95415337Y-92987298D01*
X96976903Y-92987298D01*
X97790000Y-93800395D01*
X98603097Y-92987298D01*
X98531514Y-92743329D01*
X98276004Y-92622429D01*
X98001816Y-92553700D01*
X97719488Y-92539783D01*
X97439870Y-92581213D01*
X97173708Y-92676397D01*
X97048486Y-92743329D01*
X96976903Y-92987298D01*
X95415337Y-92987298D01*
X95282839Y-92857399D01*
X95046483Y-92702834D01*
X94784514Y-92597350D01*
X94507000Y-92545000D01*
X94107000Y-92545000D01*
X93853000Y-92545000D01*
X93453000Y-92545000D01*
X93175486Y-92597350D01*
X92913517Y-92702834D01*
X92677161Y-92857399D01*
X92475500Y-93055105D01*
X92316285Y-93288354D01*
X92205633Y-93548182D01*
X92188096Y-93630961D01*
X91578708Y-93630961D01*
X91943812Y-93265858D01*
X91972398Y-93242398D01*
X92004731Y-93203001D01*
X92066034Y-93128304D01*
X92119544Y-93028193D01*
X92135612Y-92998132D01*
X92178458Y-92856888D01*
X92189300Y-92746806D01*
X92189300Y-92746797D01*
X92192924Y-92710001D01*
X92189300Y-92673205D01*
X92189300Y-90028665D01*
X92545000Y-90028665D01*
X92545000Y-90311335D01*
X92600147Y-90588574D01*
X92708320Y-90849727D01*
X92865363Y-91084759D01*
X93065241Y-91284637D01*
X93300273Y-91441680D01*
X93561426Y-91549853D01*
X93838665Y-91605000D01*
X94121335Y-91605000D01*
X94398574Y-91549853D01*
X94659727Y-91441680D01*
X94894759Y-91284637D01*
X95094637Y-91084759D01*
X95251680Y-90849727D01*
X95359853Y-90588574D01*
X95415000Y-90311335D01*
X95415000Y-90028665D01*
X95359853Y-89751426D01*
X95251680Y-89490273D01*
X95094637Y-89255241D01*
X94894759Y-89055363D01*
X94659727Y-88898320D01*
X94398574Y-88790147D01*
X94121335Y-88735000D01*
X93838665Y-88735000D01*
X93561426Y-88790147D01*
X93300273Y-88898320D01*
X93065241Y-89055363D01*
X92865363Y-89255241D01*
X92708320Y-89490273D01*
X92600147Y-89751426D01*
X92545000Y-90028665D01*
X92189300Y-90028665D01*
X92189300Y-87940369D01*
X92858754Y-87270916D01*
X92884378Y-87294557D01*
X92955775Y-87365171D01*
X93065241Y-87474637D01*
X93300273Y-87631680D01*
X93561426Y-87739853D01*
X93838665Y-87795000D01*
X94121335Y-87795000D01*
X94398574Y-87739853D01*
X94659727Y-87631680D01*
X94894759Y-87474637D01*
X95094637Y-87274759D01*
X95251680Y-87039727D01*
X95359853Y-86778574D01*
X95415000Y-86501335D01*
X95415000Y-86218665D01*
X95359853Y-85941426D01*
X95251680Y-85680273D01*
X95094637Y-85445241D01*
X94894759Y-85245363D01*
X94659727Y-85088320D01*
X94398574Y-84980147D01*
X94121335Y-84925000D01*
X93838665Y-84925000D01*
X93561426Y-84980147D01*
X93300273Y-85088320D01*
X93065241Y-85245363D01*
X92955793Y-85354811D01*
X92884378Y-85425441D01*
X92819794Y-85485028D01*
X92762499Y-85533748D01*
X92713631Y-85571441D01*
X92674727Y-85598073D01*
X92649286Y-85613055D01*
X92563112Y-85621542D01*
X92421868Y-85664388D01*
X92369263Y-85692506D01*
X92291696Y-85733966D01*
X92206190Y-85804140D01*
X92177602Y-85827602D01*
X92154141Y-85856189D01*
X90936189Y-87074142D01*
X90907603Y-87097602D01*
X90884143Y-87126188D01*
X90884140Y-87126191D01*
X90813966Y-87211697D01*
X90744388Y-87341869D01*
X90735405Y-87371484D01*
X90705485Y-87470119D01*
X90701543Y-87483113D01*
X90687076Y-87630000D01*
X90690701Y-87666805D01*
X90690700Y-92399630D01*
X89859631Y-93230700D01*
X88198072Y-93230700D01*
X88198072Y-93180000D01*
X88185812Y-93055518D01*
X88149502Y-92935820D01*
X88090537Y-92825506D01*
X88011185Y-92728815D01*
X87914494Y-92649463D01*
X87804180Y-92590498D01*
X87684482Y-92554188D01*
X87560000Y-92541928D01*
X85160000Y-92541928D01*
X85035518Y-92554188D01*
X84915820Y-92590498D01*
X84805506Y-92649463D01*
X84708815Y-92728815D01*
X84629463Y-92825506D01*
X84570498Y-92935820D01*
X84534188Y-93055518D01*
X84521928Y-93180000D01*
X84521928Y-94780000D01*
X84534188Y-94904482D01*
X84570498Y-95024180D01*
X84629463Y-95134494D01*
X84708815Y-95231185D01*
X84805506Y-95310537D01*
X84915820Y-95369502D01*
X85035518Y-95405812D01*
X85053482Y-95407581D01*
X84940392Y-95500392D01*
X84761068Y-95718899D01*
X84627818Y-95968192D01*
X84545764Y-96238691D01*
X84518057Y-96520000D01*
X83947000Y-96520000D01*
X83947000Y-90028665D01*
X84925000Y-90028665D01*
X84925000Y-90311335D01*
X84980147Y-90588574D01*
X85088320Y-90849727D01*
X85245363Y-91084759D01*
X85445241Y-91284637D01*
X85680273Y-91441680D01*
X85941426Y-91549853D01*
X86218665Y-91605000D01*
X86501335Y-91605000D01*
X86778574Y-91549853D01*
X87039727Y-91441680D01*
X87274759Y-91284637D01*
X87384218Y-91175178D01*
X87455627Y-91104553D01*
X87520203Y-91044972D01*
X87577500Y-90996251D01*
X87626363Y-90958562D01*
X87665274Y-90931926D01*
X87690713Y-90916945D01*
X87776888Y-90908458D01*
X87918132Y-90865612D01*
X88048303Y-90796034D01*
X88162398Y-90702398D01*
X88185863Y-90673806D01*
X89403811Y-89455859D01*
X89432398Y-89432398D01*
X89505152Y-89343748D01*
X89526034Y-89318304D01*
X89595611Y-89188133D01*
X89595612Y-89188132D01*
X89638458Y-89046888D01*
X89649300Y-88936806D01*
X89649300Y-88936797D01*
X89652924Y-88900001D01*
X89649300Y-88863205D01*
X89649300Y-85400369D01*
X90620695Y-84428975D01*
X90703376Y-84351886D01*
X90777825Y-84292027D01*
X90852071Y-84241219D01*
X90926494Y-84198628D01*
X91001761Y-84163456D01*
X91078778Y-84135062D01*
X91158533Y-84113061D01*
X91242152Y-84097312D01*
X91330680Y-84087955D01*
X91438073Y-84085000D01*
X91591184Y-84085000D01*
X91887743Y-84026011D01*
X92167095Y-83910299D01*
X92418505Y-83742312D01*
X92484944Y-83675873D01*
X92490498Y-83694180D01*
X92549463Y-83804494D01*
X92628815Y-83901185D01*
X92725506Y-83980537D01*
X92835820Y-84039502D01*
X92955518Y-84075812D01*
X93080000Y-84088072D01*
X94880000Y-84088072D01*
X95004482Y-84075812D01*
X95124180Y-84039502D01*
X95234494Y-83980537D01*
X95331185Y-83901185D01*
X95410537Y-83804494D01*
X95469502Y-83694180D01*
X95505812Y-83574482D01*
X95518072Y-83450000D01*
X95518072Y-81981553D01*
X148954009Y-81981553D01*
X148996603Y-82280907D01*
X149096778Y-82566199D01*
X149176739Y-82715792D01*
X149430920Y-82799475D01*
X150315395Y-81915000D01*
X149430920Y-81030525D01*
X149176739Y-81114208D01*
X149045842Y-81386775D01*
X148970635Y-81679642D01*
X148954009Y-81981553D01*
X95518072Y-81981553D01*
X95518072Y-81650000D01*
X95505812Y-81525518D01*
X95469502Y-81405820D01*
X95410537Y-81295506D01*
X95331185Y-81198815D01*
X95234494Y-81119463D01*
X95124180Y-81060498D01*
X95004482Y-81024188D01*
X94880000Y-81011928D01*
X93080000Y-81011928D01*
X92955518Y-81024188D01*
X92835820Y-81060498D01*
X92725506Y-81119463D01*
X92628815Y-81198815D01*
X92549463Y-81295506D01*
X92490498Y-81405820D01*
X92484944Y-81424127D01*
X92418505Y-81357688D01*
X92167095Y-81189701D01*
X91887743Y-81073989D01*
X91591184Y-81015000D01*
X91288816Y-81015000D01*
X90992257Y-81073989D01*
X90712905Y-81189701D01*
X90461495Y-81357688D01*
X90247688Y-81571495D01*
X90079701Y-81822905D01*
X89963989Y-82102257D01*
X89905000Y-82398816D01*
X89905000Y-82551919D01*
X89902044Y-82659318D01*
X89892687Y-82747847D01*
X89876938Y-82831466D01*
X89854934Y-82911233D01*
X89826547Y-82988231D01*
X89791373Y-83063502D01*
X89748780Y-83137928D01*
X89697972Y-83212174D01*
X89638113Y-83286623D01*
X89561019Y-83369311D01*
X88396194Y-84534137D01*
X88367602Y-84557602D01*
X88333760Y-84598839D01*
X88273966Y-84671697D01*
X88249866Y-84716785D01*
X88204388Y-84801869D01*
X88161542Y-84943113D01*
X88150700Y-85053195D01*
X88150700Y-85053205D01*
X88147076Y-85090000D01*
X88150700Y-85126796D01*
X88150701Y-88589629D01*
X87481246Y-89259084D01*
X87455626Y-89235446D01*
X87384215Y-89164819D01*
X87274759Y-89055363D01*
X87039727Y-88898320D01*
X86778574Y-88790147D01*
X86501335Y-88735000D01*
X86218665Y-88735000D01*
X85941426Y-88790147D01*
X85680273Y-88898320D01*
X85445241Y-89055363D01*
X85245363Y-89255241D01*
X85088320Y-89490273D01*
X84980147Y-89751426D01*
X84925000Y-90028665D01*
X83947000Y-90028665D01*
X83947000Y-86276670D01*
X84534140Y-86863810D01*
X84557602Y-86892398D01*
X84586188Y-86915858D01*
X84586190Y-86915860D01*
X84671696Y-86986034D01*
X84705245Y-87003966D01*
X84801868Y-87055612D01*
X84943112Y-87098458D01*
X85029288Y-87106946D01*
X85054727Y-87121926D01*
X85093631Y-87148558D01*
X85142499Y-87186251D01*
X85199794Y-87234971D01*
X85264378Y-87294557D01*
X85335775Y-87365171D01*
X85445241Y-87474637D01*
X85680273Y-87631680D01*
X85941426Y-87739853D01*
X86218665Y-87795000D01*
X86501335Y-87795000D01*
X86778574Y-87739853D01*
X87039727Y-87631680D01*
X87274759Y-87474637D01*
X87474637Y-87274759D01*
X87631680Y-87039727D01*
X87739853Y-86778574D01*
X87795000Y-86501335D01*
X87795000Y-86218665D01*
X87739853Y-85941426D01*
X87631680Y-85680273D01*
X87474637Y-85445241D01*
X87274759Y-85245363D01*
X87039727Y-85088320D01*
X86778574Y-84980147D01*
X86501335Y-84925000D01*
X86218665Y-84925000D01*
X85941426Y-84980147D01*
X85680273Y-85088320D01*
X85445241Y-85245363D01*
X85335793Y-85354811D01*
X85264378Y-85425441D01*
X85238753Y-85449083D01*
X84569300Y-84779631D01*
X84569300Y-84457938D01*
X84573253Y-84345003D01*
X84583570Y-84250025D01*
X84600143Y-84161604D01*
X84622652Y-84078857D01*
X84651006Y-84000758D01*
X84685379Y-83926241D01*
X84726222Y-83854281D01*
X84774219Y-83784009D01*
X84830196Y-83714801D01*
X84865453Y-83677549D01*
X84870498Y-83694180D01*
X84929463Y-83804494D01*
X85008815Y-83901185D01*
X85105506Y-83980537D01*
X85215820Y-84039502D01*
X85335518Y-84075812D01*
X85460000Y-84088072D01*
X87260000Y-84088072D01*
X87384482Y-84075812D01*
X87504180Y-84039502D01*
X87614494Y-83980537D01*
X87711185Y-83901185D01*
X87790537Y-83804494D01*
X87849502Y-83694180D01*
X87885812Y-83574482D01*
X87898072Y-83450000D01*
X87898072Y-81650000D01*
X87885812Y-81525518D01*
X87849502Y-81405820D01*
X87790537Y-81295506D01*
X87711185Y-81198815D01*
X87614494Y-81119463D01*
X87504180Y-81060498D01*
X87384482Y-81024188D01*
X87260000Y-81011928D01*
X85460000Y-81011928D01*
X85335518Y-81024188D01*
X85215820Y-81060498D01*
X85105506Y-81119463D01*
X85008815Y-81198815D01*
X84929463Y-81295506D01*
X84870498Y-81405820D01*
X84864944Y-81424127D01*
X84798505Y-81357688D01*
X84547095Y-81189701D01*
X84267743Y-81073989D01*
X83971184Y-81015000D01*
X83947000Y-81015000D01*
X83947000Y-80850920D01*
X149610525Y-80850920D01*
X150495000Y-81735395D01*
X150509143Y-81721253D01*
X150688748Y-81900858D01*
X150674605Y-81915000D01*
X150688748Y-81929143D01*
X150509143Y-82108748D01*
X150495000Y-82094605D01*
X149610525Y-82979080D01*
X149694208Y-83233261D01*
X149966775Y-83364158D01*
X150259642Y-83439365D01*
X150561553Y-83455991D01*
X150860907Y-83413397D01*
X151146199Y-83313222D01*
X151295792Y-83233261D01*
X151379474Y-82979082D01*
X151495422Y-83095030D01*
X151542187Y-83048265D01*
X151545498Y-83059180D01*
X151604463Y-83169494D01*
X151683815Y-83266185D01*
X151780506Y-83345537D01*
X151890820Y-83404502D01*
X152010518Y-83440812D01*
X152135000Y-83453072D01*
X152234854Y-83453072D01*
X152254856Y-83526604D01*
X152271429Y-83615025D01*
X152281746Y-83710004D01*
X152285700Y-83822955D01*
X152285701Y-85328466D01*
X152282445Y-85421480D01*
X152274226Y-85497173D01*
X152261149Y-85566962D01*
X152243533Y-85631736D01*
X152221475Y-85692506D01*
X152194799Y-85750348D01*
X152163059Y-85806278D01*
X152125559Y-85861187D01*
X152081496Y-85915670D01*
X152020789Y-85979815D01*
X151920363Y-86080241D01*
X151763320Y-86315273D01*
X151655147Y-86576426D01*
X151600000Y-86853665D01*
X151600000Y-87136335D01*
X151655147Y-87413574D01*
X151763320Y-87674727D01*
X151920363Y-87909759D01*
X152120241Y-88109637D01*
X152355273Y-88266680D01*
X152616426Y-88374853D01*
X152893665Y-88430000D01*
X153176335Y-88430000D01*
X153453574Y-88374853D01*
X153714727Y-88266680D01*
X153949759Y-88109637D01*
X154149637Y-87909759D01*
X154306680Y-87674727D01*
X154414853Y-87413574D01*
X154470000Y-87136335D01*
X154470000Y-86853665D01*
X154414853Y-86576426D01*
X154306680Y-86315273D01*
X154149637Y-86080241D01*
X154049189Y-85979793D01*
X153988509Y-85915677D01*
X153944440Y-85861187D01*
X153906940Y-85806278D01*
X153875200Y-85750348D01*
X153848524Y-85692506D01*
X153826466Y-85631736D01*
X153808850Y-85566962D01*
X153795773Y-85497173D01*
X153787555Y-85421493D01*
X153784300Y-85328466D01*
X153784300Y-83822938D01*
X153788253Y-83710003D01*
X153798570Y-83615025D01*
X153815143Y-83526604D01*
X153835145Y-83453072D01*
X153935000Y-83453072D01*
X154059482Y-83440812D01*
X154179180Y-83404502D01*
X154289494Y-83345537D01*
X154386185Y-83266185D01*
X154465537Y-83169494D01*
X154524502Y-83059180D01*
X154560812Y-82939482D01*
X154573072Y-82815000D01*
X154573072Y-81015000D01*
X154560812Y-80890518D01*
X154524502Y-80770820D01*
X154465537Y-80660506D01*
X154386185Y-80563815D01*
X154289494Y-80484463D01*
X154179180Y-80425498D01*
X154059482Y-80389188D01*
X153935000Y-80376928D01*
X152135000Y-80376928D01*
X152010518Y-80389188D01*
X151890820Y-80425498D01*
X151780506Y-80484463D01*
X151683815Y-80563815D01*
X151604463Y-80660506D01*
X151545498Y-80770820D01*
X151542187Y-80781735D01*
X151495422Y-80734970D01*
X151379474Y-80850918D01*
X151295792Y-80596739D01*
X151023225Y-80465842D01*
X150730358Y-80390635D01*
X150428447Y-80374009D01*
X150129093Y-80416603D01*
X149843801Y-80516778D01*
X149694208Y-80596739D01*
X149610525Y-80850920D01*
X83947000Y-80850920D01*
X83947000Y-78892263D01*
X84017468Y-78722138D01*
X84384606Y-78355000D01*
X159742721Y-78355000D01*
X160228893Y-78402670D01*
G37*
%TD.AperFunction*%
%TD*%
D22*
%TO.N,VCC*%
X136398000Y-84634606D02*
X136398000Y-95732737D01*
X136327532Y-95902862D01*
X135907862Y-96322532D01*
X135737737Y-96393000D01*
X133502263Y-96393000D01*
X133332138Y-96322532D01*
X132912468Y-95902862D01*
X132842000Y-95732737D01*
X132842000Y-95599832D01*
X132881101Y-95578932D01*
X133099608Y-95399608D01*
X133278932Y-95181101D01*
X133347265Y-95053259D01*
X133497399Y-95282839D01*
X133695105Y-95484500D01*
X133928354Y-95643715D01*
X134188182Y-95754367D01*
X134270961Y-95771904D01*
X134493000Y-95649915D01*
X134493000Y-94107000D01*
X134747000Y-94107000D01*
X134747000Y-95649915D01*
X134969039Y-95771904D01*
X135051818Y-95754367D01*
X135311646Y-95643715D01*
X135544895Y-95484500D01*
X135742601Y-95282839D01*
X135897166Y-95046483D01*
X136002650Y-94784514D01*
X136055000Y-94507000D01*
X136055000Y-94107000D01*
X134747000Y-94107000D01*
X134493000Y-94107000D01*
X134473000Y-94107000D01*
X134473000Y-93853000D01*
X134493000Y-93853000D01*
X134493000Y-92310085D01*
X134747000Y-92310085D01*
X134747000Y-93853000D01*
X136055000Y-93853000D01*
X136055000Y-93453000D01*
X136002650Y-93175486D01*
X135897166Y-92913517D01*
X135742601Y-92677161D01*
X135544895Y-92475500D01*
X135311646Y-92316285D01*
X135051818Y-92205633D01*
X134969039Y-92188096D01*
X134747000Y-92310085D01*
X134493000Y-92310085D01*
X134270961Y-92188096D01*
X134188182Y-92205633D01*
X133928354Y-92316285D01*
X133695105Y-92475500D01*
X133497399Y-92677161D01*
X133347265Y-92906741D01*
X133278932Y-92778899D01*
X133099607Y-92560392D01*
X132881100Y-92381068D01*
X132842000Y-92360169D01*
X132842000Y-84634606D01*
X132894606Y-84582000D01*
X136345394Y-84582000D01*
X136398000Y-84634606D01*
%TA.AperFunction,Conductor*%
D23*
G36*
X136398000Y-84634606D02*
G01*
X136398000Y-95732737D01*
X136327532Y-95902862D01*
X135907862Y-96322532D01*
X135737737Y-96393000D01*
X133502263Y-96393000D01*
X133332138Y-96322532D01*
X132912468Y-95902862D01*
X132842000Y-95732737D01*
X132842000Y-95599832D01*
X132881101Y-95578932D01*
X133099608Y-95399608D01*
X133278932Y-95181101D01*
X133347265Y-95053259D01*
X133497399Y-95282839D01*
X133695105Y-95484500D01*
X133928354Y-95643715D01*
X134188182Y-95754367D01*
X134270961Y-95771904D01*
X134493000Y-95649915D01*
X134493000Y-94107000D01*
X134747000Y-94107000D01*
X134747000Y-95649915D01*
X134969039Y-95771904D01*
X135051818Y-95754367D01*
X135311646Y-95643715D01*
X135544895Y-95484500D01*
X135742601Y-95282839D01*
X135897166Y-95046483D01*
X136002650Y-94784514D01*
X136055000Y-94507000D01*
X136055000Y-94107000D01*
X134747000Y-94107000D01*
X134493000Y-94107000D01*
X134473000Y-94107000D01*
X134473000Y-93853000D01*
X134493000Y-93853000D01*
X134493000Y-92310085D01*
X134747000Y-92310085D01*
X134747000Y-93853000D01*
X136055000Y-93853000D01*
X136055000Y-93453000D01*
X136002650Y-93175486D01*
X135897166Y-92913517D01*
X135742601Y-92677161D01*
X135544895Y-92475500D01*
X135311646Y-92316285D01*
X135051818Y-92205633D01*
X134969039Y-92188096D01*
X134747000Y-92310085D01*
X134493000Y-92310085D01*
X134270961Y-92188096D01*
X134188182Y-92205633D01*
X133928354Y-92316285D01*
X133695105Y-92475500D01*
X133497399Y-92677161D01*
X133347265Y-92906741D01*
X133278932Y-92778899D01*
X133099607Y-92560392D01*
X132881100Y-92381068D01*
X132842000Y-92360169D01*
X132842000Y-84634606D01*
X132894606Y-84582000D01*
X136345394Y-84582000D01*
X136398000Y-84634606D01*
G37*
%TD.AperFunction*%
%TD*%
D22*
%TO.N,VCC*%
X105427862Y-111322468D02*
X105847532Y-111742138D01*
X105918000Y-111912263D01*
X105918000Y-116052737D01*
X105902275Y-116090700D01*
X102377725Y-116090700D01*
X102362000Y-116052737D01*
X102362000Y-115292702D01*
X103326903Y-115292702D01*
X103398486Y-115536671D01*
X103653996Y-115657571D01*
X103928184Y-115726300D01*
X104210512Y-115740217D01*
X104490130Y-115698787D01*
X104756292Y-115603603D01*
X104881514Y-115536671D01*
X104953097Y-115292702D01*
X104140000Y-114479605D01*
X103326903Y-115292702D01*
X102362000Y-115292702D01*
X102362000Y-114370512D01*
X102699783Y-114370512D01*
X102741213Y-114650130D01*
X102836397Y-114916292D01*
X102903329Y-115041514D01*
X103147298Y-115113097D01*
X103960395Y-114300000D01*
X104319605Y-114300000D01*
X105132702Y-115113097D01*
X105376671Y-115041514D01*
X105497571Y-114786004D01*
X105566300Y-114511816D01*
X105580217Y-114229488D01*
X105538787Y-113949870D01*
X105443603Y-113683708D01*
X105376671Y-113558486D01*
X105132702Y-113486903D01*
X104319605Y-114300000D01*
X103960395Y-114300000D01*
X103147298Y-113486903D01*
X102903329Y-113558486D01*
X102782429Y-113813996D01*
X102713700Y-114088184D01*
X102699783Y-114370512D01*
X102362000Y-114370512D01*
X102362000Y-113307298D01*
X103326903Y-113307298D01*
X104140000Y-114120395D01*
X104953097Y-113307298D01*
X104881514Y-113063329D01*
X104626004Y-112942429D01*
X104351816Y-112873700D01*
X104069488Y-112859783D01*
X103789870Y-112901213D01*
X103523708Y-112996397D01*
X103398486Y-113063329D01*
X103326903Y-113307298D01*
X102362000Y-113307298D01*
X102362000Y-111304606D01*
X102414606Y-111252000D01*
X105257737Y-111252000D01*
X105427862Y-111322468D01*
%TA.AperFunction,Conductor*%
D23*
G36*
X105427862Y-111322468D02*
G01*
X105847532Y-111742138D01*
X105918000Y-111912263D01*
X105918000Y-116052737D01*
X105902275Y-116090700D01*
X102377725Y-116090700D01*
X102362000Y-116052737D01*
X102362000Y-115292702D01*
X103326903Y-115292702D01*
X103398486Y-115536671D01*
X103653996Y-115657571D01*
X103928184Y-115726300D01*
X104210512Y-115740217D01*
X104490130Y-115698787D01*
X104756292Y-115603603D01*
X104881514Y-115536671D01*
X104953097Y-115292702D01*
X104140000Y-114479605D01*
X103326903Y-115292702D01*
X102362000Y-115292702D01*
X102362000Y-114370512D01*
X102699783Y-114370512D01*
X102741213Y-114650130D01*
X102836397Y-114916292D01*
X102903329Y-115041514D01*
X103147298Y-115113097D01*
X103960395Y-114300000D01*
X104319605Y-114300000D01*
X105132702Y-115113097D01*
X105376671Y-115041514D01*
X105497571Y-114786004D01*
X105566300Y-114511816D01*
X105580217Y-114229488D01*
X105538787Y-113949870D01*
X105443603Y-113683708D01*
X105376671Y-113558486D01*
X105132702Y-113486903D01*
X104319605Y-114300000D01*
X103960395Y-114300000D01*
X103147298Y-113486903D01*
X102903329Y-113558486D01*
X102782429Y-113813996D01*
X102713700Y-114088184D01*
X102699783Y-114370512D01*
X102362000Y-114370512D01*
X102362000Y-113307298D01*
X103326903Y-113307298D01*
X104140000Y-114120395D01*
X104953097Y-113307298D01*
X104881514Y-113063329D01*
X104626004Y-112942429D01*
X104351816Y-112873700D01*
X104069488Y-112859783D01*
X103789870Y-112901213D01*
X103523708Y-112996397D01*
X103398486Y-113063329D01*
X103326903Y-113307298D01*
X102362000Y-113307298D01*
X102362000Y-111304606D01*
X102414606Y-111252000D01*
X105257737Y-111252000D01*
X105427862Y-111322468D01*
G37*
%TD.AperFunction*%
%TD*%
D24*
%TO.N,Net-(D1-Pad1)*%
X153141064Y-85467370D02*
X153141130Y-85468297D01*
X153154501Y-85591432D01*
X153154644Y-85592400D01*
X153176929Y-85711328D01*
X153177157Y-85712322D01*
X153208356Y-85827043D01*
X153208673Y-85828043D01*
X153248786Y-85938557D01*
X153249191Y-85939543D01*
X153298218Y-86045849D01*
X153298706Y-86046798D01*
X153356647Y-86148898D01*
X153357204Y-86149792D01*
X153424059Y-86247684D01*
X153424672Y-86248508D01*
X153500441Y-86342193D01*
X153501092Y-86342937D01*
X153579271Y-86425542D01*
X153035000Y-87369574D01*
X152490729Y-86425542D01*
X152568907Y-86342937D01*
X152569558Y-86342193D01*
X152645327Y-86248508D01*
X152645940Y-86247684D01*
X152712795Y-86149792D01*
X152713352Y-86148898D01*
X152771293Y-86046798D01*
X152771781Y-86045849D01*
X152820808Y-85939543D01*
X152821213Y-85938557D01*
X152861326Y-85828043D01*
X152861643Y-85827043D01*
X152892842Y-85712322D01*
X152893070Y-85711328D01*
X152915355Y-85592400D01*
X152915498Y-85591432D01*
X152928869Y-85468297D01*
X152928935Y-85467370D01*
X152932963Y-85352284D01*
X153137037Y-85352284D01*
X153141064Y-85467370D01*
%TA.AperFunction,Conductor*%
D23*
G36*
X153141064Y-85467370D02*
G01*
X153141130Y-85468297D01*
X153154501Y-85591432D01*
X153154644Y-85592400D01*
X153176929Y-85711328D01*
X153177157Y-85712322D01*
X153208356Y-85827043D01*
X153208673Y-85828043D01*
X153248786Y-85938557D01*
X153249191Y-85939543D01*
X153298218Y-86045849D01*
X153298706Y-86046798D01*
X153356647Y-86148898D01*
X153357204Y-86149792D01*
X153424059Y-86247684D01*
X153424672Y-86248508D01*
X153500441Y-86342193D01*
X153501092Y-86342937D01*
X153579271Y-86425542D01*
X153035000Y-87369574D01*
X152490729Y-86425542D01*
X152568907Y-86342937D01*
X152569558Y-86342193D01*
X152645327Y-86248508D01*
X152645940Y-86247684D01*
X152712795Y-86149792D01*
X152713352Y-86148898D01*
X152771293Y-86046798D01*
X152771781Y-86045849D01*
X152820808Y-85939543D01*
X152821213Y-85938557D01*
X152861326Y-85828043D01*
X152861643Y-85827043D01*
X152892842Y-85712322D01*
X152893070Y-85711328D01*
X152915355Y-85592400D01*
X152915498Y-85591432D01*
X152928869Y-85468297D01*
X152928935Y-85467370D01*
X152932963Y-85352284D01*
X153137037Y-85352284D01*
X153141064Y-85467370D01*
G37*
%TD.AperFunction*%
%TD*%
D24*
%TO.N,Net-(D1-Pad1)*%
X153649271Y-82555871D02*
X153557792Y-82652526D01*
X153557142Y-82653269D01*
X153469473Y-82761661D01*
X153468860Y-82762485D01*
X153391505Y-82875739D01*
X153390947Y-82876633D01*
X153323906Y-82994750D01*
X153323419Y-82995699D01*
X153266692Y-83118678D01*
X153266286Y-83119664D01*
X153219873Y-83247506D01*
X153219556Y-83248506D01*
X153183457Y-83381211D01*
X153183229Y-83382205D01*
X153157444Y-83519772D01*
X153157301Y-83520741D01*
X153141830Y-83663172D01*
X153141764Y-83664099D01*
X153137037Y-83799136D01*
X152932963Y-83799136D01*
X152928235Y-83664099D01*
X152928169Y-83663172D01*
X152912698Y-83520741D01*
X152912555Y-83519772D01*
X152886770Y-83382205D01*
X152886542Y-83381211D01*
X152850443Y-83248506D01*
X152850126Y-83247506D01*
X152803713Y-83119664D01*
X152803307Y-83118678D01*
X152746580Y-82995699D01*
X152746093Y-82994750D01*
X152679052Y-82876633D01*
X152678494Y-82875739D01*
X152601139Y-82762485D01*
X152600526Y-82761661D01*
X152512857Y-82653269D01*
X152512207Y-82652526D01*
X152420729Y-82555871D01*
X153035000Y-81490426D01*
X153649271Y-82555871D01*
%TA.AperFunction,Conductor*%
D23*
G36*
X153649271Y-82555871D02*
G01*
X153557792Y-82652526D01*
X153557142Y-82653269D01*
X153469473Y-82761661D01*
X153468860Y-82762485D01*
X153391505Y-82875739D01*
X153390947Y-82876633D01*
X153323906Y-82994750D01*
X153323419Y-82995699D01*
X153266692Y-83118678D01*
X153266286Y-83119664D01*
X153219873Y-83247506D01*
X153219556Y-83248506D01*
X153183457Y-83381211D01*
X153183229Y-83382205D01*
X153157444Y-83519772D01*
X153157301Y-83520741D01*
X153141830Y-83663172D01*
X153141764Y-83664099D01*
X153137037Y-83799136D01*
X152932963Y-83799136D01*
X152928235Y-83664099D01*
X152928169Y-83663172D01*
X152912698Y-83520741D01*
X152912555Y-83519772D01*
X152886770Y-83382205D01*
X152886542Y-83381211D01*
X152850443Y-83248506D01*
X152850126Y-83247506D01*
X152803713Y-83119664D01*
X152803307Y-83118678D01*
X152746580Y-82995699D01*
X152746093Y-82994750D01*
X152679052Y-82876633D01*
X152678494Y-82875739D01*
X152601139Y-82762485D01*
X152600526Y-82761661D01*
X152512857Y-82653269D01*
X152512207Y-82652526D01*
X152420729Y-82555871D01*
X153035000Y-81490426D01*
X153649271Y-82555871D01*
G37*
%TD.AperFunction*%
%TD*%
D24*
%TO.N,/R~W*%
X117581415Y-120916635D02*
X117581481Y-120917562D01*
X117595902Y-121050345D01*
X117596045Y-121051313D01*
X117620080Y-121179560D01*
X117620308Y-121180554D01*
X117653957Y-121304267D01*
X117654274Y-121305268D01*
X117697537Y-121424446D01*
X117697943Y-121425431D01*
X117750820Y-121540074D01*
X117751307Y-121541024D01*
X117813798Y-121651132D01*
X117814356Y-121652026D01*
X117886461Y-121757600D01*
X117887073Y-121758423D01*
X117968792Y-121859461D01*
X117969443Y-121860205D01*
X118054271Y-121949835D01*
X117475000Y-122954574D01*
X116895729Y-121949835D01*
X116980557Y-121860205D01*
X116981208Y-121859461D01*
X117062927Y-121758423D01*
X117063539Y-121757600D01*
X117135644Y-121652026D01*
X117136202Y-121651132D01*
X117198693Y-121541024D01*
X117199180Y-121540074D01*
X117252057Y-121425431D01*
X117252463Y-121424446D01*
X117295726Y-121305268D01*
X117296043Y-121304267D01*
X117329692Y-121180554D01*
X117329920Y-121179560D01*
X117353955Y-121051313D01*
X117354098Y-121050345D01*
X117368519Y-120917562D01*
X117368585Y-120916635D01*
X117372963Y-120791574D01*
X117577037Y-120791574D01*
X117581415Y-120916635D01*
%TA.AperFunction,Conductor*%
D23*
G36*
X117581415Y-120916635D02*
G01*
X117581481Y-120917562D01*
X117595902Y-121050345D01*
X117596045Y-121051313D01*
X117620080Y-121179560D01*
X117620308Y-121180554D01*
X117653957Y-121304267D01*
X117654274Y-121305268D01*
X117697537Y-121424446D01*
X117697943Y-121425431D01*
X117750820Y-121540074D01*
X117751307Y-121541024D01*
X117813798Y-121651132D01*
X117814356Y-121652026D01*
X117886461Y-121757600D01*
X117887073Y-121758423D01*
X117968792Y-121859461D01*
X117969443Y-121860205D01*
X118054271Y-121949835D01*
X117475000Y-122954574D01*
X116895729Y-121949835D01*
X116980557Y-121860205D01*
X116981208Y-121859461D01*
X117062927Y-121758423D01*
X117063539Y-121757600D01*
X117135644Y-121652026D01*
X117136202Y-121651132D01*
X117198693Y-121541024D01*
X117199180Y-121540074D01*
X117252057Y-121425431D01*
X117252463Y-121424446D01*
X117295726Y-121305268D01*
X117296043Y-121304267D01*
X117329692Y-121180554D01*
X117329920Y-121179560D01*
X117353955Y-121051313D01*
X117354098Y-121050345D01*
X117368519Y-120917562D01*
X117368585Y-120916635D01*
X117372963Y-120791574D01*
X117577037Y-120791574D01*
X117581415Y-120916635D01*
G37*
%TD.AperFunction*%
%TD*%
D24*
%TO.N,/R~W*%
X102144271Y-94549458D02*
X102066092Y-94632062D01*
X102065441Y-94632806D01*
X101989672Y-94726491D01*
X101989059Y-94727315D01*
X101922204Y-94825207D01*
X101921647Y-94826101D01*
X101863706Y-94928201D01*
X101863218Y-94929150D01*
X101814191Y-95035457D01*
X101813786Y-95036443D01*
X101773673Y-95146956D01*
X101773356Y-95147956D01*
X101742157Y-95262677D01*
X101741929Y-95263671D01*
X101719644Y-95382599D01*
X101719501Y-95383567D01*
X101706130Y-95506702D01*
X101706064Y-95507629D01*
X101702037Y-95622716D01*
X101497963Y-95622716D01*
X101493935Y-95507629D01*
X101493869Y-95506702D01*
X101480498Y-95383567D01*
X101480355Y-95382599D01*
X101458070Y-95263671D01*
X101457842Y-95262677D01*
X101426643Y-95147956D01*
X101426326Y-95146956D01*
X101386213Y-95036443D01*
X101385808Y-95035457D01*
X101336781Y-94929150D01*
X101336293Y-94928201D01*
X101278352Y-94826101D01*
X101277795Y-94825207D01*
X101210940Y-94727315D01*
X101210327Y-94726491D01*
X101134558Y-94632806D01*
X101133907Y-94632062D01*
X101055729Y-94549458D01*
X101600000Y-93605426D01*
X102144271Y-94549458D01*
%TA.AperFunction,Conductor*%
D23*
G36*
X102144271Y-94549458D02*
G01*
X102066092Y-94632062D01*
X102065441Y-94632806D01*
X101989672Y-94726491D01*
X101989059Y-94727315D01*
X101922204Y-94825207D01*
X101921647Y-94826101D01*
X101863706Y-94928201D01*
X101863218Y-94929150D01*
X101814191Y-95035457D01*
X101813786Y-95036443D01*
X101773673Y-95146956D01*
X101773356Y-95147956D01*
X101742157Y-95262677D01*
X101741929Y-95263671D01*
X101719644Y-95382599D01*
X101719501Y-95383567D01*
X101706130Y-95506702D01*
X101706064Y-95507629D01*
X101702037Y-95622716D01*
X101497963Y-95622716D01*
X101493935Y-95507629D01*
X101493869Y-95506702D01*
X101480498Y-95383567D01*
X101480355Y-95382599D01*
X101458070Y-95263671D01*
X101457842Y-95262677D01*
X101426643Y-95147956D01*
X101426326Y-95146956D01*
X101386213Y-95036443D01*
X101385808Y-95035457D01*
X101336781Y-94929150D01*
X101336293Y-94928201D01*
X101278352Y-94826101D01*
X101277795Y-94825207D01*
X101210940Y-94727315D01*
X101210327Y-94726491D01*
X101134558Y-94632806D01*
X101133907Y-94632062D01*
X101055729Y-94549458D01*
X101600000Y-93605426D01*
X102144271Y-94549458D01*
G37*
%TD.AperFunction*%
%TD*%
D24*
%TO.N,/PHI2*%
X120121415Y-120916635D02*
X120121481Y-120917562D01*
X120135902Y-121050345D01*
X120136045Y-121051313D01*
X120160080Y-121179560D01*
X120160308Y-121180554D01*
X120193957Y-121304267D01*
X120194274Y-121305268D01*
X120237537Y-121424446D01*
X120237943Y-121425431D01*
X120290820Y-121540074D01*
X120291307Y-121541024D01*
X120353798Y-121651132D01*
X120354356Y-121652026D01*
X120426461Y-121757600D01*
X120427073Y-121758423D01*
X120508792Y-121859461D01*
X120509443Y-121860205D01*
X120594271Y-121949835D01*
X120015000Y-122954574D01*
X119435729Y-121949835D01*
X119520557Y-121860205D01*
X119521208Y-121859461D01*
X119602927Y-121758423D01*
X119603539Y-121757600D01*
X119675644Y-121652026D01*
X119676202Y-121651132D01*
X119738693Y-121541024D01*
X119739180Y-121540074D01*
X119792057Y-121425431D01*
X119792463Y-121424446D01*
X119835726Y-121305268D01*
X119836043Y-121304267D01*
X119869692Y-121180554D01*
X119869920Y-121179560D01*
X119893955Y-121051313D01*
X119894098Y-121050345D01*
X119908519Y-120917562D01*
X119908585Y-120916635D01*
X119912963Y-120791574D01*
X120117037Y-120791574D01*
X120121415Y-120916635D01*
%TA.AperFunction,Conductor*%
D23*
G36*
X120121415Y-120916635D02*
G01*
X120121481Y-120917562D01*
X120135902Y-121050345D01*
X120136045Y-121051313D01*
X120160080Y-121179560D01*
X120160308Y-121180554D01*
X120193957Y-121304267D01*
X120194274Y-121305268D01*
X120237537Y-121424446D01*
X120237943Y-121425431D01*
X120290820Y-121540074D01*
X120291307Y-121541024D01*
X120353798Y-121651132D01*
X120354356Y-121652026D01*
X120426461Y-121757600D01*
X120427073Y-121758423D01*
X120508792Y-121859461D01*
X120509443Y-121860205D01*
X120594271Y-121949835D01*
X120015000Y-122954574D01*
X119435729Y-121949835D01*
X119520557Y-121860205D01*
X119521208Y-121859461D01*
X119602927Y-121758423D01*
X119603539Y-121757600D01*
X119675644Y-121652026D01*
X119676202Y-121651132D01*
X119738693Y-121541024D01*
X119739180Y-121540074D01*
X119792057Y-121425431D01*
X119792463Y-121424446D01*
X119835726Y-121305268D01*
X119836043Y-121304267D01*
X119869692Y-121180554D01*
X119869920Y-121179560D01*
X119893955Y-121051313D01*
X119894098Y-121050345D01*
X119908519Y-120917562D01*
X119908585Y-120916635D01*
X119912963Y-120791574D01*
X120117037Y-120791574D01*
X120121415Y-120916635D01*
G37*
%TD.AperFunction*%
%TD*%
D24*
%TO.N,/PHI2*%
X104684271Y-94549458D02*
X104606092Y-94632062D01*
X104605441Y-94632806D01*
X104529672Y-94726491D01*
X104529059Y-94727315D01*
X104462204Y-94825207D01*
X104461647Y-94826101D01*
X104403706Y-94928201D01*
X104403218Y-94929150D01*
X104354191Y-95035457D01*
X104353786Y-95036443D01*
X104313673Y-95146956D01*
X104313356Y-95147956D01*
X104282157Y-95262677D01*
X104281929Y-95263671D01*
X104259644Y-95382599D01*
X104259501Y-95383567D01*
X104246130Y-95506702D01*
X104246064Y-95507629D01*
X104242037Y-95622716D01*
X104037963Y-95622716D01*
X104033935Y-95507629D01*
X104033869Y-95506702D01*
X104020498Y-95383567D01*
X104020355Y-95382599D01*
X103998070Y-95263671D01*
X103997842Y-95262677D01*
X103966643Y-95147956D01*
X103966326Y-95146956D01*
X103926213Y-95036443D01*
X103925808Y-95035457D01*
X103876781Y-94929150D01*
X103876293Y-94928201D01*
X103818352Y-94826101D01*
X103817795Y-94825207D01*
X103750940Y-94727315D01*
X103750327Y-94726491D01*
X103674558Y-94632806D01*
X103673907Y-94632062D01*
X103595729Y-94549458D01*
X104140000Y-93605426D01*
X104684271Y-94549458D01*
%TA.AperFunction,Conductor*%
D23*
G36*
X104684271Y-94549458D02*
G01*
X104606092Y-94632062D01*
X104605441Y-94632806D01*
X104529672Y-94726491D01*
X104529059Y-94727315D01*
X104462204Y-94825207D01*
X104461647Y-94826101D01*
X104403706Y-94928201D01*
X104403218Y-94929150D01*
X104354191Y-95035457D01*
X104353786Y-95036443D01*
X104313673Y-95146956D01*
X104313356Y-95147956D01*
X104282157Y-95262677D01*
X104281929Y-95263671D01*
X104259644Y-95382599D01*
X104259501Y-95383567D01*
X104246130Y-95506702D01*
X104246064Y-95507629D01*
X104242037Y-95622716D01*
X104037963Y-95622716D01*
X104033935Y-95507629D01*
X104033869Y-95506702D01*
X104020498Y-95383567D01*
X104020355Y-95382599D01*
X103998070Y-95263671D01*
X103997842Y-95262677D01*
X103966643Y-95147956D01*
X103966326Y-95146956D01*
X103926213Y-95036443D01*
X103925808Y-95035457D01*
X103876781Y-94929150D01*
X103876293Y-94928201D01*
X103818352Y-94826101D01*
X103817795Y-94825207D01*
X103750940Y-94727315D01*
X103750327Y-94726491D01*
X103674558Y-94632806D01*
X103673907Y-94632062D01*
X103595729Y-94549458D01*
X104140000Y-93605426D01*
X104684271Y-94549458D01*
G37*
%TD.AperFunction*%
%TD*%
D24*
%TO.N,/~RTS*%
X119924271Y-109789458D02*
X119846092Y-109872062D01*
X119845441Y-109872806D01*
X119769672Y-109966491D01*
X119769059Y-109967315D01*
X119702204Y-110065207D01*
X119701647Y-110066101D01*
X119643706Y-110168201D01*
X119643218Y-110169150D01*
X119594191Y-110275457D01*
X119593786Y-110276443D01*
X119553673Y-110386956D01*
X119553356Y-110387956D01*
X119522157Y-110502677D01*
X119521929Y-110503671D01*
X119499644Y-110622599D01*
X119499501Y-110623567D01*
X119486130Y-110746702D01*
X119486064Y-110747629D01*
X119482037Y-110862716D01*
X119277963Y-110862716D01*
X119273935Y-110747629D01*
X119273869Y-110746702D01*
X119260498Y-110623567D01*
X119260355Y-110622599D01*
X119238070Y-110503671D01*
X119237842Y-110502677D01*
X119206643Y-110387956D01*
X119206326Y-110386956D01*
X119166213Y-110276443D01*
X119165808Y-110275457D01*
X119116781Y-110169150D01*
X119116293Y-110168201D01*
X119058352Y-110066101D01*
X119057795Y-110065207D01*
X118990940Y-109967315D01*
X118990327Y-109966491D01*
X118914558Y-109872806D01*
X118913907Y-109872062D01*
X118835729Y-109789458D01*
X119380000Y-108845426D01*
X119924271Y-109789458D01*
%TA.AperFunction,Conductor*%
D23*
G36*
X119924271Y-109789458D02*
G01*
X119846092Y-109872062D01*
X119845441Y-109872806D01*
X119769672Y-109966491D01*
X119769059Y-109967315D01*
X119702204Y-110065207D01*
X119701647Y-110066101D01*
X119643706Y-110168201D01*
X119643218Y-110169150D01*
X119594191Y-110275457D01*
X119593786Y-110276443D01*
X119553673Y-110386956D01*
X119553356Y-110387956D01*
X119522157Y-110502677D01*
X119521929Y-110503671D01*
X119499644Y-110622599D01*
X119499501Y-110623567D01*
X119486130Y-110746702D01*
X119486064Y-110747629D01*
X119482037Y-110862716D01*
X119277963Y-110862716D01*
X119273935Y-110747629D01*
X119273869Y-110746702D01*
X119260498Y-110623567D01*
X119260355Y-110622599D01*
X119238070Y-110503671D01*
X119237842Y-110502677D01*
X119206643Y-110387956D01*
X119206326Y-110386956D01*
X119166213Y-110276443D01*
X119165808Y-110275457D01*
X119116781Y-110169150D01*
X119116293Y-110168201D01*
X119058352Y-110066101D01*
X119057795Y-110065207D01*
X118990940Y-109967315D01*
X118990327Y-109966491D01*
X118914558Y-109872806D01*
X118913907Y-109872062D01*
X118835729Y-109789458D01*
X119380000Y-108845426D01*
X119924271Y-109789458D01*
G37*
%TD.AperFunction*%
%TD*%
D24*
%TO.N,/~RTS*%
X157879574Y-101600000D02*
X156874835Y-102179271D01*
X156785205Y-102094443D01*
X156784461Y-102093792D01*
X156683423Y-102012073D01*
X156682600Y-102011461D01*
X156577026Y-101939356D01*
X156576132Y-101938798D01*
X156466024Y-101876307D01*
X156465074Y-101875820D01*
X156350431Y-101822943D01*
X156349446Y-101822537D01*
X156230268Y-101779274D01*
X156229267Y-101778957D01*
X156105554Y-101745308D01*
X156104560Y-101745080D01*
X155976313Y-101721045D01*
X155975345Y-101720902D01*
X155842562Y-101706481D01*
X155841635Y-101706415D01*
X155716574Y-101702037D01*
X155716574Y-101497963D01*
X155841635Y-101493585D01*
X155842562Y-101493519D01*
X155975345Y-101479098D01*
X155976313Y-101478955D01*
X156104560Y-101454920D01*
X156105554Y-101454692D01*
X156229267Y-101421043D01*
X156230268Y-101420726D01*
X156349446Y-101377463D01*
X156350431Y-101377057D01*
X156465074Y-101324180D01*
X156466024Y-101323693D01*
X156576132Y-101261202D01*
X156577026Y-101260644D01*
X156682600Y-101188539D01*
X156683423Y-101187927D01*
X156784461Y-101106208D01*
X156785205Y-101105557D01*
X156874835Y-101020729D01*
X157879574Y-101600000D01*
%TA.AperFunction,Conductor*%
D23*
G36*
X157879574Y-101600000D02*
G01*
X156874835Y-102179271D01*
X156785205Y-102094443D01*
X156784461Y-102093792D01*
X156683423Y-102012073D01*
X156682600Y-102011461D01*
X156577026Y-101939356D01*
X156576132Y-101938798D01*
X156466024Y-101876307D01*
X156465074Y-101875820D01*
X156350431Y-101822943D01*
X156349446Y-101822537D01*
X156230268Y-101779274D01*
X156229267Y-101778957D01*
X156105554Y-101745308D01*
X156104560Y-101745080D01*
X155976313Y-101721045D01*
X155975345Y-101720902D01*
X155842562Y-101706481D01*
X155841635Y-101706415D01*
X155716574Y-101702037D01*
X155716574Y-101497963D01*
X155841635Y-101493585D01*
X155842562Y-101493519D01*
X155975345Y-101479098D01*
X155976313Y-101478955D01*
X156104560Y-101454920D01*
X156105554Y-101454692D01*
X156229267Y-101421043D01*
X156230268Y-101420726D01*
X156349446Y-101377463D01*
X156350431Y-101377057D01*
X156465074Y-101324180D01*
X156466024Y-101323693D01*
X156576132Y-101261202D01*
X156577026Y-101260644D01*
X156682600Y-101188539D01*
X156683423Y-101187927D01*
X156784461Y-101106208D01*
X156785205Y-101105557D01*
X156874835Y-101020729D01*
X157879574Y-101600000D01*
G37*
%TD.AperFunction*%
%TD*%
D24*
%TO.N,/RxD*%
X129646064Y-107692370D02*
X129646130Y-107693297D01*
X129659501Y-107816432D01*
X129659644Y-107817400D01*
X129681929Y-107936328D01*
X129682157Y-107937322D01*
X129713356Y-108052043D01*
X129713673Y-108053043D01*
X129753786Y-108163557D01*
X129754191Y-108164543D01*
X129803218Y-108270849D01*
X129803706Y-108271798D01*
X129861647Y-108373898D01*
X129862204Y-108374792D01*
X129929059Y-108472684D01*
X129929672Y-108473508D01*
X130005441Y-108567193D01*
X130006092Y-108567937D01*
X130084271Y-108650542D01*
X129540000Y-109594574D01*
X128995729Y-108650542D01*
X129073907Y-108567937D01*
X129074558Y-108567193D01*
X129150327Y-108473508D01*
X129150940Y-108472684D01*
X129217795Y-108374792D01*
X129218352Y-108373898D01*
X129276293Y-108271798D01*
X129276781Y-108270849D01*
X129325808Y-108164543D01*
X129326213Y-108163557D01*
X129366326Y-108053043D01*
X129366643Y-108052043D01*
X129397842Y-107937322D01*
X129398070Y-107936328D01*
X129420355Y-107817400D01*
X129420498Y-107816432D01*
X129433869Y-107693297D01*
X129433935Y-107692370D01*
X129437963Y-107577284D01*
X129642037Y-107577284D01*
X129646064Y-107692370D01*
%TA.AperFunction,Conductor*%
D23*
G36*
X129646064Y-107692370D02*
G01*
X129646130Y-107693297D01*
X129659501Y-107816432D01*
X129659644Y-107817400D01*
X129681929Y-107936328D01*
X129682157Y-107937322D01*
X129713356Y-108052043D01*
X129713673Y-108053043D01*
X129753786Y-108163557D01*
X129754191Y-108164543D01*
X129803218Y-108270849D01*
X129803706Y-108271798D01*
X129861647Y-108373898D01*
X129862204Y-108374792D01*
X129929059Y-108472684D01*
X129929672Y-108473508D01*
X130005441Y-108567193D01*
X130006092Y-108567937D01*
X130084271Y-108650542D01*
X129540000Y-109594574D01*
X128995729Y-108650542D01*
X129073907Y-108567937D01*
X129074558Y-108567193D01*
X129150327Y-108473508D01*
X129150940Y-108472684D01*
X129217795Y-108374792D01*
X129218352Y-108373898D01*
X129276293Y-108271798D01*
X129276781Y-108270849D01*
X129325808Y-108164543D01*
X129326213Y-108163557D01*
X129366326Y-108053043D01*
X129366643Y-108052043D01*
X129397842Y-107937322D01*
X129398070Y-107936328D01*
X129420355Y-107817400D01*
X129420498Y-107816432D01*
X129433869Y-107693297D01*
X129433935Y-107692370D01*
X129437963Y-107577284D01*
X129642037Y-107577284D01*
X129646064Y-107692370D01*
G37*
%TD.AperFunction*%
%TD*%
D24*
%TO.N,/RxD*%
X157879574Y-96520000D02*
X156874835Y-97099271D01*
X156785205Y-97014443D01*
X156784461Y-97013792D01*
X156683423Y-96932073D01*
X156682600Y-96931461D01*
X156577026Y-96859356D01*
X156576132Y-96858798D01*
X156466024Y-96796307D01*
X156465074Y-96795820D01*
X156350431Y-96742943D01*
X156349446Y-96742537D01*
X156230268Y-96699274D01*
X156229267Y-96698957D01*
X156105554Y-96665308D01*
X156104560Y-96665080D01*
X155976313Y-96641045D01*
X155975345Y-96640902D01*
X155842562Y-96626481D01*
X155841635Y-96626415D01*
X155716574Y-96622037D01*
X155716574Y-96417963D01*
X155841635Y-96413585D01*
X155842562Y-96413519D01*
X155975345Y-96399098D01*
X155976313Y-96398955D01*
X156104560Y-96374920D01*
X156105554Y-96374692D01*
X156229267Y-96341043D01*
X156230268Y-96340726D01*
X156349446Y-96297463D01*
X156350431Y-96297057D01*
X156465074Y-96244180D01*
X156466024Y-96243693D01*
X156576132Y-96181202D01*
X156577026Y-96180644D01*
X156682600Y-96108539D01*
X156683423Y-96107927D01*
X156784461Y-96026208D01*
X156785205Y-96025557D01*
X156874835Y-95940729D01*
X157879574Y-96520000D01*
%TA.AperFunction,Conductor*%
D23*
G36*
X157879574Y-96520000D02*
G01*
X156874835Y-97099271D01*
X156785205Y-97014443D01*
X156784461Y-97013792D01*
X156683423Y-96932073D01*
X156682600Y-96931461D01*
X156577026Y-96859356D01*
X156576132Y-96858798D01*
X156466024Y-96796307D01*
X156465074Y-96795820D01*
X156350431Y-96742943D01*
X156349446Y-96742537D01*
X156230268Y-96699274D01*
X156229267Y-96698957D01*
X156105554Y-96665308D01*
X156104560Y-96665080D01*
X155976313Y-96641045D01*
X155975345Y-96640902D01*
X155842562Y-96626481D01*
X155841635Y-96626415D01*
X155716574Y-96622037D01*
X155716574Y-96417963D01*
X155841635Y-96413585D01*
X155842562Y-96413519D01*
X155975345Y-96399098D01*
X155976313Y-96398955D01*
X156104560Y-96374920D01*
X156105554Y-96374692D01*
X156229267Y-96341043D01*
X156230268Y-96340726D01*
X156349446Y-96297463D01*
X156350431Y-96297057D01*
X156465074Y-96244180D01*
X156466024Y-96243693D01*
X156576132Y-96181202D01*
X156577026Y-96180644D01*
X156682600Y-96108539D01*
X156683423Y-96107927D01*
X156784461Y-96026208D01*
X156785205Y-96025557D01*
X156874835Y-95940729D01*
X157879574Y-96520000D01*
G37*
%TD.AperFunction*%
%TD*%
D24*
%TO.N,/TxD*%
X124566064Y-107692370D02*
X124566130Y-107693297D01*
X124579501Y-107816432D01*
X124579644Y-107817400D01*
X124601929Y-107936328D01*
X124602157Y-107937322D01*
X124633356Y-108052043D01*
X124633673Y-108053043D01*
X124673786Y-108163557D01*
X124674191Y-108164543D01*
X124723218Y-108270849D01*
X124723706Y-108271798D01*
X124781647Y-108373898D01*
X124782204Y-108374792D01*
X124849059Y-108472684D01*
X124849672Y-108473508D01*
X124925441Y-108567193D01*
X124926092Y-108567937D01*
X125004271Y-108650542D01*
X124460000Y-109594574D01*
X123915729Y-108650542D01*
X123993907Y-108567937D01*
X123994558Y-108567193D01*
X124070327Y-108473508D01*
X124070940Y-108472684D01*
X124137795Y-108374792D01*
X124138352Y-108373898D01*
X124196293Y-108271798D01*
X124196781Y-108270849D01*
X124245808Y-108164543D01*
X124246213Y-108163557D01*
X124286326Y-108053043D01*
X124286643Y-108052043D01*
X124317842Y-107937322D01*
X124318070Y-107936328D01*
X124340355Y-107817400D01*
X124340498Y-107816432D01*
X124353869Y-107693297D01*
X124353935Y-107692370D01*
X124357963Y-107577284D01*
X124562037Y-107577284D01*
X124566064Y-107692370D01*
%TA.AperFunction,Conductor*%
D23*
G36*
X124566064Y-107692370D02*
G01*
X124566130Y-107693297D01*
X124579501Y-107816432D01*
X124579644Y-107817400D01*
X124601929Y-107936328D01*
X124602157Y-107937322D01*
X124633356Y-108052043D01*
X124633673Y-108053043D01*
X124673786Y-108163557D01*
X124674191Y-108164543D01*
X124723218Y-108270849D01*
X124723706Y-108271798D01*
X124781647Y-108373898D01*
X124782204Y-108374792D01*
X124849059Y-108472684D01*
X124849672Y-108473508D01*
X124925441Y-108567193D01*
X124926092Y-108567937D01*
X125004271Y-108650542D01*
X124460000Y-109594574D01*
X123915729Y-108650542D01*
X123993907Y-108567937D01*
X123994558Y-108567193D01*
X124070327Y-108473508D01*
X124070940Y-108472684D01*
X124137795Y-108374792D01*
X124138352Y-108373898D01*
X124196293Y-108271798D01*
X124196781Y-108270849D01*
X124245808Y-108164543D01*
X124246213Y-108163557D01*
X124286326Y-108053043D01*
X124286643Y-108052043D01*
X124317842Y-107937322D01*
X124318070Y-107936328D01*
X124340355Y-107817400D01*
X124340498Y-107816432D01*
X124353869Y-107693297D01*
X124353935Y-107692370D01*
X124357963Y-107577284D01*
X124562037Y-107577284D01*
X124566064Y-107692370D01*
G37*
%TD.AperFunction*%
%TD*%
D24*
%TO.N,/TxD*%
X157879574Y-93980000D02*
X156874835Y-94559271D01*
X156785205Y-94474443D01*
X156784461Y-94473792D01*
X156683423Y-94392073D01*
X156682600Y-94391461D01*
X156577026Y-94319356D01*
X156576132Y-94318798D01*
X156466024Y-94256307D01*
X156465074Y-94255820D01*
X156350431Y-94202943D01*
X156349446Y-94202537D01*
X156230268Y-94159274D01*
X156229267Y-94158957D01*
X156105554Y-94125308D01*
X156104560Y-94125080D01*
X155976313Y-94101045D01*
X155975345Y-94100902D01*
X155842562Y-94086481D01*
X155841635Y-94086415D01*
X155716574Y-94082037D01*
X155716574Y-93877963D01*
X155841635Y-93873585D01*
X155842562Y-93873519D01*
X155975345Y-93859098D01*
X155976313Y-93858955D01*
X156104560Y-93834920D01*
X156105554Y-93834692D01*
X156229267Y-93801043D01*
X156230268Y-93800726D01*
X156349446Y-93757463D01*
X156350431Y-93757057D01*
X156465074Y-93704180D01*
X156466024Y-93703693D01*
X156576132Y-93641202D01*
X156577026Y-93640644D01*
X156682600Y-93568539D01*
X156683423Y-93567927D01*
X156784461Y-93486208D01*
X156785205Y-93485557D01*
X156874835Y-93400729D01*
X157879574Y-93980000D01*
%TA.AperFunction,Conductor*%
D23*
G36*
X157879574Y-93980000D02*
G01*
X156874835Y-94559271D01*
X156785205Y-94474443D01*
X156784461Y-94473792D01*
X156683423Y-94392073D01*
X156682600Y-94391461D01*
X156577026Y-94319356D01*
X156576132Y-94318798D01*
X156466024Y-94256307D01*
X156465074Y-94255820D01*
X156350431Y-94202943D01*
X156349446Y-94202537D01*
X156230268Y-94159274D01*
X156229267Y-94158957D01*
X156105554Y-94125308D01*
X156104560Y-94125080D01*
X155976313Y-94101045D01*
X155975345Y-94100902D01*
X155842562Y-94086481D01*
X155841635Y-94086415D01*
X155716574Y-94082037D01*
X155716574Y-93877963D01*
X155841635Y-93873585D01*
X155842562Y-93873519D01*
X155975345Y-93859098D01*
X155976313Y-93858955D01*
X156104560Y-93834920D01*
X156105554Y-93834692D01*
X156229267Y-93801043D01*
X156230268Y-93800726D01*
X156349446Y-93757463D01*
X156350431Y-93757057D01*
X156465074Y-93704180D01*
X156466024Y-93703693D01*
X156576132Y-93641202D01*
X156577026Y-93640644D01*
X156682600Y-93568539D01*
X156683423Y-93567927D01*
X156784461Y-93486208D01*
X156785205Y-93485557D01*
X156874835Y-93400729D01*
X157879574Y-93980000D01*
G37*
%TD.AperFunction*%
%TD*%
D24*
%TO.N,/~CTS*%
X122026064Y-107692370D02*
X122026130Y-107693297D01*
X122039501Y-107816432D01*
X122039644Y-107817400D01*
X122061929Y-107936328D01*
X122062157Y-107937322D01*
X122093356Y-108052043D01*
X122093673Y-108053043D01*
X122133786Y-108163557D01*
X122134191Y-108164543D01*
X122183218Y-108270849D01*
X122183706Y-108271798D01*
X122241647Y-108373898D01*
X122242204Y-108374792D01*
X122309059Y-108472684D01*
X122309672Y-108473508D01*
X122385441Y-108567193D01*
X122386092Y-108567937D01*
X122464271Y-108650542D01*
X121920000Y-109594574D01*
X121375729Y-108650542D01*
X121453907Y-108567937D01*
X121454558Y-108567193D01*
X121530327Y-108473508D01*
X121530940Y-108472684D01*
X121597795Y-108374792D01*
X121598352Y-108373898D01*
X121656293Y-108271798D01*
X121656781Y-108270849D01*
X121705808Y-108164543D01*
X121706213Y-108163557D01*
X121746326Y-108053043D01*
X121746643Y-108052043D01*
X121777842Y-107937322D01*
X121778070Y-107936328D01*
X121800355Y-107817400D01*
X121800498Y-107816432D01*
X121813869Y-107693297D01*
X121813935Y-107692370D01*
X121817963Y-107577284D01*
X122022037Y-107577284D01*
X122026064Y-107692370D01*
%TA.AperFunction,Conductor*%
D23*
G36*
X122026064Y-107692370D02*
G01*
X122026130Y-107693297D01*
X122039501Y-107816432D01*
X122039644Y-107817400D01*
X122061929Y-107936328D01*
X122062157Y-107937322D01*
X122093356Y-108052043D01*
X122093673Y-108053043D01*
X122133786Y-108163557D01*
X122134191Y-108164543D01*
X122183218Y-108270849D01*
X122183706Y-108271798D01*
X122241647Y-108373898D01*
X122242204Y-108374792D01*
X122309059Y-108472684D01*
X122309672Y-108473508D01*
X122385441Y-108567193D01*
X122386092Y-108567937D01*
X122464271Y-108650542D01*
X121920000Y-109594574D01*
X121375729Y-108650542D01*
X121453907Y-108567937D01*
X121454558Y-108567193D01*
X121530327Y-108473508D01*
X121530940Y-108472684D01*
X121597795Y-108374792D01*
X121598352Y-108373898D01*
X121656293Y-108271798D01*
X121656781Y-108270849D01*
X121705808Y-108164543D01*
X121706213Y-108163557D01*
X121746326Y-108053043D01*
X121746643Y-108052043D01*
X121777842Y-107937322D01*
X121778070Y-107936328D01*
X121800355Y-107817400D01*
X121800498Y-107816432D01*
X121813869Y-107693297D01*
X121813935Y-107692370D01*
X121817963Y-107577284D01*
X122022037Y-107577284D01*
X122026064Y-107692370D01*
G37*
%TD.AperFunction*%
%TD*%
D24*
%TO.N,/~CTS*%
X157879574Y-91440000D02*
X156874835Y-92019271D01*
X156785205Y-91934443D01*
X156784461Y-91933792D01*
X156683423Y-91852073D01*
X156682600Y-91851461D01*
X156577026Y-91779356D01*
X156576132Y-91778798D01*
X156466024Y-91716307D01*
X156465074Y-91715820D01*
X156350431Y-91662943D01*
X156349446Y-91662537D01*
X156230268Y-91619274D01*
X156229267Y-91618957D01*
X156105554Y-91585308D01*
X156104560Y-91585080D01*
X155976313Y-91561045D01*
X155975345Y-91560902D01*
X155842562Y-91546481D01*
X155841635Y-91546415D01*
X155716574Y-91542037D01*
X155716574Y-91337963D01*
X155841635Y-91333585D01*
X155842562Y-91333519D01*
X155975345Y-91319098D01*
X155976313Y-91318955D01*
X156104560Y-91294920D01*
X156105554Y-91294692D01*
X156229267Y-91261043D01*
X156230268Y-91260726D01*
X156349446Y-91217463D01*
X156350431Y-91217057D01*
X156465074Y-91164180D01*
X156466024Y-91163693D01*
X156576132Y-91101202D01*
X156577026Y-91100644D01*
X156682600Y-91028539D01*
X156683423Y-91027927D01*
X156784461Y-90946208D01*
X156785205Y-90945557D01*
X156874835Y-90860729D01*
X157879574Y-91440000D01*
%TA.AperFunction,Conductor*%
D23*
G36*
X157879574Y-91440000D02*
G01*
X156874835Y-92019271D01*
X156785205Y-91934443D01*
X156784461Y-91933792D01*
X156683423Y-91852073D01*
X156682600Y-91851461D01*
X156577026Y-91779356D01*
X156576132Y-91778798D01*
X156466024Y-91716307D01*
X156465074Y-91715820D01*
X156350431Y-91662943D01*
X156349446Y-91662537D01*
X156230268Y-91619274D01*
X156229267Y-91618957D01*
X156105554Y-91585308D01*
X156104560Y-91585080D01*
X155976313Y-91561045D01*
X155975345Y-91560902D01*
X155842562Y-91546481D01*
X155841635Y-91546415D01*
X155716574Y-91542037D01*
X155716574Y-91337963D01*
X155841635Y-91333585D01*
X155842562Y-91333519D01*
X155975345Y-91319098D01*
X155976313Y-91318955D01*
X156104560Y-91294920D01*
X156105554Y-91294692D01*
X156229267Y-91261043D01*
X156230268Y-91260726D01*
X156349446Y-91217463D01*
X156350431Y-91217057D01*
X156465074Y-91164180D01*
X156466024Y-91163693D01*
X156576132Y-91101202D01*
X156577026Y-91100644D01*
X156682600Y-91028539D01*
X156683423Y-91027927D01*
X156784461Y-90946208D01*
X156785205Y-90945557D01*
X156874835Y-90860729D01*
X157879574Y-91440000D01*
G37*
%TD.AperFunction*%
%TD*%
D24*
%TO.N,/acia_clk*%
X114844271Y-109789458D02*
X114766092Y-109872062D01*
X114765441Y-109872806D01*
X114689672Y-109966491D01*
X114689059Y-109967315D01*
X114622204Y-110065207D01*
X114621647Y-110066101D01*
X114563706Y-110168201D01*
X114563218Y-110169150D01*
X114514191Y-110275457D01*
X114513786Y-110276443D01*
X114473673Y-110386956D01*
X114473356Y-110387956D01*
X114442157Y-110502677D01*
X114441929Y-110503671D01*
X114419644Y-110622599D01*
X114419501Y-110623567D01*
X114406130Y-110746702D01*
X114406064Y-110747629D01*
X114402037Y-110862716D01*
X114197963Y-110862716D01*
X114193935Y-110747629D01*
X114193869Y-110746702D01*
X114180498Y-110623567D01*
X114180355Y-110622599D01*
X114158070Y-110503671D01*
X114157842Y-110502677D01*
X114126643Y-110387956D01*
X114126326Y-110386956D01*
X114086213Y-110276443D01*
X114085808Y-110275457D01*
X114036781Y-110169150D01*
X114036293Y-110168201D01*
X113978352Y-110066101D01*
X113977795Y-110065207D01*
X113910940Y-109967315D01*
X113910327Y-109966491D01*
X113834558Y-109872806D01*
X113833907Y-109872062D01*
X113755729Y-109789458D01*
X114300000Y-108845426D01*
X114844271Y-109789458D01*
%TA.AperFunction,Conductor*%
D23*
G36*
X114844271Y-109789458D02*
G01*
X114766092Y-109872062D01*
X114765441Y-109872806D01*
X114689672Y-109966491D01*
X114689059Y-109967315D01*
X114622204Y-110065207D01*
X114621647Y-110066101D01*
X114563706Y-110168201D01*
X114563218Y-110169150D01*
X114514191Y-110275457D01*
X114513786Y-110276443D01*
X114473673Y-110386956D01*
X114473356Y-110387956D01*
X114442157Y-110502677D01*
X114441929Y-110503671D01*
X114419644Y-110622599D01*
X114419501Y-110623567D01*
X114406130Y-110746702D01*
X114406064Y-110747629D01*
X114402037Y-110862716D01*
X114197963Y-110862716D01*
X114193935Y-110747629D01*
X114193869Y-110746702D01*
X114180498Y-110623567D01*
X114180355Y-110622599D01*
X114158070Y-110503671D01*
X114157842Y-110502677D01*
X114126643Y-110387956D01*
X114126326Y-110386956D01*
X114086213Y-110276443D01*
X114085808Y-110275457D01*
X114036781Y-110169150D01*
X114036293Y-110168201D01*
X113978352Y-110066101D01*
X113977795Y-110065207D01*
X113910940Y-109967315D01*
X113910327Y-109966491D01*
X113834558Y-109872806D01*
X113833907Y-109872062D01*
X113755729Y-109789458D01*
X114300000Y-108845426D01*
X114844271Y-109789458D01*
G37*
%TD.AperFunction*%
%TD*%
D24*
%TO.N,/acia_clk*%
X94632062Y-116373907D02*
X94632806Y-116374558D01*
X94726491Y-116450327D01*
X94727315Y-116450940D01*
X94825207Y-116517795D01*
X94826101Y-116518352D01*
X94928201Y-116576293D01*
X94929150Y-116576781D01*
X95035457Y-116625808D01*
X95036443Y-116626213D01*
X95146956Y-116666326D01*
X95147956Y-116666643D01*
X95262677Y-116697842D01*
X95263671Y-116698070D01*
X95382599Y-116720355D01*
X95383567Y-116720498D01*
X95506702Y-116733869D01*
X95507629Y-116733935D01*
X95622716Y-116737963D01*
X95622716Y-116942037D01*
X95507629Y-116946064D01*
X95506702Y-116946130D01*
X95383567Y-116959501D01*
X95382599Y-116959644D01*
X95263671Y-116981929D01*
X95262677Y-116982157D01*
X95147956Y-117013356D01*
X95146956Y-117013673D01*
X95036443Y-117053786D01*
X95035457Y-117054191D01*
X94929150Y-117103218D01*
X94928201Y-117103706D01*
X94826101Y-117161647D01*
X94825207Y-117162204D01*
X94727315Y-117229059D01*
X94726491Y-117229672D01*
X94632806Y-117305441D01*
X94632062Y-117306092D01*
X94549458Y-117384271D01*
X93605426Y-116840000D01*
X94549458Y-116295729D01*
X94632062Y-116373907D01*
%TA.AperFunction,Conductor*%
D23*
G36*
X94632062Y-116373907D02*
G01*
X94632806Y-116374558D01*
X94726491Y-116450327D01*
X94727315Y-116450940D01*
X94825207Y-116517795D01*
X94826101Y-116518352D01*
X94928201Y-116576293D01*
X94929150Y-116576781D01*
X95035457Y-116625808D01*
X95036443Y-116626213D01*
X95146956Y-116666326D01*
X95147956Y-116666643D01*
X95262677Y-116697842D01*
X95263671Y-116698070D01*
X95382599Y-116720355D01*
X95383567Y-116720498D01*
X95506702Y-116733869D01*
X95507629Y-116733935D01*
X95622716Y-116737963D01*
X95622716Y-116942037D01*
X95507629Y-116946064D01*
X95506702Y-116946130D01*
X95383567Y-116959501D01*
X95382599Y-116959644D01*
X95263671Y-116981929D01*
X95262677Y-116982157D01*
X95147956Y-117013356D01*
X95146956Y-117013673D01*
X95036443Y-117053786D01*
X95035457Y-117054191D01*
X94929150Y-117103218D01*
X94928201Y-117103706D01*
X94826101Y-117161647D01*
X94825207Y-117162204D01*
X94727315Y-117229059D01*
X94726491Y-117229672D01*
X94632806Y-117305441D01*
X94632062Y-117306092D01*
X94549458Y-117384271D01*
X93605426Y-116840000D01*
X94549458Y-116295729D01*
X94632062Y-116373907D01*
G37*
%TD.AperFunction*%
%TD*%
D24*
%TO.N,Net-(D2-Pad2)*%
X84434271Y-83190871D02*
X84342792Y-83287526D01*
X84342142Y-83288269D01*
X84254473Y-83396661D01*
X84253860Y-83397485D01*
X84176505Y-83510739D01*
X84175947Y-83511633D01*
X84108906Y-83629750D01*
X84108419Y-83630699D01*
X84051692Y-83753678D01*
X84051286Y-83754664D01*
X84004873Y-83882506D01*
X84004556Y-83883506D01*
X83968457Y-84016211D01*
X83968229Y-84017205D01*
X83942444Y-84154772D01*
X83942301Y-84155741D01*
X83926830Y-84298172D01*
X83926764Y-84299099D01*
X83922037Y-84434136D01*
X83717963Y-84434136D01*
X83713235Y-84299099D01*
X83713169Y-84298172D01*
X83697698Y-84155741D01*
X83697555Y-84154772D01*
X83671770Y-84017205D01*
X83671542Y-84016211D01*
X83635443Y-83883506D01*
X83635126Y-83882506D01*
X83588713Y-83754664D01*
X83588307Y-83753678D01*
X83531580Y-83630699D01*
X83531093Y-83629750D01*
X83464052Y-83511633D01*
X83463494Y-83510739D01*
X83386139Y-83397485D01*
X83385526Y-83396661D01*
X83297857Y-83288269D01*
X83297207Y-83287526D01*
X83205729Y-83190871D01*
X83820000Y-82125426D01*
X84434271Y-83190871D01*
%TA.AperFunction,Conductor*%
D23*
G36*
X84434271Y-83190871D02*
G01*
X84342792Y-83287526D01*
X84342142Y-83288269D01*
X84254473Y-83396661D01*
X84253860Y-83397485D01*
X84176505Y-83510739D01*
X84175947Y-83511633D01*
X84108906Y-83629750D01*
X84108419Y-83630699D01*
X84051692Y-83753678D01*
X84051286Y-83754664D01*
X84004873Y-83882506D01*
X84004556Y-83883506D01*
X83968457Y-84016211D01*
X83968229Y-84017205D01*
X83942444Y-84154772D01*
X83942301Y-84155741D01*
X83926830Y-84298172D01*
X83926764Y-84299099D01*
X83922037Y-84434136D01*
X83717963Y-84434136D01*
X83713235Y-84299099D01*
X83713169Y-84298172D01*
X83697698Y-84155741D01*
X83697555Y-84154772D01*
X83671770Y-84017205D01*
X83671542Y-84016211D01*
X83635443Y-83883506D01*
X83635126Y-83882506D01*
X83588713Y-83754664D01*
X83588307Y-83753678D01*
X83531580Y-83630699D01*
X83531093Y-83629750D01*
X83464052Y-83511633D01*
X83463494Y-83510739D01*
X83386139Y-83397485D01*
X83385526Y-83396661D01*
X83297857Y-83288269D01*
X83297207Y-83287526D01*
X83205729Y-83190871D01*
X83820000Y-82125426D01*
X84434271Y-83190871D01*
G37*
%TD.AperFunction*%
%TD*%
D24*
%TO.N,Net-(D2-Pad2)*%
X86734574Y-86360000D02*
X85790733Y-86904161D01*
X85711993Y-86826286D01*
X85711674Y-86825982D01*
X85629551Y-86750213D01*
X85629166Y-86749872D01*
X85550544Y-86683017D01*
X85550073Y-86682636D01*
X85474953Y-86624695D01*
X85474371Y-86624271D01*
X85402752Y-86575244D01*
X85402022Y-86574780D01*
X85333904Y-86534667D01*
X85332982Y-86534174D01*
X85268365Y-86502975D01*
X85267194Y-86502480D01*
X85206078Y-86480195D01*
X85204598Y-86479756D01*
X85146984Y-86466385D01*
X85145155Y-86466099D01*
X85102700Y-86462603D01*
X85102700Y-86257397D01*
X85145156Y-86253900D01*
X85146984Y-86253614D01*
X85204598Y-86240243D01*
X85206078Y-86239804D01*
X85267194Y-86217519D01*
X85268365Y-86217024D01*
X85332982Y-86185825D01*
X85333904Y-86185332D01*
X85402022Y-86145219D01*
X85402752Y-86144755D01*
X85474371Y-86095728D01*
X85474953Y-86095304D01*
X85550073Y-86037363D01*
X85550544Y-86036982D01*
X85629166Y-85970127D01*
X85629551Y-85969786D01*
X85711674Y-85894017D01*
X85711993Y-85893713D01*
X85790732Y-85815839D01*
X86734574Y-86360000D01*
%TA.AperFunction,Conductor*%
D23*
G36*
X86734574Y-86360000D02*
G01*
X85790733Y-86904161D01*
X85711993Y-86826286D01*
X85711674Y-86825982D01*
X85629551Y-86750213D01*
X85629166Y-86749872D01*
X85550544Y-86683017D01*
X85550073Y-86682636D01*
X85474953Y-86624695D01*
X85474371Y-86624271D01*
X85402752Y-86575244D01*
X85402022Y-86574780D01*
X85333904Y-86534667D01*
X85332982Y-86534174D01*
X85268365Y-86502975D01*
X85267194Y-86502480D01*
X85206078Y-86480195D01*
X85204598Y-86479756D01*
X85146984Y-86466385D01*
X85145155Y-86466099D01*
X85102700Y-86462603D01*
X85102700Y-86257397D01*
X85145156Y-86253900D01*
X85146984Y-86253614D01*
X85204598Y-86240243D01*
X85206078Y-86239804D01*
X85267194Y-86217519D01*
X85268365Y-86217024D01*
X85332982Y-86185825D01*
X85333904Y-86185332D01*
X85402022Y-86145219D01*
X85402752Y-86144755D01*
X85474371Y-86095728D01*
X85474953Y-86095304D01*
X85550073Y-86037363D01*
X85550544Y-86036982D01*
X85629166Y-85970127D01*
X85629551Y-85969786D01*
X85711674Y-85894017D01*
X85711993Y-85893713D01*
X85790732Y-85815839D01*
X86734574Y-86360000D01*
G37*
%TD.AperFunction*%
%TD*%
D24*
%TO.N,Net-(D3-Pad2)*%
X87008007Y-89703713D02*
X87008326Y-89704017D01*
X87090448Y-89779786D01*
X87090833Y-89780127D01*
X87169455Y-89846982D01*
X87169926Y-89847363D01*
X87245046Y-89905304D01*
X87245628Y-89905728D01*
X87317248Y-89954755D01*
X87317978Y-89955219D01*
X87386096Y-89995332D01*
X87387018Y-89995825D01*
X87451634Y-90027024D01*
X87452805Y-90027519D01*
X87513921Y-90049804D01*
X87515401Y-90050243D01*
X87573015Y-90063614D01*
X87574844Y-90063900D01*
X87617300Y-90067397D01*
X87617300Y-90272603D01*
X87574844Y-90276099D01*
X87573015Y-90276385D01*
X87515401Y-90289756D01*
X87513921Y-90290195D01*
X87452805Y-90312480D01*
X87451634Y-90312975D01*
X87387018Y-90344174D01*
X87386096Y-90344667D01*
X87317978Y-90384780D01*
X87317248Y-90385244D01*
X87245628Y-90434271D01*
X87245046Y-90434695D01*
X87169926Y-90492636D01*
X87169455Y-90493017D01*
X87090833Y-90559872D01*
X87090448Y-90560213D01*
X87008326Y-90635982D01*
X87008007Y-90636286D01*
X86929267Y-90714161D01*
X85985426Y-90170000D01*
X86929268Y-89625839D01*
X87008007Y-89703713D01*
%TA.AperFunction,Conductor*%
D23*
G36*
X87008007Y-89703713D02*
G01*
X87008326Y-89704017D01*
X87090448Y-89779786D01*
X87090833Y-89780127D01*
X87169455Y-89846982D01*
X87169926Y-89847363D01*
X87245046Y-89905304D01*
X87245628Y-89905728D01*
X87317248Y-89954755D01*
X87317978Y-89955219D01*
X87386096Y-89995332D01*
X87387018Y-89995825D01*
X87451634Y-90027024D01*
X87452805Y-90027519D01*
X87513921Y-90049804D01*
X87515401Y-90050243D01*
X87573015Y-90063614D01*
X87574844Y-90063900D01*
X87617300Y-90067397D01*
X87617300Y-90272603D01*
X87574844Y-90276099D01*
X87573015Y-90276385D01*
X87515401Y-90289756D01*
X87513921Y-90290195D01*
X87452805Y-90312480D01*
X87451634Y-90312975D01*
X87387018Y-90344174D01*
X87386096Y-90344667D01*
X87317978Y-90384780D01*
X87317248Y-90385244D01*
X87245628Y-90434271D01*
X87245046Y-90434695D01*
X87169926Y-90492636D01*
X87169455Y-90493017D01*
X87090833Y-90559872D01*
X87090448Y-90560213D01*
X87008326Y-90635982D01*
X87008007Y-90636286D01*
X86929267Y-90714161D01*
X85985426Y-90170000D01*
X86929268Y-89625839D01*
X87008007Y-89703713D01*
G37*
%TD.AperFunction*%
%TD*%
D24*
%TO.N,Net-(D3-Pad2)*%
X91421190Y-83437519D02*
X91288160Y-83441180D01*
X91287174Y-83441245D01*
X91148539Y-83455898D01*
X91147523Y-83456047D01*
X91012742Y-83481432D01*
X91011716Y-83481670D01*
X90880789Y-83517786D01*
X90879773Y-83518113D01*
X90752702Y-83564961D01*
X90751718Y-83565371D01*
X90628501Y-83622950D01*
X90627570Y-83623433D01*
X90508207Y-83691743D01*
X90507343Y-83692285D01*
X90391836Y-83771328D01*
X90391050Y-83771911D01*
X90279397Y-83861684D01*
X90278694Y-83862293D01*
X90179865Y-83954436D01*
X90035563Y-83810134D01*
X90127706Y-83711304D01*
X90128315Y-83710602D01*
X90218088Y-83598949D01*
X90218671Y-83598163D01*
X90297714Y-83482656D01*
X90298256Y-83481792D01*
X90366566Y-83362429D01*
X90367049Y-83361498D01*
X90424629Y-83238281D01*
X90425039Y-83237297D01*
X90471886Y-83110226D01*
X90472213Y-83109210D01*
X90508329Y-82978283D01*
X90508567Y-82977257D01*
X90533952Y-82842476D01*
X90534101Y-82841460D01*
X90548754Y-82702825D01*
X90548819Y-82701839D01*
X90552481Y-82568810D01*
X91740219Y-82249781D01*
X91421190Y-83437519D01*
%TA.AperFunction,Conductor*%
D23*
G36*
X91421190Y-83437519D02*
G01*
X91288160Y-83441180D01*
X91287174Y-83441245D01*
X91148539Y-83455898D01*
X91147523Y-83456047D01*
X91012742Y-83481432D01*
X91011716Y-83481670D01*
X90880789Y-83517786D01*
X90879773Y-83518113D01*
X90752702Y-83564961D01*
X90751718Y-83565371D01*
X90628501Y-83622950D01*
X90627570Y-83623433D01*
X90508207Y-83691743D01*
X90507343Y-83692285D01*
X90391836Y-83771328D01*
X90391050Y-83771911D01*
X90279397Y-83861684D01*
X90278694Y-83862293D01*
X90179865Y-83954436D01*
X90035563Y-83810134D01*
X90127706Y-83711304D01*
X90128315Y-83710602D01*
X90218088Y-83598949D01*
X90218671Y-83598163D01*
X90297714Y-83482656D01*
X90298256Y-83481792D01*
X90366566Y-83362429D01*
X90367049Y-83361498D01*
X90424629Y-83238281D01*
X90425039Y-83237297D01*
X90471886Y-83110226D01*
X90472213Y-83109210D01*
X90508329Y-82978283D01*
X90508567Y-82977257D01*
X90533952Y-82842476D01*
X90534101Y-82841460D01*
X90548754Y-82702825D01*
X90548819Y-82701839D01*
X90552481Y-82568810D01*
X91740219Y-82249781D01*
X91421190Y-83437519D01*
G37*
%TD.AperFunction*%
%TD*%
D24*
%TO.N,Net-(R2-Pad2)*%
X94354574Y-86360000D02*
X93410733Y-86904161D01*
X93331993Y-86826286D01*
X93331674Y-86825982D01*
X93249551Y-86750213D01*
X93249166Y-86749872D01*
X93170544Y-86683017D01*
X93170073Y-86682636D01*
X93094953Y-86624695D01*
X93094371Y-86624271D01*
X93022752Y-86575244D01*
X93022022Y-86574780D01*
X92953904Y-86534667D01*
X92952982Y-86534174D01*
X92888365Y-86502975D01*
X92887194Y-86502480D01*
X92826078Y-86480195D01*
X92824598Y-86479756D01*
X92766984Y-86466385D01*
X92765155Y-86466099D01*
X92722700Y-86462603D01*
X92722700Y-86257397D01*
X92765156Y-86253900D01*
X92766984Y-86253614D01*
X92824598Y-86240243D01*
X92826078Y-86239804D01*
X92887194Y-86217519D01*
X92888365Y-86217024D01*
X92952982Y-86185825D01*
X92953904Y-86185332D01*
X93022022Y-86145219D01*
X93022752Y-86144755D01*
X93094371Y-86095728D01*
X93094953Y-86095304D01*
X93170073Y-86037363D01*
X93170544Y-86036982D01*
X93249166Y-85970127D01*
X93249551Y-85969786D01*
X93331674Y-85894017D01*
X93331993Y-85893713D01*
X93410732Y-85815839D01*
X94354574Y-86360000D01*
%TA.AperFunction,Conductor*%
D23*
G36*
X94354574Y-86360000D02*
G01*
X93410733Y-86904161D01*
X93331993Y-86826286D01*
X93331674Y-86825982D01*
X93249551Y-86750213D01*
X93249166Y-86749872D01*
X93170544Y-86683017D01*
X93170073Y-86682636D01*
X93094953Y-86624695D01*
X93094371Y-86624271D01*
X93022752Y-86575244D01*
X93022022Y-86574780D01*
X92953904Y-86534667D01*
X92952982Y-86534174D01*
X92888365Y-86502975D01*
X92887194Y-86502480D01*
X92826078Y-86480195D01*
X92824598Y-86479756D01*
X92766984Y-86466385D01*
X92765155Y-86466099D01*
X92722700Y-86462603D01*
X92722700Y-86257397D01*
X92765156Y-86253900D01*
X92766984Y-86253614D01*
X92824598Y-86240243D01*
X92826078Y-86239804D01*
X92887194Y-86217519D01*
X92888365Y-86217024D01*
X92952982Y-86185825D01*
X92953904Y-86185332D01*
X93022022Y-86145219D01*
X93022752Y-86144755D01*
X93094371Y-86095728D01*
X93094953Y-86095304D01*
X93170073Y-86037363D01*
X93170544Y-86036982D01*
X93249166Y-85970127D01*
X93249551Y-85969786D01*
X93331674Y-85894017D01*
X93331993Y-85893713D01*
X93410732Y-85815839D01*
X94354574Y-86360000D01*
G37*
%TD.AperFunction*%
%TD*%
M02*
