%TF.GenerationSoftware,KiCad,Pcbnew,5.1.9*%
%TF.CreationDate,2021-02-01T10:21:22+01:00*%
%TF.ProjectId,UART_6551_DIP_v1.0,55415254-5f36-4353-9531-5f4449505f76,1.0*%
%TF.SameCoordinates,Original*%
%TF.FileFunction,Soldermask,Top*%
%TF.FilePolarity,Negative*%
%FSLAX46Y46*%
G04 Gerber Fmt 4.6, Leading zero omitted, Abs format (unit mm)*
G04 Created by KiCad (PCBNEW 5.1.9) date 2021-02-01 10:21:22*
%MOMM*%
%LPD*%
G01*
G04 APERTURE LIST*
%ADD10C,1.600000*%
%ADD11O,1.600000X2.400000*%
%ADD12R,1.600000X2.400000*%
%ADD13O,2.400000X1.600000*%
%ADD14R,2.400000X1.600000*%
%ADD15O,1.600000X1.600000*%
%ADD16C,1.800000*%
%ADD17R,1.800000X1.800000*%
%ADD18O,1.700000X1.700000*%
%ADD19R,1.700000X1.700000*%
%ADD20C,2.800000*%
G04 APERTURE END LIST*
D10*
%TO.C,C2*%
X97790000Y-88980000D03*
X97790000Y-93980000D03*
%TD*%
D11*
%TO.C,U1*%
X101600000Y-93980000D03*
X134620000Y-109220000D03*
X104140000Y-93980000D03*
X132080000Y-109220000D03*
X106680000Y-93980000D03*
X129540000Y-109220000D03*
X109220000Y-93980000D03*
X127000000Y-109220000D03*
X111760000Y-93980000D03*
X124460000Y-109220000D03*
X114300000Y-93980000D03*
X121920000Y-109220000D03*
X116840000Y-93980000D03*
X119380000Y-109220000D03*
X119380000Y-93980000D03*
X116840000Y-109220000D03*
X121920000Y-93980000D03*
X114300000Y-109220000D03*
X124460000Y-93980000D03*
X111760000Y-109220000D03*
X127000000Y-93980000D03*
X109220000Y-109220000D03*
X129540000Y-93980000D03*
X106680000Y-109220000D03*
X132080000Y-93980000D03*
X104140000Y-109220000D03*
X134620000Y-93980000D03*
D12*
X101600000Y-109220000D03*
%TD*%
D13*
%TO.C,X1*%
X93980000Y-109220000D03*
X86360000Y-116840000D03*
X93980000Y-111760000D03*
X86360000Y-114300000D03*
X93980000Y-114300000D03*
X86360000Y-111760000D03*
X93980000Y-116840000D03*
D14*
X86360000Y-109220000D03*
%TD*%
D13*
%TO.C,U2*%
X93980000Y-93980000D03*
X86360000Y-101600000D03*
X93980000Y-96520000D03*
X86360000Y-99060000D03*
X93980000Y-99060000D03*
X86360000Y-96520000D03*
X93980000Y-101600000D03*
D14*
X86360000Y-93980000D03*
%TD*%
D15*
%TO.C,R3*%
X93980000Y-90170000D03*
D10*
X86360000Y-90170000D03*
%TD*%
D15*
%TO.C,R2*%
X93980000Y-86360000D03*
D10*
X86360000Y-86360000D03*
%TD*%
D16*
%TO.C,D3*%
X91440000Y-82550000D03*
D17*
X93980000Y-82550000D03*
%TD*%
D16*
%TO.C,D2*%
X83820000Y-82550000D03*
D17*
X86360000Y-82550000D03*
%TD*%
D18*
%TO.C,J2*%
X157480000Y-104140000D03*
X157480000Y-101600000D03*
X157480000Y-99060000D03*
X157480000Y-96520000D03*
X157480000Y-93980000D03*
D19*
X157480000Y-91440000D03*
%TD*%
D10*
%TO.C,C1*%
X99140000Y-114300000D03*
X104140000Y-114300000D03*
%TD*%
D20*
%TO.C,TP1*%
X71755000Y-81915000D03*
%TD*%
D15*
%TO.C,R1*%
X153035000Y-86995000D03*
D10*
X160655000Y-86995000D03*
%TD*%
D18*
%TO.C,J1*%
X97155000Y-125095000D03*
X97155000Y-122555000D03*
X99695000Y-125095000D03*
X99695000Y-122555000D03*
X102235000Y-125095000D03*
X102235000Y-122555000D03*
X104775000Y-125095000D03*
X104775000Y-122555000D03*
X107315000Y-125095000D03*
X107315000Y-122555000D03*
X109855000Y-125095000D03*
X109855000Y-122555000D03*
X112395000Y-125095000D03*
X112395000Y-122555000D03*
X114935000Y-125095000D03*
X114935000Y-122555000D03*
X117475000Y-125095000D03*
X117475000Y-122555000D03*
X120015000Y-125095000D03*
X120015000Y-122555000D03*
X122555000Y-125095000D03*
X122555000Y-122555000D03*
X125095000Y-125095000D03*
X125095000Y-122555000D03*
X127635000Y-125095000D03*
X127635000Y-122555000D03*
X130175000Y-125095000D03*
X130175000Y-122555000D03*
X132715000Y-125095000D03*
X132715000Y-122555000D03*
X135255000Y-125095000D03*
X135255000Y-122555000D03*
X137795000Y-125095000D03*
X137795000Y-122555000D03*
X140335000Y-125095000D03*
X140335000Y-122555000D03*
X142875000Y-125095000D03*
X142875000Y-122555000D03*
X145415000Y-125095000D03*
X145415000Y-122555000D03*
X147955000Y-125095000D03*
X147955000Y-122555000D03*
X150495000Y-125095000D03*
X150495000Y-122555000D03*
X153035000Y-125095000D03*
X153035000Y-122555000D03*
X155575000Y-125095000D03*
X155575000Y-122555000D03*
X158115000Y-125095000D03*
D19*
X158115000Y-122555000D03*
%TD*%
D16*
%TO.C,D1*%
X150495000Y-81915000D03*
D17*
X153035000Y-81915000D03*
%TD*%
M02*
