M48
; DRILL file {KiCad 5.1.9} date Mon Feb  1 10:21:16 2021
; FORMAT={-:-/ absolute / metric / decimal}
; #@! TF.CreationDate,2021-02-01T10:21:16+01:00
; #@! TF.GenerationSoftware,Kicad,Pcbnew,5.1.9
; #@! TF.FileFunction,Plated,1,2,PTH
FMAT,2
METRIC
T1C0.800
T2C0.900
T3C1.000
T4C1.400
%
G90
G05
T1
X86.36Y-86.36
X86.36Y-90.17
X86.36Y-93.98
X86.36Y-96.52
X86.36Y-99.06
X86.36Y-101.6
X86.36Y-109.22
X86.36Y-111.76
X86.36Y-114.3
X86.36Y-116.84
X93.98Y-86.36
X93.98Y-90.17
X93.98Y-93.98
X93.98Y-96.52
X93.98Y-99.06
X93.98Y-101.6
X93.98Y-109.22
X93.98Y-111.76
X93.98Y-114.3
X93.98Y-116.84
X97.79Y-88.98
X97.79Y-93.98
X99.14Y-114.3
X101.6Y-93.98
X101.6Y-109.22
X104.14Y-93.98
X104.14Y-109.22
X104.14Y-114.3
X106.68Y-93.98
X106.68Y-109.22
X109.22Y-93.98
X109.22Y-109.22
X111.76Y-93.98
X111.76Y-109.22
X114.3Y-93.98
X114.3Y-109.22
X116.84Y-93.98
X116.84Y-109.22
X119.38Y-93.98
X119.38Y-109.22
X121.92Y-93.98
X121.92Y-109.22
X124.46Y-93.98
X124.46Y-109.22
X127.0Y-93.98
X127.0Y-109.22
X129.54Y-93.98
X129.54Y-109.22
X132.08Y-93.98
X132.08Y-109.22
X134.62Y-93.98
X134.62Y-109.22
X153.035Y-86.995
X160.655Y-86.995
T2
X83.82Y-82.55
X86.36Y-82.55
X91.44Y-82.55
X93.98Y-82.55
X150.495Y-81.915
X153.035Y-81.915
T3
X97.155Y-122.555
X97.155Y-125.095
X99.695Y-122.555
X99.695Y-125.095
X102.235Y-122.555
X102.235Y-125.095
X104.775Y-122.555
X104.775Y-125.095
X107.315Y-122.555
X107.315Y-125.095
X109.855Y-122.555
X109.855Y-125.095
X112.395Y-122.555
X112.395Y-125.095
X114.935Y-122.555
X114.935Y-125.095
X117.475Y-122.555
X117.475Y-125.095
X120.015Y-122.555
X120.015Y-125.095
X122.555Y-122.555
X122.555Y-125.095
X125.095Y-122.555
X125.095Y-125.095
X127.635Y-122.555
X127.635Y-125.095
X130.175Y-122.555
X130.175Y-125.095
X132.715Y-122.555
X132.715Y-125.095
X135.255Y-122.555
X135.255Y-125.095
X137.795Y-122.555
X137.795Y-125.095
X140.335Y-122.555
X140.335Y-125.095
X142.875Y-122.555
X142.875Y-125.095
X145.415Y-122.555
X145.415Y-125.095
X147.955Y-122.555
X147.955Y-125.095
X150.495Y-122.555
X150.495Y-125.095
X153.035Y-122.555
X153.035Y-125.095
X155.575Y-122.555
X155.575Y-125.095
X157.48Y-91.44
X157.48Y-93.98
X157.48Y-96.52
X157.48Y-99.06
X157.48Y-101.6
X157.48Y-104.14
X158.115Y-122.555
X158.115Y-125.095
T4
X71.755Y-81.915
T0
M30
